<?xml version="1.0" encoding="UTF-8"?>
<!DOCTYPE svg PUBLIC "-//W3C//DTD SVG 1.1//EN" "http://www.w3.org/Graphics/SVG/1.1/DTD/svg11.dtd">
<!-- Creator: CorelDRAW X8 -->
<svg xmlns="http://www.w3.org/2000/svg" xml:space="preserve" width="27.0369mm" height="28.8125mm" version="1.1" style="shape-rendering:geometricPrecision; text-rendering:geometricPrecision; image-rendering:optimizeQuality; fill-rule:evenodd; clip-rule:evenodd"
viewBox="0 0 1991397 2122178"
 xmlns:xlink="http://www.w3.org/1999/xlink">
 <defs>
  <style type="text/css">
   <![CDATA[
    .str1 {stroke:black;stroke-width:14731}
    .str0 {stroke:#6EC9CA;stroke-width:5612.49}
    .fil61 {fill:none}
    .fil49 {fill:#116BC4}
    .fil42 {fill:#1F3B4F}
    .fil10 {fill:#212626}
    .fil4 {fill:#232828}
    .fil43 {fill:#23485D}
    .fil5 {fill:#262424}
    .fil55 {fill:#295D94}
    .fil8 {fill:#2F2F2F}
    .fil54 {fill:#326698}
    .fil7 {fill:#343436}
    .fil40 {fill:#38383A}
    .fil16 {fill:#38424B}
    .fil31 {fill:#3B3B3B}
    .fil15 {fill:#3F464D}
    .fil27 {fill:#424242}
    .fil6 {fill:#424244}
    .fil21 {fill:#424B54}
    .fil22 {fill:#424F59}
    .fil9 {fill:#484649}
    .fil20 {fill:#495259}
    .fil51 {fill:#4D94DB}
    .fil41 {fill:#4F4D69}
    .fil58 {fill:#50A1B6}
    .fil17 {fill:#525254}
    .fil46 {fill:#545456}
    .fil59 {fill:#59574D}
    .fil24 {fill:#59595B}
    .fil47 {fill:#666666}
    .fil18 {fill:#676767}
    .fil30 {fill:#6D6E70}
    .fil48 {fill:#6EC9CA}
    .fil53 {fill:#708E8C}
    .fil14 {fill:#726249}
    .fil56 {fill:#745669}
    .fil13 {fill:#796952}
    .fil57 {fill:#796B64}
    .fil37 {fill:#7C6B54}
    .fil45 {fill:#7E8082}
    .fil28 {fill:#808082}
    .fil29 {fill:#8A8A8C}
    .fil38 {fill:#909395}
    .fil60 {fill:#92E5E8}
    .fil52 {fill:#98C4E0}
    .fil19 {fill:#A0896B}
    .fil26 {fill:#A5A7A8}
    .fil50 {fill:#A8908C}
    .fil39 {fill:#AAAAAC}
    .fil32 {fill:#BABCBD}
    .fil33 {fill:#CAE2EB}
    .fil25 {fill:#CCCCCC}
    .fil0 {fill:#CCCCCC}
    .fil44 {fill:#CFB3A3}
    .fil36 {fill:#CFCFD1}
    .fil35 {fill:#D6AC95}
    .fil2 {fill:#D99C86}
    .fil3 {fill:#DFBDAC}
    .fil34 {fill:#E4E6E6}
    .fil12 {fill:#E9C4AF}
    .fil1 {fill:#E9CDBF}
    .fil11 {fill:#EFCFBF}
    .fil23 {fill:#F5CA56}
   ]]>
  </style>
   <clipPath id="id0">
    <path d="M1015397 326924l-172197 -41423 59167 -246015 172212 41424 -59182 246014zm-562324 -313261l82198 0 51485 10768 -1259 42580 41902 7756 -928 137933 7726 -6246 7609 -129013 123850 22950 7719 -6223 -164685 -45895 -2032 -34610 114547 0 66157 81970 -162394 131047 -171895 -213017zm853953 0l2298 0 -228 685 -2070 -685zm151118 0l2519 -8242 47212 65869 -67585 35804 -1473 5716 74045 -34412 14473 20623 22612 -11129 48398 65722 1444 -5708 -42057 -63859 66849 -32975 1459 -5679 -94330 36548 -57510 -68278 -12359 -13663 63969 13663 107389 27488 -30633 119608 -170887 -43729 26465 -103367zm246110 0l111285 0 -16219 17589 36518 45842 -125412 142331 13663 508 124278 -127069 107882 135532 13663 486 -129618 -196142 14701 -19077 136402 0 -8331 229383 -286789 -10452 7977 -218931zm-286201 585091l-84541 -2158 3064 -120779 84549 2151 -3072 120786zm-5089 -116971l0 0 -34198 37932 -34228 -39655 -4021 -103 34279 44156 -11557 12816 10887 13383 -36504 42359 4044 117 36209 -37866 32224 39597 4036 103 -38831 -57399 41689 -55329 -4029 -111zm-385642 457684l-67011 -51581 73677 -95751 67033 51580 -73699 95752zm64838 -97475l0 0 -49967 10466 -4272 -52206 -3197 -2446 1665 55860 -16896 3550 898 17236 -54438 12690 3197 2468 51558 -9237 2688 50984 3204 2468 2468 -69258 66289 -20115 -3197 -2460zm-448056 -379035l43736 95155 -135930 62466 -43714 -95154 135908 -62467zm-127239 69471l0 0 60787 17331 -25381 59683 2106 4544 30368 -62216 20550 5856 8956 -19408 66982 17441 -2092 -4530 -61818 -19599 26405 -57414 -2062 -4523 -42602 74458 -84261 -16153 2062 4530zm315228 493252l-25971 101444 -144930 -37092 25970 -101445 144931 37093zm-142596 -26185l0 0 36305 51750 -57304 30361 -1245 4839 62791 -29175 12264 17493 19194 -9435 41033 55734 1223 -4831 -35671 -54173 56692 -27952 1237 -4817 -79989 30994 -55285 -65627 -1245 4839zm461911 -290104l-183827 -26965 38521 -262601 183835 26950 -38529 262616zm19718 -256407l0 0 -84563 73662 -64227 -95493 -8758 -1289 63137 105319 -28593 24932 20248 32084 -90758 82751 8758 1297 88960 -73036 59852 94867 8772 1289 -69581 -135400 105518 -109716 -8765 -1267zm-202256 -29992l-116485 128830 -184071 -166394 116500 -128822 184056 166386zm-189021 -148576l0 0 13280 103985 -107572 324 -5547 6121 114681 5664 4485 35163 35458 958 17161 113509 5532 -6136 -10496 -107042 104803 2740 5539 -6128 -141358 -16293 -30427 -138986 -5539 6121zm160929 583434l-135385 62113 -88747 -193381 135392 -62128 88740 193396zm-98683 -181036l0 0 -24719 86463 -84879 -36164 -6445 2938 88452 43265 -8352 29263 27620 12713 -24881 95295 6445 -2983 27915 -87922 81669 37623 6445 -2939 -105872 -60677 23039 -119844 -6437 2969zm554643 -320104l-135363 62143 -88747 -193396 135378 -62120 88732 193373zm-98683 -181007l0 0 -24697 86427 -84887 -36128 -6444 2947 88459 43272 -8353 29241 27606 12720 -24888 95265 6460 -2954 27930 -87936 81661 37637 6459 -2953 -105901 -60655 23032 -119843 -6437 2960zm-241853 -90529l0 0 -86633 62658 -52788 -96200 -8183 -1959 50873 105451 -29307 21176 16477 32224 -93284 70768 8190 1966 90736 -61686 48671 95206 8190 1982 -54372 -134538 109621 -95066 -8191 -1982z"/>
   </clipPath>
     <mask id="id1">
  <linearGradient id="id2" gradientUnits="userSpaceOnUse" x1="-3.14076e+06" y1="-3.82257e+06" x2="-3.14086e+06" y2="-646830">
   <stop offset="0" style="stop-opacity:1; stop-color:white"/>
   <stop offset="1" style="stop-opacity:0; stop-color:white"/>
  </linearGradient>
      <rect style="fill:url(#id2)" x="-12636707" y="-5478869" width="19661162" height="5358510"/>
     </mask>
    <clipPath id="id3">
    </clipPath>
    <clipPath id="id4">
    </clipPath>
    <clipPath id="id5">
    </clipPath>
    <clipPath id="id6">
     <path d="M1015397 326924l-172197 -41423 59167 -246015 172212 41424 -59182 246014zm-562324 -313261l82198 0 51485 10768 -1259 42580 41902 7756 -928 137933 7726 -6246 7609 -129013 123850 22950 7719 -6223 -164685 -45895 -2032 -34610 114547 0 66157 81970 -162394 131047 -171895 -213017zm853953 0l2298 0 -228 685 -2070 -685zm151118 0l2519 -8242 47212 65869 -67585 35804 -1473 5716 74045 -34412 14473 20623 22612 -11129 48398 65722 1444 -5708 -42057 -63859 66849 -32975 1459 -5679 -94330 36548 -57510 -68278 -12359 -13663 63969 13663 107389 27488 -30633 119608 -170887 -43729 26465 -103367zm246110 0l111285 0 -16219 17589 36518 45842 -125412 142331 13663 508 124278 -127069 107882 135532 13663 486 -129618 -196142 14701 -19077 136402 0 -8331 229383 -286789 -10452 7977 -218931zm-286201 585091l-84541 -2158 3064 -120779 84549 2151 -3072 120786zm-5089 -116971l0 0 -34198 37932 -34228 -39655 -4021 -103 34279 44156 -11557 12816 10887 13383 -36504 42359 4044 117 36209 -37866 32224 39597 4036 103 -38831 -57399 41689 -55329 -4029 -111zm-385642 457684l-67011 -51581 73677 -95751 67033 51580 -73699 95752zm64838 -97475l0 0 -49967 10466 -4272 -52206 -3197 -2446 1665 55860 -16896 3550 898 17236 -54438 12690 3197 2468 51558 -9237 2688 50984 3204 2468 2468 -69258 66289 -20115 -3197 -2460zm-448056 -379035l43736 95155 -135930 62466 -43714 -95154 135908 -62467zm-127239 69471l0 0 60787 17331 -25381 59683 2106 4544 30368 -62216 20550 5856 8956 -19408 66982 17441 -2092 -4530 -61818 -19599 26405 -57414 -2062 -4523 -42602 74458 -84261 -16153 2062 4530zm315228 493252l-25971 101444 -144930 -37092 25970 -101445 144931 37093zm-142596 -26185l0 0 36305 51750 -57304 30361 -1245 4839 62791 -29175 12264 17493 19194 -9435 41033 55734 1223 -4831 -35671 -54173 56692 -27952 1237 -4817 -79989 30994 -55285 -65627 -1245 4839zm461911 -290104l-183827 -26965 38521 -262601 183835 26950 -38529 262616zm19718 -256407l0 0 -84563 73662 -64227 -95493 -8758 -1289 63137 105319 -28593 24932 20248 32084 -90758 82751 8758 1297 88960 -73036 59852 94867 8772 1289 -69581 -135400 105518 -109716 -8765 -1267zm-202256 -29992l-116485 128830 -184071 -166394 116500 -128822 184056 166386zm-189021 -148576l0 0 13280 103985 -107572 324 -5547 6121 114681 5664 4485 35163 35458 958 17161 113509 5532 -6136 -10496 -107042 104803 2740 5539 -6128 -141358 -16293 -30427 -138986 -5539 6121zm160929 583434l-135385 62113 -88747 -193381 135392 -62128 88740 193396zm-98683 -181036l0 0 -24719 86463 -84879 -36164 -6445 2938 88452 43265 -8352 29263 27620 12713 -24881 95295 6445 -2983 27915 -87922 81669 37623 6445 -2939 -105872 -60677 23039 -119844 -6437 2969zm554643 -320104l-135363 62143 -88747 -193396 135378 -62120 88732 193373zm-98683 -181007l0 0 -24697 86427 -84887 -36128 -6444 2947 88459 43272 -8353 29241 27606 12720 -24888 95265 6460 -2954 27930 -87936 81661 37637 6459 -2953 -105901 -60655 23032 -119843 -6437 2960zm-241853 -90529l0 0 -86633 62658 -52788 -96200 -8183 -1959 50873 105451 -29307 21176 16477 32224 -93284 70768 8190 1966 90736 -61686 48671 95206 8190 1982 -54372 -134538 109621 -95066 -8191 -1982z"/>
    </clipPath>
    <clipPath id="id7">
    </clipPath>
    <clipPath id="id8">
    </clipPath>
    <clipPath id="id9">
    </clipPath>
    <clipPath id="id10">
     <path d="M1015397 326924l-172197 -41423 59167 -246015 172212 41424 -59182 246014zm-562324 -313261l82198 0 51485 10768 -1259 42580 41902 7756 -928 137933 7726 -6246 7609 -129013 123850 22950 7719 -6223 -164685 -45895 -2032 -34610 114547 0 66157 81970 -162394 131047 -171895 -213017zm853953 0l2298 0 -228 685 -2070 -685zm151118 0l2519 -8242 47212 65869 -67585 35804 -1473 5716 74045 -34412 14473 20623 22612 -11129 48398 65722 1444 -5708 -42057 -63859 66849 -32975 1459 -5679 -94330 36548 -57510 -68278 -12359 -13663 63969 13663 107389 27488 -30633 119608 -170887 -43729 26465 -103367zm246110 0l111285 0 -16219 17589 36518 45842 -125412 142331 13663 508 124278 -127069 107882 135532 13663 486 -129618 -196142 14701 -19077 136402 0 -8331 229383 -286789 -10452 7977 -218931zm-286201 585091l-84541 -2158 3064 -120779 84549 2151 -3072 120786zm-5089 -116971l0 0 -34198 37932 -34228 -39655 -4021 -103 34279 44156 -11557 12816 10887 13383 -36504 42359 4044 117 36209 -37866 32224 39597 4036 103 -38831 -57399 41689 -55329 -4029 -111zm-385642 457684l-67011 -51581 73677 -95751 67033 51580 -73699 95752zm64838 -97475l0 0 -49967 10466 -4272 -52206 -3197 -2446 1665 55860 -16896 3550 898 17236 -54438 12690 3197 2468 51558 -9237 2688 50984 3204 2468 2468 -69258 66289 -20115 -3197 -2460zm-448056 -379035l43736 95155 -135930 62466 -43714 -95154 135908 -62467zm-127239 69471l0 0 60787 17331 -25381 59683 2106 4544 30368 -62216 20550 5856 8956 -19408 66982 17441 -2092 -4530 -61818 -19599 26405 -57414 -2062 -4523 -42602 74458 -84261 -16153 2062 4530zm315228 493252l-25971 101444 -144930 -37092 25970 -101445 144931 37093zm-142596 -26185l0 0 36305 51750 -57304 30361 -1245 4839 62791 -29175 12264 17493 19194 -9435 41033 55734 1223 -4831 -35671 -54173 56692 -27952 1237 -4817 -79989 30994 -55285 -65627 -1245 4839zm461911 -290104l-183827 -26965 38521 -262601 183835 26950 -38529 262616zm19718 -256407l0 0 -84563 73662 -64227 -95493 -8758 -1289 63137 105319 -28593 24932 20248 32084 -90758 82751 8758 1297 88960 -73036 59852 94867 8772 1289 -69581 -135400 105518 -109716 -8765 -1267zm-202256 -29992l-116485 128830 -184071 -166394 116500 -128822 184056 166386zm-189021 -148576l0 0 13280 103985 -107572 324 -5547 6121 114681 5664 4485 35163 35458 958 17161 113509 5532 -6136 -10496 -107042 104803 2740 5539 -6128 -141358 -16293 -30427 -138986 -5539 6121zm160929 583434l-135385 62113 -88747 -193381 135392 -62128 88740 193396zm-98683 -181036l0 0 -24719 86463 -84879 -36164 -6445 2938 88452 43265 -8352 29263 27620 12713 -24881 95295 6445 -2983 27915 -87922 81669 37623 6445 -2939 -105872 -60677 23039 -119844 -6437 2969zm554643 -320104l-135363 62143 -88747 -193396 135378 -62120 88732 193373zm-98683 -181007l0 0 -24697 86427 -84887 -36128 -6444 2947 88459 43272 -8353 29241 27606 12720 -24888 95265 6460 -2954 27930 -87936 81661 37637 6459 -2953 -105901 -60655 23032 -119843 -6437 2960zm-241853 -90529l0 0 -86633 62658 -52788 -96200 -8183 -1959 50873 105451 -29307 21176 16477 32224 -93284 70768 8190 1966 90736 -61686 48671 95206 8190 1982 -54372 -134538 109621 -95066 -8191 -1982z"/>
    </clipPath>
    <clipPath id="id11">
    </clipPath>
    <clipPath id="id12">
    </clipPath>
    <clipPath id="id13">
    </clipPath>
    <clipPath id="id14">
     <path d="M1015397 326924l-172197 -41423 59167 -246015 172212 41424 -59182 246014zm-562324 -313261l82198 0 51485 10768 -1259 42580 41902 7756 -928 137933 7726 -6246 7609 -129013 123850 22950 7719 -6223 -164685 -45895 -2032 -34610 114547 0 66157 81970 -162394 131047 -171895 -213017zm853953 0l2298 0 -228 685 -2070 -685zm151118 0l2519 -8242 47212 65869 -67585 35804 -1473 5716 74045 -34412 14473 20623 22612 -11129 48398 65722 1444 -5708 -42057 -63859 66849 -32975 1459 -5679 -94330 36548 -57510 -68278 -12359 -13663 63969 13663 107389 27488 -30633 119608 -170887 -43729 26465 -103367zm246110 0l111285 0 -16219 17589 36518 45842 -125412 142331 13663 508 124278 -127069 107882 135532 13663 486 -129618 -196142 14701 -19077 136402 0 -8331 229383 -286789 -10452 7977 -218931zm-286201 585091l-84541 -2158 3064 -120779 84549 2151 -3072 120786zm-5089 -116971l0 0 -34198 37932 -34228 -39655 -4021 -103 34279 44156 -11557 12816 10887 13383 -36504 42359 4044 117 36209 -37866 32224 39597 4036 103 -38831 -57399 41689 -55329 -4029 -111zm-385642 457684l-67011 -51581 73677 -95751 67033 51580 -73699 95752zm64838 -97475l0 0 -49967 10466 -4272 -52206 -3197 -2446 1665 55860 -16896 3550 898 17236 -54438 12690 3197 2468 51558 -9237 2688 50984 3204 2468 2468 -69258 66289 -20115 -3197 -2460zm-448056 -379035l43736 95155 -135930 62466 -43714 -95154 135908 -62467zm-127239 69471l0 0 60787 17331 -25381 59683 2106 4544 30368 -62216 20550 5856 8956 -19408 66982 17441 -2092 -4530 -61818 -19599 26405 -57414 -2062 -4523 -42602 74458 -84261 -16153 2062 4530zm315228 493252l-25971 101444 -144930 -37092 25970 -101445 144931 37093zm-142596 -26185l0 0 36305 51750 -57304 30361 -1245 4839 62791 -29175 12264 17493 19194 -9435 41033 55734 1223 -4831 -35671 -54173 56692 -27952 1237 -4817 -79989 30994 -55285 -65627 -1245 4839zm461911 -290104l-183827 -26965 38521 -262601 183835 26950 -38529 262616zm19718 -256407l0 0 -84563 73662 -64227 -95493 -8758 -1289 63137 105319 -28593 24932 20248 32084 -90758 82751 8758 1297 88960 -73036 59852 94867 8772 1289 -69581 -135400 105518 -109716 -8765 -1267zm-202256 -29992l-116485 128830 -184071 -166394 116500 -128822 184056 166386zm-189021 -148576l0 0 13280 103985 -107572 324 -5547 6121 114681 5664 4485 35163 35458 958 17161 113509 5532 -6136 -10496 -107042 104803 2740 5539 -6128 -141358 -16293 -30427 -138986 -5539 6121zm160929 583434l-135385 62113 -88747 -193381 135392 -62128 88740 193396zm-98683 -181036l0 0 -24719 86463 -84879 -36164 -6445 2938 88452 43265 -8352 29263 27620 12713 -24881 95295 6445 -2983 27915 -87922 81669 37623 6445 -2939 -105872 -60677 23039 -119844 -6437 2969zm554643 -320104l-135363 62143 -88747 -193396 135378 -62120 88732 193373zm-98683 -181007l0 0 -24697 86427 -84887 -36128 -6444 2947 88459 43272 -8353 29241 27606 12720 -24888 95265 6460 -2954 27930 -87936 81661 37637 6459 -2953 -105901 -60655 23032 -119843 -6437 2960zm-241853 -90529l0 0 -86633 62658 -52788 -96200 -8183 -1959 50873 105451 -29307 21176 16477 32224 -93284 70768 8190 1966 90736 -61686 48671 95206 8190 1982 -54372 -134538 109621 -95066 -8191 -1982z"/>
    </clipPath>
 </defs>
 <g id="Слой_x0020_1">
  <metadata id="CorelCorpID_0Corel-Layer"/>
  <ellipse class="fil0" cx="753452" cy="2100546" rx="753452" ry="21632"/>
  <g id="_789631104">
   <path class="fil1" d="M1285556 1509164c-12639,74 -243009,5414 -248710,2475 -5701,-2939 -33602,-15409 -29204,-14576 4389,839 -36158,-2910 -36158,-2910 0,0 -51985,33469 -59034,33314 -13913,-302 22649,4236 41394,13546 -2048,1377 19018,-3322 47198,-332 10511,1120 26118,-390 27967,-287 1856,96 229339,28364 229339,28364l27208 -59594z"/>
   <path class="fil2" d="M1358246 1417729c7873,21345 8956,49400 -5723,62231 -20108,17574 -109812,87443 -137020,98484 0,0 -17589,1989 -49820,-59064 0,0 70797,-59078 131864,-99434 21551,-14245 52913,-23326 60699,-2217z"/>
   <path class="fil3" d="M940365 1488475c-2637,-1547 -23186,-14017 -23857,-14039 -670,-22 -25543,-7925 -26640,-7594 -1879,567 -31142,24962 -30037,26251 361,412 10960,3204 14142,1871 8669,-3639 15998,-15210 19865,-16175 5281,-1318 16719,2423 20129,1650 3411,-766 26398,8036 26398,8036z"/>
   <g>
    <path class="fil4" d="M845071 1536225l7 0c324,206 766,118 965,-214l2003 -3093c214,-324 118,-759 -213,-972 -317,-207 -759,-118 -965,213l-2004 3094c-206,324 -110,758 207,972z"/>
    <path class="fil5" d="M905718 1441998c-928,-596 -869,-2334 133,-3889 1001,-1554 2570,-2327 3491,-1730 928,604 869,2342 -133,3896 -1001,1547 -2563,2327 -3491,1723z"/>
    <path class="fil6" d="M845491 1532653c427,-1672 1907,-7469 2113,-7940 258,-567 575,-1488 1532,-3182 958,-1687 1643,-1694 7837,-11711 6187,-10010 41173,-63086 43317,-66407 2143,-3315 2143,-4088 3520,-4825 1378,-736 1554,-582 2181,-221 257,148 906,523 1635,965 699,486 1303,921 1554,1098 582,419 795,508 692,2069 -103,1562 -803,1878 -2946,5193 -2143,3322 -36113,57053 -42683,66820 -6577,9766 -6305,10400 -7446,11961 -1149,1569 -1857,2239 -2262,2703 -353,391 -5023,4125 -6371,5193l-2673 -1716z"/>
    <path class="fil7" d="M858174 1514261l1532 987c457,287 1068,162 1363,-295l14090 -21823c287,-457 162,-1068 -302,-1363l-1525 -987c-457,-302 -1068,-169 -1370,287l-14083 21824c-294,464 -162,1076 295,1370z"/>
    <path class="fil8" d="M861069 1514953c-295,457 -906,582 -1363,295l-773 -493 15165 -23482 759 494c464,295 589,906 302,1363l-14090 21823z"/>
    <path class="fil9" d="M859706 1515248c457,287 1068,162 1363,-295l14090 -21823c287,-457 162,-1068 -302,-1363l-759 -494 33528 -51941c699,486 1303,921 1554,1098 582,419 795,508 692,2069 -103,1562 -803,1878 -2946,5193 -2143,3322 -36113,57053 -42683,66820 -6577,9766 -6305,10400 -7446,11961 -1149,1569 -1857,2239 -2262,2703 -353,391 -5023,4125 -6371,5193l-744 -479 -596 -383 1009 -1561 11100 -17191 773 493z"/>
    <path class="fil10" d="M846824 1533507l596 383 -1377 2121c-199,332 -641,420 -972,214l1753 -2718z"/>
   </g>
   <path class="fil11" d="M1357074 1256219c-5015,38043 -11954,40134 -1775,91059 0,0 -66274,31989 -65817,29705 4912,-24578 -6733,-25985 -11925,-71857l79517 -48907z"/>
   <path class="fil11" d="M1174249 1155297c-2122,6857 -18252,39310 -15284,47080 2969,7771 12735,32917 12735,32917 0,0 -16977,34330 -20373,38440 -3395,4110 24034,7638 24196,7726 103,52 -2328,8883 -1319,15262 2085,13287 30449,40355 40356,43640 10879,3609 87465,-12970 93829,-23024 6371,-10054 25050,-37940 25050,-37940l-428 -9597c-2246,-50851 -17544,-96532 -24615,-151302l-134147 36798z"/>
   <path class="fil12" d="M1171538 1255372c855,457 2490,12831 12683,17478 7042,3212 21979,3521 28019,-9560 5237,-11358 3299,-32342 3299,-32342l80800 -13722 2062 -9523 -115859 17308 -11004 30361z"/>
   <path class="fil3" d="M1151327 1273734c-3395,4110 24034,7638 24196,7726 7,0 0,52 -15,133 8124,-3079 6342,-1031 9200,-10356 0,0 -8471,5060 -9023,5495 -545,442 -22988,-2306 -24358,-2998z"/>
   <path class="fil12" d="M1195203 1326014c7491,7174 15114,12941 19357,14348 10879,3609 87465,-12970 93829,-23024 6371,-10054 25050,-37940 25050,-37940l-214 -4795c0,0 -31811,39649 -33351,40532 -1539,877 -66002,16941 -77440,18480 -7211,973 -19475,-3712 -27231,-7601z"/>
   <path class="fil13" d="M1278934 1262546c21507,-11188 20601,-24991 33078,-46380 0,0 10636,-14002 30324,-2667 19688,11343 21065,34500 12654,45814 -8419,11320 -17058,26228 -17058,26228 0,0 -2851,3742 -4302,13692 -1451,9951 8831,22642 8831,22642 0,0 -596,-21139 -655,-20314 -59,825 12433,24232 12433,24232l-2011 -21080c0,0 15261,22089 12050,15615 -3219,-6474 -346,-38853 12698,-55425 29145,-37048 48089,-95928 3742,-130185 0,0 11865,-11667 9472,-11092 -2394,574 -13980,3970 -13980,3970 0,0 2482,-7491 -1436,-15453 -3926,-7962 -12551,-16897 -12750,-17103 9693,21242 6327,23098 6327,23098 0,0 -3388,-21558 -52199,-41607 -65302,-26833 -122429,36525 -187216,32268 17920,61214 122179,72705 157953,60544 4080,-1392 16727,15166 16042,17935 -6128,24652 -10179,58349 -23997,75268z"/>
   <path class="fil14" d="M1356485 1228392c5333,10953 4029,23489 -1495,30921 -8419,11320 -17058,26228 -17058,26228 0,0 -2851,3742 -4302,13692 -1451,9951 8831,22642 8831,22642 0,0 -596,-21139 -655,-20314 -59,825 12433,24232 12433,24232l-2011 -21080c0,0 15261,22089 12050,15615 -3219,-6474 -346,-38853 12698,-55425 9325,-11851 17596,-25941 23098,-40739 -10739,21169 -24063,36437 -36702,54822 -1215,1760 -13066,20233 -13133,21220 -51,766 -1694,-12551 11807,-27378 -4426,2836 -21617,20299 -22435,24417 -221,1105 324,-4287 5605,-14076 5281,-9788 16396,-24092 19695,-40156 3300,-16057 -2423,-16720 -5060,-19357 0,0 -1038,1562 -3366,4736z"/>
   <path class="fil14" d="M1278934 1262546c21507,-11188 20601,-24991 33078,-46380 0,0 1002,-1312 2939,-2807 3727,-20107 413,-31016 -4139,-36753 -5060,-6386 -16941,-11446 -16941,-11446l12315 -11653c-40149,10143 -84099,4943 -124697,-191 23164,810 43817,-7557 55720,-15283 -61038,4434 -86302,-10592 -87664,-11594 -59,-37 41062,1495 68418,-9457 1097,-442 -18038,1539 -39163,-442 -21116,-1981 -49864,-7741 -49864,-7741 17920,61214 122179,72705 157953,60544 4080,-1392 16727,15166 16042,17935 -6128,24652 -10179,58349 -23997,75268z"/>
   <path class="fil15" d="M1026335 1779544c737,191 -96215,27952 -96215,27952 -44657,48833 -62393,137093 -89108,201534 -15637,37718 -22420,50446 -24181,49989 -16992,-4397 -80129,-90750 -77882,-93284l187002 -210763 100384 24572z"/>
   <path class="fil16" d="M827467 2044089c-5045,11270 -8352,17891 -9096,17567 -13258,-5679 -86324,-56692 -100907,-78464 8426,-2755 24932,-10548 24932,-10548 243,288 81786,70186 85071,71445z"/>
   <path class="fil17" d="M737174 1906429c-10555,1760 -22885,13206 -46646,3086 -23753,-10120 -67755,-63807 -80512,-64242 -12764,-442 -12322,3513 -16727,17154 -4397,13641 89321,165886 91966,164125 2636,-1760 65250,-42911 65250,-42911l-13331 -77212z"/>
   <path class="fil18" d="M721588 1911651c-7866,2416 -17640,3579 -31060,-2136 -14819,-6320 -37520,-29587 -55602,-46307 -854,3616 -1318,8058 538,11777 3086,6158 11659,38058 34544,49504 22877,11438 56471,3115 56471,3115l-4891 -15953 0 0z"/>
   <path class="fil19" d="M609132 1845244c-62385,-1790 64662,175814 79430,191185 5494,-3896 9693,-7748 9693,-7748 0,0 -32121,-49283 -55440,-88879 -23319,-39605 -33005,-85145 -32784,-89322 74,-1347 -221,-3226 -899,-5236z"/>
   <path class="fil20" d="M1270037 1702169c-2637,14083 -8802,39604 -33440,53680 -24645,14083 -308009,29926 -308009,29926 0,0 -101025,135230 -161606,186228 -14540,12235 -15961,12654 -16477,11638 -2637,-5281 -61663,-87502 -56382,-90139 18111,-9059 138537,-119858 166710,-145888 25764,-23798 31995,-34500 73301,-40598 42521,-6276 203096,-27908 213584,-28608 13199,-876 122319,23761 122319,23761z"/>
   <path class="fil21" d="M1216232 1700600c-398,317 -788,641 -1267,1039 -6769,5627 -31635,26287 -65428,31922 -12852,2136 -34978,2011 -60838,1871 -47869,-273 -108428,-619 -148105,13184 -61281,21316 -213275,185507 -213710,185978l3425 3189c435,-471 151655,-163822 211824,-184748 38926,-13538 99036,-13199 146543,-12934 26096,148 48429,273 61635,-1922 35015,-5841 60662,-27142 67644,-32946 545,-456 980,-817 1186,-979l-2909 -3654z"/>
   <path class="fil22" d="M763402 1974994c-11203,9310 -12425,9575 -12897,8647 -2637,-5281 -61663,-87502 -56382,-90139 1686,-847 4301,-2607 7667,-5119 8308,13641 31244,50844 42757,64787 7667,9303 14340,16845 18855,21824z"/>
   <path class="fil23" d="M1296928 1370443c16793,-17250 45946,-22752 51426,-23798 7977,-1525 10120,-3963 14075,-2644 855,287 1569,1900 6217,6577 685,685 -6453,567 -4339,3528 3816,5333 17420,17559 19946,35634 3580,25662 -4250,33837 -10378,87141 -8802,76564 -34323,176890 -72159,229693 -37844,52796 -22001,54556 -25522,48398 -3521,-6157 -36960,-29918 -63365,-37844 -26398,-7917 -112905,-32850 -112905,-32850 0,0 51307,-27871 79466,-59549 45865,-51596 96598,-232772 117538,-254286z"/>
   <path class="fil24" d="M744267 2009575l-14120 -12551c715,832 -37328,12345 -49695,12043 -43972,-1083 -106821,-649 -114305,8588 -7483,9243 -6599,26405 1319,33881 7925,7483 195369,51485 196688,48406 1318,-3079 28173,-54409 28173,-54409l-48060 -35958z"/>
   <path class="fil18" d="M748281 2012860l-11070 -9553 0 -8 -7064 -6275c715,832 -37328,12345 -49695,12043 -26272,-649 -59277,-752 -83193,1237 3462,7947 25647,12087 41947,15821 25735,5900 95191,-5959 109075,-13265z"/>
   <g>
    <polygon class="fil25" points="776351,1528012 764647,1527460 763535,1534774 776763,1535400 "/>
    <polygon class="fil25" points="759469,1527210 747773,1526657 746661,1533964 759889,1534597 "/>
    <polygon class="fil25" points="742602,1526414 730906,1525854 729786,1533161 743015,1533794 "/>
    <polygon class="fil25" points="725728,1525611 714031,1525052 712919,1532365 726148,1532992 "/>
    <polygon class="fil25" points="708861,1524809 697150,1524249 696038,1531563 709273,1532189 "/>
    <polygon class="fil25" points="691987,1524006 680283,1523446 679171,1530760 692406,1531386 "/>
    <polygon class="fil25" points="675112,1523195 663409,1522643 662296,1529957 675532,1530583 "/>
    <path class="fil26" d="M786265 1536660c44,-987 -302,-1952 -973,-2689 -662,-729 -1590,-1164 -2577,-1215l-136984 -6519c-987,-44 -1951,302 -2688,973 -729,663 -1164,1591 -1215,2578l-111 2393c-96,2063 1488,3808 3543,3904l136983 6519c2055,95 3801,-1488 3904,-3543l118 -2401z"/>
    <path class="fil26" d="M652220 1532240l-3638 -515 -66 4169 692 6687 2784 0c0,0 162,-10348 228,-10341z"/>
   </g>
   <path class="fil27" d="M949668 1536836l-204164 0c-2298,0 -4183,1879 -4183,4177 0,2305 1885,4183 4183,4183l204164 0c2298,0 4176,-1878 4176,-4183 0,-2298 -1878,-4177 -4176,-4177z"/>
   <path class="fil11" d="M1213448 1447361l-64934 43448c0,0 -185382,1024 -189286,-2393 -1716,-1098 -55204,-21471 -56036,-21471 -3072,0 -32917,20101 -34456,21640 -1532,1532 -16602,22892 -19253,27223 -2659,4331 -2519,6430 279,7550 2792,1119 7123,-1400 11454,-4052 4331,-2658 5590,-3911 5590,-3911 0,0 -2371,4191 980,6983 3351,2791 5590,1819 5590,1819 0,0 -140,3911 3212,5031 3351,1112 6430,0 6430,0 0,0 0,3071 6702,3911 6710,840 19983,-5591 19983,-5591 0,0 8043,9568 27598,8176 10916,-781 25809,-9008 25809,-9008l202204 15284c0,0 88902,-53629 84998,-58998 -3911,-5369 -36864,-35641 -36864,-35641z"/>
   <path class="fil12" d="M847590 1520308c-133,1473 596,2416 2172,3050 2792,1119 7123,-1400 11454,-4052 4331,-2658 5590,-3911 5590,-3911 0,0 -2371,4191 980,6983 3351,2791 5590,1819 5590,1819 0,0 -140,3911 3212,5031 3351,1112 6430,0 6430,0 0,0 0,3071 6702,3911 6710,840 19983,-5591 19983,-5591 0,0 8043,9568 27598,8176 10916,-781 24490,-7468 24490,-7468l203523 13744c0,0 23990,-14474 46499,-29131l-4655 -12241c0,0 -36526,31237 -56324,32997 -19806,1760 -189978,-10997 -189978,-10997 -7837,9494 -32128,15726 -48406,4839 -2784,-1863 111,-8249 111,-8249 0,0 -2983,4751 -4508,6931 -1532,2188 -22428,7955 -22001,2313 74,-1024 21051,-25367 24586,-29926 560,-729 -361,-1112 -766,-663l-26678 29624c0,0 -2644,633 -4736,302 -2084,-332 -3889,-2121 -2747,-4950 1134,-2821 27937,-28836 25632,-27937 -2313,891 -27451,27540 -29322,27215 -1871,-331 -5421,-3690 -4184,-5155 6489,-7690 22745,-22944 20351,-24004 -876,-391 -27569,34905 -40598,27340z"/>
   <g>
    <polygon class="fil28" points="1153412,1955490 1124672,1955490 1124672,1801802 1153412,1801802 "/>
    <polygon class="fil29" points="1139042,1801802 1124672,1801802 1124672,1955490 1139042,1955490 "/>
   </g>
   <path class="fil27" d="M1161786 1934410l-45489 0 0 102726 -105415 18009c-7144,1223 -13177,5929 -13177,13177l0 0c0,7247 6033,14392 13177,13177l114983 -19644 26353 0 114983 19644c7144,1215 13177,-5930 13177,-13177l0 0c0,-7248 -6033,-11954 -13177,-13177l-105415 -18009 0 -102726z"/>
   <path class="fil27" d="M1268593 2099942c-9737,0 -17670,-7940 -17670,-17670 0,-9737 7933,-17670 17670,-17670 9730,0 17670,7933 17670,17670 0,9730 -7940,17670 -17670,17670z"/>
   <path class="fil27" d="M1010882 2099942c-9737,0 -17669,-7940 -17669,-17670 0,-9737 7932,-17670 17669,-17670 9730,0 17670,7933 17670,17670 0,9730 -7940,17670 -17670,17670z"/>
   <path class="fil27" d="M1139565 2099942c-9730,0 -17663,-7940 -17663,-17670 0,-9737 7933,-17670 17663,-17670 9737,0 17669,7933 17669,17670 0,9730 -7932,17670 -17669,17670z"/>
   <path class="fil30" d="M1239057 1806501l-224882 0c-9443,0 -17162,7727 -17162,17162 0,9442 7719,17161 17162,17161l224882 0c9443,0 17162,-7719 17162,-17161 0,-9435 -7719,-17162 -17162,-17162z"/>
   <path class="fil2" d="M1359476 1331700c-12094,2623 -75533,30398 -81477,37940 -5944,7542 -10629,31428 -10629,31428 8552,-4235 64912,-37829 102624,-43309 2128,-309 -3889,-23768 -10518,-26059z"/>
   <path class="fil23" d="M1352965 1381211c7873,21345 8956,49393 -5723,62231 -20108,17574 -109812,87443 -137013,98477 0,0 -17589,1988 -49827,-59064 0,0 70796,-59071 131864,-99434 21551,-14245 52913,-23319 60699,-2210z"/>
   <path class="fil2" d="M1358017 1401952c2018,16278 -567,32563 -10775,41490 -20108,17574 -109812,87443 -137013,98477 0,0 -17589,1988 -49827,-59064 0,0 24055,39169 38138,43132 14083,3963 127673,-74958 143885,-93726 15835,-18325 15607,-29786 15592,-30309z"/>
   <path class="fil27" d="M1391825 1331693c106991,-76969 -43979,370852 -70451,453743 -19518,61126 -347135,44605 -377444,39000 -14753,-2725 -24564,-21389 -6445,-42204 15917,-18281 239695,-13133 274784,-23356 35082,-10223 37726,-2305 75570,-94705 37836,-92400 72911,-185787 85366,-250773 12462,-64985 18620,-81705 18620,-81705z"/>
   <path class="fil31" d="M1412014 1322877c64403,-1702 -66194,386010 -90640,462559 -19518,61126 -347135,44605 -377444,39000 -7549,-1392 -13795,-6960 -15681,-14856 16823,-22789 142375,3594 210793,-3079 68418,-6666 140150,-19725 147184,-29410 60213,-82788 109989,-349463 125788,-454214z"/>
   <polygon class="fil32" points="1086349,2099942 1042348,2099942 1042348,1552562 1086349,1552562 "/>
   <polygon class="fil32" points="538976,2099942 494975,2099942 494975,1549475 538976,1549475 "/>
   <polygon class="fil32" points="1171273,1564435 410058,1564435 410058,1542000 1171273,1542000 "/>
   <polygon class="fil26" points="410058,1553217 410058,1564442 1171273,1564442 1171273,1553217 "/>
   <path class="fil27" d="M1094554 1784132c-7395,-36739 -6076,-134132 36091,-173280 48708,-45217 164147,-33866 223712,-36106l-2637 38875c-88356,-1436 -249948,-35081 -224485,168338l-32681 2173z"/>
   <path class="fil27" d="M1167237 1216541c-1179,-339 -2534,-398 -4744,-670 -2217,-273 -5701,258 -5575,1451 117,1186 6702,33476 6702,33476 0,0 8242,-3941 6526,-3454 -1738,478 -2909,-30803 -2909,-30803z"/>
   <path class="fil27" d="M1161565 1216585c1407,8316 3388,57915 28954,57215 27562,-744 22310,-31391 21463,-48015l137690 -17766 -1613 -9892c-46719,4611 -93453,9222 -140187,13833 -7218,-5502 -45438,29 -46307,4625zm5871 5981l0 0c-413,-4684 34728,-6577 35774,-4625 4898,9221 10201,49017 -12389,50100 -18009,854 -21249,-33904 -23385,-45475z"/>
   <path class="fil33" d="M1203644 1217211c3499,6578 7189,28299 1370,41372 -2570,5767 -6990,9848 -14127,10194 -5929,280 -10319,-3211 -13611,-8470 -6695,-10768 -8809,-28954 -10297,-37461 -545,-6894 35914,-7049 36665,-5635z"/>
   <path class="fil34" d="M1208012 1238520c265,7019 -449,14362 -2998,20063 -1090,2438 -2519,4589 -4331,6268 -8301,-7674 -20520,-18980 -31561,-29248 -928,-5016 -1576,-9568 -2143,-12757 -390,-4891 14731,-5657 18119,-5959l22914 21633z"/>
   <path class="fil11" d="M1317338 1199969c3056,-1643 7616,-3256 14473,-3793 36908,-2858 41239,42594 30176,55749 -9103,10827 -21765,22207 -30994,22848 -9236,640 -19356,-8787 -22523,-16911 -2416,-6202 -22,-27967 1605,-40916 833,-6607 656,-13420 7263,-16977z"/>
   <path class="fil12" d="M1350946 1200050c18908,10982 19769,41490 11041,51875 -9103,10827 -21765,22207 -30994,22848 -4124,287 -8426,-1437 -12204,-4154 6341,-825 15917,-2969 22148,-6880 9457,-5944 18701,-12764 21558,-21566 2866,-8802 2564,-15747 -1097,-26184 -3513,-9995 -9929,-15505 -10452,-15939z"/>
   <path class="fil35" d="M1350902 1216755c3867,10370 1856,28099 -5841,34691 -7697,6585 -15924,9619 -20306,4721 -4383,-4890 -6504,-10090 -2637,-12057 3859,-1974 7012,-1561 8028,-5907 1009,-4353 450,-7469 -2482,-8529 -2931,-1061 -3064,1141 -3020,-5694 96,-17309 22413,-17552 26258,-7225z"/>
   <path class="fil26" d="M532303 1285497c-2828,7527 -23577,83893 -38890,146610 -9405,38521 -16786,72027 -16786,81675 0,28181 18385,28203 18436,28203l44 15 149608 0 0 -7042 -149608 0 0 15c-744,-22 -11438,-685 -11438,-21191 0,-9096 7277,-42012 16565,-80026 15254,-62474 35855,-138367 38639,-145784l-6570 -2475z"/>
   <path class="fil32" d="M547829 1097265l8316 -604 29352 405830 -8110 597c-21161,-45924 -37895,-118437 -43898,-200791 -1201,-16557 -1922,-32791 -2180,-48545 -1054,-62600 5104,-117730 16520,-156487z"/>
   <polygon class="fil36" points="568497,1095755 547829,1097265 577387,1503088 598062,1501578 "/>
   <path class="fil37" d="M1353775 1111200c-3521,-3955 -18259,-23540 -47743,-30581 -48708,-11630 -131135,26486 -130244,26405 2423,-221 45541,-9244 73927,-13641 28379,-4405 60942,6820 60942,6820 0,0 -14966,3079 -47964,15623 -33004,12536 -68425,14075 -65560,14517 2858,442 62975,-2239 87119,-7041 24144,-4803 34323,-12536 34323,-12536 0,0 -3300,12315 -16499,22214 -13206,9906 -30360,15843 -28821,15187 1540,-662 38279,-5067 51699,-12322 13420,-7262 17603,-8802 17603,-8802 0,0 -7358,14716 -17161,24638 -9804,9928 -17604,13206 -14960,12543 2637,-663 32121,-11217 40916,-21124 8801,-9899 10783,-18038 9906,-16941 -884,1105 -14746,10563 -13206,9465 1547,-1105 11225,-16720 9464,-15622 -1760,1097 -28158,4839 -28158,4839 0,0 7034,-5502 11881,-7262 4839,-1753 9457,-2858 9457,-2858 0,0 -4405,-3521 -16499,-7042 -12101,-3520 -14524,-3520 -14524,-3520 1318,-2910 34102,4382 34102,7041z"/>
   <path class="fil37" d="M1379105 1149508c0,0 12315,5716 18259,26177 5944,20461 876,36304 -5060,49724 -5944,13420 -13420,22222 -11881,20020 1539,-2203 11881,-22001 11439,-40039 -442,-18046 -5060,-28600 -5060,-28600 0,0 2423,6820 221,25956 -2203,19143 -12323,33225 -11439,31679 876,-1540 6599,-19136 3521,-38279 -3079,-19143 -11881,-31900 -11004,-30581 883,1318 4839,19585 3078,30802 -1760,11218 -5060,18701 -4839,17162 221,-1540 -1539,-16720 -8581,-33226 -7041,-16499 -11880,-20675 -11438,-19577 442,1097 5060,16940 3521,25079 -1540,8139 -1761,10562 -1540,8139 221,-2416 -3300,-20675 -7483,-28600 -4176,-7918 -5937,-9016 -5716,-8802 221,221 2748,994 5281,3410 2527,2423 3079,3580 2969,3248 -111,-331 -884,-8853 -884,-8853 0,0 604,273 4345,2747 3742,2475 6659,6379 6327,5723 -331,-663 -7645,-11608 -7645,-11608 0,0 6157,-442 12043,2475 5892,2917 7866,5171 7755,4898 -110,-280 -7144,-9685 -6820,-9685 331,0 11387,2474 15843,5391 4456,2917 7756,6165 7704,5885 -59,-272 -11991,-13862 -11335,-13803 663,52 8419,3138 8419,3138z"/>
   <path class="fil19" d="M704854 2075761c40304,9214 49091,9936 64750,13420 339,6916 -2276,7189 -6003,11365 -3719,4169 -181360,-39376 -193182,-45136 -11821,-5752 -10775,-20027 -8507,-28976 11019,23585 102638,40113 142942,49327z"/>
   <polygon class="fil36" points="513020,2070067 500668,2070067 500668,1577258 513020,1577258 "/>
   <polygon class="fil36" points="1060835,2070067 1048483,2070067 1048483,1577258 1060835,1577258 "/>
   <polygon class="fil27" points="1089848,2099942 1039247,2099942 1039247,2088540 1089848,2088540 "/>
   <polygon class="fil27" points="542276,2099942 491675,2099942 491675,2088540 542276,2088540 "/>
   <g>
    <polygon class="fil24" points="620144,1541359 573218,1541359 573218,1535363 620144,1535363 "/>
    <g>
     <path class="fil30" d="M595801 1390330l191 94536 -20196 29 -184 -94536 20189 -29zm-6467 90470l0 0 0 898 6261 -7 0 -899 -6261 8zm-177 -86685l0 0 8 899 6260 -7 0 -899 -6268 7zm3027 2166l0 0 0 899 3249 -8 -8 -898 -3241 7zm8 2165l0 0 0 899 3248 -7 -7 -899 -3241 7zm0 2173l0 0 7 891 3241 0 -7 -898 -3241 7zm7 2166l0 0 0 898 3248 -7 -7 -899 -3241 8zm-3020 2165l0 0 8 906 6260 -15 0 -898 -6268 7zm3027 2166l0 0 0 898 3249 -7 -8 -899 -3241 8zm0 2165l0 0 8 899 3241 0 0 -906 -3249 7zm15 2173l0 0 -7 898 3248 -7 0 -899 -3241 8zm0 2165l0 0 0 899 3248 -8 -7 -898 -3241 7zm-3020 2173l0 0 0 899 6268 -15 0 -899 -6268 15zm3028 2158l0 0 0 899 3248 0 -8 -906 -3240 7zm0 2166l0 0 0 898 3248 0 0 -898 -3248 0zm7 2172l0 0 0 899 3248 -7 0 -899 -3248 7zm7 2166l0 0 0 898 3248 -7 -7 -898 -3241 7zm-3012 2173l0 0 0 898 6260 -14 0 -899 -6260 15zm3020 2158l0 0 0 898 3248 -7 -8 -891 -3240 0zm0 2173l0 0 7 898 3241 -7 0 -899 -3248 8zm7 2165l0 0 0 899 3248 -8 -7 -898 -3241 7zm7 2165l0 0 0 899 3241 -7 0 -892 -3241 0zm-3019 2173l0 0 0 899 6268 -15 0 -898 -6268 14zm3027 2158l0 0 0 899 3248 0 -7 -906 -3241 7zm0 2173l0 0 7 899 3241 -8 0 -898 -3248 7zm7 2166l0 0 0 898 3248 -7 -7 -899 -3241 8zm0 2165l0 0 8 899 3240 -8 0 -898 -3248 7zm-3012 2173l0 0 0 899 6268 -15 0 -891 -6268 7zm3027 2158l0 0 0 899 3248 0 -7 -899 -3241 0zm0 2173l0 0 7 898 3241 -7 0 -899 -3248 8zm7 2165l0 0 0 899 3248 -7 -7 -899 -3241 7zm0 2166l0 0 0 898 3248 -7 0 -891 -3248 0zm-3012 2173l0 0 0 898 6268 -15 -8 -891 -6260 8zm3027 2165l0 0 0 899 3241 -8 0 -898 -3241 7zm0 2165l0 0 0 899 3248 -7 0 -899 -3248 7zm7 2166l0 0 0 898 3241 -7 0 -891 -3241 0zm0 2165l0 0 0 899 3249 -7 0 -892 -3249 0zm-3012 2173l0 0 0 899 6268 -8 -7 -898 -6261 7zm3027 2166l0 0 0 898 3241 -7 0 -899 -3241 8zm0 2165l0 0 0 899 3248 -8 0 -898 -3248 7zm0 2166l0 0 7 898 3241 -7 0 -899 -3248 8zm7 2165l0 0 0 899 3249 -8 0 -891 -3249 0z"/>
     <polygon class="fil38" points="581342,1484888 575796,1484895 575612,1390359 581342,1390352 "/>
    </g>
    <g>
     <path class="fil32" d="M600773 1431584l4809 419 1083 -10709c37,-324 -59,-641 -258,-884l-810 -434 -2423 -199c-663,-52 -1260,442 -1319,1105l-1082 10702z"/>
     <path class="fil24" d="M596324 1437115l12506 1068 973 -9501c44,-420 -81,-833 -347,-1149 -257,-317 -640,-516 -1060,-560l-9384 -810c-420,-37 -825,95 -1149,368 -324,265 -538,655 -574,1068l-965 9516z"/>
     <path class="fil27" d="M604242 1426612l-5230 -449c-420,-37 -825,95 -1149,368 -324,265 -538,655 -574,1068l-936 9229 7020 -1584 876 -8625 -7 -7z"/>
     <polygon class="fil24" points="599992,1525265 609479,1431819 596972,1430729 587485,1524124 "/>
     <polygon class="fil27" points="593886,1524698 603792,1431326 596972,1430729 587485,1524124 "/>
     <polygon class="fil39" points="596913,1431296 597060,1429868 610878,1431053 611143,1431075 611872,1431466 612108,1432261 609574,1457193 608234,1457076 606967,1456685 607549,1450925 609015,1449460 610635,1433572 610392,1432777 609670,1432394 "/>
    </g>
    <g>
     <polygon class="fil27" points="569351,1439273 575546,1438691 585150,1526959 578949,1527534 "/>
     <polygon class="fil40" points="572452,1438979 575546,1438691 585150,1526959 582049,1527246 "/>
     <path class="fil27" d="M568195 1417243c-37,-692 3572,-1127 3727,-353l4964 28298 -7255 677 2107 19327 -125 8c-251,-155 -236,-52 -921,-3808 -692,-3771 -2828,-15726 -2843,-17375 -66,-9185 582,-16330 346,-26774z"/>
     <polygon class="fil41" points="569455,1444282 577225,1443553 577395,1445144 569631,1445865 "/>
    </g>
    <g>
     <polygon class="fil42" points="627060,1443000 606856,1511285 599624,1509466 619842,1441166 623849,1440761 "/>
     <polygon class="fil43" points="627060,1443000 606856,1511285 603247,1510380 624047,1440054 "/>
     <path class="fil11" d="M619842 1441166l8433 -15379 -1208 17139c-493,509 -1171,1466 -1760,1334 -1149,-258 81,-2667 -1503,-3079 -1532,-390 -1922,2268 -2997,1996 -995,-243 -965,-2011 -965,-2011z"/>
     <path class="fil44" d="M628275 1425787l-1208 17139c-493,509 -1171,1466 -1760,1334 -1149,-258 81,-2667 -1503,-3079l-73 -15 4544 -15379z"/>
     <polygon class="fil27" points="625712,1430464 628275,1425787 627907,1431017 "/>
    </g>
    <g>
     <polygon class="fil42" points="621226,1434508 610701,1504642 603277,1503692 613809,1433558 617728,1432666 "/>
     <polygon class="fil43" points="621226,1434508 610701,1504642 606989,1504170 617831,1431952 "/>
     <path class="fil11" d="M613809 1433558l6224 -16263 1186 17139c-420,567 -950,1591 -1561,1532 -1171,-118 -288,-2651 -1915,-2872 -1577,-207 -1591,2482 -2696,2342 -1017,-133 -1238,-1878 -1238,-1878z"/>
     <path class="fil44" d="M620033 1417295l1186 17139c-420,567 -950,1591 -1561,1532 -1171,-118 -288,-2651 -1915,-2872l-81 0 2371 -15799z"/>
     <polygon class="fil27" points="618140,1422237 620033,1417295 620394,1422524 "/>
    </g>
    <path class="fil30" d="M568711 1462445l0 70554c0,3057 2077,5576 4603,5576l46830 0c2533,0 4618,-2519 4618,-5576l0 -70554 -56051 0z"/>
    <polygon class="fil27" points="624762,1469973 568711,1469973 568711,1462445 624762,1462445 "/>
    <path class="fil45" d="M568711 1532999l0 -63026 28025 0 0 68602 -23422 0c-2526,0 -4603,-2519 -4603,-5576z"/>
    <polygon class="fil46" points="596736,1469973 568711,1469973 568711,1462445 596736,1462445 "/>
   </g>
   <path class="fil47" d="M432935 1477250c-2261,0 -4095,2128 -4095,4765l0 24196c0,2637 1834,4780 4095,4780l147958 0c2261,0 4088,-2143 4088,-4780l0 -24196c0,-2637 -1827,-4765 -4088,-4765l-147958 0z"/>
   <path class="fil48" d="M432471 1455860c-1996,0 -3631,1400 -3631,3116l0 15755c0,1716 1635,3115 3631,3115l131305 0c2011,0 3638,-1399 3638,-3115l0 -15755c0,-1716 -1627,-3116 -3638,-3116l-131305 0z"/>
   <path class="fil49" d="M416370 1425109c-2489,0 -4522,1967 -4522,4390l0 22222c0,2430 2033,4397 4522,4397l163521 0c2490,0 4515,-1967 4515,-4397l0 -22222c0,-2423 -2025,-4390 -4515,-4390l-163521 0z"/>
   <g>
    <polygon class="fil50" points="574242,1477250 574242,1510991 577822,1510991 577822,1477250 "/>
    <polygon class="fil50" points="569455,1477250 569455,1510991 573027,1510991 573027,1477250 "/>
    <polygon class="fil50" points="564667,1477250 564667,1510991 568232,1510991 568232,1477250 "/>
    <polygon class="fil50" points="440146,1484961 440146,1502823 443726,1502823 443726,1484961 "/>
    <polygon class="fil50" points="435359,1484961 435359,1502823 438931,1502823 438931,1484961 "/>
   </g>
   <g>
    <path class="fil51" d="M425150 1510991c-2489,0 -4515,1959 -4515,4390l0 22229c0,2423 2026,4390 4515,4390l163528 0c2490,0 4515,-1967 4515,-4390l0 -22229c0,-2431 -2025,-4390 -4515,-4390l-163528 0z"/>
    <polygon class="fil52" points="448602,1511006 448602,1542000 455798,1542000 455798,1511006 "/>
    <polygon class="fil52" points="437826,1510991 437826,1542000 445015,1542000 445015,1510991 "/>
   </g>
   <g>
    <polygon class="fil34" points="470404,1446676 470404,1450977 525851,1450977 525851,1446676 "/>
    <polygon class="fil34" points="470404,1438463 470404,1442764 525851,1442764 525851,1438463 "/>
    <polygon class="fil34" points="470404,1430258 470404,1434552 525851,1434552 525851,1430258 "/>
   </g>
   <polygon class="fil51" points="556837,1473530 542099,1473530 542099,1461871 556837,1461871 "/>
   <polygon class="fil51" points="479176,1473641 439130,1473641 439130,1461760 479176,1461760 "/>
   <g>
    <path class="fil53" d="M330541 1800322c-6129,0 -11144,5015 -11144,11144l0 29336c0,6136 5015,11152 11144,11152 6135,0 11151,-5016 11151,-11152l0 -29336c0,-6129 -5016,-11144 -11151,-11144z"/>
    <path class="fil54" d="M330541 1851954c-6129,0 -11144,5015 -11144,11144l0 29336c0,6128 5015,11144 11144,11144 6135,0 11151,-5016 11151,-11144l0 -29336c0,-6129 -5016,-11144 -11151,-11144z"/>
    <path class="fil55" d="M547609 1748690l-217068 0c-6129,0 -11144,5015 -11144,11151l0 29337c0,6128 5015,11144 11144,11144l0 200525 217068 0 0 -252157z"/>
   </g>
   <path class="fil56" d="M358028 1823972l0 0c-5170,-1097 -10304,2239 -11401,7410l-5267 24755c-1097,5178 2232,10312 7410,11409l0 0c5171,1098 10304,-2231 11402,-7409l5266 -24756c1098,-5170 -2232,-10304 -7410,-11409z"/>
   <path class="fil57" d="M348770 1867546l0 0c-5178,-1097 -10312,2232 -11409,7410l-5266 24755c-1098,5171 2231,10305 7409,11409l0 0c5178,1098 10305,-2239 11409,-7409l5259 -24756c1105,-5178 -2231,-10311 -7402,-11409z"/>
   <path class="fil20" d="M550481 1819347l-183187 -38942c-5178,-1097 -10304,2232 -11409,7410l-5259 24755c-1105,5171 2232,10305 7402,11402l-35972 169229 183186 38949 45239 -212803z"/>
   <polygon class="fil51" points="566383,1797390 484243,1797390 484243,1797707 275388,1955903 275388,2099942 566383,2099942 "/>
   <polygon class="fil51" points="566383,2099942 275388,2099942 275388,2048185 566383,2048185 "/>
   <polygon class="fil58 str0" points="566383,2038337 275388,2038337 275388,2028239 566383,2028239 "/>
   <polygon class="fil36" points="312974,2083642 272103,2083642 272103,1541116 312974,1541116 "/>
   <polygon class="fil32" points="292535,1541116 272103,1541116 272103,2083642 292535,2083642 "/>
   <g>
    <polygon class="fil36" points="245860,1612038 205217,1616420 249542,2027245 290185,2022862 "/>
    <polygon class="fil32" points="225538,1614233 205224,1616420 249542,2027245 269864,2025057 "/>
   </g>
   <g>
    <polygon class="fil36" points="292041,1617584 251575,1611817 193263,2020888 233729,2026655 "/>
    <polygon class="fil32" points="271808,1614697 251575,1611817 193263,2020888 213496,2023768 "/>
   </g>
   <path class="fil55" d="M319691 1768348l-144297 0 0 331594 144297 0 0 -331594zm-30088 80983l0 0 7867 0 0 160398 -7867 0 0 -160398zm-30662 0l0 0 7859 0 0 160398 -7859 0 0 -160398zm-30663 0l0 0 7859 0 0 160398 -7859 0 0 -160398zm-30670 0l0 0 7867 0 0 160398 -7867 0 0 -160398z"/>
   <polygon class="fil59" points="319691,2100759 175394,2100759 175394,2083642 319691,2083642 "/>
  </g>
  <path class="fil51" d="M1015397 326924l-172197 -41423 59167 -246015 172212 41424 -59182 246014zm-562324 -313261l82198 0 51485 10768 -1259 42580 41902 7756 -928 137933 7726 -6246 7609 -129013 123850 22950 7719 -6223 -164685 -45895 -2032 -34610 114547 0 66157 81970 -162394 131047 -171895 -213017zm853953 0l2298 0 -228 685 -2070 -685zm151118 0l2519 -8242 47212 65869 -67585 35804 -1473 5716 74045 -34412 14473 20623 22612 -11129 48398 65722 1444 -5708 -42057 -63859 66849 -32975 1459 -5679 -94330 36548 -57510 -68278 -12359 -13663 63969 13663 107389 27488 -30633 119608 -170887 -43729 26465 -103367zm246110 0l111285 0 -16219 17589 36518 45842 -125412 142331 13663 508 124278 -127069 107882 135532 13663 486 -129618 -196142 14701 -19077 136402 0 -8331 229383 -286789 -10452 7977 -218931zm-286201 585091l-84541 -2158 3064 -120779 84549 2151 -3072 120786zm-5089 -116971l0 0 -34198 37932 -34228 -39655 -4021 -103 34279 44156 -11557 12816 10887 13383 -36504 42359 4044 117 36209 -37866 32224 39597 4036 103 -38831 -57399 41689 -55329 -4029 -111zm-385642 457684l-67011 -51581 73677 -95751 67033 51580 -73699 95752zm64838 -97475l0 0 -49967 10466 -4272 -52206 -3197 -2446 1665 55860 -16896 3550 898 17236 -54438 12690 3197 2468 51558 -9237 2688 50984 3204 2468 2468 -69258 66289 -20115 -3197 -2460zm-448056 -379035l43736 95155 -135930 62466 -43714 -95154 135908 -62467zm-127239 69471l0 0 60787 17331 -25381 59683 2106 4544 30368 -62216 20550 5856 8956 -19408 66982 17441 -2092 -4530 -61818 -19599 26405 -57414 -2062 -4523 -42602 74458 -84261 -16153 2062 4530zm315228 493252l-25971 101444 -144930 -37092 25970 -101445 144931 37093zm-142596 -26185l0 0 36305 51750 -57304 30361 -1245 4839 62791 -29175 12264 17493 19194 -9435 41033 55734 1223 -4831 -35671 -54173 56692 -27952 1237 -4817 -79989 30994 -55285 -65627 -1245 4839zm461911 -290104l-183827 -26965 38521 -262601 183835 26950 -38529 262616zm19718 -256407l0 0 -84563 73662 -64227 -95493 -8758 -1289 63137 105319 -28593 24932 20248 32084 -90758 82751 8758 1297 88960 -73036 59852 94867 8772 1289 -69581 -135400 105518 -109716 -8765 -1267zm-202256 -29992l-116485 128830 -184071 -166394 116500 -128822 184056 166386zm-189021 -148576l0 0 13280 103985 -107572 324 -5547 6121 114681 5664 4485 35163 35458 958 17161 113509 5532 -6136 -10496 -107042 104803 2740 5539 -6128 -141358 -16293 -30427 -138986 -5539 6121zm160929 583434l-135385 62113 -88747 -193381 135392 -62128 88740 193396zm-98683 -181036l0 0 -24719 86463 -84879 -36164 -6445 2938 88452 43265 -8352 29263 27620 12713 -24881 95295 6445 -2983 27915 -87922 81669 37623 6445 -2939 -105872 -60677 23039 -119844 -6437 2969zm554643 -320104l-135363 62143 -88747 -193396 135378 -62120 88732 193373zm-98683 -181007l0 0 -24697 86427 -84887 -36128 -6444 2947 88459 43272 -8353 29241 27606 12720 -24888 95265 6460 -2954 27930 -87936 81661 37637 6459 -2953 -105901 -60655 23032 -119843 -6437 2960zm-241853 -90529l0 0 -86633 62658 -52788 -96200 -8183 -1959 50873 105451 -29307 21176 16477 32224 -93284 70768 8190 1966 90736 -61686 48671 95206 8190 1982 -54372 -134538 109621 -95066 -8191 -1982z"/>
  <g style="clip-path:url(#id0)">
   <g id="_789630048">
    <polygon id="1" class="fil60" style="mask:url(#id1)" points="7017090,-5471504 -12629341,-5471504 -12629341,-127725 7017090,-127725 "/>
   </g>
   <g style="clip-path:url(#id3)">
   </g>
   <g style="clip-path:url(#id4)">
    <image x="9960453" y="-7916769" width="8648227" height="10609263" xlink:href="1.svg_Images\1.svg_ImgID1.png"/>
   </g>
   <g style="clip-path:url(#id5)">
   </g>
   <g style="clip-path:url(#id6)">
   </g>
   <g style="clip-path:url(#id7)">
   </g>
   <g style="clip-path:url(#id8)">
    <image x="-10298344" y="2859227" width="17597702" height="13537873" xlink:href="1.svg_Images\1.svg_ImgID2.png"/>
   </g>
   <g style="clip-path:url(#id9)">
   </g>
   <g style="clip-path:url(#id10)">
   </g>
   <g style="clip-path:url(#id11)">
   </g>
   <g style="clip-path:url(#id12)">
    <image x="-7052806" y="3726703" width="17817510" height="13985546" xlink:href="1.svg_Images\1.svg_ImgID3.png"/>
   </g>
   <g style="clip-path:url(#id13)">
   </g>
   <g style="clip-path:url(#id14)">
    <rect class="fil61 str1" x="-2511716" y="-283024" width="2313111" height="1861610"/>
   </g>
  </g>
  <path class="fil61" d="M1015397 326924l-172197 -41423 59167 -246015 172212 41424 -59182 246014zm-562324 -313261l82198 0 51485 10768 -1259 42580 41902 7756 -928 137933 7726 -6246 7609 -129013 123850 22950 7719 -6223 -164685 -45895 -2032 -34610 114547 0 66157 81970 -162394 131047 -171895 -213017zm853953 0l2298 0 -228 685 -2070 -685zm151118 0l2519 -8242 47212 65869 -67585 35804 -1473 5716 74045 -34412 14473 20623 22612 -11129 48398 65722 1444 -5708 -42057 -63859 66849 -32975 1459 -5679 -94330 36548 -57510 -68278 -12359 -13663 63969 13663 107389 27488 -30633 119608 -170887 -43729 26465 -103367zm246110 0l111285 0 -16219 17589 36518 45842 -125412 142331 13663 508 124278 -127069 107882 135532 13663 486 -129618 -196142 14701 -19077 136402 0 -8331 229383 -286789 -10452 7977 -218931zm-286201 585091l-84541 -2158 3064 -120779 84549 2151 -3072 120786zm-5089 -116971l0 0 -34198 37932 -34228 -39655 -4021 -103 34279 44156 -11557 12816 10887 13383 -36504 42359 4044 117 36209 -37866 32224 39597 4036 103 -38831 -57399 41689 -55329 -4029 -111zm-385642 457684l-67011 -51581 73677 -95751 67033 51580 -73699 95752zm64838 -97475l0 0 -49967 10466 -4272 -52206 -3197 -2446 1665 55860 -16896 3550 898 17236 -54438 12690 3197 2468 51558 -9237 2688 50984 3204 2468 2468 -69258 66289 -20115 -3197 -2460zm-448056 -379035l43736 95155 -135930 62466 -43714 -95154 135908 -62467zm-127239 69471l0 0 60787 17331 -25381 59683 2106 4544 30368 -62216 20550 5856 8956 -19408 66982 17441 -2092 -4530 -61818 -19599 26405 -57414 -2062 -4523 -42602 74458 -84261 -16153 2062 4530zm315228 493252l-25971 101444 -144930 -37092 25970 -101445 144931 37093zm-142596 -26185l0 0 36305 51750 -57304 30361 -1245 4839 62791 -29175 12264 17493 19194 -9435 41033 55734 1223 -4831 -35671 -54173 56692 -27952 1237 -4817 -79989 30994 -55285 -65627 -1245 4839zm461911 -290104l-183827 -26965 38521 -262601 183835 26950 -38529 262616zm19718 -256407l0 0 -84563 73662 -64227 -95493 -8758 -1289 63137 105319 -28593 24932 20248 32084 -90758 82751 8758 1297 88960 -73036 59852 94867 8772 1289 -69581 -135400 105518 -109716 -8765 -1267zm-202256 -29992l-116485 128830 -184071 -166394 116500 -128822 184056 166386zm-189021 -148576l0 0 13280 103985 -107572 324 -5547 6121 114681 5664 4485 35163 35458 958 17161 113509 5532 -6136 -10496 -107042 104803 2740 5539 -6128 -141358 -16293 -30427 -138986 -5539 6121zm160929 583434l-135385 62113 -88747 -193381 135392 -62128 88740 193396zm-98683 -181036l0 0 -24719 86463 -84879 -36164 -6445 2938 88452 43265 -8352 29263 27620 12713 -24881 95295 6445 -2983 27915 -87922 81669 37623 6445 -2939 -105872 -60677 23039 -119844 -6437 2969zm554643 -320104l-135363 62143 -88747 -193396 135378 -62120 88732 193373zm-98683 -181007l0 0 -24697 86427 -84887 -36128 -6444 2947 88459 43272 -8353 29241 27606 12720 -24888 95265 6460 -2954 27930 -87936 81661 37637 6459 -2953 -105901 -60655 23032 -119843 -6437 2960zm-241853 -90529l0 0 -86633 62658 -52788 -96200 -8183 -1959 50873 105451 -29307 21176 16477 32224 -93284 70768 8190 1966 90736 -61686 48671 95206 8190 1982 -54372 -134538 109621 -95066 -8191 -1982z"/>
 </g>
</svg>
