<?xml version="1.0" encoding="UTF-8"?>
<!DOCTYPE svg PUBLIC "-//W3C//DTD SVG 1.0//EN" "http://www.w3.org/TR/2001/REC-SVG-20010904/DTD/svg10.dtd">
<!-- Creator: CorelDRAW X7 -->
<svg xmlns="http://www.w3.org/2000/svg" xml:space="preserve" width="69px" height="48px" version="1.0" style="shape-rendering:geometricPrecision; text-rendering:geometricPrecision; image-rendering:optimizeQuality; fill-rule:evenodd; clip-rule:evenodd"
viewBox="0 0 668870 465816"
 xmlns:xlink="http://www.w3.org/1999/xlink">
 <defs>
  <style type="text/css">
   <![CDATA[
    .fil1 {fill:#343434}
    .fil0 {fill:#70A399;fill-opacity:0.501961}
   ]]>
  </style>
 </defs>
 <g id="Слой_x0020_1">
  <metadata id="CorelCorpID_0Corel-Layer"/>
  <path class="fil0" d="M193366 278518c24615,9354 48092,39633 84807,52872 36715,13238 86668,9457 100458,-28982 13789,-38439 -8573,-111524 -22615,-155249 -14054,-43713 -19789,-58078 -46023,-58583 -26235,-494 -72971,12870 -133784,38956 -60801,26085 -135679,64880 -147848,94471 -12170,29579 38381,49941 76521,54343 38140,4389 63881,-7182 88484,2172z"/>
  <g id="_20477707088">
   <path class="fil1" d="M558621 0c-7021,0 -13859,1195 -20478,3470l-406865 129991c-14330,-16697 -33141,-26154 -52631,-26154 -43357,0 -78647,45839 -78647,102170 0,56331 35290,102170 78647,102170 19490,0 38301,-9446 52631,-26154l43851 14008 0 11537c0,6091 4942,11021 11032,11021 6090,0 11020,-4930 11020,-11021l0 -4481 176899 56514c-4033,45162 -42070,80705 -88265,80705 -48873,0 -88634,-39761 -88634,-88634 0,-6090 -4930,-11031 -11020,-11031 -6090,0 -11032,4941 -11032,11031 0,61031 49655,110674 110686,110674 56020,0 102423,-41840 109674,-95907l142631 45575c6631,2275 13480,3470 20501,3470 61824,0 110249,-92012 110249,-209477 0,-117465 -48425,-209477 -110249,-209477zm-107502 364531c-24776,-35474 -39508,-93058 -39508,-155054 0,-17904 1230,-35612 3643,-52642 850,-6033 -3344,-11618 -9366,-12468 -6021,-851 -11617,3344 -12468,9365 -2562,18065 -3849,36819 -3849,55745 0,54665 11008,106572 30153,145033l-30912 -9882c-34,-12 -69,-23 -103,-35l-199215 -63651c-35,0 -69,-23 -92,-23l-58549 -18708c-35,-11 -69,-23 -104,-34l-52067 -16640c-115,-34 -230,-69 -356,-103 -4241,-1195 -12170,-14606 -12170,-35957 0,-21351 7929,-34750 12170,-35957 126,-34 241,-69 356,-103l52067 -16640c35,-11 69,-11 104,-23l288871 -92299c-6527,13089 -12181,27821 -16720,43702 -1678,5849 1712,11951 7573,13629 1011,287 2034,425 3034,425 4792,0 9216,-3148 10595,-7998 6734,-23569 16007,-44150 26901,-59790l40979 -13088c-26718,37875 -43725,98539 -43725,168142 0,69604 17007,130267 43725,168143l-40967 -13089zm-372472 -74936c-31199,0 -56595,-35945 -56595,-80118 0,-44173 25396,-80118 56595,-80118 10389,0 20386,4045 29143,11606l-35670 11400c-16502,4838 -28016,28269 -28016,57112 0,28844 11514,52275 28016,57112l35670 11400c-8757,7561 -18754,11606 -29143,11606zm479974 107307c-3689,0 -7343,-505 -10928,-1505 -58,-23 -127,-46 -184,-69l-3137 -1000c-41324,-14962 -73959,-93529 -73959,-184851 0,-91334 32647,-169912 73970,-184862l3126 -989c57,-23 115,-46 172,-69 3597,-999 7240,-1516 10940,-1516 47804,0 88197,85840 88197,187436 0,101596 -40393,187425 -88197,187425z"/>
   <g>
   </g>
   <g>
   </g>
   <g>
   </g>
   <g>
   </g>
   <g>
   </g>
   <g>
   </g>
   <g>
   </g>
   <g>
   </g>
   <g>
   </g>
   <g>
   </g>
   <g>
   </g>
   <g>
   </g>
   <g>
   </g>
   <g>
   </g>
   <g>
   </g>
  </g>
 </g>
</svg>
