<?xml version="1.0" encoding="UTF-8"?>
<!DOCTYPE svg PUBLIC "-//W3C//DTD SVG 1.0//EN" "http://www.w3.org/TR/2001/REC-SVG-20010904/DTD/svg10.dtd">
<!-- Creator: CorelDRAW X7 -->
<svg xmlns="http://www.w3.org/2000/svg" xml:space="preserve" width="45px" height="58px" version="1.0" style="shape-rendering:geometricPrecision; text-rendering:geometricPrecision; image-rendering:optimizeQuality; fill-rule:evenodd; clip-rule:evenodd"
viewBox="0 0 4500118 5825315"
 xmlns:xlink="http://www.w3.org/1999/xlink">
 <defs>
  <style type="text/css">
   <![CDATA[
    .fil1 {fill:#343434}
    .fil0 {fill:#FF9966;fill-opacity:0.501961}
   ]]>
  </style>
 </defs>
 <g id="Слой_x0020_1">
  <metadata id="CorelCorpID_0Corel-Layer"/>
  <path class="fil0" d="M2385897 1573459c174606,186960 251555,561117 472873,809967 221434,248967 587120,372627 892563,208021 305327,-164605 550529,-617594 556882,-1145413 6354,-527703 -226023,-1130119 -783140,-1347082 -557000,-216964 -1438857,-48476 -1802542,230494 -363803,279088 -209551,668658 3530,863267 213199,194491 485345,194020 659834,380746z"/>
  <g id="_20181313152">
   <g>
    <path class="fil1" d="M2708754 3666148c-52947,0 -95893,42946 -95893,96010l0 966925 -2420959 0 0 -2421077 738784 0c52946,0 96010,-42946 96010,-96010 0,-52947 -43064,-95892 -96010,-95892l-738784 0 0 -406513c0,-168724 137309,-306032 306032,-306032l138133 0c53064,0 96010,-42946 96010,-95893 0,-53064 -42946,-96010 -96010,-96010l-138133 0c-274617,0 -497934,223435 -497934,497935l0 3617790c0,274617 223317,497934 497934,497934l1808895 0c274617,0 497935,-223317 497935,-497934l0 -1565223c0,-53064 -42946,-96010 -96010,-96010zm-401925 1967265l-1808895 0c-168723,0 -306032,-137191 -306032,-306032l0 -406396 2420959 0 0 406513c0,168724 -137308,305915 -306032,305915z"/>
    <path class="fil1" d="M1841487 1351318c-139544,-22826 -145427,-36475 -145427,-65066 0,-50711 84950,-64124 129896,-64124 72243,0 118836,24355 127542,48475 18120,49770 73067,75538 122954,57418 49770,-18002 75538,-73066 57536,-122836 -39181,-107894 -157193,-174960 -308032,-174960 -189550,0 -321916,105306 -321916,256027 0,204374 191784,235790 306385,254497 139661,22826 145544,36475 145544,65184 0,50711 -85067,64124 -130013,64124 -72243,0 -118836,-24355 -127543,-48476 -18002,-49887 -73067,-75537 -122836,-57535 -49888,18002 -75655,73066 -57654,122836 39181,108012 157076,175077 308033,175077 189549,0 321916,-105305 321916,-256026 0,-204492 -191785,-235907 -306385,-254615z"/>
    <path class="fil1" d="M3607083 1351318c-139544,-22826 -145427,-36475 -145427,-65066 0,-50711 85068,-64124 130014,-64124 72125,0 118718,24355 127542,48475 18002,49770 73067,75538 122837,57418 49887,-18002 75655,-73066 57535,-122836 -39063,-107894 -157075,-174960 -307914,-174960 -189550,0 -321916,105306 -321916,256027 0,204374 191784,235790 306385,254497 139544,22826 145427,36475 145427,65184 0,50711 -84950,64124 -129896,64124 -72243,0 -118836,-24473 -127661,-48476 -18002,-49770 -72948,-75655 -122836,-57535 -49770,18002 -75537,73066 -57535,122836 39062,108012 157075,175077 308032,175077 189431,0 321798,-105305 321798,-256026 0,-204492 -191785,-235907 -306385,-254615z"/>
    <path class="fil1" d="M3015021 1036226c-37768,-14001 -80126,-2824 -106129,27650l-200138 234377 -200021 -234377c-26120,-30591 -68478,-41651 -106129,-27650 -37768,13884 -62830,49770 -62830,90009l0 639714c0,52947 42946,96010 96010,96010 52947,0 95893,-43063 95893,-96010l0 -379451 104128 121895c18237,21296 44946,33651 72949,33651 28120,0 54829,-12355 73066,-33651l104011 -121895 0 379451c0,52947 42946,96010 96010,96010 52947,0 95893,-43063 95893,-96010l0 -639714c117,-40239 -24944,-76125 -62713,-90009z"/>
    <path class="fil1" d="M3967238 418867c-337094,-267675 -784082,-415102 -1258484,-415102 -474403,0 -921273,147427 -1258367,415102 -343683,272852 -532879,637714 -532879,1027167 0,683718 588179,1266838 1409324,1409559 14942,213199 -62125,424750 -212846,577001 -27297,27533 -35298,68713 -20355,104482 14825,35651 49770,58947 88480,58947 438869,0 815732,-313209 904565,-739724 823380,-141545 1413442,-725370 1413442,-1410265 0,-389453 -189314,-754315 -532880,-1027167zm-979278 2258589c-49888,6825 -86009,51300 -82597,101540 0,471 117,942 117,1412 -44122,282501 -245790,508407 -506523,590415 100128,-177313 141309,-385334 112835,-591238 0,-236 118,-353 118,-589 3412,-50240 -32710,-94715 -82597,-101657 -764786,-105658 -1319903,-623477 -1319903,-1231188 0,-689601 717487,-1250483 1599344,-1250483 881974,0 1599461,560882 1599461,1250483 0,607829 -555234,1125647 -1320255,1231305z"/>
   </g>
   <g>
   </g>
   <g>
   </g>
   <g>
   </g>
   <g>
   </g>
   <g>
   </g>
   <g>
   </g>
   <g>
   </g>
   <g>
   </g>
   <g>
   </g>
   <g>
   </g>
   <g>
   </g>
   <g>
   </g>
   <g>
   </g>
   <g>
   </g>
   <g>
   </g>
  </g>
 </g>
</svg>
