<?xml version="1.0" encoding="UTF-8"?>
<!DOCTYPE svg PUBLIC "-//W3C//DTD SVG 1.0//EN" "http://www.w3.org/TR/2001/REC-SVG-20010904/DTD/svg10.dtd">
<!-- Creator: CorelDRAW X7 -->
<svg xmlns="http://www.w3.org/2000/svg" xml:space="preserve" width="60px" height="55px" version="1.0" style="shape-rendering:geometricPrecision; text-rendering:geometricPrecision; image-rendering:optimizeQuality; fill-rule:evenodd; clip-rule:evenodd"
viewBox="0 0 624766 574260"
 xmlns:xlink="http://www.w3.org/1999/xlink">
 <defs>
  <style type="text/css">
   <![CDATA[
    .fil1 {fill:#343434}
    .fil0 {fill:#B3B3B3;fill-opacity:0.501961}
   ]]>
  </style>
 </defs>
 <g id="Слой_x0020_1">
  <metadata id="CorelCorpID_0Corel-Layer"/>
  <path class="fil0" d="M352192 266306c-34835,-28530 -104728,-47186 -155457,-90037 -50742,-42850 -82307,-109881 -26796,-143391 55499,-33522 198073,-33522 283872,-32643 85812,880 114837,2639 135711,36855 20849,34216 33535,100888 35083,191123 1549,90234 -8015,204031 -49552,231854 -41550,27836 -115048,-30289 -151667,-78565 -36631,-48264 -36371,-86667 -71194,-115196z"/>
  <path class="fil1" d="M603050 867l-593177 0c-5450,0 -9873,4423 -9873,9873l0 553647c0,5451 4423,9873 9873,9873l593177 0c5475,0 9898,-4422 9898,-9873l0 -553647c0,-5450 -4423,-9873 -9898,-9873zm-224992 229798c1016,4002 4398,6938 8498,7408 4089,459 8053,-1684 9911,-5351l11223 -22150 11224 22150c1697,3345 5116,5401 8808,5401 359,0 731,-12 1102,-50 4089,-470 7483,-3406 8486,-7408l20044 -79085c1350,-5290 -1870,-10666 -7160,-12004 -5290,-1350 -10666,1858 -12004,7148l-13565 53529 -8114 -16018c-1685,-3320 -5092,-5426 -8821,-5426 -3728,0 -7135,2106 -8820,5426l-8114 16018 -13565 -53529c-1338,-5290 -6727,-8486 -12004,-7148 -5302,1338 -8510,6714 -7160,12004l20031 79085zm-105868 7458l55870 0c5476,0 9898,-4423 9898,-9873 0,-5463 -4435,-9886 -9898,-9886l-45972 0 0 -19771 27353 0c5463,0 9886,-4435 9886,-9886 0,-5463 -4423,-9886 -9886,-9886l-27353 0 0 -19783 45972 0c5476,0 9898,-4423 9898,-9874 0,-5463 -4435,-9898 -9898,-9898l-55870 0c-5451,0 -9873,4435 -9873,9898l0 79073c0,5463 4422,9886 9873,9886zm-107045 0c5463,0 9886,-4423 9886,-9873l0 -52278 50097 58695c1932,2242 4695,3456 7532,3456 1140,0 2292,-198 3407,-595 3902,-1449 6478,-5141 6478,-9291l0 -79073c0,-5463 -4434,-9898 -9885,-9898 -5476,0 -9898,4435 -9898,9898l0 52266 -50097 -58695c-2689,-3147 -7062,-4286 -10939,-2849 -3890,1424 -6479,5128 -6479,9278l0 79086c0,5450 4435,9873 9898,9873zm114961 243871l-191135 0c-5463,0 -9886,4435 -9886,9886 0,5463 4423,9885 9886,9885l191135 0c5463,0 9886,-4422 9886,-9885 0,-5451 -4423,-9886 -9886,-9886zm243859 -158171l-191135 0c-5451,0 -9886,4423 -9886,9874l0 39542c0,5476 4435,9898 9886,9898 5463,0 9885,-4422 9885,-9898l0 -29657 171376 0 0 138412 -171376 0 0 -69200c0,-5475 -4422,-9898 -9885,-9898 -5451,0 -9886,4423 -9886,9898l0 79086c0,5463 4435,9885 9886,9885l191135 0c5450,0 9873,-4422 9873,-9885l0 -158183c0,-5451 -4423,-9874 -9873,-9874zm-243859 105447l-191135 0c-5463,0 -9886,4423 -9886,9874 0,5463 4423,9885 9886,9885l191135 0c5463,0 9886,-4422 9886,-9885 0,-5451 -4423,-9874 -9886,-9874zm0 -52735l-191135 0c-5463,0 -9886,4434 -9886,9885 0,5463 4423,9886 9886,9886l191135 0c5463,0 9886,-4423 9886,-9886 0,-5451 -4423,-9885 -9886,-9885zm0 -52712l-191135 0c-5463,0 -9886,4423 -9886,9874 0,5463 4423,9885 9886,9885l191135 0c5463,0 9886,-4422 9886,-9885 0,-5451 -4423,-9874 -9886,-9874zm243859 -52735l-434994 0c-5463,0 -9886,4422 -9886,9885 0,5451 4423,9873 9886,9873l434994 13c5450,0 9873,-4435 9873,-9886 0,-5463 -4423,-9885 -9873,-9885zm69199 -204316l-46133 0 0 -46134 46133 0 0 46134zm-65904 -46134l0 46134 -507501 0 0 -46134 507501 0zm-507501 533851l0 -467946 573405 0 0 467946 -573405 0z"/>
 </g>
</svg>
