<?xml version="1.0" encoding="UTF-8"?>
<!DOCTYPE svg PUBLIC "-//W3C//DTD SVG 1.0//EN" "http://www.w3.org/TR/2001/REC-SVG-20010904/DTD/svg10.dtd">
<!-- Creator: CorelDRAW X7 -->
<svg xmlns="http://www.w3.org/2000/svg" xml:space="preserve" width="13px" height="13px" version="1.0" style="shape-rendering:geometricPrecision; text-rendering:geometricPrecision; image-rendering:optimizeQuality; fill-rule:evenodd; clip-rule:evenodd"
viewBox="0 0 391996 400895"
 xmlns:xlink="http://www.w3.org/1999/xlink">
 <defs>
  <style type="text/css">
   <![CDATA[
    .fil0 {fill:#3C757E}
   ]]>
  </style>
 </defs>
 <g id="Слой_x0020_1">
  <metadata id="CorelCorpID_0Corel-Layer"/>
  <path class="fil0" d="M292051 106718l24752 0c7530,0 13619,-6089 13619,-13619l0 -79480c0,-7530 -6089,-13619 -13619,-13619l-24752 0c-7530,0 -13619,6089 -13619,13619l0 79480c0,7530 6089,13619 13619,13619zm-217543 0l24752 0c7530,0 13619,-6089 13619,-13619l0 -79480c0,-7530 -6089,-13619 -13619,-13619l-24752 0c-7530,0 -13619,6089 -13619,13619l0 79480c0,7530 6089,13619 13619,13619zm282612 -62078l0 48495c0,21906 -17798,39596 -39704,39596l-25040 0c-21942,0 -39957,-17690 -39957,-39596l0 -48675 -112879 0 0 48675c0,21906 -18014,39596 -39920,39596l-25040 0c-21906,0 -39704,-17690 -39704,-39596l0 -48495c-19131,576 -34876,16429 -34876,35921l0 284197c0,19852 16069,36137 35921,36137l320154 0c19816,0 35921,-16321 35921,-36137l0 -284197c0,-19492 -15745,-35345 -34876,-35921zm-11637 302392c0,8611 -6954,15564 -15529,15564l-268597 0c-8574,0 -15528,-6953 -15528,-15564l0 -146783c0,-8574 6954,-15528 15528,-15528l268597 0c8575,0 15529,6954 15529,15528l0 146783 0 0zm-45145 -125850c0,-5044 -4071,-9115 -9115,-9115l-31742 0c-5044,0 -9115,4071 -9115,9115l0 31742c0,5008 4071,9079 9115,9079l31742 0c5044,0 9115,-4071 9115,-9079l0 -31742zm0 79336c0,-5008 -4071,-9079 -9115,-9079l-31742 0c-5044,0 -9115,4071 -9115,9079l0 31778c0,5008 4071,9079 9115,9079l31742 0c5044,0 9115,-4071 9115,-9079l0 -31778 0 0zm-79372 0c0,-5008 -4071,-9079 -9079,-9079l-31778 0c-5008,0 -9079,4071 -9079,9079l0 31778c0,5008 4071,9079 9079,9079l31778 0c5008,0 9079,-4071 9079,-9079l0 -31778zm0 -79336c0,-5044 -4071,-9115 -9079,-9115l-31778 0c-5008,0 -9079,4071 -9079,9115l0 31742c0,5008 4071,9079 9079,9079l31778 0c5008,0 9079,-4071 9079,-9079l0 -31742zm-79372 0c0,-5044 -4071,-9115 -9079,-9115l-31742 0c-5044,0 -9115,4071 -9115,9115l0 31742c0,5008 4071,9079 9115,9079l31742 0c5008,0 9079,-4071 9079,-9079l0 -31742 0 0zm0 79336c0,-5008 -4071,-9079 -9079,-9079l-31742 0c-5044,0 -9115,4071 -9115,9079l0 31778c0,5008 4071,9079 9115,9079l31742 0c5008,0 9079,-4071 9079,-9079l0 -31778 0 0z"/>
 </g>
</svg>
