<?xml version="1.0" encoding="UTF-8"?>
<!DOCTYPE svg PUBLIC "-//W3C//DTD SVG 1.0//EN" "http://www.w3.org/TR/2001/REC-SVG-20010904/DTD/svg10.dtd">
<!-- Creator: CorelDRAW X7 -->
<svg xmlns="http://www.w3.org/2000/svg" xml:space="preserve" width="46px" height="27px" version="1.0" style="shape-rendering:geometricPrecision; text-rendering:geometricPrecision; image-rendering:optimizeQuality; fill-rule:evenodd; clip-rule:evenodd"
viewBox="0 0 180229 107812"
 xmlns:xlink="http://www.w3.org/1999/xlink">
 <defs>
  <style type="text/css">
   <![CDATA[
    .fil0 {fill:#3C757E}
    .fil1 {fill:white;fill-rule:nonzero}
   ]]>
  </style>
 </defs>
 <g id="Слой_x0020_1">
  <metadata id="CorelCorpID_0Corel-Layer"/>
  <rect class="fil0" width="180229" height="107812" rx="19715" ry="11794"/>
  <path class="fil1" d="M64686 56959c-399,0 -645,149 -743,446 -102,297 0,543 297,743l22155 22159c697,692 646,1435 -148,2229l-2229 2229c-200,297 -446,400 -743,297 -298,-97 -497,-195 -595,-297l-30188 -30188c-497,-492 -497,-989 0,-1486l29891 -29743c594,-594 1189,-594 1783,0l2229 2234c497,492 669,915 520,1263 -148,348 -371,669 -668,966l-21858 21862c-200,195 -251,469 -149,817 98,344 297,520 595,520l74057 0c691,0 1040,298 1040,892l0 4165c0,195 -51,395 -149,595 -97,195 -395,297 -891,297l-74206 0zm-23325 28401c-715,0 -1063,-298 -1063,-892l0 -61120c0,-594 348,-891 1063,-891l4114 0c720,0 1068,297 1068,891l0 61120c0,594 -348,892 -1068,892l-4114 0z"/>
 </g>
</svg>
