<?xml version="1.0" encoding="UTF-8"?>
<!DOCTYPE svg PUBLIC "-//W3C//DTD SVG 1.0//EN" "http://www.w3.org/TR/2001/REC-SVG-20010904/DTD/svg10.dtd">
<!-- Creator: CorelDRAW X7 -->
<svg xmlns="http://www.w3.org/2000/svg" xml:space="preserve" width="59px" height="64px" version="1.0" style="shape-rendering:geometricPrecision; text-rendering:geometricPrecision; image-rendering:optimizeQuality; fill-rule:evenodd; clip-rule:evenodd"
viewBox="0 0 573698 621177"
 xmlns:xlink="http://www.w3.org/1999/xlink">
 <defs>
  <style type="text/css">
   <![CDATA[
    .fil0 {fill:white}
   ]]>
  </style>
 </defs>
 <g id="Слой_x0020_1">
  <metadata id="CorelCorpID_0Corel-Layer"/>
  <path class="fil0" d="M500193 46229l29432 -29421c10927,-8748 20787,-13196 26451,-7762 13185,13186 18929,31783 17359,54232 -1617,23046 -10915,50093 -27770,79570 -802,1411 -1960,2557 -3325,3348 -1364,791 -2946,1227 -4597,1227l-105552 0 -1662 0 -34374 34374 102100 23c2534,0 4827,1020 6478,2671 1640,1640 2649,3921 2649,6444 0,2534 -1009,4815 -2649,6455 -1651,1651 -3944,2671 -6478,2671l-120376 0 -34396 34397 102134 0c1938,0 3761,607 5252,1639 1502,1055 2694,2557 3348,4357 653,1812 710,3726 229,5504 -470,1777 -1479,3405 -2947,4632 -25923,21727 -51629,38443 -75683,49748 -24365,11466 -47032,17393 -66489,17393 -6959,0 -13495,-756 -19514,-2293 -5882,-1502 -11293,-3737 -16178,-6741l-2706 -1663 -35313 35325c-883,872 -1892,1537 -2958,1972 -1101,448 -2294,677 -3509,677 -1215,0 -2408,-229 -3508,-677 -1067,-435 -2076,-1100 -2947,-1983l-23 -12c-1766,-1777 -2660,-4116 -2660,-6443 0,-2339 894,-4667 2660,-6432l35360 -35360 -1651 -2706c-13553,-22048 -12016,-54977 2304,-91884 14401,-37137 41735,-78092 79720,-116065 19732,-19744 40668,-36988 61764,-51033 21051,-14011 42285,-24880 62671,-31920 1387,-470 2866,-596 4311,-390 1421,195 2786,734 3955,1571l12 23c1204,860 2167,1983 2820,3268 654,1261 1009,2694 1009,4184l0 68025c1101,-1101 11775,-15467 25247,-30945zm-500193 574948l363811 0 -722 -9815c-3004,-39704 -14905,-70845 -35990,-93718 -21097,-22874 -51526,-37630 -91575,-44544l-3348 -585 0 -22415 26313 0 0 -70902 -149854 0 0 70902 26314 0 0 22415 -3348 585c-40634,7006 -71923,22117 -93708,45174 -21761,23011 -34190,54094 -37148,93088l-745 9815zm339298 -18253l-319428 0 699 -4621c4816,-32080 17301,-56857 38077,-74892 20626,-17909 49290,-29008 86610,-33892l7934 -1055 0 -56640 -26313 0 0 -34339 113336 -11 0 34362 -26313 0 0 56651 7946 1043c36804,4816 64745,15662 84730,33479 20099,17921 32023,42709 36701,75317l665 4598 -4644 0zm80786 -471082c-344,344 -642,676 -883,1009l-218 298c-16797,16613 -33640,33399 -50219,50218l-298 230c-355,263 -699,562 -1032,894 -332,344 -630,677 -860,986l-217 298c-16820,16614 -33640,33445 -50254,50265l-298 206c-321,241 -653,539 -997,883 -344,344 -642,688 -883,998l-218 298c-14309,14148 -28480,28480 -42709,42720l-2213 -5836c-7200,-19033 -2958,-48912 12968,-82998 14022,-30040 37159,-63577 69538,-95955 15559,-15559 32161,-29650 48969,-41712 16946,-12141 34133,-22254 50723,-29752l5687 -2580 0 73138c-11752,11764 -23596,23470 -35279,35291l-298 218c-333,241 -665,539 -1009,883zm109919 -2672l-81221 0 100289 -100311 2338 5515c4587,10834 5240,24650 2076,40610 -3073,15479 -9757,33101 -19939,52054l-1146 2132 -2397 0zm-241807 160609l37045 -37057 94407 0 -10720 7350c-23768,16303 -46802,27929 -67119,34235 -20741,6421 -38822,7327 -52225,2041l-5710 -2247 4322 -4322z"/>
 </g>
</svg>
