<?xml version="1.0" encoding="UTF-8"?>
<!DOCTYPE svg PUBLIC "-//W3C//DTD SVG 1.1//EN" "http://www.w3.org/Graphics/SVG/1.1/DTD/svg11.dtd">
<!-- Creator: CorelDRAW X8 -->
<svg xmlns="http://www.w3.org/2000/svg" xml:space="preserve" width="21.9965mm" height="21.5695mm" version="1.1" style="shape-rendering:geometricPrecision; text-rendering:geometricPrecision; image-rendering:optimizeQuality; fill-rule:evenodd; clip-rule:evenodd"
viewBox="0 0 826564 810519"
 xmlns:xlink="http://www.w3.org/1999/xlink">
 <defs>
  <style type="text/css">
   <![CDATA[
    .str0 {stroke:white;stroke-width:50901.9;stroke-linecap:round;stroke-linejoin:round}
    .fil1 {fill:#212F4D}
    .fil6 {fill:#333333}
    .fil5 {fill:#999999}
    .fil3 {fill:#B7B7B7}
    .fil0 {fill:#CCCCCC}
    .fil2 {fill:#F4F4F4}
    .fil7 {fill:white}
    .fil4 {fill:white}
    .fil10 {fill:#4D94DB;fill-rule:nonzero}
    .fil8 {fill:#98C4E0;fill-rule:nonzero}
    .fil9 {fill:#E3BE4D;fill-rule:nonzero}
    .fil11 {fill:#FFDB71;fill-rule:nonzero}
   ]]>
  </style>
 </defs>
 <g id="Слой_x0020_1">
  <metadata id="CorelCorpID_0Corel-Layer"/>
  <g id="_789616272">
   <path class="fil0 str0" d="M700629 410913l-399396 0 -16669 -13103 -10304 13103 -22715 0c-9180,0 -16692,7504 -16692,16688l0 56039 -70806 17984 15662 61653 55144 -14005 0 162043c0,9177 7512,16688 16692,16688l-16692 0 -83793 35650 0 9360c0,6629 5430,12055 12062,12055l625929 0c6636,0 12062,-5422 12062,-12055l0 -9360 -83796 -35650 -16688 0c9180,0 16688,-7511 16688,-16688l0 -283714c0,-9184 -7508,-16688 -16688,-16688zm-650482 -41906l28107 -124 177 40155 -28108 124 -176 -40155zm2848 38806l0 0 10988 -12934 11769 12832 1337 -7 -11829 -14332 3713 -4370 -3754 -4340 11705 -14434 -1341 4 -11653 12938 -11100 -12837 -1338 8 13468 18676 -13303 18803 1338 -7zm7504 -300978l34372 24542 -35056 49098 -34372 -24538 35056 -49102zm-30614 49801l0 0 24752 -6113 3074 25980 1634 1165 -1830 -27856 8373 -2066 -763 -8591 26939 -7312 -1635 -1169 -25567 5528 -2255 -25395 -1638 -1168 7 34604 -32729 11221 1638 1172zm204968 344135l0 7572 -6283 8928 6283 3345 0 4437 -8853 -4133 -7478 10623 -11638 -5768 -24988 33819 -744 -2935 21730 -32864 -34409 -17045 0 0 -744 -2931 48557 18916 18567 -21964zm57745 -269322l0 77720 -41662 0 -8695 91132 -99997 -9537 34849 33688 -68108 70450 -49313 -47671 56945 -58909 -27394 -2612 10221 -107110 82128 7831 0 -54982 111026 0zm-55115 77720l-10232 0 -56659 32828 -66534 -57813 -488 5099 0 0 45081 46761 -53352 39949 -488 5106 59078 -39613 15249 15819 17962 -12652 50526 50060 485 -5099 -44829 -49312 44201 -31133zm-52213 -70318l0 0 35623 30535 -20705 18823 5535 526 19315 -15801 12047 10330 12051 -10330 39764 32534 0 -3701 -35619 -32381 35619 -30535 0 -3701 -51815 37010 -51815 -37010 0 3701zm-118631 210571l0 0 41222 -3870 -1300 42462 2345 2273 3746 -45190 13945 -1315 842 -13975 45032 -5276 -2348 -2270 -42398 2740 2119 -35417 -3168 -300 -7121 47692 -55268 10173 2352 2273zm207614 -423975l33977 32846 -46923 48542 -33981 -32849 46927 -48539zm-42124 50053l0 0 28400 -2672 -894 29258 1616 1567 2581 -31133 9609 -902 579 -9638 31027 -3630 -1620 -1564 -29208 1883 1702 -28476 -1616 -1563 -5719 38295 -38077 7008 1620 1567zm107290 159346l29250 23692 -33850 41782 -29250 -23689 33850 -41785zm-29934 42646l0 0 22347 -4100 1326 23279 1395 1131 -121 -24887 7557 -1383 -210 -7684 24365 -5043 -1391 -1131 -23050 3532 -631 -22712 -1390 -1127 -1871 30779 -29724 8218 1398 1128zm-28299 -141065l-35477 93421 -133470 -50677 35484 -93428 133463 50684zm-132396 -40098l0 0 28886 52969 -57606 22659 -1691 4452 62652 -20956 9767 17916 19202 -6914 32951 57256 1687 -4449 -28036 -55189 56756 -20438 1695 -4453 -79186 20840 -45386 -68142 -1691 4449zm253150 247287l0 45405 -64862 0 0 -45405 64862 0zm-62705 4325l0 0 20814 17834 -20814 18924 0 2161 23234 -19007 7034 6035 7046 -6035 23226 19007 0 -2161 -20810 -18924 20810 -17834 0 -2164 -30272 21622 -30268 -21622 0 2164zm105753 -181219l-39351 78123 -111608 -56223 39355 -78123 111604 56223zm-111634 -46911l0 0 20348 48734 -52202 14508 -1879 3724 56444 -12570 6885 16485 17341 -4280 23497 52838 1868 -3724 -19401 -50587 51263 -12656 1871 -3716 -70822 10965 -33338 -63441 -1875 3720zm-219991 67312l34390 49955 -71374 49132 -34390 -49967 71374 -49120zm-65715 52247l0 0 36404 3866 -8571 36574 1638 2383 11168 -38513 12318 1308 3172 -11972 39955 3321 -1634 -2378 -37224 -5054 9383 -35387 -1638 -2382 -16929 46716 -49684 -865 1642 2383zm240121 171543l-2882 0 -1481 -7470 0 0 1590 -2026 2773 9496z"/>
   <g>
    <path class="fil1" d="M700095 416907l-449084 0c-9176,0 -16688,7507 -16688,16688l0 283710c0,9180 7512,16688 16688,16688l449084 0c9180,0 16688,-7508 16688,-16688l0 -283710c0,-9181 -7508,-16688 -16688,-16688z"/>
    <polygon class="fil2" points="691753,450012 259357,450012 259357,682144 691753,697555 "/>
    <path class="fil3" d="M475553 440118c-3352,0 -6069,-2717 -6069,-6069 0,-3348 2717,-6065 6069,-6065 3356,0 6069,2717 6069,6065 0,3352 -2713,6069 -6069,6069z"/>
    <path class="fil3" d="M475557 725726c-5445,0 -9860,-4415 -9860,-9860 0,-5449 4415,-9860 9860,-9860 5449,0 9860,4411 9860,9860 0,5445 -4411,9860 -9860,9860z"/>
    <polygon class="fil4" points="716783,733993 234323,733993 150526,769643 800580,769643 "/>
    <path class="fil5" d="M800580 769643l-650054 0 0 9360c0,6632 5430,12062 12063,12062l625929 0c6636,0 12062,-5426 12062,-12062l0 -9360z"/>
    <polygon class="fil6" points="541208,776237 409902,776237 409902,784610 541208,784610 "/>
    <polygon class="fil7" points="691753,697555 259357,697555 259357,450012 "/>
   </g>
   <path class="fil8" d="M251924 299185l-10213 107110 -153018 -14595 10217 -107106 153014 14591zm-148888 -3904l0 0 45082 46761 -53352 39948 -485 5099 59075 -39610 15249 15816 17965 -12648 50523 50064 484 -5103 -44829 -49313 53100 -37396 485 -5100 -76270 44191 -66538 -57808 -489 5099z"/>
   <path class="fil8" d="M344665 451481l-33376 42444 -60635 -47682 33376 -42443 60635 47681zm-61792 -42049l0 0 6339 31971 -33357 2390 -1590 2018 35687 -688 2142 10815 11018 -466 7744 34841 1590 -2021 -5546 -32982 32564 -1375 1589 -2022 -44190 -2040 -12401 -42462 -1589 2021z"/>
   <path class="fil8" d="M112829 193112l34391 49959 -71374 49128 -34387 -49958 71370 -49129zm-65719 52248l0 0 36413 3866 -8572 36582 1639 2378 11164 -38509 12318 1308 3175 -11972 39956 3318 -1639 -2379 -37227 -5054 9386 -35390 -1634 -2379 -16933 46716 -49684 -864 1638 2379z"/>
   <path class="fil8" d="M444454 172712l-39354 78123 -111604 -56220 39354 -78122 111604 56219zm-111630 -46904l0 0 20344 48730 -52202 14512 -1875 3720 56445 -12569 6880 16485 17342 -4280 23497 52833 1875 -3716 -19409 -50590 51267 -12656 1871 -3720 -70821 10969 -33343 -63438 -1871 3720z"/>
   <path class="fil9" d="M401406 349610l0 45404 -64862 0 0 -45404 64862 0zm-62701 4325l0 0 20810 17838 -20810 18920 0 2160 23230 -19006 7038 6035 7042 -6035 23230 19006 0 -2160 -20810 -18920 20810 -17838 0 -2165 -30272 21622 -30268 -21622 0 2165z"/>
   <path class="fil9" d="M514103 566290l0 53969 -77100 0 0 -53969 77100 0zm-74530 5141l0 0 24737 21201 -24737 22486 0 2570 27612 -22591 8368 7174 8368 -7174 27612 22591 0 -2570 -24733 -22486 24733 -21201 0 -2574 -35980 25703 -35980 -25703 0 2574z"/>
   <path class="fil10" d="M280652 142421l-35477 93424 -133466 -50684 35480 -93424 133463 50684zm-132392 -40099l0 0 28882 52965 -57602 22667 -1691 4449 62649 -20957 9770 17913 19198 -6910 32951 57256 1688 -4449 -28037 -55186 56757 -20442 1691 -4449 -79179 20833 -45389 -68139 -1688 4449z"/>
   <path class="fil8" d="M338885 240839l29246 23692 -33845 41786 -29250 -23692 33849 -41786zm-29934 42646l0 0 22351 -4096 1327 23276 1394 1131 -124 -24884 7560 -1386 -214 -7685 24365 -5047 -1390 -1127 -23046 3532 -635 -22711 -1391 -1128 -1867 30780 -29724 8218 1394 1127z"/>
   <path class="fil11" d="M273719 31441l33977 32846 -46922 48542 -33977 -32846 46922 -48542zm-42124 50052l0 0 28405 -2671 -898 29261 1619 1563 2582 -31132 9608 -906 575 -9631 31027 -3634 -1615 -1563 -29213 1886 1706 -28479 -1619 -1563 -5720 38294 -38076 7008 1619 1567z"/>
   <path class="fil11" d="M127244 382771l49316 47675 -68105 70449 -49316 -47670 68105 -70454zm-61138 72645l0 0 41222 -3875 -1300 42466 2348 2274 3747 -45191 13944 -1311 838 -13979 45033 -5276 -2349 -2269 -42394 2739 2472 -41331 -2345 -2270 -8300 55577 -55265 10176 2349 2270z"/>
   <path class="fil8" d="M580942 568857l14155 61318 -87600 20224 -14155 -61314 87600 -20228zm-83331 25391l0 0 33665 17601 -22204 32038 672 2924 25448 -32914 11386 5952 7628 -10341 37295 18424 -673 -2920 -34003 -19063 22542 -30580 -672 -2916 -34139 38637 -47622 -19762 677 2920z"/>
   <path class="fil11" d="M365358 476586l20889 48648 -69502 29836 -20886 -48647 69499 -29837zm-65196 33474l0 0 30505 9541 -13595 29844 996 2314 16146 -31050 10319 3228 4765 -9702 33635 9680 -996 -2319 -30997 -10698 14091 -28686 -995 -2315 -22490 37089 -42376 -9241 992 2315z"/>
   <path class="fil10" d="M292068 237442l0 77721 -111029 0 0 -77721 111029 0zm-107328 7403l0 0 35623 30535 -35623 32380 0 3701 39764 -32534 12048 10330 12050 -10330 39765 32534 0 -3701 -35620 -32380 35620 -30535 0 -3702 -51815 37010 -51812 -37010 0 3702z"/>
   <path class="fil11" d="M251586 485248l15658 61653 -88069 22369 -15662 -61649 88073 -22373zm-83643 27499l0 0 34410 17041 -21735 32865 748 2935 24985 -33820 11637 5768 7478 -10623 38100 17797 -748 -2935 -34781 -18510 22106 -31400 -748 -2934 -33642 39797 -48558 -18916 748 2935z"/>
   <path class="fil8" d="M498374 532588l-36664 56459 -80660 -52375 36664 -56463 80660 52379zm-81464 -45255l0 0 11476 38987 -41154 6722 -1747 2687 44235 -4877 3882 13185 13625 -1818 13539 42394 1748 -2690 -10601 -40328 40279 -5377 1748 -2691 -55100 2446 -20182 -51330 -1748 2690z"/>
   <path class="fil8" d="M59969 112829l34368 24542 -35055 49098 -34372 -24538 35059 -49102zm-30618 49801l0 0 24752 -6114 3074 25981 1635 1169 -1830 -27860 8372 -2067 -763 -8590 26943 -7312 -1638 -1169 -25568 5527 -2254 -25394 -1639 -1165 8 34597 -32726 11228 1634 1169z"/>
   <path class="fil10" d="M49613 375001l28111 -124 177 40154 -28108 124 -180 -40154zm2848 38805l0 0 10988 -12934 11769 12833 1338 -8 -11829 -14328 3716 -4374 -3758 -4340 11705 -14437 -1337 8 -11657 12934 -11100 -12833 -1338 4 13468 18683 -13302 18796 1337 -4z"/>
  </g>
 </g>
</svg>
