<?xml version="1.0" encoding="UTF-8"?>
<!DOCTYPE svg PUBLIC "-//W3C//DTD SVG 1.0//EN" "http://www.w3.org/TR/2001/REC-SVG-20010904/DTD/svg10.dtd">
<!-- Creator: CorelDRAW X7 -->
<svg xmlns="http://www.w3.org/2000/svg" xml:space="preserve" width="56px" height="65px" version="1.0" style="shape-rendering:geometricPrecision; text-rendering:geometricPrecision; image-rendering:optimizeQuality; fill-rule:evenodd; clip-rule:evenodd"
viewBox="0 0 511229 597396"
 xmlns:xlink="http://www.w3.org/1999/xlink">
 <defs>
  <style type="text/css">
   <![CDATA[
    .fil0 {fill:#343434}
   ]]>
  </style>
 </defs>
 <g id="Слой_x0020_1">
  <metadata id="CorelCorpID_0Corel-Layer"/>
  <g id="_19733066048">
   <g>
    <path class="fil0" d="M390512 141321l-72535 0c-5324,0 -9634,4321 -9634,9634 0,5323 4310,9644 9634,9644l72535 0c55940,0 101448,45509 101448,101438l0 176042 -250517 0 0 -176042c0,-42491 -22080,-79928 -55358,-101438l54809 0c5313,0 9634,-4321 9634,-9644 0,-5313 -4321,-9634 -9634,-9634l-120167 0c-66565,0 -120727,54161 -120727,120716l0 185676c0,5323 4321,9634 9645,9634l212530 0 0 130415c0,5323 4311,9634 9634,9634 5313,0 9634,-4311 9634,-9634l0 -130415 28353 0 0 130415c0,5323 4310,9634 9634,9634 5323,0 9634,-4311 9634,-9634l0 -130415 212531 0c5323,0 9634,-4311 9634,-9634l0 -185676c0,-66555 -54151,-120716 -120717,-120716zm-371233 120716c0,-55929 45508,-101438 101448,-101438 55929,0 101438,45509 101438,101438l0 176042 -202886 0 0 -176042z"/>
    <path class="fil0" d="M279430 364509c5323,0 9634,-4311 9634,-9634l0 -261089 86976 0c11681,0 21197,-9504 21197,-21197l0 -51381c0,-11693 -9516,-21208 -21197,-21208l-96610 0c-5324,0 -9634,4321 -9634,9645l0 345230c0,5323 4310,9634 9634,9634zm98528 -343301l0 51381c0,1067 -862,1929 -1918,1929l-86976 0 0 -55239 86976 0c1056,0 1918,862 1918,1929z"/>
    <path class="fil0" d="M120727 205558c-5323,0 -9645,4311 -9645,9634l0 29549c0,5323 4322,9634 9645,9634 5313,0 9634,-4311 9634,-9634l0 -29549c0,-5323 -4321,-9634 -9634,-9634z"/>
   </g>
   <g>
   </g>
   <g>
   </g>
   <g>
   </g>
   <g>
   </g>
   <g>
   </g>
   <g>
   </g>
   <g>
   </g>
   <g>
   </g>
   <g>
   </g>
   <g>
   </g>
   <g>
   </g>
   <g>
   </g>
   <g>
   </g>
   <g>
   </g>
   <g>
   </g>
  </g>
 </g>
</svg>
