<?xml version="1.0" encoding="UTF-8"?>
<!DOCTYPE svg PUBLIC "-//W3C//DTD SVG 1.0//EN" "http://www.w3.org/TR/2001/REC-SVG-20010904/DTD/svg10.dtd">
<!-- Creator: CorelDRAW X7 -->
<svg xmlns="http://www.w3.org/2000/svg" xml:space="preserve" width="66px" height="66px" version="1.0" style="shape-rendering:geometricPrecision; text-rendering:geometricPrecision; image-rendering:optimizeQuality; fill-rule:evenodd; clip-rule:evenodd"
viewBox="0 0 461972 461981"
 xmlns:xlink="http://www.w3.org/1999/xlink">
 <defs>
  <style type="text/css">
   <![CDATA[
    .fil1 {fill:#343434}
    .fil0 {fill:#70A399;fill-opacity:0.501961}
   ]]>
  </style>
 </defs>
 <g id="Слой_x0020_1">
  <metadata id="CorelCorpID_0Corel-Layer"/>
  <path class="fil0" d="M229946 162918c19812,16947 31572,53029 61370,77648 29797,24628 77614,37800 103324,6582 25717,-31217 29318,-106825 30846,-152281 1528,-45455 982,-60759 -23306,-70000 -24289,-9233 -72321,-12413 -137730,-8441 -65408,3981 -148185,15106 -169418,38618 -21233,23504 19070,59396 53153,76244 34083,16856 61948,14675 81761,31630z"/>
  <path class="fil1" d="M18491 409769l428484 0 0 37214 -431977 0 0 -37214 3493 0zm30252 -409769l-546 17c-5070,0 -8778,99 -11875,1090 -2982,949 -5773,2890 -9225,6590 -1801,1908 -3428,4228 -4534,6764 -925,2114 -1495,4418 -1495,6789l0 372613 -5335 -24c-4287,-25 -9622,-67 -12355,1296 -620,306 -1685,1247 -2552,2329l-826 1148 0 57703c0,1338 735,2742 1825,3832 1090,1090 2503,1834 3840,1834l450634 0c1321,0 2709,-711 3790,-1776 1082,-1057 1817,-2428 1883,-3725l-8 -57975c-41,-1057 -999,-1982 -2362,-2684 -2667,-1396 -6557,-1958 -9712,-1958l-8994 0 0 -372613c0,-4997 -2733,-10547 -7069,-14734 -3981,-3848 -9308,-6516 -15056,-6516l-5541 17c-3725,-17 -7895,1825 -11381,4434 -3650,2734 -6466,6269 -7185,9349l-627 2701 -326093 0 -636 -2701c-718,-3080 -3535,-6615 -7185,-9349 -3485,-2609 -7656,-4451 -11380,-4451zm358268 25833c0,-2469 966,-5178 2469,-7177 1611,-2147 3899,-3642 6517,-3642 3097,0 5533,876 7284,2626 1742,1743 2626,4179 2626,7276l0 368947 -18896 0 0 -368030zm-333567 268538l23645 0 0 3494c0,7631 1016,13866 3600,18813 2511,4815 6665,8639 13000,11628 12057,5707 20242,1297 28269,-3031l4063 -2180 4014 2824c1511,1132 2824,2123 5533,3048 3617,1239 7111,1800 10381,1800 6657,0 12496,-2312 17063,-5797 4583,-3485 7911,-8160 9522,-12859 694,-2032 1065,-4080 1065,-6004l0 -11736 74766 0 0 3494c0,5029 16,9629 1098,13742 1041,3956 3155,7788 7359,11686 3956,3675 8589,6070 13602,7037 4963,958 10389,553 15972,-1363 2709,-925 4022,-1908 5542,-3048l4013 -2808 5261 2949c1528,908 3031,1817 4608,2527 3552,1594 7458,2428 11372,2428 4865,0 9746,-1272 13982,-3882 4245,-2609 7920,-6623 10381,-12074 2082,-4633 3320,-10356 3320,-17194l0 -3494 27138 0 0 99492 -322062 0 0 -99492 3493 0zm-37378 -269455c0,-3080 875,-5508 2626,-7259 1767,-1767 4195,-2643 7276,-2643 2618,0 4905,1495 6516,3634 1511,1999 2477,4716 2477,7185l0 368030 -18895 0 0 -368947zm247297 277524l0 -31143c0,-5922 3353,-9737 7631,-11406 1593,-619 3336,-941 5021,-941 1685,0 3427,322 5021,941 4286,1677 7631,5492 7631,11406l0 32060c0,5665 -3345,9456 -7606,11132 -1594,620 -3320,942 -5021,942 -1702,0 -3436,-330 -5071,-999 -4253,-1751 -7606,-5691 -7606,-11992zm-130058 917l0 -32060c0,-5922 3353,-9737 7631,-11406 1594,-619 3337,-941 5022,-941 1684,0 3427,322 5021,941 4286,1677 7631,5492 7631,11406l0 31143c0,6318 -3361,10266 -7639,12008 -1594,644 -3345,975 -5063,975 -1693,0 -3419,-322 -5013,-942 -4253,-1668 -7590,-5442 -7590,-11124zm170368 -4551l-8 -22926c0,-8209 3287,-13321 7490,-15625 1793,-966 3709,-1454 5608,-1454 1899,0 3799,479 5525,1355 4262,2221 7598,7028 7598,13891l190 8523c545,15832 1107,32365 -12834,32919l-537 8c-4360,17 -7598,-1809 -9811,-4864 -1966,-2717 -3023,-6434 -3188,-10621l-33 -1206zm-211578 0l-9 -24759c0,-6855 3337,-11670 7582,-13866 1742,-909 3650,-1380 5541,-1380 1892,0 3816,488 5600,1470 4212,2288 7499,7400 7499,15609l165 7887c512,15155 1040,31152 -12809,31722l-537 8c-4361,17 -7598,-1809 -9811,-4864 -1966,-2717 -3023,-6434 -3188,-10621l-33 -1206zm-15006 -25676l0 6244 -27138 0 0 -99501 27138 0 0 3494c0,7689 1073,14006 3766,19036 2618,4889 6912,8754 13387,11694 1206,562 3617,1223 6136,1685 2131,396 4270,636 5682,529 9035,-719 15725,-4047 20151,-9333 4757,-5698 7094,-13841 7094,-23611l0 -3494 73849 0 0 3494c0,2378 157,4600 430,6632 1197,8803 4831,15435 9679,19820 4749,4303 10744,6500 16790,6500l3410 -223c7351,-999 9135,-2057 12413,-4014l6194 -3460 1735 1164c6648,4443 12544,6648 18276,6648 5715,-8 11579,-2246 18144,-6648l1718 -1148 2180 1140c8928,4724 18797,9952 31284,3502 5773,-2982 9638,-6673 12016,-11381 2453,-4848 3452,-10934 3452,-18532l0 -3494 27138 0 0 99501 -27138 0 0 -3494c0,-5607 -404,-9976 -1610,-13660 -1156,-3551 -3122,-6623 -6277,-9778 -5723,-5756 -11801,-8581 -17954,-8927 -5360,-306 -10934,1214 -16542,4220l-5475 3378 -1132 759 -3939 -3336c-5162,-3642 -11348,-5211 -17426,-4848 -6467,388 -12867,2965 -17888,7540 -3841,3502 -5913,7309 -6995,11273 -1123,4105 -1272,8680 -1272,13379l0 3494 -74766 0 0 -3494c0,-4699 -148,-9274 -1272,-13379 -1081,-3972 -3146,-7771 -6986,-11273 -5245,-4782 -12033,-7400 -18830,-7590 -6549,-181 -13173,1916 -18425,6484l-1999 1742 -2221 -1486c-6929,-4650 -14040,-7186 -20820,-6872 -6079,289 -12058,2940 -17608,8490 -2626,2626 -4740,5368 -6136,8647 -1429,3337 -2213,7342 -2213,12487zm186274 -85180l0 -31143c0,-5921 3353,-9737 7631,-11405 1593,-620 3336,-942 5021,-942 1685,0 3427,322 5021,942 4286,1676 7631,5492 7631,11405l0 32977c0,4881 -3526,8448 -7953,10001 -1544,529 -3237,834 -4897,842 -1693,9 -3419,-272 -4997,-883 -4204,-1635 -7457,-5368 -7457,-11794zm40310 -3633l-83 -5658c-223,-9456 -520,-22793 2486,-28046 1759,-3064 4394,-5046 7268,-5905 2188,-652 4534,-669 6747,-49 2181,619 4270,1874 5922,3732 2320,2569 3873,6335 3873,11166l190 8523c545,15824 1115,32366 -12834,32919l-537 8c-4360,17 -7598,-1808 -9811,-4864 -1966,-2717 -3023,-6434 -3188,-10621l-33 -1205zm-81513 24l-74 -4996c-174,-9250 -454,-23735 2312,-28806 1462,-2684 4229,-4782 7342,-5715 2057,-611 4344,-744 6558,-215 2262,545 4434,1759 6177,3807 2312,2734 3890,6937 3890,12975l165 7887c512,15162 1057,31151 -12801,31721l-537 8c-4360,17 -7606,-1808 -9819,-4864 -1974,-2742 -3023,-6450 -3188,-10621l-25 -1181zm-130065 -24l-99 -5872c-248,-9828 -612,-23785 2874,-28798 1660,-2387 4245,-4154 7052,-4939 2214,-611 4617,-644 6888,50 2304,702 4476,2139 6153,4426 2007,2750 3345,6748 3345,12207l165 7887c512,15154 1040,31151 -12809,31721l-537 8c-4361,17 -7598,-1808 -9811,-4864 -1966,-2717 -3023,-6434 -3188,-10621l-33 -1205zm-15006 -25677l0 6244 -27138 0 0 -99500 322062 0 0 99500 -27138 0 0 -3493c0,-5525 -355,-9589 -1395,-13041 -1024,-3386 -2800,-6417 -5633,-9910 -2775,-3419 -6020,-5740 -9662,-7185 -3750,-1470 -8044,-2090 -12785,-2090 -7309,0 -11900,3097 -16426,6145l-3015 2031 -2180 -1800c-776,-677 -1486,-1297 -2585,-1990l-3749 -1949c-4997,-2238 -10365,-2965 -15469,-2263 -5029,693 -9836,2816 -13833,6293l-1998 1742 -2222 -1486c-5228,-3502 -10439,-5913 -15741,-6648 -5186,-727 -10629,148 -16493,3146 -2056,1057 -2188,1173 -3452,2304l-2419 2222c-3089,3089 -5261,6326 -6624,10117 -1404,3923 -2040,8564 -2040,14362l0 3493 -73849 0 0 -3493c0,-15964 -7251,-25767 -16533,-29938 -3593,-1619 -7549,-2412 -11497,-2412 -3931,-16 -7895,802 -11553,2387 -9324,4047 -16633,13288 -16633,27212zm-23645 -127142l318569 0 0 18896 -322062 0 0 -18896 3493 0z"/>
 </g>
</svg>
