<?xml version="1.0" encoding="UTF-8"?>
<!DOCTYPE svg PUBLIC "-//W3C//DTD SVG 1.0//EN" "http://www.w3.org/TR/2001/REC-SVG-20010904/DTD/svg10.dtd">
<!-- Creator: CorelDRAW X7 -->
<svg xmlns="http://www.w3.org/2000/svg" xml:space="preserve" width="66px" height="66px" version="1.0" style="shape-rendering:geometricPrecision; text-rendering:geometricPrecision; image-rendering:optimizeQuality; fill-rule:evenodd; clip-rule:evenodd"
viewBox="0 0 1216121 1216121"
 xmlns:xlink="http://www.w3.org/1999/xlink">
 <defs>
  <style type="text/css">
   <![CDATA[
    .fil1 {fill:#343434}
    .fil0 {fill:#FF9966;fill-opacity:0.501961}
   ]]>
  </style>
 </defs>
 <g id="Слой_x0020_1">
  <metadata id="CorelCorpID_0Corel-Layer"/>
  <path class="fil0" d="M315602 820625c46589,39589 67133,118875 126223,171616 59089,52742 156703,78939 238206,44068 81526,-34893 146964,-130876 148659,-242685 1696,-111810 -60328,-239446 -209031,-285427 -148681,-45980 -384061,-10261 -481153,48850 -97091,59112 -55915,141681 979,182878 56894,41220 129506,41133 176117,80700z"/>
  <path class="fil1" d="M553178 758470l137506 -143985c6109,-7653 16653,-19610 27001,-30110 8196,-8327 16479,-15936 22675,-20066l14305 -9544 0 420150 -14305 -9610c-12283,-8239 -25675,-23718 -36371,-36088l-11435 -12762 -16218 -15740c-11001,-10457 -22349,-21240 -31219,-31871l-10392 -12087c-29654,-30828 -58285,-60459 -87482,-92048l5935 -6239zm-273491 -138333l0 3870c-44,7196 -65,10870 695,12761 674,1696 3109,4066 7849,8718l25653 25588c20218,19632 35654,30045 54350,10805 3631,-3717 7044,-6478 10218,-9022 3783,-3044 7327,-5891 9805,-9609l5109 -7587 7609 5087c11718,7848 18588,14827 24175,20501 7022,7109 11522,11674 23762,11674 7479,0 13261,-6000 18479,-11435l6218 -6109 7913 -6761c6870,-5761 14827,-12457 21262,-19305 11131,-11805 18566,-25176 6718,-36328 -14131,-13305 -31719,3217 -44633,15435 -4870,4609 -9283,8783 -13261,11436l-5066 3391 -5152 -3435c-10892,-7283 -18566,-14718 -24958,-20914 -13239,-12848 -19196,-18544 -51176,9957l-3870 3718c-2456,2456 -4435,4500 -8631,7283l-5065 3391 -5152 -3435c-4653,-3109 -9305,-7609 -14305,-12457 -12045,-11674 -26936,-26066 -42002,-15675 -1087,761 -3109,3109 -4783,5675l-1761 2782zm424802 -269599c15262,0 15544,-283 33154,-16588l3456 -3196 7240 -7783c7392,-8304 15522,-17500 26110,-20327l4022 -1065 3456 2326c7566,5088 13175,11088 18849,17219l10631 10783c15327,14239 29567,27370 47959,10848l46915 -42306c11805,-10370 18218,-19349 20740,-26719 1544,-4522 1500,-8370 370,-11370 -1131,-2957 -3479,-5457 -6457,-7327 -4413,-2760 -10283,-4239 -16327,-4239 -6848,0 -17718,10653 -29414,22132 -8827,8652 -18153,17805 -28176,24501l-5087 3435 -5131 -3435c-12957,-8653 -22675,-18588 -31262,-27349 -17783,-18132 -29740,-30284 -60198,282l-218 261c-10065,10066 -18827,18871 -30697,26806l-5109 3435 -5109 -3435c-11152,-7457 -20348,-16653 -28827,-25154 -11457,-11413 -21501,-21479 -31175,-21479 -6718,0 -12001,2044 -15523,5413 -3587,3435 -5565,8501 -5565,14327 0,10740 15696,24697 32197,39372 6631,5891 13413,11957 20088,18696 3739,3761 9805,9783 15805,14523 5152,4065 10326,7413 13283,7413zm331928 -267382l112788 111418 -128419 783 0 -127636 15631 15435zm-30523 -83156l-655900 43c-3456,-43 -7174,1914 -10065,4805 -2870,2913 -4783,6609 -4783,10109l0 405062c0,3892 5109,8131 11544,10523 2870,1021 5935,1695 8761,1695 2696,0 5413,-500 7848,-1652 6370,-3022 11327,-11218 11327,-27436l0 -363625 606680 0 0 165899c0,11152 1978,18718 6326,23066 4349,4348 11914,6326 23067,6326l165920 0 0 941826 -801993 0c0,-12413 457,-24784 739,-37197 0,-20132 -2717,-42372 -20479,-42372 -5022,0 -9957,2066 -13762,4914 -3587,2695 -5978,5674 -5978,7609l0 91613c0,3543 1935,7239 4783,10130 2891,2848 6587,4783 10131,4783l851104 0c3522,0 7196,-1891 10022,-4696 2892,-2848 4848,-6500 4935,-9957l-43 -991263c-283,-11674 -58372,-67198 -87504,-95026l-14066 -13544 -13718 -14240c-27958,-29284 -83504,-87373 -94896,-87395zm-827016 885802c14392,0 29979,-19284 40132,-31871l4087 -5001c6001,-7196 13631,-14261 21219,-21305 9174,-8500 18392,-17066 23392,-24523l5109 -7587 7609 5087c13935,9327 27371,24414 41371,40132 12284,13784 25110,28219 38350,38763 26806,21371 57655,27436 96418,-21197 7239,-9109 16957,-18413 26392,-27457 10305,-9914 20414,-19610 25849,-27741l5087 -7587 7631 5087c15240,10196 32871,29958 49220,48263 8283,9262 16261,18197 22653,24567 42241,37545 91548,96243 132528,139267l-653465 0 9587 -14305c4609,-6892 12827,-15262 21610,-24197 14044,-14327 29849,-30458 29849,-38197 0,-5914 -1978,-10762 -5065,-14197 -1848,-2065 -4218,-3739 -6805,-4869 -2544,-1109 -5392,-1718 -8239,-1718 -4696,0 -9523,1652 -13479,5174 -5261,4761 -11175,11131 -17153,17545 -9631,10370 -19588,21109 -28980,27370l-14305 9566 0 -420150 14305 9588c4044,2695 12979,10957 22219,20001 11022,10783 22914,23131 27196,28262l10414 12044 10870 11326 35349 35415c14740,16740 24676,26545 34589,36328 7239,7131 14544,14370 24349,24957 9109,9110 18979,22067 27719,32263l-33632 37893c-6131,6957 -13610,14001 -21110,21044 -15044,14153 -30393,28610 -31936,39546l-218 3261c0,5043 1740,9500 4587,12761 2892,3283 7044,5566 11718,6218l2979 174zm-89222 -368887l632029 0 -9587 14305c-6218,9283 -39524,42850 -60785,64286l-16653 16957 -8218 10392c-6109,7326 -14305,15174 -23132,23653 -11065,10609 -23348,22371 -33545,35154 -3065,3870 -5674,6391 -8804,9435l-13871 13675c-9261,9087 -18261,17935 -27131,27153l-7566 8740c-3000,3717 -6044,7478 -10631,12000l-10239 10022c-13088,12718 -26480,25741 -37480,39546 -3066,3804 -5609,6304 -8653,9261l-12892 13131c-10370,10914 -22849,23958 -31523,29762l-6457 4348 -61350 -65372 -20306 -20262 -114679 -119484 -19153 -19131c-4609,-4566 -7783,-8414 -10870,-12218 -2457,-3022 -5000,-6109 -8435,-9609l-91548 -95744 21479 0zm-89656 -29393l0 549743c0,3544 1935,7240 4783,10088 2891,2891 6587,4826 10131,4826l764318 0c5522,0 9478,-2196 12044,-5696 3652,-5000 5282,-12718 5282,-21284l0 -520784c0,-10653 -2195,-18197 -6695,-22697 -4501,-4500 -12045,-6696 -22697,-6696l-740186 0c-7805,0 -15545,1913 -21023,5196 -3566,2130 -5957,4739 -5957,7304z"/>
 </g>
</svg>
