<?xml version="1.0" encoding="UTF-8"?>
<!DOCTYPE svg PUBLIC "-//W3C//DTD SVG 1.0//EN" "http://www.w3.org/TR/2001/REC-SVG-20010904/DTD/svg10.dtd">
<!-- Creator: CorelDRAW X7 -->
<svg xmlns="http://www.w3.org/2000/svg" xml:space="preserve" width="57px" height="72px" version="1.0" style="shape-rendering:geometricPrecision; text-rendering:geometricPrecision; image-rendering:optimizeQuality; fill-rule:evenodd; clip-rule:evenodd"
viewBox="0 0 1384389 1735857"
 xmlns:xlink="http://www.w3.org/1999/xlink">
 <defs>
  <style type="text/css">
   <![CDATA[
    .fil1 {fill:#343434}
    .fil0 {fill:#B3B3B3;fill-opacity:0.501961}
   ]]>
  </style>
 </defs>
 <g id="Слой_x0020_1">
  <metadata id="CorelCorpID_0Corel-Layer"/>
  <path class="fil0" d="M935648 603977c-27294,-72182 -103596,-132806 -142619,-240750 -39052,-107944 -40826,-263179 46748,-320398 87574,-57277 264467,-16537 370408,9898 105970,26436 141017,38566 147797,119131 6781,80593 -14677,229620 -63113,426855 -48407,197234 -123765,442704 -190826,491541 -67089,48836 -125853,-98961 -144335,-214687 -18510,-115725 3233,-199408 -24060,-271590z"/>
  <path class="fil1" d="M51411 1362960l0 -658363 123880 0 0 441789c0,33702 9641,63513 24747,88060 17452,28323 42285,49866 68177,62741 46204,23002 120990,21457 190225,20026l48522 -743 285924 -229c57448,-1002 97501,-1745 135495,50782 5006,6923 10700,17537 14705,28781 3347,9498 5665,19655 5665,29010l0 263065 -752976 0 0 -173689c0,-26893 -17165,-29611 -37478,-32729 -15135,-2346 -31642,-4949 -47120,-14047 -16708,-9813 -32615,-25377 -43773,-44889 -9756,-17108 -15993,-37364 -15993,-59565zm1012407 -331671c-32843,0 -52756,-15334 -61510,-34989 -3433,-7811 -5064,-16279 -5035,-24604 28,-8326 1745,-16737 4892,-24319 8554,-20427 27608,-36534 54787,-36534 17023,0 31556,6122 42371,15764 11644,10442 18968,25091 20399,40597l228 4463c0,13933 -6093,28123 -15420,39023 -9499,11072 -22716,19083 -36649,20370l-4063 229zm-10299 51440c18253,0 33445,-2775 46576,-7924 13161,-5150 24748,-12846 35705,-22516 23317,-20571 33874,-48808 33874,-77246 0,-14534 -2718,-29067 -7782,-42628 -5064,-13533 -12645,-26350 -22258,-37250 -18825,-21371 -46033,-35733 -79249,-35733 -54730,0 -88775,28609 -103423,65258 -5808,14534 -8669,30383 -8669,46090 0,15735 2918,31614 8611,46233 14362,36849 47063,65716 96615,65716zm-696157 -125395c0,-30641 5894,-58078 15592,-81967 11101,-27408 27351,-50324 45547,-68405 31413,-31213 70208,-53872 112521,-63056 38824,-8440 80708,-5607 122650,12216 13074,5551 25519,12388 37020,20113 11816,8011 22745,17051 32472,26807l8554 9384c38080,41169 56218,93811 55560,145737 -658,52957 -20913,105398 -59393,144336 -46147,46719 -100963,66946 -154034,66946 -28924,0 -57334,-6008 -83540,-17023 -26063,-10929 -50153,-26950 -70322,-46891 -38051,-37564 -62627,-89290 -62627,-148197zm204587 262893c29153,0 54072,-2346 77275,-7953 23173,-5608 45060,-14649 68234,-27952l10127 -6094 9613 -6609c49180,-36277 85600,-89061 101993,-147883 15306,-54987 13161,-115439 -12359,-172687l-10156 -21858c-3004,-5836 -6409,-11701 -11416,-19340 -8068,-12359 -17537,-24318 -27808,-35390 -10557,-11329 -22087,-21886 -34046,-31098 -38909,-30012 -86229,-47349 -134779,-51898 -49466,-4635 -100305,3948 -144908,25720 -43687,21285 -81365,57505 -107743,100362 -26264,42686 -41284,91808 -39939,139243 2031,72525 32243,138184 78590,185791 46720,47978 109889,77646 177322,77646zm285324 -835171c-14963,0 -27580,-2088 -38251,-8668 -10929,-6752 -19054,-17681 -24404,-34904 -6953,-22287 -2833,-54988 7038,-87603 11043,-36448 29496,-73841 47491,-96700 42314,-53700 95528,-86143 151145,-100076 52556,-13161 107400,-9813 157352,7610 49924,17423 95099,48951 128372,92065 35619,46119 57734,105484 57734,174919 0,169913 -95184,223985 -148913,254511 -10443,5922 -19226,10929 -24604,15392 -4721,3862 -10157,11043 -15192,18940 -6151,9756 -11558,20541 -14448,28495 -3690,10128 -5464,24089 -7181,38279 -5121,41856 -10585,86172 -63027,86172 -13132,0 -24175,-2946 -33187,-8210 -17509,-10214 -26550,-28553 -29267,-51040 -2461,-20256 371,-44459 6694,-69035 12102,-47091 37622,-96700 63285,-123450 16936,-17681 36219,-28409 55388,-39109 16937,-9442 33902,-18911 48035,-33073 7067,-7067 13275,-13819 18511,-21371 4978,-7210 9240,-15392 12588,-25749 18796,-57477 12559,-110462 -9527,-151059 -9499,-17452 -21972,-32729 -36620,-45088 -14534,-12245 -31328,-21744 -49495,-27666 -38337,-12531 -83254,-9613 -127770,14620 -59766,32472 -68578,87059 -74586,124480 -2860,17995 -5264,32672 -12302,42399 -4348,6094 -11815,12989 -20398,17853 -7410,4205 -15879,7066 -24461,7066zm234512 -385056l-9183 57c-30956,-28 -55818,515 -79793,4463 -23602,3920 -46833,11301 -74985,25120 -15964,7839 -33903,18424 -50868,30154 -15335,10643 -29868,22287 -41312,33731 -3262,3261 -5207,5979 -7210,8668 -2460,3405 -5092,7010 -9670,11816l-9069 10271 -8583 11244c-17080,23116 -32300,52841 -42972,84684 -9927,29582 -15964,61081 -15964,90864 0,18682 544,35276 4778,50353 4148,14676 12045,28810 26750,43544 16794,16736 36821,26578 57305,30240 18396,3319 37450,1831 55045,-3748 17566,-5522 33816,-15220 46776,-28180 14305,-14248 24662,-32615 28524,-53987 1803,-10070 2833,-19082 3691,-26950 2403,-21972 4005,-36391 20856,-58907 14791,-19855 35047,-32100 56590,-37364 19369,-4721 39939,-3805 58707,2174 18939,5980 36220,17223 48979,33016 13332,16507 21686,37993 21686,63570 0,78219 -18853,88461 -58277,109775 -12703,6838 -27980,15135 -45404,28037 -19540,14477 -35991,30985 -49895,49838 -13990,18968 -25548,40540 -35361,65058l-4292 11387c-13875,38165 -24890,87002 -20913,130517 3805,41226 21571,77875 64314,95012l3977 1488c30040,10843 59765,9870 84770,57 25920,-10185 47063,-29983 58564,-56017 6837,-15278 9098,-33988 11215,-51641 2889,-24232 5693,-47005 19569,-63341 7238,-8411 72496,-48179 86916,-57677 63742,-51583 98417,-130603 105798,-213284 7839,-87574 -14763,-179096 -65430,-246758 -32129,-42914 -50811,-55302 -92180,-82653l-5121 -3376c-14935,-9928 -40054,-20256 -66403,-28066 -26035,-7753 -52871,-13075 -71925,-13189zm-1030374 617023c0,-38480 29926,-43487 58478,-43487l22373 487c44116,-58 43429,38222 43029,62111l-200 17051 -123680 0 0 -36162zm-51411 6866l0 715010c0,50639 11415,94298 34990,127399 22086,31041 55216,53214 100019,63656l9212 2175 1259 182328c1201,6209 3891,12474 7495,16880 2232,2689 4635,4520 6781,4520l825014 0c2203,0 6065,-2889 9613,-7295 3319,-4148 5779,-9498 5779,-14992l0 -285294c0,-27809 -7438,-52299 -18825,-73183 -14219,-26007 -34818,-46749 -55159,-61482 -41799,-30269 -87631,-29697 -152747,-28896l-36162 343 -223441 0c-23031,0 -44173,887 -64457,1717 -97244,3976 -178696,7324 -214801,-77847 -12016,-28409 -9498,-207477 -8268,-296195l715 -121877c172,-49065 372,-98216 -86,-147024 -286,-30870 -10385,-56390 -27980,-73956 -17452,-17395 -42714,-27322 -73555,-27322l-24061 0c-30755,0 -56218,10042 -73755,27580 -17538,17537 -27580,42971 -27580,73755z"/>
 </g>
</svg>
