<?xml version="1.0" encoding="UTF-8"?>
<!DOCTYPE svg PUBLIC "-//W3C//DTD SVG 1.0//EN" "http://www.w3.org/TR/2001/REC-SVG-20010904/DTD/svg10.dtd">
<!-- Creator: CorelDRAW X7 -->
<svg xmlns="http://www.w3.org/2000/svg" xml:space="preserve" width="66px" height="66px" version="1.0" style="shape-rendering:geometricPrecision; text-rendering:geometricPrecision; image-rendering:optimizeQuality; fill-rule:evenodd; clip-rule:evenodd"
viewBox="0 0 537375 537404"
 xmlns:xlink="http://www.w3.org/1999/xlink">
 <defs>
  <style type="text/css">
   <![CDATA[
    .fil1 {fill:#343434}
    .fil0 {fill:#70A399;fill-opacity:0.501961}
   ]]>
  </style>
 </defs>
 <g id="Слой_x0020_1">
  <metadata id="CorelCorpID_0Corel-Layer"/>
  <path class="fil0" d="M261968 235568c-27015,-22124 -81216,-36592 -120556,-69822 -39349,-33230 -63828,-85212 -20780,-111199 43039,-25996 153603,-25996 220140,-25314 66546,683 89055,2047 105242,28581 16169,26534 26006,78237 27207,148213 1201,69976 -6216,158224 -38427,179801 -32221,21586 -89219,-23489 -117616,-60926 -28407,-37428 -28206,-67209 -55210,-89334z"/>
  <path class="fil1" d="M286023 519939l-5879 422c-6677,510 -15342,1172 -24171,1019 -19377,-336 -38408,-4775 -38101,-23133l0 -106c1019,-21807 25103,-24968 44903,-24046 8665,404 16254,1556 20491,2190l5745 663 672 2863c1720,7359 2575,12921 2575,18503 0,5581 -855,11144 -2575,18503l-682 2910 -2978 212zm251352 -222349l0 -2738c-298,-2047 -1306,-4054 -3026,-5543 -1633,-1413 -4006,-2450 -7099,-2700l-2940 -240 -673 -2901c-2353,-10116 -7195,-18849 -13958,-25612 -6754,-6754 -15496,-11605 -25631,-13959l-3142 -730 0 -3218c0,-21404 -269,-41674 -2891,-61061 -2604,-19290 -7561,-37976 -16908,-56449l-2306 -4689c-2209,-4524 -4429,-9068 -7042,-12988l-10980 -16773c-3939,-5236 -7926,-10376 -12153,-15390 -4160,-4967 -8540,-9771 -13296,-14334 -1210,-1172 -2257,-1960 -3256,-2728 -1326,-1009 -2661,-2037 -4304,-3680 -3286,-3314 -6955,-6417 -10760,-9309 -3862,-2901 -7945,-5668 -11989,-8185 -6004,-3746 -11941,-7272 -17840,-10423 -5985,-3199 -12133,-6139 -18541,-8694l-836 -327c-6638,-2651 -13027,-5207 -19924,-7157 -18195,-5159 -38264,-7724 -58323,-7752 -20338,-29 -40752,2517 -59255,7541 -4813,1306 -9808,2968 -14679,4832 -4919,1864 -9876,4054 -14535,6360l-27629 14938c-6715,4026 -13219,8781 -19377,13901 -6321,5265 -12287,10875 -17830,16476 -3401,3439 -6639,7176 -9732,11019 -3161,3900 -6187,7916 -9174,11903 -6149,8194 -11461,16850 -16130,25852 -4688,9049 -8752,18493 -12393,28215 -2575,6869 -4630,13690 -6331,20952 -1710,7301 -3084,15064 -4265,23825 -1874,13853 -1826,30041 -1797,46420l20 10933 -3123 720c-10135,2354 -18877,7205 -25640,13949 -6754,6773 -11596,15506 -13949,25622l-682 2901 -2930 240c-3151,259 -5572,1316 -7225,2776 -1710,1518 -2690,3526 -2901,5572l0 1797c202,1979 1143,3852 2767,5187 1604,1297 3939,2133 7022,2133l3728 0 317 3747c326,4073 1863,8415 4006,12498 2546,4880 6004,9424 9482,12902 2382,2392 5245,4650 8300,6629 3113,2017 6456,3746 9712,5024 1758,692 3257,1134 4477,1489 5601,1662 7753,2306 10577,10673 1220,3622 2930,6629 4986,9367 2171,2892 4794,5562 7676,8377 7830,7618 18205,11221 28715,11221 6225,0 12489,-1249 18301,-3651 5812,-2392 11220,-5966 15697,-10567 7686,-7897 12729,-18983 12729,-32750l0 -88430c0,-2604 -442,-5870 -1066,-8992 -711,-3497 -1681,-6831 -2565,-8896 -548,-1268 -1845,-3459 -2959,-5351l-1009 -1691c-1249,-2200 -2622,-3593 -4246,-5245 -2152,-2219 -4429,-4189 -6725,-6264 -6840,-5101 -15217,-7772 -23748,-8242 -9117,-500 -18435,1489 -26303,5648l-7849 4150 2008 -8636c951,-4112 1393,-9415 1854,-15140 644,-7945 1364,-16745 3718,-25314 1652,-6004 3343,-11999 5226,-17648 1950,-5860 4198,-11605 6917,-17042l2661 -5649c1537,-3334 3103,-6734 4794,-9636 13939,-24401 33518,-44767 55325,-61983 13920,-10510 32106,-20116 51204,-26908 17821,-6350 36516,-10289 53366,-10289 11557,0 20770,230 30002,1162 9223,932 18330,2565 29570,5351 14477,3574 27994,9098 40656,15957 12623,6850 24468,15073 35651,24084 1690,1364 2891,2594 4159,3910l2085 2095c53443,51357 58352,102802 60513,125618 461,4967 807,8454 1316,9520l3651 7609 -8204 -1912c-2162,-499 -3881,-1210 -5668,-1941 -1509,-586 -3123,-1248 -4765,-1700 -8618,-2373 -17658,-2229 -26015,192 -8224,2392 -15813,7023 -21664,13642 -3900,4409 -6773,9395 -8646,15294 -1921,6023 -2853,13142 -2853,21702l0 75653c0,10222 1470,19310 4880,26890 3324,7387 8569,13459 16178,17907 2546,1479 5140,2930 7839,4082 2565,1096 5293,1951 8214,2354l2863 308c12681,1047 24574,-2325 33604,-8406 8791,-5928 14852,-14420 16159,-23796l548 -4996 3352 -279c3776,-307 7522,-2132 11058,-3852 2786,-1364 5514,-2699 8454,-3478l5111 -1364 -10 50186c38,14775 48,21414 -4659,34114 -7359,19876 -22058,36045 -40378,47352 -19223,11855 -42519,18397 -65556,18310l-86327 10 -961 -4112c-2286,-9895 -4851,-20943 -13593,-24862 -3641,-1633 -14968,-2354 -27168,-2411 -14901,-58 -30857,883 -36237,2315 -7839,2084 -14660,6023 -19713,11614 -4756,5265 -8032,12086 -9184,20271 -1259,8963 -154,17167 3035,24046 3171,6830 8464,12460 15554,16341 2152,1172 5418,2795 8732,3919 2133,721 4285,1230 6043,1230l55402 0c5178,0 8829,-3872 11432,-8781 3017,-5697 4756,-12834 5928,-17888l730 -3160 26707 192c26812,298 54710,615 80274,-2469 10174,-1220 20213,-3977 29791,-7733 10836,-4247 21144,-9809 30434,-15929 1979,-1325 4304,-2968 6494,-4668 1835,-1432 3584,-2882 4909,-4170l6495 -6215c10990,-10991 18598,-22096 23392,-34988 4842,-12989 6946,-27994 6946,-46747l0 -80659 3987 -96c2257,-48 4054,-787 5303,-1873 1325,-1162 2161,-2834 2430,-4630zm-131046 37187l0 -76719c0,-5236 355,-9367 1287,-13027 970,-3814 2556,-7080 4957,-10472 2171,-3055 4852,-5543 7830,-7387 4553,-2834 9856,-4218 15179,-4064 5312,154 10673,1845 15332,5149 3151,2248 6014,5226 8310,8915 2104,3420 2574,5822 3362,9924l58 298c1441,7445 1143,23738 922,36131l-134 10145c-58,6312 -87,8934 3410,11413 1566,1114 3535,1633 5476,1566 1950,-67 3929,-759 5524,-2018 4390,-3497 3823,-16754 3353,-27907l-289 -9069 0 -5092 4967 1143c3372,769 6350,2546 8886,4717 2392,2037 4429,4468 6033,6735 1922,2690 3411,5591 4468,8588 2584,7311 2603,15237 403,22422 -2219,7206 -6705,13757 -13065,18311 -2527,1806 -5390,3314 -8521,4419 -2537,894 -5611,1403 -8666,1893 -3660,586 -7368,1191 -9069,2363 -2171,1508 -2632,4544 -3141,7974 -327,2219 -682,4553 -1479,7137 -2844,9271 -9598,15487 -17446,18234 -4343,1518 -9050,1989 -13584,1307 -4564,-682 -9031,-2517 -12845,-5553 -6744,-5361 -11518,-14430 -11518,-27476zm-376096 -36227c0,-4918 86,-8521 903,-12152 845,-3699 2459,-7071 5447,-11250 1623,-2296 4169,-5091 7032,-7349 2430,-1912 5149,-3459 7887,-4093l4967 -1143 -260 14007c-432,11201 -932,24247 3526,28129 1066,931 3660,2046 6513,2065 1009,0 2056,-144 3036,-528 903,-356 1787,-951 2536,-1806 1854,-2123 3171,-5966 3219,-12259 28,-4025 -192,-8713 -423,-13545 -231,-5025 -490,-10251 -490,-14939 0,-21096 4208,-40588 29416,-40588 7109,0 14016,3343 19089,8415 5072,5072 8415,11980 8415,19089l0 89497c0,3468 -816,6897 -2046,9923 -1441,3536 -3526,6658 -5562,8791l-596 624c-4899,4842 -10337,7503 -15697,8416 -4679,797 -9319,278 -13517,-1201 -4170,-1480 -7964,-3939 -10981,-7004 -3785,-3833 -6456,-8674 -7330,-13805l-663 -4563c-518,-4083 -845,-6446 -4073,-8425 -1835,-1124 -4621,-1527 -7685,-1960 -7436,-1066 -16370,-2344 -25064,-13036 -1778,-2200 -3949,-5764 -5467,-9588 -1249,-3141 -2132,-6580 -2132,-9722z"/>
 </g>
</svg>
