<?xml version="1.0" encoding="UTF-8"?>
<!DOCTYPE svg PUBLIC "-//W3C//DTD SVG 1.0//EN" "http://www.w3.org/TR/2001/REC-SVG-20010904/DTD/svg10.dtd">
<!-- Creator: CorelDRAW X7 -->
<svg xmlns="http://www.w3.org/2000/svg" xml:space="preserve" width="85px" height="85px" version="1.0" style="shape-rendering:geometricPrecision; text-rendering:geometricPrecision; image-rendering:optimizeQuality; fill-rule:evenodd; clip-rule:evenodd"
viewBox="0 0 619987 619987"
 xmlns:xlink="http://www.w3.org/1999/xlink">
 <defs>
  <style type="text/css">
   <![CDATA[
    .fil0 {fill:#343434}
   ]]>
  </style>
 </defs>
 <g id="Слой_x0020_1">
  <metadata id="CorelCorpID_0Corel-Layer"/>
  <g id="_68868417664">
   <g>
    <path class="fil0" d="M455307 251868c-5354,0 -9688,4342 -9688,9688l0 309993c0,16029 -13042,29063 -29062,29063l-368119 0c-16029,0 -29063,-13034 -29063,-29063l0 -368119c0,-16020 13034,-29062 29063,-29062l309993 0c5346,0 9688,-4334 9688,-9688 0,-5346 -4342,-9688 -9688,-9688l-309993 0c-26712,0 -48438,21735 -48438,48438l0 368119c0,26712 21726,48438 48438,48438l368119 0c26703,0 48429,-21726 48429,-48438l0 -309993c0,-5346 -4333,-9688 -9679,-9688z"/>
    <path class="fil0" d="M608635 11352c-7311,-7319 -17042,-11352 -27398,-11352 -10349,0 -20088,4033 -27398,11352l-311161 311169c-927,918 -1647,2008 -2136,3218l-27888 68980c-1458,3604 -617,7731 2128,10485 1854,1854 4334,2832 6856,2832 1219,0 2454,-223 3630,-704l68980 -27887c1210,-489 2300,-1210 3218,-2128l311169 -311169c7319,-7319 11352,-17049 11352,-27398 0,-10348 -4033,-20078 -11352,-27398zm-316841 344239l-27398 -27398 286602 -286603 27398 27398 -286602 286603zm-38098 -10700l21400 21400 -35919 14519 14519 -35919zm341244 -292446l-2840 2840 -27398 -27398 2840 -2840c3655,-3655 8520,-5672 13695,-5672 5174,0 10039,2017 13703,5681 3655,3655 5672,8520 5672,13694 0,5174 -2017,10040 -5672,13695z"/>
    <path class="fil0" d="M290618 242180c0,-5345 -4333,-9687 -9687,-9687l-193743 0c-5354,0 -9687,4342 -9687,9687 0,5355 4333,9688 9687,9688l193743 0c5354,0 9687,-4333 9687,-9688z"/>
    <path class="fil0" d="M242180 290618c0,-5345 -4333,-9687 -9687,-9687l-145305 0c-5354,0 -9687,4342 -9687,9687 0,5355 4333,9688 9687,9688l145305 0c5354,0 9687,-4333 9687,-9688z"/>
    <path class="fil0" d="M203430 329369l-116242 0c-5354,0 -9687,4333 -9687,9687 0,5346 4333,9688 9687,9688l116242 0c5355,0 9688,-4342 9688,-9688 0,-5354 -4333,-9687 -9688,-9687z"/>
    <path class="fil0" d="M87188 397182l96867 0c5354,0 9688,-4342 9688,-9688 0,-5354 -4334,-9688 -9688,-9688l-96867 0c-5354,0 -9687,4334 -9687,9688 0,5346 4333,9688 9687,9688z"/>
    <path class="fil0" d="M319681 387494c0,5346 4333,9688 9688,9688l48437 0c5346,0 9688,-4342 9688,-9688 0,-5354 -4342,-9688 -9688,-9688l-48437 0c-5355,0 -9688,4334 -9688,9688z"/>
    <path class="fil0" d="M384662 345912c1802,-1810 2832,-4299 2832,-6856 0,-2557 -1030,-5054 -2832,-6856 -1810,-1802 -4299,-2831 -6856,-2831 -2548,0 -5054,1029 -6856,2831 -1802,1802 -2831,4316 -2831,6856 0,2557 1029,5046 2831,6856 1802,1802 4308,2832 6856,2832 2540,0 5046,-1030 6856,-2832z"/>
    <path class="fil0" d="M77501 435932c0,5346 4333,9687 9687,9687l290618 0c5346,0 9688,-4341 9688,-9687 0,-5355 -4342,-9688 -9688,-9688l-290618 0c-5354,0 -9687,4333 -9687,9688z"/>
    <path class="fil0" d="M377806 474673l-290618 0c-5354,0 -9687,4342 -9687,9688 0,5354 4333,9688 9687,9688l290618 0c5346,0 9688,-4334 9688,-9688 0,-5346 -4342,-9688 -9688,-9688z"/>
    <path class="fil0" d="M377806 523111l-290618 0c-5354,0 -9687,4342 -9687,9688 0,5354 4333,9687 9687,9687l290618 0c5346,0 9688,-4333 9688,-9687 0,-5346 -4342,-9688 -9688,-9688z"/>
   </g>
   <g>
   </g>
   <g>
   </g>
   <g>
   </g>
   <g>
   </g>
   <g>
   </g>
   <g>
   </g>
   <g>
   </g>
   <g>
   </g>
   <g>
   </g>
   <g>
   </g>
   <g>
   </g>
   <g>
   </g>
   <g>
   </g>
   <g>
   </g>
   <g>
   </g>
  </g>
 </g>
</svg>
