<?xml version="1.0" encoding="UTF-8"?>
<!DOCTYPE svg PUBLIC "-//W3C//DTD SVG 1.0//EN" "http://www.w3.org/TR/2001/REC-SVG-20010904/DTD/svg10.dtd">
<!-- Creator: CorelDRAW X7 -->
<svg xmlns="http://www.w3.org/2000/svg" xml:space="preserve" width="102px" height="70px" version="1.0" style="shape-rendering:geometricPrecision; text-rendering:geometricPrecision; image-rendering:optimizeQuality; fill-rule:evenodd; clip-rule:evenodd"
viewBox="0 0 1835153 1257660"
 xmlns:xlink="http://www.w3.org/1999/xlink">
 <defs>
  <style type="text/css">
   <![CDATA[
    .fil0 {fill:#343434}
   ]]>
  </style>
 </defs>
 <g id="Слой_x0020_1">
  <metadata id="CorelCorpID_0Corel-Layer"/>
  <path class="fil0" d="M638499 1034309c-31659,-9733 -75701,-21099 -108102,-28054 -4580,-1357 -8800,-3244 -12193,-5110 -4516,-2524 -7909,-5429 -9224,-7613l-933 -1527 -127 -62469 1739 -2248c17939,-21438 31913,-46120 41328,-72626 9436,-26570 14398,-55048 14398,-84120 0,-7803 -1230,-40459 318,-45485 14250,-46502 18957,-90650 18597,-128819 -552,-58335 -12850,-102631 -20696,-120613 -5514,-8652 -12299,-15522 -23877,-13402 -14546,2057 -30641,997 -47711,-1696 -16688,-2629 -34309,-6892 -52376,-11217 -31404,-7507 -64865,-15522 -97881,-16031 -32444,-488 -64866,6255 -94956,27969l-1463 1081 -1717 128c-28691,2459 -53225,15818 -70507,36642 -17282,20865 -27439,49343 -27439,82168 0,24619 5747,59120 12151,89867 6404,30704 13571,58164 16264,68110 1102,4198 212,20356 212,25785 0,29750 5047,58398 14144,84798 9457,27503 23367,52630 40501,73941l1442 1760 -106 66541 -955 1548c-1378,2205 -4792,5131 -9308,7612 -3393,1888 -7634,3754 -12193,5090 -36048,9012 -72224,18724 -108209,28096 -30365,8503 -54072,26994 -70675,49725 -19148,26188 -28945,57996 -28945,86834l0 31214c0,15204 6701,29050 17452,39059 10899,10136 26018,16413 42685,16413l617973 -85c16688,-21 31807,-6277 42685,-16413 10772,-10008 17473,-23834 17473,-39038l0 -31171c0,-28860 -9818,-60709 -28923,-86855 -16561,-22753 -40290,-41222 -70676,-49725l-170 -64zm359274 -347717c0,-6213 -2523,-11875 -6552,-15904 -4050,-4029 -9691,-6552 -15861,-6552l-173308 0c-6213,0 -11832,2523 -15882,6552 -4050,4050 -6574,9691 -6574,15904l0 208550 -121906 0c-6192,0 -11833,2523 -15883,6573 -4029,4029 -6573,9670 -6573,15861 0,6235 2544,11875 6573,15883 4050,4050 9691,6573 15883,6573l981742 0c6213,0 11853,-2523 15882,-6552 4050,-4050 6574,-9669 6574,-15904 0,-6191 -2524,-11832 -6574,-15882 -4029,-4029 -9669,-6552 -15882,-6552l-64166 0 0 -497275c0,-6235 -2502,-11875 -6552,-15904 -4029,-4029 -9691,-6552 -15883,-6552l-173286 0c-6170,0 -11811,2523 -15882,6552 -4050,4071 -6553,9712 -6553,15904l0 497275 -70590 0 0 -670561c0,-6192 -2524,-11833 -6553,-15862 -4050,-4050 -9690,-6573 -15882,-6573l-173286 0c-6192,0 -11811,2523 -15861,6573 -4051,4029 -6574,9670 -6574,15862l0 670561 -70591 0 0 -208550zm-44869 28860l0 64187 -128353 0 0 -70612 128353 0 0 6425zm577450 -288747l0 179690 -128353 0 0 -186115 128353 0 0 6425zm-121928 224581l121928 0 0 243856 -128353 0 0 -243856 6425 0zm-166797 -397824l0 121949 -128374 0 0 -128374 128374 0 0 6425zm-121949 166818l121949 0 0 474862 -128374 0 0 -474862 6425 0zm-295129 468437l0 -64166 128353 0 0 70591 -128353 0 0 -6425zm930405 -888717l-1328251 0c-22116,0 -42197,8991 -56702,23516 -14504,14504 -23516,34564 -23516,56681l0 259886c0,6235 2545,11875 6574,15925 4029,4050 9669,6574 15882,6574 6213,0 11854,-2545 15904,-6574 4008,-4050 6552,-9690 6552,-15925l0 -259886c0,-9712 3987,-18554 10369,-24937 6383,-6383 15225,-10348 24937,-10348l1328251 0c9712,0 18533,3986 24916,10369 6403,6383 10390,15225 10390,24916l0 924001c0,9733 -3965,18533 -10348,24937 -6383,6383 -15246,10348 -24958,10348l-952904 0c-6170,0 -11811,2545 -15882,6574 -4050,4071 -6574,9711 -6574,15882 0,6213 2524,11853 6574,15882 4050,4051 9690,6574 15882,6574l952904 0c22117,0 42176,-8991 56680,-23495 14526,-14504 23517,-34564 23517,-56702l0 -924001c0,-22117 -9012,-42177 -23517,-56681 -14504,-14525 -34563,-23516 -56680,-23516zm-1388939 1091605l-106448 -63806 4516 -5725c3520,-4432 6446,-9436 8355,-14928 1781,-5005 2799,-10497 2799,-16434l0 -23559 9648 5662c13062,7676 26973,13720 41434,17770 13890,3901 28351,5979 43152,5979 14716,0 29221,-1908 43195,-5576 14122,-3711 27842,-9288 40861,-16540l9543 -5323 0 21502c0,6086 1039,11705 2883,16773 2036,5598 5090,10709 8822,15310l4707 5768 -110202 65099 -3265 -1972zm-146780 -336394c0,-12723 2269,-27906 5598,-43173 4389,-20166 10687,-40756 15925,-56130l1548 -4453 4644 106c65926,1485 123772,10179 169808,20209 46099,10051 80536,21501 99515,28520l4219 1569 0 68683c0,25679 -4771,50404 -13210,72796 -8822,23325 -21735,44276 -37554,61346l-382 403c-13635,14589 -29390,26400 -46544,34436 -16667,7804 -34692,12130 -53309,12130 -40375,0 -78119,-22011 -105685,-56511 -27227,-34119 -44573,-80600 -44573,-130113l0 -9818zm33907 -248288c6000,-466 9775,-1230 14673,-5195 44658,-36345 100935,-23092 160457,-8864l1039 234c30981,7400 62852,15034 93387,15097l4940 22 1273 4728c4347,16116 8672,39335 10114,67283 1082,21226 488,45273 -2990,71100l-1060 7867 -7464 -2714c-27863,-10178 -78246,-26103 -145253,-37257 -44891,-7485 -97330,-12829 -155474,-12829 -18130,0 -23347,19106 -29835,32486l-3011 -20654c-976,-6594 -1782,-13253 -2375,-19699 -594,-6404 -933,-12256 -933,-17239 0,-18703 5004,-39272 17239,-54030 10051,-12108 24767,-20272 45273,-20336zm-193007 705825c-3223,21 -6001,-764 -8143,-1760 -4686,-2205 -7103,-6977 -7103,-8800l0 -31192c0,-19700 6467,-41350 19105,-59098 11090,-15607 27015,-28330 47457,-34140l100617 -26103c44933,26760 89781,53796 134587,80769l0 80281 -286520 43zm633262 -10645c0,1930 -2397,6595 -7062,8800 -2141,997 -4919,1781 -8227,1781l-286499 21 0 -80154c45442,-26824 90842,-53903 136411,-80515l98645 25616c20590,5831 36494,18512 47626,34161 12617,17727 19106,39398 19106,59098l0 31192z"/>
 </g>
</svg>
