<?xml version="1.0" encoding="UTF-8"?>
<!DOCTYPE svg PUBLIC "-//W3C//DTD SVG 1.0//EN" "http://www.w3.org/TR/2001/REC-SVG-20010904/DTD/svg10.dtd">
<!-- Creator: CorelDRAW X7 -->
<svg xmlns="http://www.w3.org/2000/svg" xml:space="preserve" width="81px" height="62px" version="1.0" style="shape-rendering:geometricPrecision; text-rendering:geometricPrecision; image-rendering:optimizeQuality; fill-rule:evenodd; clip-rule:evenodd"
viewBox="0 0 2797590 2141908"
 xmlns:xlink="http://www.w3.org/1999/xlink">
 <defs>
  <style type="text/css">
   <![CDATA[
    .fil0 {fill:#343434}
   ]]>
  </style>
 </defs>
 <g id="Слой_x0020_1">
  <metadata id="CorelCorpID_0Corel-Layer"/>
  <g id="_68868407392">
   <g>
    <path class="fil0" d="M2622728 961681l-568230 0 0 -87452 262272 0c96393,0 174822,-78429 174822,-174821l0 -524546c0,-96433 -78429,-174862 -174822,-174862l-874270 0c-96392,0 -174862,78429 -174862,174862l0 524546c0,96392 78470,174821 174862,174821l262273 0 0 87452 -1529911 0c-96433,0 -174862,78428 -174862,174821l0 961680c0,24170 19556,43726 43726,43726 24129,0 43685,-19556 43685,-43726l0 -961680c0,-48176 39234,-87411 87451,-87411l2447866 0c48217,0 87452,39235 87452,87411l0 961680c0,24170 19556,43726 43684,43726 24170,0 43726,-19556 43726,-43726l0 -961680c0,-96393 -78429,-174821 -174862,-174821zm-1180228 -874270l874270 0c48176,0 87411,39234 87411,87451l0 437094 -1049091 0 0 -437094c0,-48217 39194,-87451 87410,-87451zm-87410 611997l1049091 0c0,48176 -39235,87410 -87411,87410l-874270 0c-48216,0 -87410,-39234 -87410,-87410zm437135 174821l174821 0 0 87452 -174821 0 0 -87452z"/>
    <path class="fil0" d="M1005365 1136502l-786818 0c-24129,0 -43685,19597 -43685,43726l0 917954c0,24170 19556,43726 43685,43726 24170,0 43726,-19556 43726,-43726l0 -87410 699408 0 0 87410c0,24170 19556,43726 43684,43726 24170,0 43726,-19556 43726,-43726l0 -917954c0,-24129 -19556,-43726 -43726,-43726zm-743092 349724l699408 0 0 174862 -699408 0 0 -174862zm699408 -262273l0 174863 -699408 0 0 -174863 699408 0zm-699408 699408l0 -174862 699408 0 0 174862 -699408 0z"/>
    <path class="fil0" d="M568271 1355090l87411 0c24129,0 43726,-19597 43726,-43726 0,-24129 -19597,-43685 -43726,-43685l-87411 0c-24169,0 -43725,19556 -43725,43685 0,24129 19556,43726 43725,43726z"/>
    <path class="fil0" d="M655682 1529952l-87411 0c-24169,0 -43725,19556 -43725,43685 0,24169 19556,43726 43725,43726l87411 0c24129,0 43726,-19557 43726,-43726 0,-24129 -19597,-43685 -43726,-43685z"/>
    <path class="fil0" d="M655682 1792225l-87411 0c-24169,0 -43725,19556 -43725,43685 0,24169 19556,43725 43725,43725l87411 0c24129,0 43726,-19556 43726,-43725 0,-24129 -19597,-43685 -43726,-43685z"/>
    <path class="fil0" d="M349683 917955l393410 0c24169,0 43725,-19556 43725,-43726 0,-24129 -19556,-43685 -43725,-43685l-393410 0c-24128,0 -43684,19556 -43684,43685 0,24170 19556,43726 43684,43726z"/>
    <path class="fil0" d="M349683 786818l393410 0c24169,0 43725,-19556 43725,-43725 0,-24129 -19556,-43685 -43725,-43685l-393410 0c-24128,0 -43684,19556 -43684,43685 0,24169 19556,43725 43684,43725z"/>
    <path class="fil0" d="M437135 655682l305958 0c24169,0 43725,-19556 43725,-43726 0,-24129 -19556,-43685 -43725,-43685l-305958 0c-24170,0 -43726,19556 -43726,43685 0,24170 19556,43726 43726,43726z"/>
    <path class="fil0" d="M1704773 568271c11187,0 22373,-4286 30906,-12819l349725 -349684c17065,-17065 17065,-44746 0,-61812 -17066,-17066 -44747,-17066 -61813,0l-349724 349684c-17066,17065 -17066,44746 0,61812 8533,8533 19720,12819 30906,12819z"/>
   </g>
   <g>
   </g>
   <g>
   </g>
   <g>
   </g>
   <g>
   </g>
   <g>
   </g>
   <g>
   </g>
   <g>
   </g>
   <g>
   </g>
   <g>
   </g>
   <g>
   </g>
   <g>
   </g>
   <g>
   </g>
   <g>
   </g>
   <g>
   </g>
   <g>
   </g>
  </g>
 </g>
</svg>
