<?xml version="1.0" encoding="UTF-8"?>
<!DOCTYPE svg PUBLIC "-//W3C//DTD SVG 1.1//EN" "http://www.w3.org/Graphics/SVG/1.1/DTD/svg11.dtd">
<!-- Creator: CorelDRAW X8 -->
<svg xmlns="http://www.w3.org/2000/svg" xml:space="preserve" width="22.6526mm" height="20.2162mm" version="1.1" style="shape-rendering:geometricPrecision; text-rendering:geometricPrecision; image-rendering:optimizeQuality; fill-rule:evenodd; clip-rule:evenodd"
viewBox="0 0 2106176 1879646"
 xmlns:xlink="http://www.w3.org/1999/xlink">
 <defs>
  <style type="text/css">
   <![CDATA[
    .str1 {stroke:#CCCCCC;stroke-width:7084.86}
    .str0 {stroke:#E6E6E6;stroke-width:7084.86}
    .fil9 {fill:#4D94DB}
    .fil1 {fill:#B3B3B3}
    .fil10 {fill:#BADAF4}
    .fil7 {fill:#DF9C00}
    .fil11 {fill:#F5CA56}
    .fil12 {fill:#FFDB71}
    .fil8 {fill:#FFFDF9}
    .fil5 {fill:#116BC4;fill-rule:nonzero}
    .fil6 {fill:#295D94;fill-rule:nonzero}
    .fil4 {fill:#4D94DB;fill-rule:nonzero}
    .fil13 {fill:#565E74;fill-rule:nonzero}
    .fil14 {fill:#AA5257;fill-rule:nonzero}
    .fil2 {fill:#B3B3B3;fill-rule:nonzero}
    .fil15 {fill:#D65E6B;fill-rule:nonzero}
    .fil0 {fill:#E6E6E6;fill-rule:nonzero}
    .fil3 {fill:white;fill-rule:nonzero}
   ]]>
  </style>
 </defs>
 <g id="Слой_x0020_1">
  <metadata id="CorelCorpID_0Corel-Layer"/>
  <g id="_735925248">
   <path class="fil0 str0" d="M926434 1833502l-24174 0 0 -131349 -22621 5718c-50970,11966 -103856,18326 -157829,18326 -43151,0 -86171,-4203 -128550,-12227 -43151,-8154 -84572,-20195 -123827,-35685 -136491,-46711 -253698,-135105 -336327,-249950 -81522,-113349 -129564,-252108 -129564,-401662 0,-190166 77106,-362406 201742,-487015 124609,-124636 296849,-201751 487024,-201751 43188,0 86228,4212 128634,12236 43560,8238 85112,20297 124172,35731 60937,21004 118285,50403 170436,86832 31538,22035 61105,46544 88366,73247l316364 -219138 0 -84879 367567 -235186 -12794 198190 222690 66079 -372485 238366 -72244 -14951 -321459 222681c18949,35935 34792,73666 47149,112837 12403,39311 21403,80118 26600,122042l54429 39292 266492 0 0 25374 40909 0 0 196535 105204 75953 0 586956 -945904 0 0 -42602zm151358 -258142l0 82601 24174 0 0 42611 594841 0 0 -322436 -105204 -75971 0 -109974 -40910 0 0 -25373 -146625 0 -5542 -3998 -186 139 -32802 -23681 -136556 98593c2204,-66655 5458,-133813 6434,-200459l-353 0c0,-54010 -8321,-105985 -23681,-154668 -16011,-50719 -39544,-97886 -69213,-140107l-9995 -14216 -9660 -12031c-30933,-38521 -67055,-72402 -107072,-100369 -39516,-27596 -83345,-49845 -130308,-65587l-4463 -1385c-30041,-11882 -60835,-20920 -91954,-26815 -30460,-5764 -62695,-8786 -96409,-8786 -141725,0 -270061,57451 -362908,150316 -92875,92847 -150326,221193 -150326,362909 0,112093 35583,215512 95981,299489 62285,86562 150883,153013 254032,187554l4128 1394c29818,11753 60705,20790 92261,26769 30441,5764 62658,8786 96334,8786 40929,0 80472,-4686 118063,-13519 38641,-9084 75878,-22742 111070,-40306l126849 -63364 0 141884z"/>
   <g>
    <polygon class="fil1" points="1792080,1346822 1406904,1624898 1021717,1346822 1406904,1068745 "/>
    <polygon class="fil1" points="1126940,1801508 1686867,1801508 1686867,1117596 1126940,1117596 "/>
    <g>
     <polygon class="fil1" points="1214301,1243366 1374278,1243366 1374278,1211112 1214301,1211112 "/>
     <polygon class="fil1" points="1212748,1305995 1601049,1305995 1601049,1273742 1212748,1273742 "/>
     <polygon class="fil1" points="1212748,1366077 1601049,1366077 1601049,1333823 1212748,1333823 "/>
     <polygon class="fil1" points="1212748,1426168 1601049,1426168 1601049,1393915 1212748,1393915 "/>
     <polygon class="fil1" points="1212748,1486250 1601049,1486250 1601049,1454006 1212748,1454006 "/>
     <polygon class="fil1" points="1212748,1546341 1601049,1546341 1601049,1514088 1212748,1514088 "/>
     <polygon class="fil1" points="1212748,1606433 1601049,1606433 1601049,1574179 1212748,1574179 "/>
    </g>
    <polygon class="fil1" points="1021717,1801508 1792080,1801508 1792080,1346822 1406894,1624898 1021717,1346822 "/>
    <polygon class="fil1" points="1021717,1801508 1792080,1801508 1477176,1574179 1336641,1574179 1336641,1574160 "/>
   </g>
   <g>
    <path class="fil2" d="M1330346 1050605c0,331920 -269076,601005 -601005,601005 -331928,0 -601005,-269085 -601005,-601005 0,-331928 269077,-601014 601005,-601014 331929,0 601005,269086 601005,601014z"/>
    <path class="fil2" d="M1234617 1050605c0,279053 -226214,505276 -505276,505276 -279062,0 -505284,-226223 -505284,-505276 0,-279061 226222,-505284 505284,-505284 279062,0 505276,226223 505276,505284z"/>
    <path class="fil2" d="M1135354 1050605c0,224234 -181780,406013 -406013,406013 -224233,0 -406013,-181779 -406013,-406013 0,-224242 181780,-406022 406013,-406022 224233,0 406013,181780 406013,406022z"/>
    <path class="fil2" d="M1056333 1050605c0,180590 -146402,326983 -326992,326983 -180589,0 -326991,-146393 -326991,-326983 0,-180598 146402,-326991 326991,-326991 180590,0 326992,146393 326992,326991z"/>
    <path class="fil2" d="M965559 1050605c0,130457 -105761,236218 -236218,236218 -130456,0 -236218,-105761 -236218,-236218 0,-130465 105762,-236217 236218,-236217 130457,0 236218,105752 236218,236217z"/>
    <path class="fil2" d="M884576 1050605c0,85735 -69500,155235 -155235,155235 -85734,0 -155235,-69500 -155235,-155235 0,-85743 69501,-155244 155235,-155244 85735,0 155235,69501 155235,155244z"/>
   </g>
   <g>
    <path class="fil3 str1" d="M1300844 1039876c0,331929 -269076,601005 -601004,601005 -331929,0 -601015,-269076 -601015,-601005 0,-331929 269086,-601005 601015,-601005 331928,0 601004,269076 601004,601005z"/>
    <path class="fil4" d="M1205115 1039876c0,279052 -226223,505275 -505275,505275 -279062,0 -505285,-226223 -505285,-505275 0,-279062 226223,-505285 505285,-505285 279052,0 505275,226223 505275,505285z"/>
    <path class="fil3" d="M1105853 1039876c0,224233 -181780,406013 -406013,406013 -224243,0 -406013,-181780 -406013,-406013 0,-224233 181770,-406013 406013,-406013 224233,0 406013,181780 406013,406013z"/>
    <path class="fil5" d="M1026822 1039876c0,180590 -146393,326992 -326982,326992 -180590,0 -326992,-146402 -326992,-326992 0,-180590 146402,-326992 326992,-326992 180589,0 326982,146402 326982,326992z"/>
    <path class="fil3" d="M936058 1039876c0,130456 -105762,236218 -236218,236218 -130466,0 -236218,-105762 -236218,-236218 0,-130466 105752,-236218 236218,-236218 130456,0 236218,105752 236218,236218z"/>
    <path class="fil6" d="M855074 1039876c0,85734 -69500,155235 -155234,155235 -85735,0 -155244,-69501 -155244,-155235 0,-85734 69509,-155244 155244,-155244 85734,0 155234,69510 155234,155244z"/>
   </g>
   <g>
    <polygon class="fil7" points="1748558,1315674 1373060,1586759 997571,1315674 1373060,1044599 "/>
    <polygon class="fil8" points="1100134,1758925 1645985,1758925 1645985,1092222 1100134,1092222 "/>
    <g>
     <polygon class="fil9" points="1185311,1214822 1341262,1214822 1341262,1183386 1185311,1183386 "/>
     <polygon class="fil9" points="1183786,1275880 1562324,1275880 1562324,1244435 1183786,1244435 "/>
     <polygon class="fil9" points="1183786,1334446 1562324,1334446 1562324,1303011 1183786,1303011 "/>
     <polygon class="fil9" points="1183786,1393031 1562324,1393031 1562324,1361586 1183786,1361586 "/>
     <polygon class="fil9" points="1183786,1451598 1562324,1451598 1562324,1420162 1183786,1420162 "/>
     <polygon class="fil9" points="1183786,1510183 1562324,1510183 1562324,1478738 1183786,1478738 "/>
     <polygon class="fil10" points="1183786,1568749 1562324,1568749 1562324,1537313 1183786,1537313 "/>
    </g>
    <polygon class="fil11" points="997571,1758925 1748558,1758925 1748558,1315674 1373051,1586759 997571,1315674 "/>
    <polygon class="fil12" points="997571,1758925 1748558,1758925 1441565,1537313 1304573,1537313 1304573,1537295 "/>
   </g>
   <g>
    <g>
     <polygon class="fil13" points="786643,1006516 764793,974978 1725471,309540 1747321,341087 "/>
     <polygon class="fil14" points="1615582,408998 1615582,302734 1796831,186745 1790676,282177 "/>
     <polygon class="fil15" points="1790676,282177 1897033,313733 1715783,429722 1615582,408998 "/>
    </g>
    <g>
     <polygon class="fil14" points="923069,997553 666544,1066830 831179,951492 "/>
     <polygon class="fil14" points="819278,849393 666544,1066830 831179,951492 "/>
    </g>
   </g>
  </g>
 </g>
</svg>
