<?xml version="1.0" encoding="UTF-8"?>
<!DOCTYPE svg PUBLIC "-//W3C//DTD SVG 1.0//EN" "http://www.w3.org/TR/2001/REC-SVG-20010904/DTD/svg10.dtd">
<!-- Creator: CorelDRAW X7 -->
<svg xmlns="http://www.w3.org/2000/svg" xml:space="preserve" width="52px" height="67px" version="1.0" style="shape-rendering:geometricPrecision; text-rendering:geometricPrecision; image-rendering:optimizeQuality; fill-rule:evenodd; clip-rule:evenodd"
viewBox="0 0 294010 381988"
 xmlns:xlink="http://www.w3.org/1999/xlink">
 <defs>
  <style type="text/css">
   <![CDATA[
    .fil1 {fill:#343434}
    .fil2 {fill:#343434;fill-rule:nonzero}
    .fil0 {fill:#70A399;fill-opacity:0.501961}
   ]]>
  </style>
 </defs>
 <g id="Слой_x0020_1">
  <metadata id="CorelCorpID_0Corel-Layer"/>
  <path class="fil0" d="M116199 257903c16115,-13784 25680,-43132 49917,-63157 24237,-20032 63131,-30746 84042,-5354 20918,25392 23847,86890 25090,123863 1243,36973 799,49421 -18957,56938 -19756,7510 -58825,10096 -112027,6865 -53202,-3238 -120531,-12286 -137802,-31411 -17270,-19118 15511,-48312 43234,-62016 27723,-13710 50387,-11937 66503,-25728z"/>
  <g id="_70746387648">
   <path class="fil1" d="M51617 33722c-1713,0 -3278,692 -4400,1807 -1108,1121 -1807,2673 -1807,4386 0,1706 705,3265 1820,4380 1109,1122 2674,1820 4387,1820 1706,0 3265,-698 4380,-1813 1115,-1122 1813,-2674 1813,-4387 0,-1713 -698,-3265 -1813,-4380 -1115,-1115 -2674,-1813 -4380,-1813zm43408 295796l17351 0c350,0 706,-33 1035,-94 -2042,-3681 -3836,-7517 -5381,-11473l-13005 0c-1599,0 -3056,651 -4097,1693 -1042,1027 -1693,2485 -1693,4091 0,1598 651,3049 1693,4091 1041,1041 2498,1692 4097,1692zm31895 -295387l-46438 0c-1606,0 -3063,652 -4091,1687 -1041,1047 -1693,2498 -1693,4097 0,1606 652,3063 1686,4091 1035,1041 2492,1693 4098,1693l46438 0c1598,0 3056,-652 4097,-1693 1042,-1041 1693,-2492 1693,-4091 0,-1599 -651,-3050 -1693,-4091 -1041,-1041 -2499,-1693 -4097,-1693zm50112 -34131l-146662 0c-8377,0 -15974,3406 -21469,8901 -5489,5488 -8901,13085 -8901,21462l0 302924c0,8377 3412,15974 8901,21462 5495,5495 13092,8901 21469,8901l115466 0c-5347,-3359 -10338,-7235 -14886,-11561l-100580 0c-5180,0 -9888,-2116 -13287,-5515 -3400,-3399 -5516,-8115 -5516,-13287l0 -37914 90780 0c-463,-3788 -705,-7651 -705,-11560l-90075 0 0 -203976 184267 0 0 109783c3916,0 7779,249 11574,713l0 -159970c0,-8377 -3412,-15981 -8900,-21462 -5495,-5489 -13099,-8901 -21476,-8901zm16243 68276l-181708 0 0 -37913c0,-5179 2116,-9888 5516,-13287 3399,-3399 8107,-5515 13287,-5515l146662 0c5179,0 9888,2116 13287,5515 3399,3399 5515,8108 5515,13287l0 37913 -2559 0z"/>
   <path class="fil2" d="M233385 193053c-11541,-4776 -24230,-7416 -37551,-7416 -13321,0 -26010,2640 -37544,7416 -11984,4958 -22799,12266 -31874,21341 -9075,9076 -16384,19891 -21341,31855 -4777,11554 -7417,24243 -7417,37564 0,13320 2640,26010 7417,37544 4957,11990 12266,22799 21341,31874 9082,9082 19890,16384 31854,21341 11554,4776 24243,7416 37564,7416 13321,0 26010,-2640 37544,-7416 11984,-4957 22799,-12266 31874,-21341 9076,-9075 16384,-19890 21342,-31854 4776,-11554 7416,-24244 7416,-37564 0,-13321 -2640,-26010 -7416,-37544 -4958,-11984 -12260,-22793 -21342,-31875 -9075,-9075 -19883,-16383 -31867,-21341zm-4353 10547c10660,4420 20233,10875 28186,18829 7960,7960 14409,17532 18823,28186 4258,10251 6603,21482 6603,33198 0,11715 -2345,22947 -6597,33197 -4420,10661 -10875,20233 -18829,28187 -7953,7953 -17526,14409 -28186,18822 -10251,4259 -21483,6603 -33198,6603 -11715,0 -22947,-2344 -33198,-6596 -10653,-4420 -20226,-10869 -28186,-18829 -7953,-7954 -14409,-17526 -18822,-28187 -4259,-10250 -6604,-21482 -6604,-33197 0,-11716 2345,-22947 6597,-33198 4420,-10654 10876,-20233 18829,-28186 7953,-7954 17533,-14409 28186,-18823 10251,-4259 21483,-6603 33198,-6603 11715,0 22947,2344 33198,6597z"/>
   <path class="fil2" d="M237059 254303c-1424,161 -2814,880 -3788,2102 -8653,10863 -30249,41877 -39291,48883 -638,511 -1310,927 -1921,1216 -1075,484 -2096,733 -3077,733 -940,0 -1867,-209 -2761,-585l-114 -67c-638,-282 -1249,-665 -1793,-1095 -6201,-4837 -16445,-20206 -21852,-26998 -974,-1222 -2358,-1941 -3789,-2102 -1444,-161 -2976,222 -4192,1189 -1222,974 -1941,2364 -2102,3789 -161,1451 222,2975 1189,4191l20152 25298 1686 1868 1794 1632c1760,1397 3681,2459 5656,3144 2015,705 4138,1054 6234,1034 2109,-20 4225,-403 6267,-1148 2015,-719 3937,-1794 5710,-3211l1915 -1733 1726 -1942 37456 -47029c968,-1216 1351,-2740 1189,-4191 -161,-1425 -880,-2815 -2102,-3789 -1216,-967 -2741,-1350 -4192,-1189z"/>
  </g>
 </g>
</svg>
