<?xml version="1.0" encoding="UTF-8"?>
<!DOCTYPE svg PUBLIC "-//W3C//DTD SVG 1.0//EN" "http://www.w3.org/TR/2001/REC-SVG-20010904/DTD/svg10.dtd">
<!-- Creator: CorelDRAW X7 -->
<svg xmlns="http://www.w3.org/2000/svg" xml:space="preserve" width="67px" height="67px" version="1.0" style="shape-rendering:geometricPrecision; text-rendering:geometricPrecision; image-rendering:optimizeQuality; fill-rule:evenodd; clip-rule:evenodd"
viewBox="0 0 1248667 1248667"
 xmlns:xlink="http://www.w3.org/1999/xlink">
 <defs>
  <style type="text/css">
   <![CDATA[
    .fil1 {fill:#343434}
    .fil0 {fill:#FF9966;fill-opacity:0.501961}
   ]]>
  </style>
 </defs>
 <g id="Слой_x0020_1">
  <metadata id="CorelCorpID_0Corel-Layer"/>
  <path class="fil0" d="M614450 435556c70835,47899 124677,143828 215434,207642 90756,63813 218449,95533 304341,53314 85892,-42198 129982,-158335 91197,-293622 -38808,-135287 -160491,-289747 -357215,-345372 -196723,-55625 -468465,-12415 -564350,59103 -95885,71540 -15893,171431 67996,221289 83911,49880 171739,49748 242597,97646z"/>
  <path class="fil1" d="M1065811 182856c-117920,-117920 -274713,-182856 -441478,-182856 -166764,0 -323558,64936 -441477,182856 -117920,117919 -182856,274713 -182856,441477 0,166765 64936,323558 182856,441478 117919,117920 274713,182856 441477,182856 166765,0 323558,-64936 441478,-182856 117920,-117920 182856,-274713 182856,-441478 0,-166764 -64936,-323558 -182856,-441477zm-156177 617641c-10434,2686 -16707,13318 -14022,23752 1255,4776 1871,9707 1871,14704 0,32270 -26260,58530 -58530,58530 -32292,0 -58553,-26260 -58553,-58530 0,-32292 26261,-58553 58553,-58553 4953,0 9883,639 14660,1849 10412,2686 21066,-3588 23751,-14000 2664,-10455 -3610,-21087 -14022,-23773 -7946,-2047 -16157,-3081 -24389,-3081 -53798,0 -97558,43760 -97558,97558 0,53776 43760,97558 97558,97558 53776,0 97558,-43782 97558,-97558 0,-8277 -1056,-16509 -3104,-24478 -2685,-10412 -13339,-16685 -23773,-13978zm-499920 -293225c53798,0 97558,-43760 97558,-97558 0,-8277 -1034,-16509 -3103,-24456 -2686,-10433 -13340,-16729 -23774,-14021 -10434,2707 -16685,13339 -13999,23795 1232,4754 1871,9707 1871,14682 0,32292 -26261,58553 -58553,58553 -32270,0 -58531,-26261 -58531,-58553 0,-32270 26261,-58531 58531,-58531 4975,0 9905,617 14660,1849 10434,2686 21066,-3588 23751,-14043 2686,-10412 -3588,-21066 -14043,-23752 -7925,-2025 -16113,-3081 -24368,-3081 -53776,0 -97558,43782 -97558,97558 0,53798 43782,97558 97558,97558zm429239 156089c-96832,0 -175592,78760 -175592,175592 0,96810 78760,175592 175592,175592 96810,0 175592,-78782 175592,-175592 0,-96832 -78782,-175592 -175592,-175592zm0 312156c-75304,0 -136586,-61260 -136586,-136564 0,-75304 61282,-136586 136586,-136586 75304,0 136564,61282 136564,136586 0,75304 -61260,136564 -136564,136564zm-429239 -390211c96832,0 175592,-78760 175592,-175592 0,-96810 -78760,-175592 -175592,-175592 -96810,0 -175592,78782 -175592,175592 0,96832 78782,175592 175592,175592zm0 -312156c75304,0 136586,61260 136586,136564 0,75304 -61282,136586 -136586,136586 -75304,0 -136564,-61282 -136564,-136586 0,-75304 61260,-136564 136564,-136564zm548677 17148c-11050,-11073 -25754,-17148 -41405,-17148 -15650,0 -30333,6075 -41383,17126l-30927 30971c-7638,7616 -7638,19943 0,27581 7616,7616 19965,7616 27581,0l30950 -30949c3676,-3698 8584,-5723 13779,-5723 5217,0 10104,2025 13802,5723 7594,7616 7594,19987 0,27581l-585328 585328c-3676,3698 -8585,5723 -13779,5723 -5217,0 -10104,-2025 -13802,-5723 -7594,-7616 -7594,-19987 0,-27581l499194 -499216c7616,-7616 7616,-19965 0,-27582 -7617,-7616 -19965,-7616 -27582,0l-499193 499194c-22827,22805 -22827,59940 -22,82766 11050,11072 25754,17148 41405,17148 15650,0 30332,-6076 41383,-17126l585305 -585327c22827,-22805 22827,-59940 22,-82766zm79839 747932c-110568,110523 -257566,171409 -413897,171409 -156331,0 -303328,-60886 -413896,-171409 -110523,-110568 -171409,-257566 -171409,-413897 0,-156331 60886,-303328 171409,-413896 110568,-110523 257565,-171409 413896,-171409 156331,0 303329,60886 413897,171409 110523,110568 171409,257565 171409,413896 0,156331 -60886,303329 -171409,413897z"/>
 </g>
</svg>
