<?xml version="1.0" encoding="UTF-8"?>
<!DOCTYPE svg PUBLIC "-//W3C//DTD SVG 1.0//EN" "http://www.w3.org/TR/2001/REC-SVG-20010904/DTD/svg10.dtd">
<!-- Creator: CorelDRAW X7 -->
<svg xmlns="http://www.w3.org/2000/svg" xml:space="preserve" width="118px" height="67px" version="1.0" style="shape-rendering:geometricPrecision; text-rendering:geometricPrecision; image-rendering:optimizeQuality; fill-rule:evenodd; clip-rule:evenodd"
viewBox="0 0 8863552 5024610"
 xmlns:xlink="http://www.w3.org/1999/xlink">
 <defs>
  <style type="text/css">
   <![CDATA[
    .fil1 {fill:#343434}
    .fil0 {fill:#B3B3B3;fill-opacity:0.501961}
   ]]>
  </style>
 </defs>
 <g id="Слой_x0020_1">
  <metadata id="CorelCorpID_0Corel-Layer"/>
  <path class="fil0" d="M6149339 2415005c-174847,184680 -663960,339952 -914008,616130 -250137,276266 -261474,673526 299650,819941 561125,146593 1694623,42339 2373641,-25332 679018,-67672 903556,-98673 947047,-304876 43490,-206204 -94067,-587609 -404346,-1092399 -310280,-504702 -793281,-1132878 -1222959,-1257858 -429768,-124980 -806390,253237 -924904,549344 -118602,296196 20727,510371 -154121,695050z"/>
  <g id="_70746407488">
   <path class="fil1" d="M2881354 3476934c-119576,0 -228081,48451 -306293,126752 -78478,78832 -127106,187336 -127106,306736 0,119488 48628,227904 127106,306382 78212,78655 186717,127194 306293,127194 119665,0 228170,-48539 306294,-126840 78477,-78832 127194,-187248 127194,-306736 0,-119400 -48717,-227904 -127194,-306382 -78124,-78655 -186629,-127106 -306294,-127106zm988412 -1188149l1855918 0c21435,0 40744,-8591 54296,-22143 13995,-13995 22587,-33305 22587,-54651 0,-21347 -8680,-40656 -22587,-54563 -13817,-13817 -33215,-22498 -54296,-22498l-1696837 0c-48451,55714 -101684,107265 -159081,153855zm465374 -903733l1390544 0c21435,0 40744,-8592 54296,-22233 13907,-14172 22587,-33570 22587,-54739 0,-21170 -8680,-40568 -22587,-54385 -13552,-13995 -32861,-22587 -54296,-22587l-1390455 0c1506,25332 2303,50931 2303,76706 0,25953 -886,51728 -2392,77238zm-305850 -903822l1696394 0c21081,0 40479,-8681 54296,-22499 13907,-13906 22587,-33215 22587,-54473 0,-21258 -8680,-40568 -22587,-54474 -13817,-13818 -33215,-22498 -54296,-22498l-1855387 0c57397,46590 110542,98141 158993,153944zm4681470 1709148l-851297 -1166979c-7264,-9743 -16741,-17804 -27193,-23118 -10363,-5226 -22587,-8149 -35342,-8149l-724634 0 -12578 -60409c-19043,-92118 -69886,-172721 -140126,-229941 -68734,-55891 -156955,-89550 -252882,-89550 -21258,0 -40568,8681 -54386,22587 -13906,13818 -22586,33216 -22586,54385 0,21170 8680,40568 22586,54386 13818,13906 33128,22586 54386,22586 68203,0 130117,27813 174759,72455 44553,44996 72366,106910 72366,174759l0 1781160 -73429 2480c-270952,9035 -518077,115857 -706742,285922 -190526,171658 -321794,408243 -358465,674323l-9034 65369 -1772215 0 -9034 -65369c-37645,-272723 -174671,-514534 -373079,-687255 -195486,-170331 -451203,-273610 -730481,-273610 -307090,0 -585748,124980 -787434,326666 -201686,201686 -326666,480255 -326666,787346 0,307090 124980,585748 326666,787523 201686,201686 480344,326665 787434,326665 283175,0 541992,-106113 738452,-280429 198852,-176353 334461,-423124 367588,-700630l8060 -66963 1769380 0 7883 66963c33127,277417 168825,524277 367588,700630 196548,174405 455188,280429 738452,280429 283087,0 541992,-106113 738452,-280429 198763,-176353 334372,-423124 367499,-700630l8060 -66963 331449 0c110453,0 210898,-44908 283441,-117274 72632,-72898 117539,-173253 117539,-283795l0 -1339702c0,-8591 -1328,-16917 -3631,-24181 -2303,-7351 -6112,-14703 -10806,-21258zm-363070 -31444l-1279825 0 0 -1012947 689559 0 738895 1012947 -148629 0zm-5466336 2711644c-264574,0 -504790,-107619 -678664,-281492 -173696,-174139 -281581,-414090 -281581,-678664 0,-264397 107797,-504525 281758,-678487 173697,-173962 413913,-281669 678487,-281669 264840,0 504791,107707 678664,281492 173785,174139 281492,414267 281492,678664 0,264486 -107796,504525 -281492,678309 -174139,174051 -414178,281847 -678664,281847zm3997403 0c-264574,0 -504879,-107619 -678752,-281492 -173785,-174139 -281493,-414178 -281493,-678664l620 -11781c3278,-262360 112137,-499653 285656,-671046 173430,-171393 411609,-277329 673969,-277329 264751,0 504791,107707 678664,281492 173785,174139 281492,414267 281492,678664 0,264486 -107796,504525 -281492,678309 -174139,174051 -414267,281847 -678664,281847zm1445372 -1047934l-332866 0 -9124 -65369c-31532,-229056 -133217,-436145 -282378,-598857 -150046,-164042 -348898,-282910 -572993,-334106l-58903 -13464 0 -497970 1503389 0 0 1262641c0,67848 -27813,129762 -72366,174404 -45085,44908 -106999,72721 -174759,72721zm-1445372 -345710c-119488,0 -227904,48628 -306382,127106 -78478,78478 -127194,186982 -127194,306382 0,119488 48716,227904 127194,306382 78478,78477 186894,127194 306382,127194 119665,0 228081,-48539 306293,-126840 78478,-78832 127194,-187248 127194,-306736 0,-119400 -48716,-227904 -127194,-306382 -78212,-78655 -186628,-127106 -306293,-127106zm0 713031c-76706,0 -146592,-31267 -197346,-81932 -50931,-51108 -82286,-120905 -82286,-197611 0,-77149 31444,-147124 81932,-197612 50488,-50488 120639,-81932 197700,-81932 76795,0 146681,31444 197434,82198 50577,50222 82021,120197 82021,197346 0,76706 -31356,146503 -81932,197257 -51108,51019 -120905,82286 -197523,82286zm-3997403 0c-76706,0 -146415,-31267 -197168,-81932 -51020,-51108 -82375,-120905 -82375,-197611 0,-76795 31444,-146681 81932,-197257 51019,-50843 120905,-82287 197611,-82287 76706,0 146504,31356 197257,82021 51020,51019 82287,120728 82287,197523 0,76883 -31444,147123 -81932,197611 -50488,50488 -120728,81932 -197612,81932z"/>
   <g>
    <g>
     <path class="fil1" d="M3075068 145352c640931,0 1162462,521531 1162462,1162462 0,640931 -521531,1162462 -1162462,1162462 -641019,0 -1162550,-521442 -1162550,-1162462 0,-641019 521531,-1162462 1162550,-1162462l0 0zm0 -145352c-722331,0 -1307814,585571 -1307814,1307814 0,722243 585483,1307814 1307814,1307814 722155,0 1307726,-585571 1307726,-1307814 0,-722243 -585571,-1307814 -1307726,-1307814l0 0z"/>
    </g>
    <path class="fil1" d="M3510947 1380446l-508599 0 0 -799215c0,-40125 32596,-72632 72720,-72632 40125,0 72632,32507 72632,72632l0 653951 363247 0c40125,0 72632,32419 72632,72632 0,40125 -32507,72632 -72632,72632z"/>
   </g>
   <path class="fil1" d="M1338993 481230l781765 0c48451,-55803 101596,-107354 159081,-153944l-940846 0c-21170,0 -40479,8680 -54297,22498 -13906,13906 -22587,33216 -22587,54474 0,21258 8681,40567 22587,54473 13552,13907 32861,22499 54297,22499z"/>
   <path class="fil1" d="M708071 1385052l1106837 0c-1506,-25510 -2392,-51285 -2392,-77238 0,-25775 797,-51374 2303,-76706l-1106748 0c-21347,0 -40656,8680 -54563,22587 -13817,13817 -22498,33215 -22498,54385 0,21169 8681,40567 22498,54385 13907,13906 33216,22587 54563,22587z"/>
   <path class="fil1" d="M76883 2288785l2203488 0c-57486,-46590 -110719,-98141 -159170,-153855l-2044318 0c-21169,0 -40479,8681 -54385,22498 -13906,13729 -22498,33127 -22498,54563 0,21081 8680,40390 22498,54296 13906,13818 33216,22498 54385,22498z"/>
  </g>
 </g>
</svg>
