<?xml version="1.0" encoding="UTF-8"?>
<!DOCTYPE svg PUBLIC "-//W3C//DTD SVG 1.0//EN" "http://www.w3.org/TR/2001/REC-SVG-20010904/DTD/svg10.dtd">
<!-- Creator: CorelDRAW X7 -->
<svg xmlns="http://www.w3.org/2000/svg" xml:space="preserve" width="78px" height="66px" version="1.0" style="shape-rendering:geometricPrecision; text-rendering:geometricPrecision; image-rendering:optimizeQuality; fill-rule:evenodd; clip-rule:evenodd"
viewBox="0 0 761406 643935"
 xmlns:xlink="http://www.w3.org/1999/xlink">
 <defs>
  <style type="text/css">
   <![CDATA[
    .fil1 {fill:#343434}
    .fil0 {fill:#70A399;fill-opacity:0.501961}
   ]]>
  </style>
 </defs>
 <g id="Слой_x0020_1">
  <metadata id="CorelCorpID_0Corel-Layer"/>
  <path class="fil0" d="M418880 330495c-37613,54276 -92845,75352 -170341,112608 -77495,37267 -177254,90736 -165155,24649 12100,-66088 136047,-251709 205511,-354257 69464,-102548 84433,-122011 109946,-110199 25501,11811 61547,54909 69590,120190 8032,65281 -11949,152745 -49551,207009z"/>
  <path class="fil1" d="M751403 542804l-314212 -511218c-6073,-9910 -14404,-17815 -24072,-23220 -9703,-5416 -20800,-8366 -32405,-8366 -11627,0 -22736,2950 -32392,8343 -9703,5439 -18046,13344 -24108,23231l-314212 511230c-6395,10395 -9737,21907 -9979,33384 -230,11512 2616,23139 8562,33787 5923,10625 14312,19141 24246,24971 9910,5808 21445,8989 33648,8989l628447 0c12215,0 23727,-3181 33649,-9000 9922,-5819 18311,-14324 24246,-24960 5946,-10648 8792,-22275 8562,-33787 -242,-11489 -3584,-22989 -9980,-33384zm-17423 56604c-4011,7179 -9680,12918 -16387,16847 -6707,3941 -14473,6096 -22667,6096l-628447 0c-8181,0 -15948,-2155 -22678,-6096 -6695,-3929 -12376,-9691 -16375,-16847 -3987,-7145 -5900,-14992 -5739,-22748 150,-7801 2397,-15556 6684,-22528l314224 -511241c4079,-6650 9714,-11996 16271,-15649 6557,-3665 14047,-5670 21848,-5670 7802,0 15304,2005 21860,5681 6546,3676 12169,9023 16237,15649l314235 511218c4264,6972 6511,14739 6672,22529 162,7767 -1751,15614 -5738,22759zm-351445 -479644c-2985,0 -5704,1222 -7640,3157 -1936,1936 -3157,4644 -3157,7629l0 266355c0,2984 1221,5693 3157,7628 1936,1936 4655,3158 7640,3158 2985,0 5693,-1222 7629,-3158 1936,-1935 3157,-4655 3157,-7628l0 -266355c23,-2950 -1210,-5670 -3169,-7629 -1936,-1935 -4644,-3157 -7617,-3157zm0 344692c-2985,0 -5704,1221 -7640,3157 -1936,1936 -3157,4644 -3157,7629l0 62665c0,2984 1221,5692 3157,7628 1936,1936 4655,3158 7640,3158 2985,0 5693,-1222 7629,-3158 1936,-1936 3157,-4655 3157,-7628l0 -62665c23,-2950 -1210,-5670 -3169,-7629 -1936,-1936 -4644,-3157 -7617,-3157z"/>
 </g>
</svg>
