<?xml version="1.0" encoding="UTF-8"?>
<!DOCTYPE svg PUBLIC "-//W3C//DTD SVG 1.1//EN" "http://www.w3.org/Graphics/SVG/1.1/DTD/svg11.dtd">
<!-- Creator: CorelDRAW X8 -->
<svg xmlns="http://www.w3.org/2000/svg" xml:space="preserve" width="14.5271mm" height="21.575mm" version="1.1" style="shape-rendering:geometricPrecision; text-rendering:geometricPrecision; image-rendering:optimizeQuality; fill-rule:evenodd; clip-rule:evenodd"
viewBox="0 0 426656 633650"
 xmlns:xlink="http://www.w3.org/1999/xlink">
 <defs>
  <style type="text/css">
   <![CDATA[
    .str0 {stroke:#B281D6;stroke-width:2237.97}
    .fil6 {fill:none;fill-rule:nonzero}
    .fil17 {fill:#999999}
    .fil19 {fill:#B281D6}
    .fil20 {fill:#C19ADE}
    .fil18 {fill:#CCCCCC}
    .fil21 {fill:white}
    .fil4 {fill:#003E62;fill-rule:nonzero}
    .fil1 {fill:#4D4D4D;fill-rule:nonzero}
    .fil9 {fill:#4D94DB;fill-rule:nonzero}
    .fil2 {fill:#999999;fill-rule:nonzero}
    .fil11 {fill:#B281D6;fill-rule:nonzero}
    .fil7 {fill:#B3B3B3;fill-rule:nonzero}
    .fil13 {fill:#DBDADA;fill-rule:nonzero}
    .fil5 {fill:#E6E6E6;fill-rule:nonzero}
    .fil10 {fill:#EBEBEB;fill-rule:nonzero}
    .fil12 {fill:#F1F566;fill-rule:nonzero}
    .fil3 {fill:#F9BD9C;fill-rule:nonzero}
    .fil8 {fill:#FFC8A5;fill-rule:nonzero}
    .fil16 {fill:#FFD0D4;fill-rule:nonzero}
    .fil14 {fill:#FFF0F2;fill-rule:nonzero}
    .fil0 {fill:white;fill-rule:nonzero}
    .fil15 {fill:#FFF0F2;fill-rule:nonzero;fill-opacity:0.600000}
   ]]>
  </style>
    <clipPath id="id0" style="clip-rule:nonzero">
     <path d="M143368 413234c0,2552 -244,5219 2247,5219l157362 0c2491,0 6162,-2667 6162,-5219l0 -263370c0,-2555 -3671,-4103 -6162,-4103l-157362 0c-2491,0 -2247,1548 -2247,4103l0 263370z"/>
    </clipPath>
     <clipPath id="id1" style="clip-rule:nonzero">
      <rect x="274421" y="487459" width="95111" height="92755"/>
     </clipPath>
     <clipPath id="id2" style="clip-rule:nonzero">
      <path d="M274421 580215l95108 0 0 -92753 -95108 0 0 92753z"/>
     </clipPath>
     <clipPath id="id3" style="clip-rule:nonzero">
      <rect x="274421" y="487459" width="95111" height="92755"/>
     </clipPath>
 </defs>
 <g id="Слой_x0020_1">
  <metadata id="CorelCorpID_0Corel-Layer"/>
  <g id="_789617448">
   <path class="fil0" d="M205599 516671c5005,7063 10329,13157 15804,18414 1800,2599 4549,6650 7642,11452l267 2710 7666 54945c2296,16418 16253,29185 33337,29455 247,3 60220,338 101692,-10520 3178,511 6476,569 9828,135 18702,-2438 31892,-19587 29454,-38289 -8,-77 -3659,-25382 -8443,-44266l0 -43315c0,-5906 -1495,-11466 -4130,-16315 1704,-5418 3122,-11060 4159,-16911 2746,-15407 -10500,-6552 4878,-8904l-3997 -85199c-872,-18500 -8908,-30609 -16406,-37555 -1750,-2449 -3750,-4816 -5944,-7098 -2749,-6165 -6297,-13816 -10415,-21972 -4361,-8658 -9386,-17924 -14837,-26770l0 -142587c0,-14928 -7351,-25296 -17710,-32027 -7569,-4937 -17211,-7114 -24042,-7114l-181642 0c-11789,0 -21279,4059 -29106,13181l65 62 -65 73c-6326,7425 -9281,15804 -9281,25825l0 333163c0,9240 2556,17411 7945,24562l85 -67 47 67c7554,9942 17534,14993 30310,14993l66410 0c2074,3475 4218,6764 6429,9872z"/>
   <path class="fil1" d="M291684 469576l-290 -243c-3213,-2773 -6447,-6286 -9578,-10697 -3333,-4690 -6558,-10505 -9524,-17633 -5463,-13152 -18186,-21091 -31593,-21102l-46539 -50c1468,-3310 2417,-6896 2763,-10667 185,-1448 282,-2926 282,-4424l0 -259680 110929 0 0 123150c0,7883 2667,15149 7146,20938 5510,8302 10726,17815 15190,26661 4937,9780 8931,18738 11425,24556 2247,5278 5668,9701 9827,13093l790 752c2576,4141 4755,13965 5974,27443 1389,15205 801,33417 -2558,52310 -973,5487 -2426,10297 -4144,14474 -1763,4279 -3989,8332 -6388,12056 -10010,15595 -5754,36263 9427,46671l0 19490c0,3750 608,7357 1721,10737 2247,8203 4200,18189 5551,25869 -7140,2003 -24112,-1882 -39569,-6361l-2042 -14618c1216,-2652 2112,-5506 2629,-8523 1498,-8805 -502,-17389 -5002,-24338 -5069,-8920 -10585,-17537 -14875,-23995 -2136,-6083 -5998,-11628 -11502,-15828l-50 -41z"/>
   <path class="fil2" d="M236144 514327c-11052,-8961 -21860,-22444 -30286,-42671l-87413 0c-2864,0 -4115,-1807 -4115,-5284l0 -333163c0,-3472 1251,-4867 4115,-4867l181642 0c2867,0 7481,1395 7481,4867l0 152555c13701,20103 25548,46172 30946,58765 2849,2461 5146,4788 6676,6923 11581,16215 17739,60390 9633,105954 -2793,15712 -8811,28761 -15483,39117l14916 0 0 47684c4961,17387 8847,44313 8847,44313 -3645,11405 -106568,10115 -106568,10115l-7666 -54941c1287,834 3225,1445 5669,1862 -9657,-17302 -21675,-34037 -21675,-34037 1069,1022 2167,1959 3281,2808zm164346 -93642c4291,-1701 9090,-4432 10744,-9011 35,-97 176,-41 146,50 -1527,4529 -6390,7889 -10799,9246 -161,44 -241,-224 -91,-285zm-272394 -263834l0 359 0 126 0 1049 0 540 0 7671 0 249152 0 6546 -6 1287c-47,-911 -27,-1854 -27,-2702l0 0 0 -262415c0,-861 -20,-1351 33,-1613z"/>
   <path class="fil3" d="M305544 522254c0,0 -78338,12414 -96867,-105875 0,0 10726,-62369 27945,-83213 17220,-20846 131335,-6473 119755,89131 -11580,95607 -14183,82911 -50833,99957z"/>
   <path class="fil3" d="M248132 502459c0,0 24160,33634 31496,54827 7334,21190 74164,13856 83945,4890 9780,-8967 -6550,-57479 -16315,-69897 -9766,-12420 -65583,42251 -99126,10180z"/>
   <path class="fil3" d="M356891 342934c0,0 -36183,-91577 -65474,-93172l39911 103170 25563 -9998z"/>
   <g>
    <path class="fil4" d="M129602 124148c0,-3471 1249,-4869 4115,-4869l181639 0c2870,0 7484,1398 7484,4869l0 333164c0,3474 -4614,5283 -7484,5283l-181639 0c-2866,0 -4115,-1809 -4115,-5283l0 -333164zm13734 287664l0 0c0,2790 -203,6641 2270,6641l156378 0c2470,0 7123,-3851 7123,-6641l0 -262409c0,-2790 -4653,-1680 -7123,-1680l-156378 0c-2473,0 -2270,-1110 -2270,1680l0 262409z"/>
   </g>
   <g>
    <path class="fil2" d="M217133 132522c0,1509 663,4414 1483,4414l25948 0c819,0 1480,-2905 1480,-4414 0,-1513 -661,-4415 -1480,-4415l-25948 0c-820,0 -1483,2902 -1483,4415z"/>
    <path class="fil2" d="M206753 132522c0,1509 664,4414 1481,4414l4449 0c822,0 1483,-2905 1483,-4414 0,-1513 -661,-4415 -1483,-4415l-4449 0c-817,0 -1481,2902 -1481,4415z"/>
   </g>
   <path class="fil0" d="M143368 413234c0,2552 -244,5219 2247,5219l157362 0c2491,0 6162,-2667 6162,-5219l0 -263370c0,-2555 -3671,-4103 -6162,-4103l-157362 0c-2491,0 -2247,1548 -2247,4103l0 263370z"/>
   <g style="clip-path:url(#id0)">
    <g>
     <path id="1" class="fil5" d="M143362 413234c0,2552 -120,5219 1122,5219l78655 0c1242,0 3078,-2667 3078,-5219l0 -263370c0,-2555 -1836,-4103 -3078,-4103l-78655 0c-1242,0 -1122,1548 -1122,4103l0 263370z"/>
    </g>
   </g>
   <path class="fil6" d="M143368 413234c0,2552 -244,5219 2247,5219l157362 0c2491,0 6162,-2667 6162,-5219l0 -263370c0,-2555 -3671,-4103 -6162,-4103l-157362 0c-2491,0 -2247,1548 -2247,4103l0 263370z"/>
   <polygon class="fil4" points="143368,420415 315025,420415 315025,406684 143368,406684 "/>
   <path class="fil7" d="M214110 441860c0,6743 5466,12209 12212,12209 6744,0 12212,-5466 12212,-12209 0,-6743 -5468,-12209 -12212,-12209 -6746,0 -12212,5466 -12212,12209z"/>
   <g>
    <g style="clip-path:url(#id1)">
    </g>
    <g style="clip-path:url(#id2)">
     <image x="274421" y="487462" width="95108" height="92752" xlink:href="4.svg_Images\4.svg_ImgID1.png"/>
    </g>
    <g style="clip-path:url(#id3)">
    </g>
    <g>
     <path class="fil8" d="M296207 539156c-2898,-6805 -5559,-13821 -9007,-20374 -1204,-2291 -2291,-4602 -3522,-6922 28269,-4626 56813,-28192 63583,-19581 9765,12418 26095,60930 16314,69897 -6279,5756 -36063,10837 -58530,8135 -676,-10755 -4564,-21137 -8838,-31155z"/>
    </g>
   </g>
   <g>
    <path class="fil9" d="M366586 526480c0,0 -88591,17117 -102447,8150l7668 54939c0,0 102923,1295 106565,-10112 0,0 -5513,-38189 -11786,-52977z"/>
   </g>
   <g>
    <g>
     <polygon class="fil10 str0" points="302598,299494 299984,298066 297370,296639 297370,299494 297370,302346 299984,300921 "/>
     <path class="fil11" d="M297370 294290c0,-652 -402,-1393 -1536,-1393l-55420 0c-1134,0 -1900,741 -1900,1393l0 10584c0,649 766,776 1900,776l55420 0c1134,0 1536,-127 1536,-776l0 -10584z"/>
    </g>
    <g>
     <polygon class="fil10" points="302598,320094 299984,318666 297370,317239 297370,320094 297370,322946 299984,321518 "/>
     <path class="fil11" d="M297370 314464c0,-652 -725,-967 -2334,-967l-78796 0c-1610,0 -4209,315 -4209,967l0 10584c0,649 2599,1202 4209,1202l78796 0c1609,0 2334,-553 2334,-1202l0 -10584z"/>
    </g>
    <g>
     <path class="fil11" d="M244399 195916c0,1013 823,1836 1836,1836l49300 0c1013,0 1835,-823 1835,-1836l0 -16932c0,-1010 -822,-1832 -1835,-1832l-49300 0c-1013,0 -1836,822 -1836,1832l0 16932z"/>
     <polygon class="fil11" points="302598,187372 299984,185945 297370,184518 297370,187372 297370,190224 299984,188797 "/>
    </g>
    <g>
     <g>
      <path class="fil12" d="M158082 284198c0,1013 819,1833 1833,1833l49300 0c1013,0 1835,-820 1835,-1833l0 -16931c0,-1014 -822,-1833 -1835,-1833l-49300 0c-1014,0 -1833,819 -1833,1833l0 16931z"/>
      <polygon class="fil12" points="153768,275978 155923,277402 158082,278829 158082,275978 158082,273123 155923,274550 "/>
     </g>
     <g>
      <path class="fil7" d="M158082 284198c0,1013 819,1833 1833,1833l49300 0c1013,0 1835,-820 1835,-1833l0 -16931c0,-1014 -822,-1833 -1835,-1833l-49300 0c-1014,0 -1833,819 -1833,1833l0 16931z"/>
      <polygon class="fil7" points="153768,275978 155923,277402 158082,278829 158082,275978 158082,273123 155923,274550 "/>
     </g>
    </g>
    <g>
     <path class="fil11" d="M207126 216742c0,649 1272,1607 3002,1607l84476 0c1730,0 2766,-958 2766,-1607l0 -10585c0,-649 -1036,-1539 -2766,-1539l-84476 0c-1730,0 -3002,890 -3002,1539l0 10585z"/>
     <polygon class="fil11" points="302598,211212 299984,209784 297370,208360 297370,211212 297370,214066 299984,212639 "/>
    </g>
    <g>
     <path class="fil7" d="M250285 226431c0,-649 -1401,-1216 -3128,-1216l-84479 0c-1729,0 -3615,567 -3615,1216l0 10585c0,649 1886,951 3615,951l84479 0c1727,0 3128,-302 3128,-951l0 -10585z"/>
     <polygon class="fil7" points="154684,231961 156872,233389 159063,234816 159063,231961 159063,229107 156872,230534 "/>
    </g>
    <g>
     <polygon class="fil10" points="299658,379928 297041,378501 294428,377074 294428,379928 294428,382780 297041,381356 "/>
     <path class="fil11" d="M295409 374983c0,-649 -371,-1651 -1528,-1651l-56613 0c-1157,0 -3656,1002 -3656,1651l0 10584c0,652 2499,1498 3656,1498l56613 0c1157,0 1528,-846 1528,-1498l0 -10584z"/>
    </g>
    <g>
     <path class="fil7" d="M250285 246605c0,-649 -1401,-790 -3128,-790l-84479 0c-1729,0 -3615,141 -3615,790l0 10585c0,649 1886,1377 3615,1377l84479 0c1727,0 3128,-728 3128,-1377l0 -10585z"/>
     <polygon class="fil7" points="154185,252009 156622,253533 159063,255061 159063,252009 159063,248955 156622,250482 "/>
    </g>
    <g>
     <path class="fil7" d="M177698 334638c0,-652 -320,-1522 -661,-1522l-16673 0c-341,0 -1301,870 -1301,1522l0 10584c0,649 960,644 1301,644l16673 0c341,0 661,5 661,-644l0 -10584z"/>
     <polygon class="fil7" points="154185,339307 156622,340835 159063,342362 159063,339307 159063,336256 156622,337783 "/>
    </g>
    <g>
     <path class="fil7" d="M221841 354812c0,-652 -1081,-1099 -2235,-1099l-56613 0c-1158,0 -3930,447 -3930,1099l0 10584c0,649 2772,1069 3930,1069l56613 0c1154,0 2235,-420 2235,-1069l0 -10584z"/>
     <polygon class="fil7" points="154185,359907 156622,361434 159063,362959 159063,359907 159063,356853 156622,358380 "/>
    </g>
   </g>
   <g>
    <path class="fil8" d="M326831 517070c0,0 35156,-23161 43265,-68725 8106,-45567 1944,-89739 -9637,-105954 -11580,-16212 -67312,-43341 -74261,-56078 -6946,-12741 -26744,-7798 -29008,6100 -2267,13898 31246,54463 46301,61412 15055,6949 22776,12605 22776,24808 0,12203 -4346,17675 -16194,31711 -11851,14041 -26089,50239 -27246,61770 -1161,11527 -8109,70276 44004,44956z"/>
   </g>
   <polygon class="fil13" points="143368,157533 309139,157533 309139,145761 143368,145761 "/>
   <path class="fil14" d="M298959 297896c0,0 -3098,9393 -6875,10147 -3774,752 -18497,-9730 -19252,-12024 -755,-2296 8720,-12508 8141,-13442 -575,-931 14074,12655 17986,15319z"/>
   <path class="fil15" d="M321016 366533c3847,-408 7771,-3956 8696,-7707 41,-173 297,-76 259,94 -849,3663 -4981,8001 -8943,7933 -179,-3 -191,-302 -12,-320z"/>
   <path class="fil15" d="M415765 411621c4291,-1700 9084,-4429 10741,-9013 35,-91 176,-38 144,53 -1525,4528 -6388,7891 -10797,9245 -161,47 -243,-223 -88,-285z"/>
   <path class="fil15" d="M347660 351913c3701,-2914 6309,-7105 7501,-11648 32,-118 209,-50 179,67 -1104,4582 -3671,8976 -7483,11813 -159,117 -356,-112 -197,-232z"/>
   <path class="fil15" d="M352582 353258c2180,-2347 4400,-4693 4547,-8080 6,-97 155,-82 153,18 -100,3342 -2238,6003 -4576,8209 -91,85 -206,-59 -124,-147z"/>
   <path class="fil15" d="M355837 356838c754,-764 1627,-1377 2240,-2279 94,-138 309,12 212,150 -634,904 -1527,1533 -2320,2282 -97,88 -221,-62 -132,-153z"/>
   <path class="fil16" d="M298901 424843c1512,-934 3207,-1862 4992,-2622 -1274,382 -2558,819 -3870,1286 -197,71 -341,-220 -141,-297 6088,-2314 12021,-4176 18435,-1964 200,67 88,355 -112,302 -1395,-385 -2746,-608 -4073,-708 895,224 1774,553 2617,1037 205,118 20,476 -194,370 -6062,-2990 -11977,414 -17513,2893 -197,91 -318,-188 -141,-297z"/>
   <path class="fil15" d="M300489 425299c2747,-1921 7129,-4600 10638,-3407 179,61 115,370 -73,326 -3528,-784 -7443,1589 -10250,3451 -2834,1879 -6453,4711 -7331,8176 -18,71 -132,41 -123,-29 396,-3651 4390,-6594 7139,-8517z"/>
   <path class="fil15" d="M286066 449458c2156,-4405 6840,-7104 10855,-9613 200,-123 420,221 223,347 -3982,2579 -8314,5234 -10790,9419 -94,158 -370,17 -288,-153z"/>
   <path class="fil15" d="M281934 461746c1542,-296 2843,-1591 4135,-2443 1142,-752 2344,-1401 3568,-2009 2729,-1354 5663,-2182 8641,-2770 288,-55 361,382 79,447 -3195,713 -6253,1741 -9175,3216 -1674,846 -3283,1859 -4808,2946 -766,549 -1418,939 -2370,1001 -246,15 -323,-338 -70,-388z"/>
   <path class="fil15" d="M329372 522083c1715,-1033 3439,-2047 5224,-2954 39,-21 71,41 30,61 -1792,899 -3519,1904 -5240,2929 -20,11 -35,-21 -14,-36z"/>
   <path class="fil15" d="M309409 524574c6497,-787 13607,-1845 18544,-6535 173,-164 408,118 238,279 -4955,4717 -12177,5918 -18732,6544 -185,17 -238,-265 -50,-288z"/>
   <path class="fil15" d="M309080 527508c4594,-391 8973,-911 13031,-3275 197,-114 344,206 150,317 -4079,2388 -8476,2987 -13128,3263 -191,9 -250,-287 -53,-305z"/>
   <polygon class="fil7" points="143368,157533 226331,157533 226331,145761 143368,145761 "/>
   <path class="fil17" d="M226319 429657l0 24412c-4358,0 -8191,-2288 -10346,-5733 -1155,-1841 -1836,-4009 -1863,-6335 0,-50 0,-97 0,-147 0,-6734 5469,-12203 12209,-12197z"/>
   <g>
    <path class="fil18" d="M59744 39737c-34736,2144 -61445,26803 -59659,55086 1072,16981 12174,31402 28392,39755l-7522 21689 20744 -16567c7624,2085 15910,2986 24509,2455 34735,-2141 61444,-26806 59658,-55086 -1785,-28283 -31390,-49473 -66122,-47332z"/>
    <path class="fil19" d="M122351 150c34732,-2141 64337,19049 66123,47329 1075,16984 -8130,32656 -23170,42935l10191 20600 -22667 -13892c-7304,3002 -15413,4917 -24013,5446 -34732,2141 -64337,-19050 -66123,-47333 -1785,-28280 24923,-52944 59659,-55085z"/>
    <path class="fil20" d="M122351 150c34732,-2141 64337,19049 66123,47329 26,408 44,811 58,1216l-125743 7753c-38,-402 -73,-807 -97,-1213 -1785,-28280 24923,-52944 59659,-55085z"/>
    <g>
     <path class="fil21" d="M153659 58713c-4693,291 -8749,-3090 -9031,-7519 -279,-4432 3322,-8282 8015,-8570 4696,-291 8752,3090 9034,7519 279,4432 -3325,8282 -8018,8570z"/>
     <path class="fil21" d="M126154 60410c-4696,288 -8752,-3089 -9031,-7521 -279,-4429 3322,-8279 8015,-8570 4693,-288 8752,3089 9031,7518 282,4432 -3321,8283 -8015,8573z"/>
     <path class="fil21" d="M98647 62105c-4694,291 -8752,-3090 -9031,-7519 -279,-4431 3321,-8282 8015,-8570 4693,-290 8752,3087 9031,7519 279,4429 -3322,8279 -8015,8570z"/>
    </g>
   </g>
  </g>
 </g>
</svg>
