<?xml version="1.0" encoding="UTF-8"?>
<!DOCTYPE svg PUBLIC "-//W3C//DTD SVG 1.1//EN" "http://www.w3.org/Graphics/SVG/1.1/DTD/svg11.dtd">
<!-- Creator: CorelDRAW X8 -->
<svg xmlns="http://www.w3.org/2000/svg" xml:space="preserve" width="12.122mm" height="21.1847mm" version="1.1" style="shape-rendering:geometricPrecision; text-rendering:geometricPrecision; image-rendering:optimizeQuality; fill-rule:evenodd; clip-rule:evenodd"
viewBox="0 0 493733 862860"
 xmlns:xlink="http://www.w3.org/1999/xlink">
 <defs>
  <style type="text/css">
   <![CDATA[
    .fil9 {fill:none;fill-rule:nonzero}
    .fil19 {fill:#999999}
    .fil21 {fill:white}
    .fil7 {fill:#003E62;fill-rule:nonzero}
    .fil13 {fill:#98C483;fill-rule:nonzero}
    .fil1 {fill:#999999;fill-rule:nonzero}
    .fil11 {fill:#B3B3B3;fill-rule:nonzero}
    .fil20 {fill:#B4DEA0;fill-rule:nonzero}
    .fil15 {fill:#CCCCCC;fill-rule:nonzero}
    .fil10 {fill:#DBDADA;fill-rule:nonzero}
    .fil0 {fill:#E6E6E6;fill-rule:nonzero}
    .fil16 {fill:#E6E6E6;fill-rule:nonzero}
    .fil12 {fill:#EBEBEB;fill-rule:nonzero}
    .fil4 {fill:#EFBCA0;fill-rule:nonzero}
    .fil14 {fill:#F1F566;fill-rule:nonzero}
    .fil6 {fill:#F5CA56;fill-rule:nonzero}
    .fil3 {fill:#F9BD9C;fill-rule:nonzero}
    .fil2 {fill:#FFC8A5;fill-rule:nonzero}
    .fil18 {fill:#FFD0D4;fill-rule:nonzero}
    .fil5 {fill:#FFDFD4;fill-rule:nonzero}
    .fil8 {fill:white;fill-rule:nonzero}
    .fil17 {fill:#FFF0F2;fill-rule:nonzero;fill-opacity:0.600000}
   ]]>
  </style>
   <clipPath id="id0" style="clip-rule:nonzero">
    <path d="M322153 577955c0,3332 313,6810 -2933,6810l-205232 0c-3242,0 -8036,-3478 -8036,-6810l0 -343479c0,-3331 4794,-5347 8036,-5347l205232 0c3246,0 2933,2016 2933,5347l0 343479z"/>
   </clipPath>
 </defs>
 <g id="Слой_x0020_1">
  <metadata id="CorelCorpID_0Corel-Layer"/>
  <path class="fil0" d="M15974 259407c16256,-14781 35318,-14858 52677,-9339l0 -48551c0,-14182 6993,-24014 16879,-30478 7474,-4977 17196,-7132 24136,-7132l236896 0c11266,0 20308,3825 27652,12341l224 265c5979,7002 8745,15119 8745,25004l0 97370c11331,-53 20972,4000 26996,7360l3959 2302c1674,1124 3218,2378 4607,3743 5327,4826 8634,11184 9759,17893l101 -13c0,37 3324,18846 6436,40140 4505,30711 9930,73779 11021,109528 896,29220 -1666,54729 -10569,68985 -6342,10142 -16594,28059 -27131,46844 -11005,19632 -19485,34971 -25509,45940 -815,6635 -3153,12655 -7185,18072 -729,1026 -1519,1983 -2334,2892l0 62798c3149,4875 4969,10683 4969,16915l0 89322c0,17257 -13995,31252 -31252,31252l-199522 0c-17261,0 -31256,-13995 -31256,-31252l0 -89322c0,-9311 4077,-17665 10533,-23396l0 -44726 -17140 0c-7433,0 -17501,-2688 -24943,-7950 -7376,-5205 -13111,-12468 -15209,-22007l-50106 -46196c-11201,-10329 -16752,-24414 -16663,-38836 82,-13429 5096,-27151 15018,-37929 2411,-2623 5026,-4969 7763,-7034 -10126,-10247 -14614,-23904 -13633,-37916 864,-12394 6155,-25179 15596,-35439l1988 -2045c2081,-2052 4272,-3934 6553,-5633l-220 -207c-11339,-10468 -16011,-25001 -14418,-40063 1152,-10858 5804,-22145 13730,-31623 -2965,-2826 -5780,-5698 -8391,-8578 -9746,-10728 -17392,-22169 -21860,-33321 -6317,-15771 -6781,-31456 355,-45720 2704,-5401 6268,-10187 10748,-14260zm91485 154772l12121 11168c7067,5727 11584,14484 11584,24287l0 25070c-69,7551 -2790,15123 -8305,21119 -4297,4663 -9678,7722 -15408,9144l12129 11176c7067,5731 11584,14484 11584,24287l0 23640c-69,7552 -2790,15124 -8305,21119 -4297,4664 -9678,7723 -15408,9144l12129 11176c2191,1780 4142,3849 5780,6143l32702 0c17262,0 31257,13999 31257,31256l0 99378c0,9307 -4077,17665 -10533,23391l0 34674 137009 0 0 -41154c-3145,-4871 -4970,-10683 -4970,-16911l0 -90983 119 0c-9,-5043 1209,-10159 3796,-14900l4561 -8390c892,-1625 1919,-3169 3076,-4607 570,-1723 1315,-3417 2207,-5067 9095,-16630 21322,-38893 29330,-53185 10875,-19392 21607,-38120 28589,-49296 1649,-2635 1849,-16227 1299,-34303 -167,-5470 -464,-11221 -855,-17152 -1336,10818 -8208,19909 -17673,24398l0 782c0,17261 -13995,31256 -31253,31256 -17306,0 -31301,-13995 -31301,-31256l0 -257282c29,-1999 228,-3963 599,-5885l-172155 0 0 157496c-69,7551 -2790,15127 -8305,21119 -4289,4667 -9678,7722 -15400,9148z"/>
  <path class="fil1" d="M382218 376914c-90,-1197 -135,-2451 -143,-3751 8,1291 53,2546 143,3751zm-278413 -59441c0,0 -40889,-40890 -61335,-22300 -20451,18581 16727,63189 61335,85505l0 -63205zm1601 144849l-42979 -39610c-7282,-6725 -5865,-20125 3186,-29933 9042,-9812 22275,-12321 29562,-5613l10231 9433 0 -182390c0,-4533 6024,-6358 9759,-6358l236896 0c3743,0 5368,1825 5368,6358l0 259016 1308 -69469c6191,-71238 33016,-62497 41801,-57597l61 37 595 350 554 338 114 65 203 135 151 93 86 61 281 192c480,338 761,562 761,562 0,0 2900,16255 6310,39529 7547,51401 17636,137033 4842,157508 -13323,21326 -41936,73229 -57067,100897l0 2786c0,4493 -1605,6851 -5287,6888l-4562 8390 0 90983 4970 0 0 89322 -199522 0 0 -89322 10533 0 0 -99373 -48396 0c-3735,0 -9759,-2359 -9759,-6888l0 -6224 -59381 -54737c-8936,-8248 -8859,-22878 188,-32694 9050,-9812 23635,-11083 32576,-2835l26617 24536 0 -23636 -51634 -47601c-7849,-7234 -6875,-21054 2175,-30862 9042,-9820 22736,-11909 30585,-4668l18874 17400 0 -25069zm234069 -217333l0 424 0 158 0 1560 0 611 0 10004 0 244528 45 0 0 -255135c0,-1173 28,-1816 -45,-2150zm47989 107557c423,-501 863,-974 1332,-1418 -469,444 -909,917 -1332,1418z"/>
  <g id="_735915864">
   <path class="fil2" d="M392327 374259c-2456,1352 -5902,2171 -10859,2277 -17722,378 -16707,-9617 -16707,-21473 0,-11853 7486,-21469 16707,-21469 1303,0 2570,211 3792,570 -5295,-3637 -37044,-21999 -43850,56322l-1853 98522 -117112 0 50184 236069 57629 -74353c0,0 48335,-89224 66912,-118961 12793,-20471 2700,-106107 -4843,-157504z"/>
   <polygon class="fil2" points="330258,751104 146238,751104 146238,641429 330258,641429 "/>
   <path class="fil3" d="M392327 374259c-2456,1352 -5902,2171 -10859,2277 -4517,97 -7808,-485 -10219,-1593 350,14431 -684,28886 688,43288 3413,35823 8684,63088 2167,94466 -6696,32246 -29863,77905 -49817,103924 -17176,22393 -37611,44310 -62195,58896l10537 49560 57629 -74353c0,0 48335,-89224 66912,-118961 12793,-20471 2700,-106107 -4843,-157504z"/>
   <path class="fil4" d="M381468 333594c1303,0 2570,211 3792,570 -721,-493 -1931,-1259 -3499,-2016 -321,493 -635,994 -953,1490 220,-12 436,-44 660,-44z"/>
   <path class="fil5" d="M364761 355063c0,11856 -1015,21851 16707,21473 4957,-106 8403,-925 10859,-2277 -3409,-23278 -6309,-39533 -6309,-39533 0,0 -277,-224 -758,-562 -1222,-359 -2489,-570 -3792,-570 -9221,0 -16707,9616 -16707,21469z"/>
  </g>
  <polygon class="fil3" points="235601,641429 235601,751104 330258,751104 330258,641429 "/>
  <polygon class="fil6" points="335227,831033 135705,831033 135705,741708 335227,741708 "/>
  <g id="_735919608">
   <path class="fil7" d="M340102 200939c0,-4529 -1625,-6354 -5368,-6354l-236892 0c-3739,0 -9759,1825 -9759,6354l0 434507c0,4529 6020,6888 9759,6888l236892 0c3743,0 5368,-2359 5368,-6888l0 -434507zm-17909 375167l0 0c0,3637 261,8659 -2965,8659l-203941 0c-3226,0 -9290,-5022 -9290,-8659l0 -342232c0,-3638 6064,-2188 9290,-2188l203941 0c3226,0 2965,-1450 2965,2188l0 342232z"/>
  </g>
  <g id="_735919728">
   <path class="fil1" d="M225947 211855c0,1971 -863,5759 -1934,5759l-33839 0c-1071,0 -1935,-3788 -1935,-5759 0,-1967 864,-5755 1935,-5755l33839 0c1071,0 1934,3788 1934,5755z"/>
   <path class="fil1" d="M239486 211855c0,1971 -867,5759 -1934,5759l-5800 0c-1072,0 -1935,-3788 -1935,-5759 0,-1967 863,-5755 1935,-5755l5800 0c1067,0 1934,3788 1934,5755z"/>
  </g>
  <path class="fil8" d="M322153 577955c0,3332 313,6810 -2933,6810l-205232 0c-3242,0 -8036,-3478 -8036,-6810l0 -343479c0,-3331 4794,-5347 8036,-5347l205232 0c3246,0 2933,2016 2933,5347l0 343479z"/>
  <g style="clip-path:url(#id0)">
   <g id="_735921552">
    <path id="1" class="fil0" d="M322157 577955c0,3332 158,6810 -1463,6810l-102579 0c-1621,0 -4016,-3478 -4016,-6810l0 -343479c0,-3331 2395,-5347 4016,-5347l102579 0c1621,0 1463,2016 1463,5347l0 343479z"/>
   </g>
  </g>
  <path class="fil9" d="M322153 577955c0,3332 313,6810 -2933,6810l-205232 0c-3242,0 -8036,-3478 -8036,-6810l0 -343479c0,-3331 4794,-5347 8036,-5347l205232 0c3246,0 2933,2016 2933,5347l0 343479z"/>
  <polygon class="fil10" points="322153,587323 98278,587323 98278,569414 322153,569414 "/>
  <path class="fil11" d="M229890 615293c0,8794 -7132,15921 -15925,15921 -8798,0 -15930,-7127 -15930,-15921 0,-8794 7132,-15926 15930,-15926 8793,0 15925,7132 15925,15926z"/>
  <g id="_735929400">
   <g>
    <polygon class="fil12" points="114485,429620 117894,427758 121303,425897 121303,429620 121303,433342 117894,431481 "/>
    <path class="fil13" d="M121303 422834c0,-851 521,-1817 2004,-1817l72276 0c1483,0 2476,966 2476,1817l0 13803c0,848 -993,1010 -2476,1010l-72276 0c-1483,0 -2004,-162 -2004,-1010l0 -13803z"/>
   </g>
   <g>
    <polygon class="fil12" points="114485,456485 117894,454624 121303,452763 121303,456485 121303,460208 117894,458347 "/>
    <path class="fil13" d="M121303 449142c0,-848 945,-1259 3047,-1259l102762 0c2098,0 5491,411 5491,1259l0 13807c0,847 -3393,1564 -5491,1564l-102762 0c-2102,0 -3047,-717 -3047,-1564l0 -13807z"/>
   </g>
   <g>
    <path class="fil13" d="M190386 294537c0,1320 -1071,2391 -2395,2391l-64293 0c-1324,0 -2395,-1071 -2395,-2391l0 -22080c0,-1323 1071,-2394 2395,-2394l64293 0c1324,0 2395,1071 2395,2394l0 22080z"/>
    <polygon class="fil13" points="114485,283394 117894,281532 121303,279671 121303,283394 121303,287112 117894,285255 "/>
   </g>
   <g>
    <g>
     <path class="fil14" d="M302960 409674c0,1320 -1071,2391 -2390,2391l-64297 0c-1320,0 -2391,-1071 -2391,-2391l0 -22084c0,-1320 1071,-2391 2391,-2391l64297 0c1319,0 2390,1071 2390,2391l0 22084z"/>
     <polygon class="fil14" points="308589,398950 305775,400811 302960,402672 302960,398950 302960,395227 305775,397088 "/>
    </g>
    <g>
     <path class="fil15" d="M302960 409674c0,1320 -1071,2391 -2390,2391l-64297 0c-1320,0 -2391,-1071 -2391,-2391l0 -22084c0,-1320 1071,-2391 2391,-2391l64297 0c1319,0 2390,1071 2390,2391l0 22084z"/>
     <polygon class="fil15" points="308589,398950 305775,400811 302960,402672 302960,398950 302960,395227 305775,397088 "/>
    </g>
   </g>
   <g>
    <path class="fil13" d="M238997 321696c0,848 -1657,2098 -3914,2098l-110175 0c-2253,0 -3605,-1250 -3605,-2098l0 -13803c0,-847 1352,-2008 3605,-2008l110175 0c2257,0 3914,1161 3914,2008l0 13803z"/>
    <polygon class="fil13" points="114485,314487 117894,312626 121303,310764 121303,314487 121303,318206 117894,316348 "/>
   </g>
   <g>
    <path class="fil15" d="M182708 334335c0,-847 1829,-1589 4081,-1589l110176 0c2256,0 4716,742 4716,1589l0 13803c0,848 -2460,1243 -4716,1243l-110176 0c-2252,0 -4081,-395 -4081,-1243l0 -13803z"/>
    <polygon class="fil15" points="307392,341544 304541,343406 301681,345267 301681,341544 301681,337826 304541,339683 "/>
   </g>
   <g>
    <polygon class="fil13" points="118322,534521 121731,532659 125140,530798 125140,534521 125140,538243 121731,536382 "/>
    <path class="fil13" d="M123861 528073c0,-847 485,-2155 1992,-2155l73832 0c1511,0 4773,1308 4773,2155l0 13803c0,848 -3262,1951 -4773,1951l-73832 0c-1507,0 -1992,-1103 -1992,-1951l0 -13803z"/>
   </g>
   <g>
    <path class="fil15" d="M182708 360643c0,-847 1829,-1031 4081,-1031l110176 0c2256,0 4716,184 4716,1031l0 13807c0,847 -2460,1792 -4716,1792l-110176 0c-2252,0 -4081,-945 -4081,-1792l0 -13807z"/>
    <polygon class="fil15" points="308044,367689 304863,369681 301681,371672 301681,367689 301681,363710 304863,365697 "/>
   </g>
   <g>
    <path class="fil16" d="M277378 475453c0,-847 419,-1983 863,-1983l21742 0c444,0 1698,1136 1698,1983l0 13804c0,847 -1254,843 -1698,843l-21742 0c-444,0 -863,4 -863,-843l0 -13804z"/>
    <polygon class="fil16" points="308044,481547 304863,483534 301681,485526 301681,481547 301681,477563 304863,479555 "/>
   </g>
   <g>
    <path class="fil16" d="M219809 501765c0,-847 1406,-1429 2913,-1429l73832 0c1515,0 5127,582 5127,1429l0 13804c0,847 -3612,1397 -5127,1397l-73832 0c-1507,0 -2913,-550 -2913,-1397l0 -13804z"/>
    <polygon class="fil16" points="308044,508412 304863,510400 301681,512392 301681,508412 301681,504429 304863,506421 "/>
   </g>
  </g>
  <polygon class="fil10" points="322153,244480 105952,244480 105952,229129 322153,229129 "/>
  <path class="fil17" d="M90466 517051c-5022,-533 -10134,-5160 -11343,-10052 -53,-224 -387,-98 -334,126 1104,4774 6492,10431 11661,10342 236,-4 248,-391 16,-416z"/>
  <path class="fil18" d="M119307 593099c-1971,-1218 -4183,-2432 -6512,-3421 1661,501 3335,1067 5046,1678 261,93 448,-290 187,-387 -7942,-3014 -15681,-5446 -24047,-2562 -256,89 -110,464 147,395 1820,-501 3584,-794 5315,-925 -1169,294 -2313,721 -3413,1352 -269,155 -29,624 252,485 7906,-3898 15621,538 22842,3772 257,118 411,-245 183,-387z"/>
  <path class="fil17" d="M117234 593694c-3580,-2505 -9295,-6000 -13873,-4444 -232,81 -150,480 98,428 4599,-1027 9702,2069 13368,4496 3694,2452 8411,6146 9555,10663 25,94 175,57 167,-36 -521,-4762 -5731,-8598 -9315,-11107z"/>
  <path class="fil17" d="M136047 625203c-2814,-5748 -8924,-9267 -14157,-12537 -261,-163 -546,285 -290,452 5194,3364 10843,6826 14069,12284 126,208 484,20 378,-199z"/>
  <path class="fil17" d="M141432 641230c-2008,-387 -3706,-2077 -5389,-3189 -1494,-982 -3054,-1829 -4655,-2619 -3560,-1768 -7384,-2847 -11270,-3613 -375,-73 -473,497 -102,582 4167,933 8154,2269 11967,4196 2183,1099 4280,2423 6268,3841 1002,716 1849,1226 3095,1303 318,20 416,-436 86,-501z"/>
  <polygon class="fil11" points="322148,244480 213952,244480 213952,229129 322148,229129 "/>
  <path class="fil19" d="M213969 599375l0 31839c5682,0 10679,-2981 13494,-7478 1503,-2399 2391,-5225 2427,-8260 0,-65 0,-126 0,-191 0,-8786 -7132,-15914 -15921,-15910z"/>
  <path class="fil2" d="M123731 596357c8952,8244 8858,22883 -188,32695 -9042,9811 -23619,11082 -32560,2843l-62280 -57410c-8941,-8244 -8859,-22878 183,-32694 9046,-9812 23636,-11079 32576,-2839l62269 57405z"/>
  <path class="fil2" d="M123861 507101c7845,7229 6879,21053 -2167,30869 -9046,9812 -22748,11902 -30592,4668l-54661 -50379c-7844,-7234 -6867,-21054 2180,-30866 9046,-9816 22735,-11905 30580,-4667l54660 50375z"/>
  <path class="fil2" d="M128598 420675c7287,6717 5857,20117 -3189,29933 -9046,9812 -22296,12321 -29571,5604l-50733 -46770c-7287,-6717 -5865,-20117 3177,-29929 9046,-9816 22283,-12325 29570,-5613l50746 46775z"/>
  <path class="fil2" d="M86479 304211c0,0 -40885,-40893 -61340,-22308 -20443,18585 16732,63197 61340,85509l0 -63201z"/>
  <path class="fil5" d="M113463 601286c8382,8390 10875,19493 5555,24809 -5319,5315 -16426,2834 -24809,-5552 -8382,-8390 -15494,-14337 -5555,-24809 9942,-10472 16426,-2831 24809,5552z"/>
  <path class="fil5" d="M108294 506392c8382,8387 10875,19494 5555,24809 -5323,5319 -16426,2835 -24808,-5556 -8383,-8378 -15498,-14329 -5556,-24808 9942,-10468 16427,-2827 24809,5555z"/>
  <path class="fil5" d="M115723 420887c8390,8386 10871,19493 5564,24809 -5320,5319 -16427,2831 -24809,-5556 -8390,-8382 -15494,-14329 -5552,-24809 9943,-10471 16415,-2826 24797,5556z"/>
  <g id="_789619728">
   <g>
    <path class="fil11" d="M493550 86703c1397,-17681 -5389,-33521 -18797,-44849 -11071,-9347 -26068,-12386 -39887,-14858 -36010,-6448 -72847,-6631 -108962,-12288 -9991,-1564 -22451,6851 -24809,16654 -2554,10607 -12370,50392 -14089,62921 -1580,11518 1821,24006 9922,32482 12500,13083 88699,22964 96702,25436 16097,4969 31741,10570 48873,8798 19383,-2000 33064,-16268 41035,-32955 2697,-5645 4489,-11559 5870,-17648 989,-4359 1804,-8758 2570,-13160 -1422,8146 358,-1841 855,-4566 363,-1972 558,-3972 717,-5967zm-63218 23432l0 0c17,-8 37,-16 53,-25 -3592,2990 -2203,1108 -53,25z"/>
    <path class="fil11" d="M382462 147819c1267,-45 21567,34176 23909,34755 0,0 -7764,-47219 4052,-47394 11816,-179 -27961,12639 -27961,12639z"/>
   </g>
  </g>
  <g id="_789620520">
   <g>
    <path class="fil20" d="M463943 72186c1397,-17681 -5389,-33521 -18797,-44848 -11071,-9347 -26067,-12386 -39887,-14858 -36010,-6448 -72846,-6631 -108962,-12289 -9991,-1564 -22451,6851 -24809,16655 -2554,10606 -12370,50392 -14089,62920 -1580,11519 1821,24007 9922,32483 12505,13082 88699,22964 96702,25436 16097,4969 31741,10569 48873,8798 19383,-2000 33065,-16264 41035,-32955 2697,-5646 4489,-11560 5870,-17649 989,-4358 1804,-8757 2574,-13160 -1426,8150 354,-1841 851,-4566 363,-1971 558,-3971 717,-5967zm-63214 23437l0 0c13,-13 33,-21 49,-29 -3592,2990 -2203,1108 -49,29z"/>
    <path class="fil20" d="M352855 133302c1271,-45 21567,34177 23909,34755 0,0 -7763,-47214 4052,-47393 11816,-180 -27961,12638 -27961,12638z"/>
   </g>
  </g>
  <circle class="fil21" cx="329655" cy="60847" r="11180"/>
  <circle class="fil21" cx="359828" cy="65963" r="11180"/>
  <circle class="fil21" cx="389871" cy="72028" r="11180"/>
 </g>
</svg>
