<?xml version="1.0" encoding="UTF-8"?>
<!DOCTYPE svg PUBLIC "-//W3C//DTD SVG 1.1//EN" "http://www.w3.org/Graphics/SVG/1.1/DTD/svg11.dtd">
<!-- Creator: CorelDRAW X8 -->
<svg xmlns="http://www.w3.org/2000/svg" xml:space="preserve" width="9.9701mm" height="16.3022mm" version="1.1" style="shape-rendering:geometricPrecision; text-rendering:geometricPrecision; image-rendering:optimizeQuality; fill-rule:evenodd; clip-rule:evenodd"
viewBox="0 0 204261 333989"
 xmlns:xlink="http://www.w3.org/1999/xlink">
 <defs>
  <style type="text/css">
   <![CDATA[
    .fil5 {fill:none;fill-rule:nonzero}
    .fil8 {fill:#999999}
    .fil4 {fill:#4D4D4D;fill-rule:nonzero}
    .fil1 {fill:#666666;fill-rule:nonzero}
    .fil9 {fill:#98C483;fill-rule:nonzero}
    .fil3 {fill:#999999;fill-rule:nonzero}
    .fil7 {fill:#B3B3B3;fill-rule:nonzero}
    .fil0 {fill:#CCCCCC;fill-rule:nonzero}
    .fil10 {fill:#D65E6B;fill-rule:nonzero}
    .fil6 {fill:#DBDADA;fill-rule:nonzero}
    .fil11 {fill:white;fill-rule:nonzero}
    .fil2 {fill:white;fill-rule:nonzero}
   ]]>
  </style>
    <clipPath id="id0" style="clip-rule:nonzero">
     <path d="M173747 272707c0,2209 209,4514 -1942,4514l-136024 0c-2151,0 -5327,-2305 -5327,-4514l0 -227655c0,-2207 3176,-3545 5327,-3545l136024 0c2151,0 1942,1338 1942,3545l0 227655z"/>
    </clipPath>
     <clipPath id="id1" style="clip-rule:nonzero">
      <path d="M144780 115377c0,22841 -18516,41358 -41358,41358 -22841,0 -41358,-18517 -41358,-41358 0,-22842 18517,-41358 41358,-41358 22842,0 41358,18516 41358,41358z"/>
     </clipPath>
 </defs>
 <g id="Слой_x0020_1">
  <metadata id="CorelCorpID_0Corel-Layer"/>
  <g id="_789626496">
   <path class="fil0" d="M198900 7523c3653,4276 5361,9256 5361,15298l0 287999c0,5562 -1481,10428 -4632,14599l-74 0c-4290,5651 -10051,8570 -17467,8570l-157013 0c-4561,0 -10750,-1653 -15323,-4880 -5673,-3991 -9752,-10014 -9752,-18289l0 -287999c0,-7736 3456,-13352 8543,-17250 523,-433 1080,-845 1664,-1226 4630,-3022 10606,-4345 14868,-4345l157013 0c6871,0 12368,2348 16812,7523zm-42766 29707l-118904 0 0 259530 129802 0 0 -5475c-6917,-2692 -11820,-9416 -11820,-17283l-4 -1295 -73 0c0,-76004 -539,-152190 4,-228167 0,-158 6,-170 18,-119l-33 -1248c33,-2045 369,-4050 1010,-5943z"/>
   <path class="fil1" d="M191766 31180c0,-2998 -1082,-4208 -3559,-4208l-157013 0c-2473,0 -6460,1210 -6460,4208l0 287999c0,2993 3987,4554 6460,4554l157013 0c2477,0 3559,-1565 3559,-4554l0 -287999zm-11909 20350l0 139 0 55c26,484 12,1045 12,1687l0 220495 0 7160 2 1293c49,-838 31,-1725 31,-2516l0 0 0 -226832c0,-850 20,-1278 -45,-1481z"/>
   <g>
    <path class="fil2" d="M185646 22825c0,-3001 -1077,-4210 -3556,-4210l-157009 0c-2479,0 -6468,1209 -6468,4210l0 287985c0,3001 3989,4567 6468,4567l157009 0c2479,0 3556,-1566 3556,-4567l0 -287985zm-11870 248655l0 0c0,2410 174,5741 -1965,5741l-135171 0c-2135,0 -6157,-3331 -6157,-5741l0 -226826c0,-2411 4022,-1450 6157,-1450l135171 0c2139,0 1965,-961 1965,1450l0 226826z"/>
   </g>
   <g>
    <path class="fil3" d="M109986 30061c0,1305 -573,3815 -1282,3815l-22430 0c-708,0 -1280,-2510 -1280,-3815 0,-1305 572,-3815 1280,-3815l22430 0c709,0 1282,2510 1282,3815z"/>
    <path class="fil3" d="M118958 30061c0,1305 -576,3815 -1281,3815l-3845 0c-711,0 -1283,-2510 -1283,-3815 0,-1305 572,-3815 1283,-3815l3845 0c705,0 1281,2510 1281,3815z"/>
   </g>
   <path class="fil1" d="M173747 272707c0,2209 209,4514 -1942,4514l-136024 0c-2151,0 -5327,-2305 -5327,-4514l0 -227655c0,-2207 3176,-3545 5327,-3545l136024 0c2151,0 1942,1338 1942,3545l0 227655z"/>
   <g style="clip-path:url(#id0)">
    <g>
     <path id="1" class="fil4" d="M173751 272707c0,2209 105,4514 -969,4514l-67987 0c-1076,0 -2663,-2305 -2663,-4514l0 -227655c0,-2207 1587,-3545 2663,-3545l67987 0c1074,0 969,1338 969,3545l0 227655z"/>
    </g>
   </g>
   <path class="fil5" d="M173747 272707c0,2209 209,4514 -1942,4514l-136024 0c-2151,0 -5327,-2305 -5327,-4514l0 -227655c0,-2207 3176,-3545 5327,-3545l136024 0c2151,0 1942,1338 1942,3545l0 227655z"/>
   <polygon class="fil6" points="173758,277413 30485,277413 30485,265543 173758,265543 "/>
   <path class="fil7" d="M112599 297452c0,5829 -4727,10553 -10555,10553 -5831,0 -10558,-4724 -10558,-10553 0,-5829 4727,-10553 10558,-10553 5828,0 10555,4724 10555,10553z"/>
   <polygon class="fil6" points="173747,51681 30454,51681 30454,41507 173747,41507 "/>
   <polygon class="fil7" points="173747,51681 102035,51681 102035,41507 173747,41507 "/>
   <path class="fil8" d="M102046 286903l0 21104c3765,0 7078,-1977 8942,-4958 998,-1590 1586,-3462 1611,-5474 0,-43 0,-84 0,-127 0,-5822 -4727,-10549 -10553,-10545z"/>
   <g>
    <g>
     <polygon class="fil9" points="86885,227916 83726,229760 83726,226074 "/>
     <polygon class="fil9" points="91697,227916 88536,229760 88536,226074 "/>
     <polygon class="fil9" points="96106,227916 92947,229760 92947,226074 "/>
    </g>
    <path class="fil9" d="M81114 226939c0,7228 -5860,13085 -13086,13085 -7228,0 -13085,-5857 -13085,-13085 0,-7226 5857,-13086 13085,-13086 7226,0 13086,5860 13086,13086z"/>
    <g>
     <path class="fil2" d="M70030 229924l-479 440c-550,303 -1099,-237 -2090,-1387l-2084 -2968c-422,-771 -776,-1560 -252,-1992l435 -256 -2987 -4337 -410 354c-670,644 -2239,3553 1774,9422 4161,6100 7658,5788 8519,5309l545 -295 -2971 -4290z"/>
     <path class="fil2" d="M73726 233124l-2446 -3491c-187,-273 -553,-330 -822,-144l-477 480 2968 4273 627 -295c287,-200 328,-565 150,-823z"/>
     <path class="fil2" d="M66285 222706l-2448 -3491c-185,-273 -551,-330 -820,-143l-444 352 2987 4337 575 -233c285,-199 328,-564 150,-822z"/>
    </g>
    <g>
     <polygon class="fil10" points="117048,227916 120210,226074 120210,229760 "/>
     <polygon class="fil10" points="112238,227916 115399,226074 115399,229760 "/>
     <polygon class="fil10" points="107827,227916 110988,226074 110988,229760 "/>
    </g>
    <path class="fil10" d="M149271 226939c0,7228 -5859,13085 -13085,13085 -7226,0 -13086,-5857 -13086,-13085 0,-7226 5860,-13086 13086,-13086 7226,0 13085,5860 13085,13086z"/>
    <g>
     <path class="fil2" d="M132584 228600l-70 -647c86,-621 847,-738 2361,-848l3628 98c869,121 1713,305 1747,985l-53 500 5261 193 -39 -543c-116,-920 -1516,-3915 -8621,-4196 -7375,-299 -9213,2694 -9340,3671l-90 611 5216 176z"/>
     <path class="fil2" d="M127811 229657l4261 121c330,13 594,-248 604,-573l-98 -670 -5202 -166 -137 680c-8,348 258,598 572,608z"/>
     <path class="fil2" d="M140611 229901l4261 119c330,14 595,-246 605,-572l-19 -567 -5261 -193 -158 603c-10,348 259,600 572,610z"/>
    </g>
   </g>
   <g>
    <path class="fil11" d="M100986 190977c564,0 994,430 994,984 0,551 -430,983 -994,983 -540,0 -983,-432 -983,-983 0,-554 443,-984 983,-984z"/>
    <path class="fil11" d="M103295 190977c564,0 994,430 994,984 0,551 -430,983 -994,983 -541,0 -983,-432 -983,-983 0,-554 442,-984 983,-984z"/>
    <path class="fil11" d="M105604 190977c564,0 996,430 996,984 0,551 -432,983 -996,983 -541,0 -983,-432 -983,-983 0,-554 442,-984 983,-984z"/>
   </g>
   <g>
    <path class="fil11" d="M144780 115377c0,22841 -18516,41358 -41358,41358 -22841,0 -41358,-18517 -41358,-41358 0,-22842 18517,-41358 41358,-41358 22842,0 41358,18516 41358,41358z"/>
    <g style="clip-path:url(#id1)">
     <g>
      <path id="1" class="fil8" d="M104307 122179c8544,0 15491,-7687 15491,-17136 0,-9451 -6949,-17138 -15491,-17138 -8541,0 -15490,7689 -15490,17138 0,9449 6949,17136 15490,17136z"/>
      <path class="fil8" d="M122152 119931c-902,-197 -1832,197 -2317,983 -5542,8978 -14477,9236 -15476,9236 -1000,0 -9935,-258 -15475,-9234 -487,-786 -1417,-1180 -2321,-981 -12032,2647 -15205,20809 -14267,35554 74,1147 1024,2040 2174,2040l59780 0c1147,0 2100,-893 2171,-2040 939,-14763 -2235,-32934 -14269,-35558z"/>
     </g>
    </g>
    <path class="fil5" d="M144780 115377c0,22841 -18516,41358 -41358,41358 -22841,0 -41358,-18517 -41358,-41358 0,-22842 18517,-41358 41358,-41358 22842,0 41358,18516 41358,41358z"/>
   </g>
   <path class="fil2" d="M61853 169470c-633,-418 -1274,-709 -1921,-875 -650,-166 -1246,-248 -1793,-248 -922,0 -1577,182 -1967,551 -389,367 -582,815 -582,1348 0,318 68,580 205,789 138,209 357,389 656,541 301,151 682,280 1143,389 457,106 1012,219 1655,334 550,100 1088,233 1617,399 533,166 1006,410 1422,734 418,326 750,741 1002,1254 252,510 377,1155 377,1932 0,735 -150,1387 -453,1954 -303,570 -713,1049 -1231,1436 -519,389 -1119,685 -1803,887 -685,201 -1408,302 -2172,302 -994,0 -2012,-148 -3055,-443 -1045,-295 -2014,-838 -2905,-1631l1576 -2030c649,604 1354,1034 2116,1286 764,252 1563,377 2399,377 834,0 1508,-172 2018,-518 512,-346 766,-856 766,-1532 0,-607 -225,-1064 -680,-1373 -453,-309 -1141,-537 -2061,-680 -649,-86 -1287,-205 -1911,-357 -627,-151 -1185,-381 -1674,-690 -490,-309 -883,-723 -1178,-1242 -295,-518 -443,-1196 -443,-2030 0,-750 144,-1401 437,-1954 291,-556 676,-1017 1155,-1383 477,-367 1022,-642 1637,-822 613,-180 1242,-268 1889,-268 965,0 1868,106 2710,323 845,216 1625,576 2344,1080l-1295 2160z"/>
   <path id="1" class="fil2" d="M76776 170744c0,604 -118,1180 -356,1727 -238,547 -572,1030 -1004,1448 -432,416 -951,752 -1555,1004 -604,252 -1274,377 -2010,377l-3433 0 0 5767 -2613 0 0 -15031 5852 0c706,0 1368,100 1987,301 621,203 1164,498 1631,887 469,387 836,877 1102,1467 266,592 399,1274 399,2053zm-2677 -66c0,-776 -232,-1350 -693,-1717 -461,-366 -1065,-551 -1813,-551l-3175 0 0 4516 3261 0c762,0 1356,-224 1783,-670 424,-447 637,-973 637,-1578z"/>
   <path id="2" class="fil2" d="M86885 181067l-1188 -3325 -5573 0 -1209 3325 -2743 0 5681 -15031 2117 0 5679 15031 -2764 0zm-2958 -8596l-994 -3088 -66 0 -971 3024 -1016 3110 4040 0 -993 -3046z"/>
   <polygon id="3" class="fil2" points="90773,176511 90773,174286 97641,174286 97641,176511 "/>
   <path id="4" class="fil2" d="M107985 179621c-518,504 -1094,891 -1727,1166 -635,272 -1318,410 -2053,410 -647,0 -1266,-105 -1856,-314 -592,-209 -1113,-533 -1567,-971 -453,-438 -814,-1004 -1080,-1696 -267,-691 -400,-1519 -400,-2483 0,-965 142,-1793 422,-2484 281,-692 652,-1260 1113,-1706 461,-447 993,-770 1598,-971 604,-203 1223,-303 1856,-303 1426,0 2643,504 3651,1512l-1578 1706c-633,-664 -1309,-994 -2030,-994 -819,0 -1446,259 -1879,777 -432,518 -647,1340 -647,2463 0,1108 213,1921 637,2440 424,518 1047,778 1869,778 360,0 719,-94 1079,-281 361,-188 691,-432 994,-735l1598 1686z"/>
   <path id="5" class="fil2" d="M113643 170269c605,0 1174,53 1707,161 533,109 1000,300 1403,572 404,275 724,637 961,1092 238,453 357,1026 357,1717l0 7256 -2440 0 0 -950c0,0 -15,-6 -43,-21 -289,373 -689,648 -1201,820 -510,174 -1039,260 -1586,260 -1139,0 -2038,-279 -2700,-832 -662,-555 -993,-1350 -993,-2387 0,-432 79,-842 237,-1231 158,-389 389,-731 691,-1026 303,-295 680,-529 1135,-701 452,-174 975,-260 1565,-260l2895 0 0 -777c0,-202 -33,-397 -99,-583 -63,-187 -176,-349 -334,-486 -157,-137 -374,-248 -647,-336 -274,-86 -621,-129 -1037,-129 -592,0 -1087,76 -1491,227 -404,152 -756,371 -1057,658l-1297 -1641c518,-518 1123,-881 1815,-1090 691,-209 1410,-313 2159,-313zm-2224 7516c0,158 32,316 96,476 65,157 174,297 326,420 149,123 344,223 581,303 238,78 537,119 898,119 272,0 539,-27 799,-76 258,-51 491,-133 700,-248 209,-117 386,-266 531,-455 143,-186 230,-424 258,-713 15,-86 23,-194 23,-323 0,-130 0,-361 0,-691l-2485 0c-619,0 -1062,115 -1328,344 -266,232 -399,512 -399,844z"/>
   <path id="6" class="fil2" d="M123858 172493l0 2744c0,1956 -299,3429 -897,4415 -596,987 -1637,1530 -3120,1631 -72,-302 -144,-605 -217,-906 -72,-303 -144,-606 -215,-908 446,-129 813,-276 1102,-442 287,-166 518,-404 690,-713 172,-309 291,-713 357,-1209 65,-498 96,-1127 96,-1891l0 -4837 7755 0 0 10690 -2441 0 0 -8574 -3110 0z"/>
   <path id="7" class="fil2" d="M136450 170246c807,0 1530,156 2172,465 639,309 1155,752 1542,1328 275,418 476,926 605,1524 131,596 188,1262 174,1997 0,820 -62,1523 -184,2107 -123,581 -306,1089 -552,1522 -415,676 -979,1184 -1684,1522 -704,338 -1483,508 -2331,508 -807,0 -1526,-137 -2162,-412 -633,-272 -1143,-696 -1532,-1272 -590,-879 -871,-2147 -842,-3802 0,-576 39,-1123 119,-1642 78,-518 219,-979 420,-1382 375,-791 932,-1400 1674,-1826 741,-424 1602,-637 2581,-637zm-96 2204c-418,0 -797,107 -1127,324 -336,215 -588,510 -764,885 -129,289 -219,605 -271,951 -49,346 -82,727 -96,1145 0,416 23,799 66,1143 43,346 129,650 258,908 162,375 399,666 717,875 319,209 686,313 1108,313 465,0 875,-127 1238,-379 360,-252 622,-637 782,-1155 72,-201 121,-453 150,-754 28,-304 43,-685 43,-1146 0,-835 -92,-1462 -281,-1878 -162,-418 -401,-728 -725,-930 -328,-201 -693,-302 -1098,-302z"/>
   <polygon id="8" class="fil2" points="149755,181067 149755,176640 145522,176640 145522,181067 143080,181067 143080,170377 145522,170377 145522,174718 149755,174718 149755,170377 152152,170377 152152,181067 "/>
  </g>
 </g>
</svg>
