<?xml version="1.0" encoding="UTF-8"?>
<!DOCTYPE svg PUBLIC "-//W3C//DTD SVG 1.1//EN" "http://www.w3.org/Graphics/SVG/1.1/DTD/svg11.dtd">
<!-- Creator: CorelDRAW X8 -->
<svg xmlns="http://www.w3.org/2000/svg" xml:space="preserve" width="21.5254mm" height="19.3114mm" version="1.1" style="shape-rendering:geometricPrecision; text-rendering:geometricPrecision; image-rendering:optimizeQuality; fill-rule:evenodd; clip-rule:evenodd"
viewBox="0 0 2275974 2041878"
 xmlns:xlink="http://www.w3.org/1999/xlink">
 <defs>
  <style type="text/css">
   <![CDATA[
    .fil11 {fill:#116BC4}
    .fil6 {fill:#356FA0}
    .fil7 {fill:#4D94DB}
    .fil4 {fill:#666666}
    .fil9 {fill:#6EC9CA}
    .fil3 {fill:#BABCBF}
    .fil8 {fill:#CCCCCC}
    .fil13 {fill:#DF9C00}
    .fil12 {fill:#E3BE4D}
    .fil10 {fill:#E6E6E6}
    .fil14 {fill:#FFDB71}
    .fil5 {fill:white}
    .fil2 {fill:white}
    .fil1 {fill:#3F464D;fill-rule:nonzero}
    .fil15 {fill:#98C4E0;fill-rule:nonzero}
    .fil0 {fill:#E6E6E6;fill-rule:nonzero}
    .fil16 {fill:white;fill-rule:nonzero}
   ]]>
  </style>
 </defs>
 <g id="Слой_x0020_1">
  <metadata id="CorelCorpID_0Corel-Layer"/>
  <g id="_735927024">
   <path class="fil0" d="M1548279 1906084c0,69964 -90192,112131 -235957,123688 -94199,7465 -223036,12106 -364128,12106 -141081,0 -269940,-4641 -364128,-12106 -145755,-11557 -235967,-53724 -235967,-123688 0,-39481 22077,-69256 62552,-89420l-277214 0c-36405,0 -69700,-14919 -93977,-39100l-719 -740c-23959,-24245 -38741,-57393 -38741,-93607l0 -1087742c0,-36542 14961,-69817 39101,-93998l359 -360c24182,-24118 57382,-39100 93977,-39100l1168851 0 0 -299429c0,-44588 18228,-85138 47644,-114585l1755 -1734c29309,-28601 69277,-46269 113188,-46269l611008 0c21379,0 42272,4473 61780,12519 10140,4166 19762,9336 28696,15331 27322,9485 51313,26001 69775,47338 24805,28728 39840,65851 39840,106157l0 381870c0,44853 -18249,85571 -47644,114965 -29436,29437 -70101,47665 -114965,47665l-250178 0 0 957372c0,36404 -14919,69700 -39100,93987l-740 709c-24245,23970 -57393,38751 -93607,38751l-244278 0c40634,20185 62817,49981 62817,89420zm-600085 -55754c35273,0 69615,-285 102689,-825l-25302 -96620c-3542,-10013 -5488,-20777 -5488,-31995 0,-52888 42897,-95774 95775,-95774l555771 0 0 -962320c32,-24509 9368,-48997 28072,-67702l31108 -31107c17435,-18303 42061,-29690 69319,-29690l284288 0 0 -331721c-6587,-2897 -12879,-6576 -18778,-11028l-571812 0 0 350362c867,5170 1322,10467 1322,15881 0,52878 -42897,95774 -95774,95774l-1207846 0 0 971551 584055 0 0 296c7920,0 15924,1004 23938,3077 51017,13217 81670,65323 68453,116339l-27406 104603c34575,603 70588,899 107616,899zm545230 -1307733c169,1977 74,486 -43,-1131l43 1131z"/>
   <path class="fil1" d="M1493762 1944751c0,22109 -225785,40020 -504321,40020 -278515,0 -504321,-17911 -504321,-40020 0,-16103 119903,-29976 292715,-36330l32862 -125412 6143 -23452 -642156 0c-20809,0 -37663,-16854 -37663,-37673l0 -112998 0 -974744c0,-20809 16854,-37684 37663,-37684l1596303 0c20819,0 37673,16875 37673,37684l0 974744 0 112998c0,20819 -16854,37673 -37673,37673l-613873 0 38953 148673c175508,6260 297695,20269 297695,36521z"/>
   <path class="fil2" d="M665545 1917873c0,-11853 8839,-21834 20597,-23261l45392 -5562 45508 -173669 337388 0 45497 173669 45392 5562c11757,1427 20597,11408 20597,23261l-560371 0z"/>
   <polygon class="fil3" points="769450,1744342 777042,1715381 1114419,1715381 1122011,1744342 "/>
   <path class="fil4" d="M95764 1570208l0 -974744c0,-20798 16864,-37684 37673,-37684l1596303 0c20819,0 37673,16886 37673,37684l0 974744 -1671649 0z"/>
   <path class="fil2" d="M1729740 1720879l-1596303 0c-20809,0 -37673,-16854 -37673,-37652l0 -113019 1671649 0 0 113019c0,20798 -16854,37652 -37673,37652z"/>
   <polygon class="fil5" points="147552,623716 1715614,623716 1715614,1504272 147552,1504272 "/>
   <polygon class="fil6" points="147552,1426008 1715614,1426008 1715614,1504272 147552,1504272 "/>
   <polygon class="fil7" points="299746,787795 729440,787795 729440,1050894 299746,1050894 "/>
   <path class="fil8" d="M613830 910161l-31117 -31096 0 -35982c0,-6492 -5287,-11757 -11790,-11757 -6502,0 -11757,5265 -11757,11757l0 12414 -23177 -23156c-11451,-11472 -31361,-11451 -42802,0l-77820 77820c-4589,4600 -4589,12054 0,16643 4599,4610 12054,4610 16653,0l77810 -77810c2538,-2538 7010,-2538 9516,-11l77831 77821c2316,2326 5319,3447 8332,3447 3013,0 6016,-1153 8321,-3447 4589,-4589 4589,-12033 0,-16643zm-95140 -38825c-2252,-2274 -5942,-2274 -8183,0l-68442 68431c-1089,1068 -1703,2527 -1703,4081l0 49907c0,11705 9517,21210 21211,21210l33898 0 0 -52476 38244 0 0 52476 33920 0c11694,0 21168,-9505 21168,-21210l0 -49907c0,-1554 -582,-3013 -1671,-4081l-68442 -68431z"/>
   <polygon class="fil7" points="763677,787795 1193360,787795 1193360,1050894 763677,1050894 "/>
   <polygon class="fil9" points="1227597,787795 1657291,787795 1657291,1050894 1227597,1050894 "/>
   <polygon class="fil7" points="299746,1077740 729440,1077740 729440,1340849 299746,1340849 "/>
   <polygon class="fil7" points="763677,1077740 1193360,1077740 1193360,1340849 763677,1340849 "/>
   <polygon class="fil7" points="1227597,1077740 1657291,1077740 1657291,1340849 1227597,1340849 "/>
   <path class="fil2" d="M1077761 1200117l-31128 -31107 0 -35982c0,-6492 -5276,-11757 -11790,-11757 -6502,0 -11757,5265 -11757,11757l0 12413 -23177 -23155c-11451,-11473 -31361,-11441 -42802,0l-77820 77831c-4589,4589 -4589,12043 0,16632 4610,4610 12054,4610 16653,0l77810 -77810c2538,-2527 7010,-2527 9516,-11l77842 77821c2305,2326 5308,3447 8321,3447 3013,0 6016,-1153 8332,-3447 4589,-4589 4589,-12033 0,-16632zm-95150 -38837c-2253,-2262 -5932,-2262 -8174,0l-68442 68432c-1099,1068 -1713,2537 -1713,4081l0 49907c0,11704 9517,21221 21221,21221l33888 0 0 -52487 38244 0 0 52487 33920 0c11694,0 21168,-9517 21168,-21221l0 -49907c0,-1544 -571,-3013 -1671,-4081l-68441 -68432z"/>
   <path class="fil2" d="M1541681 1200117l-31118 -31107 0 -35982c0,-6492 -5286,-11757 -11800,-11757 -6502,0 -11757,5265 -11757,11757l0 12413 -23177 -23155c-11451,-11473 -31361,-11441 -42791,0l-77831 77831c-4589,4589 -4589,12043 0,16632 4610,4610 12054,4610 16664,0l77799 -77810c2538,-2527 7010,-2527 9516,-11l77842 77821c2305,2326 5308,3447 8321,3447 3024,0 6016,-1153 8332,-3447 4589,-4589 4589,-12033 0,-16632zm-95150 -38837c-2253,-2262 -5932,-2262 -8174,0l-68442 68432c-1099,1068 -1712,2537 -1712,4081l0 49907c0,11704 9516,21221 21220,21221l33899 0 0 -52487 38244 0 0 52487 33920 0c11683,0 21157,-9517 21157,-21221l0 -49907c0,-1544 -571,-3013 -1671,-4081l-68441 -68432z"/>
   <path class="fil10" d="M1077761 910161l-31128 -31096 0 -35982c0,-6492 -5276,-11757 -11790,-11757 -6502,0 -11757,5265 -11757,11757l0 12414 -23177 -23156c-11451,-11472 -31361,-11451 -42802,0l-77820 77820c-4589,4600 -4589,12054 0,16643 4610,4610 12054,4610 16653,0l77810 -77810c2538,-2538 7010,-2538 9516,-11l77842 77821c2305,2326 5308,3447 8321,3447 3013,0 6016,-1153 8332,-3447 4589,-4589 4589,-12033 0,-16643zm-95150 -38825c-2253,-2274 -5932,-2274 -8174,0l-68442 68431c-1099,1068 -1713,2527 -1713,4081l0 49907c0,11705 9517,21210 21221,21210l33888 0 0 -52476 38244 0 0 52476 33920 0c11694,0 21168,-9505 21168,-21210l0 -49907c0,-1554 -571,-3013 -1671,-4081l-68441 -68431z"/>
   <path class="fil2" d="M613830 1200117l-31117 -31107 0 -35982c0,-6492 -5287,-11757 -11790,-11757 -6502,0 -11757,5265 -11757,11757l0 12413 -23177 -23155c-11451,-11473 -31361,-11441 -42802,0l-77820 77831c-4589,4589 -4589,12043 0,16632 4599,4610 12054,4610 16653,0l77810 -77810c2538,-2527 7010,-2527 9516,-11l77831 77821c2316,2326 5319,3447 8332,3447 3013,0 6016,-1153 8321,-3447 4589,-4589 4589,-12033 0,-16632zm-95140 -38837c-2252,-2262 -5942,-2262 -8183,0l-68442 68432c-1089,1068 -1703,2537 -1703,4081l0 49907c0,11704 9517,21221 21211,21221l33898 0 0 -52487 38244 0 0 52487 33920 0c11694,0 21168,-9517 21168,-21221l0 -49907c0,-1544 -582,-3013 -1671,-4081l-68442 -68432z"/>
   <path class="fil11" d="M1541681 918546l-31118 -31096 0 -35982c0,-6492 -5286,-11757 -11800,-11757 -6502,0 -11757,5265 -11757,11757l0 12413 -23177 -23155c-11451,-11473 -31361,-11451 -42791,0l-77831 77820c-4589,4600 -4589,12054 0,16643 4610,4610 12054,4610 16664,0l77799 -77810c2538,-2538 7010,-2538 9516,-11l77842 77821c2305,2326 5308,3447 8321,3447 3024,0 6016,-1153 8332,-3447 4589,-4589 4589,-12033 0,-16643zm-95150 -38826c-2253,-2273 -5932,-2273 -8174,0l-68442 68432c-1099,1068 -1712,2527 -1712,4081l0 49907c0,11704 9516,21210 21220,21210l33899 0 0 -52476 38244 0 0 52476 33920 0c11683,0 21157,-9506 21157,-21210l0 -49907c0,-1554 -571,-3013 -1671,-4081l-68441 -68432z"/>
   <polygon class="fil12" points="1227079,1050904 1660125,1050904 1660125,787340 1443623,948532 1227079,787340 "/>
   <polygon class="fil13" points="1227079,1050904 1660125,1050904 1483115,919128 1404110,919128 1404110,919117 "/>
   <polygon class="fil14" points="1660125,787340 1443623,948532 1227079,787340 "/>
   <polygon class="fil1" points="334385,747975 334385,692423 311641,692423 311641,747975 296278,747975 296278,678561 349547,678561 349547,747975 "/>
   <path id="1" class="fil1" d="M416466 700902c0,3120 -634,6017 -1892,8671 -1258,2664 -2971,4959 -5139,6883 -2157,1935 -4705,3447 -7623,4536 -2929,1100 -6059,1649 -9379,1649l-13566 0 0 25334 -15363 0 0 -69414 28633 0c3648,0 6978,507 9971,1544 2992,1025 5551,2505 7676,4440 2125,1925 3775,4272 4938,7032 1163,2759 1744,5868 1744,9325zm-15553 -306c0,-2792 -835,-4864 -2495,-6228 -1660,-1364 -4029,-2051 -7085,-2051l-12466 0 0 16558 12868 0c2527,0 4684,-740 6482,-2242 1797,-1491 2696,-3510 2696,-6037z"/>
   <path id="2" class="fil1" d="M448187 678053c4187,0 7962,688 11324,2052 3352,1363 6217,3235 8575,5635 2358,2390 4176,5255 5435,8575 1269,3320 1892,6915 1892,10775l0 16357c0,4123 -645,7856 -1945,11218 -1290,3362 -3119,6217 -5477,8575 -2369,2369 -5223,4177 -8586,5435 -3352,1269 -7095,1903 -11218,1903 -4515,0 -8459,-740 -11821,-2199 -3352,-1459 -6143,-3437 -8374,-5932 -2231,-2495 -3892,-5392 -4991,-8681 -1089,-3288 -1639,-6735 -1639,-10319l0 -16357c0,-3595 550,-7021 1639,-10278 1099,-3256 2760,-6132 4991,-8628 2231,-2495 5022,-4472 8374,-5931 3362,-1460 7306,-2200 11821,-2200zm-148 14370c-1946,0 -3606,317 -5001,941 -1417,634 -2580,1480 -3511,2548 -930,1068 -1649,2273 -2115,3637 -465,1364 -697,2749 -697,4145l0 18852c0,1523 232,2993 697,4388 466,1396 1185,2622 2115,3690 931,1058 2094,1925 3511,2591 1395,666 3055,994 5001,994 3743,0 6629,-1110 8659,-3341 2052,-2221 3056,-5002 3056,-8322l0 -18852c0,-3066 -1004,-5710 -3056,-7930 -2030,-2231 -4916,-3341 -8659,-3341z"/>
   <path id="3" class="fil1" d="M544839 678561l0 55754 7073 0 0 29721 -12762 0 0 -16061 -44778 0 0 16061 -12868 0 0 -28823 7581 -1596c1195,-1068 2189,-2210 2992,-3447 793,-1227 1459,-2792 1988,-4684 539,-1893 952,-4272 1248,-7137 296,-2855 581,-6482 845,-10870l1502 -28918 47179 0zm-15163 13862l-18947 0 -899 16061c-138,2125 -275,4388 -402,6777 -137,2390 -370,4737 -698,7032 -338,2294 -782,4483 -1343,6587 -571,2093 -1353,3901 -2347,5435l24636 0 0 -41892z"/>
   <path id="4" class="fil1" d="M604473 747975l-5181 -14157 -23241 0 -5191 14157 -16156 0 26930 -69414 12064 0 26931 69414 -16156 0zm-12562 -35103l-4091 -13767 -402 0 -3986 13566 -2591 8173 13661 0 -2591 -7972z"/>
   <polygon id="5" class="fil1" points="677387,747975 677387,714965 677091,714859 670800,728922 666116,738702 654348,738702 649463,728425 643372,714859 643076,715166 643076,747975 627713,747975 627713,678561 641596,678561 650985,698703 659983,719554 660385,719554 669076,698703 678265,678561 692750,678561 692750,747975 "/>
   <path id="6" class="fil1" d="M773341 712174c2791,930 4970,2590 6534,4980 1555,2400 2802,5255 3733,8575l6682 22246 -15659 0 -5287 -17657c-729,-2252 -1554,-4103 -2495,-5530 -930,-1428 -1935,-2527 -3035,-3288 -1099,-772 -2262,-1290 -3489,-1555 -1237,-264 -2516,-391 -3849,-391l-7380 0 0 28421 -15352 0 0 -69520 15352 0 0 27829 6883 0c1068,0 2210,-95 3447,-296 1227,-201 2411,-655 3543,-1353 1131,-698 2188,-1713 3182,-3035 1005,-1332 1829,-3161 2495,-5487l5594 -17362 14855 0 -6280 20248c-931,3267 -2199,6006 -3796,8237 -1597,2220 -3458,3775 -5583,4631l-95 307z"/>
   <path id="7" class="fil1" d="M851933 727325c0,3130 -581,5953 -1755,8480 -1163,2527 -2717,4695 -4684,6482 -1956,1797 -4250,3193 -6883,4198 -2622,993 -5403,1490 -8321,1490l-31626 0 0 -69414 29225 0c3659,0 6915,476 9781,1438 2855,973 5265,2315 7232,4039 1956,1734 3436,3806 4430,6238 1005,2432 1502,5075 1502,7930 0,2527 -666,5054 -1999,7581 -1332,2527 -3552,4515 -6682,5985l0 402c1597,592 2992,1459 4187,2590 1195,1132 2210,2390 3045,3786 836,1395 1459,2865 1893,4388 433,1533 655,2992 655,4387zm-17361 -28421c0,-1924 -666,-3510 -1988,-4737 -1332,-1226 -3595,-1850 -6788,-1850l-11768 0 0 13872 11768 0c3193,0 5456,-740 6788,-2199 1322,-1459 1988,-3162 1988,-5086zm1596 27724c0,-994 -169,-1956 -497,-2887 -327,-930 -867,-1766 -1596,-2495 -730,-730 -1681,-1311 -2844,-1745 -1163,-433 -2538,-645 -4135,-645l-13068 0 0 15353 13068 0c3257,0 5583,-761 6979,-2295 1396,-1522 2093,-3288 2093,-5286z"/>
   <path id="8" class="fil1" d="M904790 747975l-5181 -14157 -23240 0 -5192 14157 -16156 0 26930 -69414 12065 0 26930 69414 -16156 0zm-12561 -35103l-4092 -13767 -402 0 -3986 13566 -2591 8173 13661 0 -2590 -7972z"/>
   <path id="9" class="fil1" d="M980993 700902c0,3120 -635,6017 -1893,8671 -1258,2664 -2971,4959 -5139,6883 -2157,1935 -4705,3447 -7623,4536 -2929,1100 -6059,1649 -9379,1649l-13565 0 0 25334 -15364 0 0 -69414 28633 0c3648,0 6979,507 9971,1544 2992,1025 5551,2505 7676,4440 2126,1925 3775,4272 4938,7032 1163,2759 1745,5868 1745,9325zm-15554 -306c0,-2792 -835,-4864 -2495,-6228 -1660,-1364 -4029,-2051 -7084,-2051l-12466 0 0 16558 12868 0c2527,0 4684,-740 6481,-2242 1798,-1491 2696,-3510 2696,-6037z"/>
   <polygon id="10" class="fil1" points="1016900,692317 1016900,747975 1001548,747975 1001548,692317 982589,692317 982589,678561 1035858,678561 1035858,692317 "/>
   <polygon id="11" class="fil1" points="1044338,747975 1044338,678561 1059691,678561 1059691,722039 1059997,722039 1074261,699803 1088821,678561 1101488,678561 1101488,747975 1086124,747975 1086124,705988 1085828,705988 1075657,722441 1057999,747975 "/>
   <path id="12" class="fil1" d="M1168005 700902c0,3120 -634,6017 -1893,8671 -1258,2664 -2971,4959 -5138,6883 -2157,1935 -4705,3447 -7624,4536 -2928,1100 -6058,1649 -9378,1649l-13566 0 0 25334 -15363 0 0 -69414 28633 0c3647,0 6978,507 9970,1544 2993,1025 5551,2505 7677,4440 2125,1925 3774,4272 4938,7032 1163,2759 1744,5868 1744,9325zm-15553 -306c0,-2792 -836,-4864 -2496,-6228 -1660,-1364 -4028,-2051 -7084,-2051l-12466 0 0 16558 12868 0c2527,0 4684,-740 6481,-2242 1798,-1491 2697,-3510 2697,-6037z"/>
   <path id="13" class="fil1" d="M1179784 737106l5477 0c1533,0 2686,-338 3447,-1005 761,-655 1417,-1554 1945,-2685l593 -1301 -21242 -53554 16758 0 6080 18746 5488 16759 497 0 4990 -16357 5890 -19148 16251 0 -18546 50467c-1395,3722 -2728,6894 -3996,9526 -1259,2623 -2654,4769 -4188,6429 -1533,1660 -3256,2855 -5181,3595 -1934,730 -4261,1089 -6989,1089l-7274 0 0 -12561z"/>
   <path class="fil1" d="M2180200 563226c0,36912 -29923,66834 -66835,66834l-313227 0 -143450 143461c-6788,6799 -16991,8829 -25862,5139 -8850,-3669 -14645,-12319 -14645,-21909l0 -126691 -113833 0c-36891,0 -66814,-29922 -66814,-66834l0 -381881c0,-36891 29923,-66824 66814,-66824l611017 0c36912,0 66835,29933 66835,66824l0 381881z"/>
   <path class="fil15" d="M2142728 544479c0,36912 -29923,66835 -66835,66835l-313227 0 -143450 143460c-6778,6799 -16992,8829 -25863,5139 -8850,-3669 -14644,-12318 -14644,-21908l0 -126691 -113834 0c-36890,0 -66813,-29923 -66813,-66835l0 -381881c0,-36890 29923,-66813 66813,-66813l611018 0c36912,0 66835,29923 66835,66813l0 381881z"/>
   <path class="fil16" d="M1655832 305741c2791,931 4969,2591 6534,4981 1554,2400 2802,5255 3733,8575l6682 22246 -15659 0 -5287 -17658c-730,-2252 -1554,-4102 -2495,-5529 -931,-1428 -1935,-2527 -3035,-3289 -1100,-772 -2263,-1290 -3489,-1554 -1237,-264 -2517,-391 -3849,-391l-7380 0 0 28421 -15353 0 0 -69520 15353 0 0 27829 6883 0c1068,0 2210,-95 3447,-296 1227,-201 2411,-656 3542,-1353 1132,-698 2189,-1713 3183,-3035 1004,-1332 1829,-3161 2495,-5488l5593 -17361 14856 0 -6280 20248c-931,3267 -2200,6006 -3796,8237 -1597,2220 -3458,3774 -5583,4631l-95 306z"/>
   <path id="1" class="fil16" d="M1685152 330674l5477 0c1533,0 2686,-339 3447,-1005 761,-655 1417,-1554 1945,-2686l592 -1300 -21242 -53554 16759 0 6080 18746 5488 16759 497 0 4990 -16357 5890 -19148 16251 0 -18546 50467c-1395,3721 -2728,6893 -3997,9526 -1258,2622 -2653,4769 -4187,6429 -1533,1660 -3256,2855 -5181,3595 -1935,729 -4261,1089 -6989,1089l-7274 0 0 -12561z"/>
   <polygon id="2" class="fil16" points="1778103,341543 1778103,285990 1755359,285990 1755359,341543 1739996,341543 1739996,272129 1793265,272129 1793265,341543 "/>
   <path id="3" class="fil16" d="M1860681 272129l0 69414 -15151 0 0 -55553 -16262 0 0 16558c0,5319 -265,10373 -793,15163 -550,4779 -1681,9008 -3426,12667 -1745,3647 -4240,6597 -7518,8818 -3277,2231 -7676,3447 -13195,3648l-2094 -12466c2992,-603 5329,-1618 7031,-3046 1692,-1427 2961,-3277 3786,-5540 835,-2263 1364,-4906 1596,-7930 233,-3024 349,-6492 349,-10415l0 -31318 45677 0z"/>
   <path id="4" class="fil16" d="M1923625 271621c4452,0 8311,687 11567,2051 3257,1364 5953,3236 8079,5636 2125,2389 3700,5255 4736,8575 1026,3320 1544,6915 1544,10774l0 16357c0,4124 -592,7856 -1797,11219 -1195,3362 -2908,6217 -5128,8575 -2231,2368 -4981,4176 -8237,5435 -3257,1268 -6947,1903 -11071,1903 -4514,0 -8405,-740 -11662,-2199 -3267,-1460 -5942,-3437 -8036,-5932 -2093,-2496 -3637,-5393 -4631,-8681 -1004,-3288 -1501,-6735 -1501,-10320l0 -1797 -7180 0 0 28326 -15363 0 0 -69414 15363 0 0 27818 7180 0 0 -1290c0,-3595 518,-7021 1543,-10277 1037,-3257 2612,-6133 4737,-8628 2136,-2495 4843,-4473 8131,-5932 3289,-1459 7201,-2199 11726,-2199zm-254 14369c-1945,0 -3573,317 -4906,941 -1343,635 -2421,1481 -3256,2549 -846,1067 -1449,2273 -1808,3637 -370,1364 -550,2749 -550,4145l0 18852c0,1523 180,2992 550,4388 359,1396 941,2622 1755,3690 803,1057 1850,1924 3161,2591 1301,666 2908,994 4853,994 3743,0 6471,-1111 8163,-3342 1713,-2220 2559,-5001 2559,-8321l0 -18852c0,-3067 -825,-5710 -2506,-7931 -1660,-2231 -4346,-3341 -8015,-3341z"/>
   <path id="5" class="fil16" d="M1577631 422937c2791,931 4969,2591 6534,4981 1554,2400 2802,5255 3732,8575l6683 22246 -15659 0 -5287 -17658c-730,-2252 -1554,-4102 -2495,-5529 -931,-1428 -1935,-2528 -3035,-3289 -1100,-772 -2263,-1290 -3489,-1554 -1237,-264 -2517,-391 -3849,-391l-7380 0 0 28421 -15353 0 0 -69520 15353 0 0 27829 6883 0c1068,0 2210,-95 3447,-296 1226,-201 2411,-656 3542,-1353 1131,-698 2189,-1713 3183,-3035 1004,-1332 1829,-3161 2495,-5488l5593 -17361 14856 0 -6281 20248c-930,3267 -2199,6006 -3795,8237 -1597,2220 -3458,3774 -5583,4631l-95 306z"/>
   <path id="6" class="fil16" d="M1656223 438089c0,3130 -582,5953 -1755,8480 -1163,2527 -2718,4695 -4684,6482 -1956,1797 -4251,3193 -6884,4197 -2622,994 -5403,1491 -8321,1491l-31625 0 0 -69415 29225 0c3658,0 6915,476 9780,1438 2855,973 5266,2316 7233,4040 1956,1734 3436,3806 4430,6238 1004,2432 1501,5075 1501,7930 0,2527 -666,5054 -1998,7581 -1332,2527 -3553,4515 -6682,5985l0 401c1596,593 2992,1460 4187,2591 1194,1131 2209,2390 3045,3785 835,1396 1459,2866 1892,4388 434,1533 656,2992 656,4388zm-17362 -28421c0,-1925 -666,-3511 -1987,-4737 -1333,-1227 -3595,-1850 -6789,-1850l-11768 0 0 13872 11768 0c3194,0 5456,-740 6789,-2199 1321,-1460 1987,-3162 1987,-5086zm1597 27723c0,-994 -169,-1956 -497,-2886 -328,-931 -867,-1766 -1597,-2496 -729,-729 -1681,-1311 -2844,-1744 -1163,-434 -2537,-645 -4134,-645l-13069 0 0 15352 13069 0c3257,0 5583,-761 6978,-2294 1396,-1523 2094,-3288 2094,-5287z"/>
   <path id="7" class="fil16" d="M1709080 458739l-5181 -14158 -23241 0 -5191 14158 -16157 0 26931 -69415 12064 0 26931 69415 -16156 0zm-12562 -35104l-4092 -13766 -401 0 -3987 13565 -2590 8174 13661 0 -2591 -7973z"/>
   <path id="8" class="fil16" d="M1785282 411666c0,3119 -634,6016 -1892,8670 -1259,2665 -2971,4959 -5139,6884 -2157,1935 -4705,3447 -7623,4536 -2929,1099 -6059,1649 -9379,1649l-13566 0 0 25334 -15363 0 0 -69415 28633 0c3648,0 6978,508 9971,1544 2992,1026 5551,2506 7676,4441 2125,1924 3775,4272 4938,7031 1163,2760 1744,5869 1744,9326zm-15553 -306c0,-2792 -836,-4864 -2496,-6228 -1660,-1364 -4028,-2051 -7084,-2051l-12466 0 0 16558 12868 0c2527,0 4684,-741 6482,-2242 1797,-1491 2696,-3510 2696,-6037z"/>
   <polygon id="9" class="fil16" points="1821190,403081 1821190,458739 1805837,458739 1805837,403081 1786879,403081 1786879,389324 1840148,389324 1840148,403081 "/>
   <polygon id="10" class="fil16" points="1848628,458739 1848628,389324 1863980,389324 1863980,432802 1864287,432802 1878551,410567 1893110,389324 1905777,389324 1905777,458739 1890414,458739 1890414,416752 1890118,416752 1879946,433204 1862289,458739 "/>
   <path id="11" class="fil16" d="M1972295 411666c0,3119 -635,6016 -1893,8670 -1258,2665 -2971,4959 -5139,6884 -2157,1935 -4705,3447 -7623,4536 -2929,1099 -6059,1649 -9379,1649l-13565 0 0 25334 -15364 0 0 -69415 28633 0c3648,0 6979,508 9971,1544 2992,1026 5551,2506 7676,4441 2125,1924 3775,4272 4938,7031 1163,2760 1745,5869 1745,9326zm-15554 -306c0,-2792 -835,-4864 -2495,-6228 -1660,-1364 -4029,-2051 -7084,-2051l-12466 0 0 16558 12867 0c2527,0 4684,-741 6482,-2242 1797,-1491 2696,-3510 2696,-6037z"/>
   <path id="12" class="fil16" d="M1984073 447870l5477 0c1534,0 2686,-339 3447,-1005 762,-655 1417,-1554 1946,-2686l592 -1300 -21242 -53555 16759 0 6080 18747 5487 16759 497 0 4991 -16357 5889 -19149 16252 0 -18546 50467c-1396,3722 -2728,6894 -3997,9527 -1258,2622 -2654,4769 -4187,6429 -1533,1660 -3257,2855 -5181,3595 -1935,729 -4261,1089 -6989,1089l-7275 0 0 -12561z"/>
  </g>
 </g>
</svg>
