<?xml version="1.0" encoding="UTF-8"?>
<!DOCTYPE svg PUBLIC "-//W3C//DTD SVG 1.0//EN" "http://www.w3.org/TR/2001/REC-SVG-20010904/DTD/svg10.dtd">
<!-- Creator: CorelDRAW X7 -->
<svg xmlns="http://www.w3.org/2000/svg" xml:space="preserve" width="69px" height="69px" version="1.0" style="shape-rendering:geometricPrecision; text-rendering:geometricPrecision; image-rendering:optimizeQuality; fill-rule:evenodd; clip-rule:evenodd"
viewBox="0 0 462747 462747"
 xmlns:xlink="http://www.w3.org/1999/xlink">
 <defs>
  <style type="text/css">
   <![CDATA[
    .str0 {stroke:white;stroke-width:40126.6}
    .fil7 {fill:none}
    .fil4 {fill:#3C757E}
    .fil3 {fill:#43828C}
    .fil2 {fill:#70A399}
    .fil5 {fill:#E64B25}
    .fil6 {fill:#FF5329}
    .fil1 {fill:#FF9966}
    .fil8 {fill:white;fill-rule:nonzero}
    .fil0 {fill:url(#id1)}
   ]]>
  </style>
   <clipPath id="id0">
    <path d="M231366 20067l16 0c116216,0 211298,95083 211298,211299l0 16c0,116216 -95082,211298 -211298,211298l-16 0c-116216,0 -211299,-95082 -211299,-211298l0 -16c0,-116216 95083,-211299 211299,-211299z"/>
   </clipPath>
  <radialGradient id="id1" gradientUnits="userSpaceOnUse" gradientTransform="matrix(1.06384 -0 -0 1.06384 -13961 -9375)" cx="218693" cy="146854" r="198626" fx="218693" fy="146854">
   <stop offset="0" style="stop-opacity:1; stop-color:white"/>
   <stop offset="1" style="stop-opacity:1; stop-color:#EBEBEB"/>
  </radialGradient>
 </defs>
 <g id="Слой_x0020_1">
  <metadata id="CorelCorpID_0Corel-Layer"/>
  <path class="fil0" d="M231366 20067l16 0c116216,0 211298,95083 211298,211299l0 16c0,116216 -95082,211298 -211298,211298l-16 0c-116216,0 -211299,-95082 -211299,-211298l0 -16c0,-116216 95083,-211299 211299,-211299z"/>
  <g style="clip-path:url(#id0)">
   <g id="_19733019712">
    <path id="1" class="fil1" d="M-10057 166116c-37141,26822 387,85459 40592,94387 40206,8919 83090,-31879 153499,-22374 70409,9496 168336,69287 226159,90468 57816,21181 75529,3753 88099,-33553 12569,-37314 19996,-94498 -22122,-122110 -42125,-27605 -133795,-25637 -235529,-27146 -101743,-1509 -213550,-6502 -250698,20328z"/>
    <path class="fil2" d="M-33182 275680c14426,-41683 44053,-95557 74296,-104421 30243,-8872 61102,27264 90160,35086 29051,7821 56291,-12657 80435,-10460 24136,2196 45175,27075 69153,29002 23986,1928 50919,-19111 87609,-3721 36682,15390 83105,67210 122868,85681 39763,18471 72851,3595 80419,13597 7569,10002 -10389,44890 -29753,60541 -19372,15643 -40150,12056 -71831,-10650 -31681,-22698 -74257,-64515 -130177,-72471 -55927,-7948 -125183,17958 -176236,8082 -51045,-9875 -83879,-55532 -115813,-49765 -31942,5775 -62975,62983 -78886,76832 -15904,13850 -16670,-15650 -2244,-57333z"/>
    <path class="fil3" d="M-43129 399654c13463,-33656 38326,-100968 60700,-130508 22374,-29540 42259,-21308 61845,-10279 19585,11022 38878,24839 53715,33293 14837,8453 25226,11543 54671,9725 29453,-1809 77970,-8524 116304,-8990 38333,-459 66482,5333 92459,19285 25985,13952 49797,36050 66854,63757 17065,27707 27367,61007 15587,85617 -11779,24602 -45641,40506 -83405,23883 -37772,-16622 -79447,-65771 -121383,-86036 -41944,-20265 -84148,-11645 -123153,-19909 -38997,-8256 -74786,-33395 -99791,-30196 -25013,3208 -39249,34762 -56109,53487 -16868,18732 -36358,24625 -45080,27580 -8722,2947 -6668,2947 6786,-30709z"/>
    <path class="fil4" d="M-19396 461017c4369,-28734 19246,-77472 32772,-99428 13533,-21955 25716,-17120 70796,-7070 45088,10041 123074,25305 172902,35465 49828,10152 71507,15192 82473,23125 10966,7932 11219,18747 6731,31578 -4487,12822 -13723,27659 -37069,38151 -23338,10500 -60794,16654 -116587,19988 -55793,3334 -129924,3848 -170074,-252 -40142,-4109 -46305,-12831 -41944,-41557z"/>
    <path class="fil5" d="M-90287 -25100c14363,68482 49252,165286 88825,170406 39574,5127 83832,-81438 130777,-83477 46937,-2030 96568,80459 135486,95754 38925,15295 67138,-36603 101260,-76121 34114,-39518 74130,-66656 112740,-40119 38602,26530 75797,106736 103757,102509 27960,-4227 46692,-92878 22706,-167356 -23986,-74470 -90682,-134759 -150678,-112835 -59996,21932 -113301,126068 -168446,138480 -55153,12412 -112155,-66917 -155537,-67913 -43382,-995 -73143,76343 -108031,71373 -34889,-4969 -74897,-92246 -97982,-115797 -23085,-23551 -29248,16615 -14877,85096z"/>
    <path class="fil6" d="M-11535 150804c33088,4970 119282,-4811 179563,4796 60280,9615 94655,38626 128003,34399 33348,-4227 65669,-41691 113127,-33396 47451,8296 110046,62367 135185,27976 25140,-34383 12823,-157212 -40229,-171757 -53044,-14544 -146830,79203 -221482,93447 -74644,14253 -130153,-50997 -174838,-64223 -44685,-13233 -78546,25558 -105479,54814 -26933,29248 -46945,48975 -13850,53944z"/>
   </g>
  </g>
  <path class="fil7 str0" d="M231366 20067l16 0c116216,0 211298,95083 211298,211299l0 16c0,116216 -95082,211298 -211298,211298l-16 0c-116216,0 -211299,-95082 -211299,-211298l0 -16c0,-116216 95083,-211299 211299,-211299z"/>
  <path class="fil8" d="M240728 144689l-18882 0c-6463,0 -8786,2323 -8786,8786l0 97997 -22753 -22232c-4401,-4139 -6984,-4139 -11377,0l-14221 14221c-4653,4132 -4400,7237 0,11630l58693 58701c5428,5688 10342,5688 16030,0l58693 -58701c4140,-4393 4653,-7498 0,-11630l-14474 -14221c-4400,-4139 -6984,-4400 -11124,0l-23006 22754 0 -98519c0,-6463 -2331,-8786 -8793,-8786z"/>
 </g>
</svg>
