<?xml version="1.0" encoding="UTF-8"?> <svg xmlns="http://www.w3.org/2000/svg" width="683" height="429" fill="none" viewBox="0 0 683 429"><path fill="#EBEBEB" d="M527.605 383.878c2.762-1.162 4.724-4.004 4.734-7.358.02-4.394-3.303-7.968-7.427-7.988-4.114-.02-7.467 3.524-7.487 7.918-.01 3.384 1.961 6.266 4.754 7.428-11.471 1.731-10.951 14.194-10.951 14.194l27.127.12c.01.01.631-12.593-10.75-14.314zM46.708 101.718c2.072-.871 3.543-3.003 3.553-5.515.01-3.294-2.482-5.976-5.565-5.996-3.093-.01-5.606 2.642-5.616 5.936-.01 2.542 1.471 4.694 3.564 5.565-8.609 1.301-8.219 10.651-8.219 10.651l20.36.09c-.01.02.461-9.44-8.077-10.731z"></path><path fill="#F5F5F5" d="M530.527 69.396c.311 13.724-10.57 25.105-24.294 25.405-13.723.31-25.105-10.57-25.405-24.294-.31-13.723 10.571-25.105 24.294-25.405 13.724-.31 25.095 10.57 25.405 24.294z"></path><path fill="#E0E0E0" d="M500.427 63.32c-.921-1.201-2.672-1.231-3.834-.35-1.161.88-1.691 1.912-1.901 3.473-.281-1.551-.951-2.552-2.163-3.383-1.211-.831-2.973-.72-3.843.52-.511.731-.651 1.722-.511 2.633.14.91.42 1.862 1.001 2.533 2.052 2.382 3.153 2.792 5.756 4.464 2.512-1.782 3.313-2.232 5.245-4.705.54-.69.781-1.651.881-2.572.08-.921-.1-1.912-.631-2.613zM522.369 62.83c-.921-1.202-2.673-1.232-3.834-.35-1.161.88-1.692 1.911-1.902 3.473-.28-1.552-.951-2.553-2.162-3.384-1.211-.83-2.973-.72-3.844.52-.51.732-.65 1.723-.51 2.633.14.911.42 1.862 1.001 2.533 2.052 2.382 3.153 2.793 5.755 4.464 2.513-1.781 3.314-2.232 5.246-4.704.54-.69.78-1.652.88-2.573.091-.92-.09-1.912-.63-2.612z"></path><path fill="#fff" d="M514.031 75.612c-.291 4.075-4.054 7.588-8.139 7.608-4.084.02-7.877-3.453-8.218-7.517l16.357-.09z"></path><path fill="#F5F5F5" d="M645.49 347.829c2.233-13.88-7.208-26.942-21.087-29.176-13.88-2.234-26.943 7.207-29.177 21.087-2.234 13.88 7.207 26.943 21.087 29.177 13.88 2.233 26.943-7.208 29.177-21.088z"></path><path fill="#E0E0E0" d="M611.926 336.501c.961-.06 1.822 1.021 1.902 2.422.09 1.392-.631 2.573-1.592 2.633-.971.06-1.821-1.021-1.901-2.423-.091-1.401.62-2.572 1.591-2.632zM614.3 330.094c-.06.371-2.142.251-4.464 1.082-2.343.78-3.914 2.152-4.185 1.901-.28-.19 1.072-2.192 3.764-3.113 2.683-.931 4.985-.19 4.885.13zM632.757 340.475c-.27.23-1.642-1.252-3.834-1.472-2.192-.25-3.844.901-4.064.621-.11-.12.16-.611.891-1.111.711-.491 1.932-.931 3.313-.781 1.382.15 2.473.831 3.073 1.471.591.631.751 1.172.621 1.272zM634.939 336.22c-.2.321-2.262-.77-5.015-.85-2.753-.141-4.895.78-5.065.44-.21-.26 1.962-1.862 5.115-1.722 3.163.12 5.195 1.882 4.965 2.132zM633.138 343.297c.11-.01.14 2.113-1.592 4.895-1.641 2.713-5.475 6.006-10.63 6.206-5.165.121-9.189-2.922-11.001-5.535-1.912-2.673-2.012-4.795-1.902-4.785.22-.08.651 1.882 2.613 4.224 1.871 2.303 5.645 4.925 10.25 4.815 4.594-.18 8.208-3.023 9.929-5.445 1.802-2.453 2.103-4.445 2.333-4.375z"></path><path fill="#F5F5F5" d="M47.507 206.997c6.623-12.281 2.035-27.606-10.247-34.229-12.282-6.622-27.607-2.034-34.23 10.248-6.622 12.282-2.034 27.607 10.248 34.229s27.607 2.034 34.23-10.248z"></path><path fill="#E0E0E0" d="M16.548 188.634c.961-.08 1.822.981 1.942 2.363.11 1.381-.57 2.562-1.531 2.642-.961.08-1.822-.981-1.942-2.362-.11-1.381.58-2.562 1.531-2.643zM18.77 182.238c-.02.22-2.132.02-4.505.911-2.382.861-3.863 2.382-4.014 2.232-.16-.09 1.182-1.972 3.764-2.913 2.583-.961 4.825-.41 4.755-.23zM32.614 188.304c-.96-.04-1.782 1.051-1.842 2.443-.06 1.381.67 2.542 1.632 2.582.96.04 1.782-1.051 1.842-2.442.07-1.392-.671-2.543-1.632-2.583zM30.131 181.998c-.07-.17 2.152-.821 4.755.04 2.612.831 4.044 2.653 3.884 2.753-.15.16-1.692-1.302-4.105-2.062-2.402-.801-4.504-.511-4.534-.731zM37.739 194.74c.04.01.02.491-.18 1.352-.19.861-.631 2.082-1.472 3.433-.83 1.352-2.112 2.793-3.854 3.984-1.731 1.191-3.964 2.082-6.426 2.222-2.452.11-4.775-.54-6.617-1.551-1.862-1.001-3.283-2.312-4.244-3.564-.97-1.261-1.541-2.422-1.812-3.253-.28-.831-.35-1.321-.32-1.331.15-.07.54 1.912 2.533 4.264.98 1.171 2.372 2.372 4.164 3.303 1.771.921 3.964 1.512 6.276 1.412 2.302-.141 4.414-.951 6.086-2.062 1.682-1.102 2.943-2.453 3.794-3.714 1.721-2.543 1.911-4.545 2.072-4.495zM243.194 228.804c-1.252-1.491-3.504-1.431-4.955-.24-1.442 1.201-2.072 2.552-2.253 4.574-.44-1.972-1.361-3.233-2.963-4.224-1.601-1.001-3.863-.751-4.914.891-.611.961-.741 2.252-.501 3.413.23 1.172.641 2.363 1.422 3.194 2.772 2.953 4.204 3.413 7.637 5.415 3.123-2.432 4.134-3.053 6.476-6.336.661-.921.911-2.162.981-3.354.081-1.201-.2-2.462-.93-3.333z"></path><path fill="#EBEBEB" d="M509.647 314.669c-1.251-1.491-3.504-1.431-4.955-.24-1.442 1.201-2.072 2.552-2.252 4.574-.441-1.972-1.362-3.233-2.963-4.224-1.602-1.001-3.864-.751-4.915.891-.611.961-.741 2.252-.501 3.413.231 1.172.641 2.363 1.422 3.194 2.772 2.953 4.204 3.413 7.637 5.415 3.123-2.432 4.134-3.053 6.477-6.336.66-.921.911-2.162.981-3.354.08-1.201-.201-2.462-.931-3.333z"></path><path fill="#E0E0E0" d="M580.156 136.483c-25.315 0-47.707 12.472-61.411 31.581l-26.836 3.804 15.055 21.451c-1.522 5.976-2.333 12.232-2.333 18.689 0 41.711 33.814 75.524 75.525 75.524 41.711 0 75.525-33.813 75.525-75.524 0-41.712-33.814-75.525-75.525-75.525z"></path><path fill="#003462" d="M566.293 105.092c11.071-14.575 22.733-12.513 30.831-9 8.098 3.524 13.533 12.393 12.992 21.212-.14 2.332-.64 4.774.311 6.907 1.521 3.433 5.956 4.394 8.518 7.127 3.504 3.743 2.733 9.669 1.542 14.654-1.181 4.995-2.433 10.691.5 14.895 2.693 3.854 7.818 4.885 12.042 6.937 5.586 2.712 10.07 7.767 11.692 13.763 1.621 5.996.19 12.813-4.004 17.388-4.104 4.474-10.28 6.456-16.286 7.347-17.488 2.572-36.016-3.063-49.099-14.955-13.083-11.892-20.47-29.789-19.569-47.447"></path><path fill="#455A64" d="M634.41 200.476c-.03-.03.38-.36 1.001-1.121.62-.751 1.461-1.972 1.972-3.764.51-1.781.62-4.114.06-6.696-.521-2.583-1.852-5.386-4.114-7.828-1.132-1.211-2.463-2.342-4.004-3.303-1.532-.971-3.274-1.712-5.095-2.463-1.822-.751-3.754-1.511-5.576-2.642-1.832-1.132-3.473-2.663-4.825-4.475-2.732-3.633-4.164-8.378-4.274-13.263-.06-2.442.17-4.945.631-7.417.45-2.473 1.081-4.935 1.561-7.438.331-1.771.631-3.563.611-5.285-.04-1.742-.521-3.413-1.161-5.015-.641-1.611-1.402-3.173-2.002-4.795-.591-1.661-.851-3.353-1.041-5.015-.201-1.671-.201-3.323-.391-4.884-.16-1.582-.48-3.114-.891-4.595-.82-2.943-2.062-5.696-3.713-7.908l-.02-.03v-.01c-2.763-4.374-7.328-6.797-11.432-7.377-4.174-.62-7.847.63-10.39 2.172-2.593 1.561-4.164 3.413-5.085 4.725-.921 1.331-1.261 2.132-1.311 2.112 0 0 .27-.831 1.151-2.212.891-1.362 2.442-3.284 5.055-4.925 2.562-1.622 6.336-2.963 10.65-2.363 4.245.55 8.979 3.003 11.892 7.548l-.02-.03c1.752 2.342 3.013 5.115 3.874 8.128.42 1.511.761 3.073.931 4.694.2 1.632.2 3.254.41 4.885.191 1.632.461 3.294 1.021 4.855.591 1.572 1.342 3.133 2.002 4.775.661 1.631 1.171 3.413 1.222 5.265.02 1.852-.291 3.644-.621 5.445-.481 2.533-1.111 4.995-1.562 7.438-.46 2.432-.69 4.875-.63 7.267.1 4.775 1.481 9.369 4.104 12.883 1.291 1.762 2.873 3.233 4.624 4.334 1.752 1.101 3.654 1.862 5.476 2.623 1.822.76 3.603 1.531 5.165 2.552 1.571.991 2.933 2.172 4.084 3.434 2.302 2.522 3.644 5.435 4.134 8.088.531 2.652.38 5.045-.19 6.866-.561 1.832-1.472 3.053-2.132 3.784-.701.701-1.151.981-1.151.981z"></path><path fill="#FAFAFA" d="M593.931 183.369c-.09-.11 1.041-1.251 2.542-2.562 1.502-1.302 2.783-2.273 2.883-2.162.1.11-1.041 1.251-2.542 2.562-1.502 1.301-2.793 2.262-2.883 2.162z"></path><path fill="#E8505B" d="M590.297 174.711l-33.373 4.064s-26.847 4.884-32.252 24.994c-3.724 13.884-11.442 39.76-15.866 54.434-1.902 6.336.961 13.123 6.827 16.176 7.077 3.684 15.785.591 18.969-6.726l14.594-33.584s5.145 11.732 4.845 17.277c-.3 5.546-11.882 25.936-11.882 25.936 24.644 14.134 49.699 12.352 69.179 3.514l-.931-53.073s9.169 47.357 27.747 43.753c15.576-3.023 5.315-33.373 0-44.984-6.787-14.805-15.635-35.926-21.201-41.021-14.925-13.643-26.656-10.76-26.656-10.76z"></path><path d="M536.238 180.426H559.541V194.6H536.238z"></path><path fill="#003462" d="M516.935 243.308c-.09-.09 1.742-1.681 4.594-2.392 2.843-.741 5.226-.23 5.176-.11-.01.16-2.333-.1-5.045.611-2.733.69-4.635 2.032-4.725 1.891zM521.339 238.714c-.07-.11 1.481-.901 3.553-.691 2.072.19 3.454 1.261 3.353 1.362-.08.14-1.481-.671-3.403-.841-1.922-.211-3.453.32-3.503.17z"></path><path d="M516.298 238.323H529.031V242.64700000000002H516.298zM549.45 218.624H582.363V263.068H549.45z"></path><path fill="#FAFAFA" d="M596.413 255.881c-.12-.07 1.091-2.422 2.723-5.245 1.631-2.823 3.053-5.055 3.173-4.985.12.07-1.091 2.422-2.723 5.245-1.631 2.833-3.053 5.065-3.173 4.985z"></path><path fill="#003462" d="M623.47 241.747c.07.01.04 1.101-.06 2.863-.09 1.762-.291 4.184-.18 6.857.19 5.375 2.272 9.349 2.072 9.409-.03.02-.17-.22-.401-.661-.23-.44-.52-1.101-.841-1.922-.63-1.661-1.241-4.074-1.351-6.796-.11-2.713.15-5.156.33-6.907.201-1.772.361-2.853.431-2.843z"></path><path fill="#FAFAFA" d="M578.215 264.299c.1-.1 1.821 1.562 3.553 3.934 1.742 2.373 2.793 4.515 2.673 4.575-.13.07-1.381-1.932-3.093-4.275-1.712-2.342-3.243-4.134-3.133-4.234zM595.212 268.173c.06-.13 1.722.571 3.704 1.552 1.982.981 3.533 1.891 3.473 2.022-.06.13-1.722-.561-3.704-1.552-1.981-.991-3.533-1.892-3.473-2.022zM584.031 252.107c-.09.11-1.531-.971-2.983-2.642-1.451-1.672-2.312-3.254-2.202-3.324.13-.08 1.171 1.352 2.593 2.983 1.431 1.642 2.692 2.873 2.592 2.983zM563.31 265.821c-.091-.12 1.411-1.332 3.063-3.013 1.661-1.672 2.842-3.193 2.973-3.103.11.07-.901 1.751-2.603 3.473-1.682 1.722-3.353 2.763-3.433 2.643zM552.379 271.426c.1-.11 1.431.951 2.993 2.363 1.551 1.411 2.733 2.642 2.642 2.752-.1.11-1.431-.951-2.993-2.362-1.561-1.411-2.742-2.643-2.642-2.753zM573.099 233.028c-.08-.12 1.602-1.291 3.744-2.612 2.142-1.322 3.944-2.293 4.024-2.162.08.12-1.602 1.291-3.744 2.612-2.142 1.321-3.944 2.292-4.024 2.162zM590.857 226.802c.13-.06 1.091 1.662 2.152 3.854 1.062 2.192 1.812 4.024 1.682 4.084-.13.06-1.091-1.662-2.152-3.854-1.061-2.192-1.812-4.014-1.682-4.084zM603.018 224.17c-.12-.071.731-1.732 1.902-3.694 1.171-1.972 2.222-3.504 2.353-3.424.12.071-.731 1.732-1.902 3.694-1.181 1.962-2.232 3.494-2.353 3.424zM588.825 211.867c.07-.14 1.751.601 3.934 1.111 2.182.521 4.014.611 4.014.771.01.13-1.882.28-4.134-.26-2.253-.531-3.874-1.512-3.814-1.622zM597.194 197.964c-.14.01-.381-1.672-.521-3.764-.15-2.092-.15-3.794-.01-3.804.14-.01.381 1.672.521 3.764.15 2.092.15 3.794.01 3.804zM615.852 225.821c-.13-.05.47-1.962 1.351-4.274.881-2.312 1.702-4.134 1.842-4.084.13.05-.47 1.962-1.351 4.274-.881 2.302-1.712 4.134-1.842 4.084zM618.524 235.951c.11-.07 1.171 1.452 1.932 3.594.771 2.142.911 3.994.781 4.004-.15.02-.521-1.742-1.271-3.834-.731-2.082-1.572-3.684-1.442-3.764zM556.884 199.085c.08-.12 1.621.69 3.453 1.822 1.832 1.131 3.253 2.142 3.173 2.262-.08.12-1.621-.691-3.453-1.822-1.822-1.131-3.243-2.142-3.173-2.262zM547.205 215.481c-.1-.11 1.281-1.451 2.643-3.373 1.371-1.912 2.192-3.654 2.332-3.594.13.04-.491 1.932-1.912 3.904-1.391 1.972-2.983 3.173-3.063 3.063zM532.8 216.172c.08-.11 1.751 1.051 3.563 2.792 1.812 1.732 3.033 3.364 2.933 3.444-.11.1-1.501-1.362-3.293-3.073-1.792-1.712-3.303-3.043-3.203-3.163zM536.254 202.138c-.1-.1 1.472-1.782 3.514-3.754s3.773-3.484 3.873-3.383c.101.1-1.471 1.781-3.513 3.763-2.042 1.962-3.774 3.484-3.874 3.374zM527.335 228.804c-.14.04-.831-1.792-1.551-4.094-.721-2.302-1.191-4.214-1.061-4.254.14-.04.83 1.792 1.551 4.094.731 2.312 1.201 4.214 1.061 4.254zM534.231 237.383c-.14-.01-.07-2.122.17-4.695.241-2.583.551-4.665.691-4.655.14.01.07 2.112-.17 4.695-.23 2.583-.541 4.665-.691 4.655z"></path><path fill="#B78876" d="M584.101 197.954c-2.132-1.512-4.795-2.082-7.367-1.582-2.423.471-4.565 1.862-5.986 3.874l-8.709 12.372-47.217 37.657c-7.337 5.846-6.636 17.207 1.352 22.122 5.605 3.444 12.862 2.363 17.227-2.562l38.538-43.533 4.975-3.834 5.856-4.244 1.331-12.743s3.513 1.562 6.266 2.813c4.334 1.992 5.776-1.622 5.776-1.622l-12.042-8.718z"></path><path fill="#AA6550" d="M584.172 206.142c-.06.04-.34-.291-.811-.801-.46-.501-1.141-1.181-2.082-1.512-.921-.31-1.882-.05-2.382.331-.531.38-.641.821-.731.791-.05.01-.07-.531.49-1.071.541-.521 1.652-.921 2.793-.541 1.101.39 1.792 1.201 2.192 1.772.421.58.581.991.531 1.031zM577.975 209.535c-.05-.04.12-.38.591-.751.46-.37 1.261-.75 2.202-.75.941 0 1.732.39 2.192.77.47.381.631.721.581.761-.06.05-.321-.19-.791-.45-.471-.271-1.181-.551-1.982-.551-.811 0-1.522.27-1.992.531-.481.26-.741.5-.801.44z"></path><path fill="#B78876" d="M618.294 195.421l3.313 3.584s1.101 50.76 3.033 57.657c1.932 6.896 13.243 18.478 19.309 9.099 6.066-9.38-9.099-69.239-9.099-69.239s-4.134-13.794-4.414-17.107l-12.142 16.006z"></path><path fill="#455A64" d="M625.892 166.032l-1.301 35.065c-.09 2.502-1.462 4.784-3.634 6.036l-10.56 6.106c-2.913 1.681-6.567-.421-6.567-3.784v-32.462c0-1.842 1.001-3.544 2.613-4.435l15.805-8.768c1.672-.931 3.724.33 3.644 2.242z"></path><path fill="#FAFAFA" d="M613.75 175.271c-.571 1.161-.09 2.563 1.071 3.133 1.161.571 2.563.09 3.133-1.071.571-1.161.09-2.562-1.071-3.133-1.161-.57-2.562-.09-3.133 1.071z"></path><path fill="#B78876" d="M630.436 179.425s-7.818-10.83-9.559-10.74c-1.732.09-10.14 5.115-9.77 6.206.36 1.091 2.102 1.731 3.654 1.001 1.551-.731 4.294-3.384 4.935-2.833.64.551 2.462 2.462 2.462 2.462s-7.718 3.944-8.308 5.476c-.601 1.571-2.012 4.294-.18 5.295 1.191.651 3.103-.09 3.833-3.193 0 0-1.461 4.474.801 5.565 2.433 1.182 3.173-1.301 5.135-3.743 1.652-2.052 2.393.56 2.393.56l4.604-6.056z"></path><path fill="#AA6550" d="M624.52 179.515c-.01.08-.56.03-1.431.14-.861.101-2.042.411-3.153 1.132-1.101.72-1.862 1.681-2.303 2.422-.45.751-.62 1.281-.7 1.251-.06-.01-.01-.59.38-1.421.38-.831 1.151-1.912 2.342-2.693 1.192-.781 2.493-1.051 3.404-1.061.921-.01 1.471.17 1.461.23z"></path><path fill="#B78876" d="M558.655 108.285l.01 4.514-.29 67.627c-.03 7.848 6.687 14.134 15.095 14.104 8.488-.03 15.505-6.476 15.666-14.404.17-8.329.51-17.087.51-17.087s10.751-1.592 13.223-15.546c1.231-6.936 1.081-18.348.661-27.687-.381-8.398-7.668-14.795-16.056-14.064l-28.819 2.543z"></path><path fill="#003462" d="M600.237 128.324c.02.951-.771 1.742-1.762 1.782-.991.04-1.801-.7-1.821-1.651-.02-.951.77-1.742 1.761-1.782.991-.04 1.812.701 1.822 1.651zM600.947 125.702c-.23.23-1.572-.801-3.504-.831-1.931-.06-3.363.911-3.563.671-.1-.11.13-.521.761-.961.61-.441 1.661-.851 2.863-.831 1.201.03 2.202.49 2.782.951.581.47.771.901.661 1.001zM581.947 128.004c.021.951-.77 1.742-1.761 1.782-.991.04-1.802-.701-1.822-1.652-.02-.951.771-1.742 1.762-1.782.991-.04 1.811.701 1.821 1.652zM581.958 125.732c-.231.23-1.572-.801-3.504-.831-1.932-.06-3.363.911-3.573.671-.1-.11.13-.521.76-.961.611-.441 1.662-.851 2.863-.831 1.201.03 2.202.49 2.783.951.591.47.791.891.671 1.001zM588.716 140.166c-.01-.11 1.201-.3 3.143-.51.49-.04.961-.131 1.051-.471.12-.35-.07-.891-.301-1.471-.44-1.201-.9-2.463-1.391-3.784-1.932-5.385-3.313-9.8-3.103-9.88.22-.08 1.962 4.224 3.884 9.61.46 1.331.911 2.592 1.331 3.803.18.561.491 1.202.22 1.942-.14.371-.51.631-.82.711-.321.09-.591.09-.841.1-1.952.08-3.163.06-3.173-.05z"></path><path fill="#AA6550" d="M589.645 163.049s-9.419.44-18.648-5.336c0 0 4.374 9.69 18.398 8.629l.25-3.293zM587.815 144.811c-.681-.931-1.882-1.452-3.093-1.352-.841.08-1.692.461-2.213 1.142-.52.67-.64 1.641-.19 2.302.511.741 1.592.931 2.523.68.931-.25 1.731-.84 2.492-1.431.21-.16.431-.33.561-.56.13-.231.17-.531.01-.721"></path><path fill="#003462" d="M583.009 141.407c.31-.01.28 2.082 2.052 3.604 1.762 1.521 4.004 1.331 4.014 1.622.03.13-.501.4-1.452.41-.92.02-2.272-.31-3.353-1.231-1.081-.931-1.531-2.162-1.581-3.023-.071-.881.18-1.402.32-1.382zM541.799 187.143c11.531.911 21.681-7.317 23.403-18.749.18-1.191.38-2.162.64-2.803 1.622-4.064 1.652-8.658.531-12.892-.521-1.962-1.261-4.104-.37-5.926.65-1.322 2.001-2.112 3.103-3.073 2.492-2.172 3.853-5.456 4.124-8.749.28-3.293-.451-6.606-1.602-9.71-.631-1.701-1.401-3.573-.761-5.275.451-1.201 1.532-2.042 2.483-2.903 2.022-1.821 3.713-4.004 4.975-6.416 1.281-2.452 2.112-5.646-1.231-7.597-.701-.411-1.482-.651-2.283-.781-5.916-.921-12.963-.04-16.926 4.614-3.234 3.794-3.684 9.149-4.004 14.114-.981 15.666-26.907 44.755-16.887 66.206l4.805-.06z"></path><path fill="#003462" d="M582.6 118.164c-.201.521-2.123.241-4.395.471-2.272.19-4.114.821-4.404.34-.13-.23.2-.71.941-1.211.74-.49 1.922-.961 3.283-1.081s2.603.11 3.423.46c.821.361 1.232.781 1.152 1.021zM600.336 120.106c-.35.431-1.672-.05-3.273-.1-1.602-.11-2.963.241-3.263-.22-.13-.22.09-.661.69-1.061.591-.4 1.572-.721 2.673-.671 1.101.05 2.042.471 2.592.931.561.451.741.911.581 1.121z"></path><path fill="#fff" d="M653.759 129.776c0 1.081-.881 1.962-1.962 1.962s-1.962-.881-1.962-1.962.881-1.962 1.962-1.962 1.962.881 1.962 1.962zM659.644 131.738c1.084 0 1.962-.878 1.962-1.962s-.878-1.962-1.962-1.962c-1.083 0-1.962.878-1.962 1.962s.879 1.962 1.962 1.962zM669.434 128.795c.541.941.221 2.142-.72 2.683-.941.54-2.143.22-2.683-.721-.541-.941-.22-2.142.721-2.683.941-.53 2.142-.21 2.682.721z"></path><path fill="#fff" d="M659.765 106.863c0-.01.13-.01.4-.01.291.01.671.02 1.162.03.26.01.54.01.86.04.321.04.661.09 1.031.141.371.05.771.11 1.202.17.42.1.87.21 1.341.33 1.882.481 4.164 1.311 6.496 2.833 2.333 1.501 4.755 3.633 6.717 6.546 1.932 2.913 3.423 6.577 3.814 10.691.04 1.031.16 2.082.06 3.143-.04.531-.03 1.071-.1 1.612-.08.54-.16 1.071-.24 1.621-.441 2.142-1.082 4.345-2.183 6.397-1.081 2.052-2.472 4.004-4.174 5.745-1.731 1.702-3.764 3.183-6.016 4.325-2.252 1.151-4.744 1.941-7.337 2.252-.641.13-1.301.13-1.952.17-.661.04-1.311.07-1.982.04-1.321-.05-2.652-.22-3.964-.501-2.853-.61-5.535-1.761-7.888-3.323l.241.02c-2.733 1.101-5.416 2.172-8.038 3.223l-.481.191.14-.491c.811-2.943 1.602-5.816 2.363-8.588l.04.21c-2.252-2.993-3.694-6.417-4.285-9.81-.3-1.702-.42-3.393-.31-5.025.03-.821.07-1.632.23-2.412.06-.391.121-.791.181-1.171.07-.391.19-.761.28-1.142 1.551-6.046 5.275-10.51 8.959-13.063 1.842-1.301 3.663-2.232 5.335-2.812.41-.15.821-.291 1.201-.431.401-.1.781-.2 1.141-.29.361-.09.711-.18 1.041-.26.331-.06.661-.1.961-.15.611-.08 1.141-.181 1.612-.201.46-.02.851-.03 1.181-.04.3-.01.541-.01.721-.02.16 0 .24 0 .24.01s-.08.02-.24.03c-.18.01-.421.03-.721.06-.32.02-.711.05-1.171.081-.461.04-.991.15-1.592.24-2.362.43-5.906 1.371-9.529 4.024-3.614 2.552-7.247 6.977-8.739 12.923-.09.37-.2.74-.27 1.121-.06.38-.11.77-.17 1.151-.15.771-.18 1.561-.21 2.372-.1 1.602.03 3.263.33 4.925.591 3.323 2.012 6.667 4.224 9.599l.07.101-.03.12c-.761 2.772-1.541 5.645-2.342 8.588l-.34-.3 8.027-3.233.131-.05.11.07c2.302 1.511 4.925 2.652 7.707 3.243 1.282.27 2.583.44 3.874.49.651.03 1.291.01 1.932-.03s1.281-.04 1.912-.16c2.532-.3 4.975-1.071 7.177-2.192 2.212-1.111 4.194-2.552 5.896-4.214 1.672-1.702 3.043-3.614 4.104-5.616 1.091-2.002 1.722-4.154 2.162-6.256.08-.53.16-1.061.24-1.581.08-.521.07-1.051.11-1.572.101-1.041-.02-2.072-.05-3.083-.37-4.044-1.811-7.648-3.693-10.53-1.912-2.873-4.285-5.005-6.577-6.507-2.292-1.521-4.534-2.372-6.396-2.883-.471-.12-.911-.24-1.321-.35-.421-.07-.821-.13-1.192-.19-.37-.06-.71-.12-1.021-.17-.31-.03-.6-.04-.85-.06-.491-.041-.871-.061-1.162-.081-.25-.05-.39-.07-.39-.08z"></path><path fill="#E0E0E0" d="M213.475 290.135l-35.345 5.956c-13.233-11.412-30.44-18.328-49.279-18.328-41.711 0-75.525 33.813-75.525 75.524 0 41.712 33.814 75.525 75.525 75.525 41.711 0 75.525-33.813 75.525-75.525 0-11.681-2.653-22.742-7.398-32.622l16.497-30.53z"></path><path fill="#fff" d="M58.59 273.999c0 1.081.88 1.962 1.961 1.962s1.962-.881 1.962-1.962-.88-1.962-1.962-1.962c-1.09 0-1.962.881-1.962 1.962zM50.732 273.999c0 1.081.88 1.962 1.962 1.962 1.08 0 1.962-.881 1.962-1.962s-.881-1.962-1.962-1.962-1.962.881-1.962 1.962zM42.904 273.018c-.54.941-.22 2.142.721 2.683.941.54 2.142.22 2.683-.721.54-.941.22-2.142-.721-2.683-.94-.54-2.142-.22-2.683.721z"></path><path fill="#fff" d="M52.575 251.086c0 .01-.13.02-.4.05-.291.02-.671.05-1.162.08-.25.02-.54.03-.85.06-.311.05-.651.111-1.022.171-.37.06-.76.13-1.19.19-.421.11-.862.23-1.322.35-1.862.511-4.104 1.361-6.396 2.883-2.293 1.501-4.655 3.634-6.577 6.506-1.882 2.883-3.323 6.487-3.694 10.531-.03 1.011-.15 2.042-.05 3.083.04.52.03 1.051.11 1.571.08.521.16 1.051.25 1.582.441 2.102 1.072 4.254 2.163 6.256 1.06 2.012 2.432 3.914 4.104 5.616 1.701 1.661 3.683 3.103 5.896 4.214 2.202 1.121 4.634 1.892 7.177 2.192.63.12 1.271.12 1.912.16.64.04 1.291.07 1.932.03 1.29-.05 2.592-.22 3.873-.49 2.783-.591 5.406-1.722 7.708-3.243l.11-.071.13.051 8.028 3.233-.34.3c-.8-2.953-1.592-5.816-2.342-8.588l-.03-.121.07-.1c2.212-2.933 3.633-6.276 4.224-9.599.3-1.662.43-3.323.33-4.925-.03-.801-.06-1.602-.21-2.372-.06-.391-.12-.771-.17-1.152-.07-.38-.18-.75-.27-1.121-1.492-5.946-5.126-10.37-8.74-12.922-3.623-2.643-7.166-3.594-9.529-4.024-.6-.091-1.13-.211-1.591-.241-.46-.03-.851-.06-1.171-.08-.3-.02-.53-.04-.721-.06-.16.02-.24.01-.24 0s.08-.01.24-.01c.18 0 .42.01.72.02.331.01.721.02 1.182.04.47.02 1 .13 1.611.2.3.051.631.081.961.151.33.08.681.17 1.041.26.36.09.741.19 1.142.29.39.14.79.28 1.2.431 1.672.58 3.484 1.511 5.336 2.812 3.684 2.553 7.407 7.017 8.959 13.063.09.381.21.751.28 1.141l.18 1.172c.15.79.19 1.591.23 2.412.11 1.642-.01 3.333-.31 5.025-.59 3.393-2.032 6.817-4.284 9.81l.04-.211c.76 2.773 1.552 5.636 2.362 8.589l.14.49-.48-.19c-2.623-1.051-5.295-2.122-8.038-3.223l.24-.02c-2.352 1.552-5.035 2.713-7.887 3.323-1.312.281-2.643.451-3.964.501-.661.03-1.322.01-1.982-.04-.661-.04-1.312-.04-1.952-.17-2.593-.311-5.085-1.101-7.337-2.253-2.253-1.141-4.285-2.622-6.017-4.324-1.701-1.742-3.093-3.694-4.174-5.746-1.11-2.052-1.741-4.244-2.182-6.396l-.24-1.622c-.08-.54-.07-1.081-.1-1.611-.1-1.061.02-2.112.06-3.143.39-4.114 1.882-7.778 3.814-10.691 1.962-2.913 4.394-5.045 6.716-6.546 2.333-1.522 4.615-2.353 6.497-2.833.47-.12.92-.23 1.341-.33.43-.06.83-.121 1.201-.171.37-.05.711-.1 1.031-.14.31-.03.6-.03.861-.04.49-.01.881-.02 1.161-.03.27 0 .4 0 .4.01z"></path><path fill="#003462" d="M137.106 237.212c1.832-4.074 6.106-6.946 10.581-7.097 4.474-.15 8.939 2.423 11.031 6.377 1.251 2.352 1.742 5.145 3.543 7.107 2.253 2.442 6.397 2.823 9.059.851.731 2.852-1.041 6.116-3.823 7.067l4.424.45c-2.392 5.215-8.929 7.598-14.585 6.577-5.655-1.021-10.46-4.755-14.304-9.009"></path><path fill="#003462" d="M137.147 237.283l13.654 4.474c4.805 3.173 8.628 7.838 10.51 13.273.641 1.842 1.071 3.764 1.882 5.536.811 1.771 2.062 3.443 3.844 4.244 1.311.59 2.803.65 4.144 1.151 2.282.841 4.004 2.933 4.585 5.285.58 2.352.05 4.915-1.242 6.967-.65 1.031-1.511 2.022-1.561 3.243-.04.821.31 1.602.5 2.403.651 2.712-.64 5.775-3.043 7.207-2.402 1.431-5.725 1.101-7.797-.761-.871 2.002-2.032 4.074-4.014 5.015-1.982.941-4.895.1-5.306-2.052-.981 2.062-3.443 3.303-5.695 2.883-2.253-.431-4.074-2.483-4.235-4.755l-37.417-40.82c5.576-14.955 27.418-13.634 31.191-13.293z"></path><path fill="#FFBE9D" d="M143.484 251.477c2.412.25 4.224 2.302 4.174 4.724l-2.643 62.852c-.1 7.418-13.603 16.197-21.571 16.036-8.048-.17-5.676-8.688-5.796-15.745-.19-11.792-.19-16.226-.19-16.156 0 0-10.17-1.682-12.272-14.915-1.051-6.576-.721-17.367-.16-26.186.5-7.938 5.776-17.677 13.703-16.837l24.755 6.227z"></path><path fill="#003462" d="M108.47 270.646c-.03.901.7 1.661 1.641 1.711.931.05 1.722-.63 1.752-1.531.03-.891-.701-1.662-1.642-1.712-.941-.05-1.721.631-1.751 1.532zM107.368 267.693c.21.22 1.501-.731 3.333-.721 1.832-.02 3.173.921 3.373.691.1-.1-.12-.501-.7-.921-.581-.421-1.562-.831-2.703-.831-1.141.01-2.102.42-2.653.851-.56.43-.76.831-.65.931zM126.368 270.646c-.03.901.701 1.661 1.642 1.711.931.05 1.722-.63 1.752-1.531.03-.891-.701-1.662-1.642-1.712-.941-.05-1.722.631-1.752 1.532zM125.357 268.033c.21.22 1.501-.731 3.333-.721 1.832-.02 3.173.921 3.373.691.1-.1-.12-.501-.7-.921-.581-.42-1.562-.831-2.703-.831-1.141.01-2.102.421-2.653.851-.56.431-.751.831-.65.931zM118.72 281.566c.01-.1-1.131-.3-2.973-.53-.47-.05-.911-.14-.991-.461-.11-.34.09-.84.311-1.381.44-1.131.9-2.312 1.381-3.553 1.922-5.055 3.313-9.21 3.103-9.29-.2-.08-1.932 3.964-3.844 9.019-.46 1.252-.901 2.433-1.321 3.574-.18.53-.481 1.131-.24 1.832.13.35.47.6.77.68.301.09.561.1.791.11 1.852.101 3.003.111 3.013 0z"></path><path fill="#EB996E" d="M117.448 303.178s8.919.57 17.768-4.725c0 0-4.314 9.089-17.588 7.848l-.18-3.123zM119.49 285.971c.66-.871 1.811-1.342 2.952-1.222.791.091 1.602.471 2.083 1.112.48.64.58 1.561.14 2.172-.491.69-1.522.851-2.403.6-.871-.25-1.621-.82-2.342-1.391-.2-.16-.4-.32-.521-.541-.12-.22-.15-.5 0-.68"></path><path fill="#003462" d="M124.105 282.838c-.301-.02-.301 1.962-2.002 3.373-1.702 1.411-3.814 1.191-3.834 1.461-.03.121.47.381 1.361.411.881.03 2.162-.25 3.203-1.111s1.482-2.012 1.552-2.823c.08-.841-.14-1.331-.28-1.311zM124.536 264.83c.18.5 2.012.26 4.154.52 2.152.211 3.884.841 4.174.401.13-.21-.17-.681-.871-1.161-.691-.481-1.802-.941-3.093-1.081-1.291-.141-2.472.06-3.253.38-.791.32-1.191.711-1.111.941zM108.038 262.407c.321.411 1.582-.02 3.104-.04 1.511-.07 2.802.281 3.093-.15.13-.21-.07-.63-.631-1.021-.551-.39-1.481-.71-2.523-.68-1.041.03-1.941.41-2.472.83-.541.431-.711.861-.571 1.061z"></path><path fill="#FFBE9D" d="M146.186 272.637c1.001-.69 2.412-.44 3.463.171 2.432 1.401 3.654 4.624 2.743 7.277-.901 2.662-3.824 4.474-6.617 4.114"></path><path fill="#003462" d="M125.335 240.836c-4.834.16-8.498 1.632-12.742 3.944-4.244 2.312-7.788 6.136-9.099 10.781-.28.991-.431 2.112.11 2.983.711 1.151 2.402 1.341 3.634.78 1.231-.56 2.122-1.661 2.962-2.722.631 2.432 3.043 4.274 5.556 4.244 2.512-.03 4.885-1.922 5.455-4.365.02 2.543 2.573 4.645 5.115 4.545 2.543-.09 4.795-2.052 5.646-4.444.47 2.262.981 4.594 2.332 6.456 1.352 1.872 3.804 3.153 6.006 2.442-.31 1.972-.61 4.044.09 5.916.701 1.872 2.783 3.384 4.675 2.733 1.842-.631 2.552-2.803 2.983-4.695.831-3.643 1.541-7.357 1.421-11.091-.12-3.733-1.121-7.537-3.413-10.49-2.372-3.053-5.976-4.995-9.72-5.976-3.743-.991-7.667-1.101-11.541-1.051"></path><path fill="#EB996E" d="M147.117 280.255c.04-.09.511.11 1.151-.18.631-.25 1.201-1.181 1.141-2.262-.04-1.101-.75-1.882-1.411-2.123-.661-.27-1.151-.14-1.181-.24-.05-.07.45-.42 1.331-.22.42.1.911.35 1.301.811.381.45.631 1.081.661 1.742.1 1.331-.741 2.542-1.662 2.752-.921.241-1.401-.22-1.331-.28z"></path><path fill="#E8505B" d="M147.507 285.811c.956 0 1.732-.771 1.732-1.722s-.776-1.722-1.732-1.722c-.957 0-1.732.771-1.732 1.722s.775 1.722 1.732 1.722zM137.318 236.612c-.01-.05.8-.28 2.152-.25 1.341.03 3.223.44 5.025 1.471 1.802 1.041 3.093 2.462 3.794 3.614.71 1.151.91 1.972.86 1.992-.09.04-.41-.721-1.171-1.782-.761-1.061-2.032-2.373-3.753-3.364-1.722-.991-3.494-1.431-4.795-1.551-1.282-.14-2.092-.04-2.112-.13z"></path><path fill="#455A64" d="M144.253 236.622c-.02 0-.03-.14-.05-.421 0-.27.05-.69.251-1.181.38-.981 1.551-2.212 3.423-2.652 1.892-.521 4.284.45 5.956 2.282.851.911 1.571 2.012 2.162 3.213s1.071 2.503 1.582 3.804c.51 1.301 1.031 2.562 1.701 3.673.671 1.112 1.482 2.083 2.413 2.813.921.741 1.962 1.221 2.993 1.362 1.031.17 2.012-.05 2.822-.391 1.642-.741 2.563-2.002 2.983-2.903.411-.921.431-1.511.491-1.501.02 0 .01.14-.01.42-.03.271-.11.671-.29 1.161-.381.961-1.292 2.323-3.013 3.154-.851.39-1.922.65-3.043.49-1.122-.14-2.253-.641-3.234-1.411-.991-.771-1.852-1.772-2.552-2.933-.701-1.161-1.231-2.443-1.752-3.754-.991-2.623-1.952-5.135-3.604-6.877-1.581-1.762-3.763-2.682-5.525-2.252-1.762.36-2.903 1.481-3.313 2.372-.441.931-.321 1.542-.391 1.532zM119.269 257.052c-.02 0-.05-.12-.09-.36-.03-.241-.111-.601-.121-1.061-.08-.921-.05-2.283.241-3.924.29-1.642.941-3.554 2.032-5.476 1.111-1.902 2.702-3.823 4.804-5.295 2.093-1.481 4.385-2.402 6.517-2.933 2.142-.55 4.144-.691 5.806-.59 1.661.1 2.993.39 3.863.7.451.13.771.301.991.391.221.1.331.16.331.18-.03.12-1.922-.831-5.205-.911-1.632-.05-3.584.13-5.676.691-2.082.55-4.314 1.461-6.336 2.903-2.032 1.421-3.584 3.273-4.685 5.115-1.081 1.861-1.752 3.713-2.082 5.305-.671 3.203-.27 5.265-.39 5.265z"></path><path fill="#455A64" d="M127.618 256.161c-.03 0-.06-.37-.04-1.031.02-.661.12-1.621.38-2.783.501-2.312 1.802-5.465 4.305-8.158 2.502-2.692 5.545-4.224 7.817-4.905 1.142-.35 2.093-.52 2.743-.6.661-.07 1.031-.07 1.031-.04.01.1-1.451.22-3.663.991-2.193.751-5.126 2.292-7.548 4.905-2.422 2.612-3.744 5.645-4.324 7.887-.591 2.263-.601 3.744-.701 3.734z"></path><path fill="#E8505B" d="M125.337 334.309c-2.893-8.879-9.98-17.918-17.758-14.655-8.658 3.634-11.07 8.228-15.816 15.355-4.744 7.127-7.657 15.285-10.52 23.353-1.121 3.153-2.202 6.817-.48 9.69 1.48 2.482 4.534 3.463 7.327 4.204 7.217 1.922 14.504 3.564 21.841 4.925 2.943.551 6.176 1.011 8.779-.47 3.303-1.872 4.314-6.077 5.005-9.81 2.412-13.093 4.835-26.196 7.247-39.289"></path><path fill="#E8505B" d="M116.998 315.39l-11.392 4.915c-5.755 4.534-7.387 12.302-7.187 19.619l-4.734 80.219s33.232 20.541 72.071-.94c1.011-.561-6.507-18.909-6.507-18.909l10.581-40.06c.811-5.755 1.311-17.697-.19-23.363-3.854-14.534-14.164-18.889-24.755-21.802 0 0-10.59 8.889-20.93 7.017 0 0-6.307-.58-6.957-6.696z"></path><path d="M101.647 379.343H156.90200000000002V423.547H101.647z"></path><path fill="#fff" d="M134.916 342.867c3.759 0 6.807-3.039 6.807-6.787 0-3.748-3.048-6.786-6.807-6.786-3.759 0-6.807 3.038-6.807 6.786 0 3.748 3.048 6.787 6.807 6.787zM103.184 330.294c0 3.754 3.043 6.787 6.807 6.787 3.764 0 6.807-3.043 6.807-6.787 0-3.753-3.043-6.786-6.807-6.786-3.764-.01-6.807 3.033-6.807 6.786zM97.689 395.309c0 3.754 3.043 6.787 6.806 6.787 3.764 0 6.807-3.043 6.807-6.787 0-3.754-3.053-6.787-6.807-6.787-3.763 0-6.806 3.043-6.806 6.787zM116.796 421.645c3.76 0 6.807-3.039 6.807-6.787 0-3.748-3.047-6.786-6.807-6.786-3.759 0-6.806 3.038-6.806 6.786 0 3.748 3.047 6.787 6.806 6.787zM148.529 423.297c3.759 0 6.807-3.039 6.807-6.787 0-3.748-3.048-6.787-6.807-6.787-3.759 0-6.807 3.039-6.807 6.787 0 3.748 3.048 6.787 6.807 6.787zM121.643 381.485c3.759 0 6.807-3.038 6.807-6.786 0-3.749-3.048-6.787-6.807-6.787-3.759 0-6.807 3.038-6.807 6.787 0 3.748 3.048 6.786 6.807 6.786zM114.836 360.074c3.759 0 6.806-3.038 6.806-6.787 0-3.748-3.047-6.786-6.806-6.786-3.76 0-6.807 3.038-6.807 6.786 0 3.749 3.047 6.787 6.807 6.787z"></path><path fill="#003462" d="M114.836 317.041c.12-.09.841 2.082 3.503 4.315 1.312 1.111 3.123 2.152 5.276 2.863 2.162.7 4.694 1.031 7.297.74 2.612-.32 5.015-1.131 7.067-2.142 2.052-1.001 3.763-2.172 5.135-3.243 1.371-1.071 2.412-2.022 3.113-2.693.701-.67 1.091-1.051 1.121-1.021.02.02-.31.451-.971 1.161-.661.721-1.672 1.722-3.023 2.833-1.351 1.111-3.073 2.332-5.145 3.384-2.072 1.051-4.534 1.901-7.217 2.222-2.693.3-5.295-.06-7.508-.801-2.212-.761-4.054-1.862-5.365-3.043-1.321-1.171-2.182-2.342-2.643-3.213-.26-.421-.38-.781-.5-1.011-.11-.21-.15-.341-.14-.351z"></path><path fill="#E8505B" d="M149.139 316.581c7.788 3.253 15.886 6.737 21.261 13.233 5.465 6.597 7.367 15.565 6.967 24.114-.4 8.548-2.883 16.847-5.355 25.045-.971 3.203-2.263 6.796-5.356 8.098-2.662 1.121-5.705.12-8.408-.931-6.957-2.703-13.804-5.676-20.53-8.909-2.703-1.291-5.576-2.833-6.797-5.555-1.552-3.464.12-7.448 1.782-10.861 5.815-11.992 11.631-23.974 17.447-35.966"></path><path fill="#fff" d="M165.745 364.849c3.76 0 6.807-3.039 6.807-6.787 0-3.748-3.047-6.787-6.807-6.787-3.759 0-6.806 3.039-6.806 6.787 0 3.748 3.047 6.787 6.806 6.787zM147.718 377.261c3.759 0 6.806-3.038 6.806-6.787 0-3.748-3.047-6.786-6.806-6.786-3.76 0-6.807 3.038-6.807 6.786 0 3.749 3.047 6.787 6.807 6.787zM149.521 337.141c0 3.674 2.993 6.657 6.677 6.657 3.683 0 6.676-2.983 6.676-6.657 0-3.673-2.993-6.656-6.676-6.656-3.684 0-6.677 2.983-6.677 6.656z"></path><path fill="#FFBE9D" d="M135.687 376.17l-1.732 6.687-34.594-25.215-10.59-15.055c-1.422-2.012-3.564-3.404-5.987-3.874-2.572-.501-5.235.07-7.367 1.581l-9.86 6.997s.27 5.306 2.663 4.245c2.392-1.061 7.187-3.714 7.187-3.714l1.331 12.743 5.856 4.244 5.856 4.514 39.058 38.769c8.419 8.348 22.563 6.046 27.868-4.545l5.786-16.436-25.475-10.941z"></path><path fill="#EB996E" d="M133.084 381.906c.02-.05.671.16 1.452.891.79.72 1.611 2.012 2.022 3.583.41 1.572.41 3.043.37 4.074-.04 1.041-.13 1.682-.2 1.682s-.12-.641-.17-1.672c-.061-1.031-.121-2.452-.511-3.944-.39-1.491-1.111-2.712-1.782-3.463-.67-.761-1.231-1.081-1.181-1.151zM75.346 348.483c-.06-.04.11-.441.52-1.031.401-.571 1.092-1.382 2.193-1.772 1.13-.381 2.242.01 2.793.54.57.541.55 1.081.49 1.071-.08.03-.2-.41-.73-.79-.501-.371-1.462-.641-2.383-.331-.941.331-1.612 1.021-2.082 1.512-.45.51-.73.841-.8.801zM81.544 351.886c-.06.05-.32-.18-.801-.451-.47-.26-1.181-.54-1.992-.53-.81 0-1.522.28-1.982.55-.47.271-.73.511-.79.451-.05-.04.12-.38.58-.761.46-.38 1.251-.761 2.192-.771.94 0 1.742.381 2.202.751.47.381.64.721.59.761z"></path><path fill="#003462" d="M135.686 376.17s-.24 0-.66-.16c-.421-.16-1.021-.501-1.562-1.181-.541-.671-1.001-1.662-1.141-2.883-.15-1.231.16-2.633.731-4.044.57-1.422 1.421-2.853 2.142-4.455.74-1.601 1.391-3.373 1.982-5.275 1.181-3.794 2.042-8.098 3.233-12.562 1.201-4.455 2.783-8.639 5.055-11.982 2.222-3.373 5.185-5.716 7.948-6.987 2.773-1.301 5.315-1.542 6.997-1.421 1.701.12 2.582.49 2.582.49-.01.06-.911-.23-2.592-.29-1.662-.05-4.144.23-6.837 1.551-2.683 1.292-5.556 3.594-7.708 6.927-2.212 3.293-3.753 7.428-4.945 11.852-1.191 4.434-2.062 8.749-3.283 12.562-.61 1.912-1.281 3.694-2.042 5.316-.761 1.621-1.621 3.033-2.202 4.414-.581 1.371-.901 2.713-.781 3.874.11 1.171.521 2.132 1.011 2.793.491.67 1.051 1.021 1.442 1.211.4.18.64.22.63.25zM97.297 354.438c-.14-.02.24-3.903.861-8.678.62-4.775 1.231-8.629 1.371-8.609.14.02-.24 3.904-.86 8.679-.621 4.765-1.232 8.618-1.372 8.608z"></path><path fill="#FFBE9D" d="M81.733 369.303l-1.842 14.454-22.032-18.788-12.052 2.913s12.432 26.096 22.252 36.436c9.82 10.34 15.115 11.812 18.819 11.972 5.095.22 7.417-5.976 7.417-5.976l2.222-35.926-14.784-5.085z"></path><path fill="#EB996E" d="M79.981 383.367c.12-.06.981 1.502 1.552 3.604.58 2.102.65 3.873.52 3.883-.15.02-.45-1.691-1.02-3.753-.561-2.052-1.182-3.674-1.052-3.734z"></path><path fill="#455A64" d="M55.727 328.333H39.14c-2.513 0-4.755 2.912-3.854 5.285l16.686 32.502c.64 1.261 1.942 2.052 3.364 2.052l20.23-.04c2.322-.31 3.163-2.883 2.202-4.284l-16.096-31.812c-1.111-2.272-3.414-3.703-5.946-3.703z"></path><path fill="#003462" d="M54.605 330.294H38.02c-2.082 0-3.424 2.193-2.483 4.034l16.286 31.792c.641 1.261 1.942 2.052 3.364 2.052h20c1.22 0 2.011-1.281 1.461-2.372l-16.096-31.812c-1.111-2.262-3.413-3.694-5.946-3.694z"></path><path fill="#FFBE9D" d="M53.205 343.598l-10.1 4.034-2.162 8.138 4.865 12.112 17.847 2.592-5.225-5.345.67-4.655s4.976-1.561 5.106-2.322c.12-.761-.62-3.313-1.382-3.443-.76-.12-5.985 1.822-5.985 1.822s6.176-4.895 6.006-5.676c-.17-.791-.841-2.793-2.072-3.023-1.232-.22-11.202 4.474-11.202 4.474L47.95 356l-1.412-5.906c-.01.02 8.86-2.462 6.667-6.496z"></path><path fill="#EB996E" d="M54.477 362.677c-.06.02-.25-.351-.34-1.011-.1-.651-.05-1.592.3-2.553.35-.951.93-1.702 1.43-2.132.501-.44.882-.591.912-.541.1.121-1.211 1.071-1.852 2.853-.68 1.782-.3 3.354-.45 3.384zM49.671 360.915c-.06-.03.3-.981.4-2.643.08-.821.12-1.842.511-2.933.19-.54.48-1.101.93-1.561.451-.471 1.052-.801 1.653-1.041 2.412-.881 4.584-1.582 6.176-2.102 1.591-.511 2.582-.791 2.602-.721.02.07-.93.47-2.482 1.061-1.552.601-3.734 1.371-6.106 2.232-.57.23-1.091.511-1.482.911-.39.39-.66.881-.84 1.371-.38.991-.471 1.982-.591 2.803-.2 1.692-.7 2.663-.77 2.623zM47.36 359.083c-.14-.02-.11-.911.06-1.992.18-1.081.44-1.932.58-1.902.141.02.11.911-.06 1.992-.18 1.081-.44 1.932-.58 1.902z"></path><path fill="#FAFAFA" d="M47.088 336.421c0 1.171.95 2.112 2.112 2.112 1.17 0 2.112-.951 2.112-2.112 0-1.172-.951-2.113-2.112-2.113-1.171 0-2.112.941-2.112 2.113z"></path><path fill="#EB996E" d="M88.448 369.323c.02-.02.23.15.621.491.44.39.98.881 1.652 1.481 1.471 1.362 3.463 3.193 5.825 5.386l.08.07-.01.11c-.26 3.373-.57 7.337-.9 11.571-.46 6.206-.811 11.832-1.011 15.906-.09 1.972-.16 3.603-.22 4.825-.04 1.141-.08 1.771-.12 1.771-.04 0-.06-.63-.08-1.771-.02-1.141-.01-2.793.05-4.835.1-4.084.4-9.72.86-15.926.31-4.254.65-8.228.981-11.571l.07.18c-2.312-2.242-4.264-4.124-5.696-5.516l-1.571-1.571c-.36-.381-.55-.591-.53-.601z"></path><path fill="#E0E0E0" d="M255.735 114.801L220.16 97.154c-11.932-26.006-38.177-44.074-68.658-44.074-41.711 0-75.524 33.814-75.524 75.525 0 41.711 33.813 75.525 75.524 75.525 40.661 0 73.793-32.132 75.445-72.382l28.788-16.947z"></path><path fill="#fff" d="M219.78 46.464c0 1.08-.881 1.962-1.962 1.962s-1.962-.881-1.962-1.962c0-1.082.881-1.962 1.962-1.962s1.962.87 1.962 1.962zM227.628 46.464c0 1.08-.881 1.962-1.962 1.962s-1.962-.881-1.962-1.962c0-1.082.881-1.962 1.962-1.962s1.962.87 1.962 1.962zM235.466 45.483c.54.94.22 2.142-.721 2.682s-2.142.22-2.683-.72c-.54-.941-.22-2.143.721-2.683s2.132-.22 2.683.72z"></path><path fill="#fff" d="M225.787 23.54c0-.01.13-.01.4-.01.29.01.671.02 1.161.03.26.01.541.01.861.04.32.041.661.091 1.031.141.37.05.771.11 1.201.17.421.1.871.22 1.342.33 1.881.481 4.164 1.312 6.496 2.833 2.332 1.502 4.755 3.634 6.717 6.547 1.932 2.913 3.423 6.576 3.813 10.69.04 1.032.161 2.083.06 3.144-.04.53-.03 1.07-.1 1.611-.08.54-.16 1.071-.24 1.622-.44 2.142-1.081 4.344-2.182 6.396-1.081 2.052-2.473 4.004-4.174 5.746-1.732 1.701-3.764 3.183-6.016 4.324-2.252 1.151-4.745 1.942-7.337 2.252-.641.13-1.302.13-1.952.17-.661.04-1.312.07-1.982.04-1.322-.05-2.653-.22-3.964-.5-2.853-.61-5.536-1.762-7.888-3.323l.24.02c-2.733 1.1-5.415 2.172-8.038 3.223l-.48.19.14-.49c.811-2.943 1.601-5.816 2.362-8.589l.04.21c-2.252-2.993-3.693-6.416-4.284-9.81-.3-1.701-.42-3.393-.31-5.024.03-.821.07-1.632.23-2.413.06-.39.12-.79.18-1.17.07-.391.19-.762.28-1.142 1.552-6.046 5.276-10.51 8.959-13.063 1.842-1.301 3.664-2.232 5.336-2.813.41-.15.82-.29 1.201-.43.4-.1.781-.2 1.141-.29.36-.09.711-.18 1.041-.26.33-.06.661-.1.961-.15.61-.081 1.141-.181 1.611-.201.461-.02.851-.03 1.182-.04.3-.01.54-.01.72-.02.161 0 .241.01.241.01s-.08.02-.241.03c-.18.01-.42.03-.72.06-.321.02-.711.05-1.172.08-.46.04-.991.15-1.591.24-2.362.43-5.906 1.372-9.53 4.024-3.613 2.553-7.247 6.977-8.738 12.923-.09.37-.2.74-.27 1.121-.061.38-.111.77-.171 1.151-.15.771-.18 1.562-.21 2.373-.1 1.601.03 3.263.33 4.925.591 3.323 2.012 6.666 4.225 9.599l.07.1-.03.12c-.761 2.773-1.542 5.646-2.343 8.589l-.34-.3 8.028-3.234.13-.05.11.07c2.303 1.512 4.925 2.653 7.708 3.244 1.281.27 2.582.44 3.874.49.65.03 1.291.01 1.932-.04.64-.04 1.281-.04 1.912-.16 2.532-.3 4.974-1.071 7.177-2.192 2.212-1.111 4.194-2.553 5.895-4.215 1.672-1.701 3.043-3.613 4.105-5.615 1.091-2.002 1.721-4.154 2.162-6.256l.24-1.582c.08-.52.07-1.05.11-1.571.1-1.042-.02-2.073-.05-3.084-.37-4.044-1.812-7.647-3.694-10.53-1.912-2.873-4.284-5.005-6.576-6.506-2.292-1.522-4.535-2.373-6.397-2.883-.47-.12-.91-.24-1.321-.35-.42-.07-.821-.13-1.191-.19-.37-.06-.711-.12-1.021-.17-.31-.031-.601-.041-.851-.061-.49-.04-.871-.06-1.161-.08-.25-.04-.39-.06-.39-.07z"></path><path fill="#003462" d="M197.237 120.557c.14 0 .15 7.097.01 15.836-.14 8.748-.36 15.835-.51 15.835-.141 0-.151-7.097-.01-15.835.14-8.749.37-15.836.51-15.836zM168.138 83.06c.02 0 .01.18-.03.52-.03.34-.11.841-.25 1.482-.28 1.271-.891 3.103-2.102 5.115-1.231 1.992-3.113 4.164-5.776 5.816-2.642 1.661-6.076 2.642-9.679 2.542-3.604-.11-6.977-1.281-9.52-3.093-2.562-1.792-4.314-4.074-5.435-6.136-1.101-2.082-1.602-3.934-1.812-5.225-.1-.65-.16-1.151-.17-1.492-.02-.34-.02-.52 0-.52.06 0 .1.72.37 1.982.27 1.261.821 3.073 1.932 5.085 1.131 1.992 2.883 4.194 5.385 5.916 2.483 1.741 5.756 2.852 9.26 2.963 3.503.09 6.836-.841 9.409-2.433 2.602-1.581 4.464-3.673 5.716-5.605 1.231-1.952 1.881-3.724 2.222-4.965.35-1.242.43-1.962.48-1.952zM107.028 122.689c.14 0 .26 6.917.27 15.445 0 8.529-.11 15.446-.25 15.446s-.26-6.917-.27-15.446c0-8.528.11-15.445.25-15.445z"></path><path fill="#003462" d="M136.588 80.287l29.729.01s26.877 9.55 35.615 16.256c8.739 6.697 22.142 53.893 22.142 53.893l-26.846-.79-2.012 40.53c-27.497 19.579-60.5 18.148-85.985 1.011l-1.992-38.368s-14.805-.441-22.362-.661c-7.558-.22-7.908-2.302-7.908-2.302S94.156 104.711 99.4 95.972c4.565-7.617 31.141-14.424 37.187-15.685z"></path><path fill="#FAFAFA" d="M208.108 107.364s-.34.26-1.061.62c-.721.361-1.862.781-3.393.941-1.532.17-3.444.07-5.566-.45-2.132-.491-4.444-1.462-6.907-2.633-2.472-1.151-5.135-2.542-8.218-3.363-3.073-.831-6.556-.781-10.02.12-3.473.881-6.916 2.502-10.35 4.374-3.433 1.892-6.917 4.034-10.74 5.746-3.814 1.702-7.888 2.833-11.882 2.633-3.994-.171-7.688-1.392-11.001-2.813-3.333-1.432-6.336-3.113-9.199-4.555-2.853-1.451-5.576-2.702-8.158-3.543-5.175-1.722-9.74-1.612-12.663-.841-1.471.37-2.562.841-3.283 1.191-.36.17-.62.34-.8.431-.181.1-.281.14-.281.14 0-.01.08-.07.25-.18.18-.111.43-.291.78-.471.701-.39 1.793-.891 3.284-1.301 2.943-.841 7.578-1.011 12.823.69 2.622.831 5.365 2.062 8.238 3.504 2.883 1.431 5.886 3.093 9.199 4.494 3.293 1.402 6.937 2.593 10.841 2.743 3.894.19 7.878-.911 11.651-2.592 3.784-1.692 7.257-3.824 10.711-5.716 3.453-1.882 6.937-3.514 10.48-4.394 3.524-.911 7.117-.941 10.25-.081 3.144.851 5.806 2.273 8.269 3.444 2.452 1.201 4.714 2.172 6.816 2.682 2.092.541 3.964.671 5.476.531 1.511-.13 2.642-.51 3.373-.831.701-.32 1.061-.55 1.081-.52zM217.868 129.976c-.02.03-.421-.26-1.282-.641-.851-.38-2.152-.87-3.924-1.071-1.751-.22-3.953-.13-6.396.471-2.442.59-5.085 1.782-7.838 3.373-2.762 1.572-5.625 3.574-8.918 5.416-3.274 1.791-7.088 3.513-11.402 3.613-4.304.16-8.648-1.341-12.822-3.193-4.205-1.832-8.439-4.064-13.154-5.155-4.714-1.061-9.519-.781-14.013-.02-4.515.751-8.759 1.982-12.843 3.063-4.074 1.081-7.988 2.022-11.732 2.462-3.733.441-7.287.421-10.45-.2-6.346-1.241-10.78-4.524-12.983-7.317-1.151-1.381-1.732-2.673-2.142-3.514-.15-.42-.28-.75-.37-1.001-.08-.23-.12-.34-.11-.35.1-.06.51 1.982 2.772 4.735 2.212 2.722 6.627 5.916 12.893 7.087 3.113.58 6.627.59 10.32.13 3.704-.461 7.598-1.401 11.662-2.493 4.064-1.081 8.328-2.332 12.873-3.103 4.524-.78 9.399-1.061 14.214.01 4.804 1.111 9.059 3.364 13.243 5.196 4.154 1.851 8.418 3.323 12.602 3.183 4.184-.08 7.948-1.752 11.201-3.514 3.274-1.802 6.156-3.794 8.939-5.355 2.783-1.582 5.456-2.763 7.948-3.333 2.482-.581 4.715-.641 6.496-.391 1.782.23 3.093.761 3.944 1.171.881.431 1.272.741 1.272.741zM196.348 167.083s-.27.19-.851.41c-.581.221-1.481.431-2.673.421-1.181-.01-2.622-.271-4.194-.871-1.571-.591-3.233-1.522-5.085-2.473-1.842-.96-3.964-1.821-6.376-2.152-2.402-.37-5.035-.31-7.738.12-5.455.811-11.031 3.324-16.997 5.576-2.993 1.121-5.996 2.042-8.968 2.603-2.963.58-5.876.87-8.649.96-5.556.151-10.54-.6-14.594-1.631-4.064-1.031-7.208-2.362-9.31-3.383-1.071-.481-1.842-.951-2.392-1.242-.24-.14-.44-.25-.611-.35-.14-.08-.2-.13-.2-.13 0-.01.08.02.22.09.171.08.381.18.631.3.561.26 1.351.701 2.422 1.151 2.122.961 5.266 2.243 9.31 3.214 4.044.98 8.988 1.691 14.494 1.511 2.743-.1 5.626-.4 8.558-.981 2.943-.571 5.906-1.481 8.889-2.593 5.936-2.232 11.562-4.754 17.107-5.555 2.753-.42 5.426-.46 7.878-.07 2.462.36 4.645 1.271 6.486 2.252 1.852.981 3.484 1.922 5.015 2.523 1.532.61 2.933.891 4.094.931 2.353.08 3.514-.711 3.534-.631zM195.485 188.074c-.05.05-.8-1.071-2.642-2.563-1.832-1.441-4.935-3.243-9.169-3.633-2.092-.211-4.435.01-6.777.8-2.332.841-4.604 2.263-6.787 4.004-2.192 1.742-4.334 3.784-6.716 5.726-2.373 1.932-5.085 3.774-8.258 4.735-3.174.941-6.447.991-9.5.6-3.063-.39-5.946-1.171-8.638-1.992-5.396-1.651-10.09-3.613-14.174-4.764-4.074-1.182-7.558-1.422-9.9-1.031-2.343.36-3.534.99-3.564.91 0-.01.07-.05.22-.11.181-.07.391-.17.661-.28.29-.13.651-.26 1.101-.37.441-.13.961-.271 1.552-.351 2.362-.46 5.906-.26 10.03.881 4.134 1.111 8.828 3.043 14.214 4.665 2.682.811 5.545 1.571 8.558 1.942 3.013.38 6.216.33 9.289-.591 3.083-.931 5.736-2.713 8.088-4.624 2.363-1.922 4.525-3.954 6.747-5.706 2.212-1.752 4.545-3.193 6.947-4.044 2.412-.801 4.815-1.011 6.957-.761 4.314.451 7.437 2.332 9.259 3.844 1.812 1.562 2.502 2.713 2.502 2.713z"></path><path d="M106.213 139.826H195.822V188.11399999999998H106.213z"></path><path fill="#EB996E" d="M221.883 150.376c.26 1.562 4.595 26.567 3.814 31.512-.781 4.944-2.082 11.451-7.808 13.783-5.726 2.343-14.044-.781-18.728-8.849-4.685-8.068-24.975-36.416-24.975-36.416l-15.085-1.821V123.35l28.878 18.378 13.264 12.042-1.011-4.034 21.651.64z"></path><path fill="#455A64" d="M165.607 157.814h-22.783c-1.872 0-3.383-1.512-3.383-3.383V113.33c0-1.872 1.511-3.384 3.383-3.384h22.783c1.872 0 3.383 1.512 3.383 3.384v41.101c0 1.861-1.511 3.383-3.383 3.383z"></path><path fill="#E07646" d="M186.698 141.097c.1-.11 6.376 5.316 14.013 12.112 7.648 6.797 13.764 12.403 13.674 12.513-.1.11-6.366-5.316-14.024-12.122-7.638-6.797-13.754-12.393-13.663-12.503z"></path><path fill="#EB996E" d="M80.893 151.798s-3.604 31.081-3.604 34.624c0 3.544 3.184 12.042 12.042 12.753 8.85.711 20.19-19.119 20.19-19.119l18.419-27.978-8.149-15.225-15.925 15.876-22.973-.931zM163.115 128.655l-23.843-.661-19.48 8.849 8.148 15.225 14.255-2.072s8.338-1.361 8.848-1.872c.961-.961 1.792-3.914 2.373-6.476.58-2.613.29-5.345-.841-7.768l-.541-.46s7.848-1.642 9.149-2.212c3.123-1.382 1.932-2.553 1.932-2.553z"></path><path fill="#E07646" d="M119.791 136.843c.03.02-.311.43-.931 1.131-.621.711-1.542 1.702-2.693 2.923-2.302 2.442-5.566 5.746-9.209 9.349l-9.32 9.239c-1.13 1.132-2.081 2.083-2.812 2.813-.67.661-1.051 1.011-1.071.991-.03-.02.31-.43.93-1.131.621-.711 1.542-1.702 2.693-2.923 2.303-2.442 5.566-5.745 9.22-9.349 3.603-3.574 6.866-6.807 9.319-9.239l2.813-2.813c.65-.661 1.031-1.011 1.061-.991zM143.284 135.732c-.09-.09 1.701-1.572 4.454-2.102 2.743-.561 4.975.13 4.925.24-.02.16-2.202-.27-4.815.27-2.622.501-4.474 1.732-4.564 1.592zM154.015 138.395c-.05.15-1.912-.591-4.295-.351-2.382.2-4.084 1.261-4.154 1.121-.1-.09 1.572-1.421 4.114-1.631 2.523-.261 4.415.75 4.335.861zM152.513 142.779c-.05.06-.32-.11-.77-.28-.451-.17-1.102-.281-1.822-.19-.721.1-1.322.39-1.702.67-.39.28-.601.511-.661.471-.05-.03.05-.361.431-.751.37-.39 1.051-.791 1.872-.901.831-.11 1.581.09 2.052.37.46.281.64.571.6.611z"></path><path fill="#EB996E" d="M152.333 95.262c7.908-.46 14.054-7.037 13.984-14.955-.04-4.755-.1-8.829-.1-8.829s12.062-1.871 12.212-13.933c.15-12.052-1.942-39.74-1.942-39.74-13.953-5.996-30.069-3.974-42.101 5.296l-1.782 1.37 4.074 57.037c.581 8.088 7.547 14.214 15.655 13.754z"></path><path fill="#E07646" d="M166.238 71.298s-7.618.62-15.716-4.464c0 0 3.714 8.678 15.746 7.587l-.03-3.123z"></path><path fill="#EB996E" d="M134.085 36.954c-.21-.09-8.288-2.452-8.018 5.796.26 8.238 8.488 6.276 8.488 6.046 0-.25-.47-11.842-.47-11.842z"></path><path fill="#E07646" d="M131.933 45.743c-.04-.03-.14.11-.381.22-.23.12-.64.2-1.071.06-.88-.29-1.661-1.652-1.741-3.133-.05-.75.09-1.471.34-2.072.23-.61.611-1.041 1.041-1.141.43-.11.751.14.861.37.12.23.07.39.11.41.02.02.17-.14.1-.48-.04-.16-.14-.35-.34-.51-.2-.15-.501-.23-.801-.18-.631.06-1.191.67-1.461 1.32-.311.661-.471 1.472-.421 2.313.11 1.662 1.001 3.183 2.212 3.493.581.13 1.061-.06 1.312-.26.23-.21.27-.39.24-.41z"></path><path fill="#003462" d="M172.533 38.125c.03.911-.71 1.682-1.661 1.742-.951.05-1.742-.64-1.772-1.551-.03-.911.711-1.692 1.662-1.742.951-.05 1.741.65 1.771 1.551zM174.204 34.762c-.21.22-1.521-.74-3.373-.74-1.852-.02-3.213.93-3.414.7-.1-.1.121-.51.711-.94.581-.431 1.582-.852 2.733-.842 1.151.01 2.122.43 2.683.871.57.44.77.841.66.951zM153.964 38.346c.03.91-.711 1.681-1.662 1.741-.95.05-1.741-.64-1.771-1.551-.03-.911.71-1.692 1.661-1.742.951-.06 1.742.64 1.772 1.552zM155.997 35.102c-.21.22-1.522-.74-3.374-.74-1.851-.02-3.213.93-3.413.7-.1-.1.12-.51.711-.94.58-.43 1.571-.851 2.732-.841 1.152.01 2.123.43 2.683.87.571.441.761.851.661.951zM162.723 48.846c-.01-.11 1.141-.3 3.013-.54.471-.05.921-.14 1.001-.471.11-.34-.09-.85-.32-1.401-.441-1.142-.911-2.343-1.402-3.604-1.941-5.125-3.353-9.35-3.143-9.42.211-.08 1.952 4.015 3.894 9.15.471 1.261.911 2.472 1.342 3.623.18.54.49 1.151.25 1.852-.13.35-.471.61-.781.69-.3.09-.571.101-.801.111-1.882.1-3.053.11-3.053.01zM157.268 50.127c.3-.02.3 1.992 2.022 3.424 1.721 1.431 3.864 1.2 3.874 1.491.03.13-.481.39-1.382.41-.891.03-2.182-.25-3.233-1.13-1.051-.872-1.502-2.043-1.572-2.873-.07-.841.151-1.332.291-1.322z"></path><path fill="#E8505B" d="M156.477 27.845c-.18.5-2.032.26-4.204.53-2.182.221-3.934.852-4.224.401-.131-.22.18-.69.88-1.181.701-.49 1.822-.951 3.134-1.091 1.301-.14 2.502.06 3.293.39.791.31 1.191.711 1.121.951zM173.525 29.397c-.331.42-1.602-.02-3.134-.04-1.531-.07-2.832.28-3.133-.16-.13-.21.07-.631.641-1.031.561-.4 1.491-.721 2.553-.691 1.051.03 1.971.41 2.502.85.541.431.711.862.571 1.072z"></path><path fill="#E8505B" d="M182.363 10.188c.13-1.492-.43-3.103-1.641-3.974-1.221-.881-3.103-.821-4.094.31.57-2.012-1.081-4.334-3.163-4.464-1.962-.12-3.644 1.361-5.546 1.882-1.852.51-3.844.07-5.626-.651-1.781-.72-3.453-1.712-5.255-2.372-3.763-1.372-8.078-1.202-11.721.47-3.644 1.672-6.587 4.825-7.998 8.578-2.633-.82-5.636.511-7.257 2.753-1.622 2.232-2.042 5.165-1.722 7.908.22 1.852.751 3.644 1.381 5.405 0 .15-.02.31-.01.46.12 6.627.871 14.415 3.704 14.455 4.925.08 3.754-9.209 3.754-9.209 6.046-2.342 3.793-11.401 5.305-12.773 1.511-1.371 4.674-4.574 17.347 1.902 4.915 2.513 11.461 2.433 15.025 1.622l.31-.06c.02-.01.05-.01.07-.02.04-.01.07-.03.1-.04 1.142-.3 2.233-.741 3.254-1.382 1.151-.73 2.192-1.711 2.672-2.973.491-1.27.301-2.852-.69-3.773.941-1.171 1.671-2.563 1.801-4.054z"></path><path fill="#003462" d="M429.717 410.364l-129.849-.601c-15.615-.07-28.217-12.783-28.157-28.408l1.371-325.522c.07-15.626 12.793-28.238 28.418-28.168l129.849.6c15.615.07 28.218 12.783 28.157 28.409l-1.371 325.522c-.07 15.625-12.793 28.238-28.418 28.168z"></path><path fill="#FAFAFA" d="M431.169 39.507l-25.175-.12c-3.373-.02-6.126 2.832-6.136 6.366l-.02 4.564c-.01 3.534-2.762 6.377-6.136 6.367l-49.068-.23c-3.374-.02-6.096-2.894-6.086-6.417l.02-4.565c.01-3.533-2.713-6.406-6.086-6.416l-8.859-.04-22.032-.1c-10.941-.05-19.85 8.779-19.9 19.73L280.35 376.38c-.05 10.941 8.779 19.84 19.72 19.89l129.588.6c10.941.05 19.849-8.778 19.899-19.729l1.342-317.735c.03-10.95-8.789-19.85-19.73-19.9z"></path><path fill="#E8505B" d="M312.05 89.746c0 3.444-2.793 6.227-6.226 6.227-3.444 0-6.227-2.793-6.227-6.227 0-3.443 2.793-6.226 6.227-6.226 3.443 0 6.226 2.783 6.226 6.226zM323.672 85.062h104.493c3.194 0 5.786 2.592 5.786 5.785v15.826c0 3.193-2.592 5.786-5.786 5.786h-93.592c-3.193 0-5.786-2.593-5.786-5.786V89.666l-5.115-4.604z"></path><path fill="#fff" d="M417.195 94.882c0 .14-16.046.26-35.836.26-19.789 0-35.835-.12-35.835-.26s16.036-.26 35.835-.26c19.79 0 35.836.12 35.836.26zM417.195 101.338c0 .14-16.046.26-35.836.26-19.789 0-35.835-.12-35.835-.26s16.036-.26 35.835-.26c19.79 0 35.836.11 35.836.26z"></path><path fill="#E8505B" d="M312.05 242.958c0 3.443-2.793 6.226-6.226 6.226-3.444 0-6.227-2.793-6.227-6.226 0-3.443 2.793-6.226 6.227-6.226 3.443 0 6.226 2.783 6.226 6.226zM323.672 238.273h104.493c3.194 0 5.786 2.593 5.786 5.786v15.826c0 3.193-2.592 5.786-5.786 5.786h-93.592c-3.193 0-5.786-2.593-5.786-5.786v-17.007l-5.115-4.605z"></path><path fill="#fff" d="M417.195 248.093c0 .14-16.046.26-35.836.26-19.789 0-35.835-.12-35.835-.26s16.036-.26 35.835-.26c19.79 0 35.836.12 35.836.26zM417.195 254.55c0 .14-16.046.26-35.836.26-19.789 0-35.835-.12-35.835-.26 0-.141 16.036-.261 35.835-.261 19.79 0 35.836.11 35.836.261z"></path><path fill="#003462" d="M421.41 143.73c3.378 0 6.116-2.739 6.116-6.116 0-3.378-2.738-6.116-6.116-6.116-3.378 0-6.116 2.738-6.116 6.116 0 3.377 2.738 6.116 6.116 6.116zM406.655 129.015h-97.867c-2.993 0-5.415 2.423-5.415 5.416v14.824c0 2.993 2.422 5.416 5.415 5.416h87.657c2.993 0 5.415-2.423 5.415-5.416v-15.926l4.795-4.314z"></path><path fill="#fff" d="M319.058 138.214c0-.14 15.025-.26 33.563-.26 18.539 0 33.563.12 33.563.26s-15.024.26-33.563.26c-18.528 0-33.563-.11-33.563-.26zM319.058 144.26c0-.14 15.025-.26 33.563-.26 18.539 0 33.563.12 33.563.26s-15.024.26-33.563.26c-18.528 0-33.563-.12-33.563-.26z"></path><path fill="#003462" d="M299.597 180.737c0 3.443 2.793 6.226 6.227 6.226 3.443 0 6.226-2.793 6.226-6.226 0-3.444-2.793-6.227-6.226-6.227-3.434 0-6.227 2.793-6.227 6.227zM327.555 171.718h97.867c2.993 0 5.415 2.422 5.415 5.415v14.825c0 2.993-2.422 5.415-5.415 5.415h-87.657c-2.993 0-5.416-2.422-5.416-5.415v-15.926l-4.794-4.314z"></path><path fill="#fff" d="M415.141 180.917c0 .14-15.025.26-33.563.26-18.539 0-33.564-.12-33.564-.26s15.025-.261 33.564-.261c18.538 0 33.563.121 33.563.261zM415.141 186.963c0 .14-15.025.26-33.563.26-18.539 0-33.564-.12-33.564-.26s15.025-.26 33.564-.26c18.538 0 33.563.12 33.563.26z"></path><path fill="#003462" d="M422.96 226.051h-23.614c-2.212 0-3.994-1.791-3.994-3.994v-8.538c0-2.212 1.792-3.994 3.994-3.994h23.614c2.212 0 3.994 1.792 3.994 3.994v8.538c0 2.203-1.792 3.994-3.994 3.994z"></path><path fill="#fff" d="M421.328 217.793c0 .14-4.154.26-9.279.26s-9.279-.12-9.279-.26 4.154-.26 9.279-.26c5.125-.01 9.279.11 9.279.26z"></path><path fill="#E0E0E0" d="M307.776 319.404h-15.475v15.475h15.475v-15.475zM326.185 319.404H310.71v15.475h15.475v-15.475zM344.602 319.404h-15.475v15.475h15.475v-15.475zM363.011 319.404h-15.476v15.475h15.476v-15.475zM381.42 319.404h-15.476v15.475h15.476v-15.475zM308.477 357.592h-16.176v16.176h16.176v-16.176zM389.598 357.631h-78.047v16.177h78.047v-16.177z"></path><path fill="#003462" d="M436.844 314.909s-.01-.4-.02-1.171c-.01-.781-.02-1.922-.03-3.413-.02-3.013-.04-7.448-.07-13.233l.12.12c-26.166.03-81.1.08-144.533.14h-.01l.26-.26v17.817l-.26-.26c40.66.04 76.766.08 102.702.11 12.983.03 23.423.06 30.63.08 3.594.02 6.386.03 8.288.04.941.01 1.662.01 2.162.02.501 0 .761.01.761.01s-.23.01-.711.02c-.49 0-1.201.01-2.122.02-1.892.01-4.664.02-8.238.04-7.197.02-17.617.04-30.57.08-25.996.03-62.152.07-102.892.111h-.26v-.261-18.078h.27c63.433.06 118.367.12 144.533.14h.12v.121c-.03 5.805-.05 10.27-.07 13.293-.01 1.481-.02 2.612-.03 3.393l-.03 1.121z"></path><path fill="#E8505B" d="M426.785 307.612h-.741c-.82 0-1.481-.661-1.481-1.481v-4.395c0-.821.661-1.481 1.481-1.481h.741c.821 0 1.482.66 1.482 1.481v4.395c0 .82-.661 1.481-1.482 1.481z"></path><path fill="#E8505B" d="M430.898 306.161c0 .05-.43.11-1.181.15l.15-.14c-.04.62-.2 1.451-.751 2.292-.28.41-.67.811-1.191 1.071-.51.27-1.121.35-1.721.33-1.182-.02-2.193-.73-2.733-1.501-.551-.781-.801-1.552-.911-2.172l.15.13c-.861-.04-1.361-.1-1.361-.16s.5-.111 1.361-.161l.12-.01.04.131c.15.54.451 1.271.971 1.951.521.671 1.362 1.242 2.393 1.262.52.02 1.041-.05 1.471-.261.43-.21.771-.53 1.031-.88.521-.711.731-1.492.831-2.052l.03-.141.12.01c.751.04 1.181.091 1.181.151z"></path><path fill="#E8505B" d="M426.415 309.614c.14 0 .26.511.26 1.131 0 .631-.12 1.131-.26 1.131-.141 0-.261-.51-.261-1.131 0-.62.12-1.131.261-1.131z"></path><path fill="#E0E0E0" d="M408.406 357.592H392.23v16.176h16.176v-16.176z"></path><path fill="#E8505B" d="M436.835 357.592H411.47v16.176h25.365v-16.176z"></path><path fill="#E0E0E0" d="M400.018 319.404h-15.475v15.475h15.475v-15.475zM418.425 319.404H402.95v15.475h15.475v-15.475zM436.834 319.404h-15.475v15.475h15.475v-15.475zM307.776 338.493h-15.475v15.475h15.475v-15.475zM326.185 338.493H310.71v15.475h15.475v-15.475zM344.602 338.493h-15.475v15.475h15.475v-15.475zM363.011 338.493h-15.476v15.475h15.476v-15.475zM381.42 338.493h-15.476v15.475h15.476v-15.475zM400.018 338.493h-15.475v15.475h15.475v-15.475zM418.425 338.493H402.95v15.475h15.475v-15.475zM436.834 338.493h-15.475v15.475h15.475v-15.475z"></path><path fill="#E8505B" d="M361.63 283.708c-.01 1.462-1.212 2.643-2.683 2.633-1.471-.01-2.673-1.201-2.663-2.663.01-1.461 1.212-2.642 2.683-2.632 1.472 0 2.673 1.191 2.663 2.662zM369.917 283.738c-.01 1.462-1.211 2.643-2.682 2.633-1.472-.01-2.673-1.201-2.663-2.663.01-1.461 1.211-2.642 2.683-2.632 1.471.01 2.662 1.201 2.662 2.662zM378.197 283.778c-.01 1.462-1.211 2.643-2.683 2.633-1.481-.01-2.672-1.201-2.662-2.663.01-1.461 1.211-2.642 2.682-2.632 1.482.01 2.673 1.201 2.663 2.662z"></path></svg> 