<?xml version="1.0" encoding="UTF-8"?>
<!DOCTYPE svg PUBLIC "-//W3C//DTD SVG 1.1//EN" "http://www.w3.org/Graphics/SVG/1.1/DTD/svg11.dtd">
<!-- Creator: CorelDRAW X8 -->
<svg xmlns="http://www.w3.org/2000/svg" xml:space="preserve" width="10.8506mm" height="6.0289mm" version="1.1" style="shape-rendering:geometricPrecision; text-rendering:geometricPrecision; image-rendering:optimizeQuality; fill-rule:evenodd; clip-rule:evenodd"
viewBox="0 0 180266 100161"
 xmlns:xlink="http://www.w3.org/1999/xlink">
 <defs>
  <style type="text/css">
   <![CDATA[
    .fil0 {fill:#616161;fill-rule:nonzero}
    .fil5 {fill:#6F6F6F;fill-rule:nonzero}
    .fil6 {fill:#838383;fill-rule:nonzero}
    .fil1 {fill:#B4B4B4;fill-rule:nonzero}
    .fil3 {fill:#C2C2C2;fill-rule:nonzero}
    .fil2 {fill:#C3C3C3;fill-rule:nonzero}
    .fil8 {fill:#E5AF31;fill-rule:nonzero}
    .fil9 {fill:#E9CB6F;fill-rule:nonzero}
    .fil7 {fill:#FFE28C;fill-rule:nonzero}
    .fil4 {fill:white;fill-rule:nonzero}
   ]]>
  </style>
 </defs>
 <g id="Слой_x0020_1">
  <metadata id="CorelCorpID_0Corel-Layer"/>
  <g id="_981629000">
   <g>
    <g>
     <path class="fil0" d="M123062 82286c4609,-711 8805,-2058 12376,-5138 3351,-2891 5178,-7049 8217,-10188 3203,-3307 7650,-5917 12046,-7221 2439,-725 5162,-766 7157,1000 2417,2143 635,3975 -1277,5429 -2453,1866 -5730,3381 -7465,6031 -1136,1736 -1508,4919 763,6027 4769,2329 17083,-2701 11079,7376 -563,944 906,1798 1466,858 1314,-2203 3455,-6151 712,-8209 -2390,-1793 -6037,-1362 -8833,-1303 -1087,22 -3328,388 -4012,-634 -1547,-2304 1359,-4522 2962,-5737 2537,-1917 6330,-3553 7526,-6723 1128,-2986 -3140,-5881 -5587,-6180 -4577,-559 -9083,1771 -12818,4170 -3806,2447 -6225,5444 -8831,9070 -4142,5759 -8877,8648 -15933,9733 -1079,167 -618,1804 452,1639z"/>
    </g>
   </g>
   <path class="fil1" d="M180266 90668c0,2831 -6023,5123 -13452,5123 -7431,0 -13454,-2292 -13454,-5123 0,-2828 6023,-5122 13454,-5122 7429,0 13452,2294 13452,5122z"/>
   <path class="fil2" d="M137220 93037c0,1763 -14073,2274 -15595,2274l-105311 0c-1518,0 -15593,-511 -15593,-2274l12842 -17335c0,-1762 1233,-3191 2751,-3191l105311 0c1522,0 2753,1429 2753,3191l12842 17335z"/>
   <path class="fil3" d="M125754 73252c0,1518 -1231,2751 -2753,2751l-108062 0c-1519,0 -2751,-1233 -2751,-2751l0 -70499c0,-1520 1232,-2753 2751,-2753l108062 0c1522,0 2753,1233 2753,2753l0 70499z"/>
   <path class="fil4" d="M117804 68316c0,1308 -1060,2366 -2366,2366l-92935 0c-1306,0 -2368,-1058 -2368,-2366l0 -60629c0,-1306 1062,-2366 2368,-2366l92935 0c1306,0 2366,1060 2366,2366l0 60629z"/>
   <polygon class="fil0" points="48747,88146 20398,88146 24983,79278 48747,79278 "/>
   <polygon class="fil0" points="89194,88146 117542,88146 112955,79278 89194,79278 "/>
   <polygon class="fil0" points="121147,88146 129314,88146 122893,79278 115641,79278 "/>
   <polygon class="fil0" points="16796,88146 8627,88146 15048,79278 22299,79278 "/>
   <polygon class="fil0" points="86814,88146 51126,88146 51126,79278 86814,79278 "/>
   <path class="fil0" d="M137940 97408c0,1520 -314,2753 -1833,2753l-134273 0c-1520,0 -1834,-1233 -1834,-2753l0 -2359c0,-1520 314,-2751 1834,-2751l134273 0c1519,0 1833,1231 1833,2751l0 2359z"/>
   <g>
    <g>
     <path class="fil4" d="M68971 3680c1478,0 1478,-2293 0,-2293 -1479,0 -1479,2293 0,2293z"/>
    </g>
   </g>
   <polygon class="fil5" points="168241,92439 165794,92439 165794,85330 168241,85330 "/>
   <path class="fil6" d="M180266 90618l0 4256c0,843 -1369,1529 -3059,1529l-20788 0c-1690,0 -3059,-686 -3059,-1529l0 -4256 26906 0z"/>
   <g>
    <g>
     <g>
      <polygon class="fil7" points="91618,52763 46322,52763 46322,21380 91618,21380 "/>
     </g>
     <g>
      <polygon class="fil8" points="46322,52763 68971,37021 91618,52763 "/>
      <g>
       <polygon class="fil9" points="68936,37068 46322,52763 46322,21380 "/>
       <polygon class="fil9" points="69002,37068 91618,52763 91618,21380 "/>
      </g>
      <g>
       <path class="fil7" d="M68971 38003c-296,0 -590,-88 -843,-264l-17211 -13257c-530,-369 -761,-1039 -568,-1655 192,-615 766,-1033 1408,-1033l34425 0c646,0 1216,418 1409,1033 191,616 -37,1286 -567,1655l-17213 13257c-251,176 -546,264 -840,264z"/>
      </g>
     </g>
    </g>
   </g>
   <polygon class="fil2" points="127880,83911 10061,83911 10061,82157 127880,82157 "/>
  </g>
 </g>
</svg>
