<?xml version="1.0" encoding="UTF-8"?>
<!DOCTYPE svg PUBLIC "-//W3C//DTD SVG 1.1//EN" "http://www.w3.org/Graphics/SVG/1.1/DTD/svg11.dtd">
<!-- Creator: CorelDRAW X8 -->
<svg xmlns="http://www.w3.org/2000/svg" xml:space="preserve" width="10.1978mm" height="6.4528mm" version="1.1" style="shape-rendering:geometricPrecision; text-rendering:geometricPrecision; image-rendering:optimizeQuality; fill-rule:evenodd; clip-rule:evenodd"
viewBox="0 0 160835 101771"
 xmlns:xlink="http://www.w3.org/1999/xlink">
 <defs>
  <style type="text/css">
   <![CDATA[
    .fil0 {fill:#D6D6D6}
    .fil8 {fill:#3D496D;fill-rule:nonzero}
    .fil6 {fill:#616161;fill-rule:nonzero}
    .fil11 {fill:#6F6F6F;fill-rule:nonzero}
    .fil4 {fill:#6FA9E2;fill-rule:nonzero}
    .fil7 {fill:#838383;fill-rule:nonzero}
    .fil10 {fill:#ACACAC;fill-rule:nonzero}
    .fil2 {fill:#D6D6D6;fill-rule:nonzero}
    .fil13 {fill:#E5AF31;fill-rule:nonzero}
    .fil5 {fill:#EBEBEB;fill-rule:nonzero}
    .fil9 {fill:#F2F2F2;fill-rule:nonzero}
    .fil1 {fill:#F4DABC;fill-rule:nonzero}
    .fil3 {fill:#FFDC73;fill-rule:nonzero}
    .fil12 {fill:#FFE28C;fill-rule:nonzero}
   ]]>
  </style>
 </defs>
 <g id="Слой_x0020_1">
  <metadata id="CorelCorpID_0Corel-Layer"/>
  <g id="_979374856">
   <rect class="fil0" y="96905" width="160836" height="4867"/>
   <g>
    <polygon class="fil1" points="105999,68373 89278,68373 89278,48797 105999,48797 "/>
   </g>
   <g>
    <polygon class="fil2" points="110615,89966 84660,89966 84660,60979 110615,60979 "/>
   </g>
   <g>
    <polygon class="fil3" points="100315,67222 97639,68373 94962,67222 93562,84326 97639,92929 101714,84326 "/>
   </g>
   <g>
    <path class="fil3" d="M97639 61202c-1238,-500 -5355,0 -5355,0l0 1943 2678 4077 2677 1151 2676 -1151 2676 -4077 0 -1943c0,0 -4116,-500 -5352,0z"/>
   </g>
   <g>
    <path class="fil1" d="M114353 33461c-1326,-1689 -3255,483 -3255,483 0,-16214 -13459,-14233 -13459,-14233 0,0 -13461,-1981 -13461,14233 0,0 -1929,-2172 -3256,-483 -1328,1688 481,11699 3256,9649 0,0 2605,13871 13461,13871 10855,0 13459,-13871 13459,-13871 2774,2050 4583,-7961 3255,-9649z"/>
   </g>
   <g>
    <path class="fil4" d="M109089 58585l-11450 29211 -11452 -29211c-26970,0 -22703,38322 -22703,38322l34155 0 34153 0c0,0 4266,-38322 -22703,-38322z"/>
   </g>
   <g>
    <path class="fil5" d="M97639 61202c0,0 -5380,-1448 -11531,6755l-1448 -9167c0,0 2481,-4156 4342,-4102 0,0 5209,5067 8637,6514z"/>
   </g>
   <g>
    <path class="fil5" d="M97639 61202c0,0 5378,-1448 11529,6755l1447 -9167c0,0 -2480,-4156 -4341,-4102 0,0 -5210,5067 -8635,6514z"/>
   </g>
   <g>
    <path class="fil6" d="M107083 26700c0,0 -10588,10171 -22905,7244 0,0 -1309,-1218 -2336,-1098 0,0 -2379,-12292 6659,-16123 9038,-3833 17353,-2025 20173,2023 0,0 3109,0 4121,2531 1013,2530 781,11607 781,11607 0,0 -850,-156 -2478,1060 0,0 -1730,-2002 -4015,-7244z"/>
   </g>
   <g>
    <g>
     <path class="fil7" d="M116232 35384l-2194 -739c36,-104 3443,-10511 -1380,-17217 -2789,-3875 -7842,-5839 -15019,-5839 -7184,0 -12241,1967 -15026,5846 -4829,6724 -1412,17106 -1375,17210l-2192 739c-160,-470 -3827,-11621 1687,-19299 3246,-4518 8933,-6810 16906,-6810 7971,0 13658,2292 16904,6812 5513,7676 1846,18827 1689,19297z"/>
    </g>
    <g>
     <path class="fil8" d="M106524 50504c-697,0 -1372,-24 -1995,-48 -552,-19 -1071,-37 -1538,-37l0 -1158c480,0 1013,19 1581,39 2730,100 6129,224 8064,-1641 1066,-1029 1583,-2551 1583,-4656l1158 0c0,2402 -653,4249 -1938,5488 -1778,1715 -4484,2013 -6915,2013z"/>
    </g>
    <g>
     <path class="fil7" d="M84042 43878c27,319 -208,599 -527,626l-5692 492c-318,29 -599,-208 -626,-526l-957 -11060c-27,-318 208,-599 527,-626l5691 -492c319,-28 598,208 627,525l957 11061z"/>
    </g>
    <g>
     <path class="fil7" d="M111234 43878c-27,319 208,599 526,626l5692 492c319,29 600,-208 627,-526l957 -11060c27,-318 -208,-599 -527,-626l-5692 -492c-317,-28 -598,208 -626,525l-957 11061z"/>
    </g>
    <g>
     <path class="fil4" d="M104127 50709c0,318 -259,579 -579,579l-2760 0c-320,0 -579,-261 -579,-579l0 -1740c0,-320 259,-579 579,-579l2760 0c320,0 579,259 579,579l0 1740z"/>
    </g>
   </g>
   <g>
    <g>
     <polygon class="fil9" points="99069,93175 85499,93175 91417,97891 "/>
    </g>
    <g>
     <polygon class="fil10" points="24424,57931 87483,57931 91592,98741 30518,98741 "/>
    </g>
    <g>
     <path class="fil11" d="M91625 98792l8177 -3500c0,0 967,-2137 -733,-2117l-7652 3767 208 1850z"/>
    </g>
   </g>
   <g>
    <path class="fil4" d="M43167 0c-10012,0 -18128,6045 -18128,13500 0,7457 8116,13501 18128,13501 1127,0 2222,-88 3293,-233 1465,3427 -1172,7751 -1172,7751 6657,-2069 7298,-7190 7234,-9472 5254,-2364 8774,-6643 8774,-11547 0,-7455 -8116,-13500 -18129,-13500z"/>
   </g>
   <g>
    <g>
     <path class="fil12" d="M37210 14857c0,1020 -827,1848 -1845,1848 -1019,0 -1847,-828 -1847,-1848 0,-1022 828,-1849 1847,-1849 1018,0 1845,827 1845,1849z"/>
    </g>
    <g>
     <path class="fil12" d="M45015 14857c0,1020 -828,1848 -1847,1848 -1020,0 -1846,-828 -1846,-1848 0,-1022 826,-1849 1846,-1849 1019,0 1847,827 1847,1849z"/>
    </g>
    <g>
     <path class="fil12" d="M52817 14857c0,1020 -828,1848 -1843,1848 -1024,0 -1850,-828 -1850,-1848 0,-1022 826,-1849 1850,-1849 1015,0 1843,827 1843,1849z"/>
    </g>
   </g>
   <g>
    <path class="fil13" d="M24454 13008c-8716,0 -15778,5260 -15778,11750 0,4268 3066,7993 7633,10051 -53,1983 505,6442 6298,8244 0,0 -2296,-3761 -1020,-6747 930,126 1884,204 2867,204 8715,0 15778,-5263 15778,-11752 0,-6490 -7063,-11750 -15778,-11750z"/>
   </g>
   <g>
    <path class="fil9" d="M16648 29602c-1018,0 -1845,-828 -1845,-1850 0,-1018 827,-1846 1845,-1846 1022,0 1849,828 1849,1846 0,1022 -827,1850 -1849,1850z"/>
   </g>
   <g>
    <path class="fil9" d="M24454 29602c-1022,0 -1849,-828 -1849,-1850 0,-1018 827,-1846 1849,-1846 1019,0 1845,828 1845,1846 0,1022 -826,1850 -1845,1850z"/>
   </g>
   <g>
    <path class="fil9" d="M32256 29602c-1019,0 -1845,-828 -1845,-1850 0,-1018 826,-1846 1845,-1846 1020,0 1848,828 1848,1846 0,1022 -828,1850 -1848,1850z"/>
   </g>
  </g>
 </g>
</svg>
