<?xml version="1.0" encoding="UTF-8"?>
<!DOCTYPE svg PUBLIC "-//W3C//DTD SVG 1.1//EN" "http://www.w3.org/Graphics/SVG/1.1/DTD/svg11.dtd">
<!-- Creator: CorelDRAW X8 -->
<svg xmlns="http://www.w3.org/2000/svg" xml:space="preserve" width="5.4894mm" height="6.1567mm" version="1.1" style="shape-rendering:geometricPrecision; text-rendering:geometricPrecision; image-rendering:optimizeQuality; fill-rule:evenodd; clip-rule:evenodd"
viewBox="0 0 50263 56373"
 xmlns:xlink="http://www.w3.org/1999/xlink">
 <defs>
  <style type="text/css">
   <![CDATA[
    .fil0 {fill:#6F6F6F;fill-rule:nonzero}
    .fil5 {fill:#838383;fill-rule:nonzero}
    .fil2 {fill:#EBEBEB;fill-rule:nonzero}
    .fil4 {fill:#FFCE31;fill-rule:nonzero}
    .fil1 {fill:white;fill-rule:nonzero}
    .fil3 {fill:white;fill-rule:nonzero;fill-opacity:0.501961}
   ]]>
  </style>
 </defs>
 <g id="Слой_x0020_1">
  <metadata id="CorelCorpID_0Corel-Layer"/>
  <g id="_981628040">
   <g>
    <path class="fil0" d="M34450 53823c1,1393 -1266,2523 -2825,2524l-28737 26c-1563,1 -2828,-1127 -2830,-2518l-57 -51306c-2,-1393 1264,-2521 2824,-2522l28737 -26c1563,-1 2829,1125 2830,2518l58 51304z"/>
    <g>
     <g>
      <path class="fil1" d="M29096 2806c0,695 -633,1259 -1412,1260 -781,1 -1415,-563 -1416,-1258 -1,-697 633,-1261 1413,-1262 780,0 1415,563 1415,1260z"/>
      <g>
       <g>
        <g>
         <path class="fil1" d="M11542 3489c860,0 860,-1335 0,-1335 -861,0 -861,1335 0,1335z"/>
        </g>
       </g>
       <g>
        <g>
         <path class="fil1" d="M14369 3486c861,0 861,-1335 0,-1335 -860,0 -860,1335 0,1335z"/>
        </g>
       </g>
       <g>
        <g>
         <path class="fil1" d="M17196 3483c861,0 861,-1335 0,-1335 -861,0 -861,1335 0,1335z"/>
        </g>
       </g>
       <g>
        <g>
         <path class="fil1" d="M20023 3480c861,0 861,-1335 0,-1335 -860,0 -860,1335 0,1335z"/>
        </g>
       </g>
       <g>
        <g>
         <path class="fil1" d="M22850 3479c860,0 860,-1335 0,-1335 -861,0 -861,1335 0,1335z"/>
        </g>
       </g>
      </g>
     </g>
     <g>
      <path class="fil1" d="M18783 53009c1,753 -683,1364 -1529,1365 -846,1 -1533,-609 -1534,-1364l0 -420c-1,-753 687,-1365 1531,-1366 846,-1 1531,610 1532,1364l0 421z"/>
      <g>
       <g>
        <g>
         <path class="fil1" d="M11599 53762c861,0 861,-1335 0,-1335 -860,0 -860,1335 0,1335z"/>
        </g>
       </g>
       <g>
        <g>
         <path class="fil1" d="M22907 53752c860,0 860,-1335 0,-1335 -861,0 -861,1335 0,1335z"/>
        </g>
       </g>
      </g>
     </g>
    </g>
    <g>
     <path class="fil2" d="M30555 47197c2,1391 -1259,2521 -2824,2522l-20966 20c-1560,1 -2829,-1128 -2830,-2518l-42 -38853c-2,-1392 1261,-2521 2825,-2523l20967 -19c1560,-1 2828,1126 2829,2519l41 38852z"/>
     <g>
      <polygon class="fil3" points="11045,5841 3902,16842 3911,24381 15947,5836 "/>
      <polygon class="fil3" points="21130,5832 3919,32346 3924,36950 24126,5830 "/>
      <path class="fil3" d="M4975 49169l25541 -39345 -2 -1479c-1,-1088 -776,-2014 -1859,-2367l-24723 38091 3 3152c0,785 406,1487 1040,1948z"/>
      <polygon class="fil3" points="30524,18194 10054,49735 13049,49732 30529,22799 "/>
      <polygon class="fil3" points="23404,49723 30546,38720 30540,33695 20136,49726 "/>
     </g>
    </g>
   </g>
   <g>
    <path class="fil4" d="M50263 25074c0,2075 -1682,3758 -3757,3758l-23833 0c-2076,0 -3758,-1683 -3758,-3758l0 -9850c0,-2075 1682,-3758 3758,-3758l23833 0c2075,0 3757,1683 3757,3758l0 9850z"/>
    <polygon class="fil4" points="29736,28091 22532,28145 26181,34354 "/>
   </g>
   <path class="fil5" d="M28683 23391l-1263 0 0 -4779c-461,433 -1005,755 -1631,962l0 -1152c330,-107 689,-312 1073,-615 388,-301 652,-653 796,-1054l1025 0 0 6638zm7843 -1171l0 1171 -4434 0c47,-446 192,-866 433,-1265 239,-398 714,-926 1420,-1585 571,-531 919,-893 1047,-1083 175,-261 262,-519 262,-775 0,-282 -75,-499 -227,-652 -151,-152 -360,-227 -625,-227 -265,0 -474,79 -630,240 -155,159 -245,423 -269,792l-1263 -125c75,-698 310,-1199 707,-1503 395,-302 891,-455 1485,-455 651,0 1164,176 1536,528 372,352 558,790 558,1315 0,297 -53,580 -158,850 -108,270 -276,551 -508,846 -152,196 -431,478 -830,845 -401,367 -654,610 -760,731 -108,120 -194,237 -260,352l2516 0zm2488 -579l1225 -150c39,314 144,554 314,720 171,166 377,249 617,249 260,0 478,-100 657,-298 176,-198 266,-466 266,-804 0,-317 -85,-572 -255,-758 -171,-186 -379,-279 -624,-279 -162,0 -353,32 -578,96l139 -1026c342,8 601,-67 782,-226 179,-156 269,-367 269,-630 0,-223 -67,-400 -199,-533 -132,-132 -308,-198 -527,-198 -216,0 -401,75 -553,226 -153,150 -246,371 -280,659l-1162 -198c82,-402 204,-724 368,-965 163,-240 391,-428 684,-567 292,-137 620,-206 983,-206 621,0 1119,198 1493,597 310,326 465,694 465,1105 0,579 -316,1045 -952,1391 379,81 681,262 908,546 224,282 338,624 338,1023 0,579 -211,1074 -634,1483 -422,409 -948,613 -1579,613 -595,0 -1090,-173 -1481,-518 -395,-345 -622,-794 -684,-1352z"/>
  </g>
 </g>
</svg>
