<?xml version="1.0" encoding="UTF-8"?>
<!DOCTYPE svg PUBLIC "-//W3C//DTD SVG 1.1//EN" "http://www.w3.org/Graphics/SVG/1.1/DTD/svg11.dtd">
<!-- Creator: CorelDRAW X8 -->
<svg xmlns="http://www.w3.org/2000/svg" xml:space="preserve" width="5.0908mm" height="8.4637mm" version="1.1" style="shape-rendering:geometricPrecision; text-rendering:geometricPrecision; image-rendering:optimizeQuality; fill-rule:evenodd; clip-rule:evenodd"
viewBox="0 0 69224 115089"
 xmlns:xlink="http://www.w3.org/1999/xlink">
 <defs>
  <style type="text/css">
   <![CDATA[
    .fil12 {fill:#116BC4}
    .fil3 {fill:#3A6287}
    .fil13 {fill:#4D94DB}
    .fil15 {fill:#5480AA}
    .fil5 {fill:#83B8E6}
    .fil7 {fill:#ACD85B}
    .fil9 {fill:#CCCCCC}
    .fil0 {fill:#E8B68C}
    .fil6 {fill:#EF6256}
    .fil14 {fill:#F9CD7E}
    .fil2 {fill:#FBBA95}
    .fil8 {fill:#FFAE00}
    .fil1 {fill:#FFD6B6}
    .fil11 {fill:#FFE8D6}
    .fil4 {fill:white}
    .fil10 {fill:white;fill-rule:nonzero}
   ]]>
  </style>
 </defs>
 <g id="Слой_x0020_1">
  <metadata id="CorelCorpID_0Corel-Layer"/>
  <polygon class="fil0" points="23917,73466 45949,82669 32404,115089 6530,115089 "/>
  <path class="fil0" d="M28901 50576l31860 13310 -4676 13811c-4318,10335 -12965,16068 -19470,13349l-9132 -3815c-6507,-2718 -9606,-10265 -6888,-16772l8306 -19883z"/>
  <polygon class="fil1" points="23146,72693 45176,81896 31311,115089 5435,115089 "/>
  <path class="fil1" d="M28130 49804l32790 13698 -5608 13423c-4317,10336 -12963,16067 -19469,13349l-9133 -3816c-6506,-2718 -9605,-10265 -6887,-16770l8307 -19884z"/>
  <path class="fil2" d="M53977 22284l0 0c-2125,-888 -4591,125 -5479,2249l-12189 29179c-888,2125 124,4591 2249,5479l0 0c2126,887 4591,-124 5479,-2250l12189 -29178c888,-2125 -124,-4591 -2249,-5479z"/>
  <path class="fil0" d="M44623 21186l0 0c2127,888 3138,3353 2250,5478l-15207 36403c-888,2126 -3354,3139 -5479,2251l0 0c-2125,-888 -3138,-3354 -2251,-5479l15210 -36403c886,-2125 3352,-3138 5477,-2250z"/>
  <path class="fil1" d="M24090 84548c-9440,-2339 -9353,-14676 -6330,-22007 1873,-4542 16107,7344 23730,11403 -1876,7733 -9713,12508 -17400,10604z"/>
  <path class="fil0" d="M20394 82829c1163,3677 5306,4353 9021,5892 4065,1685 6889,4129 10771,2472 -3405,735 -6129,-1947 -10193,-3632 -3715,-1539 -7369,-1596 -9599,-4732z"/>
  <path class="fil0" d="M63409 24007l1 0c1915,1281 2434,3895 1153,5809l-21925 32800c-1280,1914 -3893,2434 -5808,1154l-1 0c-1915,-1281 -2434,-3894 -1153,-5809l21924 -32799c1280,-1915 3894,-2434 5809,-1155z"/>
  <path class="fil1" d="M63039 23019l0 0c1914,1281 2434,3894 1154,5809l-21925 32799c-1281,1915 -3895,2434 -5809,1155l0 0c-1915,-1281 -2434,-3895 -1155,-5809l21926 -32800c1279,-1915 3894,-2434 5809,-1154z"/>
  <g id="_979368616">
   <path class="fil3" d="M29404 0l28002 0c2282,0 4148,1866 4148,4147l0 65268c0,2282 -1866,4147 -4148,4147l-28002 0c-2282,0 -4147,-1865 -4147,-4147l0 -65268c0,-2281 1865,-4147 4147,-4147z"/>
   <polygon class="fil4" points="28000,9052 58811,9052 58811,61510 28000,61510 "/>
  </g>
  <g id="_979369600">
   <g>
    <polygon class="fil3" points="28000,33307 38220,33307 38220,34441 28000,34441 "/>
    <polygon class="fil5" points="28000,25893 28756,25893 28756,33307 28000,33307 "/>
    <polygon class="fil6" points="29181,29600 31910,29600 31910,33307 29181,33307 "/>
    <polygon class="fil7" points="32336,21406 35065,21406 35065,33307 32336,33307 "/>
    <polygon class="fil8" points="35491,23440 38220,23440 38220,33307 35491,33307 "/>
   </g>
   <g>
    <path class="fil3" d="M32122 38091c2916,0 5279,2363 5279,5277 0,2915 -2363,5279 -5279,5279 -1668,0 -3156,-775 -4122,-1984l0 -6590c966,-1209 2454,-1982 4122,-1982z"/>
    <path class="fil7" d="M32122 43368l-4042 3394c-27,-33 -55,-65 -80,-99l0 -6590c966,-1209 2454,-1982 4122,-1982l0 5277z"/>
    <path class="fil8" d="M32122 43368l-4122 0 0 -3295c966,-1209 2454,-1982 4122,-1982l0 5277z"/>
    <polygon class="fil6" points="32122,43368 28000,43368 28000,41438 "/>
   </g>
   <g>
    <polygon class="fil9" points="28000,52111 31498,52111 31498,53133 28000,53133 "/>
    <polygon class="fil9" points="28000,53848 38134,53848 38134,54869 28000,54869 "/>
    <polygon class="fil9" points="28000,55584 38134,55584 38134,56606 28000,56606 "/>
    <polygon class="fil9" points="28000,57321 38134,57321 38134,58342 28000,58342 "/>
    <polygon class="fil9" points="28000,59056 38134,59056 38134,60077 28000,60077 "/>
   </g>
   <g>
    <polygon class="fil9" points="28000,10857 31498,10857 31498,11878 28000,11878 "/>
    <polygon class="fil9" points="28000,12592 38134,12592 38134,13613 28000,13613 "/>
    <polygon class="fil9" points="28000,14328 38134,14328 38134,15349 28000,15349 "/>
    <polygon class="fil9" points="28000,16065 38134,16065 38134,17086 28000,17086 "/>
    <polygon class="fil9" points="28000,17801 38134,17801 38134,18822 28000,18822 "/>
   </g>
  </g>
  <g id="_979355344">
   <polygon class="fil6" points="42786,10810 51319,10810 51319,12569 42786,12569 "/>
   <polygon class="fil5" points="42786,13999 58846,13999 58846,20046 42786,20046 "/>
   <path class="fil10" d="M44357 15972c48,-60 129,-60 178,0 49,60 50,158 0,218l-673 832 673 832c50,61 49,158 0,219 -49,60 -130,60 -178,-1l-762 -940 -1 -1 -2 -2 0 -1 -1 -1 -1 -2 -2 -2 0 0 -1 -3 -1 0 -2 -3 0 0 -1 -3 -2 -1 -1 -3 0 0 -1 -2 0 0 -2 -3 0 -2 -1 -2 -1 0 -2 -3 0 -1 -1 -3 0 0 -1 -4 -2 -3 0 0 -1 -3 0 -1 0 -3 -2 0 0 -2 0 -2 -1 -2 0 0 -1 -3 0 -1 0 -3 -2 -2 0 -2 0 0 -1 -3 0 -1 0 -3 0 -1 -1 -3 0 0 0 -3 0 -1 0 -3 0 -1 -2 -3 0 0 0 -4 0 0 0 -3 0 -1 0 -3 0 -1 0 -3 0 0 0 -3 0 -1 0 -3 0 -1 0 -3 0 -1 0 -3 0 0 0 -3 0 -1 0 -3 0 -1 2 -3 0 0 0 -3 0 -1 0 -3 0 -1 1 -3 0 0 0 -2 0 -2 1 -3 0 -1 0 -3 2 0 0 -2 0 -2 1 -2 0 -2 1 -2 0 0 0 -3 2 -2 0 -2 0 0 1 -3 0 -1 2 -3 1 -3 0 -1 1 -3 0 0 2 -3 1 -1 1 -3 0 0 2 -2 0 -2 1 -1 0 -1 1 -3 2 0 1 -3 0 0 2 -3 1 -1 1 -1 0 -2 2 -2 1 0 1 -3 0 0 2 -3 1 0 762 -941z"/>
   <polygon class="fil8" points="42786,21515 50639,21515 50639,23227 42786,23227 "/>
   <polygon class="fil5" points="52300,21515 58846,21515 58846,23227 52300,23227 "/>
   <polygon class="fil6" points="42786,24086 50639,24086 50639,29951 42786,29951 "/>
   <polygon class="fil8" points="52300,24086 58846,24086 58846,29951 52300,29951 "/>
   <polygon class="fil9" points="42786,31886 49959,31886 49959,33076 42786,33076 "/>
   <polygon class="fil9" points="42786,34067 58846,34067 58846,35257 42786,35257 "/>
   <polygon class="fil9" points="42786,36274 58846,36274 58846,37464 42786,37464 "/>
   <polygon class="fil9" points="42786,38482 58846,38482 58846,39672 42786,39672 "/>
   <polygon class="fil9" points="42786,40689 58846,40689 58846,41879 42786,41879 "/>
   <polygon class="fil9" points="42786,42897 58846,42897 58846,44087 42786,44087 "/>
   <polygon class="fil9" points="42786,45104 58846,45104 58846,46294 42786,46294 "/>
   <polygon class="fil9" points="42786,47313 58846,47313 58846,48503 42786,48503 "/>
   <polygon class="fil7" points="42786,53434 58846,53434 58846,60027 42786,60027 "/>
   <polygon class="fil6" points="42786,50688 50639,50688 50639,52400 42786,52400 "/>
  </g>
  <path class="fil0" d="M24189 71760l4630 -13880c1994,-5977 -5318,-10745 -6910,-5483l-4304 13587c-1800,3765 1198,6603 6584,5776z"/>
  <path class="fil0" d="M25143 59703l8747 -7639c4744,-4145 2932,-13462 -1209,-9846l-10255 8955c-2247,1962 273,6015 2717,8530z"/>
  <path class="fil1" d="M23080 73071l4929 -15742c1882,-6012 -5319,-10744 -6912,-5483l-4304 13587c-1799,3766 901,8465 6287,7638z"/>
  <path class="fil0" d="M67491 47003l0 0c1868,1347 2294,3978 946,5845l-3055 4239c-1348,1868 -3979,2294 -5847,946 -1869,-1346 -2294,-3977 -947,-5845l3057 -4239c1347,-1868 3977,-2294 5846,-946z"/>
  <path class="fil0" d="M65009 35703l0 0c1868,1347 2294,3979 946,5847l-4725 6553c-1347,1868 -3979,2294 -5847,946l0 0c-1868,-1347 -2294,-3977 -946,-5846l4726 -6552c1348,-1869 3978,-2296 5846,-948z"/>
  <path class="fil1" d="M64639 34714c1867,1348 2294,3979 947,5847l-4727 6553c-1348,1869 -3979,2294 -5847,948l0 -1c-1867,-1347 -2294,-3978 -947,-5846l4727 -6553c1348,-1868 3979,-2294 5847,-948z"/>
  <path class="fil11" d="M55546 47963c-1301,-819 -1840,-1994 -1321,-2747 1669,-2427 3051,-2679 4539,-1715 1384,1107 1582,2498 -195,4849 -552,729 -1836,588 -3023,-387z"/>
  <polygon class="fil12" points="6566,103981 33157,115089 34805,115089 42475,96733 14480,85037 "/>
  <polygon class="fil13" points="20564,109828 33157,115089 34805,115089 42475,96733 28477,90886 "/>
  <path class="fil14" d="M15616 89610c685,286 1009,1073 722,1759 -286,684 -1073,1007 -1757,722 -685,-287 -1009,-1073 -722,-1758 286,-686 1073,-1008 1757,-723z"/>
  <g id="_979357840">
   <path class="fil1" d="M24824 58678l8748 -7639c4746,-4145 2933,-13462 -1208,-9847l-10255 8956c-2248,1962 272,6014 2715,8530z"/>
   <path class="fil11" d="M31215 46368c3393,-2574 3131,-5191 2158,-5830 -318,132 -655,344 -1009,654l-4190 3659c976,1246 2197,2158 3041,1517z"/>
  </g>
  <path class="fil1" d="M67121 46014l0 0c1867,1348 2294,3979 946,5846l-3057 4238c-1347,1869 -3978,2294 -5847,948l0 0c-1868,-1347 -2294,-3979 -946,-5847l3057 -4238c1347,-1869 3978,-2294 5847,-947z"/>
  <path class="fil11" d="M59589 56456c-1301,-817 -1840,-1992 -1322,-2745 1669,-2429 3052,-2679 4539,-1715 1384,1107 1583,2498 -194,4848 -552,730 -1836,588 -3023,-388z"/>
  <g id="_979358992">
   <polygon class="fil12" points="9131,93233 40404,106298 36732,115089 0,115089 "/>
   <polygon class="fil13" points="24767,99765 40404,106298 36732,115089 18367,115089 "/>
  </g>
  <path class="fil15" d="M34630 65217l15431 0c2408,0 2407,3024 0,3024l-15431 0c-2407,0 -2408,-3024 0,-3024z"/>
  <path class="fil15" d="M41011 2748l4788 0c577,0 1047,471 1047,1047 0,575 -470,1047 -1047,1047l-4788 -1c-576,0 -1047,-471 -1047,-1047 0,-575 471,-1046 1047,-1046z"/>
  <g id="_979359304">
   <path class="fil1" d="M32866 81857c-12940,3527 -16215,-5287 -6894,-18697 9627,1132 11258,13235 6894,18697z"/>
   <path class="fil0" d="M32866 81857c1949,-5995 391,-15908 -6894,-18697 9627,1132 11258,13235 6894,18697z"/>
  </g>
 </g>
</svg>
