<?xml version="1.0" encoding="UTF-8"?>
<!DOCTYPE svg PUBLIC "-//W3C//DTD SVG 1.1//EN" "http://www.w3.org/Graphics/SVG/1.1/DTD/svg11.dtd">
<!-- Creator: CorelDRAW X8 -->
<svg xmlns="http://www.w3.org/2000/svg" xml:space="preserve" width="3.7034mm" height="6.6733mm" version="1.1" style="shape-rendering:geometricPrecision; text-rendering:geometricPrecision; image-rendering:optimizeQuality; fill-rule:evenodd; clip-rule:evenodd"
viewBox="0 0 16449 29640"
 xmlns:xlink="http://www.w3.org/1999/xlink">
 <defs>
  <style type="text/css">
   <![CDATA[
    .fil0 {fill:#566080;fill-rule:nonzero}
    .fil3 {fill:#EDC32D;fill-rule:nonzero}
    .fil2 {fill:#F4D685;fill-rule:nonzero}
    .fil1 {fill:#C9C9C9;fill-rule:nonzero}
    .fil4 {fill:white;fill-rule:nonzero}
   ]]>
  </style>
 </defs>
 <g id="Слой_x0020_1">
  <metadata id="CorelCorpID_0Corel-Layer"/>
  <g id="_979352560">
   <path class="fil0" d="M15508 574l-859 0 -2794 0 -10342 0c-516,0 -940,422 -940,941l0 2092 0 1468 0 586 0 1471 0 1028 0 2794 0 17746c0,516 424,940 940,940l13995 0c517,0 941,-424 941,-940l0 -27185c0,-519 -424,-941 -941,-941zm-8724 1244l0 0 3454 0c152,0 277,123 277,275 0,153 -125,277 -277,277l-3454 0c-154,0 -277,-124 -277,-277 0,-152 123,-275 277,-275zm1726 26914l0 0c-666,0 -1207,-540 -1207,-1208 0,-667 541,-1208 1207,-1208 669,0 1209,541 1209,1208 0,668 -540,1208 -1209,1208zm6696 -23657l0 0 0 20124 -13391 0 0 -20124 0 -1468 13391 0 0 1468z"/>
   <polygon class="fil1" points="1815,5075 15206,5075 15206,3607 1815,3607 "/>
   <path class="fil1" d="M14547 174c-26,-102 -119,-174 -224,-174l-2141 0c-106,0 -199,72 -224,174l-103 400 2794 0 -102 -400z"/>
   <polygon class="fil2" points="14101,7599 13426,7599 13426,10063 "/>
   <polygon class="fil2" points="14101,13668 13426,13668 13426,16133 "/>
   <polygon class="fil2" points="14101,19739 13426,19739 13426,22203 "/>
   <polygon class="fil0" points="13426,22592 9815,22592 9815,22855 13426,22855 "/>
   <polygon class="fil3" points="13426,19739 13426,19486 11898,19486 11574,18788 9815,18788 9815,19486 9815,19914 9815,22203 13426,22203 "/>
   <polygon class="fil0" points="13426,16521 9815,16521 9815,16785 13426,16785 "/>
   <polygon class="fil3" points="13426,13668 13426,13416 11898,13416 11574,12719 9815,12719 9815,13416 9815,13845 9815,16133 13426,16133 "/>
   <polygon class="fil0" points="13426,10452 9815,10452 9815,10715 13426,10715 "/>
   <path class="fil4" d="M1815 25199l13391 0 0 -20124 -13391 0 0 20124zm8000 -17425l0 0 0 -428 0 -698 1759 0 324 698 1528 0 0 253 675 0 -675 2464 -3611 0 0 -2289zm0 2678l0 0 3611 0 0 263 -3611 0 0 -263zm0 3393l0 0 0 -429 0 -697 1759 0 324 697 1528 0 0 252 675 0 -675 2465 -3611 0 0 -2288zm0 2676l0 0 3611 0 0 264 -3611 0 0 -264zm0 3393l0 0 0 -428 0 -698 1759 0 324 698 1528 0 0 253 675 0 -675 2464 -3611 0 0 -2289zm0 2678l0 0 3611 0 0 263 -3611 0 0 -263zm-6526 -14818l0 0 0 -428 0 -698 1759 0 324 698 1528 0 0 253 676 0 -676 2464 -3611 0 0 -2289zm0 2678l0 0 3611 0 0 263 -3611 0 0 -263zm0 3393l0 0 0 -429 0 -697 1759 0 324 697 1528 0 0 252 676 0 -676 2465 -3611 0 0 -2288zm0 2676l0 0 3611 0 0 264 -3611 0 0 -264zm0 3393l0 0 0 -428 0 -698 1759 0 324 698 1528 0 0 253 676 0 -676 2464 -3611 0 0 -2289zm0 2678l0 0 3611 0 0 263 -3611 0 0 -263z"/>
   <polygon class="fil3" points="13426,7599 13426,7346 11898,7346 11574,6648 9815,6648 9815,7346 9815,7774 9815,10063 13426,10063 "/>
   <path class="fil1" d="M6784 2370l3454 0c152,0 277,-124 277,-277 0,-152 -125,-275 -277,-275l-3454 0c-154,0 -277,123 -277,275 0,153 123,277 277,277z"/>
   <path class="fil1" d="M8510 26316c-666,0 -1207,541 -1207,1208 0,668 541,1208 1207,1208 669,0 1209,-540 1209,-1208 0,-667 -540,-1208 -1209,-1208z"/>
   <polygon class="fil2" points="7576,7599 6900,7599 6900,10063 "/>
   <polygon class="fil2" points="7576,13668 6900,13668 6900,16133 "/>
   <polygon class="fil2" points="7576,19739 6900,19739 6900,22203 "/>
   <polygon class="fil0" points="6900,22592 3289,22592 3289,22855 6900,22855 "/>
   <polygon class="fil3" points="6900,19739 6900,19486 5372,19486 5048,18788 3289,18788 3289,19486 3289,19914 3289,22203 6900,22203 "/>
   <polygon class="fil0" points="6900,16521 3289,16521 3289,16785 6900,16785 "/>
   <polygon class="fil3" points="6900,13668 6900,13416 5372,13416 5048,12719 3289,12719 3289,13416 3289,13845 3289,16133 6900,16133 "/>
   <polygon class="fil0" points="6900,10452 3289,10452 3289,10715 6900,10715 "/>
   <polygon class="fil3" points="6900,7599 6900,7346 5372,7346 5048,6648 3289,6648 3289,7346 3289,7774 3289,10063 6900,10063 "/>
   <path class="fil1" d="M174 8263c-103,25 -174,117 -174,224l0 2141c0,105 71,198 174,224l399 102 0 -2794 -399 103z"/>
   <path class="fil1" d="M174 5764c-103,27 -174,120 -174,224l0 817c0,106 71,198 174,224l399 103 0 -1471 -399 103z"/>
   <path class="fil1" d="M174 3710c-103,26 -174,117 -174,223l0 817c0,105 71,198 174,224l399 101 0 -1468 -399 103z"/>
  </g>
 </g>
</svg>
