<?xml version="1.0" encoding="UTF-8"?>
<!DOCTYPE svg PUBLIC "-//W3C//DTD SVG 1.1//EN" "http://www.w3.org/Graphics/SVG/1.1/DTD/svg11.dtd">
<!-- Creator: CorelDRAW X8 -->
<svg xmlns="http://www.w3.org/2000/svg" xml:space="preserve" width="162.56mm" height="91.44mm" version="1.1" style="shape-rendering:geometricPrecision; text-rendering:geometricPrecision; image-rendering:optimizeQuality; fill-rule:evenodd; clip-rule:evenodd"
viewBox="0 0 16256020 9144000"
 xmlns:xlink="http://www.w3.org/1999/xlink">
 <defs>
  <style type="text/css">
   <![CDATA[
    .str1 {stroke:#1C211F;stroke-width:7620}
    .str0 {stroke:#1F2B36;stroke-width:7620}
    .fil2 {fill:#0B233B}
    .fil8 {fill:#101B2E}
    .fil11 {fill:#1C211F}
    .fil17 {fill:#1F2B36}
    .fil1 {fill:#1F3F5B}
    .fil4 {fill:#26445D}
    .fil24 {fill:#264B6E}
    .fil19 {fill:#3A4854}
    .fil6 {fill:#3B6D9C}
    .fil5 {fill:#3D5D79}
    .fil32 {fill:#426B91}
    .fil12 {fill:#545656}
    .fil20 {fill:#5489BA}
    .fil22 {fill:#5990C3}
    .fil18 {fill:#647585}
    .fil9 {fill:gray}
    .fil21 {fill:#C8E9EF}
    .fil3 {fill:#E3BE4D}
    .fil30 {fill:#F5CA56}
    .fil10 {fill:#FFCD5B}
    .fil7 {fill:#FFDB71}
    .fil31 {fill:#FFDD90}
    .fil28 {fill:#003E62;fill-rule:nonzero}
    .fil27 {fill:#039995;fill-rule:nonzero}
    .fil13 {fill:#0B233B;fill-rule:nonzero}
    .fil26 {fill:#116BC4;fill-rule:nonzero}
    .fil37 {fill:#1C211F;fill-rule:nonzero}
    .fil29 {fill:#1C6D83;fill-rule:nonzero}
    .fil14 {fill:#1F2B36;fill-rule:nonzero}
    .fil39 {fill:#232A3F;fill-rule:nonzero}
    .fil38 {fill:#31384F;fill-rule:nonzero}
    .fil36 {fill:#3A4854;fill-rule:nonzero}
    .fil25 {fill:#4D94DB;fill-rule:nonzero}
    .fil23 {fill:#5990C3;fill-rule:nonzero}
    .fil16 {fill:#626B8E;fill-rule:nonzero}
    .fil15 {fill:#8C90A7;fill-rule:nonzero}
    .fil33 {fill:white;fill-rule:nonzero}
    .fil34 {fill:#4D94DB;fill-rule:nonzero;fill-opacity:0.200000}
    .fil0 {fill:url(#id3)}
    .fil35 {fill:url(#id4)}
   ]]>
  </style>
   <mask id="id0">
  <linearGradient id="id1" gradientUnits="userSpaceOnUse" x1="6.06597e+06" y1="2.81837e+06" x2="6.06601e+06" y2="3.1464e+06">
   <stop offset="0" style="stop-opacity:1; stop-color:white"/>
   <stop offset="1" style="stop-opacity:0; stop-color:white"/>
  </linearGradient>
    <rect style="fill:url(#id1)" x="4984940" y="2696210" width="2616650" height="454000"/>
   </mask>
    <clipPath id="id2">
     <path d="M6674660 5365210l3016390 41060 0 509030 -3016390 -41060 0 -509030z"/>
    </clipPath>
  <linearGradient id="id3" gradientUnits="userSpaceOnUse" x1="1.4418e+06" y1="1.40231e+06" x2="1.4418e+06" y2="7.37434e+06">
   <stop offset="0" style="stop-opacity:1; stop-color:#114687"/>
   <stop offset="1" style="stop-opacity:1; stop-color:#101B2E"/>
  </linearGradient>
  <linearGradient id="id4" gradientUnits="userSpaceOnUse" x1="6.7426e+06" y1="5.61786e+06" x2="1.02385e+07" y2="5.61849e+06">
   <stop offset="0" style="stop-opacity:1; stop-color:#FFDB71"/>
   <stop offset="1" style="stop-opacity:1; stop-color:#F5CA56"/>
  </linearGradient>
 </defs>
 <g id="Слой_x0020_1">
  <metadata id="CorelCorpID_0Corel-Layer"/>
  <rect class="fil0" x="20" width="16255999" height="9144000"/>
  <polygon class="fil1" points="12223840,1454250 10414190,1454250 10414190,4842980 12223840,4842980 "/>
  <polygon class="fil2" points="12223830,1454250 12223830,4781300 10414190,4781300 10414190,1454250 "/>
  <path class="fil3" d="M10929330 1695920c47350,0 91490,13820 128570,37660 -90620,21680 -157990,103200 -157990,200450 0,97260 67370,178780 157990,200460 -37080,23830 -81220,37660 -128570,37660 -131500,0 -238110,-106610 -238110,-238120 0,-131500 106610,-238110 238110,-238110z"/>
  <path class="fil4" d="M12223830 2544530l-165080 0 0 88000 32060 0 0 155820 -32060 0 0 67800 165080 0 0 -311620zm-165080 2130940l0 0 165080 0 0 -98160 -165080 0 0 98160zm0 -253980l0 0 165080 0 0 -67800 -165080 0 0 67800zm0 -223620l0 0 165080 0 0 -67800 -55600 0 0 -155820 55600 0 0 -67800 -165080 0 0 291420zm0 -447240l0 0 165080 0 0 -291420 -165080 0 0 67800 32060 0 0 155820 -32060 0 0 67800zm0 -447240l0 0 0 -67800 32050 0 0 -155820 -32050 0 0 -67800 165080 0 0 -155820 -55600 0 0 155820 55600 0 0 291420 -165080 0zm0 -758860l0 0 -283090 0 0 88000 283090 0 0 -88000zm-283090 2130940l0 0 283090 0 0 -98160 -283090 0 0 98160zm0 -253980l0 0 283090 0 0 -67800 -32060 0 0 -155820 32060 0 0 -291420 -173590 0 0 -155820 173590 0 0 -67800 -283090 0 0 291420 173610 0 0 155820 -173610 0 0 67800 32050 0 0 155820 -32050 0 0 67800zm283090 -962280l0 0 -173620 0 0 -155820 173620 0 0 -67800 -32060 0 0 -155820 32060 0 0 -67800 -173590 0 0 -155820 173590 0 0 -67800 -283090 0 0 67800 32050 0 0 155820 -32050 0 0 67800 173610 0 0 155820 -173610 0 0 67800 32050 0 0 155820 -32050 0 0 67800 283090 0 0 -67800zm-283090 -914680l0 0 -120150 0 0 677380 -81140 -49860 0 84470 21650 12600c0,53300 0,106590 0,159710 -7220,-3760 -14440,-7470 -21650,-11180l0 70100 21650 10460c0,53470 0,106590 0,159880l-21650 -9120 0 70190c7210,2810 14430,5630 21650,8490 0,53120 0,106410 0,159520l-21650 -6970 0 301490c7210,1450 14430,2880 21650,4320 0,53290 0,106580 0,159700l-21650 -2950 0 332710 201290 0 0 -98160 -32060 0 0 -155820 32060 0 0 -67800 -32060 0 0 -155820 32060 0 0 -67800 -32060 0 0 -155820 32060 0 0 -291420 -32060 0 0 -155820 32060 0 0 -67800 -32060 0 0 -155820 32060 0 0 -67800 -32060 0 0 -155820 32060 0 0 -67800 -32060 0 0 -155820 32060 0 0 -67800 -32060 0 0 -155820 32060 0 0 -88000zm-201290 627520l0 0 -95610 -58760 0 808830c7210,2120 14440,4220 21650,6360 0,55440 0,110880 0,166140 -7210,-1700 -14440,-3350 -21650,-5000l0 72760c7210,1450 14440,2880 21650,4310 0,55450 0,110880 0,166140l-21650 -2950 0 72760c7210,780 14440,1540 21650,2260 0,55430 0,110870 0,166130 -7210,-260 -14440,-580 -21650,-890l0 105330 95610 0 0 -332710 -21660 -2960c0,-54000 0,-108200 0,-162560 7220,1520 14430,3000 21660,4450l0 -301490 -21660 -6980c0,-54180 0,-108360 0,-162560 7220,2860 14430,5680 21660,8500l0 -70190 -21660 -9120c0,-54190 0,-108380 0,-162560l21660 10460 0 -70100c-7230,-3710 -14440,-7430 -21660,-11180 0,-54000 0,-108200 0,-162560l21660 12610 0 -84470zm-95610 -58760l0 0 -95610 -58750 0 91130c7220,4170 14440,8380 21660,12570 0,57590 0,115000 0,172230l-21660 -11000 0 324960c7220,2790 14440,5610 21660,8480 0,57400 0,114800 0,172210 -7220,-2410 -14440,-4780 -21660,-7130l0 75810 21660 6430c0,57410 0,114810 0,172220 -7220,-1620 -14440,-3270 -21660,-4920l0 607940 95610 0 0 -105330c-7220,-320 -14440,-630 -21650,-900 0,-56330 0,-112480 0,-168990 7210,800 14430,1610 21650,2390l0 -72760 -21650 -2950c0,-56330 0,-112490 0,-169000 7210,1520 14430,2990 21650,4450l0 -72760c-7220,-1650 -14440,-3310 -21650,-5010 0,-56330 0,-112490 0,-169000 7210,2240 14430,4380 21650,6510l0 -808830zm-95610 -58750l0 0 -95610 -58760 0 352740c7220,3490 14430,6980 21650,10380 0,59740 0,119280 0,178660 -7220,-2960 -14430,-5960 -21650,-8970l0 336790c7220,2120 14430,4270 21650,6420 0,59730 0,119100 0,178640 -7220,-1600 -14430,-3250 -21650,-4930l0 78260 21650 4300c0,59720 0,119270 0,178640l-21650 -2950 0 78340c7220,760 14430,1520 21650,2230 0,59730 0,119280 0,178660 -7220,-270 -14430,-540 -21650,-830l0 113310 95610 0 0 -607940c-7220,-1660 -14440,-3310 -21650,-4920 0,-58300 0,-116780 0,-175260l21650 6450 0 -75810c-7220,-2350 -14440,-4680 -21650,-7010 0,-58280 0,-116600 0,-174890 7210,2770 14430,5540 21650,8340l0 -324960 -21650 -11000c0,-58480 0,-116780 0,-175250 7210,4110 14430,8270 21650,12450l0 -91130zm-95610 -58760l0 0 -95610 -58750 0 97670c7230,4180 14440,8370 21670,12670 0,61700 0,123220 0,184910 -7230,-3750 -14440,-7460 -21670,-11170l0 81010 21670 10460c0,61870 0,123390 0,185090 -7230,-3130 -14440,-6170 -21670,-9180l0 81160c7230,2820 14440,5640 21670,8500 0,61520 0,123210 0,184740 -7230,-2320 -14440,-4650 -21670,-7000l0 81210 21670 6440c0,61690 0,123400 0,184920 -7230,-1710 -14440,-3360 -21670,-5010l0 81010 21670 4290c0,61870 0,123400 0,185090l-21670 -2950 0 80920c7230,770 14440,1530 21670,2330 0,61880 0,123380 0,184910 -7230,-270 -14440,-540 -21670,-820l0 117240 95610 0 0 -113310c-7220,-290 -14430,-600 -21650,-970 0,-60260 0,-120700 0,-181320 7220,710 14430,1470 21650,2230l0 -78340 -21650 -2950c0,-60440 0,-120710 0,-181330l21650 4290 0 -78260c-7220,-1680 -14430,-3380 -21650,-5080 0,-60440 0,-120880 0,-181330 7220,2050 14430,4150 21650,6280l0 -336790c-7220,-3020 -14430,-6060 -21650,-9100 0,-60440 0,-120890 0,-181340 7220,3400 14430,6890 21650,10370l0 -352740zm-95610 -58750l0 0 -81200 -49900 -272380 127330 0 -294180 -109150 -67070 0 113620 29130 16950c0,71700 0,143370 0,214820 -9710,-5060 -19420,-10040 -29130,-15040l0 94300 29130 14070c0,71930 0,143380 0,215050l-29130 -12260 0 94410c9710,3790 19420,7580 29130,11430 0,71450 0,143130 0,214570l-29130 -9380 0 94410c9710,2830 19420,5660 29130,8550 0,71900 0,143360 0,215040 -9710,-2290 -19420,-4510 -29130,-6730l0 94260c9710,1960 19420,3880 29130,5810 0,71690 0,143360 0,214810l-29130 -3970 0 94330c9710,1050 19420,2130 29130,3210 0,71690 0,143380 0,214800 -9710,-350 -19420,-770 -29130,-1190l0 136390 462730 0 0 -117240c-7220,-300 -14440,-600 -21660,-970 0,-62410 0,-125000 0,-187770 7220,810 14440,1560 21660,2320l0 -80920 -21660 -2950c0,-62600 0,-125180 0,-187770l21660 4290 0 -81010c-7220,-1660 -14440,-3310 -21660,-5020 0,-62580 0,-125000 0,-187770l21660 6440 0 -81210c-7220,-2350 -14440,-4720 -21660,-7130 0,-62420 0,-125010 0,-187600 7220,2860 14440,5680 21660,8490l0 -81160c-7220,-3020 -14440,-6010 -21660,-9060 0,-62590 0,-125180 0,-187770l21660 10460 0 -81010c-7220,-3710 -14440,-7420 -21660,-11180 0,-62590 0,-125000 0,-187770 7220,4200 14440,8360 21660,12540l0 -97670zm-462730 -283820l0 0 -128600 -79040 0 764690c9710,3790 19420,7570 29120,11420 0,74340 0,148900 0,223230 -9700,-3240 -19410,-6430 -29120,-9590l0 421380c9710,1960 19420,3880 29120,5810 0,74570 0,149150 0,223470l-29120 -3970 0 464860 128600 0 0 -136390c-9710,-410 -19420,-830 -29130,-1200 0,-72890 0,-145760 0,-218660 9710,960 19420,1980 29130,3040l0 -94330 -29130 -3980c0,-72630 0,-145530 0,-218650 9710,2040 19420,4030 29130,5980l0 -94260c-9710,-2230 -19420,-4460 -29130,-6740 0,-72880 0,-145770 0,-218650 9710,2880 19420,5700 29130,8530l0 -94410 -29130 -9370c0,-72900 0,-145790 0,-218680 9710,3850 19420,7640 29130,11430l0 -94410 -29130 -12270c0,-72890 0,-145770 0,-218660l29130 14070 0 -94300c-9710,-4990 -19420,-9980 -29130,-15040 0,-72640 0,-145530 0,-218650l29130 16960 0 -113620zm-128600 -79040l0 0 -128600 -79030 0 122580c9710,5620 19420,11270 29130,16920 0,77460 0,154670 0,231650l-29130 -14790 0 101510 29130 14080c0,77450 0,154670 0,231890 -9710,-4100 -19420,-8120 -29130,-12160l0 1107860c9710,1020 19420,2050 29130,3130 0,77460 0,154670 0,231900 -9710,-490 -19420,-910 -29130,-1300l0 147060 128600 0 0 -464860 -29120 -3970c0,-75760 0,-151300 0,-227310 9710,2040 19420,4020 29120,5970l0 -421380c-9700,-3160 -19410,-6280 -29120,-9410 0,-75770 0,-151320 0,-227070 9710,3850 19420,7630 29120,11420l0 -764690zm-128600 -79030l0 0 -57810 -35520 0 2215850 57810 0 0 -147060c-9710,-390 -19420,-750 -29130,-1120 0,-78660 0,-157080 0,-235730 9710,1080 19420,2100 29130,3120l0 -1107860c-9710,-4030 -19420,-8060 -29130,-12140 0,-78420 0,-156840 0,-235730l29130 14060 0 -101510 -29130 -14800c0,-78650 0,-157070 0,-235720 9710,5530 19420,11120 29130,16740l0 -122580z"/>
  <g id="_979358512">
   <polygon class="fil4" points="12223830,4063510 10992350,4774510 10843810,4774510 12223830,3977750 "/>
   <polygon class="fil4" points="12223830,3847430 10618100,4774510 10414190,4774510 10414190,4703380 12223830,3658580 "/>
   <polygon class="fil4" points="12223830,3455250 10414190,4500060 10414190,4414300 12223830,3369500 "/>
   <polygon class="fil4" points="12223830,2755530 10414190,3800330 10414190,3714570 12223830,2669770 "/>
   <polygon class="fil4" points="12223830,2539200 10414190,3584000 10414190,3498250 12223830,2453450 "/>
   <polygon class="fil4" points="11808620,1454250 10414190,2259330 10414190,2173580 11660080,1454250 "/>
   <polygon class="fil4" points="12223830,1586430 10414190,2631240 10414190,2442380 12125680,1454250 12223830,1454250 "/>
  </g>
  <g id="_979363552">
   <path class="fil5" d="M10904280 1976370l-168030 97010c-14460,-20000 -25880,-42340 -33610,-66340l201890 -116570c-3020,14040 -4620,28610 -4620,43560 0,14520 1520,28680 4370,42340z"/>
   <path class="fil5" d="M10888360 2168620l106100 -61260c19200,12380 40570,21660 63440,27130 -37080,23830 -81220,37660 -128570,37660 -13970,0 -27660,-1220 -40970,-3530z"/>
  </g>
  <g id="_1004944080">
   <path class="fil5" d="M12168230 4095600l-360520 208160 0 -85770 360520 -208140 0 85750zm-424630 245170l0 0 -243190 140410 0 -76280c-4650,-470 -9290,-950 -13940,-1440l101850 -58800 7700 1050 0 -5490 147580 -85210 0 85760zm-286490 165410l0 0 -293220 169290 -148540 0 250540 -144650 0 30370c14430,720 28870,1260 43300,1800l0 -57180 147920 -85390 0 85760z"/>
   <path class="fil5" d="M12121620 3906450l-172350 99500 0 -31700 -205670 0 0 150450 -147580 85200 0 -23890c-14440,-2870 -28880,-5730 -43310,-8770l0 57670 -52300 30190 0 -98410c-14440,-2860 -28870,-5720 -43300,-8760l0 132170 -160920 92910c-10090,-1060 -20200,-2150 -30300,-3140l0 20640 -52290 30190 0 -56560c-14450,-1610 -28890,-3040 -43330,-4650l0 86220 -380630 219760 -327110 0 238260 -137560c19180,720 38360,1660 57540,2360l0 -35580 411940 -237830 0 21080c14440,1970 28880,3940 43330,5900l0 -52000 52290 -30190 0 89160c14430,1970 28870,3940 43300,5900l0 -120060 168490 -97280c7580,1740 15150,3470 22730,5250l0 -18370 384750 -222140 0 52340 236460 0zm-57210 -155820l0 0 159420 -92050 0 92050 -159420 0z"/>
   <path class="fil5" d="M12216980 3459210l-126170 72850 0 -5050 -139790 0 117430 -67800 148530 0zm-387310 223620l0 0 -233650 134890 0 -85750 147580 -85200 0 36060 86070 0zm-276960 159900l0 0 -147900 85400 0 -27900c-14440,-4290 -28880,-8580 -43310,-12880l0 65780 -52310 30190 0 -85750 243520 -140590 0 85750zm-286820 165600l0 0 -542630 313280c-7720,-830 -15460,-1630 -23190,-2390l0 15780 -198940 114870 0 -85760 234370 -135320 22830 3110 0 -16290 411940 -237840 0 40660c14440,3410 28880,6620 43330,10030l0 -75690 52290 -30200 0 85760zm-823020 475170l0 0 -28680 16560 0 -85760 28680 -16550 0 85750z"/>
   <path class="fil5" d="M12223830 2755530l-174270 100620 -148540 0 117430 -67800 72360 0 0 -41780 133020 -76800 0 85760zm-338670 195540l0 0 -77450 44710 0 -85760 77450 -44710 0 85760zm-105490 60900l0 0 -124160 71690 0 -85760 88090 -50860 0 64930 36070 0zm-240160 138650l0 0 -134700 77780 0 -70160 -13470 -7830 76220 -44000 71950 44210zm-178010 102780l0 0 -147900 85390 0 -26210c-14450,-6970 -28890,-13950 -43330,-20920l0 72140 -411940 237840 0 -85760 603170 -348230 0 85750zm-618160 356890l0 0 -329150 190040 0 -85760 285880 -165050 0 46860 43270 13910z"/>
   <path class="fil5" d="M12214610 2544530l-152420 88000 -148530 0 152410 -88000 148540 0zm-422310 243820l0 0 -136790 78980 0 -85760 88090 -50860 0 57640 48700 0zm-434290 250740l0 0 -144410 83380 0 -75100c-3050,-1810 -6100,-3600 -9140,-5390l81600 -47100 71950 44210zm-187740 108390l0 0 -427640 246900c-14190,-5550 -28370,-11050 -42560,-16680l0 41250 -70350 40610 0 -85750 121170 -69960 7440 3130 0 -7420 411940 -237840 0 85760zm-598790 345710l0 0 -157290 90810 0 -85750 157290 -90810 0 85750z"/>
   <path class="fil5" d="M10558180 2548110l-103390 59690c-3970,-2290 -7950,-4560 -11920,-6820l0 13700 -28680 16560 0 -171620 143990 88490z"/>
  </g>
  <g id="_979357216">
   <polygon class="fil6" points="10552900,1454250 10552900,4781300 10414170,4781300 10414170,1454250 "/>
   <polygon class="fil6" points="12223840,4781290 10414170,4781290 10414170,4642570 12223840,4642570 "/>
   <polygon class="fil6" points="12223840,1592980 10414170,1592980 10414170,1454250 12223840,1454250 "/>
  </g>
  <polygon class="fil7" points="12004450,1971490 12020970,2022700 12074790,2022600 12031190,2054140 12047910,2105290 12004450,2073580 11960970,2105290 11977700,2054140 11934100,2022600 11987920,2022700 "/>
  <polygon class="fil7" points="11264310,1799370 11276800,1838050 11317450,1837970 11284520,1861800 11297150,1900430 11264310,1876480 11231480,1900430 11244110,1861800 11211180,1837970 11251830,1838050 "/>
  <polygon class="fil7" points="11113710,2431920 11126190,2470600 11166830,2470530 11133910,2494350 11146540,2532990 11113710,2509030 11080870,2532990 11093500,2494350 11060580,2470530 11101220,2470600 "/>
  <polygon class="fil4" points="11465870,2448120 11482400,2499330 11536210,2499230 11492620,2530780 11509340,2581920 11465870,2550210 11422390,2581920 11439120,2530780 11395520,2499230 11449340,2499330 "/>
  <polygon class="fil7" points="11673130,2082270 11685620,2120960 11726260,2120880 11693340,2144700 11705970,2183340 11673130,2159380 11640300,2183340 11652930,2144700 11620000,2120880 11660650,2120960 "/>
  <polygon class="fil8" style="mask:url(#id0)" points="7188170,2700020 7597780,3007670 7597780,3146400 4988750,3146400 4988750,2700020 "/>
  <polygon class="fil6" points="4997910,2838750 7197320,2838750 7197320,2700020 4997910,2700020 "/>
  <path class="fil9" d="M6534690 2315590l415930 0c105720,0 192210,86500 192210,192220l0 0c0,105720 -86490,192220 -192210,192220l-415930 0c-105720,0 -192210,-86500 -192210,-192220l0 0c0,-105720 86490,-192220 192210,-192220z"/>
  <path class="fil10" d="M6536090 2353330l413130 0c84960,0 154470,69510 154470,154470l0 10c0,84960 -69510,154470 -154470,154470l-413130 0c-84960,0 -154470,-69510 -154470,-154470l0 -10c0,-84960 69510,-154470 154470,-154470z"/>
  <path class="fil11" d="M6536210 2364600l412890 0c78760,0 143200,64440 143200,143200l0 10c0,78760 -64440,143200 -143200,143200l-412890 0c-78760,0 -143200,-64440 -143200,-143200l0 -10c0,-78760 64440,-143200 143200,-143200z"/>
  <polygon class="fil12" points="6494710,2485780 6516740,2485780 6516740,2463750 6494710,2463750 "/>
  <polygon class="fil12" points="6494710,2518820 6516740,2518820 6516740,2496790 6494710,2496790 "/>
  <polygon class="fil12" points="6494710,2551870 6516740,2551870 6516740,2529840 6494710,2529840 "/>
  <polygon class="fil12" points="6562400,2452730 6584430,2452730 6584430,2430700 6562400,2430700 "/>
  <polygon class="fil12" points="6562400,2485780 6584430,2485780 6584430,2463750 6562400,2463750 "/>
  <polygon class="fil12" points="6562400,2518820 6584430,2518820 6584430,2496790 6562400,2496790 "/>
  <polygon class="fil12" points="6562400,2551870 6584430,2551870 6584430,2529840 6562400,2529840 "/>
  <polygon class="fil12" points="6562400,2584920 6584430,2584920 6584430,2562880 6562400,2562880 "/>
  <polygon class="fil12" points="6630100,2485780 6652120,2485780 6652120,2463750 6630100,2463750 "/>
  <polygon class="fil12" points="6630100,2551870 6652120,2551870 6652120,2529840 6630100,2529840 "/>
  <polygon class="fil12" points="6697790,2452730 6719820,2452730 6719820,2430700 6697790,2430700 "/>
  <polygon class="fil12" points="6697790,2485780 6719820,2485780 6719820,2463750 6697790,2463750 "/>
  <polygon class="fil12" points="6697790,2518820 6719820,2518820 6719820,2496790 6697790,2496790 "/>
  <polygon class="fil12" points="6697790,2551870 6719820,2551870 6719820,2529840 6697790,2529840 "/>
  <polygon class="fil12" points="6697790,2584920 6719820,2584920 6719820,2562880 6697790,2562880 "/>
  <polygon class="fil12" points="6731630,2452730 6753660,2452730 6753660,2430700 6731630,2430700 "/>
  <polygon class="fil12" points="6731630,2518820 6753660,2518820 6753660,2496790 6731630,2496790 "/>
  <polygon class="fil12" points="6731630,2584920 6753660,2584920 6753660,2562880 6731630,2562880 "/>
  <polygon class="fil12" points="6765480,2452730 6787520,2452730 6787520,2430700 6765480,2430700 "/>
  <polygon class="fil12" points="6765480,2485780 6787520,2485780 6787520,2463750 6765480,2463750 "/>
  <polygon class="fil12" points="6765480,2518820 6787520,2518820 6787520,2496790 6765480,2496790 "/>
  <polygon class="fil12" points="6765480,2551870 6787520,2551870 6787520,2529840 6765480,2529840 "/>
  <polygon class="fil12" points="6765480,2584920 6787520,2584920 6787520,2562880 6765480,2562880 "/>
  <polygon class="fil12" points="6833170,2485780 6855200,2485780 6855200,2463750 6833170,2463750 "/>
  <polygon class="fil12" points="6833170,2551870 6855200,2551870 6855200,2529840 6833170,2529840 "/>
  <polygon class="fil10" points="6867020,2518820 6889050,2518820 6889050,2496790 6867020,2496790 "/>
  <polygon class="fil10" points="6867020,2551870 6889050,2551870 6889050,2529840 6867020,2529840 "/>
  <polygon class="fil12" points="6900870,2452730 6922890,2452730 6922890,2430700 6900870,2430700 "/>
  <polygon class="fil12" points="6900870,2485780 6922890,2485780 6922890,2463750 6900870,2463750 "/>
  <polygon class="fil12" points="6900870,2518820 6922890,2518820 6922890,2496790 6900870,2496790 "/>
  <polygon class="fil12" points="6900870,2551870 6922890,2551870 6922890,2529840 6900870,2529840 "/>
  <polygon class="fil12" points="6900870,2584920 6922890,2584920 6922890,2562880 6900870,2562880 "/>
  <polygon class="fil10" points="6799330,2518820 6821360,2518820 6821360,2496790 6799330,2496790 "/>
  <polygon class="fil10" points="6934710,2551870 6956750,2551870 6956750,2529840 6934710,2529840 "/>
  <polygon class="fil12" points="6968560,2485780 6990590,2485780 6990590,2463750 6968560,2463750 "/>
  <polygon class="fil12" points="6968560,2551870 6990590,2551870 6990590,2529840 6968560,2529840 "/>
  <polygon class="fil10" points="7002400,2485780 7024440,2485780 7024440,2463750 7002400,2463750 "/>
  <polygon class="fil10" points="6460860,2452730 6482890,2452730 6482890,2430700 6460860,2430700 "/>
  <polygon class="fil10" points="6460860,2485780 6482890,2485780 6482890,2463750 6460860,2463750 "/>
  <polygon class="fil10" points="6460860,2518820 6482890,2518820 6482890,2496790 6460860,2496790 "/>
  <polygon class="fil10" points="6460860,2551870 6482890,2551870 6482890,2529840 6460860,2529840 "/>
  <polygon class="fil10" points="6460860,2584920 6482890,2584920 6482890,2562880 6460860,2562880 "/>
  <polygon class="fil10" points="6494710,2452730 6516740,2452730 6516740,2430700 6494710,2430700 "/>
  <polygon class="fil10" points="6494710,2584920 6516740,2584920 6516740,2562880 6494710,2562880 "/>
  <polygon class="fil10" points="6596250,2452730 6618280,2452730 6618280,2430700 6596250,2430700 "/>
  <polygon class="fil10" points="6596250,2485780 6618280,2485780 6618280,2463750 6596250,2463750 "/>
  <polygon class="fil10" points="6596250,2518820 6618280,2518820 6618280,2496790 6596250,2496790 "/>
  <polygon class="fil12" points="6596250,2551870 6618280,2551870 6618280,2529840 6596250,2529840 "/>
  <polygon class="fil12" points="6596250,2584920 6618280,2584920 6618280,2562880 6596250,2562880 "/>
  <polygon class="fil12" points="6630100,2452730 6652120,2452730 6652120,2430700 6630100,2430700 "/>
  <polygon class="fil12" points="6630100,2584920 6652120,2584920 6652120,2562880 6630100,2562880 "/>
  <polygon class="fil10" points="6731630,2485780 6753660,2485780 6753660,2463750 6731630,2463750 "/>
  <polygon class="fil10" points="6731630,2551870 6753660,2551870 6753660,2529840 6731630,2529840 "/>
  <polygon class="fil10" points="6833170,2452730 6855200,2452730 6855200,2430700 6833170,2430700 "/>
  <polygon class="fil10" points="6833170,2584920 6855200,2584920 6855200,2562880 6833170,2562880 "/>
  <polygon class="fil10" points="6867020,2452730 6889050,2452730 6889050,2430700 6867020,2430700 "/>
  <polygon class="fil10" points="6867020,2485780 6889050,2485780 6889050,2463750 6867020,2463750 "/>
  <polygon class="fil10" points="6867020,2584920 6889050,2584920 6889050,2562880 6867020,2562880 "/>
  <polygon class="fil10" points="6528550,2452730 6550590,2452730 6550590,2430700 6528550,2430700 "/>
  <polygon class="fil10" points="6528550,2485780 6550590,2485780 6550590,2463750 6528550,2463750 "/>
  <polygon class="fil10" points="6528550,2518820 6550590,2518820 6550590,2496790 6528550,2496790 "/>
  <polygon class="fil10" points="6528550,2551870 6550590,2551870 6550590,2529840 6528550,2529840 "/>
  <polygon class="fil10" points="6528550,2584920 6550590,2584920 6550590,2562880 6528550,2562880 "/>
  <polygon class="fil10" points="6663940,2452730 6685970,2452730 6685970,2430700 6663940,2430700 "/>
  <polygon class="fil10" points="6663940,2485780 6685970,2485780 6685970,2463750 6663940,2463750 "/>
  <polygon class="fil10" points="6663940,2518820 6685970,2518820 6685970,2496790 6663940,2496790 "/>
  <polygon class="fil10" points="6663940,2551870 6685970,2551870 6685970,2529840 6663940,2529840 "/>
  <polygon class="fil10" points="6663940,2584920 6685970,2584920 6685970,2562880 6663940,2562880 "/>
  <polygon class="fil10" points="6799330,2452730 6821360,2452730 6821360,2430700 6799330,2430700 "/>
  <polygon class="fil10" points="6799330,2485780 6821360,2485780 6821360,2463750 6799330,2463750 "/>
  <polygon class="fil10" points="6799330,2551870 6821360,2551870 6821360,2529840 6799330,2529840 "/>
  <polygon class="fil10" points="6799330,2584920 6821360,2584920 6821360,2562880 6799330,2562880 "/>
  <polygon class="fil10" points="6934710,2452730 6956750,2452730 6956750,2430700 6934710,2430700 "/>
  <polygon class="fil10" points="6934710,2485780 6956750,2485780 6956750,2463750 6934710,2463750 "/>
  <polygon class="fil10" points="6934710,2518820 6956750,2518820 6956750,2496790 6934710,2496790 "/>
  <polygon class="fil10" points="6934710,2584920 6956750,2584920 6956750,2562880 6934710,2562880 "/>
  <polygon class="fil10" points="6968560,2452730 6990590,2452730 6990590,2430700 6968560,2430700 "/>
  <polygon class="fil12" points="6968560,2518820 6990590,2518820 6990590,2496790 6968560,2496790 "/>
  <polygon class="fil10" points="6968560,2584920 6990590,2584920 6990590,2562880 6968560,2562880 "/>
  <polygon class="fil10" points="7002400,2452730 7024440,2452730 7024440,2430700 7002400,2430700 "/>
  <polygon class="fil10" points="7002400,2518820 7024440,2518820 7024440,2496790 7002400,2496790 "/>
  <polygon class="fil10" points="7002400,2551870 7024440,2551870 7024440,2529840 7002400,2529840 "/>
  <polygon class="fil10" points="7002400,2584920 7024440,2584920 7024440,2562880 7002400,2562880 "/>
  <g id="_1004942856">
   <polygon class="fil6" points="12154480,1454250 12154480,4781300 12293210,4781300 12293210,1454250 "/>
   <polygon class="fil6" points="10483540,4781290 12293210,4781290 12293210,4642570 10483540,4642570 "/>
   <polygon class="fil6" points="10483540,1592980 12293210,1592980 12293210,1454250 10483540,1454250 "/>
  </g>
  <polygon class="fil10" points="6629800,2584920 6651830,2584920 6651830,2562880 6629800,2562880 "/>
  <polygon class="fil10" points="6596270,2584920 6618300,2584920 6618300,2562880 6596270,2562880 "/>
  <polygon class="fil10" points="6596270,2551910 6618300,2551910 6618300,2529880 6596270,2529880 "/>
  <polygon class="fil10" points="6630160,2452730 6652190,2452730 6652190,2430700 6630160,2430700 "/>
  <polygon class="fil12" points="6630100,2519930 6652120,2519930 6652120,2497900 6630100,2497900 "/>
  <polygon class="fil12" points="6833170,2519510 6855200,2519510 6855200,2497480 6833170,2497480 "/>
  <polygon class="fil13" points="5152810,2691890 5014250,2691890 5014250,1902700 5152810,1902700 "/>
  <g id="_1004937600">
   <polygon class="fil13" points="5702040,2660620 5635940,2681360 5445920,2075760 5512020,2055020 "/>
   <polygon class="fil13" points="5786380,2660620 5720280,2681360 5530260,2075760 5596360,2055020 "/>
   <polygon class="fil13" points="5870720,2660620 5804620,2681360 5614600,2075760 5680700,2055020 "/>
  </g>
  <polygon class="fil13" points="5321490,2685860 5164860,2685860 5164860,2101510 5321490,2101510 "/>
  <polygon class="fil13" points="5435950,2679840 5333540,2679840 5333540,1981020 5435950,1981020 "/>
  <path class="fil13" d="M6333450 2011140c0,0 -161150,-60240 -255970,-60240 -94820,0 -171660,53940 -171660,120480 0,8310 1210,16410 3490,24250l-19530 78170 67530 -18100c24720,17700 54480,30050 95860,34410l0 186930 -110340 0 0 303450 282760 0 0 -303450 -96550 0 0 -198560c96550,-41760 204410,-167340 204410,-167340zm-225100 365900l0 0 -34490 0 0 -185420c0,150 2400,250 5930,250 10340,0 14760,-2250 28560,-6090l0 191260z"/>
  <polygon class="fil14 str0" points="10113420,3302930 8161340,3302930 8161340,1894800 10113420,1894800 "/>
  <polygon class="fil15" points="9939910,3177760 8334860,3177760 8334860,2019970 9939910,2019970 "/>
  <polygon class="fil16" points="9688310,3004630 8586460,3004630 8586460,2193100 9688310,2193100 "/>
  <g id="_1004947368">
   <g>
    <polygon class="fil17" points="7823790,6258160 8561630,6258160 8907480,6884690 7477940,6884690 "/>
    <path class="fil17" d="M6454080 4168910l3477270 0c97840,0 177900,80050 177900,177900l0 1892290c0,97850 -80060,177910 -177900,177910l-3477270 0c-97850,0 -177910,-80060 -177910,-177910l0 -1892290c0,-97850 80060,-177900 177910,-177900z"/>
    <polygon class="fil6" points="6394250,6099320 9991170,6099320 9991170,4272680 6394250,4272680 "/>
    <path class="fil18" d="M9893220 6282880c12720,0 23100,-10380 23100,-23100 0,-12730 -10380,-23100 -23100,-23100 -12730,0 -23100,10370 -23100,23100 0,12720 10370,23100 23100,23100z"/>
    <path class="fil18" d="M9803010 6282880c12730,0 23100,-10380 23100,-23100 0,-12730 -10370,-23100 -23100,-23100 -12720,0 -23100,10370 -23100,23100 0,12720 10380,23100 23100,23100z"/>
    <path class="fil18" d="M9712800 6282880c12730,0 23110,-10380 23110,-23100 0,-12730 -10380,-23100 -23110,-23100 -12720,0 -23100,10370 -23100,23100 0,12720 10380,23100 23100,23100z"/>
    <path class="fil19" d="M6070670 6695340l4244080 0c52080,0 94680,42600 94680,94670l0 10c0,52070 -42600,94670 -94680,94670l-4244080 0c-52060,0 -94670,-42600 -94670,-94670l0 -10c0,-52070 42610,-94670 94670,-94670z"/>
   </g>
   <path class="fil18" d="M7529540 6695340l2785210 0c52080,0 94680,42600 94680,94680 0,52070 -42600,94670 -94680,94670l-2764530 0 -20680 -189350z"/>
   <path class="fil11" d="M10409430 6790020c0,52070 -42610,94670 -94680,94670l-4244080 0c-52070,0 -94670,-42600 -94670,-94670l4433430 0z"/>
  </g>
  <path class="fil19" d="M10109250 5237510l0 1001590c0,97850 -80050,177910 -177900,177910l-2432220 0 -185850 -1701450 142050 -442880 209820 -103760 437790 -10 2006310 1068600z"/>
  <polygon class="fil20" points="7455330,4272680 8297760,4272680 9991170,5179670 9991170,6099320 7464430,6099320 7231040,4485430 "/>
  <g id="_1004959632">
   <g>
    <path class="fil21" d="M5149640 6229950l269520 -1302190 -147330 -30500 -122190 590410 0 282710 178260 -861270 35100 7260 -213360 1030860 0 282720zm-269430 559450l0 0 147320 30500 122110 -589950 0 -282720 -178270 861290 -35100 -7270 213370 -1030870 0 -282710 -269430 1301730z"/>
    <path class="fil21" d="M7442600 4035480l-56050 -139610 -933030 374490 0 61750 954380 -383060 13360 33260 -967740 388430 0 61740 989080 -397000zm-989080 234880l0 0 -989090 397000 56040 139620 933050 -374500 0 -61740 -954400 383060 -13350 -33260 967750 -388430 0 -61750z"/>
    <path class="fil3" d="M7650060 4358350c81370,0 147740,-66370 147740,-147730 0,-81380 -66370,-147740 -147740,-147740 -81370,0 -147730,66360 -147730,147740 0,81360 66360,147730 147730,147730z"/>
    <path class="fil22" d="M7203400 3517830c25870,0 46960,-21090 46960,-46960 0,-25860 -21090,-46950 -46960,-46950 -25860,0 -46960,21090 -46960,46950 0,25870 21100,46960 46960,46960z"/>
    <path class="fil21" d="M7203410 3470890c47160,-28490 97060,-49630 148690,-63880l196230 240500c196000,-7270 408430,111300 540050,320270 -142570,71880 -289720,153120 -438320,242850 -148600,89720 -289010,182120 -419010,274810 -123650,-213790 -129660,-457010 -31940,-627070l-121470 -285650c36660,-39060 78610,-73360 125770,-101830z"/>
    <path class="fil21" d="M5258660 4674770c61210,-62470 161470,-63500 223940,-2290 62480,61210 63500,161470 2290,223950 -61210,62470 -161470,63500 -223950,2290 -62470,-61210 -63490,-161470 -2280,-223950z"/>
    <path class="fil23" d="M7177890 3808470c62700,-92000 224620,-184460 337620,-201160l32800 40210c-109570,5930 -305820,117690 -349200,210850l-21220 -49900z"/>
    <path class="fil24" d="M5371780 4902600c64450,0 117020,-52560 117020,-117020 0,-64440 -52570,-117010 -117020,-117010 -64450,0 -117020,52570 -117020,117010 0,64460 52570,117020 117020,117020z"/>
   </g>
   <path class="fil21" d="M4995820 6507730c208190,0 376950,168780 376950,376950l0 10 -753890 0 0 -10c0,-208170 168760,-376950 376940,-376950z"/>
  </g>
  <polygon class="fil6" points="20,7188220 16256020,7188220 16256020,6887590 20,6887590 "/>
  <g id="_1004950608">
   <polygon class="fil25" points="10976550,6893050 10603190,6893050 10603190,5434670 10976550,5434670 "/>
   <polygon class="fil26" points="10976550,6893050 10860860,6893050 10860860,5434670 10976550,5434670 "/>
   <polygon class="fil27" points="10860860,6621460 10603190,6621460 10603190,6586460 10860860,6586460 "/>
   <polygon class="fil27" points="10860860,6485610 10603190,6485610 10603190,6450610 10860860,6450610 "/>
   <polygon class="fil28" points="11297310,6893050 10946310,6893050 10946310,5003790 11297310,5003790 "/>
   <polygon class="fil29" points="11297310,6485610 10946310,6485610 10946310,5003790 11297310,5003790 "/>
   <polygon class="fil28" points="11218430,5544470 11025180,5544470 11025180,5115650 11218430,5115650 "/>
   <polygon class="fil28" points="11817900,6893050 11297310,6893050 11297310,5165370 11817900,5165370 "/>
   <polygon class="fil25" points="11668030,6893050 11297310,6893050 11297310,5165370 11668030,5165370 "/>
  </g>
  <g id="_1004938176">
   <path class="fil30" d="M10709210 6448690c51760,0 93700,58560 93700,130800 0,72260 -41940,130820 -93700,130820l0 -43100c31320,0 56700,-39270 56700,-87720 0,-48430 -25380,-87700 -56700,-87700l0 -43100zm0 261620l0 0c-51740,0 -93680,-58560 -93680,-130820 0,-72240 41940,-130800 93680,-130800l0 43100c-31300,0 -56690,39270 -56690,87700 0,48450 25390,87720 56690,87720l0 43100z"/>
   <path class="fil30" d="M10319900 6352780l339880 0c27190,0 49430,22260 49430,49440l0 433030c0,27200 -22240,49440 -49430,49440l-339880 0c-27190,0 -49440,-22240 -49440,-49440l0 -433030c0,-27180 22250,-49440 49440,-49440z"/>
  </g>
  <path class="fil31" d="M10319900 6352780l133340 0c14260,22290 22540,48780 22540,77190 0,79180 -64190,143370 -143370,143370 -22180,0 -43190,-5050 -61950,-14050l0 -157070c0,-27180 22250,-49440 49440,-49440z"/>
  <g id="_979360744">
   <path class="fil32" d="M10420540 6309060c-89870,-316990 180390,-342730 -30570,-724790 100010,351480 -184460,428180 30570,724790z"/>
   <path class="fil32" d="M10548670 6374680c-72210,-254670 144930,-275350 -24560,-582290 80350,282380 -148200,344000 24560,582290z"/>
  </g>
  <polygon class="fil33" points="8964870,2705470 8964870,2760510 8922300,2760510 8922300,2705470 8765500,2705470 8765500,2663940 8889590,2399140 8937010,2399140 8811190,2665490 8922300,2665490 8922300,2559060 8964870,2559060 8964870,2665490 8994990,2665490 8994990,2705470 "/>
  <path id="1" class="fil33" d="M9240570 2661860c0,16270 -2770,30720 -8310,43350 -5540,12640 -12980,23280 -22320,31940 -9350,8650 -20080,15230 -32200,19730 -12110,4500 -24740,6750 -37900,6750 -13150,0 -25780,-2250 -37900,-6750 -12110,-4500 -22850,-11080 -32190,-19730 -9350,-8660 -16790,-19300 -22330,-31940 -5540,-12630 -8300,-27080 -8300,-43350l0 -164070c0,-16270 2760,-30720 8300,-43350 5540,-12640 12980,-23280 22330,-31940 9340,-8650 20080,-15230 32190,-19730 12120,-4500 24750,-6750 37900,-6750 13160,0 25790,2250 37900,6750 12120,4500 22850,11080 32200,19730 9340,8660 16780,19300 22320,31940 5540,12630 8310,27080 8310,43350l0 164070zm-42580 -160950c0,-19730 -5270,-35140 -15830,-46210 -10560,-11080 -24660,-16620 -42320,-16620 -17650,0 -31760,5540 -42310,16620 -10560,11070 -15840,26480 -15840,46210l0 157830c0,19730 5280,35140 15840,46210 10550,11080 24660,16620 42310,16620 17660,0 31760,-5540 42320,-16620 10560,-11070 15830,-26480 15830,-46210l0 -157830z"/>
  <polygon id="2" class="fil33" points="9484070,2705470 9484070,2760510 9441500,2760510 9441500,2705470 9284700,2705470 9284700,2663940 9408790,2399140 9456210,2399140 9330390,2665490 9441500,2665490 9441500,2559060 9484070,2559060 9484070,2665490 9514190,2665490 9514190,2705470 "/>
  <polygon class="fil34" points="10113420,3302930 8161340,3302930 8161340,1894800 "/>
  <g id="_979362832">
   <g style="clip-path:url(#id2)">
    <image x="6674660" y="5365210" width="3016390" height="550090" xlink:href="экран_Images\экран_ImgID1.png"/>
   </g>
  </g>
  <rect class="fil35" x="6733311" y="5424743" width="2903075" height="391569" rx="1451537" ry="195784"/>
  <polygon class="fil14" points="16256010,7622670 20,7622670 20,7188350 16256010,7188350 "/>
  <g id="_1004941416">
   <polygon class="fil36" points="4206200,9143990 4206200,7624110 3986700,7624110 3986700,9143990 "/>
   <polygon class="fil37" points="4333090,9143990 4333090,7624110 4206200,7624110 4206200,9143990 "/>
  </g>
  <polygon class="fil36" points="16256010,7315890 0,7315890 0,7187940 16256010,7187940 "/>
  <polygon class="fil38" points="12748460,7374020 3637190,7374020 3637190,7316930 12748460,7316930 "/>
  <g id="_1004940360">
   <polygon class="fil36" points="7312190,8491780 7312190,7679260 4335470,7679260 4335470,8491780 "/>
   <polygon class="fil37 str1" points="7312190,8405240 4332100,8405240 4332100,8357320 7312190,8357320 "/>
   <polygon class="fil39" points="7312190,7674570 4332100,7674570 4332100,7626650 7312190,7626650 "/>
   <polygon class="fil37" points="6255360,8090800 5381970,8090800 5381970,7991760 6255360,7991760 "/>
  </g>
  <g id="_1004938416">
   <polygon class="fil36" points="12140690,9143990 12140690,7624120 12360190,7624120 12360190,9143990 "/>
   <polygon class="fil37" points="12013800,9143990 12013800,7624120 12140690,7624120 12140690,9143990 "/>
  </g>
 </g>
</svg>
