<svg width="192" height="224" viewBox="0 0 192 224" fill="none" xmlns="http://www.w3.org/2000/svg">
<g filter="url(#filter0_d)">
<rect x="30.25" y="30.7278" width="116.67" height="163.27" rx="2.4723" fill="white"/>
</g>
<path d="M30.25 33.2001C30.25 31.8347 31.3569 30.7278 32.7223 30.7278H144.448C145.813 30.7278 146.92 31.8347 146.92 33.2001V47.0548H30.25V33.2001Z" fill="#0085FF"/>
<rect x="71.1321" y="36.885" width="34.9057" height="4.01239" rx="0.988921" fill="black"/>
<path fill-rule="evenodd" clip-rule="evenodd" d="M35.7715 39.0747C35.67 38.973 35.67 38.8083 35.7717 38.7067L37.4281 37.0511C37.5298 36.9495 37.6946 36.9496 37.7962 37.0512C37.8977 37.1529 37.8977 37.3177 37.796 37.4192L36.3236 38.8908L37.7952 40.3633C37.8968 40.4649 37.8967 40.6297 37.7951 40.7313C37.6934 40.8329 37.5287 40.8328 37.4271 40.7312L35.7715 39.0747Z" fill="black"/>
<rect x="38.1968" y="56.544" width="101.101" height="22.8509" rx="0.988921" fill="#0085FF"/>
<path fill-rule="evenodd" clip-rule="evenodd" d="M127.385 74.8258C131.032 74.8258 133.988 71.8698 133.988 68.2235C133.988 64.5772 131.032 61.6212 127.385 61.6212C123.739 61.6212 120.783 64.5772 120.783 68.2235C120.783 71.8698 123.739 74.8258 127.385 74.8258Z" fill="#09F4CC"/>
<path fill-rule="evenodd" clip-rule="evenodd" d="M129.432 66.5734C129.332 66.5765 129.237 66.6186 129.167 66.6905C128.217 67.6428 127.352 68.5822 126.428 69.5201L125.259 68.5859C125.152 68.5001 125.007 68.478 124.879 68.528C124.751 68.578 124.659 68.6925 124.639 68.8284C124.618 68.9643 124.671 69.1008 124.779 69.1867L126.221 70.3402C126.374 70.4631 126.596 70.4501 126.734 70.3101C127.767 69.2747 128.697 68.2538 129.714 67.2342C129.829 67.1234 129.863 66.9532 129.801 66.8065C129.738 66.6598 129.591 66.567 129.432 66.5734Z" fill="white" stroke="white" stroke-width="0.5"/>
<rect x="68.2746" y="64.16" width="41.6691" height="2.17693" rx="0.494461" fill="white"/>
<rect x="68.2746" y="69.6022" width="38.4518" height="2.17693" rx="0.494461" fill="white"/>
<circle cx="53.216" cy="70.1096" r="7.45654" fill="white"/>
<path d="M53.217 77.5661C55.4657 77.5674 57.5998 76.5627 59.0466 74.8216C57.9066 72.6329 55.6618 71.2628 53.2158 71.2628C50.7698 71.2628 48.525 72.6329 47.3851 74.8216C48.8326 76.5631 50.9676 77.5678 53.217 77.5661Z" fill="#0084FE"/>
<path d="M53.2584 71.5767C54.879 71.5767 56.1927 70.2481 56.1927 68.6091C56.1927 66.9701 54.879 65.6415 53.2584 65.6415C51.6379 65.6415 50.3242 66.9701 50.3242 68.6091C50.3242 70.2481 51.6379 71.5767 53.2584 71.5767Z" fill="#0084FE"/>
<rect x="38.1968" y="81.5555" width="101.101" height="22.8509" rx="0.988921" fill="#0085FF"/>
<path fill-rule="evenodd" clip-rule="evenodd" d="M127.385 99.8372C131.032 99.8372 133.988 96.8813 133.988 93.2349C133.988 89.5886 131.032 86.6327 127.385 86.6327C123.739 86.6327 120.783 89.5886 120.783 93.2349C120.783 96.8813 123.739 99.8372 127.385 99.8372Z" fill="#09F4CC"/>
<path fill-rule="evenodd" clip-rule="evenodd" d="M129.432 91.5848C129.332 91.588 129.237 91.63 129.167 91.702C128.217 92.6542 127.352 93.5936 126.428 94.5316L125.259 93.5974C125.152 93.5115 125.007 93.4894 124.879 93.5395C124.751 93.5895 124.659 93.704 124.639 93.8398C124.618 93.9757 124.671 94.1123 124.779 94.1981L126.221 95.3516C126.374 95.4745 126.596 95.4615 126.734 95.3216C127.767 94.2861 128.697 93.2653 129.714 92.2456C129.829 92.1348 129.863 91.9647 129.801 91.8179C129.738 91.6712 129.591 91.5785 129.432 91.5848Z" fill="white" stroke="white" stroke-width="0.5"/>
<rect x="68.2746" y="89.1713" width="41.6691" height="2.17693" rx="0.494461" fill="white"/>
<rect x="68.2746" y="94.6136" width="38.4518" height="2.17693" rx="0.494461" fill="white"/>
<circle cx="53.2159" cy="92.981" r="7.45654" fill="white"/>
<path d="M53.217 100.437C55.4657 100.439 57.5998 99.434 59.0466 97.693C57.9066 95.5043 55.6618 94.1342 53.2158 94.1342C50.7698 94.1342 48.525 95.5043 47.3851 97.693C48.8326 99.4344 50.9676 100.439 53.217 100.437Z" fill="#0084FE"/>
<path d="M53.2584 94.4481C54.879 94.4481 56.1927 93.1194 56.1927 91.4805C56.1927 89.8415 54.879 88.5128 53.2584 88.5128C51.6379 88.5128 50.3242 89.8415 50.3242 91.4805C50.3242 93.1194 51.6379 94.4481 53.2584 94.4481Z" fill="#0084FE"/>
<rect x="38.1968" y="109.609" width="101.101" height="22.8509" rx="0.988921" fill="#F5F8FD"/>
<rect opacity="0.5" x="68.2746" y="117.225" width="41.6691" height="2.17693" rx="0.494461" fill="white"/>
<rect opacity="0.5" x="68.2746" y="122.667" width="38.4518" height="2.17693" rx="0.494461" fill="white"/>
<g opacity="0.5">
<path fill-rule="evenodd" clip-rule="evenodd" d="M127.233 127.637C130.879 127.637 133.835 124.681 133.835 121.034C133.835 117.388 130.879 114.432 127.233 114.432C123.587 114.432 120.631 117.388 120.631 121.034C120.631 124.681 123.587 127.637 127.233 127.637Z" fill="white"/>
</g>
<circle opacity="0.5" cx="53.2158" cy="121.289" r="7.45654" fill="white"/>
<path d="M53.217 129.718C55.4657 129.719 57.5998 128.714 59.0466 126.973C57.9066 124.785 55.6618 123.415 53.2158 123.415C50.7698 123.415 48.525 124.785 47.3851 126.973C48.8326 128.715 50.9676 129.72 53.217 129.718Z" fill="#E2F0FE"/>
<path d="M53.2584 123.729C54.879 123.729 56.1927 122.4 56.1927 120.761C56.1927 119.122 54.879 117.793 53.2584 117.793C51.6379 117.793 50.3242 119.122 50.3242 120.761C50.3242 122.4 51.6379 123.729 53.2584 123.729Z" fill="#E2F0FE"/>
<rect x="38.1968" y="137.663" width="101.101" height="22.8509" rx="0.988921" fill="#F5F8FD"/>
<rect opacity="0.5" x="68.2746" y="145.278" width="41.6691" height="2.17693" rx="0.494461" fill="white"/>
<rect opacity="0.5" x="68.2746" y="150.721" width="38.4518" height="2.17693" rx="0.494461" fill="white"/>
<g opacity="0.5">
<path fill-rule="evenodd" clip-rule="evenodd" d="M127.233 155.69C130.879 155.69 133.835 152.734 133.835 149.088C133.835 145.442 130.879 142.486 127.233 142.486C123.587 142.486 120.631 145.442 120.631 149.088C120.631 152.734 123.587 155.69 127.233 155.69Z" fill="white"/>
</g>
<circle opacity="0.5" cx="53.2158" cy="149.342" r="7.45654" fill="white"/>
<path d="M53.217 156.799C55.4657 156.8 57.5998 155.795 59.0466 154.054C57.9066 151.866 55.6618 150.495 53.2158 150.495C50.7698 150.495 48.525 151.866 47.3851 154.054C48.8326 155.796 50.9676 156.8 53.217 156.799Z" fill="#E2F0FE"/>
<path d="M53.2584 150.809C54.879 150.809 56.1927 149.481 56.1927 147.842C56.1927 146.203 54.879 144.874 53.2584 144.874C51.6379 144.874 50.3242 146.203 50.3242 147.842C50.3242 149.481 51.6379 150.809 53.2584 150.809Z" fill="#E2F0FE"/>
<g filter="url(#filter1_d)">
<path d="M121.25 33.2664C121.25 19.0495 124.297 16.0024 138.514 16.0024H155.986C170.203 16.0024 173.25 19.0495 173.25 33.2664V50.7384C173.25 64.9553 170.203 68.0024 155.986 68.0024H138.514C124.297 68.0024 121.25 64.9553 121.25 50.7384V33.2664Z" fill="white"/>
</g>
<rect x="132.25" y="31.6178" width="30" height="21.0962" rx="2.66679" fill="black"/>
<rect x="136.25" y="35.3453" width="21.9668" height="13.3591" rx="5.98356" fill="#0085FF"/>
<circle cx="141.152" cy="42.0247" r="3.03557" fill="white"/>
<circle cx="153.315" cy="42.0247" r="3.03557" fill="white"/>
<path d="M151.796 56.8215C151.214 57.351 150.28 56.9379 150.28 56.1509L150.28 52.7141L156.312 52.7141L151.796 56.8215Z" fill="black"/>
<rect x="136.25" y="27.0024" width="3" height="7" rx="1.5" fill="#0085FF"/>
<rect x="155.25" y="27.0001" width="3" height="7" rx="1.5" fill="#0085FF"/>
<defs>
<filter id="filter0_d" x="0.25" y="0.727844" width="176.67" height="223.27" filterUnits="userSpaceOnUse" color-interpolation-filters="sRGB">
<feFlood flood-opacity="0" result="BackgroundImageFix"/>
<feColorMatrix in="SourceAlpha" type="matrix" values="0 0 0 0 0 0 0 0 0 0 0 0 0 0 0 0 0 0 127 0"/>
<feMorphology radius="10" operator="dilate" in="SourceAlpha" result="effect1_dropShadow"/>
<feOffset/>
<feGaussianBlur stdDeviation="10"/>
<feColorMatrix type="matrix" values="0 0 0 0 0 0 0 0 0 0.122667 0 0 0 0 0.766667 0 0 0 0.05 0"/>
<feBlend mode="normal" in2="BackgroundImageFix" result="effect1_dropShadow"/>
<feBlend mode="normal" in="SourceGraphic" in2="effect1_dropShadow" result="shape"/>
</filter>
<filter id="filter1_d" x="103.25" y="5.00244" width="88" height="88" filterUnits="userSpaceOnUse" color-interpolation-filters="sRGB">
<feFlood flood-opacity="0" result="BackgroundImageFix"/>
<feColorMatrix in="SourceAlpha" type="matrix" values="0 0 0 0 0 0 0 0 0 0 0 0 0 0 0 0 0 0 127 0"/>
<feOffset dy="7"/>
<feGaussianBlur stdDeviation="9"/>
<feColorMatrix type="matrix" values="0 0 0 0 0 0 0 0 0 0.121569 0 0 0 0 0.764706 0 0 0 0.05 0"/>
<feBlend mode="normal" in2="BackgroundImageFix" result="effect1_dropShadow"/>
<feBlend mode="normal" in="SourceGraphic" in2="effect1_dropShadow" result="shape"/>
</filter>
</defs>
</svg>
