<svg width="438" height="187" viewBox="0 0 438 187" fill="none" xmlns="http://www.w3.org/2000/svg">
<path d="M63.0497 90.4966C113.986 55.9595 164.922 55.9595 215.858 90.4966C275.222 136.463 326.159 136.463 368.666 90.4966" stroke="#4C75F2" stroke-width="3" stroke-dasharray="15 15"/>
<g filter="url(#filter0_d)">
<circle cx="56.084" cy="93.9403" r="25.7387" fill="white"/>
</g>
<rect x="41.0839" y="83.5558" width="30" height="21.0962" rx="2.66679" fill="#0085FF"/>
<path d="M44.6843 86.3034L54.1218 95.3031C55.1084 96.2439 56.659 96.2473 57.6497 95.3108L67.4839 86.0148" stroke="white" stroke-width="2" stroke-linecap="round" stroke-linejoin="round"/>
<path d="M52.7648 94.0956L46.0115 101.08" stroke="white" stroke-width="2" stroke-linecap="round" stroke-linejoin="round"/>
<path d="M59.1142 94.0956L65.8676 101.08" stroke="white" stroke-width="2" stroke-linecap="round" stroke-linejoin="round"/>
<g filter="url(#filter1_d)">
<circle cx="289.482" cy="122.5" r="28.5178" fill="white"/>
</g>
<circle cx="289.482" cy="122.5" r="15" fill="#1CC54F"/>
<path d="M296.069 116.539C294.381 114.801 292.048 113.858 289.665 113.858C284.601 113.858 280.53 117.979 280.579 122.995C280.579 124.584 281.026 126.123 281.771 127.514L280.48 132.231L285.296 130.99C286.636 131.735 288.126 132.082 289.615 132.082C294.629 132.082 298.701 127.961 298.701 122.945C298.701 120.512 297.757 118.228 296.069 116.539ZM289.665 130.543C288.324 130.543 286.984 130.195 285.842 129.5L285.544 129.351L282.665 130.096L283.409 127.265L283.211 126.967C281.026 123.442 282.069 118.774 285.643 116.589C289.218 114.404 293.835 115.447 296.02 119.022C298.204 122.598 297.161 127.216 293.587 129.401C292.445 130.146 291.055 130.543 289.665 130.543ZM294.034 125.031L293.488 124.782C293.488 124.782 292.693 124.435 292.197 124.187C292.147 124.187 292.097 124.137 292.048 124.137C291.899 124.137 291.8 124.187 291.7 124.236C291.7 124.236 291.651 124.286 290.956 125.08C290.906 125.18 290.807 125.229 290.707 125.229H290.658C290.608 125.229 290.509 125.18 290.459 125.13L290.211 125.031C289.665 124.782 289.168 124.485 288.771 124.087C288.672 123.988 288.523 123.889 288.424 123.789C288.076 123.442 287.729 123.044 287.48 122.598L287.431 122.498C287.381 122.449 287.381 122.399 287.331 122.3C287.331 122.2 287.331 122.101 287.381 122.051C287.381 122.051 287.58 121.803 287.729 121.654C287.828 121.555 287.877 121.406 287.977 121.306C288.076 121.157 288.126 120.959 288.076 120.81C288.026 120.562 287.431 119.221 287.282 118.923C287.182 118.774 287.083 118.724 286.934 118.675H286.785C286.686 118.675 286.537 118.675 286.388 118.675C286.289 118.675 286.189 118.724 286.09 118.724L286.041 118.774C285.941 118.823 285.842 118.923 285.743 118.972C285.643 119.072 285.594 119.171 285.494 119.27C285.147 119.717 284.948 120.264 284.948 120.81C284.948 121.207 285.048 121.604 285.197 121.952L285.246 122.101C285.693 123.044 286.289 123.889 287.083 124.633L287.282 124.832C287.431 124.981 287.58 125.08 287.679 125.229C288.721 126.123 289.913 126.769 291.253 127.116C291.402 127.166 291.601 127.166 291.75 127.216C291.899 127.216 292.097 127.216 292.246 127.216C292.495 127.216 292.793 127.116 292.991 127.017C293.14 126.918 293.239 126.918 293.339 126.818L293.438 126.719C293.537 126.62 293.637 126.57 293.736 126.471C293.835 126.372 293.934 126.272 293.984 126.173C294.083 125.974 294.133 125.726 294.183 125.478C294.183 125.378 294.183 125.229 294.183 125.13C294.183 125.13 294.133 125.08 294.034 125.031Z" fill="white"/>
<g filter="url(#filter2_d)">
<circle cx="379.482" cy="80.5559" r="28.5178" fill="white"/>
</g>
<rect x="361.982" y="62.9673" width="35" height="35" rx="17.5" fill="#2787F5"/>
<path fill-rule="evenodd" clip-rule="evenodd" d="M390.613 75.5413C390.776 75.0004 390.613 74.6028 389.841 74.6028H387.289C386.64 74.6028 386.341 74.9462 386.178 75.325C386.178 75.325 384.88 78.4897 383.041 80.5454C382.446 81.1405 382.176 81.3296 381.851 81.3296C381.689 81.3296 381.454 81.1405 381.454 80.5996V75.5413C381.454 74.892 381.266 74.6028 380.725 74.6028H376.713C376.308 74.6028 376.064 74.9041 376.064 75.1897C376.064 75.8052 376.983 75.9471 377.078 77.6781V81.4381C377.078 82.2625 376.929 82.412 376.605 82.412C375.739 82.412 373.635 79.2329 372.386 75.5954C372.141 74.8884 371.896 74.6028 371.243 74.6028H368.691C367.961 74.6028 367.815 74.9462 367.815 75.325C367.815 76.0012 368.681 79.3554 371.845 83.7915C373.955 86.8207 376.926 88.4631 379.631 88.4631C381.254 88.4631 381.454 88.0984 381.454 87.4701V85.1804C381.454 84.4509 381.608 84.3054 382.121 84.3054C382.5 84.3054 383.149 84.4947 384.664 85.9553C386.395 87.6862 386.68 88.4631 387.653 88.4631H390.206C390.935 88.4631 391.3 88.0984 391.09 87.3786C390.86 86.6611 390.033 85.6205 388.937 84.3866C388.342 83.6831 387.449 82.9257 387.179 82.5471C386.8 82.0602 386.908 81.8439 387.179 81.4113C387.179 81.4113 390.289 77.0293 390.613 75.5415V75.5413Z" fill="white"/>
<g filter="url(#filter3_d)">
<circle cx="168.358" cy="72.6968" r="47.5" fill="white"/>
</g>
<circle cx="168.358" cy="72.6968" r="25.4336" fill="#846FF4"/>
<path d="M181.644 60.1267C180.747 59.3015 177.114 56.6595 169.015 56.6233C169.015 56.6233 159.47 56.0442 154.816 60.3149C152.225 62.9063 151.313 66.6921 151.219 71.3971C151.125 76.0949 151.002 84.9042 159.491 87.293H159.499L159.491 90.9339C159.491 90.9339 159.441 92.4106 160.41 92.7074C161.583 93.0693 162.278 91.9473 163.399 90.7385C164.015 90.0726 164.861 89.1026 165.505 88.357C171.31 88.842 175.775 87.7273 176.281 87.5608C177.454 87.1771 184.09 86.3302 185.169 77.5209C186.283 68.4583 184.626 62.7181 181.644 60.1267ZM182.628 76.8839C181.716 84.2383 176.339 84.7016 175.348 85.0201C174.928 85.1576 171.006 86.1348 166.07 85.8091C166.07 85.8091 162.393 90.2463 161.25 91.3972C161.069 91.5782 160.859 91.6506 160.722 91.6144C160.526 91.5637 160.468 91.3321 160.476 90.9918C160.476 90.4996 160.505 84.9332 160.505 84.9332C160.497 84.9332 160.497 84.9332 160.505 84.9332C153.318 82.9426 153.738 75.4435 153.817 71.5202C153.897 67.5969 154.635 64.3758 156.828 62.2114C160.758 58.6501 168.871 59.1785 168.871 59.1785C175.717 59.2074 178.995 61.2704 179.755 61.9581C182.281 64.1296 183.569 69.3052 182.628 76.8839Z" fill="white"/>
<path d="M172.352 71.6582C172.113 71.6582 171.91 71.47 171.896 71.2238C171.816 69.6674 171.085 68.9073 169.594 68.8276C169.341 68.8131 169.146 68.596 169.16 68.3426C169.175 68.0892 169.392 67.8937 169.645 67.9082C171.613 68.0168 172.714 69.1462 172.815 71.1732C172.829 71.4265 172.634 71.6437 172.381 71.651C172.366 71.6582 172.359 71.6582 172.352 71.6582Z" fill="white"/>
<path d="M174.696 72.4397H174.689C174.436 72.4325 174.233 72.2225 174.241 71.9692C174.277 70.4056 173.828 69.1388 172.873 68.0965C171.925 67.0541 170.615 66.4895 168.885 66.3664C168.632 66.3447 168.444 66.1275 168.465 65.8742C168.487 65.6208 168.704 65.4326 168.957 65.4543C170.911 65.5991 172.453 66.2796 173.553 67.4812C174.66 68.69 175.196 70.2029 175.16 71.9909C175.152 72.2443 174.943 72.4397 174.696 72.4397Z" fill="white"/>
<path d="M177.099 73.3813C176.846 73.3813 176.643 73.1786 176.643 72.9253C176.622 70.1237 175.818 67.9881 174.183 66.3882C172.569 64.8101 170.521 64.0065 168.111 63.9848C167.857 63.9848 167.655 63.7749 167.655 63.5215C167.655 63.2681 167.865 63.0654 168.111 63.0654C170.767 63.0871 173.025 63.9776 174.812 65.7295C176.607 67.4814 177.526 69.8993 177.555 72.9108C177.562 73.1714 177.36 73.3813 177.099 73.3813C177.106 73.3813 177.106 73.3813 177.099 73.3813Z" fill="white"/>
<path d="M169.703 77.3254C169.703 77.3254 170.347 77.3833 170.694 76.9563L171.367 76.1093C171.693 75.6895 172.482 75.4217 173.249 75.8488C173.676 76.0876 174.45 76.5654 174.928 76.9201C175.442 77.2965 176.484 78.1651 176.491 78.1723C176.991 78.5922 177.106 79.2075 176.766 79.8662C176.766 79.8662 176.766 79.8734 176.766 79.8807C176.419 80.4959 175.949 81.075 175.362 81.6107C175.355 81.6107 175.355 81.6179 175.348 81.6179C174.863 82.0233 174.385 82.2549 173.922 82.3056C173.864 82.3201 173.799 82.3201 173.712 82.3201C173.51 82.3201 173.307 82.2911 173.104 82.226L173.09 82.2043C172.366 82.0016 171.165 81.4949 169.167 80.3874C167.865 79.6707 166.786 78.9396 165.867 78.2085C165.382 77.8249 164.89 77.3978 164.384 76.8911C164.369 76.8766 164.347 76.8549 164.333 76.8404C164.319 76.826 164.297 76.8042 164.282 76.7898C164.268 76.7753 164.246 76.7536 164.232 76.7391C164.217 76.7246 164.195 76.7029 164.181 76.6884C163.682 76.1817 163.247 75.6895 162.864 75.2045C162.133 74.2925 161.402 73.2067 160.685 71.9037C159.578 69.8986 159.072 68.697 158.869 67.9804L158.847 67.9659C158.782 67.7632 158.753 67.5606 158.753 67.3579C158.753 67.271 158.753 67.2059 158.768 67.148C158.826 66.6774 159.057 66.2069 159.455 65.7219C159.455 65.7147 159.462 65.7147 159.462 65.7075C159.998 65.1139 160.577 64.6506 161.192 64.3032C161.192 64.3032 161.199 64.3032 161.207 64.3032C161.858 63.963 162.473 64.0788 162.9 64.5782C162.9 64.5782 163.776 65.6278 164.152 66.1418C164.507 66.6268 164.984 67.3941 165.223 67.8211C165.65 68.5884 165.382 69.3774 164.963 69.7032L164.116 70.3764C163.689 70.7238 163.747 71.3681 163.747 71.3681C163.747 71.3681 164.999 76.1311 169.703 77.3254Z" fill="white"/>
<defs>
<filter id="filter0_d" x="0.345276" y="43.2017" width="111.477" height="111.477" filterUnits="userSpaceOnUse" color-interpolation-filters="sRGB">
<feFlood flood-opacity="0" result="BackgroundImageFix"/>
<feColorMatrix in="SourceAlpha" type="matrix" values="0 0 0 0 0 0 0 0 0 0 0 0 0 0 0 0 0 0 127 0"/>
<feMorphology radius="10" operator="dilate" in="SourceAlpha" result="effect1_dropShadow"/>
<feOffset dy="5"/>
<feGaussianBlur stdDeviation="10"/>
<feColorMatrix type="matrix" values="0 0 0 0 0.766667 0 0 0 0 0 0 0 0 0 0 0 0 0 0.1 0"/>
<feBlend mode="normal" in2="BackgroundImageFix" result="effect1_dropShadow"/>
<feBlend mode="normal" in="SourceGraphic" in2="effect1_dropShadow" result="shape"/>
</filter>
<filter id="filter1_d" x="230.964" y="68.9817" width="117.036" height="117.036" filterUnits="userSpaceOnUse" color-interpolation-filters="sRGB">
<feFlood flood-opacity="0" result="BackgroundImageFix"/>
<feColorMatrix in="SourceAlpha" type="matrix" values="0 0 0 0 0 0 0 0 0 0 0 0 0 0 0 0 0 0 127 0"/>
<feMorphology radius="10" operator="dilate" in="SourceAlpha" result="effect1_dropShadow"/>
<feOffset dy="5"/>
<feGaussianBlur stdDeviation="10"/>
<feColorMatrix type="matrix" values="0 0 0 0 0.766667 0 0 0 0 0 0 0 0 0 0 0 0 0 0.1 0"/>
<feBlend mode="normal" in2="BackgroundImageFix" result="effect1_dropShadow"/>
<feBlend mode="normal" in="SourceGraphic" in2="effect1_dropShadow" result="shape"/>
</filter>
<filter id="filter2_d" x="320.964" y="27.0381" width="117.036" height="117.036" filterUnits="userSpaceOnUse" color-interpolation-filters="sRGB">
<feFlood flood-opacity="0" result="BackgroundImageFix"/>
<feColorMatrix in="SourceAlpha" type="matrix" values="0 0 0 0 0 0 0 0 0 0 0 0 0 0 0 0 0 0 127 0"/>
<feMorphology radius="10" operator="dilate" in="SourceAlpha" result="effect1_dropShadow"/>
<feOffset dy="5"/>
<feGaussianBlur stdDeviation="10"/>
<feColorMatrix type="matrix" values="0 0 0 0 0.766667 0 0 0 0 0 0 0 0 0 0 0 0 0 0.1 0"/>
<feBlend mode="normal" in2="BackgroundImageFix" result="effect1_dropShadow"/>
<feBlend mode="normal" in="SourceGraphic" in2="effect1_dropShadow" result="shape"/>
</filter>
<filter id="filter3_d" x="90.858" y="0.196777" width="155" height="155" filterUnits="userSpaceOnUse" color-interpolation-filters="sRGB">
<feFlood flood-opacity="0" result="BackgroundImageFix"/>
<feColorMatrix in="SourceAlpha" type="matrix" values="0 0 0 0 0 0 0 0 0 0 0 0 0 0 0 0 0 0 127 0"/>
<feMorphology radius="10" operator="dilate" in="SourceAlpha" result="effect1_dropShadow"/>
<feOffset dy="5"/>
<feGaussianBlur stdDeviation="10"/>
<feColorMatrix type="matrix" values="0 0 0 0 0.766667 0 0 0 0 0 0 0 0 0 0 0 0 0 0.1 0"/>
<feBlend mode="normal" in2="BackgroundImageFix" result="effect1_dropShadow"/>
<feBlend mode="normal" in="SourceGraphic" in2="effect1_dropShadow" result="shape"/>
</filter>
</defs>
</svg>
