<svg width="201" height="368" viewBox="0 0 201 368" fill="none" xmlns="http://www.w3.org/2000/svg">
<rect x="0.950928" y="0.196289" width="200" height="200" rx="10" fill="white"/>
<rect x="0.950928" y="212.196" width="200" height="155" rx="10" fill="white"/>
<path fill-rule="evenodd" clip-rule="evenodd" d="M137.614 177.029C137.614 179.464 135.623 181.458 133.19 181.458H105.779C103.345 181.458 101.354 179.464 101.354 177.029V67.7377C101.354 65.3014 103.345 63.3096 105.779 63.3096H133.19C135.623 63.3096 137.614 65.3014 137.614 67.7377V177.029Z" fill="#FF6600"/>
<path fill-rule="evenodd" clip-rule="evenodd" d="M50.2581 176.935C50.2581 179.37 48.2671 181.363 45.8337 181.363H18.4243C15.9909 181.363 14 179.37 14 176.935V133.816C14 131.381 15.9909 129.389 18.4243 129.389H45.8337C48.2671 129.389 50.2581 131.381 50.2581 133.816V176.935Z" fill="#F5F8FD"/>
<path fill-rule="evenodd" clip-rule="evenodd" d="M93.9352 176.974C93.9352 179.408 91.9442 181.402 89.5109 181.402H62.1014C59.6681 181.402 57.6771 179.408 57.6771 176.974V98.0675C57.6771 95.633 59.6681 93.6411 62.1014 93.6411H89.5109C91.9442 93.6411 93.9352 95.633 93.9352 98.0675V176.974Z" fill="#A3B5D6"/>
<path fill-rule="evenodd" clip-rule="evenodd" d="M181.291 176.974C181.291 179.408 179.3 181.402 176.867 181.402H149.457C147.024 181.402 145.033 179.408 145.033 176.974V98.0675C145.033 95.633 147.024 93.6411 149.457 93.6411H176.867C179.3 93.6411 181.291 95.633 181.291 98.0675V176.974Z" fill="#09F4CC"/>
<path d="M100.951 239.588C74.8629 239.588 53.7145 260.741 53.7145 286.834C53.7145 312.928 74.8629 334.081 100.951 334.081C127.039 334.081 148.187 312.928 148.187 286.834C148.187 260.741 127.039 239.588 100.951 239.588ZM100.951 254.382C118.87 254.382 133.397 268.911 133.397 286.834C133.397 304.757 118.87 319.287 100.951 319.287C83.0315 319.287 68.5051 304.757 68.5051 286.834C68.5051 268.911 83.0315 254.382 100.951 254.382Z" fill="#F5F8FD"/>
<path d="M134.118 263.542C137.832 261.842 142.22 263.475 143.92 267.189C146.719 273.305 148.187 279.973 148.187 286.835C148.187 292.454 147.203 297.949 145.302 303.125C143.894 306.96 139.644 308.926 135.81 307.518C132.015 306.123 130.05 301.944 131.377 298.139L131.418 298.024C132.721 294.476 133.397 290.707 133.397 286.835C133.397 282.206 132.431 277.726 130.588 273.604L130.472 273.347C128.772 269.632 130.404 265.243 134.118 263.542Z" fill="#0085FF"/>
<path d="M169.99 317.903C161.149 317.903 154 325.155 154 334.081C154 343.006 161.149 350.258 169.99 350.258C178.831 350.258 185.979 343.006 185.979 334.081C185.979 325.155 178.831 317.903 169.99 317.903ZM169.99 324C175.444 324 179.884 328.503 179.884 334.081C179.884 339.658 175.444 344.161 169.99 344.161C164.535 344.161 160.096 339.658 160.096 334.081C160.096 328.503 164.535 324 169.99 324Z" fill="#F5F8FD"/>
<path d="M180.621 325.546C182.168 324.882 183.96 325.599 184.624 327.146C185.514 329.222 185.98 331.483 185.98 333.806C185.98 335.708 185.667 337.569 185.064 339.325C184.516 340.917 182.782 341.764 181.19 341.216C179.626 340.678 178.781 338.994 179.272 337.425L179.299 337.342C179.684 336.223 179.884 335.032 179.884 333.806C179.884 332.31 179.586 330.867 179.021 329.549C178.358 328.001 179.074 326.209 180.621 325.546Z" fill="#A3B5D6"/>
</svg>
