<svg width="650" height="441" viewBox="0 0 650 441" fill="none" xmlns="http://www.w3.org/2000/svg">
<path d="M311 -363.959L311.094 119.919L496.355 -327.09L311.27 119.993L653.489 -222.095L311.402 120.126L758.485 -64.9602L311.477 120.302L795.355 120.395L311.477 120.489L758.485 305.751L311.402 120.665L653.489 462.885L311.27 120.798L496.355 567.88L311.094 120.872L311 604.75L310.906 120.872L125.645 567.88L310.73 120.798L-31.4903 462.885L310.598 120.665L-136.485 305.751L310.524 120.489L-173.355 120.395L310.524 120.302L-136.485 -64.9602L310.598 120.126L-31.4903 -222.095L310.73 119.993L125.645 -327.09L310.906 119.919L311 -363.959Z" stroke="url(#paint0_radial)" stroke-opacity="0.3" stroke-width="2"/>
<path d="M311 -1.40613L311.024 120.275L357.612 7.86542L311.068 120.294L397.126 34.2687L311.101 120.328L423.53 73.7837L311.12 120.372L432.801 120.395L311.12 120.419L423.53 167.007L311.101 120.463L397.126 206.522L311.068 120.496L357.612 232.925L311.024 120.515L311 242.197L310.976 120.515L264.388 232.925L310.932 120.496L224.873 206.522L310.899 120.463L198.47 167.007L310.88 120.419L189.199 120.395L310.88 120.372L198.47 73.7837L310.899 120.328L224.873 34.2687L310.932 120.294L264.388 7.86542L310.976 120.275L311 -1.40613Z" fill="#F0C3D2" stroke="white" stroke-width="2"/>
<g filter="url(#filter0_f)">
<circle cx="309.727" cy="40.9705" r="106.763" fill="url(#paint1_radial)"/>
</g>
<path fill-rule="evenodd" clip-rule="evenodd" d="M384.821 59.0151H234.634V46.1124C234.634 43.3135 237.001 41.0442 239.92 41.0442H379.535C382.454 41.0442 384.821 43.3135 384.821 46.1124V59.0151Z" fill="black"/>
<path fill-rule="evenodd" clip-rule="evenodd" d="M379.535 190.333H239.92C237.001 190.333 234.634 187.952 234.634 185.014V58.3733H384.821V185.014C384.821 187.952 382.454 190.333 379.535 190.333Z" fill="white"/>
<path d="M368.307 163.091H338.595C336.772 163.091 335.294 164.57 335.294 166.393V174.648C335.294 176.472 336.772 177.95 338.595 177.95H368.307C370.131 177.95 371.609 176.472 371.609 174.648V166.393C371.609 164.57 370.131 163.091 368.307 163.091Z" fill="#0085FF"/>
<path d="M324.993 163.091H295.281C293.458 163.091 291.979 164.57 291.979 166.393V174.648C291.979 176.472 293.458 177.95 295.281 177.95H324.993C326.816 177.95 328.294 176.472 328.294 174.648V166.393C328.294 164.57 326.816 163.091 324.993 163.091Z" fill="#D6F1FE"/>
<path d="M281.678 163.091H251.966C250.143 163.091 248.665 164.57 248.665 166.393V174.648C248.665 176.472 250.143 177.95 251.966 177.95H281.678C283.501 177.95 284.979 176.472 284.979 174.648V166.393C284.979 164.57 283.501 163.091 281.678 163.091Z" fill="#F4F6FA"/>
<path d="M367.513 71.4604H251.966C250.143 71.4604 248.665 72.9388 248.665 74.7625V150.708C248.665 152.532 250.143 154.01 251.966 154.01H367.513C369.336 154.01 370.814 152.532 370.814 150.708V74.7625C370.814 72.9388 369.336 71.4604 367.513 71.4604Z" fill="#D6F1FE"/>
<path d="M369.989 122.642C370.217 122.642 370.401 122.827 370.401 123.055C370.401 123.273 370.232 123.451 370.018 123.466L369.989 123.467H247.908C247.68 123.467 247.495 123.282 247.495 123.055C247.495 122.837 247.665 122.658 247.879 122.643L247.908 122.642H369.989Z" fill="white"/>
<path d="M369.989 105.306C370.217 105.306 370.401 105.491 370.401 105.719C370.401 105.937 370.232 106.116 370.018 106.131L369.989 106.132H247.908C247.68 106.132 247.495 105.947 247.495 105.719C247.495 105.501 247.665 105.323 247.879 105.307L247.908 105.306H369.989Z" fill="white"/>
<path d="M369.989 87.1453C370.217 87.1453 370.401 87.33 370.401 87.5579C370.401 87.7759 370.232 87.9545 370.018 87.9696L369.989 87.9706H247.908C247.68 87.9706 247.495 87.7858 247.495 87.5579C247.495 87.3399 247.665 87.1614 247.879 87.1463L247.908 87.1453H369.989Z" fill="white"/>
<path d="M265.24 71.8735C265.458 71.8735 265.637 72.0426 265.652 72.2568L265.653 72.2863V153.185C265.653 153.413 265.468 153.598 265.24 153.598C265.022 153.598 264.844 153.429 264.828 153.215L264.827 153.185V72.2863C264.827 72.0583 265.012 71.8735 265.24 71.8735Z" fill="white"/>
<path d="M283.397 71.8735C283.615 71.8735 283.794 72.0426 283.809 72.2568L283.81 72.2863V153.185C283.81 153.413 283.625 153.598 283.397 153.598C283.179 153.598 283.001 153.429 282.986 153.215L282.985 153.185V72.2863C282.985 72.0583 283.17 71.8735 283.397 71.8735Z" fill="white"/>
<path d="M300.729 71.8735C300.947 71.8735 301.126 72.0426 301.141 72.2568L301.142 72.2863V153.185C301.142 153.413 300.957 153.598 300.729 153.598C300.511 153.598 300.333 153.429 300.318 153.215L300.317 153.185V72.2863C300.317 72.0583 300.502 71.8735 300.729 71.8735Z" fill="white"/>
<path d="M318.887 71.8735C319.105 71.8735 319.283 72.0426 319.298 72.2568L319.299 72.2863V153.185C319.299 153.413 319.115 153.598 318.887 153.598C318.669 153.598 318.49 153.429 318.475 153.215L318.474 153.185V72.2863C318.474 72.0583 318.659 71.8735 318.887 71.8735Z" fill="white"/>
<path d="M336.219 71.8735C336.437 71.8735 336.615 72.0426 336.63 72.2568L336.631 72.2863V153.185C336.631 153.413 336.447 153.598 336.219 153.598C336.001 153.598 335.822 153.429 335.807 153.215L335.806 153.185V72.2863C335.806 72.0583 335.991 71.8735 336.219 71.8735Z" fill="white"/>
<path d="M354.376 71.8735C354.594 71.8735 354.772 72.0426 354.788 72.2568L354.789 72.2863V153.185C354.789 153.413 354.604 153.598 354.376 153.598C354.158 153.598 353.979 153.429 353.964 153.215L353.963 153.185V72.2863C353.963 72.0583 354.148 71.8735 354.376 71.8735Z" fill="white"/>
<path d="M370.814 140.803C371.042 140.803 371.227 140.987 371.227 141.215C371.227 141.433 371.058 141.612 370.844 141.627L370.814 141.628H247.84C247.612 141.628 247.427 141.443 247.427 141.215C247.427 140.997 247.596 140.819 247.81 140.804L247.84 140.803H370.814Z" fill="white"/>
<rect x="283.819" y="105.513" width="86.9954" height="16.5066" fill="#09F4CC"/>
<rect x="248.679" y="122.845" width="87.0551" height="17.332" fill="#09F4CC"/>
<defs>
<filter id="filter0_f" x="172.965" y="-95.7921" width="273.525" height="273.525" filterUnits="userSpaceOnUse" color-interpolation-filters="sRGB">
<feFlood flood-opacity="0" result="BackgroundImageFix"/>
<feBlend mode="normal" in="SourceGraphic" in2="BackgroundImageFix" result="shape"/>
<feGaussianBlur stdDeviation="15" result="effect1_foregroundBlur"/>
</filter>
<radialGradient id="paint0_radial" cx="0" cy="0" r="1" gradientUnits="userSpaceOnUse" gradientTransform="translate(311 241.17) rotate(90) scale(363.58)">
<stop offset="0.083769" stop-color="white"/>
<stop offset="0.442371" stop-color="white" stop-opacity="0"/>
<stop offset="1" stop-color="white"/>
</radialGradient>
<radialGradient id="paint1_radial" cx="0" cy="0" r="1" gradientUnits="userSpaceOnUse" gradientTransform="translate(309.727 40.9705) rotate(90) scale(12.9991)">
<stop stop-color="#0085FF"/>
</radialGradient>
</defs>
</svg>
