<svg width="363" height="150" viewBox="0 0 363 150" fill="none" xmlns="http://www.w3.org/2000/svg">
<path d="M6.44946 58.7754H131.933L186.971 13.816L282.07 145.631L358.456 7.57861" stroke="#F5F8FD" stroke-width="8" stroke-linecap="round" stroke-linejoin="round"/>
<path d="M4.79755 59.1643H94.5926L162 83.9904L195.158 57.425L228.315 30.8596L280.849 88.1692L358.037 7.40796" stroke="#A3B5D6" stroke-width="8" stroke-linecap="round" stroke-linejoin="round"/>
<path fill-rule="evenodd" clip-rule="evenodd" d="M77.6162 11.4783H6.38379C3.46727 11.4783 1.08191 9.08663 1.08191 6.16357C1.08191 3.23999 3.46727 0.848877 6.38379 0.848877H77.6162C80.5322 0.848877 82.9181 3.23999 82.9181 6.16357C82.9181 9.08663 80.5322 11.4783 77.6162 11.4783Z" fill="#F5F8FD"/>
<path d="M4.48059 1.19678C2.27145 1.19678 0.480591 2.98764 0.480591 5.19678C0.480591 7.40592 2.27145 9.19678 4.48059 9.19678V1.19678ZM77.2783 9.19678C79.4874 9.19678 81.2783 7.40592 81.2783 5.19678C81.2783 2.98764 79.4874 1.19678 77.2783 1.19678V9.19678ZM4.48059 9.19678H77.2783V1.19678H4.48059V9.19678Z" fill="#F5F8FD"/>
<path d="M4.48427 24.3596C2.27514 24.3576 0.482626 26.1468 0.480592 28.3559C0.478559 30.5651 2.26777 32.3576 4.47691 32.3596L4.48427 24.3596ZM38.1929 32.3907C40.4021 32.3927 42.1946 30.6035 42.1966 28.3943C42.1987 26.1852 40.4094 24.3927 38.2003 24.3907L38.1929 32.3907ZM4.47691 32.3596L38.1929 32.3907L38.2003 24.3907L4.48427 24.3596L4.47691 32.3596Z" fill="#A3B5D6"/>
</svg>
