<svg width="650" height="35" viewBox="0 0 650 35" fill="none" xmlns="http://www.w3.org/2000/svg">
<path fill-rule="evenodd" clip-rule="evenodd" d="M650 34.4128H0V23.6266C0 10.9631 10.2434 0.695801 22.8775 0.695801H627.122C639.758 0.695801 650 10.9631 650 23.6266V34.4128Z" fill="black"/>
<path fill-rule="evenodd" clip-rule="evenodd" d="M40.3491 17.5543C40.3491 22.0491 36.7133 25.6934 32.2283 25.6934C27.7439 25.6934 24.1086 22.0491 24.1086 17.5543C24.1086 13.0595 27.7439 9.41528 32.2283 9.41528C36.7133 9.41528 40.3491 13.0595 40.3491 17.5543Z" fill="#A3B5D6"/>
<path fill-rule="evenodd" clip-rule="evenodd" d="M66.5891 17.5543C66.5891 22.0491 62.9538 25.6934 58.4688 25.6934C53.9844 25.6934 50.3491 22.0491 50.3491 17.5543C50.3491 13.0595 53.9844 9.41528 58.4688 9.41528C62.9538 9.41528 66.5891 13.0595 66.5891 17.5543Z" fill="#F5F8FD"/>
<path fill-rule="evenodd" clip-rule="evenodd" d="M92.8292 17.5543C92.8292 22.0491 89.1939 25.6934 84.7089 25.6934C80.2245 25.6934 76.5892 22.0491 76.5892 17.5543C76.5892 13.0595 80.2245 9.41528 84.7089 9.41528C89.1939 9.41528 92.8292 13.0595 92.8292 17.5543Z" fill="#F5F8FD"/>
</svg>
