<svg width="192" height="224" viewBox="0 0 192 224" fill="none" xmlns="http://www.w3.org/2000/svg">
<g filter="url(#filter0_d)">
<rect x="30.25" y="30.7248" width="116.674" height="163.276" rx="2.4723" fill="white"/>
</g>
<path d="M30.25 33.1971C30.25 31.8316 31.3569 30.7248 32.7223 30.7248H144.452C145.817 30.7248 146.924 31.8316 146.924 33.1971V47.0524H30.25V33.1971Z" fill="#0085FF"/>
<g clip-path="url(#clip0)">
<rect x="37.8727" y="56.0277" width="101.429" height="61.7777" rx="0.988921" fill="url(#paint0_linear)"/>
<circle cx="30.9475" cy="57.5555" r="19.9578" fill="url(#paint1_linear)"/>
<path d="M57.8643 76.5111C61.6382 73.0741 67.4079 73.0741 71.1818 76.5111L113.129 114.713C119.809 120.797 115.505 131.914 106.47 131.914H22.576C13.5413 131.914 9.23752 120.797 15.9172 114.713L57.8643 76.5111Z" fill="url(#paint2_linear)"/>
<path d="M119.5 54.1038C119.5 66.4838 109.464 76.5197 97.0843 76.5197C84.7044 76.5197 74.6685 66.4838 74.6685 54.1038C74.6685 41.7239 84.7044 31.688 97.0843 31.688C109.464 31.688 119.5 41.7239 119.5 54.1038Z" fill="url(#paint3_linear)"/>
<path d="M146.569 76.5197C146.569 88.8996 136.533 98.9355 124.153 98.9355C111.773 98.9355 101.737 88.8996 101.737 76.5197C101.737 64.1397 111.773 54.1038 124.153 54.1038C136.533 54.1038 146.569 64.1397 146.569 76.5197Z" fill="url(#paint4_linear)"/>
</g>
<rect x="38.12" y="56.2749" width="100.935" height="61.2832" rx="0.741691" stroke="url(#paint5_linear)" stroke-opacity="0.2" stroke-width="0.494461"/>
<rect x="71.1338" y="36.8821" width="34.907" height="4.01254" rx="0.988921" fill="black"/>
<rect x="38.1969" y="124.866" width="101.105" height="62.376" rx="0.988921" fill="#F5F8FD"/>
<rect x="43.5164" y="130.567" width="84.8688" height="2.17701" rx="0.494461" fill="#7D8499"/>
<rect x="43.5164" y="136.009" width="78.316" height="2.17701" rx="0.494461" fill="#7D8499"/>
<rect x="43.5164" y="141.452" width="83.8061" height="2.17701" rx="0.494461" fill="#7D8499"/>
<rect x="43.5164" y="146.894" width="90.142" height="2.17701" rx="0.494461" fill="#7D8499"/>
<rect x="43.5164" y="152.337" width="87.3293" height="2.17701" rx="0.494461" fill="#7D8499"/>
<rect x="43.5164" y="157.779" width="71.5404" height="2.17701" rx="0.494461" fill="#7D8499"/>
<rect x="43.5164" y="163.222" width="39.8682" height="2.17701" rx="0.494461" fill="#7D8499"/>
<rect x="43.5164" y="170.398" width="87.0805" height="10.1623" rx="0.988921" fill="#0085FF"/>
<path fill-rule="evenodd" clip-rule="evenodd" d="M35.7719 39.072C35.6703 38.9704 35.6703 38.8056 35.772 38.704L37.4286 37.0484C37.5302 36.9468 37.695 36.9468 37.7966 37.0485C37.8982 37.1502 37.8981 37.3149 37.7965 37.4165L36.324 38.8882L37.7956 40.3607C37.8972 40.4623 37.8972 40.6271 37.7955 40.7287C37.6938 40.8303 37.5291 40.8302 37.4275 40.7286L35.7719 39.072Z" fill="black"/>
<g filter="url(#filter1_d)">
<path d="M121.25 33.2634C121.25 19.0465 124.297 15.9994 138.514 15.9994H155.986C170.203 15.9994 173.25 19.0465 173.25 33.2634V50.7354C173.25 64.9523 170.203 67.9994 155.986 67.9994H138.514C124.297 67.9994 121.25 64.9523 121.25 50.7354V33.2634Z" fill="white"/>
</g>
<path d="M147.25 27.0001C138.966 27.0001 132.25 33.716 132.25 42.0001C132.25 45.0488 133.162 47.8837 134.724 50.2511L132.25 57.0001L139.23 54.6735C141.55 56.1445 144.299 57.0001 147.25 57.0001C155.534 57.0001 162.25 50.2842 162.25 42.0001C162.25 33.716 155.534 27.0001 147.25 27.0001Z" fill="#0085FF"/>
<circle cx="141.25" cy="42.0001" r="2" fill="black"/>
<circle cx="147.25" cy="42.0001" r="2" fill="black"/>
<circle cx="153.25" cy="42.0001" r="2" fill="black"/>
<defs>
<filter id="filter0_d" x="0.25" y="0.724759" width="176.674" height="223.276" filterUnits="userSpaceOnUse" color-interpolation-filters="sRGB">
<feFlood flood-opacity="0" result="BackgroundImageFix"/>
<feColorMatrix in="SourceAlpha" type="matrix" values="0 0 0 0 0 0 0 0 0 0 0 0 0 0 0 0 0 0 127 0"/>
<feMorphology radius="10" operator="dilate" in="SourceAlpha" result="effect1_dropShadow"/>
<feOffset/>
<feGaussianBlur stdDeviation="10"/>
<feColorMatrix type="matrix" values="0 0 0 0 0 0 0 0 0 0.122667 0 0 0 0 0.766667 0 0 0 0.05 0"/>
<feBlend mode="normal" in2="BackgroundImageFix" result="effect1_dropShadow"/>
<feBlend mode="normal" in="SourceGraphic" in2="effect1_dropShadow" result="shape"/>
</filter>
<filter id="filter1_d" x="103.25" y="4.99937" width="88" height="88" filterUnits="userSpaceOnUse" color-interpolation-filters="sRGB">
<feFlood flood-opacity="0" result="BackgroundImageFix"/>
<feColorMatrix in="SourceAlpha" type="matrix" values="0 0 0 0 0 0 0 0 0 0 0 0 0 0 0 0 0 0 127 0"/>
<feOffset dy="7"/>
<feGaussianBlur stdDeviation="9"/>
<feColorMatrix type="matrix" values="0 0 0 0 0 0 0 0 0 0.121569 0 0 0 0 0.764706 0 0 0 0.05 0"/>
<feBlend mode="normal" in2="BackgroundImageFix" result="effect1_dropShadow"/>
<feBlend mode="normal" in="SourceGraphic" in2="effect1_dropShadow" result="shape"/>
</filter>
<linearGradient id="paint0_linear" x1="88.5873" y1="56.0277" x2="88.5873" y2="117.805" gradientUnits="userSpaceOnUse">
<stop stop-color="#C5EBFE"/>
<stop offset="1" stop-color="#D3F0FF"/>
</linearGradient>
<linearGradient id="paint1_linear" x1="21.8232" y1="47.2449" x2="26.826" y2="68.0671" gradientUnits="userSpaceOnUse">
<stop stop-color="#EBF8FF"/>
<stop offset="1" stop-color="#D6F1FE"/>
</linearGradient>
<linearGradient id="paint2_linear" x1="64.523" y1="73.9334" x2="64.523" y2="131.914" gradientUnits="userSpaceOnUse">
<stop stop-color="#09F4CC"/>
<stop offset="1" stop-color="#099ECD"/>
</linearGradient>
<linearGradient id="paint3_linear" x1="94.1829" y1="47.941" x2="102.12" y2="83.2624" gradientUnits="userSpaceOnUse">
<stop stop-color="#EBF8FF"/>
<stop offset="1" stop-color="#D6F1FE"/>
</linearGradient>
<linearGradient id="paint4_linear" x1="94.1829" y1="47.941" x2="102.12" y2="83.2624" gradientUnits="userSpaceOnUse">
<stop stop-color="#EBF8FF"/>
<stop offset="1" stop-color="#D6F1FE"/>
</linearGradient>
<linearGradient id="paint5_linear" x1="88.5873" y1="56.0277" x2="88.5873" y2="117.805" gradientUnits="userSpaceOnUse">
<stop stop-color="#A4C8FF"/>
<stop offset="1" stop-color="#B6E9FF"/>
</linearGradient>
<clipPath id="clip0">
<rect x="37.8727" y="56.0277" width="101.429" height="61.7777" rx="0.988921" fill="white"/>
</clipPath>
</defs>
</svg>
