<?xml version="1.0" encoding="UTF-8"?>
<!DOCTYPE svg PUBLIC "-//W3C//DTD SVG 1.1//EN" "http://www.w3.org/Graphics/SVG/1.1/DTD/svg11.dtd">
<!-- Creator: CorelDRAW X8 -->
<svg xmlns="http://www.w3.org/2000/svg" xml:space="preserve" width="28.0578mm" height="27.9331mm" version="1.1" style="shape-rendering:geometricPrecision; text-rendering:geometricPrecision; image-rendering:optimizeQuality; fill-rule:evenodd; clip-rule:evenodd"
viewBox="0 0 5536147 5511542"
 xmlns:xlink="http://www.w3.org/1999/xlink">
 <defs>
  <style type="text/css">
   <![CDATA[
    .str0 {stroke:#A3E1E1;stroke-width:15035.2}
    .fil1 {fill:#A3E1E1}
    .fil0 {fill:#A3E1E1;fill-rule:nonzero}
   ]]>
  </style>
 </defs>
 <g id="Слой_x0020_1">
  <metadata id="CorelCorpID_0Corel-Layer"/>
  <path class="fil0" d="M2768883 4305728c166492,0 317238,67500 426332,176594 109074,109075 176575,259821 176575,426313 0,166492 -67481,317219 -176575,426333 -109114,109094 -259840,176574 -426332,176574 -166492,0 -317239,-67500 -426313,-176574 -109094,-109094 -176595,-259841 -176595,-426333 0,-166472 67481,-317219 176595,-426313 109094,-109113 259840,-176594 426313,-176594zm402694 200232c-103056,-103056 -245437,-166807 -402694,-166807 -157258,0 -299639,63751 -402675,166807 -103056,103037 -166808,245417 -166808,402675 0,157258 63752,299639 166808,402695 103036,103036 245417,166788 402675,166788 157238,0 299638,-63752 402694,-166788 103037,-103056 166788,-245457 166788,-402695 0,-157258 -63751,-299638 -166788,-402675z"/>
  <path class="fil0" d="M3393731 665968c351512,104852 665870,295850 918548,548528 233321,233322 414079,519267 522936,838479 -11187,1756 -22296,3808 -33267,6136 -107377,-312444 -284701,-592371 -513307,-820977 -247529,-247528 -555217,-434935 -899211,-538524 1716,-11128 3176,-22336 4301,-33642zm1490122 2633389c-98321,385212 -299066,729423 -571574,1001931 -252580,252580 -566819,443539 -918173,548410 -1066,-11326 -2407,-22553 -4065,-33701 343738,-103609 651210,-290957 898600,-538347 267200,-267200 464374,-604426 561629,-981825 11109,1460 22296,2663 33583,3532zm-2740194 1550341c-351354,-104871 -665593,-295830 -918172,-548410 -272528,-272527 -473313,-616817 -571614,-1002070 11267,-907 22454,-2111 33563,-3610 97235,377458 294449,714803 561689,982042 247390,247390 554861,434738 898599,538347 -1657,11148 -2999,22375 -4065,33701zm-1441188 -2796487c108857,-319290 289635,-605334 523016,-838715 252678,-252678 567035,-443676 918547,-548528 1125,11306 2585,22514 4302,33642 -343995,103589 -651683,290996 -899211,538524 -228685,228685 -406049,508730 -513407,821293 -10970,-2348 -22079,-4440 -33247,-6216z"/>
  <path class="fil0" d="M2768883 0c166492,0 317238,67501 426332,176594 109074,109075 176575,259821 176575,426313 0,166492 -67481,317219 -176575,426333 -109114,109094 -259840,176575 -426332,176575 -166492,0 -317239,-67501 -426313,-176575 -109094,-109094 -176595,-259841 -176595,-426333 0,-166472 67481,-317219 176595,-426313 109094,-109113 259840,-176594 426313,-176594zm402694 200232c-103056,-103056 -245437,-166807 -402694,-166807 -157258,0 -299639,63751 -402675,166807 -103056,103037 -166808,245417 -166808,402675 0,157258 63752,299639 166808,402695 103036,103036 245417,166788 402675,166788 157238,0 299638,-63752 402694,-166788 103037,-103056 166788,-245457 166788,-402695 0,-157258 -63751,-299638 -166788,-402675z"/>
  <path class="fil0" d="M2768883 4305728c166492,0 317238,67500 426332,176594 109074,109075 176575,259821 176575,426313 0,166492 -67481,317219 -176575,426333 -109114,109094 -259840,176574 -426332,176574 -166492,0 -317239,-67500 -426313,-176574 -109094,-109094 -176595,-259841 -176595,-426333 0,-166472 67481,-317219 176595,-426313 109094,-109113 259840,-176594 426313,-176594zm402694 200232c-103056,-103056 -245437,-166807 -402694,-166807 -157258,0 -299639,63751 -402675,166807 -103056,103037 -166808,245417 -166808,402675 0,157258 63752,299639 166808,402695 103036,103036 245417,166788 402675,166788 157238,0 299638,-63752 402694,-166788 103037,-103056 166788,-245457 166788,-402695 0,-157258 -63751,-299638 -166788,-402675z"/>
  <path class="fil0" d="M4933240 2070397c166492,0 317239,67501 426333,176595 109074,109074 176574,259820 176574,426313 0,166492 -67481,317218 -176574,426332 -109114,109094 -259841,176575 -426333,176575 -166492,0 -317239,-67501 -426313,-176575 -109094,-109094 -176594,-259840 -176594,-426332 0,-166473 67481,-317219 176594,-426313 109094,-109114 259841,-176595 426313,-176595zm402695 200233c-103057,-103056 -245437,-166808 -402695,-166808 -157258,0 -299638,63752 -402675,166808 -103056,103036 -166808,245417 -166808,402675 0,157257 63752,299638 166808,402694 103037,103037 245417,166788 402675,166788 157238,0 299638,-63751 402695,-166788 103036,-103056 166788,-245456 166788,-402694 0,-157258 -63752,-299639 -166788,-402675z"/>
  <path class="fil0" d="M602907 2070397c166492,0 317239,67501 426333,176595 109074,109074 176575,259820 176575,426313 0,166492 -67481,317218 -176575,426332 -109114,109094 -259841,176575 -426333,176575 -166492,0 -317238,-67501 -426313,-176575 -109093,-109094 -176594,-259840 -176594,-426332 0,-166473 67481,-317219 176594,-426313 109094,-109114 259841,-176595 426313,-176595zm402695 200233c-103056,-103056 -245437,-166808 -402695,-166808 -157258,0 -299638,63752 -402675,166808 -103056,103036 -166807,245417 -166807,402675 0,157257 63751,299638 166807,402694 103037,103037 245417,166788 402675,166788 157238,0 299639,-63751 402695,-166788 103036,-103056 166788,-245456 166788,-402694 0,-157258 -63752,-299639 -166788,-402675z"/>
  <g id="_735929208">
   <path class="fil1 str0" d="M2980816 4611937l-105977 0c0,0 0,0 -19,0 -9669,-12865 -25059,-21192 -42363,-21192l-26993 0c-7478,-12924 -21369,-21191 -36581,-21191 -15213,0 -29084,8267 -36562,21191l-27012 0c-17305,0 -32695,8327 -42363,21192 0,0 -20,0 -20,0l-105976 0c-29203,0 -52979,23776 -52979,52978l0 529843c0,29202 23776,52978 52979,52978l423866 0c29222,0 52978,-23776 52978,-52978l0 -529843c0,-29202 -23756,-52978 -52978,-52978zm-307294 31787c0,-17522 14246,-31787 31787,-31787l33740 0c4479,0 8484,-2822 9984,-7044 2999,-8465 10990,-14148 19850,-14148 8879,0 16850,5683 19869,14148 1500,4222 5485,7044 9984,7044l33721 0c17541,0 31787,14265 31787,31787l0 31787 -190722 0 0 -31787zm339081 551034c0,17521 -14266,31787 -31787,31787l-423866 0c-17522,0 -31787,-14266 -31787,-31787l0 -529843c0,-17521 14265,-31787 31787,-31787l96446 0c-711,3433 -1066,6965 -1066,10596l0 42382c0,5861 4736,10616 10596,10616l211933 0c5840,0 10596,-4755 10596,-10616l0 -42382c0,-3631 -375,-7163 -1066,-10596l96427 0c17521,0 31787,14266 31787,31787l0 529843z"/>
   <path class="fil1 str0" d="M2980816 4654319l-63574 0c-5860,0 -10596,4756 -10596,10596 0,5860 4736,10596 10596,10596l52978 0 0 508651 -402675 0 0 -508651 52979 0c5860,0 10615,-4736 10615,-10596 0,-5840 -4755,-10596 -10615,-10596l-63574 0c-5841,0 -10596,4756 -10596,10596l0 529843c0,5840 4755,10595 10596,10595l423866 0c5860,0 10595,-4755 10595,-10595l0 -529843c0,-5840 -4735,-10596 -10595,-10596z"/>
   <path class="fil1 str0" d="M2768883 4611937c-2802,0 -5525,1124 -7498,3098 -1973,1973 -3098,4715 -3098,7497 0,2783 1125,5525 3098,7498 1973,1973 4696,3098 7498,3098 2782,0 5524,-1125 7497,-3098 1974,-1973 3098,-4696 3098,-7498 0,-2782 -1124,-5524 -3098,-7497 -1973,-1974 -4715,-3098 -7497,-3098z"/>
   <path class="fil1 str0" d="M2602450 4816372c-4144,4144 -4144,10852 0,14996l31787 31787c2072,2071 4775,3097 7498,3097 2703,0 5406,-1026 7478,-3097l52998 -52979c4124,-4143 4124,-10852 0,-14995 -4144,-4144 -10852,-4144 -14996,0l-45480 45500 -24309 -24309c-4144,-4124 -10852,-4124 -14976,0z"/>
   <path class="fil1 str0" d="M2702211 4911753c-4144,-4144 -10852,-4144 -14996,0l-45480 45480 -24309 -24289c-4144,-4144 -10852,-4144 -14976,0 -4144,4144 -4144,10852 0,14976l31787 31787c2072,2072 4775,3118 7498,3118 2703,0 5426,-1046 7478,-3118l52998 -52978c4124,-4144 4124,-10852 0,-14976z"/>
   <path class="fil1 str0" d="M2687215 5028305l-45480 45500 -24309 -24309c-4144,-4123 -10852,-4123 -14976,0 -4144,4144 -4144,10853 0,14996l31787 31787c2072,2072 4775,3098 7498,3098 2703,0 5426,-1026 7478,-3098l52998 -52978c4124,-4144 4124,-10852 0,-14996 -4144,-4144 -10852,-4144 -14996,0z"/>
   <path class="fil1 str0" d="M2747691 4834465l180146 0c5841,0 10596,-4735 10596,-10595 0,-5860 -4755,-10596 -10596,-10596l-180146 0c-5860,0 -10595,4736 -10595,10596 0,5860 4735,10595 10595,10595z"/>
   <path class="fil1 str0" d="M2747691 4951038l180146 0c5841,0 10596,-4756 10596,-10596 0,-5860 -4755,-10616 -10596,-10616l-180146 0c-5860,0 -10595,4756 -10595,10616 0,5840 4735,10596 10595,10596z"/>
   <path class="fil1 str0" d="M2747691 5067590l180146 0c5841,0 10596,-4736 10596,-10596 0,-5860 -4755,-10595 -10596,-10595l-180146 0c-5860,0 -10595,4735 -10595,10595 0,5860 4735,10596 10595,10596z"/>
   <path class="fil1 str0" d="M5109775 2799683c-237,-59 -454,-118 -671,-158l-60949 -12746 -16101 -24427c-118,-178 -237,-356 -355,-513 -2940,-3907 -7399,-6492 -12234,-7064 -4853,-592 -9786,828 -13575,3926 -59,59 -138,119 -197,178l-72453 62370 -72453 -62370c-59,-59 -138,-119 -197,-178 -3789,-3078 -8722,-4518 -13575,-3926 -4835,572 -9294,3157 -12234,7064 -118,157 -237,335 -355,513l-16101 24427 -60949 12746c-217,40 -434,99 -652,158 -17738,4953 -32793,15943 -43606,31767 -9845,14424 -15272,31847 -15272,49052l0 19258c0,16890 15036,30642 33524,30642l178548 0c19,0 19,0 39,0 20,0 40,0 40,0l46486 0c0,0 20,0 40,0 20,0 20,0 39,0l178548 0c18488,0 33523,-13752 33523,-30642l0 -19258c0,-17205 -5426,-34628 -15271,-49052 -10793,-15824 -25868,-26795 -43587,-31767zm-93013 -23322l12727 19297 -50887 69967 -30307 -30307 68467 -58957zm-90231 113158l13437 0 4065 20402 -21586 0 4084 -20402zm16949 -26104c0,3374 -2052,5623 -3413,5623l-13654 0c-1361,0 -3414,-2249 -3414,-5623l0 -3927 10241 -10260 10240 10260 0 3927 0 0zm-93762 -87054l68467 58957 -30287 30307 -50907 -69967 12727 -19297zm-131390 123399l0 -19258c0,-24151 14976,-52801 43606,-61009l58226 -12174 58207 80050c1776,2407 4499,3946 7479,4183 276,19 552,19 809,19 2703,0 5307,-1065 7241,-2999l11937 -11937c553,1006 1145,1953 1796,2861l-6077 30425 -170182 0c-7064,0 -13042,-4656 -13042,-10161zm429824 0c0,5505 -5978,10161 -13042,10161l-170182 0 -6077 -30405c651,-908 1243,-1875 1796,-2881l11937 11937c1934,1934 4538,2999 7241,2999 277,0 533,0 809,-19 2980,-237 5722,-1756 7479,-4183l58207 -80050 58246 12174c28610,8208 43586,36858 43586,61009l0 19258z"/>
   <path class="fil1 str0" d="M4795141 2674114l0 98596c0,4479 3631,8110 8090,8110 4479,0 8109,-3631 8109,-8110l0 -97215 7419 0c6018,18961 15391,36798 27644,51952 23559,29183 54280,45244 86521,45244 24980,0 49210,-9708 70086,-28098 98,-78 197,-177 296,-276 1282,99 2584,158 3887,158 9471,0 19099,-2249 28452,-6787 30583,-14799 51124,-49546 51124,-86482l0 -48618c0,-13398 -10892,-24309 -24309,-24309l-3315 0c17955,-68448 9826,-124642 2644,-140980 -20,-39 -40,-59 -40,-98 -78,-158 -157,-296 -236,-454 -60,-79 -99,-178 -138,-276 -79,-119 -178,-257 -257,-375 -59,-99 -118,-198 -197,-296 -79,-99 -158,-197 -237,-296 -79,-119 -178,-237 -276,-336 -59,-78 -119,-138 -198,-197 -118,-138 -236,-256 -355,-375 -59,-59 -118,-98 -177,-138 -138,-138 -277,-256 -415,-355 -79,-59 -138,-99 -197,-138 -158,-99 -296,-217 -454,-296 -79,-59 -158,-99 -237,-158 -138,-79 -276,-158 -434,-217 -98,-59 -217,-99 -315,-158 -138,-39 -257,-99 -375,-158 -138,-39 -257,-79 -375,-118 -138,-40 -257,-79 -375,-119 -118,-39 -257,-59 -375,-78 -138,-40 -256,-79 -395,-99 -118,-20 -236,-20 -335,-40 -158,-19 -316,-39 -474,-59 -78,0 -177,0 -276,0 -177,0 -355,-19 -533,0 -78,0 -157,0 -256,0 -178,20 -375,40 -553,59 -19,0 -59,0 -78,0 -20324,2921 -44909,-2032 -70954,-7261 -43665,-8760 -88771,-17797 -124050,7360 -533,-118 -1085,-177 -1638,-177 -36187,0 -61443,29991 -61443,72906 0,19889 5012,50078 9451,72927l-1361 0c-13398,0 -24289,10911 -24289,24309l0 48618c0,10556 6768,19553 16199,22908zm233440 48992c-17087,8287 -34628,6571 -49466,-4795 1500,-3157 2348,-6688 2348,-10398 0,-13417 -10911,-24309 -24309,-24309 -13397,0 -24309,10892 -24309,24309 0,13398 10912,24289 24309,24289 3749,0 7301,-848 10478,-2367 217,217 453,434 710,631 4775,3769 9806,6768 15055,9037 -15647,11128 -32892,16988 -50453,16988 -27269,0 -53511,-13930 -73933,-39225 -20165,-24960 -31728,-58010 -31728,-90646l0 -9234c0,-28847 16377,-67816 21922,-80227 55977,-6570 100570,0 128371,6788 24388,5958 40410,13101 46171,15903l14601 34766 0 32064c0,26795 -7774,54122 -21941,76951 -2348,3809 -1184,8801 2624,11168 1342,809 2802,1204 4262,1204 2703,0 5367,-1362 6886,-3828 7064,-11385 12688,-23776 16752,-36680l15549 0c1558,0 3078,-158 4577,-434 -6255,21073 -20362,39285 -38476,48045zm-63317 -15193c0,4459 -3631,8090 -8110,8090 -4459,0 -8090,-3631 -8090,-8090 0,-4479 3631,-8109 8090,-8109 4479,0 8110,3630 8110,8109zm105305 -105325l0 48618c0,4459 -3630,8089 -8089,8089l-11326 0c2229,-10773 3413,-21724 3413,-32615l0 -32182 7893 0c4479,0 8109,3631 8109,8090zm-213985 -153943c789,0 1539,-99 2250,-316 2367,671 5011,276 7142,-1322 29735,-22592 72118,-14088 113100,-5860 21507,4321 42086,8445 61068,8445 2940,0 5820,-99 8662,-316 4992,17975 9708,63318 -3868,119157l-7399 -17600c-710,-1677 -1973,-3078 -3551,-3966 -3000,-1638 -74545,-40252 -191275,-25236 -20,0 -39,0 -59,0 -158,39 -316,59 -474,98 -98,20 -217,40 -335,59 -99,20 -197,60 -296,79 -927,257 -1776,671 -2526,1224 0,0 -19,0 -19,0 -60,39 -119,98 -178,138 -533,414 -1026,888 -1440,1421 -20,19 -40,39 -59,59 -79,118 -158,236 -237,335 -79,119 -158,217 -217,336 -59,79 -99,157 -158,256 -79,138 -158,296 -237,454 -20,20 -20,39 -39,39 -612,1303 -9787,20442 -16930,43843 -4025,-21408 -8169,-47532 -8169,-64620 0,-39166 22731,-56707 45244,-56707zm-61443 153943c0,-4459 3631,-8090 8090,-8090l4657 0c1519,7222 2722,12490 3196,14601l0 17521c0,10932 1184,21922 3433,32675l-11286 0c-4459,0 -8090,-3630 -8090,-8089l0 -48618z"/>
   <path class="fil1 str0" d="M474141 2621648c0,38377 13615,77248 37352,106628 24900,30859 57417,47848 91513,47848 34076,0 66553,-16969 91395,-47809 23658,-29360 37233,-68211 37233,-106588l0 -34352c25157,-79892 15824,-147353 7636,-165959 -20,-20 -40,-40 -40,-79 -79,-158 -177,-336 -256,-493 -59,-99 -99,-178 -158,-277 -79,-138 -158,-276 -257,-414 -78,-99 -138,-217 -217,-316 -79,-98 -157,-197 -236,-315 -99,-119 -198,-237 -296,-356 -60,-59 -138,-138 -198,-217 -138,-118 -256,-256 -394,-375 -59,-59 -119,-98 -178,-157 -138,-119 -296,-257 -454,-375 -59,-40 -118,-79 -197,-138 -158,-99 -316,-217 -474,-316 -78,-59 -157,-99 -256,-138 -138,-99 -296,-178 -454,-257 -99,-59 -217,-98 -335,-138 -138,-79 -257,-138 -415,-177 -118,-60 -256,-99 -375,-139 -138,-39 -256,-78 -394,-118 -138,-39 -257,-59 -395,-99 -138,-39 -276,-59 -434,-98 -118,-20 -237,-20 -355,-40 -158,-19 -316,-39 -474,-59 -118,0 -217,0 -315,0 -178,-20 -375,-20 -553,0 -98,0 -177,0 -276,0 -197,20 -395,40 -592,59 -20,0 -59,0 -79,20 -21487,3058 -47493,-2170 -75038,-7695 -46171,-9274 -93881,-18824 -131193,7774 -552,-118 -1124,-178 -1736,-178 -38259,0 -64975,31708 -64975,77110 0,35102 14759,100570 16870,109706l0 18527zm206922 95914c-21527,26716 -49249,41435 -78057,41435 -28827,0 -56589,-14739 -78195,-41475 -21310,-26400 -33543,-61344 -33543,-95874l0 -9747c0,-30524 17304,-71723 23184,-84864 59194,-6945 106351,0 135771,7182 25788,6314 42718,13851 48815,16811l15449 36759 0 33938c0,34530 -12174,69474 -33424,95835zm-158817 -284110c829,0 1638,-138 2388,-355 2505,730 5307,296 7557,-1401 31451,-23895 76261,-14897 119610,-6176 22750,4558 44494,8918 64581,8918 3097,0 6156,-118 9175,-335 5268,19021 10260,66948 -4105,126023l-7833 -18626c-750,-1776 -2072,-3256 -3749,-4183 -3176,-1736 -78846,-42580 -202284,-26696 -20,0 -40,0 -59,0 -158,39 -336,59 -494,98 -118,20 -237,40 -355,79 -118,20 -217,40 -316,79 -1085,296 -2071,809 -2920,1460 -552,434 -1065,928 -1499,1500 -20,20 -40,39 -60,39 -79,119 -157,257 -256,375 -59,119 -158,217 -217,336 -59,79 -99,177 -158,276 -99,158 -178,316 -276,473 0,20 0,40 -20,60 -651,1361 -10359,21605 -17896,46348 -4282,-22631 -8662,-50275 -8662,-68329 0,-41436 24032,-59963 47848,-59963z"/>
   <path class="fil1 str0" d="M843549 2842579c-11542,-16930 -27663,-28670 -46585,-33977 -178,-40 -375,-99 -553,-139l-68349 -14285 -18389 -27900c-99,-138 -197,-276 -296,-414 -2802,-3729 -7044,-6176 -11641,-6748 -4618,-553 -9333,809 -12924,3749 -60,59 -119,98 -158,138l-81747 70361 -81726 -70361c-60,-40 -119,-79 -158,-138 -3591,-2940 -8307,-4302 -12924,-3749 -4617,572 -8860,3019 -11642,6748 -98,138 -197,276 -296,414l-18389 27900 -68349 14285c-197,40 -375,99 -553,139 -18922,5307 -35042,17047 -46585,33977 -10576,15469 -16397,34135 -16397,52583l0 21251c0,17127 15391,31057 34273,31057l197036 0c0,0 20,0 20,0 20,0 20,0 40,0l51321 0c0,0 19,0 19,0 20,0 40,0 40,0l197016 0c18903,0 34273,-13930 34273,-31057l0 -21251c0,-18448 -5821,-37114 -16377,-52583zm-147905 -66435l16791 25453 -59154 81332 -18606 -18606c0,0 0,0 0,0l-19179 -19179 80148 -69000zm-101300 128489l17146 0c513,0 1026,-19 1520,-39l5150 25749 -30505 0 5150 -25749c513,20 1026,39 1539,39zm25710 -25690c0,4716 -3848,8564 -8564,8564l-17146 0c-4716,0 -8563,-3848 -8563,-8564l0 -5011 17126 -17147 17147 17147 0 5011 0 0zm-109883 -102799l80167 69000 -19178 19179c0,0 0,0 0,0l-18607 18606 -59154 -81332 16772 -25453zm-147136 140269l0 -21251c0,-27722 17225,-60594 50176,-69986l66100 -13812 65271 89757c1480,2013 3768,3295 6255,3493 236,19 453,19 670,19 2270,0 4440,-887 6058,-2505l13141 -13122c1401,3276 3473,6216 6018,8623l-6531 32714 -190032 0c-9451,0 -17126,-6255 -17126,-13930zm479764 0c0,7675 -7695,13930 -17126,13930l-190032 0 -6550 -32714c2565,-2407 4636,-5347 6037,-8623l13141 13122c1599,1618 3789,2505 6058,2505 217,0 434,0 671,-19 2486,-198 4775,-1480 6254,-3493l65271 -89757 66080 13812c32951,9392 50196,42264 50196,69986l0 21251z"/>
   <path class="fil1 str0" d="M2648325 557802c0,34944 12726,70342 34924,97097 23342,28137 53807,43626 85772,43626 31984,0 62410,-15489 85692,-43606 22119,-26736 34806,-62094 34806,-97058l0 -30781c8939,-38515 10813,-71861 10813,-93111 -20,-27466 -3019,-46428 -5801,-55031 -1480,-4558 -5919,-7340 -10517,-6886 -749,-79 -1539,-59 -2308,39 -18686,2684 -41613,-1933 -65883,-6807 -39304,-7892 -83739,-16791 -117697,6748 -315,-20 -611,-39 -927,-39 -19060,0 -35990,7616 -47671,21448 -10773,12785 -16712,30366 -16712,49525 0,31353 13338,89303 15509,98538l0 16298 0 0zm190899 84311c-19376,23421 -44316,36325 -70203,36325 -25888,0 -50867,-12924 -70303,-36364 -19257,-23224 -30307,-53926 -30307,-84272l0 -12036c0,-24862 16693,-58622 23027,-70559 90329,-10320 150805,14640 164519,21053l13476 31728 0 29873c0,30366 -11010,61068 -30209,84252zm-142025 -250034c730,0 1440,-79 2131,-217 2762,572 5742,20 8169,-1815 27091,-20580 66376,-12687 104378,-5051 20323,4084 39778,7971 57872,7971 2505,0 4972,-59 7419,-237 3038,17028 5485,53649 -1322,98933l-2842 -6689c-888,-2072 -2446,-3789 -4420,-4874 -2900,-1578 -71801,-38397 -183954,-24328 -3275,177 -6432,1933 -8188,5011 -651,1105 -9392,16377 -16949,35891 -3434,-18606 -6591,-39521 -6591,-53708 0,-35141 22257,-50887 44297,-50887z"/>
   <path class="fil1 str0" d="M2942024 720762c-217,-59 -434,-99 -651,-158l-59766 -12490 -15805 -23973c-98,-158 -217,-336 -335,-494 -2881,-3827 -7261,-6353 -11997,-6925 -4755,-592 -9609,828 -13318,3847 -59,60 -138,119 -198,178l-71052 61167 -71072 -61167c-59,-59 -118,-118 -197,-178 -3690,-3019 -8543,-4439 -13299,-3847 -4755,572 -9135,3098 -11996,6925 -138,158 -237,336 -355,494l-15805 23973 -59766 12490c-217,59 -434,99 -651,158 -17383,4873 -32162,15647 -42758,31155 -9668,14167 -14976,31255 -14976,48125l0 18883c0,16574 14740,30050 32892,30050l175095 0c20,0 40,0 40,0 19,0 39,0 39,0l45599 0c0,0 20,0 39,0 0,0 20,0 40,0l175114 0c18133,0 32873,-13476 32873,-30050l0 -18883c0,-16870 -5308,-33958 -14976,-48125 -10596,-15508 -25375,-26282 -42758,-31155zm-91217 -22869l12470 18923 -49900 68625 -29716 -29715 67146 -57833zm-88495 110989l13181 0 3985 20007 -21171 0 4005 -20007zm16634 -25592c0,3295 -2013,5485 -3355,5485l-13397 0c-1322,0 -3355,-2190 -3355,-5485l0 -3867 10063 -10043 10044 10043 0 3867 0 0zm-91968 -85397l67165 57833 -29735 29715 -49900 -68625 12470 -18923zm-128864 121032l0 -18883c0,-23697 14680,-51795 42757,-59845l57122 -11937 57083 78510c1736,2368 4419,3868 7340,4104 276,20 532,20 789,20 2664,0 5209,-1046 7103,-2940l11720 -11720c533,986 1105,1933 1756,2821l-5958 29834 -166907 0c-6945,0 -12805,-4558 -12805,-9964zm421557 0c0,5406 -5860,9964 -12786,9964l-166906 0 -5959 -29834c632,-888 1224,-1835 1756,-2821l11701 11720c1894,1894 4459,2940 7103,2940 257,0 533,0 789,-20 2940,-236 5604,-1736 7340,-4104l57103 -78510 57102 11937c28077,8050 42757,36148 42757,59845l0 18883z"/>
   <path class="fil1 str0" d="M2528024 576645c0,24408 8306,47315 23381,64501 15311,17443 35733,27032 57556,27032 16337,0 32083,-5446 45520,-15765 4400,-3394 5209,-9688 1835,-14088 -3374,-4400 -9688,-5229 -14088,-1855 -9885,7597 -21389,11622 -33267,11622 -33563,0 -60851,-32044 -60851,-71447l0 -5900c0,-15883 6570,-36897 10004,-46822 21684,-1914 41041,928 56845,3256l1796 256c493,79 986,119 1480,119 4893,0 9194,-3591 9925,-8583 809,-5486 -2980,-10596 -8485,-11405l-1776 -257c-18468,-2722 -41435,-6116 -68270,-2683 -19,0 -59,0 -79,0 -19,0 -19,0 -19,0 -40,20 -60,20 -99,20 -296,39 -572,98 -868,158 -158,39 -296,98 -454,138 -158,39 -316,79 -474,138 -197,59 -374,138 -572,217 -98,39 -217,79 -316,118 -197,99 -394,198 -572,296 -98,40 -197,99 -296,138 -177,99 -335,217 -513,316 -118,79 -217,138 -335,217 -138,99 -257,197 -395,316 -138,98 -256,197 -375,296 -118,98 -217,197 -315,276 -138,138 -277,276 -415,414 -79,79 -158,178 -236,257 -139,158 -277,316 -395,473 -79,99 -138,198 -217,296 -119,158 -237,316 -336,494 -98,138 -177,296 -256,434 -79,138 -158,256 -237,414 -118,257 -256,533 -355,809 -20,20 -20,59 -39,79 0,0 0,0 0,0 -20,20 -20,59 -40,79 -158,434 -888,2328 -1914,5248 -809,-6392 -1342,-12391 -1342,-17225 0,-21704 10478,-31432 20856,-31432 494,0 987,-39 1460,-98 474,59 948,98 1421,98 2131,0 4262,-651 6077,-2032 9373,-7123 21468,-9530 39206,-7774 5525,552 10438,-3493 10991,-8998 552,-5524 -3493,-10437 -8998,-10990 -13614,-1342 -33326,-1697 -50472,9728 -23934,177 -40627,21309 -40627,51498 0,21172 8346,59727 9945,66909l0 10694z"/>
   <path class="fil1 str0" d="M2517763 758587l-44711 0c-3157,0 -5505,-1875 -5505,-3572l0 -12864c0,-14898 9156,-32537 26677,-37628l36582 -7636 18882 27249c1954,2802 5091,4321 8268,4321 1973,0 3966,-572 5722,-1795 4558,-3157 5682,-9412 2525,-13970l-18823 -27150 5564 -8426 39167 29262c4459,3315 10753,2387 14068,-2052 3315,-4440 2407,-10734 -2032,-14049l-43014 -32103c-3157,-2505 -7242,-3650 -11247,-3157 -4104,494 -7873,2684 -10359,5979 -119,158 -237,335 -336,493l-10043 15213 -39383 8248c-217,39 -454,98 -671,158 -27328,7655 -41653,34490 -41653,57043l0 12864c0,13043 11484,23658 25611,23658l44711 0c5545,0 10044,-4499 10044,-10043 0,-5545 -4499,-10043 -10044,-10043z"/>
   <path class="fil1 str0" d="M2919373 447188c14759,296 31096,2940 46881,5486 11937,1933 23362,3768 33287,4400 -336,23796 -1914,45184 -3670,62410 -20,-20 -40,-20 -60,-40 -157,-118 -335,-217 -493,-335 -79,-40 -138,-99 -217,-138 -99,-60 -177,-119 -276,-158 0,-20 -20,-20 -20,-20 -20106,-12115 -44474,-19100 -74485,-21349 -5525,-414 -10359,3729 -10773,9274 -415,5524 3748,10339 9273,10753 25592,1934 46329,7537 63239,17147 2387,5623 7616,19810 7616,36127l0 5900c0,39403 -27288,71447 -60831,71447 -11898,0 -23402,-4025 -33287,-11622 -4400,-3374 -10714,-2545 -14088,1855 -3374,4400 -2545,10694 1835,14088 13437,10319 29182,15765 45540,15765 21803,0 42244,-9609 57536,-27032 15094,-17186 23381,-40093 23381,-64501l0 -10852c1421,-7518 9708,-54281 9945,-116079 256,-987 355,-2032 296,-3117 -316,-5348 -4775,-9471 -10083,-9432 -79,0 -177,-20 -256,-20 -198,0 -375,20 -572,20 -9728,513 -24250,-1835 -39621,-4321 -15706,-2545 -33523,-5426 -49703,-5742 -5584,-138 -10122,4301 -10240,9846 -119,5544 4301,10122 9846,10240z"/>
   <path class="fil1 str0" d="M3048691 685108c-217,-60 -434,-119 -651,-158l-39403 -8248 -10024 -15213c-118,-158 -237,-335 -355,-493 -2486,-3315 -6255,-5485 -10339,-5979 -4025,-493 -8110,652 -11267,3157l-42994 32103c-4459,3315 -5367,9609 -2052,14049 3335,4439 9629,5367 14068,2032l39167 -29242 5564 8426 -18824 27150c-3157,4558 -2012,10813 2546,13970 1736,1203 3729,1795 5702,1795 3197,0 6314,-1519 8268,-4321l18902 -27249 36562 7636c17521,5091 26696,22730 26696,37628l0 12864c0,1677 -2367,3572 -5524,3572l-44711 0c-5545,0 -10044,4498 -10044,10043 0,5544 4499,10043 10044,10043l44711 0c14127,0 25611,-10615 25611,-23658l0 -12864c0,-22553 -14305,-49388 -41653,-57043z"/>
  </g>
  <path class="fil0" d="M4225363 2690017l-319982 0 0 -33425 319982 0 0 33425zm-1439768 291548l0 1221975 -33425 0 0 -1221975 33425 0zm-1154809 -291548l-320001 0 0 -33425 320001 0 0 33425zm1121384 -418480l0 -963534 33425 0 0 963534 -33425 0z"/>
  <path class="fil0" d="M1816891 2800709l0 -288234c25907,-2506 62390,-3768 109449,-3768 40370,0 68013,6550 82910,19652 14897,13082 22356,37864 22356,74347 0,36483 -7044,61345 -21093,74565 -14068,13219 -39344,19849 -75827,19849 -18370,0 -36483,-1125 -54300,-3354l0 106943 -63495 0zm63495 -152463l44691 0c16436,-296 27643,-3493 33642,-9609 5978,-6137 8977,-18113 8977,-35931 0,-17817 -2999,-29794 -8977,-35930 -5999,-6117 -17206,-9195 -33642,-9195l-44691 434 0 90231z"/>
  <path id="1" class="fil0" d="M2184483 2800709l-63495 0 0 -203014c0,-12254 849,-22691 2506,-31334l-67244 17541 -7518 -42599 72256 -28828 63495 0 0 288234z"/>
  <path id="2" class="fil0" d="M2359105 2691674l-58069 -20461c-21448,-7794 -36760,-18389 -45954,-31747 -9195,-13359 -13793,-30919 -13793,-52643 0,-31748 7735,-52979 23185,-63693 15469,-10734 42678,-16081 81667,-16081 36759,0 68369,3749 94828,11267l-4183 43448c-24230,-829 -54300,-1243 -90230,-1243 -16693,0 -27841,1460 -33405,4380 -5584,2920 -8366,10241 -8366,21922 0,9471 2091,16298 6274,20481 4183,4183 12115,8208 23816,12115l54714 18784c22277,7813 38022,18468 47197,31964 9195,13516 13793,31116 13793,52841 0,32300 -7794,54241 -23402,65803 -15587,11543 -43428,17324 -83542,17324 -32576,0 -65586,-3611 -98991,-10852l3749 -45954c59331,1401 91079,2091 95242,2091 16989,0 28334,-1815 34056,-5426 5703,-3630 8564,-11148 8564,-22572 0,-9747 -1954,-16634 -5860,-20678 -3888,-4026 -10991,-7715 -21290,-11070z"/>
  <path id="3" class="fil0" d="M2727131 2512475l61404 0c15311,0 23243,7932 23815,23816l11267 264418 -60141 0 -9609 -238531 -7103 0 -43448 178371c-2782,13654 -11425,20481 -25907,20481l-41771 0c-14483,0 -23106,-6827 -25888,-20481l-43862 -178371 -7103 0 -8366 238531 -60141 0 10438 -264418c828,-15884 8780,-23816 23815,-23816l61404 0c13634,0 22000,6827 25058,20462l35102 143702c2210,9195 4716,22711 7518,40528l5426 0c276,-1401 1322,-7103 3137,-17127 1796,-10023 3256,-17837 4380,-23401l34668 -143702c3335,-13635 11977,-20462 25907,-20462z"/>
  <path id="4" class="fil0" d="M2982789 2691674l-58069 -20461c-21448,-7794 -36759,-18389 -45954,-31747 -9195,-13359 -13792,-30919 -13792,-52643 0,-31748 7734,-52979 23184,-63693 15469,-10734 42678,-16081 81667,-16081 36760,0 68369,3749 94829,11267l-4183 43448c-24230,-829 -54301,-1243 -90231,-1243 -16693,0 -27841,1460 -33405,4380 -5584,2920 -8366,10241 -8366,21922 0,9471 2091,16298 6274,20481 4183,4183 12115,8208 23816,12115l54715 18784c22276,7813 38022,18468 47197,31964 9194,13516 13792,31116 13792,52841 0,32300 -7794,54241 -23401,65803 -15588,11543 -43429,17324 -83542,17324 -32577,0 -65587,-3611 -98992,-10852l3749 -45954c59332,1401 91079,2091 95243,2091 16988,0 28334,-1815 34056,-5426 5702,-3630 8563,-11148 8563,-22572 0,-9747 -1953,-16634 -5860,-20678 -3887,-4026 -10990,-7715 -21290,-11070z"/>
  <path id="5" class="fil0" d="M3133180 2737628l16693 0c8090,0 13733,1539 16929,4598 3197,3058 4795,8642 4795,16712l0 20047c0,8070 -1598,13713 -4795,16929 -3196,3197 -8839,4795 -16929,4795l-16693 0c-8090,0 -13733,-1598 -16929,-4795 -3197,-3216 -4795,-8859 -4795,-16929l0 -20047c0,-8070 1598,-13654 4795,-16712 3196,-3059 8839,-4598 16929,-4598z"/>
  <path id="6" class="fil0" d="M3449393 2800709l-67264 0 -21704 -88139c-2802,-9195 -6492,-15529 -11070,-19001 -4597,-3493 -11227,-5229 -19849,-5229l-44691 -415 0 112784 -62667 0 0 -288234c25907,-2506 62529,-3768 109864,-3768 38712,0 66139,6136 82299,18389 16140,12253 24230,34530 24230,66830 0,21171 -4262,37746 -12747,49723 -8504,11976 -22631,19218 -42402,21724l0 2071c22000,5032 35654,19495 40942,43449l25059 89816zm-164578 -161658l45934 0c16712,0 28137,-2861 34253,-8563 6137,-5722 9195,-16495 9195,-32379 0,-15864 -2999,-26598 -8978,-32162 -5978,-5564 -17481,-8366 -34470,-8366l-45934 434 0 81036z"/>
  <path id="7" class="fil0" d="M3719257 2512475l0 173359c0,44001 -8426,75057 -25276,93151 -16850,18113 -45895,27150 -87094,27150 -43448,0 -74011,-9037 -91710,-27150 -17679,-18094 -26519,-49150 -26519,-93151l0 -173359 63495 0 0 173359c0,26459 3690,44553 11069,54300 7380,9747 20955,14621 40725,14621 19495,0 32932,-4874 40311,-14621 7380,-9747 11070,-27841 11070,-54300l0 -173359 63929 0z"/>
 </g>
</svg>
