<svg class="comments__quote comments__quote--down" width="36" height="27" viewBox="0 0 36 27" fill="none" xmlns="http://www.w3.org/2000/svg">
<path d="M12.4357 22.7983C10.2769 25.547 7.04734 27.0002 3.09637 27.0002C1.52715 27.0002 0.255188 25.7284 0.255188 24.1594C0.255188 22.5904 1.52715 21.3182 3.09637 21.3182C5.33199 21.3182 6.87913 20.6735 7.96603 19.2893C9.01941 17.9471 9.55573 16.0186 9.77913 13.9612L2.69152 13.9612C1.5149 13.9612 0.560684 13.007 0.560684 11.8302L0.560684 2.66815C0.560684 1.49093 1.5149 0.537109 2.69152 0.537109L11.854 0.537109C13.1645 0.537109 14.3575 1.68543 14.6143 2.7376C14.6464 2.86967 15.4065 6.01655 15.5711 9.93701C15.8061 15.5214 14.751 19.8489 12.4357 22.7983Z" fill="black"/>
<path d="M32.0871 22.7983C29.929 25.547 26.6994 27.0002 22.7478 27.0002C21.1786 27.0002 19.9068 25.7284 19.9068 24.1594C19.9068 22.5904 21.1786 21.3182 22.7478 21.3182C24.9836 21.3182 26.5314 20.6735 27.6177 19.2893C28.6715 17.9471 29.2074 16.0186 29.4306 13.9612H22.3432C21.1664 13.9612 20.2127 13.007 20.2127 11.8302V2.66815C20.2127 1.49093 21.1664 0.537109 22.3432 0.537109L31.5058 0.537109C32.8159 0.537109 34.009 1.68543 34.2659 2.7376C34.2982 2.86967 35.0578 6.01655 35.2231 9.93701C35.4578 15.5214 34.403 19.8489 32.0871 22.7983Z" fill="black"/>
</svg>
