<svg width="1140" height="318" viewBox="0 0 1140 318" fill="none" xmlns="http://www.w3.org/2000/svg">
<path fill-rule="evenodd" clip-rule="evenodd" d="M1108.71 69.8673C1125.91 69.8673 1139.85 83.8123 1139.85 101.014C1139.85 118.216 1125.91 132.161 1108.71 132.161H1051.29C1050.16 144.073 1039.23 150.678 1026.39 150.489C1024.76 150.465 1024.09 148.529 1025.25 147.39C1028.39 144.31 1030.15 140.096 1030.15 135.698V132.161C1012.96 132.161 999.015 118.216 999.015 101.014C999.015 83.8123 1012.96 69.8673 1030.15 69.8673H1108.71Z" fill="#09F4CC"/>
<path fill-rule="evenodd" clip-rule="evenodd" d="M1093.45 112.395C1087.78 112.395 1083.18 107.797 1083.18 102.125C1083.18 96.4537 1087.78 91.856 1093.45 91.856C1099.13 91.856 1103.72 96.4537 1103.72 102.125C1103.72 107.797 1099.13 112.395 1093.45 112.395ZM1093.2 108.888C1089.61 108.888 1086.69 106.084 1086.69 102.626C1086.69 99.1679 1089.61 96.3644 1093.2 96.3644C1096.8 96.3644 1099.72 99.1679 1099.72 102.626C1099.72 106.084 1096.8 108.888 1093.2 108.888Z" fill="white"/>
<path fill-rule="evenodd" clip-rule="evenodd" d="M1068.91 112.395C1063.24 112.395 1058.64 107.797 1058.64 102.125C1058.64 96.4537 1063.24 91.856 1068.91 91.856C1074.58 91.856 1079.18 96.4537 1079.18 102.125C1079.18 107.797 1074.58 112.395 1068.91 112.395ZM1068.66 108.888C1065.06 108.888 1062.15 106.084 1062.15 102.626C1062.15 99.1679 1065.06 96.3644 1068.66 96.3644C1072.25 96.3644 1075.17 99.1679 1075.17 102.626C1075.17 106.084 1072.25 108.888 1068.66 108.888Z" fill="white"/>
<path fill-rule="evenodd" clip-rule="evenodd" d="M1044.36 112.395C1038.69 112.395 1034.09 107.797 1034.09 102.125C1034.09 96.4537 1038.69 91.856 1044.36 91.856C1050.03 91.856 1054.63 96.4537 1054.63 102.125C1054.63 107.797 1050.03 112.395 1044.36 112.395ZM1044.11 108.888C1040.51 108.888 1037.6 106.084 1037.6 102.626C1037.6 99.1679 1040.51 96.3644 1044.11 96.3644C1047.71 96.3644 1050.62 99.1679 1050.62 102.626C1050.62 106.084 1047.71 108.888 1044.11 108.888Z" fill="white"/>
<rect x="0.152344" y="159.36" width="81.2726" height="58.9995" rx="5.27744" fill="#FFEC61"/>
<path d="M7.40527 165.252L40.197 198.387L74.172 164.356" stroke="#322E30" stroke-width="4.22195" stroke-linecap="round" stroke-linejoin="round"/>
<path d="M30.6512 188.86L11.2932 210.357" stroke="#322E30" stroke-width="4.22195" stroke-linecap="round" stroke-linejoin="round"/>
<path d="M50.655 188.849L69.7764 210.357" stroke="#322E30" stroke-width="4.22195" stroke-linecap="round" stroke-linejoin="round"/>
<path d="M101.542 171.992H170.149" stroke="black" stroke-width="2.0117"/>
<path d="M101.542 187.783H121.362" stroke="black" stroke-width="2.0117"/>
<path d="M101.542 203.574H144.994" stroke="black" stroke-width="2.0117"/>
<path d="M1006.73 273.303H1074.83" stroke="black" stroke-width="1.96004"/>
<path d="M1006.73 289.046H1026.4" stroke="black" stroke-width="1.96004"/>
<path d="M1006.73 304.788H1049.86" stroke="black" stroke-width="1.96004"/>
<g clip-path="url(#clip0)">
<rect x="905.707" y="260.838" width="81.1936" height="57.0959" rx="5.24703" fill="#DAE3F1"/>
<path d="M899.627 250.91C880.125 264.828 895.521 288.678 917.85 277.054C925.634 273.002 933.856 266.863 936.68 259.793C937.373 258.06 937.321 256.062 934.09 255.936C931.593 255.84 928.871 257.684 927.423 259.043C923.212 262.995 919.806 266.969 918.03 271.905C915.295 279.51 911.582 294.873 918.098 301.941C921.814 305.972 933.867 305.143 938.505 302.464C942.437 300.194 945.561 297.789 947.47 294.262C947.952 293.37 950.384 286.8 947.785 286.722C944.942 286.638 941.944 289.742 940.397 291.26C936.805 294.785 934.985 298.832 934 303.128C933.239 306.442 932.897 311.376 934.09 314.611C934.75 316.401 935.444 318.281 936.342 320.004C937.027 321.316 937.569 323.305 938.865 324.35C939.607 324.947 939.514 322.658 939.563 322.343C939.879 320.339 940.729 318.476 941.005 316.479C941.748 311.103 945.274 305.533 948.911 300.981C953.969 294.651 958.282 288.768 965.715 283.895C967.3 282.855 984.896 271.179 987.158 277.752C988.077 280.421 986.865 284.236 986.189 286.775C985.112 290.822 981.79 294.82 978.486 297.979C974.579 301.715 966.825 303.595 962.471 299.218C959.068 295.798 959.633 289.742 959.633 285.64C959.633 266.987 969.168 254.939 987.203 242.411C991.32 239.551 995.788 237.66 1000.76 235.796C1002.72 235.062 1004.82 233.946 1007.07 233.946" stroke="white" stroke-width="6.30629" stroke-linecap="round" stroke-linejoin="round"/>
<path d="M912.953 266.688L942.16 294.54C944.151 296.439 947.281 296.446 949.281 294.555L979.655 265.844" stroke="#322E30" stroke-width="4.19763" stroke-linecap="round" stroke-linejoin="round"/>
<path d="M936.594 289.485L916.837 309.917" stroke="#322E30" stroke-width="4.19763" stroke-linecap="round" stroke-linejoin="round"/>
<path d="M955.169 289.485L974.927 309.917" stroke="#322E30" stroke-width="4.19763" stroke-linecap="round" stroke-linejoin="round"/>
</g>
<rect x="93.1287" y="1.98193" width="43.5" height="31.6283" rx="3.39854" stroke="#322E30" stroke-width="3.5"/>
<path d="M98.8787 7.79623L113.316 21.5642C113.888 22.1094 114.787 22.1114 115.361 21.5687L130.352 7.39783" stroke="#322E30" stroke-width="4" stroke-linecap="round" stroke-linejoin="round"/>
<path d="M110.034 18.5531L100.711 28.1944" stroke="#322E30" stroke-width="4" stroke-linecap="round" stroke-linejoin="round"/>
<path d="M118.799 18.5531L128.121 28.1944" stroke="#322E30" stroke-width="4" stroke-linecap="round" stroke-linejoin="round"/>
<defs>
<clipPath id="clip0">
<rect width="81" height="57.0116" fill="white" transform="translate(905.848 260.838)"/>
</clipPath>
</defs>
</svg>
