<svg width="315" height="163" viewBox="0 0 315 163" fill="none" xmlns="http://www.w3.org/2000/svg">
<rect x="1.51926" y="1.17856" width="29.2484" height="21.2662" rx="2.2851" stroke="#322E30" stroke-width="2.35332"/>
<path d="M5.38538 5.08794L15.093 14.3452C15.4774 14.7118 16.0816 14.7132 16.4677 14.3482L26.5475 4.82007" stroke="#322E30" stroke-width="2.68951" stroke-linecap="round" stroke-linejoin="round"/>
<path d="M12.8859 12.3207L6.61768 18.8032" stroke="#322E30" stroke-width="2.68951" stroke-linecap="round" stroke-linejoin="round"/>
<path d="M18.7792 12.3207L25.0475 18.8032" stroke="#322E30" stroke-width="2.68951" stroke-linecap="round" stroke-linejoin="round"/>
<path fill-rule="evenodd" clip-rule="evenodd" d="M298.265 119.394C307.423 119.394 314.848 126.821 314.848 135.981C314.848 145.142 307.423 152.569 298.265 152.569H267.687C267.086 158.912 261.265 162.43 254.425 162.329C253.56 162.316 253.199 161.285 253.817 160.679C255.489 159.038 256.431 156.794 256.431 154.452V152.569C247.272 152.569 239.848 145.142 239.848 135.981C239.848 126.821 247.272 119.394 256.431 119.394H298.265Z" fill="#09F4CC"/>
<path fill-rule="evenodd" clip-rule="evenodd" d="M290.141 142.042C287.121 142.042 284.672 139.593 284.672 136.573C284.672 133.553 287.121 131.104 290.141 131.104C293.161 131.104 295.61 133.553 295.61 136.573C295.61 139.593 293.161 142.042 290.141 142.042ZM290.008 140.175C288.092 140.175 286.54 138.682 286.54 136.84C286.54 134.998 288.092 133.505 290.008 133.505C291.923 133.505 293.476 134.998 293.476 136.84C293.476 138.682 291.923 140.175 290.008 140.175Z" fill="white"/>
<path fill-rule="evenodd" clip-rule="evenodd" d="M277.069 142.042C274.049 142.042 271.6 139.593 271.6 136.573C271.6 133.553 274.049 131.104 277.069 131.104C280.089 131.104 282.538 133.553 282.538 136.573C282.538 139.593 280.089 142.042 277.069 142.042ZM276.936 140.175C275.02 140.175 273.468 138.682 273.468 136.84C273.468 134.998 275.02 133.505 276.936 133.505C278.851 133.505 280.404 134.998 280.404 136.84C280.404 138.682 278.851 140.175 276.936 140.175Z" fill="white"/>
<path fill-rule="evenodd" clip-rule="evenodd" d="M263.997 142.042C260.977 142.042 258.528 139.593 258.528 136.573C258.528 133.553 260.977 131.104 263.997 131.104C267.017 131.104 269.466 133.553 269.466 136.573C269.466 139.593 267.017 142.042 263.997 142.042ZM263.864 140.175C261.948 140.175 260.396 138.682 260.396 136.84C260.396 134.998 261.948 133.505 263.864 133.505C265.779 133.505 267.332 134.998 267.332 136.84C267.332 138.682 265.779 140.175 263.864 140.175Z" fill="white"/>
</svg>
