<?xml version="1.0" encoding="UTF-8"?>
<!DOCTYPE svg PUBLIC "-//W3C//DTD SVG 1.1//EN" "http://www.w3.org/Graphics/SVG/1.1/DTD/svg11.dtd">
<!-- Creator: CorelDRAW X8 -->
<svg xmlns="http://www.w3.org/2000/svg" xml:space="preserve" width="19.7776mm" height="9.2082mm" version="1.1" style="shape-rendering:geometricPrecision; text-rendering:geometricPrecision; image-rendering:optimizeQuality; fill-rule:evenodd; clip-rule:evenodd"
viewBox="0 0 515306 239920"
 xmlns:xlink="http://www.w3.org/1999/xlink">
 <defs>
  <style type="text/css">
   <![CDATA[
    .str0 {stroke:white;stroke-width:5211.01}
    .fil11 {fill:none}
    .fil8 {fill:#6D4B41;fill-rule:nonzero}
    .fil6 {fill:#7CB342;fill-rule:nonzero}
    .fil4 {fill:#8C6E62;fill-rule:nonzero}
    .fil0 {fill:#90A3AE;fill-rule:nonzero}
    .fil10 {fill:#90B326;fill-rule:nonzero}
    .fil9 {fill:#A08C52;fill-rule:nonzero}
    .fil2 {fill:#F9A824;fill-rule:nonzero}
    .fil1 {fill:white;fill-rule:nonzero}
    .fil7 {fill:white;fill-rule:nonzero;fill-opacity:0.239216}
    .fil5 {fill:white;fill-rule:nonzero;fill-opacity:0.388235}
    .fil3 {fill:white;fill-rule:nonzero;fill-opacity:0.560784}
   ]]>
  </style>
 </defs>
 <g id="Слой_x0020_1">
  <metadata id="CorelCorpID_0Corel-Layer"/>
  <g id="_788700920">
   <polygon class="fil0" points="284899,51031 302163,51031 302163,237924 284899,237924 232242,237924 214975,237924 214975,51031 232242,51031 "/>
  </g>
  <g id="_788701064">
   <polygon class="fil1" points="283867,128324 287205,128324 287205,98113 283867,98113 "/>
   <polygon class="fil1" points="276546,128324 279886,128324 279886,98113 276546,98113 "/>
   <polygon class="fil1" points="269224,128324 272562,128324 272562,98113 269224,98113 "/>
   <polygon class="fil1" points="261903,128324 265240,128324 265240,98113 261903,98113 "/>
   <polygon class="fil1" points="254581,128324 257919,128324 257919,98113 254581,98113 "/>
   <polygon class="fil1" points="247260,128324 250597,128324 250597,98113 247260,98113 "/>
   <polygon class="fil1" points="239938,128324 243276,128324 243276,98113 239938,98113 "/>
   <polygon class="fil1" points="232617,128324 235954,128324 235954,98113 232617,98113 "/>
   <polygon class="fil1" points="225295,128324 228633,128324 228633,98113 225295,98113 "/>
  </g>
  <g id="_788703128">
   <g>
    <polygon class="fil1" points="229284,167229 287856,167229 287856,159806 229284,159806 "/>
    <polygon class="fil1" points="229284,181075 287856,181075 287856,173652 229284,173652 "/>
    <polygon class="fil1" points="229284,194923 287856,194923 287856,187500 229284,187500 "/>
   </g>
  </g>
  <g id="_788700608">
   <g>
    <polygon class="fil1" points="279029,144381 287205,144381 287205,135390 279029,135390 "/>
    <polygon class="fil1" points="268281,144381 276460,144381 276460,135390 268281,135390 "/>
    <g>
     <polygon class="fil2" points="257536,144381 265712,144381 265712,135390 257536,135390 "/>
    </g>
    <polygon class="fil1" points="246788,144381 254964,144381 254964,135390 246788,135390 "/>
    <g>
     <polygon class="fil2" points="236040,144381 244219,144381 244219,135390 236040,135390 "/>
    </g>
    <polygon class="fil1" points="225295,144381 233471,144381 233471,135390 225295,135390 "/>
   </g>
  </g>
  <g id="_788878136">
   <g>
    <polygon class="fil1" points="279029,89533 287205,89533 287205,80541 279029,80541 "/>
    <g>
     <polygon class="fil2" points="268281,89533 276460,89533 276460,80541 268281,80541 "/>
    </g>
    <polygon class="fil1" points="257536,89533 265712,89533 265712,80541 257536,80541 "/>
    <polygon class="fil1" points="246788,89533 254964,89533 254964,80541 246788,80541 "/>
    <g>
     <polygon class="fil2" points="236040,89533 244219,89533 244219,80541 236040,80541 "/>
    </g>
    <polygon class="fil1" points="225295,89533 233471,89533 233471,80541 225295,80541 "/>
   </g>
  </g>
  <g id="_788879672">
   <g>
    <polygon class="fil1" points="279029,75586 287205,75586 287205,66594 279029,66594 "/>
    <polygon class="fil1" points="268281,75586 276460,75586 276460,66594 268281,66594 "/>
    <polygon class="fil1" points="257536,75586 265712,75586 265712,66594 257536,66594 "/>
    <g>
     <polygon class="fil2" points="246788,75586 254964,75586 254964,66594 246788,66594 "/>
    </g>
    <polygon class="fil1" points="236040,75586 244219,75586 244219,66594 236040,66594 "/>
    <g>
     <polygon class="fil2" points="225295,75586 233471,75586 233471,66594 225295,66594 "/>
    </g>
   </g>
  </g>
  <path class="fil1" d="M258570 207237c-8087,0 -14643,6558 -14643,14643l0 16044 29286 0 0 -16044c0,-8085 -6555,-14643 -14643,-14643z"/>
  <path class="fil3" d="M453438 79400c0,-19239 -15596,-34835 -34835,-34835 -2316,0 -4578,231 -6767,661 -3580,-9669 -12881,-16563 -23796,-16563 -10635,0 -19734,6545 -23507,15823 -2042,-977 -4330,-1524 -6745,-1524 -8643,0 -15649,7006 -15649,15649 0,383 18,761 44,1136 -11547,985 -20614,10664 -20614,22467l131747 0c73,-930 122,-1865 122,-2814z"/>
  <path class="fil3" d="M249764 112839c0,-10776 -8737,-19515 -19516,-19515 -1297,0 -2563,130 -3791,373 -2003,-5420 -7217,-9281 -13332,-9281 -5956,0 -11055,3666 -13168,8864 -1144,-548 -2426,-855 -3781,-855 -4841,0 -8767,3927 -8767,8768 0,216 10,427 26,638 -6470,550 -11548,5972 -11548,12585l73809 0c42,-522 68,-1045 68,-1577z"/>
  <path class="fil3" d="M104705 35711c0,-13541 -10977,-24518 -24518,-24518 -1631,0 -3220,164 -4763,467 -2519,-6806 -9067,-11660 -16748,-11660 -7486,0 -13890,4609 -16545,11139 -1438,-688 -3048,-1074 -4747,-1074 -6084,0 -11016,4932 -11016,11014 0,271 13,536 31,799 -8127,693 -14510,7507 -14510,15813l92730 0c52,-654 86,-1313 86,-1980z"/>
  <g id="_788880584">
   <polygon class="fil4" points="175301,231280 164837,231280 164837,174558 175301,174558 "/>
   <polygon class="fil5" points="170069,174558 164837,174558 164837,231280 170069,231280 "/>
   <g>
    <path class="fil6" d="M194157 129692c1876,-3679 2939,-7840 2939,-12252 0,-14926 -12100,-27029 -27027,-27029 -14927,0 -27027,12103 -27027,27029 0,4412 1063,8573 2939,12252 -11897,7840 -19752,21318 -19752,36630 0,24211 19627,43841 43840,43841 24213,0 43840,-19630 43840,-43841 0,-15312 -7855,-28790 -19752,-36630z"/>
   </g>
   <path class="fil7" d="M170069 90411c-14927,0 -27027,12103 -27027,27029 0,4412 1063,8573 2939,12252 -11897,7840 -19752,21318 -19752,36630 0,24211 19627,43841 43840,43841l0 -119752z"/>
  </g>
  <g id="_788881352">
   <g>
    <polygon class="fil4" points="385096,238380 301368,238380 301368,126502 385096,126502 "/>
   </g>
   <path class="fil1" d="M331464 146388l-7746 0 0 -12238c0,-1332 1079,-2411 2413,-2411l2921 0c1331,0 2412,1079 2412,2411l0 12238z"/>
   <path class="fil1" d="M341892 146388l-7747 0 0 -12238c0,-1332 1079,-2411 2411,-2411l2923 0c1331,0 2413,1079 2413,2411l0 12238z"/>
   <path class="fil1" d="M352319 146388l-7746 0 0 -12238c0,-1332 1078,-2411 2410,-2411l2923 0c1332,0 2413,1079 2413,2411l0 12238z"/>
   <path class="fil1" d="M362743 146388l-7743 0 0 -12238c0,-1332 1079,-2411 2410,-2411l2923 0c1332,0 2410,1079 2410,2411l0 12238z"/>
   <g>
    <g>
     <polygon class="fil1" points="373171,154837 313291,154837 313291,151575 373171,151575 "/>
    </g>
    <g>
     <polygon class="fil1" points="373171,170408 313291,170408 313291,167146 373171,167146 "/>
    </g>
   </g>
   <g>
    <polygon class="fil1" points="324896,192932 313291,192932 313291,176604 324896,176604 "/>
    <polygon class="fil1" points="340988,192932 329383,192932 329383,176604 340988,176604 "/>
    <polygon class="fil1" points="357079,192932 345474,192932 345474,176604 357079,176604 "/>
    <polygon class="fil1" points="373171,192932 361566,192932 361566,176604 373171,176604 "/>
    <polygon class="fil1" points="324896,214563 313291,214563 313291,198235 324896,198235 "/>
    <polygon class="fil1" points="340988,214563 329383,214563 329383,198235 340988,198235 "/>
    <polygon class="fil1" points="357079,214563 345474,214563 345474,198235 357079,198235 "/>
    <polygon class="fil1" points="373171,214563 361566,214563 361566,198235 373171,198235 "/>
    <polygon class="fil8" points="324896,192932 313291,192932 313291,190749 324896,190749 "/>
    <polygon class="fil8" points="340988,192932 329383,192932 329383,190749 340988,190749 "/>
    <polygon class="fil8" points="357079,192932 345474,192932 345474,190749 357079,190749 "/>
    <polygon class="fil8" points="373171,192932 361566,192932 361566,190749 373171,190749 "/>
    <polygon class="fil8" points="324896,214563 313291,214563 313291,212377 324896,212377 "/>
    <polygon class="fil8" points="340988,214563 329383,214563 329383,212377 340988,212377 "/>
    <polygon class="fil8" points="357079,214563 345474,214563 345474,212377 357079,212377 "/>
    <polygon class="fil8" points="373171,214563 361566,214563 361566,212377 373171,212377 "/>
   </g>
   <path class="fil8" d="M327069 236332l-13590 0 0 -10153c0,-3752 3043,-6796 6795,-6796 3752,0 6795,3044 6795,6796l0 10153z"/>
   <polygon class="fil2" points="385096,126502 301368,126502 301368,117232 385096,117232 "/>
   <polygon class="fil2" points="370271,108384 316194,108384 316194,120546 370271,120546 "/>
   <g>
    <polygon class="fil8" points="326548,164394 314000,164394 314000,157589 326548,157589 "/>
    <polygon class="fil8" points="341931,164394 329383,164394 329383,157589 341931,157589 "/>
    <polygon class="fil8" points="357311,164394 344766,164394 344766,157589 357311,157589 "/>
    <polygon class="fil8" points="372694,164394 360146,164394 360146,157589 372694,157589 "/>
   </g>
  </g>
  <g id="_788887448">
   <polygon class="fil9" points="64736,237195 62576,237195 62576,157203 64736,157203 "/>
   <polygon class="fil9" points="67391,237195 59919,237195 59919,232713 67391,232713 "/>
   <polygon class="fil9" points="82230,164824 63775,164824 63775,157203 82230,157203 85111,161012 "/>
   <polygon class="fil9" points="45203,176833 63655,176833 63655,169212 45203,169212 42319,173021 "/>
   <polygon class="fil9" points="45203,190283 63655,190283 63655,182661 45203,182661 42319,186471 "/>
  </g>
  <g id="_788888960">
   <polygon class="fil4" points="420630,237606 412144,237606 412144,181338 420630,181338 "/>
   <polygon class="fil5" points="416388,181338 412144,181338 412144,237606 416388,237606 "/>
   <path class="fil10" d="M455283 163157c0,20310 -16464,36774 -36774,36774 -20310,0 -36774,-16464 -36774,-36774 0,-20310 16464,-36774 36774,-36774 20310,0 36774,16464 36774,36774z"/>
   <path class="fil5" d="M416388 126445c-19322,1100 -34653,17116 -34653,36712 0,19596 15331,35612 34653,36711l0 -73423z"/>
  </g>
  <line class="fil11 str0" x1="0" y1="237315" x2="515306" y2= "237315" />
 </g>
</svg>
