<?xml version="1.0" encoding="UTF-8"?>
<!DOCTYPE svg PUBLIC "-//W3C//DTD SVG 1.1//EN" "http://www.w3.org/Graphics/SVG/1.1/DTD/svg11.dtd">
<!-- Creator: CorelDRAW X8 -->
<svg xmlns="http://www.w3.org/2000/svg" xml:space="preserve" width="19.7776mm" height="6.1942mm" version="1.1" style="shape-rendering:geometricPrecision; text-rendering:geometricPrecision; image-rendering:optimizeQuality; fill-rule:evenodd; clip-rule:evenodd"
viewBox="0 0 1051414 329295"
 xmlns:xlink="http://www.w3.org/1999/xlink">
 <defs>
  <style type="text/css">
   <![CDATA[
    .str0 {stroke:white;stroke-width:10632.4}
    .fil26 {fill:none}
    .fil28 {fill:none;fill-rule:nonzero}
    .fil32 {fill:#114687;fill-rule:nonzero}
    .fil15 {fill:#1A1C0F;fill-rule:nonzero}
    .fil29 {fill:#1F75C9;fill-rule:nonzero}
    .fil33 {fill:#333333;fill-rule:nonzero}
    .fil34 {fill:#4D4D4D;fill-rule:nonzero}
    .fil23 {fill:#4DA3B3;fill-rule:nonzero}
    .fil1 {fill:#4F566B;fill-rule:nonzero}
    .fil22 {fill:#5DC6DA;fill-rule:nonzero}
    .fil2 {fill:#727990;fill-rule:nonzero}
    .fil13 {fill:#79829C;fill-rule:nonzero}
    .fil8 {fill:#7C85A1;fill-rule:nonzero}
    .fil25 {fill:gray;fill-rule:nonzero}
    .fil31 {fill:#80DDFF;fill-rule:nonzero}
    .fil11 {fill:#8790AE;fill-rule:nonzero}
    .fil17 {fill:#8E481F;fill-rule:nonzero}
    .fil0 {fill:#8E97B1;fill-rule:nonzero}
    .fil16 {fill:#A16226;fill-rule:nonzero}
    .fil5 {fill:#A1A8B5;fill-rule:nonzero}
    .fil9 {fill:#A1AAC1;fill-rule:nonzero}
    .fil3 {fill:#A8AFC3;fill-rule:nonzero}
    .fil12 {fill:#ACB5C8;fill-rule:nonzero}
    .fil24 {fill:#B3B3B5;fill-rule:nonzero}
    .fil7 {fill:#CFD1DB;fill-rule:nonzero}
    .fil35 {fill:#D14418;fill-rule:nonzero}
    .fil19 {fill:#D48A28;fill-rule:nonzero}
    .fil6 {fill:#DBDFE4;fill-rule:nonzero}
    .fil21 {fill:#E49324;fill-rule:nonzero}
    .fil14 {fill:#E4B321;fill-rule:nonzero}
    .fil4 {fill:#E9EBED;fill-rule:nonzero}
    .fil27 {fill:#EF5923;fill-rule:nonzero}
    .fil10 {fill:#F4F4F4;fill-rule:nonzero}
    .fil30 {fill:#FBED21;fill-rule:nonzero}
    .fil18 {fill:#FFD43A;fill-rule:nonzero}
    .fil20 {fill:white;fill-rule:nonzero}
    .fil36 {fill:white;fill-rule:nonzero}
   ]]>
  </style>
 </defs>
 <g id="Слой_x0020_1">
  <metadata id="CorelCorpID_0Corel-Layer"/>
  <g id="_785242608">
   <polygon class="fil0" points="864853,318232 511412,318232 511412,110380 687394,22036 864853,110380 "/>
   <polygon class="fil1" points="544069,156657 544069,318232 832196,318232 832196,156657 "/>
   <polygon class="fil2" points="546759,315542 546759,159347 829506,159347 829506,315542 "/>
   <polygon class="fil3" points="544069,297967 544069,301167 832196,301167 832196,297967 "/>
   <polygon class="fil3" points="544069,257468 544069,260669 832196,260669 832196,257468 "/>
   <polygon class="fil3" points="544069,216970 544069,220170 832196,220170 832196,216970 "/>
   <polygon class="fil3" points="544069,176471 544069,179671 832196,179671 832196,176471 "/>
   <polygon class="fil1" points="544069,299312 544069,302518 832196,302518 832196,299312 "/>
   <polygon class="fil1" points="544069,258813 544069,262014 832196,262014 832196,258813 "/>
   <polygon class="fil1" points="544069,218315 544069,221515 832196,221515 832196,218315 "/>
   <polygon class="fil1" points="544069,177816 544069,181016 832196,181016 832196,177816 "/>
   <g>
    <polygon class="fil4" points="686750,34959 476729,153654 476729,125808 686750,7113 "/>
    <polygon class="fil5" points="686750,34959 896772,153654 896772,125808 686750,7113 "/>
    <polygon class="fil6" points="686750,27841 896772,146541 896772,118695 686750,0 "/>
    <polygon class="fil7" points="686750,27841 476729,146541 476729,118695 686750,0 "/>
    <g>
     <g>
      <polygon class="fil4" points="630505,36405 528610,93996 528610,110710 630505,53119 "/>
      <polygon class="fil8" points="633870,34502 531975,92092 531975,108806 633870,51216 "/>
      <polygon class="fil9" points="633870,51216 633870,37894 534654,93969 534654,107291 "/>
     </g>
     <g>
      <polygon class="fil10" points="743123,36405 845019,93996 845019,110710 743123,53119 "/>
      <polygon class="fil11" points="739758,34502 841654,92092 841654,108806 739758,51216 "/>
      <polygon class="fil12" points="739758,51216 739758,37894 838974,93969 838974,107291 "/>
     </g>
    </g>
   </g>
   <g>
    <polygon class="fil13" points="864694,279265 864694,293783 838246,293783 838246,320901 864694,320901 870212,320901 870212,293783 870212,279265 "/>
   </g>
   <g>
    <polygon class="fil13" points="511460,279265 511460,293783 537908,293783 537908,320901 511460,320901 505942,320901 505942,293783 505942,279265 "/>
   </g>
   <g>
    <polygon class="fil1" points="829591,149007 545542,149007 545542,122288 829591,122288 "/>
    <polygon class="fil12" points="548232,146317 548232,124978 826901,124978 826901,146317 "/>
    <g>
     <polygon class="fil1" points="566201,147987 563500,147987 563500,123979 566201,123979 "/>
     <polygon class="fil1" points="596471,147987 593770,147987 593770,123979 596471,123979 "/>
     <polygon class="fil1" points="626741,147987 624041,147987 624041,123979 626741,123979 "/>
     <polygon class="fil1" points="657012,147987 654311,147987 654311,123979 657012,123979 "/>
     <polygon class="fil1" points="687282,147987 684581,147987 684581,123979 687282,123979 "/>
     <polygon class="fil1" points="717552,147987 714852,147987 714852,123979 717552,123979 "/>
     <polygon class="fil1" points="747823,147987 745122,147987 745122,123979 747823,123979 "/>
     <polygon class="fil1" points="778093,147987 775393,147987 775393,123979 778093,123979 "/>
     <polygon class="fil1" points="808364,147987 805663,147987 805663,123979 808364,123979 "/>
    </g>
   </g>
  </g>
  <path class="fil14" d="M605955 217150l-335 -8814c0,0 -1387,-5157 -9569,-5157 -8182,0 -11579,4280 -11579,8682 0,4407 7172,10536 16741,7389 4030,-632 4742,-2100 4742,-2100z"/>
  <path class="fil14" d="M770316 217150l334 -8814c0,0 1388,-5157 9570,-5157 8181,0 11578,4280 11578,8682 0,4407 -7177,10536 -16740,7389 -4030,-632 -4742,-2100 -4742,-2100z"/>
  <g id="_788704400">
   <path class="fil15" d="M589943 270185c0,0 -4168,24784 -1537,48691 877,4603 2855,7017 5263,7017 2414,0 16890,0 16890,0 0,0 4827,-1313 4827,-10308 0,-8990 -2850,-44300 -2850,-44300l-22593 -1100z"/>
   <path class="fil15" d="M786328 270185c0,0 4163,24784 1531,48691 -877,4603 -2849,7017 -5263,7017 -2414,0 -16884,0 -16884,0 0,0 -4827,-1313 -4827,-10308 0,-8990 2849,-44300 2849,-44300l22594 -1100z"/>
  </g>
  <path class="fil16" d="M688085 303698c-1840,-27 -76771,-1095 -85394,-181 2233,8299 7060,12174 7060,12174 0,0 16900,0 23396,0 6502,0 12632,-3875 18947,-3875 6130,0 34311,345 35948,366l0 0c0,0 16,0 43,0 21,0 37,0 37,0l0 0c1637,-21 29856,-366 35996,-366 6321,0 12456,3875 18963,3875 6512,0 23428,0 23428,0 0,0 4838,-3875 7065,-12174 -8628,-914 -83650,154 -85489,181z"/>
  <path class="fil17" d="M723358 303294c-18176,159 -34433,393 -35273,404 -845,-11 -17134,-245 -35326,-404l0 8522c7262,21 33699,351 35283,366l0 0c0,0 16,0 43,0 21,0 37,0 37,0l0 0c1579,-15 27830,-340 35236,-366l0 -8522z"/>
  <path class="fil18" d="M783797 235640l-260 21c42,9670 -218,37942 -4583,49797 -13710,0 -72417,0 -90811,0 -5,0 -10,0 -10,0 -18405,0 -77112,0 -90817,0 -4364,-11855 -4630,-40127 -4582,-49797l-261 -21c0,0 -9223,15943 -2467,41546 4620,19202 4620,19202 4620,19202 0,0 2844,9245 14933,9245 11972,0 77261,0 78563,0 16,0 21,0 21,0 1303,0 66596,0 78563,0 12094,0 14938,-9245 14938,-9245 0,0 0,0 4620,-19202 6757,-25603 -2467,-41546 -2467,-41546z"/>
  <g id="_788705456">
   <g>
    <path class="fil18" d="M607805 217416l-1940 -2743c0,0 -5003,4035 -5162,4519 -165,484 967,2424 -1133,5651 5327,1132 8395,-3711 8395,-3711l-160 -3716z"/>
   </g>
   <g>
    <path class="fil18" d="M768466 217416l1935 -2743c0,0 5007,4035 5167,4519 165,484 -968,2424 1132,5651 -5326,1132 -8394,-3711 -8394,-3711l160 -3716z"/>
   </g>
  </g>
  <path class="fil18" d="M783797 235640c-3173,-2818 -3173,-5284 -3524,-7400 -3520,-3519 -15848,-15141 -15848,-15141 0,0 -6693,-15852 -11270,-27123 -4577,-11270 -6342,-13030 -14088,-16198 -12530,-4822 -45278,-4461 -50934,-4243 -5651,-218 -38399,-579 -50929,4243 -7751,3168 -9511,4928 -14088,16198 -4578,11271 -11271,27123 -11271,27123 0,0 -12328,11622 -15847,15141 -356,2116 -351,4582 -3525,7400 1058,8097 -2110,34162 6342,50711 3073,1233 71849,314 89318,64 17474,250 86249,1169 89322,-64 8453,-16549 5285,-42614 6342,-50711z"/>
  <path class="fil18" d="M760364 214327l-69770 -8096 0 -601 -2589 303 -2584 -303 0 601 -69769 8096c0,0 -4795,5093 6895,13785 11690,8698 5396,23381 5396,30877l57478 0 5173 0 57479 0c0,-7496 -6295,-22179 5396,-30877 11690,-8692 6895,-13785 6895,-13785z"/>
  <path class="fil18" d="M748758 257314l0 4726 -60583 0 -80 0 -60588 0 0 -4726 -34656 0c372,9729 345,20616 4646,29037 3073,1233 73167,314 90636,64 17474,250 87568,1169 90641,-64 4300,-8421 4274,-19308 4646,-29037l-34662 0z"/>
  <path class="fil18" d="M766350 274698c-7353,0 -70339,-633 -77851,-707l0 -5c0,0 -127,0 -366,5 -240,-5 -367,-5 -367,-5l0 5c-7507,74 -70493,707 -77850,707 -7821,0 -10665,2844 -8177,10664 2488,7826 11377,11026 37692,11026 23551,0 44247,0 48335,0 484,0 733,0 733,0 4089,0 24790,0 48341,0 26309,0 35203,-3200 37691,-11026 2488,-7820 -356,-10664 -8181,-10664z"/>
  <path class="fil18" d="M639431 295633c-13115,0 -21876,-808 -27559,-2546 -5274,-1606 -8176,-4062 -9415,-7953 -1111,-3493 -1122,-5917 -32,-7411 1122,-1531 3573,-2275 7491,-2275 7352,0 70662,-628 77860,-702 32,0 59,0 91,-5l260 0 277 0c32,0 58,5 90,5 7193,74 70509,702 77856,702 3923,0 6374,744 7496,2275 1089,1494 1079,3918 -32,7411 -1239,3891 -4142,6347 -9415,7953 -5689,1738 -14444,2546 -27559,2546l-97409 0z"/>
  <g id="_788706200">
   <path class="fil18" d="M623078 245257c-3290,7278 -10962,10914 -17128,8123 -6172,-2791 -8501,-10951 -5205,-18229 3291,-7278 10962,-10914 17129,-8123 6172,2791 8500,10951 5204,18229z"/>
   <path class="fil14" d="M610341 253566c-1430,0 -2802,-292 -4083,-872 -5779,-2615 -7948,-10345 -4827,-17235 2334,-5156 7177,-8623 12052,-8623 1430,0 2801,298 4083,878 5778,2615 7947,10345 4827,17235 -2334,5156 -7177,8617 -12052,8617z"/>
   <path class="fil19" d="M610341 252817c-1324,0 -2589,-272 -3775,-808 -2589,-1170 -4481,-3493 -5332,-6534 -866,-3089 -553,-6534 883,-9707 2211,-4891 6783,-8177 11366,-8177 1323,0 2589,271 3774,808 5401,2446 7395,9729 4450,16236 -2212,4896 -6784,8182 -11366,8182z"/>
   <path class="fil20" d="M610341 252062c-1212,0 -2376,-250 -3461,-739 -2382,-1079 -4131,-3227 -4923,-6050 -818,-2919 -515,-6183 846,-9192 2094,-4630 6384,-7735 10680,-7735 1217,0 2381,245 3461,739 2408,1085 4162,3254 4944,6108 792,2903 489,6146 -867,9134 -2094,4625 -6385,7735 -10680,7735z"/>
  </g>
  <g id="_788706536">
   <path class="fil18" d="M752921 245257c3296,7278 10967,10914 17134,8123 6167,-2791 8495,-10951 5205,-18229 -3296,-7278 -10968,-10914 -17134,-8123 -6167,2791 -8496,10951 -5205,18229z"/>
   <path class="fil14" d="M765664 253566c1430,0 2802,-292 4083,-872 5778,-2615 7942,-10345 4827,-17235 -2334,-5156 -7177,-8623 -12057,-8623 -1425,0 -2802,298 -4078,878 -5784,2615 -7947,10345 -4832,17235 2334,5156 7182,8617 12057,8617z"/>
   <path class="fil19" d="M765664 252817c1318,0 2589,-272 3769,-808 2589,-1170 4487,-3493 5338,-6534 866,-3089 552,-6534 -883,-9707 -2217,-4891 -6783,-8177 -11371,-8177 -1319,0 -2589,271 -3769,808 -5402,2446 -7401,9729 -4455,16236 2216,4896 6783,8182 11371,8182z"/>
   <path class="fil20" d="M765664 252062c1212,0 2376,-250 3461,-739 2381,-1079 4130,-3227 4923,-6050 813,-2919 515,-6183 -846,-9192 -2094,-4630 -6390,-7735 -10685,-7735 -1212,0 -2377,245 -3461,739 -2403,1085 -4157,3254 -4939,6108 -797,2903 -489,6146 867,9134 2089,4625 6384,7735 10680,7735z"/>
  </g>
  <path class="fil18" d="M688127 301874l-919 16c-54,0 -112,-16 -165,-37 -6991,-138 -29574,-611 -38144,-1212 -5050,-356 -9580,-2360 -12748,-5646 -3222,-3333 -4896,-7868 -4721,-12759 0,-10 0,-21 0,-31 282,-2488 2791,-2488 4141,-2488 245,0 490,5 729,10 228,0 457,5 675,5l102315 0c240,0 484,-5 734,-10 260,-5 526,-11 792,-11 1223,0 3769,0 4024,2499 0,10 0,16 0,26 176,4891 -1499,9426 -4720,12759 -3169,3286 -7698,5290 -12754,5646 -8564,601 -31147,1074 -38144,1212 -47,21 -106,37 -164,37l-931 -16z"/>
  <path class="fil21" d="M687362 301135c-43,-21 -96,-31 -144,-31 -6799,-133 -29648,-612 -38266,-1218 -4869,-340 -9223,-2265 -12259,-5412 -3120,-3232 -4678,-7448 -4513,-12195 181,-1505 1430,-1808 3391,-1808 240,0 479,6 718,6 234,5 463,10 686,10l102315 0c245,0 495,-5 750,-10 255,-6 516,-11 776,-11 1903,0 3115,303 3275,1808 165,4752 -1393,8968 -4514,12200 -3035,3147 -7394,5072 -12264,5412 -8612,606 -31461,1085 -38261,1218 -53,0 -101,10 -143,31l-766 -16 -781 16z"/>
  <path class="fil22" d="M759954 211090c-2131,-6401 -11275,-25911 -13104,-30483 -1829,-4572 -3052,-6401 -7315,-6704 -19973,-2025 -48463,-2126 -51285,-2132l0 0c0,0 -43,0 -117,0 -75,0 -112,0 -112,0l0 0c-2823,6 -31312,107 -51285,2132 -4264,303 -5487,2132 -7315,6704 -1829,4572 -10973,24082 -13105,30483 -1222,2743 -1829,4572 3961,3657 5784,-914 44379,-3647 67856,-3657 23481,10 62077,2743 67861,3657 5789,915 5178,-914 3960,-3657z"/>
  <g id="_788707328">
   <g>
    <path class="fil18" d="M618055 283911c0,2717 -2201,4917 -4918,4917 -2716,0 -4917,-2200 -4917,-4917 0,-2717 2201,-4917 4917,-4917 2717,0 4918,2200 4918,4917z"/>
    <path class="fil14" d="M613137 288074c-2296,0 -4168,-1866 -4168,-4163 0,-2297 1872,-4168 4168,-4168 2297,0 4163,1871 4163,4168 0,2297 -1866,4163 -4163,4163z"/>
    <path class="fil19" d="M613137 287319c-1882,0 -3413,-1526 -3413,-3408 0,-1882 1531,-3413 3413,-3413 1882,0 3413,1531 3413,3413 0,1882 -1531,3408 -3413,3408z"/>
    <path class="fil20" d="M613137 286947c-1674,0 -3035,-1367 -3035,-3036 0,-1675 1361,-3036 3035,-3036 1675,0 3036,1361 3036,3036 0,1669 -1361,3036 -3036,3036z"/>
   </g>
  </g>
  <g id="_788707808">
   <g>
    <path class="fil18" d="M767897 283911c0,2717 -2201,4917 -4918,4917 -2716,0 -4917,-2200 -4917,-4917 0,-2717 2201,-4917 4917,-4917 2717,0 4918,2200 4918,4917z"/>
    <path class="fil14" d="M762979 288074c-2296,0 -4162,-1866 -4162,-4163 0,-2297 1866,-4168 4162,-4168 2297,0 4168,1871 4168,4168 0,2297 -1871,4163 -4168,4163z"/>
    <path class="fil19" d="M762979 287319c-1882,0 -3407,-1526 -3407,-3408 0,-1882 1525,-3413 3407,-3413 1882,0 3413,1531 3413,3413 0,1882 -1531,3408 -3413,3408z"/>
    <path class="fil20" d="M762979 286947c-1674,0 -3035,-1367 -3035,-3036 0,-1675 1361,-3036 3035,-3036 1675,0 3036,1361 3036,3036 0,1669 -1361,3036 -3036,3036z"/>
   </g>
  </g>
  <path class="fil23" d="M759954 211090c-2131,-6401 -11275,-25911 -13104,-30483 -1568,-3908 -2685,-5811 -5641,-6470 -57180,8192 -96797,27235 -121437,40685 165,-21 329,-48 505,-75 5784,-914 44379,-3647 67856,-3657 23481,10 62077,2743 67861,3657 5789,915 5178,-914 3960,-3657z"/>
  <g id="_788709008">
   <path class="fil14" d="M623254 262317c165,3078 2525,2716 2525,2716l124713 0c0,0 2360,362 2525,-2716l-129763 0z"/>
   <g>
    <g>
     <path class="fil15" d="M632855 261854c-1866,0 -3020,-399 -3525,-1212 -398,-643 -340,-1504 186,-2552 3068,-5683 6603,-9431 10824,-11467 3732,-1797 7501,-2073 11143,-2339 574,-37 1148,-80 1717,-127 7060,-591 30334,-1170 34927,-1276 4609,106 27884,685 34938,1276 574,47 1143,90 1723,127 3641,266 7411,542 11142,2339 4216,2036 7757,5784 10819,11457 526,1058 590,1919 191,2562 -505,813 -1658,1212 -3524,1212l-110561 0z"/>
     <path class="fil24" d="M750359 258303c-2930,-4976 -7119,-14529 -28479,-15922 -19569,-1276 -31929,-1053 -33864,-1005 -1935,-48 -14296,-271 -33864,1005 -21361,1393 -25550,10946 -28479,15922 -2935,4976 1467,4577 1467,4577l60812 0 127 0 60818 0c0,0 4396,399 1462,-4577zm-8373 2589l0 0 -53907 0 -127 0 -53906 0c-2929,0 -3977,-1000 -2929,-2988 7118,-12541 15289,-12142 22827,-12737 6948,-553 30441,-1101 34072,-1186 3631,85 27123,633 34071,1186 7544,595 15709,196 22828,12737 1047,1988 0,2988 -2929,2988z"/>
     <path class="fil20" d="M751996 258691c-3004,-5364 -7294,-15661 -29175,-17161 -20042,-1377 -32705,-1132 -34688,-1079 -1978,-53 -14641,-298 -34683,1079 -21882,1500 -26172,11797 -29175,17161 -3004,5364 1504,4933 1504,4933l62290 0 133 0 62290 0c0,0 4502,431 1504,-4933zm-8580 2786l0 0 -55214 0 -133 0 -55214 0c-3004,0 -4072,-1069 -3004,-3217 7294,-13513 15662,-13083 23381,-13726 7118,-595 31185,-1186 34901,-1276 3721,90 27782,681 34900,1276 7725,643 16093,213 23386,13726 1069,2148 0,3217 -3003,3217z"/>
    </g>
    <g>
     <polygon class="fil20" points="688776,261865 687452,261865 687452,242897 688776,242897 "/>
     <g>
      <polygon class="fil20" points="685384,261865 684066,261865 684066,242897 685384,242897 "/>
      <polygon class="fil20" points="681998,261865 680674,261865 680674,242897 681998,242897 "/>
      <polygon class="fil20" points="678606,261865 677288,261865 677288,242897 678606,242897 "/>
      <polygon class="fil20" points="675220,261865 673901,261865 673901,242897 675220,242897 "/>
      <polygon class="fil20" points="671833,261865 670509,261865 670509,242897 671833,242897 "/>
      <polygon class="fil20" points="668441,261865 667123,261865 667123,242897 668441,242897 "/>
      <polygon class="fil20" points="665055,261865 663737,261865 663737,242897 665055,242897 "/>
      <polygon class="fil20" points="661663,261865 660345,261865 660345,242897 661663,242897 "/>
      <polygon class="fil20" points="658277,261865 656959,261865 656959,242897 658277,242897 "/>
      <polygon class="fil20" points="654891,261865 653567,261865 653567,242897 654891,242897 "/>
      <polygon class="fil20" points="651499,261865 650180,261865 650180,242897 651499,242897 "/>
      <polygon class="fil20" points="648112,261865 646794,261865 646794,242897 648112,242897 "/>
      <path class="fil20" d="M643402 244412l0 17453 1324 0 0 -18139c-441,229 -883,457 -1324,686z"/>
      <path class="fil20" d="M640016 245454l0 16411 1318 0 0 -17443c-441,341 -877,686 -1318,1032z"/>
      <path class="fil20" d="M636624 248101l0 13764 1324 0 0 -14790c-441,346 -877,691 -1324,1026z"/>
      <path class="fil20" d="M633238 250717l0 11148 1318 0 0 -12233c-457,340 -909,697 -1318,1085z"/>
     </g>
     <g>
      <polygon class="fil20" points="690743,261865 692061,261865 692061,242897 690743,242897 "/>
      <polygon class="fil20" points="694129,261865 695448,261865 695448,242897 694129,242897 "/>
      <polygon class="fil20" points="697516,261865 698839,261865 698839,242897 697516,242897 "/>
      <polygon class="fil20" points="700907,261865 702226,261865 702226,242897 700907,242897 "/>
      <polygon class="fil20" points="704294,261865 705612,261865 705612,242897 704294,242897 "/>
      <polygon class="fil20" points="707686,261865 709004,261865 709004,242897 707686,242897 "/>
      <polygon class="fil20" points="711072,261865 712390,261865 712390,242897 711072,242897 "/>
      <polygon class="fil20" points="714458,261865 715782,261865 715782,242897 714458,242897 "/>
      <polygon class="fil20" points="717850,261865 719169,261865 719169,242897 717850,242897 "/>
      <polygon class="fil20" points="721237,261865 722555,261865 722555,242897 721237,242897 "/>
      <polygon class="fil20" points="724623,261865 725947,261865 725947,242897 724623,242897 "/>
      <polygon class="fil20" points="728015,261865 729333,261865 729333,242897 728015,242897 "/>
      <path class="fil20" d="M732725 244412l0 17453 -1324 0 0 -18139c441,229 883,457 1324,686z"/>
      <path class="fil20" d="M736111 245454l0 16411 -1318 0 0 -17443c436,341 877,686 1318,1032z"/>
      <path class="fil20" d="M739498 248101l0 13764 -1319 0 0 -14790c441,346 877,691 1319,1026z"/>
      <path class="fil20" d="M742889 250717l0 11148 -1323 0 0 -12233c462,340 914,697 1323,1085z"/>
     </g>
    </g>
   </g>
  </g>
  <g id="_788713976">
   <g>
    <path class="fil25" d="M658038 286053c-1297,0 -2355,-1052 -2355,-2355l0 -12424c0,-1297 1058,-2349 2355,-2349l60195 0c1297,0 2350,1052 2350,2349l0 12424c0,1303 -1053,2355 -2350,2355l-60195 0z"/>
    <path class="fil24" d="M658038 285304c-883,0 -1600,-723 -1600,-1606l0 -12424c0,-882 717,-1600 1600,-1600l60195 0c882,0 1600,718 1600,1600l0 12424c0,883 -718,1606 -1600,1606l-60195 0z"/>
    <path class="fil20" d="M719456 283698c0,681 -548,1228 -1223,1228l-60195 0c-675,0 -1223,-547 -1223,-1228l0 -12424c0,-675 548,-1222 1223,-1222l60195 0c675,0 1223,547 1223,1222l0 12424z"/>
   </g>
   <path class="fil25" d="M718323 277462c0,447 -361,814 -808,814 -452,0 -813,-367 -813,-814 0,-446 361,-813 813,-813 447,0 808,367 808,813z"/>
   <path class="fil25" d="M659457 277462c0,447 -361,814 -813,814 -447,0 -808,-367 -808,-814 0,-446 361,-813 808,-813 452,0 813,367 813,813z"/>
  </g>
  <line class="fil26 str0" x1="0" y1="323979" x2="1051414" y2= "323979" />
  <polygon class="fil27" points="221999,318179 207002,318179 207002,165030 221999,165030 "/>
  <polygon class="fil27" points="411228,318179 396231,318179 396231,165030 411228,165030 "/>
  <polygon class="fil27" points="411228,217608 207002,217608 207002,212982 411228,212982 "/>
  <g id="_788716208">
   <g>
    <path class="fil28" d="M256145 156689c-4604,0 -8347,3743 -8347,8341 0,4599 3743,8347 8347,8347 4598,0 8341,-3748 8341,-8347 0,-4598 -3743,-8341 -8341,-8341z"/>
   </g>
   <g>
    <path class="fil28" d="M253598 126578c19415,-1520 54938,-1541 55294,-1541 356,0 35873,21 55256,1536 59,5 165,16 314,16 393,0 659,-53 808,-101 -16,-96 -48,-229 -112,-420 -2987,-8011 -9558,-21057 -14428,-21860 -117,-21 -12360,-1967 -41822,-1738 -6,0 -11,5 -16,0 -6,0 -11,0 -16,0 -29484,-229 -41706,1717 -41823,1738 -4869,797 -11440,13849 -14438,21892 -70,181 -96,308 -107,399 128,32 404,90 814,90 159,0 265,-11 276,-11z"/>
   </g>
   <g>
    <path class="fil28" d="M237804 169023c-2207,0 -3998,1791 -3998,3998 0,2206 1791,3997 3998,3997 2206,0 4003,-1791 4003,-3997 0,-2207 -1797,-3998 -4003,-3998z"/>
   </g>
   <g>
    <path class="fil28" d="M338912 159018c-159,-37 -15374,-2876 -30015,-2876 -14646,0 -29861,2839 -30010,2870 -5943,979 -7086,3802 -7262,4392 4572,7017 4801,23848 4806,24614 0,69 37,138 112,207 2190,2153 24093,2297 32349,2169l5 303 0 -303c8256,128 30159,-16 32349,-2169 75,-69 112,-138 112,-202 10,-771 234,-17586 4806,-24619 -181,-580 -1351,-3419 -7252,-4386z"/>
   </g>
   <g>
    <path class="fil28" d="M361639 156689c-4604,0 -8346,3743 -8346,8341 0,4599 3742,8347 8346,8347 4598,0 8341,-3748 8341,-8347 0,-4598 -3743,-8341 -8341,-8341z"/>
   </g>
   <g>
    <path class="fil28" d="M379980 169023c-2212,0 -4003,1791 -4003,3998 0,2206 1791,3997 4003,3997 2201,0 3998,-1791 3998,-3997 0,-2207 -1797,-3998 -3998,-3998z"/>
   </g>
   <path class="fil29" d="M390033 149119c-622,-659 -1234,-1531 -1829,-2584 -144,-260 -356,-467 -601,-611 -10,-122 -21,-245 -26,-356 -16,-192 -69,-383 -149,-553 -287,-622 -457,-1069 -479,-1122 -1844,-5428 -7320,-9191 -9691,-10606l962 -2328c521,69 1085,101 1680,101 2196,0 4253,-457 4705,-564 3588,-691 4944,-3354 5013,-5427 5,-112 -5,-229 -21,-341 -1117,-6395 -8899,-6953 -9734,-6990 -1685,-139 -3131,308 -4312,1307 -2312,1962 -2748,5375 -2807,6040 -127,1031 -303,1956 -483,2759 -5901,-11770 -10643,-19862 -10654,-19878 -5422,-9877 -11999,-10414 -12551,-10446 -15051,-2296 -33583,-2477 -38910,-2477 -85,0 -164,0 -244,0 -277,-218 -627,-346 -1010,-346 0,0 0,0 0,0 -383,0 -739,128 -1016,346 -79,0 -159,0 -244,0 -5338,0 -23912,181 -38915,2482 -877,59 -7256,809 -12514,10388 -48,80 -4843,8283 -10686,19931 -175,-787 -350,-1696 -473,-2690 -32,-410 -409,-4067 -2817,-6109 -1164,-988 -2637,-1446 -4285,-1313 -755,38 -8634,558 -9755,6996 -22,112 -27,224 -22,335 48,1675 1159,4705 4955,5423 404,96 2531,574 4763,574 6,0 6,0 6,0 590,0 1148,-32 1669,-101l962 2323c-2328,1393 -7836,5157 -9675,10569 0,0 -176,473 -495,1159 -79,175 -127,361 -148,558 -6,106 -16,234 -27,356 -245,144 -457,351 -606,611 -580,1042 -1186,1904 -1797,2557 -2504,1962 -3179,12876 -1924,30292 0,0 5661,33598 28601,33598 1632,0 3110,128 4471,335 11015,771 26926,1393 48962,1239 276,218 627,346 1010,346 0,0 0,0 0,0 383,0 728,-128 1010,-346 2211,16 4364,27 6454,27 5,0 5,0 10,0 21685,0 36900,-782 46969,-1611l0 2631c0,3052 2482,5534 5534,5534l18139 0c3051,0 5534,-2482 5534,-5534l0 -34938c0,-515 -239,-967 -606,-1270 1717,-23705 -526,-29112 -1903,-30276z"/>
   <path class="fil30" d="M237804 177018c-2207,0 -3998,-1791 -3998,-3997 0,-2207 1791,-3998 3998,-3998 2206,0 4003,1791 4003,3998 0,2206 -1797,3997 -4003,3997z"/>
   <path class="fil31" d="M252615 126100c2998,-8043 9569,-21095 14438,-21892 117,-21 12339,-1967 41823,-1738 5,0 10,0 16,0 5,5 10,0 16,0 29462,-229 41705,1717 41822,1738 4870,803 11441,13849 14428,21860 64,191 96,324 112,420 -149,48 -415,101 -808,101 -149,0 -255,-11 -314,-16 -19383,-1515 -54900,-1536 -55256,-1536 -356,0 -35879,21 -55294,1541 -11,0 -117,11 -276,11 -410,0 -686,-58 -814,-90 11,-91 37,-218 107,-399z"/>
   <path class="fil30" d="M256145 173377c-4604,0 -8347,-3748 -8347,-8347 0,-4598 3743,-8341 8347,-8341 4598,0 8341,3743 8341,8341 0,4599 -3743,8347 -8341,8347z"/>
   <path class="fil32" d="M341358 188023c0,64 -37,133 -112,202 -2190,2153 -24093,2297 -32349,2169l0 303 -5 -303c-8256,128 -30159,-16 -32349,-2169 -75,-69 -112,-138 -112,-207 -5,-766 -234,-17597 -4806,-24614 176,-590 1319,-3413 7262,-4392 149,-31 15364,-2870 30010,-2870 14641,0 29856,2839 30015,2876 5901,967 7071,3806 7252,4386 -4572,7033 -4796,23848 -4806,24619z"/>
   <path class="fil30" d="M361639 173377c-4604,0 -8346,-3748 -8346,-8347 0,-4598 3742,-8341 8346,-8341 4598,0 8341,3743 8341,8341 0,4599 -3743,8347 -8341,8347z"/>
   <path class="fil30" d="M379980 177018c-2212,0 -4003,-1791 -4003,-3997 0,-2207 1791,-3998 4003,-3998 2201,0 3998,1791 3998,3998 0,2206 -1797,3997 -3998,3997z"/>
   <path class="fil25" d="M258920 213317c-1361,-207 -2839,-335 -4471,-335 1387,112 2881,229 4471,335z"/>
   <path class="fil33" d="M225848 179384c-373,303 -612,760 -612,1276l0 34943c0,3052 2483,5534 5534,5534l18139 0c3057,0 5540,-2482 5540,-5534l0 -2621c-22940,0 -28601,-33598 -28601,-33598z"/>
   <path class="fil33" d="M391931 179384c372,303 611,760 611,1276l0 34943c0,3052 -2483,5534 -5529,5534l-18144 0c-3052,0 -5534,-2482 -5534,-5534l0 -2621c22934,0 28596,-33598 28596,-33598z"/>
  </g>
  <polygon class="fil34" points="411228,217608 396231,217608 396231,202834 411228,202834 "/>
  <polygon class="fil34" points="221999,217608 207002,217608 207002,202834 221999,202834 "/>
  <path class="fil27" d="M211940 206401c0,750 -606,1361 -1360,1361 -750,0 -1361,-611 -1361,-1361 0,-755 611,-1366 1361,-1366 754,0 1360,611 1360,1366z"/>
  <path class="fil27" d="M219777 206401c0,750 -607,1361 -1361,1361 -750,0 -1361,-611 -1361,-1361 0,-755 611,-1366 1361,-1366 754,0 1361,611 1361,1366z"/>
  <path class="fil27" d="M211940 214152c0,755 -606,1361 -1360,1361 -750,0 -1361,-606 -1361,-1361 0,-755 611,-1361 1361,-1361 754,0 1360,606 1360,1361z"/>
  <path class="fil27" d="M219777 214152c0,755 -607,1361 -1361,1361 -750,0 -1361,-606 -1361,-1361 0,-755 611,-1361 1361,-1361 754,0 1361,606 1361,1361z"/>
  <path class="fil27" d="M401175 206401c0,750 -611,1361 -1360,1361 -755,0 -1367,-611 -1367,-1361 0,-755 612,-1366 1367,-1366 749,0 1360,611 1360,1366z"/>
  <path class="fil27" d="M409012 206401c0,750 -612,1361 -1361,1361 -755,0 -1367,-611 -1367,-1361 0,-755 612,-1366 1367,-1366 749,0 1361,611 1361,1366z"/>
  <path class="fil27" d="M401175 214152c0,755 -611,1361 -1360,1361 -755,0 -1367,-606 -1367,-1361 0,-755 612,-1361 1367,-1361 749,0 1360,606 1360,1361z"/>
  <path class="fil27" d="M409012 214152c0,755 -612,1361 -1361,1361 -755,0 -1367,-606 -1367,-1361 0,-755 612,-1361 1367,-1361 749,0 1361,606 1361,1361z"/>
  <polygon class="fil35" points="236262,313033 193913,313033 193913,318179 236262,318179 "/>
  <polygon class="fil35" points="424907,313033 382558,313033 382558,318179 424907,318179 "/>
  <polygon class="fil35" points="215864,202829 213137,202829 213137,165153 215864,165153 "/>
  <polygon class="fil35" points="405093,202829 402366,202829 402366,165153 405093,165153 "/>
  <polygon class="fil35" points="215864,313517 213137,313517 213137,217608 215864,217608 "/>
  <polygon class="fil35" points="405093,315606 402366,315606 402366,217608 405093,217608 "/>
  <g id="_788721584">
   <g>
    <path class="fil36" d="M673146 77271l21855 21860c-882,3450 16,7262 2717,9968 1993,1993 4598,3003 7208,3046l-3657 -8814c-829,-1999 117,-4285 2110,-5114 1999,-830 4285,117 5115,2115l3732 8985c79,-75 164,-138 244,-218 4072,-4072 4072,-10675 0,-14747 -2706,-2706 -6518,-3605 -9973,-2717l-21855 -21860c883,-3450 -16,-7267 -2716,-9968 -1989,-1988 -4578,-2998 -7183,-3046l3653 8798c829,1994 -117,4285 -2111,5114 -1993,830 -4285,-117 -5114,-2115l-3732 -8990c-85,80 -175,154 -261,239 -4072,4072 -4072,10675 0,14747 2701,2701 6518,3599 9968,2717zm3865 -1930l0 0c-388,-388 -388,-1021 0,-1409 388,-388 1021,-388 1409,0l20233 20234c388,388 388,1020 0,1408 -388,389 -1020,389 -1408,0l-20234 -20233z"/>
   </g>
   <g>
    <path class="fil36" d="M714092 74554c4072,-4072 4072,-10675 0,-14747 -85,-85 -181,-159 -266,-239l-3732 8990c-830,1998 -3115,2945 -5114,2115 -1994,-829 -2940,-3120 -2111,-5114l3652 -8798c-2605,48 -5194,1058 -7182,3046 -2700,2701 -3599,6518 -2716,9968l-21855 21860c-3456,-888 -7267,11 -9968,2717 -4072,4072 -4072,10675 0,14747 74,80 165,143 244,218l3727 -8985c829,-1998 3121,-2945 5114,-2115 1994,829 2940,3115 2111,5114l-3658 8814c2616,-43 5215,-1053 7209,-3046 2701,-2706 3599,-6518 2717,-9968l21854 -21860c3456,882 7268,-16 9974,-2717z"/>
   </g>
   <g>
    <path class="fil36" d="M680020 95574c-388,389 -1015,389 -1403,0 -394,-388 -394,-1020 0,-1408l20228 -20234c388,-388 1020,-388 1409,0 388,388 388,1021 0,1409l-20234 20233z"/>
   </g>
  </g>
 </g>
</svg>
