<?xml version="1.0" encoding="UTF-8"?>
<!DOCTYPE svg PUBLIC "-//W3C//DTD SVG 1.1//EN" "http://www.w3.org/Graphics/SVG/1.1/DTD/svg11.dtd">
<!-- Creator: CorelDRAW X8 -->
<svg xmlns="http://www.w3.org/2000/svg" xml:space="preserve" width="19.9081mm" height="5.6965mm" version="1.1" style="shape-rendering:geometricPrecision; text-rendering:geometricPrecision; image-rendering:optimizeQuality; fill-rule:evenodd; clip-rule:evenodd"
viewBox="0 0 2077454 594442"
 xmlns:xlink="http://www.w3.org/1999/xlink">
 <defs>
  <style type="text/css">
   <![CDATA[
    .str1 {stroke:white;stroke-width:20870.4}
    .str0 {stroke:#DF9C00;stroke-width:7951.64}
    .fil15 {fill:none}
    .fil13 {fill:#00897B;fill-rule:nonzero}
    .fil14 {fill:#26A59A;fill-rule:nonzero}
    .fil10 {fill:#546E79;fill-rule:nonzero}
    .fil0 {fill:#548A2F;fill-rule:nonzero}
    .fil4 {fill:#7CB342;fill-rule:nonzero}
    .fil2 {fill:#8C6E62;fill-rule:nonzero}
    .fil6 {fill:#90B326;fill-rule:nonzero}
    .fil11 {fill:#DF9C00;fill-rule:nonzero}
    .fil12 {fill:#E3BE4D;fill-rule:nonzero}
    .fil7 {fill:#E43834;fill-rule:nonzero}
    .fil9 {fill:#E47272;fill-rule:nonzero}
    .fil8 {fill:white;fill-rule:nonzero}
    .fil5 {fill:white;fill-rule:nonzero;fill-opacity:0.239216}
    .fil1 {fill:white;fill-rule:nonzero;fill-opacity:0.258824}
    .fil3 {fill:white;fill-rule:nonzero;fill-opacity:0.388235}
   ]]>
  </style>
 </defs>
 <g id="Слой_x0020_1">
  <metadata id="CorelCorpID_0Corel-Layer"/>
  <g id="_785220408">
   <polygon class="fil0" points="25712,577641 0,557543 25712,537455 4372,512766 33507,498073 17427,469679 48879,460997 38673,430004 71210,427625 67234,395244 99615,399220 101994,366683 132986,376889 141669,345437 170063,361518 184756,332383 209445,353723 229533,328021 249631,353723 274311,332383 289003,361518 317398,345437 326080,376889 357072,366683 359452,399231 391842,395244 387856,427635 420393,430014 410198,460997 441639,469689 425569,498073 454694,512766 433354,537455 459066,557543 433354,577641 "/>
   <polygon class="fil1" points="229533,328021 209445,353723 184756,332383 170063,361518 141669,345437 132986,376889 101994,366683 99615,399220 67234,395244 71210,427625 38673,430004 48879,460997 17427,469679 33507,498073 4372,512766 25712,537455 0,557543 25712,577641 229533,577641 "/>
  </g>
  <g id="_785220048">
   <polygon class="fil0" points="1900963,574396 1890496,566215 1900963,558034 1892281,547974 1904146,541995 1897592,530433 1910407,526895 1906243,514268 1919496,513298 1917878,500108 1931068,501736 1932039,488483 1944655,492636 1948193,479832 1959755,486375 1965745,474510 1975794,483203 1983975,472736 1992156,483203 2002216,474510 2008195,486375 2019757,479832 2023295,492636 2035921,488483 2036892,501736 2050072,500118 2048454,513308 2061707,514268 2057554,526895 2070358,530433 2063815,541995 2075680,547974 2066987,558034 2077454,566215 2066987,574396 "/>
   <polygon class="fil1" points="1983975,472736 1975794,483203 1965745,474510 1959755,486375 1948193,479832 1944655,492636 1932039,488483 1931068,501736 1917878,500108 1919496,513298 1906243,514268 1910407,526895 1897592,530433 1904146,541995 1892281,547974 1900963,558034 1890496,566215 1900963,574396 1983975,574396 "/>
  </g>
  <g id="_785220936">
   <polygon class="fil2" points="1732580,564190 1690672,564190 1690672,337016 1732580,337016 "/>
   <polygon class="fil3" points="1711626,337016 1690672,337016 1690672,564190 1711626,564190 "/>
   <g>
    <path class="fil4" d="M1808100 157321c7513,-14734 11771,-31399 11771,-49066 0,-59783 -48461,-108255 -108245,-108255 -59783,0 -108244,48472 -108244,108255 0,17667 4257,34332 11771,49066 -47648,31400 -79110,85381 -79110,146709 0,96964 78609,175583 175583,175583 96975,0 175583,-78619 175583,-175583 0,-61328 -31462,-115309 -79109,-146709z"/>
   </g>
   <path class="fil5" d="M1711626 0c-59783,0 -108244,48472 -108244,108255 0,17667 4257,34332 11771,49066 -47648,31400 -79110,85381 -79110,146709 0,96964 78609,175583 175583,175583l0 -479613z"/>
  </g>
  <g id="_785221368">
   <polygon class="fil2" points="1864596,577214 1830609,577214 1830609,351855 1864596,351855 "/>
   <polygon class="fil3" points="1847608,351855 1830609,351855 1830609,577214 1847608,577214 "/>
   <path class="fil6" d="M2003384 279038c0,81342 -65940,147282 -147282,147282 -81343,0 -147283,-65940 -147283,-147282 0,-81343 65940,-147283 147283,-147283 81342,0 147282,65940 147282,147283z"/>
   <path class="fil3" d="M1847608 132006c-77388,4403 -138789,68548 -138789,147032 0,78483 61401,142628 138789,147032l0 -294064z"/>
  </g>
  <g id="_785221992">
   <g>
    <path class="fil7" d="M1711094 369855l0 111250c0,36482 -29573,66066 -66065,66066l-285184 0c-14297,0 -25890,-11594 -25890,-25890l0 -43578c0,-7951 3652,-15465 9913,-20369l126183 -98999c11865,-9308 26495,-14369 41574,-14369l173590 0c14296,0 25879,11593 25879,25889z"/>
   </g>
   <g>
    <g>
     <path class="fil8" d="M1539946 380958l-53105 0c-2598,0 -5124,867 -7179,2474l-34739 27256c-8693,6825 -3872,20787 7190,20787l87833 0 0 -50517z"/>
    </g>
    <g>
     <path class="fil8" d="M1642002 380958l-78859 0 0 50517 78859 0c6429,0 11636,-5207 11636,-11635l0 -27257c0,-6417 -5207,-11625 -11636,-11625z"/>
    </g>
   </g>
   <g>
    <path class="fil7" d="M1553126 355486c-6595,0 -11949,-5353 -11949,-11948l0 -13858c0,-6595 5354,-11948 11949,-11948 6605,0 11948,5353 11948,11948l0 13858c0,6595 -5343,11948 -11948,11948z"/>
   </g>
   <path class="fil9" d="M1333955 508633l0 12648c0,14296 11593,25890 25890,25890l285184 0c26651,0 49556,-15810 60002,-38538l-371076 0z"/>
   <g>
    <path class="fil8" d="M1466086 532707c0,25327 -20527,45853 -45842,45853 -25327,0 -45853,-20526 -45853,-45853 0,-25315 20526,-45852 45853,-45852 25315,0 45842,20537 45842,45852z"/>
   </g>
   <g>
    <path class="fil10" d="M1444307 532707c0,13295 -10769,24074 -24063,24074 -13305,0 -24085,-10779 -24085,-24074 0,-13294 10780,-24074 24085,-24074 13294,0 24063,10780 24063,24074z"/>
   </g>
   <g>
    <path class="fil8" d="M1684933 532707c0,25327 -20526,45853 -45842,45853 -25326,0 -45852,-20526 -45852,-45853 0,-25315 20526,-45852 45852,-45852 25316,0 45842,20537 45842,45852z"/>
   </g>
   <g>
    <path class="fil10" d="M1663155 532707c0,13295 -10770,24074 -24064,24074 -13305,0 -24085,-10779 -24085,-24074 0,-13294 10780,-24074 24085,-24074 13294,0 24064,10780 24064,24074z"/>
   </g>
  </g>
  <g id="_785225112">
   <g>
    <path class="fil11" d="M1024290 367518l0 111250c0,36481 -29574,66065 -66066,66065l-285184 0c-14296,0 -25890,-11593 -25890,-25890l0 -43577c0,-7952 3653,-15465 9914,-20370l126183 -98999c11864,-9308 26495,-14369 41573,-14369l173590 0c14297,0 25880,11594 25880,25890z"/>
   </g>
   <g>
    <g>
     <path class="fil8" d="M853142 378621l-53105 0c-2599,0 -5124,866 -7180,2473l-34738 27257c-8693,6825 -3872,20787 7189,20787l87834 0 0 -50517z"/>
    </g>
    <g>
     <path class="fil8 str0" d="M955198 378621l-78859 0 0 50517 78859 0c6428,0 11635,-5207 11635,-11635l0 -27257c0,-6418 -5207,-11625 -11635,-11625z"/>
    </g>
   </g>
   <g>
    <path class="fil12" d="M866321 353149c-6595,0 -11948,-5354 -11948,-11949l0 -13858c0,-6595 5353,-11948 11948,-11948 6606,0 11949,5353 11949,11948l0 13858c0,6595 -5343,11949 -11949,11949z"/>
   </g>
   <path class="fil12" d="M647150 506296l0 12647c0,14297 11594,25890 25890,25890l285184 0c26652,0 49557,-15809 60003,-38537l-371077 0z"/>
   <g>
    <path class="fil8" d="M779281 530370c0,25326 -20526,45852 -45842,45852 -25326,0 -45852,-20526 -45852,-45852 0,-25316 20526,-45852 45852,-45852 25316,0 45842,20536 45842,45852z"/>
   </g>
   <g>
    <path class="fil10" d="M757503 530370c0,13294 -10769,24074 -24064,24074 -13305,0 -24084,-10780 -24084,-24074 0,-13295 10779,-24074 24084,-24074 13295,0 24064,10779 24064,24074z"/>
   </g>
   <g>
    <path class="fil8" d="M998129 530370c0,25326 -20526,45852 -45842,45852 -25327,0 -45853,-20526 -45853,-45852 0,-25316 20526,-45852 45853,-45852 25316,0 45842,20536 45842,45852z"/>
   </g>
   <g>
    <path class="fil10" d="M976350 530370c0,13294 -10769,24074 -24063,24074 -13305,0 -24085,-10780 -24085,-24074 0,-13295 10780,-24074 24085,-24074 13294,0 24063,10779 24063,24074z"/>
   </g>
  </g>
  <g id="_785230992">
   <path class="fil13" d="M308225 425903c0,45184 33591,81812 152626,81812 119044,0 215539,-81812 215539,-81812 0,0 -96495,-81802 -215539,-81802 -119035,0 -152626,36628 -152626,81802z"/>
   <g>
    <path class="fil14" d="M277671 529420l504699 0c16143,0 29365,-13221 29365,-29375 0,-41052 -33591,-74643 -74654,-74643l-459410 0c-16154,0 -29375,13211 -29375,29365l0 45278c0,16154 13221,29375 29375,29375z"/>
   </g>
   <g>
    <path class="fil8" d="M620729 520404c0,32569 26411,58970 58969,58970 32568,0 58969,-26401 58969,-58970 0,-32568 -26401,-58969 -58969,-58969 -32558,0 -58969,26401 -58969,58969z"/>
   </g>
   <g>
    <path class="fil10" d="M648737 520404c0,17104 13868,30962 30961,30962 17103,0 30961,-13858 30961,-30962 0,-17093 -13858,-30961 -30961,-30961 -17093,0 -30961,13868 -30961,30961z"/>
   </g>
   <g>
    <path class="fil8" d="M280029 520404c0,32569 26401,58970 58969,58970 32569,0 58970,-26401 58970,-58970 0,-32568 -26401,-58969 -58970,-58969 -32568,0 -58969,26401 -58969,58969z"/>
   </g>
   <g>
    <path class="fil10" d="M308037 520404c0,17104 13858,30962 30961,30962 17093,0 30962,-13858 30962,-30962 0,-17093 -13869,-30961 -30962,-30961 -17103,0 -30961,13868 -30961,30961z"/>
   </g>
   <g>
    <path class="fil8" d="M607257 420758c0,20485 -58865,13911 -131484,13911 -72608,0 -131473,6574 -131473,-13911 0,-20473 34071,-60253 106689,-60253 72608,0 156268,39780 156268,60253z"/>
   </g>
  </g>
  <line class="fil15 str1" x1="9840" y1="584007" x2="2073676" y2= "584007" />
 </g>
</svg>
