<?xml version="1.0" encoding="UTF-8"?>
<!DOCTYPE svg PUBLIC "-//W3C//DTD SVG 1.1//EN" "http://www.w3.org/Graphics/SVG/1.1/DTD/svg11.dtd">
<!-- Creator: CorelDRAW X8 -->
<svg xmlns="http://www.w3.org/2000/svg" xml:space="preserve" width="1.6214mm" height="1.6214mm" version="1.1" style="shape-rendering:geometricPrecision; text-rendering:geometricPrecision; image-rendering:optimizeQuality; fill-rule:evenodd; clip-rule:evenodd"
viewBox="0 0 40725 40725"
 xmlns:xlink="http://www.w3.org/1999/xlink">
 <defs>
  <style type="text/css">
   <![CDATA[
    .str0 {stroke:white;stroke-width:1913.91}
    .fil1 {fill:none}
    .fil0 {fill:white;fill-rule:nonzero}
   ]]>
  </style>
 </defs>
 <g id="Слой_x0020_1">
  <metadata id="CorelCorpID_0Corel-Layer"/>
  <g id="_1004937888">
   <path class="fil0" d="M19096 25707c-10,-331 -15,-583 -15,-751 0,-977 138,-1821 420,-2534 201,-540 530,-1078 984,-1625 332,-397 932,-977 1796,-1738 867,-761 1427,-1369 1686,-1824 261,-462 389,-954 389,-1492 0,-977 -379,-1836 -1138,-2574 -758,-741 -1685,-1110 -2785,-1110 -1065,0 -1952,339 -2663,1007 -716,670 -1180,1718 -1404,3144l-2559 -311c233,-1901 917,-3361 2057,-4370 1143,-1010 2647,-1517 4526,-1517 1987,0 3567,542 4755,1625 1178,1085 1770,2398 1770,3938 0,892 -208,1710 -625,2459 -417,756 -1233,1665 -2444,2740 -816,719 -1349,1251 -1600,1593 -249,341 -434,733 -552,1180 -121,440 -191,1161 -211,2160l-2387 0zm-454 5004l0 -2844 2841 0 0 2844 -2841 0z"/>
   <circle class="fil1 str0" cx="20362" cy="20362" r="19405"/>
  </g>
 </g>
</svg>
