<?xml version="1.0" encoding="UTF-8"?>
<!DOCTYPE svg PUBLIC "-//W3C//DTD SVG 1.1//EN" "http://www.w3.org/Graphics/SVG/1.1/DTD/svg11.dtd">
<!-- Creator: CorelDRAW X8 -->
<svg xmlns="http://www.w3.org/2000/svg" xml:space="preserve" width="6.1562mm" height="2.2789mm" version="1.1" style="shape-rendering:geometricPrecision; text-rendering:geometricPrecision; image-rendering:optimizeQuality; fill-rule:evenodd; clip-rule:evenodd"
viewBox="0 0 2509854 929097"
 xmlns:xlink="http://www.w3.org/1999/xlink">
 <defs>
  <style type="text/css">
   <![CDATA[
    .fil1 {fill:none}
    .fil2 {fill:#0026A9}
    .fil0 {fill:#FFA800}
   ]]>
  </style>
      <clipPath id="id0">
       <path d="M0 0l2509854 0 0 929097 -2509854 0 0 -929097z"/>
      </clipPath>
 </defs>
 <g id="Слой_x0020_1">
  <metadata id="CorelCorpID_0Corel-Layer"/>
  <g id="_789644832">
   <g id="Layer_2">
    <g>
     <g>
     </g>
     <g style="clip-path:url(#id0)">
      <g>
       <g>
        <path class="fil0" d="M629930 652150c-163,-123 -245,-123 -367,-164 -244,0 -448,-163 -571,-163 -407,-203 -652,-285 -856,-285 -244,0 -407,0 -489,-82 -448,-163 -815,-203 -1345,-448 -5504,-979 -10886,-163 -15574,2772 -10193,7176 -11783,22994 -3425,35714 3955,5708 9214,9704 15044,11783 0,0 41,0 408,244 0,0 367,204 530,204 285,41 489,41 774,163 204,0 286,82 449,163 448,82 815,367 1345,367 5463,897 10967,123 15533,-2772 10315,-7135 11946,-22872 3384,-35592 -3791,-5708 -9132,-9866 -14840,-11904l0 0zm244495 249509c-25114,-51329 -69675,-89122 -118028,-117946 -16715,-10111 -35551,-17205 -52144,-22587 -37875,-12230 -74568,-15247 -117335,-22504 -34776,-6034 -62173,-20344 -91650,-40484 -15411,-10437 -27927,-24951 -38405,-40322 -1916,-3057 -11700,-15003 -10804,-19161 0,0 -6726,27478 6809,66087 -124469,-5626 -233528,-74893 -283430,-158960 -91976,-154435 -59646,-341853 62989,-424615 122594,-82803 309441,-24421 409571,124999 62703,93770 78848,202870 51818,291584 -122,571 -408,1264 -612,1957 -53122,-38772 -101679,-18958 -101679,-18958 53245,-5504 95360,37060 95360,37060 6238,5422 12149,11619 17613,18346 1182,1753 2405,3384 3587,5137 14025,19080 22668,40240 26337,61603 105879,-134784 123247,-321468 29762,-466485 -119414,-184768 -373449,-231938 -567716,-105471 -194226,126549 -255054,378749 -135803,563598 98051,151989 327746,198303 459636,156474 49779,-15737 220400,-30781 339039,110200 0,0 10315,11782 15860,25195 0,0 1630,4689 6034,2487 1182,-652 4484,-4525 -6809,-27234l0 0zm-175594 -278700c8847,3465 14065,17775 15533,24665 3424,15696 -1957,22260 -6564,19366 -4811,-2406 -11293,-14474 -16226,-30170 -2161,-6808 -1427,-17082 7257,-13861z"/>
       </g>
      </g>
     </g>
     <polygon class="fil1" points="0,0 2509854,0 2509854,929097 0,929097 "/>
     <path class="fil2" d="M2459300 550756l0 133887 -30944 0 0 -133887 -47741 0 0 -26745 124795 0 4444 26745 -50554 0zm-200708 133887l0 -160632 93403 0 0 26052 -62867 0 0 37711 48434 0 4159 26541 -52593 0 0 44276 65190 0 0 26052 -95726 0zm-122676 0l0 -160632 30944 0 0 133398 53571 0 4200 27234 -88715 0zm-122716 0l0 -160632 30985 0 0 133398 53530 0 4199 27234 -88714 0zm-110119 -127813l-21893 61929 43786 0 -21893 -61929zm45866 129444l-15370 -42360 -60788 0 -14636 40729 -30536 0 60339 -161366 32819 0 58912 157411 -30740 5586zm-174168 -1631l-29354 0 -35632 -116886 -35592 116886 -29109 0 -44928 -156474 32126 -5789 30251 115011 33553 -113380 30944 0 33554 113380 29313 -113380 30985 0 -46111 160632zm-303366 -160632l30944 0 0 160632 -30944 0 0 -160632zm-81987 160632l-29313 0 -35633 -116886 -35633 116886 -29109 0 -44928 -156474 32126 -5789 30292 115011 33513 -113380 30984 0 33513 113380 29313 -113380 30985 0 -46110 160632zm-241927 -160632l30985 0 0 160632 -30985 0 0 -160632zm-115948 22545c-27683,0 -43991,23076 -43991,58015 0,34655 16512,58668 43991,58668 27723,0 44235,-24013 44235,-58668 0,-34939 -16757,-58015 -44235,-58015zm31922 130626l41667 14229 -5830 26541 -88470 -32371c-36081,-13047 -54713,-39343 -54713,-81010 0,-49861 29803,-83618 75668,-83618 45622,0 75220,32616 75220,81988 0,37222 -17245,63070 -43542,74241z"/>
     <path class="fil2" d="M1570361 217465c-30088,-15452 -48516,-25644 -48353,-41259 82,-13862 15615,-28743 49372,-28743 28090,-448 48434,6034 64294,12884l7787 3750 11619 -72162c-17001,-6767 -43746,-14024 -77095,-14024 -85086,0 -144936,45254 -145466,109996 -489,47945 42727,74649 75342,90508 33594,16267 44806,26704 44684,41340 -245,22342 -26745,32535 -51451,32535 -34491,0 -52756,-5056 -81010,-17572l-11170 -5259 -12068 74689c20140,9174 57322,17327 95931,17654 90386,0 149053,-44684 149828,-113870 285,-37915 -22627,-66617 -72244,-90467zm-313314 199404l85983 0 53775 -333128 -85983 0 -53775 333128zm583942 -118069c-3343,-16716 -19855,-96175 -19855,-96175l-5789 -28743c-4321,12476 -11945,32656 -11415,31719 0,0 -27112,74037 -34288,93199 16716,0 57975,0 71347,0zm104411 118232l-79786 0c0,0 -7991,-38324 -10519,-50025 -12597,0 -100333,-40 -110240,-40 -3303,9010 -18061,50065 -18061,50065l-90305 0 127731 -305323c8969,-21690 24462,-27601 45091,-27601l66414 0 69675 332924zm-669395 -332924l-135559 332434 -90997 82 -76606 -289464c58178,34002 98336,82762 118721,137801l9050 46151 84189 -227004 91202 0z"/>
     <path class="fil0" d="M1061476 111872c-5260,-21119 -20385,-27357 -38976,-28131l-138780 0 -1100 6930c33675,8603 63804,21038 90223,36489 58178,34002 98336,82762 118721,137801l-30088 -153089z"/>
    </g>
   </g>
  </g>
 </g>
</svg>
