<?xml version="1.0" encoding="UTF-8"?>
<!DOCTYPE svg PUBLIC "-//W3C//DTD SVG 1.1//EN" "http://www.w3.org/Graphics/SVG/1.1/DTD/svg11.dtd">
<!-- Creator: CorelDRAW X8 -->
<svg xmlns="http://www.w3.org/2000/svg" xml:space="preserve" width="0.9493mm" height="1.3432mm" version="1.1" style="shape-rendering:geometricPrecision; text-rendering:geometricPrecision; image-rendering:optimizeQuality; fill-rule:evenodd; clip-rule:evenodd"
viewBox="0 0 1057 1496"
 xmlns:xlink="http://www.w3.org/1999/xlink">
 <defs>
  <style type="text/css">
   <![CDATA[
    .fil0 {fill:white}
   ]]>
  </style>
 </defs>
 <g id="Слой_x0020_1">
  <metadata id="CorelCorpID_0Corel-Layer"/>
  <path class="fil0" d="M1045 1296l-136 -251c-27,-49 -91,-67 -143,-39l-126 69c-5,-6 -10,-11 -16,-17 -51,-52 -122,-124 -184,-238 -63,-115 -84,-213 -100,-285 -2,-8 -4,-15 -5,-22l84 -46 42 -23c52,-28 72,-91 45,-141l-137 -250c-27,-50 -91,-68 -143,-40l-70 39 1 2c-25,18 -49,40 -68,66 -19,24 -33,49 -44,74 -88,204 -49,426 136,766 256,470 556,529 569,531 29,5 57,6 87,4 32,-3 63,-10 92,-21l1 1 71 -38c51,-28 71,-91 44,-141z"/>
 </g>
</svg>
