<?xml version="1.0" encoding="UTF-8"?>
<!DOCTYPE svg PUBLIC "-//W3C//DTD SVG 1.1//EN" "http://www.w3.org/Graphics/SVG/1.1/DTD/svg11.dtd">
<!-- Creator: CorelDRAW X8 -->
<svg xmlns="http://www.w3.org/2000/svg" xml:space="preserve" width="15.4802mm" height="16.1869mm" version="1.1" style="shape-rendering:geometricPrecision; text-rendering:geometricPrecision; image-rendering:optimizeQuality; fill-rule:evenodd; clip-rule:evenodd"
viewBox="0 0 438367 458379"
 xmlns:xlink="http://www.w3.org/1999/xlink">
 <defs>
  <style type="text/css">
   <![CDATA[
    .str1 {stroke:#4D94DB;stroke-width:11987}
    .str0 {stroke:#B3B3B3;stroke-width:2157.82}
    .fil15 {fill:none}
    .fil9 {fill:#116BC4}
    .fil11 {fill:#4D94DB}
    .fil13 {fill:#6FA9E2}
    .fil16 {fill:#92A15C}
    .fil14 {fill:#AEBF6F}
    .fil12 {fill:#BADAF4}
    .fil10 {fill:#FFFDF9}
    .fil4 {fill:#C2C2C2;fill-rule:nonzero}
    .fil6 {fill:#C5D782;fill-rule:nonzero}
    .fil1 {fill:#CDE5E2;fill-rule:nonzero}
    .fil2 {fill:#CDE7E3;fill-rule:nonzero}
    .fil3 {fill:#CEE7E3;fill-rule:nonzero}
    .fil0 {fill:#E6E6E6;fill-rule:nonzero}
    .fil8 {fill:#F6ECDB;fill-rule:nonzero}
    .fil7 {fill:#FFE28C;fill-rule:nonzero}
    .fil5 {fill:white;fill-rule:nonzero}
   ]]>
  </style>
 </defs>
 <g id="Слой_x0020_1">
  <metadata id="CorelCorpID_0Corel-Layer"/>
  <path class="fil0" d="M147077 120464l-109400 36958 0 259143 112340 -37915c3528,-1178 7159,-1255 10517,-411l6 -31 130817 33135 109333 -36958 0 -259140 -112210 37912c-3526,1181 -7159,1255 -10514,411l-9 31 -25554 -6468c-4871,-1217 -8815,-4233 -11310,-8161l-1359 646c-4027,1840 -8366,2138 -12353,1138l-11 40 -48489 -12279c-3157,-790 -5927,-2333 -8167,-4392 -3098,773 -6215,731 -9118,3l-14519 -3662zm-134198 5695l126445 -42718c1640,-662 3378,-1098 5171,-1279l909 -31360 0 0 175 -175 17855 -13131 -289 -23776 31487 -833 16648 -12808c209,-161 526,-20 787,-20l0 0 18143 13236 31028 -422 416 20769 18891 12794 1190 1093 -91 68195 0 0 173 45 120739 -40792c2296,-997 4831,-1552 7493,-1552 5221,0 9945,2127 13360,5559 1852,1459 3427,3260 4624,5301l728 1113c1048,1085 1968,2294 2736,3605l710 1093c1835,1892 3271,4171 4183,6700 1266,2532 1977,5386 1977,8408l0 282635 -57 0c0,7855 -4964,15178 -12822,17806l-126375 42715c-3565,1444 -7597,1818 -11613,813l-130820 -33135 -120872 40795c-2297,994 -4828,1546 -7487,1546 -6842,0 -12831,-3645 -16127,-9096 -1048,-1084 -1968,-2294 -2736,-3605l-711 -1087c-1047,-1082 -1968,-2294 -2729,-3602 -309,-436 -598,-887 -870,-1351l-249 -362c-3044,-3348 -4899,-7794 -4899,-12673l0 -282638 57 0c0,-7852 4964,-15175 12822,-17806zm203742 -60949l-1762 43c-5324,108 -10129,2135 -13726,5406l-707 750c-3804,3803 -6160,9065 -6160,14878 0,2473 357,4718 1014,6686l357 977 33307 8433c1589,-1359 2985,-2962 4132,-4754 2067,-3223 3268,-7117 3268,-11342 0,-5847 -2339,-11117 -6114,-14906 -3542,-3551 -8325,-5853 -13609,-6171z"/>
  <polygon class="fil1" points="283380,136212 147233,101743 19701,144829 19701,427464 147233,384381 283380,418847 410910,375764 410910,93126 "/>
  <polygon class="fil1" points="284057,136883 148001,102414 20564,145500 20564,428135 147910,385050 284150,419518 411773,376433 411773,93797 "/>
  <polygon class="fil1" points="284303,137554 148125,103086 20564,146171 20564,428806 148156,385721 284275,420189 411773,377106 411773,94468 "/>
  <polygon class="fil1" points="284980,138225 148895,103757 21425,146842 21425,429478 148833,386392 285042,420860 412634,377775 412634,95140 "/>
  <polygon class="fil1" points="285226,138896 149017,104428 21425,147514 21425,430149 149080,387063 285164,421532 412634,378446 412634,95811 "/>
  <polygon class="fil1" points="285903,139568 149787,105099 22286,148185 22286,430820 149756,387734 285934,422203 413495,379117 413495,96482 "/>
  <polygon class="fil2" points="286152,140239 149912,105770 22286,148853 22286,431491 150006,388405 286059,422874 413495,379788 413495,97153 "/>
  <polygon class="fil2" points="286829,140910 150679,106441 23147,149524 23147,432162 150682,389076 286826,423545 414359,380459 414359,97824 "/>
  <polygon class="fil2" points="287506,141578 151450,107112 24011,150195 24011,432830 151359,389748 287596,424213 415220,381130 415220,98495 "/>
  <polygon class="fil2" points="287752,142249 151571,107784 24011,150866 24011,433502 151605,390419 287718,424884 415220,381802 415220,99166 "/>
  <polygon class="fil2" points="288432,142920 152342,108455 24872,151538 24872,434173 152282,391090 288491,425556 416080,382473 416080,99838 "/>
  <polygon class="fil2" points="288678,143592 152466,109123 24872,152209 24872,434844 152529,391761 288613,426227 416080,383144 416080,100509 "/>
  <polygon class="fil3" points="289601,144934 153358,110465 25732,153551 25732,436186 153452,393103 289505,427569 416944,384486 416944,101848 "/>
  <polygon class="fil3" points="290278,145605 154129,111136 26596,154222 26596,436857 154131,393772 290275,428240 417805,385154 417805,102519 "/>
  <polygon class="fil3" points="290955,146276 154899,111808 27457,154893 27457,437528 154808,394446 291046,428911 418666,385826 418666,103190 "/>
  <polygon class="fil4" points="292125,148289 155913,113821 28318,156907 28318,439542 155978,396456 292062,430925 419527,387839 419527,105204 "/>
  <polygon class="fil5" points="146369,383518 18840,426603 18840,143968 146369,100882 "/>
  <polygon class="fil5 str0" points="410049,374901 282519,417986 282519,135351 410049,92265 "/>
  <polygon class="fil5" points="282519,417986 146369,383518 146369,100882 282519,135351 "/>
  <g id="_787658024">
   <polygon class="fil5" points="282519,153877 146369,118547 146369,118403 36074,156335 36074,402590 146369,364848 146369,364848 282519,399461 392814,362534 392814,116279 "/>
  </g>
  <g id="_787659464">
   <path class="fil6" d="M156439 121161c2699,16393 5822,34817 7683,43992 21349,-3129 48772,-7284 54478,-8779l-4684 -20298 -57477 -14915zm64933 16849l9073 43049 59247 1676 38459 -29269 4250 -16594 -49882 17005 -61147 -15867z"/>
   <path class="fil6" d="M139811 175673c2450,14385 4511,26347 4837,27751l-48 3c119,626 192,1003 192,1003l-26856 4165 -864 -6895 19148 -3497 -11862 -72228 -61271 21071 44507 104632 74969 -11200 42816 -54715 -5063 -21953 -80505 11863zm-8781 -51992c1155,6887 4519,26885 7620,45147 2387,-337 9342,-1328 18234,-2619l-7708 -46934 -2807 -728 0 -144 -15339 5278z"/>
   <polygon class="fil7" points="36074,194807 64471,194807 45235,153186 36074,156335 "/>
   <path class="fil7" d="M89199 278337l-24323 -17600 -20091 35700 -3755 -2112 20332 -36128 -25288 -18299 0 73354 37051 6499 16074 -41414zm-53125 -43760l54736 39608 4720 -12165 -29068 -62906 -30388 0 0 35463z"/>
   <path class="fil6" d="M92410 383311l1399 -14442 -21545 -31020c0,0 -24444,-5315 -36190,-7178l0 71919 56336 -19279z"/>
   <polygon class="fil7" points="113626,365423 115395,375447 146369,364848 146369,364848 217813,383011 218753,352498 173082,343881 "/>
   <polygon class="fil6" points="296565,374901 225181,374901 224983,384834 282519,399461 309616,390388 "/>
   <polygon class="fil6" points="263019,335105 225645,351635 225266,370593 292932,370593 "/>
   <polygon class="fil7" points="316753,306357 329532,329518 353897,315543 340789,292566 "/>
   <polygon class="fil7" points="369778,137936 392814,161231 392814,118131 "/>
   <polygon class="fil7" points="334403,249631 356698,289160 392814,266760 392814,213404 "/>
   <polygon class="fil7" points="392814,170026 365077,141977 336159,166835 368133,221435 392814,206126 "/>
   <polygon class="fil7" points="312930,243746 288755,250701 294549,275117 288531,276544 282802,252411 258392,259434 269592,326644 337883,287475 "/>
   <path class="fil7" d="M382651 365935l-25851 -45306 -29946 17093 -2829 -5043 144 -83 -12780 -23164 -40880 23456 45017 55520 67125 -22473zm10163 -91897l-33075 20513 33075 58650 0 -79163z"/>
   <polygon class="fil7" points="331393,170932 303531,194887 331362,244239 362877,224694 "/>
   <polygon class="fil8" points="77435,199114 77435,194807 64471,194807 36074,194807 36074,199114 66462,199114 "/>
   <polygon class="fil8" points="36074,239898 61362,258197 41030,294325 44785,296437 64876,260737 89199,278337 90354,279172 92880,275680 90810,274185 36074,234577 "/>
   <path class="fil8" d="M392814 266760l-36116 22400 -22295 -39529 58411 -36227 0 -7278 -24681 15309 -31974 -54600 28918 -24858 0 0 27737 28049 0 -8795 -23036 -23295 23036 -19805 0 -1852 -28620 9755 -3529 2688 -1096 -1110 -3557 1212 -1993 1971 1685 1702 -27553 20969 -38459 29269 -1141 870 10257 11723 4392 31362 9730 17056 24953 43729 -68291 39169 -2829 1623 -617 -759 -5171 5171 2044 2426 29913 35488 -67666 0 -2206 0 -2583 4308 4704 0 71384 0 13051 15487 5910 -1980 -45017 -55520 40880 -23456 12780 23164 -144 83 2829 5043 29946 -17093 25851 45306 10163 -3401 0 -9333 -33075 -58650 33075 -20513 0 -7278zm-89283 -71873l0 0 27862 -23955 31484 53762 -31515 19545 -27831 -49352zm26001 134631l0 0 -12779 -23161 24036 -13791 13108 22977 -24365 13975z"/>
   <path class="fil8" d="M213916 136076l4684 20298c-5706,1495 -33129,5650 -54478,8779 -1861,-9175 -4984,-27599 -7683,-43992l-7263 -1886 7708 46934c-8892,1291 -15847,2282 -18234,2619 -3101,-18262 -6465,-38260 -7620,-45147l-6672 2294 11862 72228 -19148 3497 864 6895 26856 -4165c0,0 -73,-377 -192,-1003l48 -3c-326,-1404 -2387,-13366 -4837,-27751l80505 -11863 5063 21953 1824 7903 4327 855 1011 -1438 444 37 -2540 -12061 -9073 -43049 -7456 -1934z"/>
   <polygon class="fil7" points="174806,264605 145313,269111 141887,295449 135756,294650 138953,270082 112765,274083 92084,326647 105872,342157 167914,325786 "/>
   <polygon class="fil6" points="231530,194521 198072,242200 301475,223244 288551,197393 232985,193120 232541,193083 "/>
   <polygon class="fil7" points="192041,266327 189971,286147 247201,286147 243741,261156 "/>
   <polygon class="fil7" points="186009,324061 221338,333539 251497,317169 248634,296488 188889,296488 "/>
   <path class="fil8" d="M294549 275117l-5794 -24416 -2215 -9333c-1631,1333 -3525,2316 -5675,2877l1937 8166 5729 24133 6018 -1427z"/>
   <path class="fil8" d="M141887 295449l3426 -26338 1048 -8057c-1996,668 -4115,915 -6323,677l-1085 8351 -3197 24568 6131 799z"/>
  </g>
  <polygon class="fil9" points="271226,53841 212968,95899 154712,53841 212968,11783 "/>
  <polygon class="fil10" points="170624,122611 255311,122611 255311,19171 170624,19171 "/>
  <g id="_785236752">
   <polygon class="fil11" points="183840,38192 208035,38192 208035,33316 183840,33316 "/>
   <polygon class="fil11" points="183605,47665 242333,47665 242333,42788 183605,42788 "/>
   <polygon class="fil11" points="183605,56752 242333,56752 242333,51876 183605,51876 "/>
   <polygon class="fil11" points="183605,65842 242333,65842 242333,60963 183605,60963 "/>
   <polygon class="fil11" points="183605,74929 242333,74929 242333,70050 183605,70050 "/>
   <polygon class="fil11" points="183605,84016 242333,84016 242333,79140 183605,79140 "/>
   <polygon class="fil12" points="183605,93104 242333,93104 242333,88227 183605,88227 "/>
  </g>
  <polygon class="fil11" points="154712,122611 271226,122611 271226,53841 212968,95899 154712,53841 "/>
  <polygon class="fil13" points="154712,122608 271226,122608 223598,88227 202343,88227 202343,88224 "/>
  <path class="fil14" d="M258392 259434l11200 67210 8948 -5131 0 -67875 -20148 5796zm20148 -106591l0 29578 -48095 -1362 -8792 -41712 -281 -1337 12403 3217 12755 3310 32010 8306zm-123828 214126l0 -16430 18370 -6658 45671 8617 -940 30513 -63101 -16042zm0 -37700l0 -61594 20094 -3070 -6892 61181 -13202 3483zm0 -84628l0 -71166 59813 -8812 -3 11268c-12848,0 -23263,10415 -23263,23266 0,7538 3585,14238 9141,18488l-17837 22793 -27851 4163zm57307 -22314l-13947 19873 80468 -14751 0 -30827 -41471 -3188c470,1843 719,3775 719,5763 0,12847 -10415,23263 -23266,23263 -847,0 -1682,-46 -2503,-133zm9319 111212l30159 -16370 -2863 -20681 -59745 0 -2880 27573 35329 9478zm4307 18096l-379 18958 53274 0 0 -17072 -15521 -18416 -37374 16530zm-61523 -186482c18064,-2648 40478,-6029 50403,-7912l0 -18526 -289 -1246 -320 -1393 -41924 -10880 -2875 -747 -7102 -1841 -5338 0c17,96 31,193 48,289 2631,15943 5602,33404 7397,42256zm25849 120994l57230 0 -3460 -24991 -51700 5171 -2070 19820zm88569 88754l-53359 0 -198 9933 53557 13616 0 -23549z"/>
  <line class="fil15 str1" x1="214525" y1="122608" x2="214525" y2= "196954" />
  <circle class="fil16" cx="214443" cy="199307" r="23164"/>
 </g>
</svg>
