<?xml version="1.0" encoding="UTF-8"?>
<!DOCTYPE svg PUBLIC "-//W3C//DTD SVG 1.1//EN" "http://www.w3.org/Graphics/SVG/1.1/DTD/svg11.dtd">
<!-- Creator: CorelDRAW X8 -->
<svg xmlns="http://www.w3.org/2000/svg" xml:space="preserve" width="1.7674mm" height="1.7674mm" version="1.1" style="shape-rendering:geometricPrecision; text-rendering:geometricPrecision; image-rendering:optimizeQuality; fill-rule:evenodd; clip-rule:evenodd"
viewBox="0 0 6158 6158"
 xmlns:xlink="http://www.w3.org/1999/xlink">
 <defs>
  <style type="text/css">
   <![CDATA[
    .str0 {stroke:#4D94DB;stroke-width:442.118}
    .fil0 {fill:none}
    .fil1 {fill:#4D94DB;fill-rule:nonzero}
   ]]>
  </style>
 </defs>
 <g id="Слой_x0020_1">
  <metadata id="CorelCorpID_0Corel-Layer"/>
  <g id="_735918024">
   <path class="fil0 str0" d="M3079 221c1578,0 2857,1280 2857,2858 0,1578 -1279,2857 -2857,2857 -1578,0 -2858,-1279 -2858,-2857 0,-1578 1280,-2858 2858,-2858z"/>
   <path class="fil1" d="M2870 3960c-1,-55 -2,-97 -2,-124 0,-161 22,-300 69,-418 33,-89 87,-178 162,-267 55,-66 154,-161 296,-287 143,-126 235,-226 278,-300 43,-76 64,-158 64,-246 0,-161 -63,-303 -188,-424 -125,-122 -278,-183 -459,-183 -175,0 -321,55 -438,165 -118,111 -195,284 -232,519l-421 -52c38,-313 151,-553 339,-720 188,-166 436,-250 745,-250 327,0 588,90 784,268 194,179 291,395 291,649 0,147 -34,282 -103,405 -68,125 -203,274 -402,452 -135,118 -222,206 -264,262 -41,56 -72,121 -91,194 -20,73 -31,192 -35,357l-393 0zm-75 824l0 -469 468 0 0 469 -468 0z"/>
  </g>
 </g>
</svg>
