<?xml version="1.0" encoding="UTF-8"?>
<!DOCTYPE svg PUBLIC "-//W3C//DTD SVG 1.1//EN" "http://www.w3.org/Graphics/SVG/1.1/DTD/svg11.dtd">
<!-- Creator: CorelDRAW X8 -->
<svg xmlns="http://www.w3.org/2000/svg" xml:space="preserve" width="4.2762mm" height="3.6271mm" version="1.1" style="shape-rendering:geometricPrecision; text-rendering:geometricPrecision; image-rendering:optimizeQuality; fill-rule:evenodd; clip-rule:evenodd"
viewBox="0 0 4942131 4191947"
 xmlns:xlink="http://www.w3.org/1999/xlink">
 <defs>
  <style type="text/css">
   <![CDATA[
    .fil0 {fill:#00569F}
   ]]>
  </style>
 </defs>
 <g id="Слой_x0020_1">
  <metadata id="CorelCorpID_0Corel-Layer"/>
  <path class="fil0" d="M688121 3965309l170702 -746717 -123317 0 -107482 557177 -7397 0 -146431 -557177 -93845 0 -136954 557177 -7281 0 -118000 -557177 -118116 0 170701 746717 113840 0 139034 -525626 7512 0 143080 525626 113954 0zm1777628 -3965309c-789594,0 -1433913,644088 -1433913,1433798 0,789595 644319,1433452 1433913,1433452 256688,0 498004,-67841 706729,-186766 69228,-38833 131753,-81017 189077,-125166l-288816 -329614 -333428 307424 -562841 -626405 156255 -137879 -393873 -441257 157295 -137879 -399882 -440795 623747 -561916 198323 217046 334815 -298640 198092 205026 131984 -118231 -89106 -46923c-190118,-93036 -403466,-145275 -628371,-145275zm356081 1109732l230337 255647 255763 -230337 -230453 -255647 -255647 230337zm935101 226292l-170586 153365 153365 170586 170586 -153597 -153365 -170354zm-5548 855702l-230337 -255648 -255647 230684 230452 255532 255532 -230568zm-656801 -225599l-306846 -341055 -340941 307308 306731 340940 341056 -307193zm-827271 -864370l340940 -307077 -306615 -341056 -340941 306962 306616 341171zm883555 -625481l153481 170470 170586 -153596 -153597 -170586 -170470 153712zm-298641 900429l-306961 -340940 -341172 306615 307193 340940 340940 -306615zm443916 43109l-255763 230568 230453 255416 255763 -230337 -230453 -255647zm-479743 -568272l255878 -230222 -230337 -255994 -255878 230337 230337 255879zm-1379248 2339775l0 735044c63334,33631 149782,51661 205489,51661 152787,0 247441,-95695 247441,-292631 0,-168505 -70499,-259230 -200981,-259230 -57093,0 -110603,22190 -142386,38948l0 -300143 -109563 26351zm-95463 492109c0,-171857 -81248,-257265 -212886,-257265 -157988,0 -239005,115688 -239005,275757 0,166541 72696,276104 249522,276104 75701,0 138919,-21266 186420,-48425l0 -80092c-57902,34787 -110719,54897 -167466,54897 -108407,0 -160068,-56169 -160068,-182374l343251 0 232 -38602zm664660 -464834l0 746717 94770 0 0 -528747 9477 0 214734 528747 67379 0 214850 -541344 9477 0 0 541344 113955 0 0 -746717 -130597 0 -225483 588844 -5316 0 -235885 -588844 -127361 0zm1080607 207569c-139150,0 -240276,91418 -240276,275757 0,180063 96041,276104 240276,276104 144351,0 240276,-95695 240276,-276104 0,-183992 -101242,-275757 -240276,-275757zm608839 -116c-121121,0 -221207,49581 -268592,77896l0 461368 109448 -116 0 -416987c32707,-18954 86448,-37908 128517,-37908 53972,0 95001,14793 95001,97775l0 357236 109447 0 -115 -381160c0,-108639 -47270,-158104 -173706,-158104zm1007218 405546l-134758 -387748 -115920 0 202137 527013c-25426,77781 -69459,134758 -141114,134758l0 86333c121005,0 185263,-76047 237849,-221091l190926 -527013 -112799 232 -119964 387516 -6357 0zm-283154 -148165c0,-171857 -81132,-257265 -213001,-257265 -157872,0 -239005,115688 -239005,275757 0,166541 72465,276104 249407,276104 75931,0 139034,-21266 186419,-48425l0 -80092c-57671,34787 -110488,54897 -167234,54897 -108754,0 -160300,-56169 -160300,-182374l343367 0 347 -38602zm-880897 -2853843l-170239 153481 153481 170239 170123 -153366 -153365 -170354zm780464 2821945l-241432 0c11789,-105171 61138,-154752 125513,-154752 56862,0 110719,44264 115919,154752zm-1362143 50390c0,-142039 60214,-202022 129673,-202022 71540,0 129557,59983 129557,202022 0,144466 -54897,202368 -129557,202368 -74891,0 -129673,-57902 -129673,-202368zm-1831716 -205142c56862,0 110604,44264 115804,154752l-241316 0c11673,-105171 61254,-154752 125512,-154752zm420224 390637l0 -344408c42184,-23230 72926,-34787 114763,-34787 70500,231 119156,43339 119156,177057 0,170586 -59058,219127 -137069,219127 -26351,0 -62988,-2081 -96850,-16989z"/>
 </g>
</svg>
