<?xml version="1.0" encoding="UTF-8"?>
<!DOCTYPE svg PUBLIC "-//W3C//DTD SVG 1.1//EN" "http://www.w3.org/Graphics/SVG/1.1/DTD/svg11.dtd">
<!-- Creator: CorelDRAW X8 -->
<svg xmlns="http://www.w3.org/2000/svg" xml:space="preserve" width="3.9029mm" height="4.2081mm" version="1.1" style="shape-rendering:geometricPrecision; text-rendering:geometricPrecision; image-rendering:optimizeQuality; fill-rule:evenodd; clip-rule:evenodd"
viewBox="0 0 2049049 2209281"
 xmlns:xlink="http://www.w3.org/1999/xlink">
 <defs>
  <style type="text/css">
   <![CDATA[
    .fil5 {fill:#F8AF03;fill-rule:nonzero}
    .fil7 {fill:#F4D476;fill-rule:nonzero}
    .fil4 {fill:#DC4532;fill-rule:nonzero}
    .fil3 {fill:#888685;fill-rule:nonzero}
    .fil6 {fill:#252422;fill-rule:nonzero}
    .fil0 {fill:#999999;fill-rule:nonzero}
    .fil1 {fill:#B3B3B3;fill-rule:nonzero}
    .fil2 {fill:#CCCCCC;fill-rule:nonzero}
   ]]>
  </style>
 </defs>
 <g id="Слой_x0020_1">
  <metadata id="CorelCorpID_0Corel-Layer"/>
  <g id="_789634800">
   <path class="fil0" d="M1665951 319782c0,-175143 -26040,-319099 191575,-317209 210265,1785 181390,142696 191523,317209l-383098 0z"/>
   <path class="fil1" d="M368 206380c0,0 -16696,-194567 185274,-202915 201918,-8295 1632299,945 1632299,945 0,0 -137867,22838 -152200,201970 -14332,178975 -1665373,0 -1665373,0z"/>
   <polygon class="fil2" points="368,2209281 1665951,2209281 1665951,206328 368,206328 "/>
   <polygon class="fil3" points="117287,722567 1512282,722567 1512282,668439 117287,668439 "/>
   <polygon class="fil3" points="117287,910414 1512282,910414 1512282,856286 117287,856286 "/>
   <polygon class="fil3" points="117287,1085924 1512282,1085924 1512282,1031743 117287,1031743 "/>
   <polygon class="fil3" points="117287,1259281 1512282,1259281 1512282,1205100 117287,1205100 "/>
   <path class="fil4" d="M310226 461743c-11340,3885 -32865,9188 -54390,9188 -29768,0 -51293,-7508 -66256,-21998 -15015,-14017 -23258,-35333 -23048,-59326 315,-54128 39743,-85103 93136,-85103 21053,0 37276,4147 45256,7980l-7718 29558c-8977,-3885 -20107,-7035 -38010,-7035 -30713,0 -53918,17378 -53918,52658 0,33653 21052,53498 51293,53498 8452,0 15225,-945 18113,-2415l0 -34073 -25148 0 0 -28823 60690 0 0 85891z"/>
   <path class="fil4" d="M375800 306236l0 93819c0,28035 10657,42316 29505,42316 19320,0 29978,-13546 29978,-42316l0 -93819 36751 0 0 91404c0,50296 -25358,74236 -67936,74236 -41161,0 -65311,-22733 -65311,-74708l0 -90932 37013 0z"/>
   <path class="fil4" d="M576037 399845l-10132 -34650c-2888,-9660 -5775,-21736 -8243,-31448l-472 0c-2415,9712 -4830,22050 -7508,31448l-9660 34650 36015 0zm-41370 27563l-11603 41843 -38220 0 49823 -163015 48405 0 50559 163015 -39691 0 -12548 -41843 -46725 0z"/>
   <path class="fil4" d="M691906 378530l14491 0c18427,0 29295,-9188 29295,-23468 0,-14963 -10133,-22470 -27038,-22733 -8978,0 -14070,735 -16748,1208l0 44993zm-36540 -70141c11865,-1943 29505,-3413 49141,-3413 24202,0 41108,3675 52710,12863 9713,7718 15015,19058 15015,34073 0,20790 -14805,35070 -28822,40163l0 735c11392,4620 17692,15488 21787,30450 5093,18376 10185,39691 13283,45991l-37696 0c-2677,-4620 -6562,-17903 -11392,-38010 -4358,-20318 -11340,-25883 -26355,-26093l-11131 0 0 64103 -36540 0 0 -160862z"/>
   <path class="fil4" d="M880331 399845l-10132 -34650c-2940,-9660 -5828,-21736 -8243,-31448l-472 0c-2415,9712 -4831,22050 -7508,31448l-9660 34650 36015 0zm-41370 27563l-11603 41843 -38220 0 49823 -163015 48353 0 50558 163015 -39638 0 -12600 -41843 -46673 0z"/>
   <path class="fil4" d="M959660 469251l0 -163015 43050 0 33863 59746c9660,17168 19373,37433 26618,55861l735 0c-2415,-21525 -3150,-43576 -3150,-67988l0 -47619 33863 0 0 163015 -38693 0 -34860 -62948c-9661,-17378 -20318,-38431 -28298,-57489l-683 210c945,21473 1418,44469 1418,71086l0 49141 -33863 0z"/>
   <polygon class="fil4" points="1158007,337159 1114222,337159 1114222,306236 1239541,306236 1239541,337159 1195020,337159 1195020,469251 1158007,469251 "/>
   <polygon class="fil4" points="1356092,400318 1296084,400318 1296084,439011 1363127,439011 1363127,469251 1259124,469251 1259124,306236 1359715,306236 1359715,336424 1296084,336424 1296084,370287 1356092,370287 "/>
   <polygon class="fil4" points="1485244,400318 1425288,400318 1425288,439011 1492279,439011 1492279,469251 1388275,469251 1388275,306236 1488919,306236 1488919,336424 1425288,336424 1425288,370287 1485244,370287 "/>
   <path class="fil5" d="M1345225 793128c0,0 -34703,-38903 -74341,-32183 -43996,7455 -300514,305816 -306027,315529 -27195,47408 27143,61846 49246,41160 12600,-11865 37538,-41108 37538,-41108l-15015 -10657c0,0 233103,-256414 242028,-263764 20160,-16537 42893,6458 42893,6458l23678 -15435z"/>
   <polygon class="fil6" points="1509919,945170 1495639,961970 1207358,1301754 1199325,1311257 1188405,1324119 997670,1155487 1009168,1143202 1017568,1134172 1321547,808563 1322177,807933 1336877,792235 1338400,793548 1340972,795910 1341287,796173 1507714,943227 "/>
   <polygon class="fil5" points="997670,1155487 935457,1225891 1128974,1396990 1188405,1324119 "/>
   <polygon class="fil5" points="732227,1540107 830981,1631826 732384,1698764 671011,1644531 "/>
   <polygon class="fil7" points="672009,1645424 501171,1899422 522382,1903832 536609,1887767 715689,1798726 732384,1698764 "/>
   <polygon class="fil6" points="1128974,1396990 1118894,1404970 1108972,1412741 853031,1614396 843161,1622218 830981,1631773 730599,1542942 730442,1542890 745615,1519369 921702,1247206 935457,1225943 "/>
   <path class="fil6" d="M1509919 945170l-2205 -1943 -166427 -147054 -2887 -2625 -1523 -1313c0,0 1260,-840 3570,-2257 315,-105 525,-315 893,-525 18637,-10711 91456,-47146 150939,2992 59168,50138 29348,127314 20055,147632 -1470,3308 -2415,5093 -2415,5093z"/>
   <polygon class="fil6" points="1341812,789610 1512702,937400 1499524,952625 1328687,804888 "/>
   <path class="fil5" d="M1337927 786355l-262 -262 -1260 -1103 -17746 20213 -367 420 3727 3255 173620 153092 14280 -16800c0,0 945,-1785 2415,-5093l-1102 -997 -169052 -149050 -368 -262 -3885 -3413z"/>
   <polygon class="fil5" points="928527,1236653 1118894,1404970 1108972,1412741 921702,1247206 "/>
   <polygon class="fil5" points="1207358,1301754 1199325,1311257 1009168,1143202 1017568,1134172 "/>
   <polygon class="fil5" points="853031,1614396 843161,1622218 738789,1529975 745615,1519369 "/>
   <polygon class="fil3" points="138182,1976545 787353,1976545 787353,1926197 138182,1926197 "/>
  </g>
 </g>
</svg>
