<?xml version="1.0" encoding="UTF-8"?>
<!DOCTYPE svg PUBLIC "-//W3C//DTD SVG 1.1//EN" "http://www.w3.org/Graphics/SVG/1.1/DTD/svg11.dtd">
<!-- Creator: CorelDRAW X8 -->
<svg xmlns="http://www.w3.org/2000/svg" xml:space="preserve" width="3.9683mm" height="3.005mm" version="1.1" style="shape-rendering:geometricPrecision; text-rendering:geometricPrecision; image-rendering:optimizeQuality; fill-rule:evenodd; clip-rule:evenodd"
viewBox="0 0 19110 14471"
 xmlns:xlink="http://www.w3.org/1999/xlink">
 <defs>
  <style type="text/css">
   <![CDATA[
    .fil1 {fill:#E68A03}
    .fil0 {fill:#F2A800}
    .fil2 {fill:#FFD472}
    .fil3 {fill:white;fill-rule:nonzero}
    .fil4 {fill:white;fill-rule:nonzero}
   ]]>
  </style>
 </defs>
 <g id="Слой_x0020_1">
  <metadata id="CorelCorpID_0Corel-Layer"/>
  <g id="_789641328">
   <g>
    <path class="fil0" d="M434 4995l13753 -4956c340,-122 718,55 840,395l2956 8202c122,340 -56,718 -395,840l-13753 4956c-340,122 -718,-55 -840,-395l-2956 -8202c-122,-340 55,-718 395,-840z"/>
    <path class="fil1" d="M806 5351l13322 -4801c218,-78 462,36 540,255l2802 7775c79,219 -36,462 -254,540l-13322 4801c-218,79 -461,-36 -540,-254l-2802 -7776c-79,-218 36,-461 254,-540z"/>
    <polygon class="fil0" points="1677,10380 16665,4979 17432,7108 2444,12509 "/>
   </g>
   <path class="fil2" d="M3835 4401l14619 0c360,0 656,295 656,656l0 8719c0,361 -296,656 -656,656l-14619 0c-361,0 -657,-295 -657,-656l0 -8719c0,-361 296,-656 657,-656z"/>
   <path class="fil0" d="M4064 4862l14160 0c233,0 422,190 422,422l0 8265c0,232 -189,422 -422,422l-14160 0c-232,0 -422,-190 -422,-422l0 -8265c0,-232 190,-422 422,-422z"/>
   <path class="fil2" d="M4835 8361l3441 0c95,0 172,77 172,172l0 2284c0,95 -77,172 -172,172l-3441 0c-95,0 -172,-77 -172,-172l0 -2284c0,-95 77,-172 172,-172z"/>
   <path class="fil3" d="M5453 12660c0,170 -40,298 -118,385 -79,86 -186,130 -319,130 -134,0 -241,-44 -320,-130 -79,-87 -118,-215 -118,-385l0 -264c0,-169 39,-297 117,-383 78,-87 185,-130 320,-130 133,0 240,43 319,130 79,87 119,214 119,383l0 264zm-291 -283c0,-96 -13,-165 -38,-207 -25,-42 -62,-63 -109,-63 -49,0 -85,21 -110,63 -24,42 -36,111 -36,207l0 302c0,97 12,167 37,209 24,41 61,62 110,62 48,0 84,-21 109,-62 24,-42 37,-112 37,-209l0 -302z"/>
   <path id="1" class="fil3" d="M6477 12660c0,170 -40,298 -118,385 -79,86 -186,130 -319,130 -135,0 -241,-44 -320,-130 -79,-87 -118,-215 -118,-385l0 -264c0,-169 39,-297 117,-383 78,-87 185,-130 319,-130 134,0 241,43 320,130 79,87 119,214 119,383l0 264zm-291 -283c0,-96 -13,-165 -38,-207 -25,-42 -62,-63 -110,-63 -48,0 -84,21 -109,63 -24,42 -37,111 -37,207l0 302c0,97 13,167 38,209 24,41 61,62 110,62 47,0 84,-21 109,-62 24,-42 37,-112 37,-209l0 -302z"/>
   <path id="2" class="fil3" d="M7500 12660c0,170 -39,298 -118,385 -79,86 -185,130 -318,130 -135,0 -242,-44 -321,-130 -78,-87 -118,-215 -118,-385l0 -264c0,-169 39,-297 118,-383 78,-87 184,-130 319,-130 134,0 240,43 320,130 79,87 118,214 118,383l0 264zm-290 -283c0,-96 -13,-165 -39,-207 -25,-42 -61,-63 -109,-63 -48,0 -85,21 -109,63 -24,42 -37,111 -37,207l0 302c0,97 13,167 37,209 25,41 62,62 111,62 47,0 84,-21 108,-62 25,-42 38,-112 38,-209l0 -302z"/>
   <path id="3" class="fil3" d="M8964 12660c0,170 -39,298 -118,385 -79,86 -185,130 -318,130 -135,0 -242,-44 -321,-130 -78,-87 -118,-215 -118,-385l0 -264c0,-169 39,-297 118,-383 78,-87 184,-130 319,-130 134,0 240,43 320,130 79,87 118,214 118,383l0 264zm-291 -283c0,-96 -12,-165 -38,-207 -25,-42 -61,-63 -109,-63 -49,0 -85,21 -109,63 -24,42 -37,111 -37,207l0 302c0,97 13,167 37,209 25,41 62,62 111,62 47,0 84,-21 108,-62 25,-42 37,-112 37,-209l0 -302z"/>
   <path id="4" class="fil3" d="M9988 12660c0,170 -39,298 -118,385 -79,86 -185,130 -319,130 -134,0 -241,-44 -320,-130 -78,-87 -118,-215 -118,-385l0 -264c0,-169 39,-297 118,-383 78,-87 184,-130 319,-130 134,0 240,43 320,130 79,87 118,214 118,383l0 264zm-291 -283c0,-96 -12,-165 -38,-207 -25,-42 -61,-63 -109,-63 -49,0 -85,21 -109,63 -24,42 -37,111 -37,207l0 302c0,97 13,167 37,209 25,41 62,62 110,62 48,0 85,-21 109,-62 25,-42 37,-112 37,-209l0 -302z"/>
   <path id="5" class="fil3" d="M11012 12660c0,170 -40,298 -118,385 -79,86 -185,130 -319,130 -134,0 -241,-44 -320,-130 -79,-87 -118,-215 -118,-385l0 -264c0,-169 39,-297 117,-383 78,-87 185,-130 320,-130 134,0 240,43 320,130 78,87 118,214 118,383l0 264zm-291 -283c0,-96 -12,-165 -38,-207 -25,-42 -62,-63 -109,-63 -49,0 -85,21 -110,63 -24,42 -36,111 -36,207l0 302c0,97 12,167 37,209 24,41 62,62 110,62 48,0 84,-21 109,-62 25,-42 37,-112 37,-209l0 -302z"/>
   <path id="6" class="fil3" d="M12476 12660c0,170 -40,298 -118,385 -79,86 -185,130 -319,130 -134,0 -241,-44 -320,-130 -79,-87 -118,-215 -118,-385l0 -264c0,-169 39,-297 117,-383 78,-87 185,-130 320,-130 134,0 240,43 319,130 79,87 119,214 119,383l0 264zm-291 -283c0,-96 -12,-165 -38,-207 -25,-42 -62,-63 -109,-63 -49,0 -85,21 -110,63 -24,42 -36,111 -36,207l0 302c0,97 12,167 37,209 24,41 62,62 110,62 48,0 84,-21 109,-62 25,-42 37,-112 37,-209l0 -302z"/>
   <path id="7" class="fil3" d="M13500 12660c0,170 -40,298 -118,385 -79,86 -186,130 -319,130 -134,0 -241,-44 -320,-130 -79,-87 -118,-215 -118,-385l0 -264c0,-169 39,-297 117,-383 78,-87 185,-130 320,-130 133,0 240,43 319,130 79,87 119,214 119,383l0 264zm-291 -283c0,-96 -13,-165 -38,-207 -25,-42 -62,-63 -109,-63 -49,0 -85,21 -110,63 -24,42 -36,111 -36,207l0 302c0,97 12,167 37,209 24,41 61,62 110,62 48,0 84,-21 109,-62 24,-42 37,-112 37,-209l0 -302z"/>
   <path id="8" class="fil3" d="M14524 12660c0,170 -40,298 -118,385 -79,86 -186,130 -319,130 -135,0 -241,-44 -320,-130 -79,-87 -118,-215 -118,-385l0 -264c0,-169 39,-297 117,-383 78,-87 184,-130 319,-130 134,0 241,43 320,130 79,87 119,214 119,383l0 264zm-291 -283c0,-96 -13,-165 -38,-207 -25,-42 -62,-63 -110,-63 -48,0 -84,21 -109,63 -24,42 -37,111 -37,207l0 302c0,97 13,167 38,209 24,41 61,62 110,62 47,0 84,-21 109,-62 24,-42 37,-112 37,-209l0 -302z"/>
   <path id="9" class="fil3" d="M15988 12660c0,170 -40,298 -118,385 -79,86 -186,130 -319,130 -135,0 -242,-44 -320,-130 -79,-87 -118,-215 -118,-385l0 -264c0,-169 39,-297 117,-383 78,-87 184,-130 319,-130 134,0 241,43 320,130 79,87 119,214 119,383l0 264zm-291 -283c0,-96 -13,-165 -38,-207 -25,-42 -62,-63 -110,-63 -48,0 -84,21 -109,63 -24,42 -37,111 -37,207l0 302c0,97 13,167 37,209 25,41 62,62 111,62 47,0 84,-21 109,-62 24,-42 37,-112 37,-209l0 -302z"/>
   <path id="10" class="fil3" d="M17011 12660c0,170 -39,298 -118,385 -79,86 -185,130 -318,130 -135,0 -242,-44 -321,-130 -78,-87 -118,-215 -118,-385l0 -264c0,-169 39,-297 118,-383 78,-87 184,-130 319,-130 134,0 240,43 320,130 79,87 118,214 118,383l0 264zm-291 -283c0,-96 -12,-165 -38,-207 -25,-42 -61,-63 -109,-63 -49,0 -85,21 -109,63 -24,42 -37,111 -37,207l0 302c0,97 13,167 37,209 25,41 62,62 111,62 47,0 84,-21 108,-62 25,-42 37,-112 37,-209l0 -302z"/>
   <path id="11" class="fil3" d="M18035 12660c0,170 -39,298 -118,385 -79,86 -185,130 -319,130 -134,0 -241,-44 -320,-130 -78,-87 -118,-215 -118,-385l0 -264c0,-169 39,-297 118,-383 78,-87 184,-130 319,-130 134,0 240,43 320,130 79,87 118,214 118,383l0 264zm-291 -283c0,-96 -12,-165 -38,-207 -25,-42 -61,-63 -109,-63 -49,0 -85,21 -109,63 -24,42 -37,111 -37,207l0 302c0,97 13,167 37,209 25,41 62,62 110,62 48,0 85,-21 109,-62 25,-42 37,-112 37,-209l0 -302z"/>
   <path class="fil4" d="M4719 6017l637 0c127,0 221,5 283,16 62,10 117,32 166,65 49,34 90,78 122,133 33,55 49,117 49,186 0,74 -20,143 -60,205 -40,62 -94,108 -163,140 97,28 171,76 223,145 52,68 78,148 78,240 0,73 -17,143 -50,212 -34,68 -80,123 -139,165 -58,40 -130,65 -215,75 -54,5 -183,9 -388,11l-543 0 0 -1593zm323 265l0 367 210 0c126,0 203,-2 234,-6 54,-6 98,-25 130,-57 31,-31 47,-72 47,-123 0,-49 -14,-89 -41,-120 -27,-31 -68,-49 -121,-56 -32,-4 -123,-5 -275,-5l-184 0zm0 631l0 428 298 0c116,0 189,-4 221,-10 47,-9 86,-30 116,-64 31,-34 45,-79 45,-135 0,-49 -11,-89 -34,-122 -23,-34 -57,-58 -101,-74 -43,-15 -139,-23 -285,-23l-260 0zm2718 697l-347 0 -137 -363 -639 0 -132 363 -341 0 618 -1593 341 0 637 1593zm-589 -632l-221 -590 -215 590 436 0zm761 632l0 -1593 312 0 656 1067 0 -1067 298 0 0 1593 -322 0 -646 -1047 0 1047 -298 0zm1611 0l0 -1593 323 0 0 706 650 -706 432 0 -601 620 632 973 -416 0 -438 -748 -259 266 0 482 -323 0zm3239 -587l311 95c-47,175 -127,306 -238,391 -111,85 -252,127 -423,127 -212,0 -386,-72 -522,-217 -136,-144 -205,-341 -205,-593 0,-265 69,-471 206,-618 137,-147 317,-220 540,-220 195,0 353,58 475,173 72,69 127,166 163,294l-318 76c-19,-82 -58,-148 -118,-196 -60,-47 -133,-71 -218,-71 -118,0 -214,42 -287,127 -74,85 -111,222 -111,412 0,200 36,344 109,429 72,86 166,129 282,129 86,0 160,-28 221,-82 62,-55 106,-140 133,-256zm2022 587l-347 0 -138 -363 -638 0 -133 363 -341 0 619 -1593 341 0 637 1593zm-589 -632l-221 -590 -215 590 436 0zm761 632l0 -1593 678 0c170,0 294,15 371,43 77,28 139,79 185,152 46,74 70,157 70,252 0,119 -35,218 -105,296 -70,77 -175,126 -314,147 69,40 127,85 171,134 46,48 106,134 182,258l195 311 -384 0 -231 -348c-83,-123 -140,-201 -171,-234 -30,-31 -62,-53 -96,-66 -35,-12 -89,-17 -163,-17l-65 0 0 665 -323 0zm323 -919l238 0c154,0 250,-7 289,-19 38,-13 68,-36 90,-68 21,-32 33,-72 33,-120 0,-54 -15,-97 -44,-130 -28,-33 -69,-54 -121,-62 -26,-4 -104,-6 -234,-6l-251 0 0 405zm1284 -674l586 0c133,0 233,10 303,31 93,27 173,76 240,146 66,70 117,156 151,259 35,101 52,226 52,376 0,131 -16,244 -49,339 -39,116 -96,209 -170,281 -55,54 -131,97 -225,127 -71,23 -165,34 -284,34l-604 0 0 -1593zm322 269l0 1055 239 0c90,0 154,-6 194,-15 52,-13 95,-36 129,-67 35,-31 62,-82 84,-153 22,-72 33,-169 33,-292 0,-123 -11,-218 -33,-283 -22,-66 -52,-117 -91,-155 -38,-36 -88,-62 -148,-75 -44,-10 -132,-15 -263,-15l-144 0z"/>
  </g>
 </g>
</svg>
