<?xml version="1.0" encoding="UTF-8"?>
<!DOCTYPE svg PUBLIC "-//W3C//DTD SVG 1.1//EN" "http://www.w3.org/Graphics/SVG/1.1/DTD/svg11.dtd">
<!-- Creator: CorelDRAW X8 -->
<svg xmlns="http://www.w3.org/2000/svg" xml:space="preserve" width="2.8434mm" height="2.3245mm" version="1.1" style="shape-rendering:geometricPrecision; text-rendering:geometricPrecision; image-rendering:optimizeQuality; fill-rule:evenodd; clip-rule:evenodd"
viewBox="0 0 88565 72403"
 xmlns:xlink="http://www.w3.org/1999/xlink">
 <defs>
  <style type="text/css">
   <![CDATA[
    .str0 {stroke:#4D94DB;stroke-width:2373.45}
    .fil0 {fill:#4D94DB}
   ]]>
  </style>
 </defs>
 <g id="Слой_x0020_1">
  <metadata id="CorelCorpID_0Corel-Layer"/>
  <path class="fil0 str0" d="M87375 2601c3,-13 3,-22 3,-31 0,-13 0,-25 0,-38 0,-22 0,-43 -3,-65 0,-16 0,-34 -3,-53 0,-3 0,-6 0,-9 -3,-10 -3,-19 -3,-32 -3,-12 -3,-24 -6,-34 0,-19 -7,-34 -10,-53 -3,-25 -6,-46 -12,-71 -3,-4 -3,-7 -3,-10 -3,-15 -10,-31 -16,-50 -6,-21 -12,-46 -22,-68 -3,-13 -6,-22 -9,-34 -6,-10 -9,-19 -12,-28 0,0 0,0 -3,0 -7,-19 -13,-41 -22,-60 -10,-18 -22,-40 -31,-59 -7,-9 -10,-22 -16,-31 -6,-9 -9,-15 -16,-25 -15,-28 -34,-56 -53,-81 -6,-9 -9,-19 -15,-28 -3,0 -3,0 -3,0 0,-3 0,-3 -3,-6 -16,-22 -35,-44 -53,-65 -13,-13 -22,-29 -35,-41 -6,-6 -9,-12 -15,-19 -9,-6 -19,-15 -28,-25 -19,-18 -34,-37 -56,-56 0,0 0,0 -3,-3 -7,-6 -16,-12 -25,-18 -3,-4 -6,-7 -10,-10 -6,-6 -12,-9 -15,-15 -6,-3 -10,-7 -13,-10 -12,-9 -25,-18 -37,-28 -12,-9 -28,-18 -41,-25 -21,-18 -46,-34 -71,-46 -16,-13 -34,-22 -53,-32 -22,-9 -41,-21 -59,-31 -10,-3 -19,-6 -28,-9 -3,-3 -10,-6 -16,-6 -9,-6 -15,-10 -25,-13 -18,-6 -34,-12 -53,-18 -18,-7 -37,-13 -56,-19 -9,-3 -22,-6 -31,-9 -12,-4 -25,-7 -37,-10 -25,-6 -50,-12 -75,-15 -13,-3 -28,-7 -41,-10 -6,0 -9,0 -12,-3 -25,-3 -47,-3 -69,-6 -21,-3 -40,-3 -62,-6 -9,0 -19,0 -25,0 -12,0 -22,0 -34,0 0,0 -3,0 -3,0 -22,0 -47,0 -69,0 -18,3 -34,3 -53,6 -12,0 -25,0 -37,3 -12,0 -25,3 -41,3 -15,3 -34,6 -52,10 -22,6 -44,9 -66,15 -3,0 -6,0 -9,0 -19,6 -38,13 -53,16 -25,6 -47,12 -69,21 -12,4 -21,10 -34,13 -3,0 -3,0 -6,3l-83501 32322c-520,199 -859,701 -859,1258 0,555 342,1053 863,1256l24893 9574 7977 24598c3,3 3,6 6,9 0,9 3,15 6,22 19,56 40,106 69,159 3,9 9,21 15,31 25,46 53,93 84,137 3,6 6,12 13,18 0,4 3,4 6,7 0,3 3,6 6,9 9,16 22,28 31,40 13,16 25,32 41,47 9,13 22,22 31,34 6,7 9,10 15,16 7,6 16,16 22,25 10,6 19,16 25,22 10,9 19,15 25,22 28,21 53,43 81,65 3,0 3,3 6,3 0,3 3,3 7,6 9,7 18,13 24,19 44,28 91,56 138,81 6,6 15,9 21,12 3,4 7,4 10,7 43,21 90,40 137,59 9,3 22,6 31,9 12,3 25,10 40,13 56,18 116,31 175,40 3,0 3,3 6,3 6,0 12,0 19,0 62,10 127,16 193,16 0,0 0,0 0,0l0 0c0,0 0,0 0,0 3,0 9,0 15,0 53,0 109,-6 165,-13 7,-3 16,-3 25,-3 10,-3 22,-6 35,-9 43,-6 84,-16 127,-28 13,-3 25,-6 41,-9 0,-4 3,-4 6,-4 6,-3 13,-6 19,-6 18,-9 40,-15 59,-25 28,-9 53,-18 78,-31 3,-3 6,-3 12,-6 0,0 3,0 7,-3 12,-6 24,-13 37,-19 25,-15 50,-28 75,-44 18,-9 34,-18 49,-31 0,0 0,0 0,0 7,-3 10,-6 16,-9 22,-16 44,-31 65,-50 13,-9 25,-19 38,-28 12,-12 25,-25 37,-34 10,-9 19,-19 28,-28 44,-41 81,-84 119,-128 3,-3 6,-6 9,-12 3,-3 6,-10 9,-16 3,-3 7,-6 10,-9l9842 -13300c443,-598 315,-1439 -283,-1882 -598,-442 -1439,-317 -1881,281l-4277 5778 3398 -9276 32166 12207c156,59 318,87 477,87 237,0 470,-59 679,-181 352,-205 592,-557 654,-959l9304 -60691c0,0 0,-3 0,-6 3,-22 6,-47 9,-69 0,-19 3,-40 3,-59zm-10509 4924l-38467 27937c-601,439 -735,1280 -299,1881 264,364 676,557 1093,557 274,0 551,-84 788,-258l36748 -26687 -34393 38616c-131,131 -240,293 -312,480 -12,31 -21,62 -31,93l-5712 15599 -6974 -21498c-128,-402 -430,-701 -795,-841 -3,0 -3,-3 -6,-3l-22233 -8550 70593 -27326zm-1218 53845l-30054 -11406 38417 -43136 -8363 54542z"/>
 </g>
</svg>
