<?xml version="1.0" encoding="UTF-8"?>
<!DOCTYPE svg PUBLIC "-//W3C//DTD SVG 1.1//EN" "http://www.w3.org/Graphics/SVG/1.1/DTD/svg11.dtd">
<!-- Creator: CorelDRAW X8 -->
<svg xmlns="http://www.w3.org/2000/svg" xml:space="preserve" width="5.9267mm" height="2.0674mm" version="1.1" style="shape-rendering:geometricPrecision; text-rendering:geometricPrecision; image-rendering:optimizeQuality; fill-rule:evenodd; clip-rule:evenodd"
viewBox="0 0 42334 14767"
 xmlns:xlink="http://www.w3.org/1999/xlink">
 <defs>
  <style type="text/css">
   <![CDATA[
    .fil0 {fill:black}
    .fil2 {fill:#ED2A11}
    .fil1 {fill:#FF7802}
   ]]>
  </style>
 </defs>
 <g id="Слой_x0020_1">
  <metadata id="CorelCorpID_0Corel-Layer"/>
  <g id="_1074733224">
   <path class="fil0" d="M4490 7592c-1073,0 -2111,0 -3124,0 -43,888 -64,1761 -135,2632 -62,773 -233,1531 -575,2262 -113,240 -248,399 -594,341 -17,-3 -40,10 -62,19 0,642 0,1280 0,1918 315,0 611,0 933,0 0,-434 0,-851 0,-1267 1132,0 2243,0 3377,0 0,430 0,846 0,1271 315,0 605,0 905,0 0,-649 0,-1289 0,-1947 -249,0 -479,0 -725,0 0,-1751 0,-3482 0,-5229zm-1011 5222c-701,0 -1394,0 -2045,0 174,-437 387,-866 516,-1312 259,-896 258,-1816 265,-2733 2,-141 0,-284 0,-439 424,0 834,0 1264,0 0,1484 0,2971 0,4484zm6728 -11000c-593,0 -1161,0 -1762,0 0,220 7,416 -1,613 -30,687 -55,1374 -341,2032 -70,162 -124,335 -397,300 0,365 0,713 0,1060 173,0 328,0 508,0 0,-238 0,-463 0,-689 645,0 1263,0 1910,0 0,239 0,464 0,686 180,0 333,0 480,0 0,-366 0,-715 0,-1064 -138,-4 -255,-10 -397,-16 0,-978 0,-1947 0,-2922zm-556 2923c-402,0 -780,0 -1188,0 516,-796 445,-1653 483,-2508 235,0 463,0 705,0 0,835 0,1662 0,2508zm-735 8208c-914,187 -1511,-66 -1771,-728 -201,-508 -193,-1034 -202,-1588 1001,0 1971,0 2981,0 -41,-462 -46,-913 -130,-1348 -105,-546 -316,-1070 -751,-1510 -387,-389 -850,-502 -1429,-345 -601,163 -968,541 -1214,989 -723,1314 -786,2667 -231,4032 166,412 448,771 917,1000 787,387 2059,253 2858,-305 -64,-155 -128,-313 -185,-450 -296,91 -563,195 -843,253zm-1523 -4475c141,-198 328,-359 642,-344 307,15 489,176 612,385 273,469 319,971 316,1492 -687,0 -1350,0 -2049,0 52,-552 150,-1069 479,-1533zm5059 -3181c247,-27 495,-96 727,-178 260,-90 267,-172 88,-364 -158,46 -310,101 -469,133 -442,90 -759,-9 -926,-287 -198,-327 -188,-677 -176,-1044 567,0 1112,0 1668,0 37,-548 -30,-1063 -378,-1530 -305,-410 -834,-476 -1254,-138 -158,125 -291,287 -384,450 -261,457 -360,949 -298,1448 39,309 124,624 256,915 191,430 634,648 1146,595zm-479 -3015c188,-233 499,-226 665,19 186,271 209,572 201,887 -405,0 -775,0 -1163,0 18,-330 81,-635 297,-906zm4462 2840c-194,0 -355,13 -513,-6 -58,-8 -120,-82 -156,-136 -278,-410 -550,-823 -825,-1236 -39,-60 -83,-115 -185,-178 -35,131 -95,262 -101,393 -13,382 -5,765 -5,1155 -191,0 -353,0 -534,0 0,-1090 0,-2181 0,-3290 177,0 340,0 527,0 0,470 0,930 0,1449 83,-80 126,-116 160,-156 304,-362 619,-718 903,-1090 128,-169 272,-245 508,-214 58,8 120,1 224,1 -56,73 -89,123 -129,170 -324,388 -642,778 -975,1161 -90,103 -85,177 -15,282 368,552 729,1107 1116,1695zm-9866 -1438c-343,0 -662,0 -1007,0 0,502 0,999 0,1509 -195,0 -363,0 -549,0 0,-1119 0,-2234 0,-3371 180,0 344,0 533,0 0,454 0,903 0,1367 348,0 672,0 1020,0 0,-454 0,-904 0,-1363 193,0 360,0 545,0 0,1123 0,2241 0,3369 -180,0 -348,0 -542,0 0,-505 0,-1003 0,-1511zm8232 4026c15,17 3,48 3,72 0,1863 0,3729 0,5594 0,54 -7,109 -11,175 -322,0 -632,0 -969,0 0,-894 0,-1782 0,-2698 -457,0 -890,0 -1322,0 -458,0 -458,0 -458,382 0,695 0,1385 0,2081 0,73 0,147 0,233 -331,0 -641,0 -965,0 0,-1987 0,-3965 0,-5953 315,0 620,0 953,0 0,813 0,1615 0,2434 617,0 1187,0 1786,0 0,-813 0,-1619 0,-2438 305,0 581,-5 856,6 45,2 91,69 127,112zm13202 -130c298,13 596,4 909,4 0,1999 0,3977 0,5969 -360,0 -710,0 -1088,0 0,-1303 0,-2606 0,-3916 -607,1316 -1207,2620 -1809,3920 -328,0 -628,0 -946,0 0,-1985 0,-3970 0,-5962 318,0 629,0 963,0 0,1232 0,2452 0,3674 17,2 30,6 46,7 168,-359 341,-718 507,-1077 380,-820 764,-1639 1137,-2462 55,-118 125,-163 281,-157zm-10972 -2879c-327,-436 -389,-917 -343,-1413 40,-433 166,-844 486,-1200 414,-460 1175,-547 1731,-182 -76,93 -144,181 -211,265 -23,4 -39,10 -52,6 -673,-181 -1078,-18 -1281,532 -152,403 -182,819 -95,1233 166,797 797,1072 1713,767 84,371 35,416 -397,518 -612,143 -1207,-70 -1551,-526zm1353 5036c-383,-30 -773,-6 -1187,-6 0,-707 0,-1421 0,-2134 -293,0 -558,0 -831,0 0,1964 0,3914 0,5932 615,0 1209,34 1796,-10 879,-66 1550,-415 1864,-1132 183,-415 186,-848 100,-1283 -162,-801 -770,-1287 -1742,-1367zm455 2267c-154,656 -825,963 -1634,773 0,-728 -4,-1445 7,-2162 0,-48 82,-125 142,-136 810,-172 1350,97 1490,773 50,242 53,508 -5,752zm2178 -4412c1200,0 2377,0 3568,0 0,197 0,387 0,599 -887,0 -1777,0 -2685,0 0,1799 0,3574 0,5361 -301,0 -583,0 -880,0 -3,-1982 -3,-3964 -3,-5960z"/>
   <path class="fil1" d="M42317 8035c-57,-324 -329,-517 -724,-521 -121,-3 -241,10 -359,-3 -234,-25 -294,53 -293,238 11,905 8,1810 4,2714 -3,473 -465,959 -1020,1083 -1725,379 -3449,763 -5175,1138 -194,43 -398,65 -596,63 -87,0 -205,-65 -242,-129 -25,-43 52,-146 111,-198 79,-63 179,-114 281,-150 316,-113 638,-215 959,-322 1280,-426 2564,-846 3844,-1275 577,-195 888,-580 898,-1066 29,-1573 14,-3147 7,-4721 0,-250 -130,-457 -425,-565 -342,-124 -642,-26 -940,115 -1813,866 -3625,1729 -5440,2593 -533,254 -830,622 -828,1147 6,1488 1,2973 3,4460 0,74 8,150 31,221 179,505 642,795 1282,795 1276,3 2557,1 3832,1 1273,0 2541,2 3813,-1 277,0 530,-58 738,-228 268,-216 254,-490 254,-764 2,-1450 2,-2897 0,-4349 2,-90 0,-185 -15,-276zm-5305 -465c128,-334 408,-542 836,-596 283,-36 530,139 570,394 62,394 -430,851 -916,849 -405,0 -630,-284 -490,-647z"/>
   <path class="fil2" d="M4034 4881l0 -4624c0,-256 -1,-255 -320,-256 -295,0 -587,1 -880,0 -415,-2 -758,128 -1040,376 -969,858 -714,2487 575,2835l-1315 1979c184,0 325,-10 463,2 183,16 277,-42 362,-179l1000 -1558c155,-238 173,-245 537,-175l0 1893 618 0 0 -293zm-635 -4393l0 2249c-420,-4 -859,100 -1178,-215 -367,-360 -472,-775 -336,-1232l44 -105c272,-627 632,-801 1470,-697z"/>
  </g>
 </g>
</svg>
