<?xml version="1.0" encoding="UTF-8"?>
<!DOCTYPE svg PUBLIC "-//W3C//DTD SVG 1.1//EN" "http://www.w3.org/Graphics/SVG/1.1/DTD/svg11.dtd">
<!-- Creator: CorelDRAW X8 -->
<svg xmlns="http://www.w3.org/2000/svg" xml:space="preserve" width="0.8174mm" height="1.1566mm" version="1.1" style="shape-rendering:geometricPrecision; text-rendering:geometricPrecision; image-rendering:optimizeQuality; fill-rule:evenodd; clip-rule:evenodd"
viewBox="0 0 1102 1560"
 xmlns:xlink="http://www.w3.org/1999/xlink">
 <defs>
  <style type="text/css">
   <![CDATA[
    .fil0 {fill:gray}
   ]]>
  </style>
 </defs>
 <g id="Слой_x0020_1">
  <metadata id="CorelCorpID_0Corel-Layer"/>
  <path class="fil0" d="M1090 1351l-142 -261c-29,-52 -95,-70 -149,-41l-132 71c-5,-5 -11,-11 -16,-17 -54,-54 -127,-129 -192,-249 -66,-120 -88,-222 -105,-296 -2,-8 -3,-16 -5,-23l88 -48 43 -24c54,-29 75,-95 47,-147l-142 -261c-28,-52 -95,-70 -149,-41l-74 40 2 2c-27,19 -51,42 -72,69 -19,26 -34,51 -45,78 -92,212 -51,444 142,798 266,490 579,551 593,553 29,6 59,7 90,4 33,-3 66,-10 96,-22l1 1 74 -39c54,-29 75,-95 47,-147z"/>
 </g>
</svg>
