<?xml version="1.0" encoding="UTF-8"?>
<!DOCTYPE svg PUBLIC "-//W3C//DTD SVG 1.1//EN" "http://www.w3.org/Graphics/SVG/1.1/DTD/svg11.dtd">
<!-- Creator: CorelDRAW X8 -->
<svg xmlns="http://www.w3.org/2000/svg" xml:space="preserve" width="22.7474mm" height="20.4077mm" version="1.1" style="shape-rendering:geometricPrecision; text-rendering:geometricPrecision; image-rendering:optimizeQuality; fill-rule:evenodd; clip-rule:evenodd"
viewBox="0 0 1705024 1529653"
 xmlns:xlink="http://www.w3.org/1999/xlink">
 <defs>
  <style type="text/css">
   <![CDATA[
    .fil11 {fill:#116BC4}
    .fil6 {fill:#356FA0}
    .fil7 {fill:#4D94DB}
    .fil4 {fill:#666666}
    .fil9 {fill:#6EC9CA}
    .fil3 {fill:#BABCBF}
    .fil8 {fill:#CCCCCC}
    .fil13 {fill:#DF9C00}
    .fil12 {fill:#E3BE4D}
    .fil10 {fill:#E6E6E6}
    .fil14 {fill:#FFDB71}
    .fil5 {fill:white}
    .fil2 {fill:white}
    .fil1 {fill:#3F464D;fill-rule:nonzero}
    .fil17 {fill:#666666;fill-rule:nonzero}
    .fil15 {fill:gray;fill-rule:nonzero}
    .fil0 {fill:#D4D4D4;fill-rule:nonzero}
    .fil16 {fill:#FFDB71;fill-rule:nonzero}
   ]]>
  </style>
 </defs>
 <g id="Слой_x0020_1">
  <metadata id="CorelCorpID_0Corel-Layer"/>
  <path class="fil0" d="M1159879 1427924c0,52409 -67564,84002 -176766,92659 -70562,5599 -167089,9070 -272782,9070 -105694,0 -202228,-3471 -272783,-9070 -109194,-8657 -176773,-40250 -176773,-92659 0,-29577 16535,-51876 46862,-66994l-207670 0c-27276,0 -52221,-11168 -70412,-29285l-533 -555c-17951,-18161 -29022,-42994 -29022,-70120l0 -814877c0,-27374 11213,-52296 29292,-70420l263 -270c18124,-18064 42994,-29292 70412,-29292l875628 0 0 -224310c0,-33399 13657,-63779 35694,-85838l1311 -1304c21962,-21422 51907,-34659 84797,-34659l457733 0c16010,0 31661,3350 46277,9377 7600,3125 14804,6993 21497,11483 20470,7106 38444,19481 52273,35468 18589,21520 29847,49336 29847,79527l0 286072c0,33603 -13671,64109 -35693,86131 -22044,22044 -52513,35701 -86123,35701l-187424 0 0 717211c0,27269 -11168,52214 -29292,70405l-548 532c-18161,17952 -42994,29023 -70127,29023l-182995 0c30432,15133 47057,37447 47057,66994zm-449548 -41764c26421,0 52153,-210 76926,-623l-18949 -72383c-2661,-7503 -4115,-15561 -4115,-23971 0,-39613 32133,-71746 71747,-71746l416351 0 0 -720907c30,-18364 7015,-36705 21032,-50714l23303 -23311c13065,-13710 31511,-22239 51929,-22239l212969 0 0 -248505c-4925,-2174 -9647,-4932 -14062,-8260l-428373 0 0 262469c652,3867 989,7840 989,11895 0,39613 -32126,71747 -71747,71747l-904838 0 0 727825 437533 0 0 224c5929,0 11933,750 17937,2309 38219,9894 61185,48938 51284,87150l-20538 78358c25905,457 52881,682 80622,682zm408450 -979681c128,1484 53,368 -30,-847l30 847z"/>
  <path class="fil1" d="M1119036 1456887c0,16572 -169143,29989 -377809,29989 -208644,0 -377802,-13417 -377802,-29989 0,-12060 89826,-22457 219280,-27216l24615 -93948 4610 -17570 -481067 0c-15590,0 -28213,-12630 -28213,-28220l0 -84654 0 -730216c0,-15591 12623,-28236 28213,-28236l1195858 0c15590,0 28220,12645 28220,28236l0 730216 0 84654c0,15590 -12630,28220 -28220,28220l-459877 0 29179 111375c131478,4693 223013,15186 223013,27359z"/>
  <path class="fil2" d="M498591 1436754c0,-8875 6619,-16355 15426,-17427l34007 -4160 34089 -130099 252747 0 34090 130099 33999 4160c8815,1072 15433,8552 15433,17427l-419791 0z"/>
  <polygon class="fil3" points="576424,1306760 582113,1285068 834853,1285068 840542,1306760 "/>
  <path class="fil4" d="M71739 1176301l0 -730216c0,-15583 12630,-28228 28228,-28228l1195850 0c15598,0 28220,12645 28220,28228l0 730216 -1252298 0z"/>
  <path class="fil2" d="M1295817 1289183l-1195850 0c-15598,0 -28228,-12630 -28228,-28213l0 -84669 1252298 0 0 84669c0,15583 -12622,28213 -28220,28213z"/>
  <polygon class="fil5" points="110543,467253 1285233,467253 1285233,1126906 110543,1126906 "/>
  <polygon class="fil6" points="110543,1068277 1285233,1068277 1285233,1126906 110543,1126906 "/>
  <polygon class="fil7" points="224557,590171 546457,590171 546457,787272 224557,787272 "/>
  <path class="fil8" d="M459847 681840l-23311 -23303 0 -26946c0,-4872 -3957,-8807 -8837,-8807 -4872,0 -8807,3935 -8807,8807l0 9294 -17367 -17344c-8575,-8598 -23491,-8575 -32058,0l-58300 58299c-3441,3441 -3441,9032 0,12465 3448,3448 9024,3448 12480,0l58285 -58284c1903,-1904 5254,-1904 7128,-15l58315 58299c1724,1739 3972,2579 6236,2579 2256,0 4505,-855 6236,-2579 3440,-3433 3440,-9017 0,-12465zm-71274 -29090c-1694,-1701 -4453,-1701 -6132,0l-51269 51262c-817,802 -1281,1904 -1281,3058l0 37388c0,8769 7128,15897 15897,15897l25388 0 0 -39313 28655 0 0 39313 25409 0c8755,0 15853,-7128 15853,-15897l0 -37388c0,-1154 -427,-2256 -1251,-3058l-51269 -51262z"/>
  <polygon class="fil7" points="572099,590171 894000,590171 894000,787272 572099,787272 "/>
  <polygon class="fil9" points="919642,590171 1241542,590171 1241542,787272 919642,787272 "/>
  <polygon class="fil7" points="224557,807382 546457,807382 546457,1004483 224557,1004483 "/>
  <polygon class="fil7" points="572099,807382 894000,807382 894000,1004483 572099,1004483 "/>
  <polygon class="fil7" points="919642,807382 1241542,807382 1241542,1004483 919642,1004483 "/>
  <path class="fil2" d="M807389 899052l-23310 -23304 0 -26946c0,-4872 -3958,-8807 -8838,-8807 -4864,0 -8807,3935 -8807,8807l0 9294 -17367 -17344c-8575,-8598 -23491,-8575 -32058,0l-58300 58300c-3440,3440 -3440,9024 0,12465 3448,3447 9032,3447 12480,0l58285 -58285c1904,-1904 5254,-1904 7128,-15l58315 58300c1724,1738 3980,2578 6236,2578 2256,0 4505,-855 6236,-2578 3441,-3441 3441,-9018 0,-12465zm-71274 -29090c-1686,-1702 -4445,-1702 -6131,0l-51269 51261c-817,802 -1282,1904 -1282,3058l0 37388c0,8769 7128,15898 15898,15898l25387 0 0 -39314 28655 0 0 39314 25410 0c8755,0 15853,-7129 15853,-15898l0 -37388c0,-1154 -427,-2256 -1252,-3058l-51269 -51261z"/>
  <path class="fil2" d="M1154932 899052l-23311 -23304 0 -26946c0,-4872 -3958,-8807 -8837,-8807 -4865,0 -8807,3935 -8807,8807l0 9294 -17360 -17344c-8582,-8598 -23498,-8575 -32065,0l-58300 58300c-3433,3440 -3433,9024 0,12465 3448,3447 9032,3447 12480,0l58292 -58285c1896,-1904 5247,-1904 7121,-15l58314 58300c1732,1738 3981,2578 6237,2578 2256,0 4512,-855 6236,-2578 3440,-3441 3440,-9018 0,-12465zm-71275 -29090c-1686,-1702 -4444,-1702 -6123,0l-51277 51261c-817,802 -1282,1904 -1282,3058l0 37388c0,8769 7129,15898 15898,15898l25387 0 0 -39314 28656 0 0 39314 25409 0c8755,0 15853,-7129 15853,-15898l0 -37388c0,-1154 -427,-2256 -1244,-3058l-51277 -51261z"/>
  <path class="fil10" d="M807389 681840l-23310 -23303 0 -26946c0,-4872 -3958,-8807 -8838,-8807 -4864,0 -8807,3935 -8807,8807l0 9294 -17367 -17344c-8575,-8598 -23491,-8575 -32058,0l-58300 58299c-3440,3441 -3440,9032 0,12465 3448,3448 9032,3448 12480,0l58285 -58284c1904,-1904 5254,-1904 7128,-15l58315 58299c1724,1739 3980,2579 6236,2579 2256,0 4505,-855 6236,-2579 3441,-3433 3441,-9017 0,-12465zm-71274 -29090c-1686,-1701 -4445,-1701 -6131,0l-51269 51262c-817,802 -1282,1904 -1282,3058l0 37388c0,8769 7128,15897 15898,15897l25387 0 0 -39313 28655 0 0 39313 25410 0c8755,0 15853,-7128 15853,-15897l0 -37388c0,-1154 -427,-2256 -1252,-3058l-51269 -51262z"/>
  <path class="fil2" d="M459847 899052l-23311 -23304 0 -26946c0,-4872 -3957,-8807 -8837,-8807 -4872,0 -8807,3935 -8807,8807l0 9294 -17367 -17344c-8575,-8598 -23491,-8575 -32058,0l-58300 58300c-3441,3440 -3441,9024 0,12465 3448,3447 9024,3447 12480,0l58285 -58285c1903,-1904 5254,-1904 7128,-15l58315 58300c1724,1738 3972,2578 6236,2578 2256,0 4505,-855 6236,-2578 3440,-3441 3440,-9018 0,-12465zm-71274 -29090c-1694,-1702 -4453,-1702 -6132,0l-51269 51261c-817,802 -1281,1904 -1281,3058l0 37388c0,8769 7128,15898 15897,15898l25388 0 0 -39314 28655 0 0 39314 25409 0c8755,0 15853,-7129 15853,-15898l0 -37388c0,-1154 -427,-2256 -1251,-3058l-51269 -51261z"/>
  <path class="fil11" d="M1154932 688122l-23311 -23304 0 -26946c0,-4872 -3958,-8807 -8837,-8807 -4865,0 -8807,3935 -8807,8807l0 9294 -17360 -17344c-8582,-8598 -23498,-8575 -32065,0l-58300 58300c-3433,3440 -3433,9032 0,12465 3448,3447 9032,3447 12480,0l58292 -58285c1896,-1904 5247,-1904 7121,-15l58314 58300c1732,1738 3981,2578 6237,2578 2256,0 4512,-855 6236,-2578 3440,-3433 3440,-9018 0,-12465zm-71275 -29090c-1686,-1702 -4444,-1702 -6123,0l-51277 51261c-817,802 -1282,1904 -1282,3058l0 37388c0,8769 7129,15898 15898,15898l25387 0 0 -39314 28656 0 0 39314 25409 0c8755,0 15853,-7129 15853,-15898l0 -37388c0,-1154 -427,-2256 -1244,-3058l-51277 -51261z"/>
  <polygon class="fil12" points="919252,787272 1243671,787272 1243671,589826 1081476,710585 919252,589826 "/>
  <polygon class="fil13" points="919252,787272 1243671,787272 1111061,688556 1051877,688556 1051877,688549 "/>
  <polygon class="fil14" points="1243671,589826 1081476,710585 919252,589826 "/>
  <polygon class="fil15" points="250506,560339 250506,518724 233469,518724 233469,560339 221963,560339 221963,508335 261862,508335 261862,560339 "/>
  <path id="1" class="fil15" d="M311991 525073c0,2338 -472,4512 -1424,6498 -944,1994 -2226,3710 -3845,5157 -1619,1447 -3523,2579 -5719,3403 -2189,817 -4527,1229 -7023,1229l-10157 0 0 18979 -11505 0 0 -52004 21444 0c2736,0 5225,390 7466,1162 2241,772 4160,1881 5756,3321 1597,1446 2826,3200 3696,5269 877,2069 1311,4400 1311,6986zm-11655 -225c0,-2091 -622,-3651 -1866,-4670 -1252,-1019 -3014,-1529 -5307,-1529l-9340 0 0 12405 9640 0c1888,0 3507,-562 4857,-1686 1341,-1117 2016,-2624 2016,-4520z"/>
  <path id="2" class="fil15" d="M335752 507960c3141,0 5966,518 8477,1537 2519,1019 4663,2429 6432,4220 1768,1791 3125,3935 4070,6424 944,2488 1416,5179 1416,8072l0 12255c0,3088 -479,5884 -1454,8403 -974,2518 -2338,4654 -4107,6423 -1769,1769 -3913,3126 -6432,4070 -2511,952 -5314,1425 -8402,1425 -3388,0 -6341,-548 -8852,-1642 -2519,-1102 -4610,-2578 -6274,-4452 -1671,-1867 -2916,-4033 -3740,-6499 -817,-2466 -1229,-5044 -1229,-7728l0 -12255c0,-2691 412,-5254 1229,-7698 824,-2443 2069,-4594 3740,-6461 1664,-1866 3755,-3350 6274,-4445 2511,-1094 5464,-1649 8852,-1649zm-112 10764c-1455,0 -2699,232 -3748,712 -1057,472 -1926,1102 -2624,1904 -704,794 -1236,1701 -1581,2728 -352,1020 -525,2054 -525,3096l0 14121c0,1147 173,2241 525,3291 345,1042 877,1964 1581,2766 698,794 1567,1439 2624,1941 1049,495 2293,742 3748,742 2803,0 4969,-832 6491,-2503 1529,-1664 2286,-3748 2286,-6237l0 -14121c0,-2286 -757,-4273 -2286,-5937 -1522,-1671 -3688,-2503 -6491,-2503z"/>
  <path id="3" class="fil15" d="M408151 508335l0 41765 5307 0 0 22269 -9565 0 0 -12030 -33549 0 0 12030 -9640 0 0 -21594 5682 -1192c899,-802 1642,-1657 2241,-2579 600,-922 1095,-2091 1492,-3515 397,-1417 712,-3201 937,-5337 225,-2143 434,-4857 637,-8147l1117 -21670 35341 0zm-11356 10389l-14196 0 -675 12030c-97,1589 -195,3283 -300,5075 -97,1799 -270,3552 -517,5269 -255,1724 -585,3365 -1012,4932 -420,1566 -1012,2931 -1754,4070l18454 0 0 -31376z"/>
  <path id="4" class="fil15" d="M452831 560339l-3882 -10606 -17412 0 -3883 10606 -12105 0 20170 -52004 9047 0 20170 52004 -12105 0zm-9414 -26302l-3066 -10306 -292 0 -2991 10156 -1941 6132 10231 0 -1941 -5982z"/>
  <polygon id="5" class="fil15" points="507451,560339 507451,535611 507226,535536 502519,546067 499003,553390 490189,553390 486531,545693 481974,535536 481749,535761 481749,560339 470243,560339 470243,508335 480639,508335 487678,523431 494409,539044 494708,539044 501222,523431 508110,508335 518956,508335 518956,560339 "/>
  <path id="6" class="fil15" d="M579325 533513c2091,704 3725,1948 4894,3740 1170,1791 2107,3935 2804,6423l5007 16663 -11731 0 -3965 -13222c-547,-1694 -1169,-3081 -1866,-4153 -697,-1064 -1454,-1889 -2279,-2466 -824,-569 -1694,-952 -2616,-1154 -922,-202 -1881,-300 -2878,-300l-5524 0 0 21295 -11506 0 0 -52079 11506 0 0 20845 5157 0c794,0 1656,-75 2571,-225 922,-142 1806,-479 2653,-1004 847,-525 1649,-1282 2391,-2279 750,-997 1372,-2368 1874,-4107l4182 -13005 11131 0 -4707 15171c-697,2436 -1641,4490 -2841,6161 -1192,1672 -2586,2826 -4182,3478l-75 218z"/>
  <path id="7" class="fil15" d="M638202 544876c0,2338 -435,4452 -1312,6348 -869,1889 -2039,3508 -3508,4857 -1469,1342 -3193,2391 -5157,3133 -1971,750 -4047,1125 -6236,1125l-23686 0 0 -52004 21887 0c2743,0 5179,360 7323,1087 2144,720 3950,1732 5419,3028 1470,1289 2579,2849 3328,4670 742,1814 1117,3793 1117,5936 0,1889 -494,3786 -1491,5682 -997,1889 -2669,3380 -5007,4482l0 293c1191,449 2241,1101 3133,1948 899,847 1656,1792 2278,2834 630,1049 1102,2143 1425,3290 322,1147 487,2241 487,3291zm-13005 -21295c0,-1447 -495,-2631 -1492,-3553 -996,-922 -2690,-1379 -5081,-1379l-8815 0 0 10381 8815 0c2391,0 4085,-547 5081,-1641 997,-1095 1492,-2369 1492,-3808zm1199 20770c0,-750 -127,-1469 -374,-2166 -248,-697 -653,-1319 -1200,-1867 -547,-554 -1251,-989 -2128,-1311 -870,-323 -1904,-488 -3096,-488l-9789 0 0 11506 9789 0c2436,0 4182,-570 5224,-1716 1050,-1147 1574,-2466 1574,-3958z"/>
  <path id="8" class="fil15" d="M677800 560339l-3882 -10606 -17412 0 -3883 10606 -12105 0 20170 -52004 9047 0 20170 52004 -12105 0zm-9414 -26302l-3066 -10306 -292 0 -2991 10156 -1941 6132 10231 0 -1941 -5982z"/>
  <path id="9" class="fil15" d="M734886 525073c0,2338 -472,4512 -1424,6498 -945,1994 -2227,3710 -3846,5157 -1619,1447 -3522,2579 -5719,3403 -2188,817 -4527,1229 -7023,1229l-10156 0 0 18979 -11506 0 0 -52004 21445 0c2736,0 5224,390 7465,1162 2241,772 4160,1881 5757,3321 1596,1446 2826,3200 3695,5269 877,2069 1312,4400 1312,6986zm-11656 -225c0,-2091 -622,-3651 -1866,-4670 -1252,-1019 -3013,-1529 -5307,-1529l-9339 0 0 12405 9639 0c1889,0 3508,-562 4857,-1686 1342,-1117 2016,-2624 2016,-4520z"/>
  <polygon id="10" class="fil15" points="761787,518649 761787,560339 750281,560339 750281,518649 736085,518649 736085,508335 775983,508335 775983,518649 "/>
  <polygon id="11" class="fil15" points="782332,560339 782332,508335 793838,508335 793838,540911 794063,540911 804744,524248 815649,508335 825139,508335 825139,560339 813633,560339 813633,528880 813408,528880 805793,541210 792563,560339 "/>
  <path id="12" class="fil15" d="M874976 525073c0,2338 -472,4512 -1424,6498 -944,1994 -2226,3710 -3845,5157 -1619,1447 -3523,2579 -5719,3403 -2189,817 -4528,1229 -7024,1229l-10156 0 0 18979 -11505 0 0 -52004 21444 0c2736,0 5224,390 7466,1162 2241,772 4160,1881 5756,3321 1597,1446 2826,3200 3695,5269 877,2069 1312,4400 1312,6986zm-11655 -225c0,-2091 -622,-3651 -1867,-4670 -1251,-1019 -3013,-1529 -5307,-1529l-9339 0 0 12405 9639 0c1889,0 3508,-562 4857,-1686 1342,-1117 2017,-2624 2017,-4520z"/>
  <path id="13" class="fil15" d="M883791 552191l4115 0c1147,0 2001,-247 2578,-742 570,-502 1057,-1169 1454,-2016l450 -975 -15913 -40123 12548 0 4557 14047 4115 12555 367 0 3740 -12255 4408 -14347 12180 0 -13897 37807c-1049,2789 -2046,5172 -2990,7136 -945,1971 -1994,3575 -3141,4820 -1147,1244 -2436,2143 -3883,2691 -1446,547 -3185,817 -5232,817l-5456 0 0 -9415z"/>
  <path class="fil1" d="M1633278 421935c0,27651 -22419,50070 -50070,50070l-234646 0 -107470 107470c-5082,5089 -12734,6611 -19375,3852 -6634,-2750 -10974,-9227 -10974,-16415l0 -94907 -85268 0c-27644,0 -50063,-22419 -50063,-50070l0 -286087c0,-27636 22419,-50055 50063,-50055l457733 0c27651,0 50070,22419 50070,50055l0 286087z"/>
  <path class="fil16" d="M1605200 407896c0,27651 -22412,50070 -50070,50070l-234638 0 -107470 107462c-5082,5097 -12735,6619 -19376,3853 -6634,-2751 -10973,-9227 -10973,-16415l0 -94900 -85269 0c-27643,0 -50062,-22419 -50062,-50070l0 -286087c0,-27636 22419,-50055 50062,-50055l457726 0c27658,0 50070,22419 50070,50055l0 286087z"/>
  <path class="fil17" d="M1240448 229039c2091,705 3725,1949 4894,3740 1170,1792 2106,3935 2804,6424l5007 16662 -11731 0 -3965 -13222c-547,-1694 -1169,-3080 -1866,-4152 -697,-1065 -1454,-1889 -2279,-2466 -824,-570 -1694,-952 -2616,-1154 -922,-203 -1881,-300 -2878,-300l-5524 0 0 21294 -11506 0 0 -52078 11506 0 0 20845 5157 0c794,0 1656,-75 2570,-225 922,-143 1807,-480 2654,-1005 847,-524 1649,-1281 2391,-2278 749,-997 1372,-2369 1874,-4108l4182 -13004 11131 0 -4707 15171c-697,2436 -1642,4489 -2841,6161 -1192,1671 -2586,2826 -4182,3478l-75 217z"/>
  <path id="1" class="fil17" d="M1262409 247718l4115 0c1147,0 2002,-248 2579,-742 570,-502 1057,-1170 1454,-2017l450 -974 -15913 -40123 12547 0 4558 14046 4115 12555 367 0 3740 -12255 4407 -14346 12181 0 -13897 37807c-1049,2788 -2046,5172 -2991,7136 -944,1971 -1994,3575 -3140,4819 -1147,1244 -2436,2144 -3883,2691 -1447,547 -3186,817 -5232,817l-5457 0 0 -9414z"/>
  <polygon id="2" class="fil17" points="1332050,255865 1332050,214250 1315013,214250 1315013,255865 1303507,255865 1303507,203862 1343405,203862 1343405,255865 "/>
  <path id="3" class="fil17" d="M1393910 203862l0 52003 -11363 0 0 -41615 -12173 0 0 12405c0,3981 -202,7766 -599,11356 -413,3583 -1260,6746 -2564,9489 -1312,2736 -3178,4940 -5629,6611 -2451,1664 -5757,2579 -9887,2729l-1574 -9340c2242,-449 4003,-1214 5270,-2278 1274,-1072 2218,-2459 2840,-4153 623,-1694 1020,-3672 1192,-5936 180,-2264 263,-4872 263,-7810l0 -23461 34224 0z"/>
  <path id="4" class="fil17" d="M1441049 203487c3343,0 6229,517 8672,1537 2436,1019 4453,2428 6049,4220 1597,1791 2781,3935 3553,6423 772,2489 1154,5180 1154,8073l0 12255c0,3088 -450,5884 -1341,8402 -900,2519 -2182,4655 -3853,6424 -1664,1769 -3718,3125 -6161,4070 -2444,952 -5210,1424 -8298,1424 -3380,0 -6296,-547 -8740,-1641 -2436,-1102 -4444,-2579 -6011,-4453 -1574,-1866 -2728,-4032 -3478,-6498 -742,-2466 -1117,-5045 -1117,-7728l0 -1349 -5381 0 0 21219 -11506 0 0 -52003 11506 0 0 20845 5381 0 0 -967c0,-2691 383,-5255 1155,-7698 772,-2444 1956,-4595 3552,-6461 1589,-1867 3621,-3351 6087,-4445 2466,-1094 5389,-1649 8777,-1649zm-187 10763c-1455,0 -2676,233 -3673,713 -1005,472 -1814,1101 -2436,1903 -637,795 -1087,1702 -1357,2729 -277,1019 -412,2054 -412,3095l0 14122c0,1147 135,2241 412,3290 270,1042 705,1964 1319,2766 592,795 1379,1439 2361,1942 975,494 2182,742 3643,742 2796,0 4842,-832 6109,-2504 1282,-1664 1919,-3748 1919,-6236l0 -14122c0,-2286 -622,-4272 -1882,-5936 -1244,-1672 -3245,-2504 -6003,-2504z"/>
  <path id="5" class="fil17" d="M1181871 316833c2091,705 3725,1949 4894,3741 1169,1791 2106,3935 2803,6423l5007 16663 -11730 0 -3965 -13222c-547,-1694 -1169,-3081 -1866,-4153 -698,-1064 -1455,-1889 -2279,-2466 -825,-569 -1694,-952 -2616,-1154 -922,-202 -1881,-300 -2878,-300l-5524 0 0 21295 -11506 0 0 -52079 11506 0 0 20845 5156 0c795,0 1657,-75 2571,-225 922,-142 1807,-479 2654,-1004 847,-525 1649,-1282 2391,-2279 749,-997 1372,-2368 1874,-4107l4182 -13005 11131 0 -4707 15171c-697,2436 -1642,4490 -2841,6161 -1192,1672 -2586,2826 -4182,3478l-75 217z"/>
  <path id="6" class="fil17" d="M1240748 328197c0,2338 -435,4452 -1312,6348 -870,1889 -2039,3508 -3508,4857 -1469,1342 -3193,2391 -5157,3133 -1971,750 -4048,1125 -6236,1125l-23686 0 0 -52004 21887 0c2743,0 5179,360 7323,1087 2144,720 3950,1732 5419,3028 1469,1289 2579,2848 3328,4670 742,1814 1117,3793 1117,5936 0,1889 -495,3786 -1492,5682 -996,1889 -2668,3380 -5007,4482l0 292c1192,450 2242,1102 3134,1949 899,847 1656,1792 2278,2834 630,1049 1102,2143 1424,3290 323,1147 488,2241 488,3291zm-13005 -21295c0,-1447 -495,-2631 -1492,-3553 -997,-922 -2691,-1379 -5082,-1379l-8814 0 0 10381 8814 0c2391,0 4085,-547 5082,-1641 997,-1095 1492,-2369 1492,-3808zm1199 20770c0,-750 -127,-1469 -375,-2166 -247,-697 -652,-1319 -1199,-1867 -547,-554 -1252,-989 -2129,-1311 -869,-323 -1903,-488 -3095,-488l-9789 0 0 11506 9789 0c2436,0 4182,-570 5224,-1716 1049,-1147 1574,-2466 1574,-3958z"/>
  <path id="7" class="fil17" d="M1280346 343660l-3883 -10606 -17412 0 -3882 10606 -12105 0 20170 -52004 9047 0 20170 52004 -12105 0zm-9414 -26302l-3066 -10306 -292 0 -2991 10156 -1941 6132 10231 0 -1941 -5982z"/>
  <path id="8" class="fil17" d="M1337432 308394c0,2338 -473,4512 -1425,6498 -944,1994 -2226,3710 -3845,5157 -1619,1447 -3523,2578 -5719,3403 -2188,817 -4527,1229 -7023,1229l-10156 0 0 18979 -11506 0 0 -52004 21445 0c2735,0 5224,390 7465,1162 2241,772 4160,1881 5757,3320 1596,1447 2825,3201 3695,5270 877,2069 1312,4400 1312,6986zm-11656 -225c0,-2092 -622,-3651 -1866,-4670 -1252,-1019 -3013,-1529 -5307,-1529l-9339 0 0 12405 9639 0c1889,0 3508,-562 4857,-1687 1342,-1116 2016,-2623 2016,-4519z"/>
  <polygon id="9" class="fil17" points="1364333,301970 1364333,343660 1352827,343660 1352827,301970 1338631,301970 1338631,291656 1378529,291656 1378529,301970 "/>
  <polygon id="10" class="fil17" points="1384878,343660 1384878,291656 1396383,291656 1396383,324232 1396608,324232 1407289,307569 1418195,291656 1427685,291656 1427685,343660 1416179,343660 1416179,312201 1415954,312201 1408339,324531 1395109,343660 "/>
  <path id="11" class="fil17" d="M1477522 308394c0,2338 -472,4512 -1424,6498 -945,1994 -2226,3710 -3845,5157 -1619,1447 -3523,2578 -5719,3403 -2189,817 -4528,1229 -7024,1229l-10156 0 0 18979 -11506 0 0 -52004 21445 0c2736,0 5224,390 7465,1162 2242,772 4160,1881 5757,3320 1596,1447 2826,3201 3695,5270 877,2069 1312,4400 1312,6986zm-11656 -225c0,-2092 -622,-3651 -1866,-4670 -1252,-1019 -3013,-1529 -5307,-1529l-9339 0 0 12405 9639 0c1889,0 3508,-562 4857,-1687 1342,-1116 2016,-2623 2016,-4519z"/>
  <path id="12" class="fil17" d="M1486337 335512l4115 0c1146,0 2001,-247 2578,-742 570,-502 1057,-1169 1454,-2016l450 -975 -15913 -40123 12547 0 4558 14047 4115 12555 367 0 3740 -12255 4408 -14347 12180 0 -13897 37807c-1049,2789 -2046,5172 -2991,7136 -944,1971 -1993,3575 -3140,4820 -1147,1244 -2436,2143 -3883,2690 -1447,548 -3185,818 -5232,818l-5456 0 0 -9415z"/>
 </g>
</svg>
