<?xml version="1.0" encoding="UTF-8"?>
<!DOCTYPE svg PUBLIC "-//W3C//DTD SVG 1.1//EN" "http://www.w3.org/Graphics/SVG/1.1/DTD/svg11.dtd">
<!-- Creator: CorelDRAW X8 -->
<svg xmlns="http://www.w3.org/2000/svg" xml:space="preserve" width="12.6018mm" height="20.6054mm" version="1.1" style="shape-rendering:geometricPrecision; text-rendering:geometricPrecision; image-rendering:optimizeQuality; fill-rule:evenodd; clip-rule:evenodd"
viewBox="0 0 307530 502847"
 xmlns:xlink="http://www.w3.org/1999/xlink">
 <defs>
  <style type="text/css">
   <![CDATA[
    .fil5 {fill:none;fill-rule:nonzero}
    .fil8 {fill:#999999}
    .fil4 {fill:#4D4D4D;fill-rule:nonzero}
    .fil3 {fill:#666666;fill-rule:nonzero}
    .fil9 {fill:#98C483;fill-rule:nonzero}
    .fil1 {fill:#999999;fill-rule:nonzero}
    .fil7 {fill:#B3B3B3;fill-rule:nonzero}
    .fil10 {fill:#D65E6B;fill-rule:nonzero}
    .fil6 {fill:#DBDADA;fill-rule:nonzero}
    .fil0 {fill:#E6E6E6;fill-rule:nonzero}
    .fil11 {fill:white;fill-rule:nonzero}
    .fil2 {fill:white;fill-rule:nonzero}
   ]]>
  </style>
    <clipPath id="id0" style="clip-rule:nonzero">
     <path d="M261590 410582c0,3323 315,6796 -2924,6796l-204795 0c-3238,0 -8021,-3473 -8021,-6796l0 -342752c0,-3324 4783,-5337 8021,-5337l204795 0c3239,0 2924,2013 2924,5337l0 342752z"/>
    </clipPath>
     <clipPath id="id1" style="clip-rule:nonzero">
      <path d="M217976 173708c0,34389 -27879,62268 -62269,62268 -34389,0 -62265,-27879 -62265,-62268 0,-34388 27876,-62266 62265,-62266 34390,0 62269,27878 62269,62266z"/>
     </clipPath>
 </defs>
 <g id="Слой_x0020_1">
  <metadata id="CorelCorpID_0Corel-Layer"/>
  <g id="_787645112">
   <path class="fil0" d="M299460 11326c5498,6437 8070,13937 8070,23032l0 433606c0,8376 -2228,15702 -6975,21978l-109 0c-6460,8507 -15133,12905 -26298,12905l-236396 0c-6869,0 -16186,-2489 -23071,-7348 -8541,-6008 -14681,-15079 -14681,-27535l0 -433606c0,-11646 5203,-20101 12861,-25973 788,-651 1625,-1269 2504,-1842 6972,-4552 15972,-6543 22387,-6543l236396 0c10342,0 18618,3536 25312,11326zm-64389 44724l-179021 0 0 390747 195430 0 0 -8244c-10418,-4053 -17798,-14178 -17798,-26022l-7 -1947 -110 0c0,-114431 -810,-229136 7,-343528 0,-236 10,-253 27,-175l-51 -1882c51,-3077 559,-6096 1523,-8949z"/>
   <path class="fil1" d="M288717 46943c0,-4512 -1628,-6333 -5356,-6333l-236396 0c-3724,0 -9727,1821 -9727,6333l0 433604c0,4507 6003,6857 9727,6857l236396 0c3728,0 5356,-2355 5356,-6857l0 -433604zm-17929 30641l0 208 0 82c39,730 17,1575 17,2538l0 331975 0 10780 5 1947c70,-1262 44,-2597 44,-3790l0 0 0 -341512c0,-1281 34,-1925 -66,-2228z"/>
   <g>
    <path class="fil2" d="M279502 34365c0,-4519 -1623,-6340 -5354,-6340l-236388 0c-3734,0 -9740,1821 -9740,6340l0 433582c0,4522 6006,6875 9740,6875l236388 0c3731,0 5354,-2353 5354,-6875l0 -433582zm-17870 374369l0 0c0,3629 261,8644 -2958,8644l-203512 0c-3214,0 -9268,-5015 -9268,-8644l0 -341502c0,-3631 6054,-2187 9268,-2187l203512 0c3219,0 2958,-1444 2958,2187l0 341502z"/>
   </g>
   <g>
    <path class="fil1" d="M165591 45259c0,1967 -864,5745 -1930,5745l-33768 0c-1066,0 -1930,-3778 -1930,-5745 0,-1964 864,-5745 1930,-5745l33768 0c1066,0 1930,3781 1930,5745z"/>
    <path class="fil1" d="M179098 45259c0,1967 -864,5745 -1928,5745l-5788 0c-1069,0 -1933,-3778 -1933,-5745 0,-1964 864,-5745 1933,-5745l5788 0c1064,0 1928,3781 1928,5745z"/>
   </g>
   <path class="fil3" d="M261590 410582c0,3323 315,6796 -2924,6796l-204795 0c-3238,0 -8021,-3473 -8021,-6796l0 -342752c0,-3324 4783,-5337 8021,-5337l204795 0c3239,0 2924,2013 2924,5337l0 342752z"/>
   <g style="clip-path:url(#id0)">
    <g>
     <path id="1" class="fil4" d="M261595 410582c0,3323 159,6796 -1459,6796l-102362 0c-1617,0 -4007,-3473 -4007,-6796l0 -342752c0,-3324 2390,-5337 4007,-5337l102362 0c1618,0 1459,2013 1459,5337l0 342752z"/>
    </g>
   </g>
   <path class="fil5" d="M261590 410582c0,3323 315,6796 -2924,6796l-204795 0c-3238,0 -8021,-3473 -8021,-6796l0 -342752c0,-3324 4783,-5337 8021,-5337l204795 0c3239,0 2924,2013 2924,5337l0 342752z"/>
   <polygon class="fil6" points="261605,417668 45898,417668 45898,399795 261605,399795 "/>
   <path class="fil7" d="M169525 447839c0,8773 -7116,15889 -15894,15889 -8776,0 -15892,-7116 -15892,-15889 0,-8776 7116,-15892 15892,-15892 8778,0 15894,7116 15894,15892z"/>
   <polygon class="fil6" points="261590,77811 45850,77811 45850,62493 261590,62493 "/>
   <polygon class="fil7" points="261588,77811 153621,77811 153621,62493 261588,62493 "/>
   <path class="fil8" d="M153636 431957l0 31771c5671,0 10659,-2977 13466,-7463 1500,-2394 2386,-5215 2423,-8243 0,-66 0,-125 0,-191 0,-8765 -7116,-15882 -15889,-15874z"/>
   <g>
    <g>
     <polygon class="fil9" points="130811,343147 126055,345919 126055,340372 "/>
     <polygon class="fil9" points="138056,343147 133298,345919 133298,340372 "/>
     <polygon class="fil9" points="144694,343147 139938,345919 139938,340372 "/>
    </g>
    <path class="fil9" d="M122121 341675c0,10880 -8820,19702 -19701,19702 -10879,0 -19701,-8822 -19701,-19702 0,-10881 8822,-19701 19701,-19701 10881,0 19701,8820 19701,19701z"/>
    <g>
     <path class="fil2" d="M105434 346166l-720 666c-828,454 -1655,-359 -3146,-2089l-3141 -4471c-634,-1159 -1166,-2345 -376,-2999l652 -383 -4498 -6530 -617 534c-1008,969 -3370,5347 2672,14186 6265,9180 11531,8712 12827,7990l820 -442 -4473 -6462z"/>
     <path class="fil2" d="M110998 350985l-3683 -5256c-281,-408 -832,-495 -1235,-217l-722 722 4473 6435 944 -444c430,-302 491,-852 223,-1240z"/>
     <path class="fil2" d="M99794 335299l-3683 -5254c-280,-410 -832,-498 -1234,-217l-672 532 4498 6530 869 -351c429,-301 490,-850 222,-1240z"/>
    </g>
    <g>
     <polygon class="fil10" points="176226,343147 180982,340372 180982,345919 "/>
     <polygon class="fil10" points="168981,343147 173739,340372 173739,345919 "/>
     <polygon class="fil10" points="162343,343147 167099,340372 167099,345919 "/>
    </g>
    <path class="fil10" d="M224738 341675c0,10880 -8822,19702 -19701,19702 -10882,0 -19701,-8822 -19701,-19702 0,-10881 8819,-19701 19701,-19701 10879,0 19701,8820 19701,19701z"/>
    <g>
     <path class="fil2" d="M199615 344177l-105 -976c129,-933 1273,-1111 3553,-1277l5461 147c1311,183 2580,461 2633,1486l-83 752 7924 288 -61 -815c-175,-1387 -2279,-5894 -12978,-6319 -11103,-449 -13871,4056 -14063,5528l-135 920 7854 266z"/>
     <path class="fil2" d="M192428 345768l6415 181c496,19 896,-371 911,-862l-149 -1010 -7831 -249 -208 1022c-12,525 391,901 862,918z"/>
     <path class="fil2" d="M211699 346134l6416 181c495,19 896,-371 910,-862l-27 -856 -7924 -288 -236 907c-12,523 390,901 861,918z"/>
    </g>
   </g>
   <g>
    <path class="fil11" d="M152042 287531c847,0 1496,647 1496,1479 0,832 -649,1481 -1496,1481 -815,0 -1481,-649 -1481,-1481 0,-832 666,-1479 1481,-1479z"/>
    <path class="fil11" d="M155517 287531c849,0 1499,647 1499,1479 0,832 -650,1481 -1499,1481 -815,0 -1479,-649 -1479,-1481 0,-832 664,-1479 1479,-1479z"/>
    <path class="fil11" d="M158995 287531c849,0 1496,647 1496,1479 0,832 -647,1481 -1496,1481 -815,0 -1482,-649 -1482,-1481 0,-832 667,-1479 1482,-1479z"/>
   </g>
   <g>
    <path class="fil11" d="M217976 173708c0,34389 -27879,62268 -62269,62268 -34389,0 -62265,-27879 -62265,-62268 0,-34388 27876,-62266 62265,-62266 34390,0 62269,27878 62269,62266z"/>
    <g style="clip-path:url(#id1)">
     <g>
      <path id="1" class="fil8" d="M157042 183950c12861,0 23323,-11575 23323,-25802 0,-14225 -10464,-25800 -23323,-25800 -12858,0 -23322,11575 -23322,25800 0,14230 10464,25802 23322,25802z"/>
      <path class="fil8" d="M183908 180565c-1359,-295 -2757,298 -3487,1481 -8344,13515 -21797,13906 -23303,13906 -1506,0 -14957,-391 -23298,-13901 -732,-1186 -2135,-1779 -3495,-1481 -18115,3987 -22890,31329 -21480,53532 110,1728 1542,3072 3273,3072l90003 0c1730,0 3162,-1344 3270,-3072 1413,-22227 -3363,-49584 -21483,-53537z"/>
     </g>
    </g>
    <path class="fil5" d="M217976 173708c0,34389 -27879,62268 -62269,62268 -34389,0 -62265,-27879 -62265,-62268 0,-34388 27876,-62266 62265,-62266 34390,0 62269,27878 62269,62266z"/>
   </g>
   <path class="fil2" d="M93127 255147c-954,-629 -1921,-1068 -2895,-1317 -976,-249 -1876,-374 -2699,-374 -1388,0 -2374,276 -2960,830 -585,552 -878,1230 -878,2033 0,476 102,871 310,1186 205,315 537,586 986,812 453,230 1029,423 1722,586 689,164 1523,332 2495,505 822,152 1637,352 2433,601 802,249 1513,617 2140,1105 629,488 1127,1118 1508,1887 378,771 569,1740 569,2911 0,1105 -227,2086 -684,2943 -454,857 -1074,1576 -1852,2162 -781,586 -1686,1030 -2716,1333 -1030,305 -2121,456 -3268,456 -1496,0 -3031,-222 -4602,-666 -1572,-444 -3031,-1264 -4373,-2455l2372 -3058c976,910 2040,1554 3187,1935 1149,378 2352,569 3611,569 1257,0 2270,-259 3041,-781 769,-520 1154,-1289 1154,-2309 0,-910 -341,-1598 -1025,-2064 -683,-466 -1718,-808 -3106,-1025 -976,-130 -1935,-308 -2877,-537 -945,-227 -1784,-574 -2521,-1040 -737,-466 -1328,-1091 -1772,-1869 -444,-781 -666,-1801 -666,-3058 0,-1127 215,-2108 654,-2943 439,-835 1020,-1528 1740,-2082 722,-551 1540,-963 2467,-1234 920,-271 1869,-408 2846,-408 1452,0 2813,164 4080,488 1269,325 2445,867 3529,1625l-1950 3253z"/>
   <path id="1" class="fil2" d="M115595 257066c0,910 -178,1779 -534,2601 -359,825 -864,1550 -1513,2179 -652,630 -1430,1133 -2343,1513 -910,379 -1918,569 -3024,569l-5171 0 0 8683 -3934 0 0 -22635 8813 0c1061,0 2059,152 2991,457 933,302 1753,746 2455,1332 706,586 1260,1323 1660,2211 400,888 600,1918 600,3090zm-4031 -98c0,-1171 -347,-2033 -1040,-2584 -695,-554 -1606,-830 -2733,-830l-4781 0 0 6796 4910 0c1150,0 2045,-336 2685,-1008 639,-671 959,-1464 959,-2374z"/>
   <path id="2" class="fil2" d="M130816 272611l-1789 -5008 -8390 0 -1821 5008 -4129 0 8551 -22635 3188 0 8553 22635 -4163 0zm-4454 -12944l-1496 -4649 -97 0 -1465 4551 -1527 4683 6081 0 -1496 -4585z"/>
   <polygon id="3" class="fil2" points="136670,265748 136670,262400 147012,262400 147012,265748 "/>
   <path id="4" class="fil2" d="M162589 270431c-781,759 -1647,1345 -2601,1758 -954,412 -1984,617 -3090,617 -976,0 -1908,-156 -2796,-471 -889,-315 -1674,-803 -2358,-1464 -683,-662 -1225,-1513 -1625,-2553 -403,-1039 -603,-2287 -603,-3741 0,-1452 213,-2699 635,-3739 422,-1039 981,-1896 1674,-2569 695,-671 1496,-1159 2406,-1462 913,-305 1845,-456 2797,-456 2147,0 3980,759 5498,2276l-2375 2570c-954,-998 -1974,-1496 -3057,-1496 -1235,0 -2180,388 -2829,1169 -651,781 -976,2018 -976,3707 0,1672 320,2894 959,3675 640,781 1577,1172 2814,1172 542,0 1083,-142 1625,-423 542,-283 1040,-651 1496,-1105l2406 2535z"/>
   <path id="5" class="fil2" d="M171111 256351c910,0 1767,80 2570,244 800,163 1505,449 2113,861 608,412 1089,959 1447,1642 357,684 537,1545 537,2585l0 10928 -3675 0 0 -1430c0,0 -22,-13 -66,-35 -432,564 -1035,977 -1803,1238 -772,258 -1567,390 -2392,390 -1713,0 -3067,-417 -4066,-1252 -995,-834 -1496,-2033 -1496,-3594 0,-649 120,-1269 359,-1855 239,-583 586,-1098 1040,-1545 456,-444 1025,-795 1708,-1056 683,-259 1469,-391 2357,-391l4359 0 0 -1169c0,-305 -49,-598 -146,-878 -98,-283 -266,-525 -506,-732 -236,-205 -563,-374 -973,-503 -413,-132 -933,-195 -1562,-195 -888,0 -1638,112 -2245,341 -606,227 -1138,557 -1594,991l-1950 -2472c781,-781 1691,-1328 2731,-1642 1042,-315 2126,-471 3253,-471zm-3351 11316c0,239 49,478 147,717 97,237 261,449 488,632 227,186 520,337 878,456 359,120 808,179 1350,179 412,0 813,-37 1203,-113 391,-75 742,-200 1057,-376 315,-173 581,-400 798,-680 215,-283 346,-640 390,-1074 20,-129 32,-293 32,-488 0,-195 0,-542 0,-1040l-3741 0c-932,0 -1599,173 -1999,520 -402,347 -603,769 -603,1267z"/>
   <path id="6" class="fil2" d="M186493 259701l0 4129c0,2948 -449,5167 -1350,6650 -898,1486 -2465,2304 -4698,2455 -109,-454 -217,-910 -327,-1364 -107,-456 -214,-913 -324,-1366 673,-196 1225,-418 1659,-667 435,-249 781,-607 1040,-1073 261,-467 439,-1074 537,-1821 97,-749 146,-1696 146,-2845l0 -7285 11675 0 0 16097 -3675 0 0 -12910 -4683 0z"/>
   <path id="7" class="fil2" d="M205452 256319c1215,0 2304,232 3268,698 966,466 1740,1132 2325,2001 413,627 715,1393 910,2291 196,901 284,1904 262,3009 0,1235 -93,2292 -276,3170 -186,879 -461,1643 -830,2294 -630,1018 -1474,1782 -2538,2292 -1061,510 -2233,764 -3512,764 -1212,0 -2298,-205 -3250,-618 -954,-412 -1725,-1052 -2311,-1918 -888,-1323 -1311,-3231 -1267,-5725 0,-866 59,-1689 178,-2470 120,-781 330,-1474 635,-2081 564,-1194 1403,-2109 2521,-2748 1115,-639 2411,-959 3885,-959zm-147 3316c-629,0 -1198,164 -1696,488 -505,325 -883,769 -1149,1333 -195,434 -329,910 -408,1432 -75,520 -124,1094 -144,1723 0,627 32,1203 98,1723 64,520 193,976 388,1367 244,563 603,1003 1079,1315 483,315 1037,473 1669,473 700,0 1318,-190 1864,-571 545,-378 940,-959 1177,-1737 109,-305 185,-683 229,-1140 42,-454 63,-1030 63,-1723 0,-1256 -139,-2201 -422,-2828 -244,-630 -607,-1096 -1093,-1401 -495,-302 -1042,-454 -1655,-454z"/>
   <polygon id="8" class="fil2" points="225485,272611 225485,265944 219111,265944 219111,272611 215435,272611 215435,256514 219111,256514 219111,263049 225485,263049 225485,256514 229094,256514 229094,272611 "/>
  </g>
 </g>
</svg>
