<?xml version="1.0" encoding="UTF-8"?>
<!DOCTYPE svg PUBLIC "-//W3C//DTD SVG 1.1//EN" "http://www.w3.org/Graphics/SVG/1.1/DTD/svg11.dtd">
<!-- Creator: CorelDRAW X8 -->
<svg xmlns="http://www.w3.org/2000/svg" xml:space="preserve" width="14.8311mm" height="22.0264mm" version="1.1" style="shape-rendering:geometricPrecision; text-rendering:geometricPrecision; image-rendering:optimizeQuality; fill-rule:evenodd; clip-rule:evenodd"
viewBox="0 0 453836 674014"
 xmlns:xlink="http://www.w3.org/1999/xlink">
 <defs>
  <style type="text/css">
   <![CDATA[
    .str0 {stroke:#B281D6;stroke-width:2331.74}
    .fil7 {fill:none;fill-rule:nonzero}
    .fil17 {fill:#999999}
    .fil19 {fill:#B281D6}
    .fil18 {fill:#B3B3B3}
    .fil20 {fill:#C19ADE}
    .fil21 {fill:white}
    .fil4 {fill:#003E62;fill-rule:nonzero}
    .fil1 {fill:#4D4D4D;fill-rule:nonzero}
    .fil2 {fill:#999999;fill-rule:nonzero}
    .fil11 {fill:#B281D6;fill-rule:nonzero}
    .fil8 {fill:#B3B3B3;fill-rule:nonzero}
    .fil0 {fill:#D0D0D0;fill-rule:nonzero}
    .fil13 {fill:#DBDADA;fill-rule:nonzero}
    .fil6 {fill:#E6E6E6;fill-rule:nonzero}
    .fil10 {fill:#EBEBEB;fill-rule:nonzero}
    .fil12 {fill:#F1F566;fill-rule:nonzero}
    .fil3 {fill:#F9BD9C;fill-rule:nonzero}
    .fil9 {fill:#FFC8A5;fill-rule:nonzero}
    .fil16 {fill:#FFD0D4;fill-rule:nonzero}
    .fil14 {fill:#FFF0F2;fill-rule:nonzero}
    .fil5 {fill:white;fill-rule:nonzero}
    .fil15 {fill:#FFF0F2;fill-rule:nonzero;fill-opacity:0.600000}
   ]]>
  </style>
    <clipPath id="id0" style="clip-rule:nonzero">
     <path d="M301333 439555c0,2717 257,5554 -2390,5554l-167386 0c-2647,0 -6555,-2837 -6555,-5554l0 -280146c0,-2714 3908,-4360 6555,-4360l167386 0c2647,0 2390,1646 2390,4360l0 280146z"/>
    </clipPath>
     <clipPath id="id1" style="clip-rule:nonzero">
      <rect x="60763" y="518513" width="101168" height="98661"/>
     </clipPath>
 </defs>
 <g id="Слой_x0020_1">
  <metadata id="CorelCorpID_0Corel-Layer"/>
  <g id="_1050322360">
   <path class="fil0" d="M235136 549584c-5322,7512 -10986,13994 -16809,19587 -1916,2767 -4838,7072 -8128,12179l-284 2886 -8155 58443c-2445,17467 -17289,31044 -35460,31332 -263,3 -64055,361 -108172,-11191 -3381,542 -6888,609 -10453,144 -19893,-2595 -33926,-20835 -31331,-40729 12,-79 3892,-26998 8984,-47084l0 -46075c0,-6282 1588,-12197 4391,-17354 -1815,-5765 -3320,-11765 -4425,-17986 -2922,-16390 11169,-6971 -5187,-9474l4251 -90626c927,-19676 9474,-32559 17451,-39949 1861,-2604 3987,-5122 6325,-7549 2923,-6557 6696,-14694 11078,-23372 4639,-9208 9981,-19064 15780,-28474l0 -151673c0,-15879 7822,-26907 18838,-34064 8054,-5255 18305,-7568 25572,-7568l193217 0c12540,0 22632,4318 30958,14021l-70 64 70 80c6729,7898 9872,16812 9872,27467l0 354388c0,9829 -2718,18522 -8452,26126l-89 -70 -49 70c-8036,10579 -18651,15949 -32240,15949l-70641 0c-2206,3697 -4489,7197 -6842,10502z"/>
   <path class="fil1" d="M143570 499488l306 -257c3418,-2950 6858,-6686 10190,-11380 3547,-4988 6974,-11172 10129,-18758 5814,-13987 19345,-22433 33608,-22445l49502 -52c-1560,-3522 -2570,-7338 -2937,-11347 -199,-1539 -303,-3112 -303,-4703l0 -276226 -117995 0 0 130994c0,8388 -2837,16117 -7598,22274 -5863,8831 -11411,18951 -16160,28360 -5251,10404 -9498,19930 -12151,26121 -2390,5615 -6029,10318 -10453,13923l-842 805c-2739,4400 -5058,14853 -6356,29186 -1475,16175 -850,35548 2724,55647 1034,5832 2579,10952 4409,15392 1873,4553 4242,8865 6791,12827 10648,16589 6120,38572 -10028,49643l0 20732c0,3990 -646,7827 -1830,11423 -2390,8724 -4465,19342 -5903,27516 7595,2129 25646,-2005 42091,-6766l2169 -15551c-1291,-2821 -2246,-5857 -2793,-9064 -1595,-9367 532,-18501 5318,-25891 5392,-9489 11261,-18654 15823,-25523 2271,-6469 6377,-12369 12234,-16837l55 -43z"/>
   <path class="fil2" d="M202647 547090c11757,-9532 23253,-23874 32216,-45389l92982 0c3045,0 4376,-1922 4376,-5618l0 -354388c0,-3694 -1331,-5178 -4376,-5178l-193216 0c-3045,0 -7956,1484 -7956,5178l0 162270c-14575,21383 -27176,49116 -32917,62513 -3032,2616 -5474,5092 -7099,7363 -12323,17246 -18871,64233 -10251,112703 2971,16711 9373,30595 16472,41608l-15869 0 0 50723c-5273,18495 -9407,47133 -9407,47133 3874,12133 113356,10759 113356,10759l8152 -58440c-1365,887 -3427,1539 -6029,1980 10270,-18403 23055,-36203 23055,-36203 -1136,1086 -2304,2083 -3489,2986zm-174816 -99607c-4566,-1808 -9667,-4715 -11426,-9587 -40,-101 -190,-43 -156,55 1625,4817 6796,8391 11484,9835 171,46 260,-239 98,-303zm289748 -280641l0 382 0 135 0 1114 0 575 0 8161 0 265020 0 6965 6 1368c49,-967 28,-1971 28,-2874l0 0 0 -279129c0,-915 21,-1439 -34,-1717z"/>
   <path class="fil3" d="M128824 555524c0,0 83331,13204 103037,-112622 0,0 -11404,-66341 -29722,-88514 -18317,-22173 -139702,-6885 -127386,94809 12320,101697 15089,88193 54071,106327z"/>
   <path class="fil3" d="M189893 534468c0,0 -25698,35774 -33498,58318 -7803,22540 -78891,14740 -89295,5202 -10404,-9538 6965,-61140 17354,-74350 10389,-13213 69762,44943 105439,10830z"/>
   <path class="fil3" d="M74209 364780c0,0 38489,-97410 69643,-99108l-42452 109741 -27191 -10633z"/>
   <g>
    <path class="fil4" d="M315975 132056c0,-3691 -1325,-5181 -4375,-5181l-193214 0c-3050,0 -7959,1490 -7959,5181l0 354388c0,3693 4909,5618 7959,5618l193214 0c3050,0 4375,-1925 4375,-5618l0 -354388zm-14608 305990l0 0c0,2965 214,7063 -2414,7063l-166341 0c-2628,0 -7576,-4098 -7576,-7063l0 -279126c0,-2966 4948,-1784 7576,-1784l166341 0c2628,0 2414,-1182 2414,1784l0 279126z"/>
   </g>
   <g>
    <path class="fil2" d="M222871 140960c0,1610 -707,4697 -1579,4697l-27598 0c-872,0 -1579,-3087 -1579,-4697 0,-1606 707,-4694 1579,-4694l27598 0c872,0 1579,3088 1579,4694z"/>
    <path class="fil2" d="M233912 140960c0,1610 -707,4697 -1576,4697l-4731 0c-875,0 -1582,-3087 -1582,-4697 0,-1606 707,-4694 1582,-4694l4731 0c869,0 1576,3088 1576,4694z"/>
   </g>
   <path class="fil5" d="M301333 439555c0,2717 257,5554 -2390,5554l-167386 0c-2647,0 -6555,-2837 -6555,-5554l0 -280146c0,-2714 3908,-4360 6555,-4360l167386 0c2647,0 2390,1646 2390,4360l0 280146z"/>
   <g style="clip-path:url(#id0)">
    <g>
     <path id="1" class="fil6" d="M301339 439555c0,2717 129,5554 -1193,5554l-83664 0c-1322,0 -3278,-2837 -3278,-5554l0 -280146c0,-2714 1956,-4360 3278,-4360l83664 0c1322,0 1193,1646 1193,4360l0 280146z"/>
    </g>
   </g>
   <path class="fil7" d="M301333 439555c0,2717 257,5554 -2390,5554l-167386 0c-2647,0 -6555,-2837 -6555,-5554l0 -280146c0,-2714 3908,-4360 6555,-4360l167386 0c2647,0 2390,1646 2390,4360l0 280146z"/>
   <polygon class="fil4" points="301333,447196 118741,447196 118741,432590 301333,432590 "/>
   <path class="fil8" d="M226084 470005c0,7173 -5814,12990 -12990,12990 -7172,0 -12990,-5817 -12990,-12990 0,-7170 5818,-12987 12990,-12987 7176,0 12990,5817 12990,12987z"/>
   <g>
    <g style="clip-path:url(#id1)">
     <image x="60763" y="518516" width="101165" height="98658" xlink:href="viber_Images\viber_ImgID1.png"/>
    </g>
    <g>
     <path class="fil9" d="M138757 573501c3084,-7240 5915,-14703 9581,-21671 1282,-2436 2436,-4896 3748,-7365 -30070,-4918 -60432,-29986 -67632,-20827 -10389,13210 -27758,64812 -17357,74350 6680,6123 38361,11527 62260,8653 719,-11441 4856,-22485 9400,-33140z"/>
    </g>
   </g>
   <g>
    <path class="fil5" d="M63893 560019c0,0 94237,18204 108974,8669l-8155 58437c0,0 -109478,1377 -113352,-10756 0,0 5863,-40622 12533,-56350z"/>
   </g>
   <g>
    <g>
     <polygon class="fil10 str0" points="131958,318573 134739,317053 137521,315535 137521,318573 137521,321606 134739,320088 "/>
     <path class="fil11" d="M137521 313035c0,-692 425,-1478 1634,-1478l58951 0c1206,0 2020,786 2020,1478l0 11261c0,688 -814,823 -2020,823l-58951 0c-1209,0 -1634,-135 -1634,-823l0 -11261z"/>
    </g>
    <g>
     <polygon class="fil10" points="131958,340483 134739,338965 137521,337448 137521,340483 137521,343519 134739,342001 "/>
     <path class="fil11" d="M137521 334495c0,-692 771,-1028 2484,-1028l83815 0c1713,0 4476,336 4476,1028l0 11258c0,691 -2763,1279 -4476,1279l-83815 0c-1713,0 -2484,-588 -2484,-1279l0 -11258z"/>
    </g>
    <g>
     <path class="fil11" d="M193865 208397c0,1077 -875,1949 -1952,1949l-52440 0c-1077,0 -1952,-872 -1952,-1949l0 -18011c0,-1077 875,-1949 1952,-1949l52440 0c1077,0 1952,872 1952,1949l0 18011z"/>
     <polygon class="fil11" points="131958,199306 134739,197788 137521,196270 137521,199306 137521,202341 134739,200824 "/>
    </g>
    <g>
     <g>
      <path class="fil12" d="M285684 302303c0,1074 -875,1949 -1952,1949l-52440 0c-1080,0 -1952,-875 -1952,-1949l0 -18011c0,-1077 872,-1952 1952,-1952l52440 0c1077,0 1952,875 1952,1952l0 18011z"/>
      <polygon class="fil12" points="290271,293555 287979,295072 285684,296590 285684,293555 285684,290519 287979,292040 "/>
     </g>
     <g>
      <path class="fil8" d="M285684 302303c0,1074 -875,1949 -1952,1949l-52440 0c-1080,0 -1952,-875 -1952,-1949l0 -18011c0,-1077 872,-1952 1952,-1952l52440 0c1077,0 1952,875 1952,1952l0 18011z"/>
      <polygon class="fil8" points="290271,293555 287979,295072 285684,296590 285684,293555 285684,290519 287979,292040 "/>
     </g>
    </g>
    <g>
     <path class="fil11" d="M233514 230549c0,691 -1353,1710 -3192,1710l-89861 0c-1839,0 -2940,-1019 -2940,-1710l0 -11258c0,-692 1101,-1640 2940,-1640l89861 0c1839,0 3192,948 3192,1640l0 11258z"/>
     <polygon class="fil11" points="131958,224667 134739,223149 137521,221632 137521,224667 137521,227703 134739,226185 "/>
    </g>
    <g>
     <path class="fil8" d="M187604 240855c0,-692 1490,-1295 3330,-1295l89860 0c1839,0 3847,603 3847,1295l0 11258c0,691 -2008,1013 -3847,1013l-89860 0c-1840,0 -3330,-322 -3330,-1013l0 -11258z"/>
     <polygon class="fil8" points="289298,246736 286969,248254 284641,249772 284641,246736 284641,243701 286969,245218 "/>
    </g>
    <g>
     <polygon class="fil10" points="135088,404129 137870,402611 140651,401093 140651,404129 140651,407164 137870,405647 "/>
     <path class="fil11" d="M139608 398872c0,-692 394,-1757 1621,-1757l60222 0c1230,0 3892,1065 3892,1757l0 11257c0,692 -2662,1592 -3892,1592l-60222 0c-1227,0 -1621,-900 -1621,-1592l0 -11257z"/>
    </g>
    <g>
     <path class="fil8" d="M187604 262315c0,-692 1490,-842 3330,-842l89860 0c1839,0 3847,150 3847,842l0 11258c0,691 -2008,1465 -3847,1465l-89860 0c-1840,0 -3330,-774 -3330,-1465l0 -11258z"/>
     <polygon class="fil8" points="289828,268062 287236,269683 284641,271308 284641,268062 284641,264815 287236,266437 "/>
    </g>
    <g>
     <path class="fil8" d="M264815 355952c0,-692 343,-1616 704,-1616l17736 0c361,0 1386,924 1386,1616l0 11261c0,691 -1025,685 -1386,685l-17736 0c-361,0 -704,6 -704,-685l0 -11261z"/>
     <polygon class="fil8" points="289828,360921 287236,362546 284641,364168 284641,360921 284641,357674 287236,359299 "/>
    </g>
    <g>
     <path class="fil8" d="M217862 377412c0,-692 1147,-1166 2374,-1166l60222 0c1233,0 4183,474 4183,1166l0 11257c0,692 -2950,1142 -4183,1142l-60222 0c-1227,0 -2374,-450 -2374,-1142l0 -11257z"/>
     <polygon class="fil8" points="289828,382834 287236,384456 284641,386081 284641,382834 284641,379584 287236,381209 "/>
    </g>
   </g>
   <g>
    <path class="fil9" d="M106183 550006c0,0 -37394,-24633 -46020,-73101 -8623,-48470 -2071,-95457 10248,-112704 12320,-17243 71602,-46099 78992,-59649 7390,-13552 28449,-8295 30857,6488 2411,14783 -33235,57932 -49251,65325 -16013,7390 -24226,13409 -24226,26387 0,12980 4623,18801 17228,33733 12604,14933 27751,53438 28981,65702 1230,12262 8623,74754 -46809,47819z"/>
   </g>
   <polygon class="fil13" points="301333,167567 125002,167567 125002,155049 301333,155049 "/>
   <path class="fil14" d="M135829 316869c0,0 3298,9994 7313,10796 4015,801 19676,-10349 20478,-12791 804,-2442 -9272,-13305 -8660,-14297 615,-991 -14967,13461 -19131,16292z"/>
   <path class="fil15" d="M112367 389881c-4091,-434 -8265,-4207 -9247,-8198 -46,-183 -318,-79 -276,101 903,3893 5297,8507 9511,8437 193,-3 205,-318 12,-340z"/>
   <path class="fil15" d="M11585 437844c-4565,-1811 -9666,-4715 -11426,-9590 -37,-98 -187,-43 -153,58 1622,4817 6793,8394 11484,9832 172,52 261,-236 95,-300z"/>
   <path class="fil15" d="M84028 374327c-3935,-3097 -6713,-7555 -7980,-12387 -34,-125 -221,-55 -193,74 1178,4871 3908,9544 7962,12564 169,122 377,-119 211,-251z"/>
   <path class="fil15" d="M78790 375762c-2317,-2500 -4679,-4994 -4835,-8595 -6,-104 -165,-89 -162,15 104,3556 2380,6389 4865,8733 98,92 220,-61 132,-153z"/>
   <path class="fil15" d="M75329 379569c-802,-814 -1732,-1466 -2381,-2424 -101,-146 -330,13 -229,160 679,960 1627,1627 2472,2426 101,95 233,-67 138,-162z"/>
   <path class="fil16" d="M135893 451908c-1607,-994 -3412,-1983 -5312,-2794 1355,410 2723,872 4118,1371 212,74 361,-236 150,-318 -6475,-2457 -12788,-4440 -19611,-2087 -212,73 -92,376 119,321 1484,-410 2922,-645 4333,-756 -952,239 -1885,591 -2782,1105 -220,129 -21,508 205,395 6448,-3180 12739,440 18630,3078 211,95 336,-199 150,-315z"/>
   <path class="fil15" d="M134201 452392c-2920,-2045 -7580,-4893 -11313,-3624 -190,65 -123,392 76,346 3755,-835 7916,1689 10903,3669 3014,2001 6864,5013 7797,8697 21,76 144,46 135,-31 -426,-3883 -4673,-7013 -7598,-9057z"/>
   <path class="fil15" d="M149547 478090c-2295,-4688 -7277,-7559 -11549,-10224 -211,-135 -444,230 -236,367 4236,2742 8844,5566 11476,10019 101,168 394,15 309,-162z"/>
   <path class="fil15" d="M153938 491162c-1640,-315 -3020,-1695 -4397,-2601 -1215,-799 -2491,-1493 -3795,-2139 -2904,-1438 -6022,-2319 -9192,-2944 -306,-61 -383,407 -83,475 3397,759 6650,1851 9759,3421 1781,899 3494,1977 5113,3133 817,585 1508,1001 2524,1065 261,15 340,-358 71,-410z"/>
   <path class="fil15" d="M103481 555343c-1824,-1102 -3657,-2179 -5557,-3146 -43,-21 -73,46 -34,65 1907,957 3743,2025 5573,3118 24,12 39,-25 18,-37z"/>
   <path class="fil15" d="M124715 557990c-6910,-835 -14474,-1961 -19725,-6952 -184,-175 -435,125 -251,296 5269,5019 12950,6295 19923,6962 196,18 251,-281 53,-306z"/>
   <path class="fil15" d="M125063 561111c-4883,-416 -9541,-970 -13859,-3485 -208,-123 -367,217 -162,340 4342,2539 9018,3176 13966,3470 205,9 266,-306 55,-325z"/>
   <polygon class="fil8" points="301333,167567 213085,167567 213085,155049 301333,155049 "/>
   <path class="fil17" d="M213097 457027l0 25968c4636,0 8712,-2433 11007,-6102 1227,-1955 1949,-4262 1980,-6735 0,-55 0,-104 0,-156 0,-7167 -5814,-12981 -12987,-12975z"/>
   <g>
    <path class="fil18" d="M390285 42268c36947,2280 65359,28510 63459,58597 -1141,18060 -12950,33400 -30202,42286l8005 23070 -22066 -17623c-8112,2215 -16925,3176 -26075,2610 -36943,-2276 -65356,-28510 -63459,-58593 1901,-30086 33394,-52623 70338,-50347z"/>
    <path class="fil19" d="M323690 159c-36947,-2280 -68438,20264 -70338,50344 -1138,18066 8651,34737 24649,45671l-10842 21909 24110 -14776c7772,3194 16395,5229 25542,5795 36947,2277 68437,-20263 70338,-50349 1900,-30081 -26512,-56317 -63459,-58594z"/>
    <path class="fil20" d="M323690 159c-36947,-2280 -68438,20264 -70338,50344 -28,434 -43,863 -61,1294l133757 8247c39,-429 73,-860 101,-1291 1900,-30081 -26512,-56317 -63459,-58594z"/>
    <g>
     <path class="fil21" d="M290384 62452c4994,309 9309,-3286 9609,-7999 297,-4712 -3534,-8807 -8528,-9116 -4991,-306 -9309,3287 -9606,7999 -297,4713 3535,8810 8525,9116z"/>
     <path class="fil21" d="M319644 64258c4994,306 9309,-3287 9606,-7999 297,-4713 -3531,-8810 -8525,-9116 -4994,-309 -9312,3283 -9609,7996 -297,4712 3534,8809 8528,9119z"/>
     <path class="fil21" d="M348904 66060c4994,309 9309,-3287 9606,-7999 297,-4712 -3531,-8807 -8525,-9116 -4994,-306 -9309,3287 -9609,7999 -297,4713 3534,8810 8528,9116z"/>
    </g>
   </g>
  </g>
 </g>
</svg>
