<?xml version="1.0" encoding="UTF-8"?>
<!DOCTYPE svg PUBLIC "-//W3C//DTD SVG 1.1//EN" "http://www.w3.org/Graphics/SVG/1.1/DTD/svg11.dtd">
<!-- Creator: CorelDRAW X8 -->
<svg xmlns="http://www.w3.org/2000/svg" xml:space="preserve" width="11.878mm" height="20.7583mm" version="1.1" style="shape-rendering:geometricPrecision; text-rendering:geometricPrecision; image-rendering:optimizeQuality; fill-rule:evenodd; clip-rule:evenodd"
viewBox="0 0 270593 472896"
 xmlns:xlink="http://www.w3.org/1999/xlink">
 <defs>
  <style type="text/css">
   <![CDATA[
    .fil10 {fill:none;fill-rule:nonzero}
    .fil19 {fill:#999999}
    .fil21 {fill:white}
    .fil7 {fill:#003E62;fill-rule:nonzero}
    .fil14 {fill:#98C483;fill-rule:nonzero}
    .fil1 {fill:#999999;fill-rule:nonzero}
    .fil12 {fill:#B3B3B3;fill-rule:nonzero}
    .fil20 {fill:#B4DEA0;fill-rule:nonzero}
    .fil0 {fill:#CCCCCC;fill-rule:nonzero}
    .fil11 {fill:#DBDADA;fill-rule:nonzero}
    .fil9 {fill:#E6E6E6;fill-rule:nonzero}
    .fil16 {fill:#E6E6E6;fill-rule:nonzero}
    .fil13 {fill:#EBEBEB;fill-rule:nonzero}
    .fil4 {fill:#EFBCA0;fill-rule:nonzero}
    .fil15 {fill:#F1F566;fill-rule:nonzero}
    .fil6 {fill:#F5CA56;fill-rule:nonzero}
    .fil3 {fill:#F9BD9C;fill-rule:nonzero}
    .fil2 {fill:#FFC8A5;fill-rule:nonzero}
    .fil18 {fill:#FFD0D4;fill-rule:nonzero}
    .fil5 {fill:#FFDFD4;fill-rule:nonzero}
    .fil8 {fill:white;fill-rule:nonzero}
    .fil17 {fill:#FFF0F2;fill-rule:nonzero;fill-opacity:0.600000}
   ]]>
  </style>
    <clipPath id="id0" style="clip-rule:nonzero">
     <path d="M176558 316752c0,1827 173,3732 -1606,3732l-112479 0c-1780,0 -4404,-1905 -4404,-3732l0 -188246c0,-1825 2624,-2932 4404,-2932l112479 0c1779,0 1606,1107 1606,2932l0 188246z"/>
    </clipPath>
 </defs>
 <g id="Слой_x0020_1">
  <metadata id="CorelCorpID_0Corel-Layer"/>
  <g id="_904398360">
   <path class="fil0" d="M8755 142170c8909,-8101 19355,-8144 28870,-5119l0 -26608c0,-7773 3832,-13161 9249,-16706 4099,-2727 9427,-3909 13229,-3909l129832 0c6176,0 11131,2096 15156,6766l121 146c3278,3834 4795,8285 4795,13703l0 53362c6210,-27 11493,2194 14794,4034l2169 1263c918,615 1766,1303 2524,2050 2923,2647 4734,6130 5349,9807l57 -7c0,21 1820,10329 3529,22000 2467,16831 5440,40434 6039,60028 490,16013 -913,29994 -5793,37807 -3474,5559 -9094,15378 -14867,25675 -6032,10757 -10682,19163 -13983,25175 -444,3638 -1727,6935 -3937,9905 -401,563 -833,1089 -1278,1586l0 34417c1723,2670 2723,5855 2723,9268l0 48954c0,9459 -7671,17129 -17129,17129l-109349 0c-9459,0 -17130,-7670 -17130,-17129l0 -48954c0,-5101 2233,-9680 5773,-12819l0 -24515 -9395 0c-4073,0 -9593,-1471 -13671,-4358 -4041,-2852 -7185,-6832 -8333,-12060l-27463 -25317c-6137,-5661 -9180,-13379 -9130,-21284 43,-7361 2791,-14881 8228,-20788 1324,-1437 2755,-2722 4256,-3857 -5550,-5615 -8010,-13099 -7472,-20778 474,-6794 3374,-13799 8549,-19423l1087 -1121c1141,-1126 2344,-2158 3593,-3087l-121 -114c-6215,-5736 -8775,-13703 -7901,-21956 631,-5951 3181,-12136 7525,-17332 -1627,-1549 -3169,-3123 -4599,-4700 -5343,-5880 -9532,-12149 -11981,-18263 -3463,-8641 -3718,-17239 194,-25055 1480,-2962 3435,-5584 5891,-7816zm50139 84823l6643 6121c3872,3139 6349,7937 6349,13311l0 13739c-37,4137 -1531,8288 -4552,11575 -2356,2556 -5303,4231 -8445,5012l6648 6126c3872,3139 6349,7937 6349,13309l0 12955c-37,4140 -1531,8290 -4552,11575 -2356,2556 -5303,4233 -8445,5012l6648 6126c1202,975 2271,2107 3168,3367l17922 0c9459,0 17129,7670 17129,17129l0 54463c0,5103 -2232,9682 -5772,12821l0 19004 75088 0 0 -22556c-1722,-2670 -2722,-5854 -2722,-9269l0 -49863 66 0c-5,-2764 663,-5568 2078,-8165l2501 -4600c490,-890 1052,-1736 1688,-2524 310,-943 720,-1872 1210,-2774 4982,-9117 11682,-21319 16072,-29151 5959,-10627 11841,-20893 15669,-27018 902,-1445 1011,-8892 713,-18799 -94,-2998 -255,-6151 -470,-9400 -731,5928 -4499,10912 -9686,13373l0 428c0,9459 -7671,17129 -17129,17129 -9484,0 -17154,-7670 -17154,-17129l0 -141008c16,-1096 125,-2171 328,-3224l-94350 0 0 86316c-37,4139 -1531,8290 -4552,11575 -2351,2558 -5303,4232 -8440,5014z"/>
   <path class="fil1" d="M209476 206570c-47,-657 -72,-1345 -77,-2055 5,706 30,1394 77,2055zm-152585 -32577c0,0 -22410,-22410 -33616,-12222 -11206,10183 9168,34631 33616,46863l0 -34641zm877 79385l-23553 -21708c-3994,-3686 -3217,-11029 1743,-16407 4957,-5377 12210,-6752 16204,-3073l5606 5169 0 -99961c0,-2486 3303,-3484 5349,-3484l129834 0c2050,0 2941,998 2941,3484l0 141955 715 -38074c3395,-39042 18098,-34251 22911,-31565l32 20 328 192 303 184 62 37 114 73 79 52 51 34 152 105c262,187 417,307 417,307 0,0 1590,8908 3458,21665 4135,28171 9666,75100 2654,86325 -7301,11689 -22984,40133 -31276,55296l0 1526c0,2463 -879,3755 -2898,3775l-2499 4600 0 49863 2723 0 0 48954 -109350 0 0 -48954 5773 0 0 -54463 -26524 0c-2046,0 -5349,-1292 -5349,-3775l0 -3410 -32543 -30000c-4900,-4520 -4854,-12537 101,-17918 4961,-5378 12955,-6073 17853,-1553l14589 13447 0 -12955 -28298 -26087c-4301,-3964 -3768,-11538 1193,-16915 4955,-5381 12462,-6527 16760,-2556l10345 9534 0 -13739zm128285 -119111l0 232 0 89 0 852 0 337 0 5482 0 134016 23 0 0 -139830c0,-643 16,-996 -23,-1178zm26301 58948c230,-275 474,-535 729,-777 -255,242 -499,502 -729,777z"/>
   <g>
    <path class="fil2" d="M215019 205114c-1349,740 -3235,1191 -5953,1248 -9711,208 -9155,-5271 -9155,-11768 0,-6495 4100,-11765 9155,-11765 713,0 1408,114 2080,313 -2902,-1994 -20302,-12059 -24034,30866l-1016 53995 -64183 0 27503 129381 31584 -40749c0,0 26490,-48902 36673,-65199 7010,-11220 1481,-58153 -2654,-86322z"/>
    <polygon class="fil2" points="181000,411647 80148,411647 80148,351539 181000,351539 "/>
    <path class="fil3" d="M215019 205114c-1349,740 -3235,1191 -5953,1248 -2474,53 -4278,-264 -5599,-872 191,7909 -376,15830 376,23724 1872,19633 4759,34575 1189,51772 -3670,17674 -16368,42696 -27306,56957 -9410,12273 -20612,24285 -34085,32277l5775 27164 31584 -40749c0,0 26490,-48902 36673,-65199 7010,-11220 1481,-58153 -2654,-86322z"/>
    <path class="fil4" d="M209066 182829c713,0 1408,114 2080,313 -396,-272 -1059,-693 -1918,-1108 -178,271 -348,545 -524,818 121,-7 239,-23 362,-23z"/>
    <path class="fil5" d="M199911 194594c0,6497 -556,11976 9155,11768 2718,-57 4604,-508 5953,-1248 -1870,-12758 -3458,-21667 -3458,-21667 0,0 -153,-121 -415,-305 -672,-199 -1367,-313 -2080,-313 -5055,0 -9155,5270 -9155,11765z"/>
   </g>
   <polygon class="fil3" points="129123,351539 129123,411647 181000,411647 181000,351539 "/>
   <polygon class="fil6" points="183722,455453 74373,455453 74373,406498 183722,406498 "/>
   <g>
    <path class="fil7" d="M186397 110124c0,-2481 -893,-3481 -2943,-3481l-129830 0c-2050,0 -5349,1000 -5349,3481l0 238135c0,2483 3299,3777 5349,3777l129830 0c2050,0 2943,-1294 2943,-3777l0 -238135zm-9816 205615l0 0c0,1993 143,4745 -1625,4745l-111773 0c-1765,0 -5091,-2752 -5091,-4745l0 -187564c0,-1993 3326,-1198 5091,-1198l111773 0c1768,0 1625,-795 1625,1198l0 187564z"/>
   </g>
   <g>
    <path class="fil1" d="M123833 116108c0,1080 -476,3155 -1061,3155l-18546 0c-586,0 -1060,-2075 -1060,-3155 0,-1080 474,-3155 1060,-3155l18546 0c585,0 1061,2075 1061,3155z"/>
    <path class="fil1" d="M131251 116108c0,1080 -474,3155 -1057,3155l-3180 0c-588,0 -1062,-2075 -1062,-3155 0,-1080 474,-3155 1062,-3155l3180 0c583,0 1057,2075 1057,3155z"/>
   </g>
   <path class="fil8" d="M176558 316752c0,1827 173,3732 -1606,3732l-112479 0c-1780,0 -4404,-1905 -4404,-3732l0 -188246c0,-1825 2624,-2932 4404,-2932l112479 0c1779,0 1606,1107 1606,2932l0 188246z"/>
   <g style="clip-path:url(#id0)">
    <g>
     <path id="1" class="fil9" d="M176560 316752c0,1827 87,3732 -802,3732l-56219 0c-888,0 -2201,-1905 -2201,-3732l0 -188246c0,-1825 1313,-2932 2201,-2932l56219 0c889,0 802,1107 802,2932l0 188246z"/>
    </g>
   </g>
   <path class="fil10" d="M176558 316752c0,1827 173,3732 -1606,3732l-112479 0c-1780,0 -4404,-1905 -4404,-3732l0 -188246c0,-1825 2624,-2932 4404,-2932l112479 0c1779,0 1606,1107 1606,2932l0 188246z"/>
   <polygon class="fil11" points="176558,321887 53861,321887 53861,312071 176558,312071 "/>
   <path class="fil12" d="M125993 337214c0,4821 -3907,8728 -8730,8728 -4818,0 -8727,-3907 -8727,-8728 0,-4820 3909,-8727 8727,-8727 4823,0 8730,3907 8730,8727z"/>
   <g>
    <g>
     <polygon class="fil13" points="62744,235456 64614,234435 66482,233415 66482,235456 66482,237495 64614,236477 "/>
     <path class="fil14" d="M66482 231736c0,-465 285,-996 1096,-996l39614 0c811,0 1357,531 1357,996l0 7565c0,463 -546,554 -1357,554l-39614 0c-811,0 -1096,-91 -1096,-554l0 -7565z"/>
    </g>
    <g>
     <polygon class="fil13" points="62744,250179 64614,249159 66482,248140 66482,250179 66482,252218 64614,251200 "/>
     <path class="fil14" d="M66482 246154c0,-465 517,-688 1668,-688l56319 0c1153,0 3009,223 3009,688l0 7568c0,462 -1856,859 -3009,859l-56319 0c-1151,0 -1668,-397 -1668,-859l0 -7568z"/>
    </g>
    <g>
     <path class="fil14" d="M104342 161422c0,724 -588,1312 -1310,1312l-35240 0c-722,0 -1310,-588 -1310,-1312l0 -12101c0,-725 588,-1312 1310,-1312l35240 0c722,0 1310,587 1310,1312l0 12101z"/>
     <polygon class="fil14" points="62744,155314 64614,154294 66482,153273 66482,155314 66482,157353 64614,156335 "/>
    </g>
    <g>
     <g>
      <path class="fil15" d="M166040 224523c0,725 -586,1310 -1310,1310l-35238 0c-724,0 -1312,-585 -1312,-1310l0 -12103c0,-722 588,-1310 1312,-1310l35238 0c724,0 1310,588 1310,1310l0 12103z"/>
      <polygon class="fil15" points="169124,218646 167582,219666 166040,220687 166040,218646 166040,216607 167582,217627 "/>
     </g>
     <g>
      <path class="fil0" d="M166040 224523c0,725 -586,1310 -1310,1310l-35238 0c-724,0 -1312,-585 -1312,-1310l0 -12103c0,-722 588,-1310 1312,-1310l35238 0c724,0 1310,588 1310,1310l0 12103z"/>
      <polygon class="fil0" points="169124,218646 167582,219666 166040,220687 166040,218646 166040,216607 167582,217627 "/>
     </g>
    </g>
    <g>
     <path class="fil14" d="M130984 176307c0,465 -909,1151 -2143,1151l-60384 0c-1235,0 -1975,-686 -1975,-1151l0 -7565c0,-463 740,-1101 1975,-1101l60384 0c1234,0 2143,638 2143,1101l0 7565z"/>
     <polygon class="fil14" points="62744,172355 64614,171334 66482,170316 66482,172355 66482,174396 64614,173375 "/>
    </g>
    <g>
     <path class="fil0" d="M100134 183233c0,-465 1003,-868 2237,-868l60384 0c1234,0 2585,403 2585,868l0 7565c0,465 -1351,681 -2585,681l-60384 0c-1234,0 -2237,-216 -2237,-681l0 -7565z"/>
     <polygon class="fil0" points="168468,187185 166905,188206 165340,189226 165340,187185 165340,185146 166905,186167 "/>
    </g>
    <g>
     <polygon class="fil14" points="64846,292949 66717,291928 68585,290907 68585,292949 68585,294987 66717,293967 "/>
     <path class="fil14" d="M67883 289413c0,-465 264,-1180 1091,-1180l40466 0c827,0 2615,715 2615,1180l0 7565c0,465 -1788,1071 -2615,1071l-40466 0c-827,0 -1091,-606 -1091,-1071l0 -7565z"/>
    </g>
    <g>
     <path class="fil0" d="M100134 197653c0,-465 1003,-565 2237,-565l60384 0c1234,0 2585,100 2585,565l0 7566c0,464 -1351,984 -2585,984l-60384 0c-1234,0 -2237,-520 -2237,-984l0 -7566z"/>
     <polygon class="fil0" points="168826,201514 167083,202606 165340,203697 165340,201514 165340,199332 167083,200423 "/>
    </g>
    <g>
     <path class="fil16" d="M152018 260574c0,-464 230,-1086 474,-1086l11917 0c243,0 931,622 931,1086l0 7566c0,465 -688,462 -931,462l-11917 0c-244,0 -474,3 -474,-462l0 -7566z"/>
     <polygon class="fil16" points="168826,263914 167083,265005 165340,266096 165340,263914 165340,261732 167083,262823 "/>
    </g>
    <g>
     <path class="fil16" d="M120469 274995c0,-465 770,-784 1594,-784l40466 0c829,0 2811,319 2811,784l0 7565c0,465 -1982,766 -2811,766l-40466 0c-824,0 -1594,-301 -1594,-766l0 -7565z"/>
     <polygon class="fil16" points="168826,278637 167083,279729 165340,280820 165340,278637 165340,276455 167083,277546 "/>
    </g>
   </g>
   <polygon class="fil11" points="176558,133987 58069,133987 58069,125574 176558,125574 "/>
   <path class="fil17" d="M49581 283374c-2752,-292 -5554,-2828 -6215,-5509 -32,-125 -214,-55 -187,69 608,2615 3561,5715 6393,5667 127,-2 136,-214 9,-227z"/>
   <path class="fil18" d="M65386 325052c-1080,-668 -2292,-1333 -3567,-1875 911,273 1829,585 2765,920 142,50 244,-159 103,-214 -4354,-1652 -8593,-2984 -13179,-1403 -141,50 -62,255 80,216 998,-276 1963,-433 2911,-506 -640,160 -1266,394 -1868,741 -148,86 -16,341 137,264 4333,-2137 8561,296 12518,2068 141,64 228,-132 100,-211z"/>
   <path class="fil17" d="M64252 325377c-1964,-1373 -5094,-3287 -7605,-2435 -127,43 -82,264 53,232 2522,-560 5319,1137 7326,2468 2025,1344 4611,3367 5240,5843 13,52 95,32 89,-21 -285,-2608 -3140,-4713 -5103,-6087z"/>
   <path class="fil17" d="M74562 342645c-1542,-3148 -4891,-5078 -7761,-6868 -141,-91 -299,155 -157,246 2845,1843 5941,3741 7711,6732 68,114 267,11 207,-110z"/>
   <path class="fil17" d="M77513 351430c-1101,-212 -2030,-1139 -2955,-1748 -816,-537 -1675,-1002 -2549,-1437 -1953,-968 -4046,-1558 -6176,-1977 -208,-41 -260,271 -57,316 2282,513 4469,1246 6558,2301 1196,604 2347,1328 3436,2105 547,394 1014,672 1695,715 175,12 230,-241 48,-275z"/>
   <polygon class="fil12" points="176558,133987 117259,133987 117259,125574 176558,125574 "/>
   <path class="fil19" d="M117266 328492l0 17450c3116,0 5854,-1636 7397,-4099 824,-1314 1309,-2865 1330,-4526 0,-37 0,-71 0,-107 0,-4814 -3909,-8723 -8727,-8718z"/>
   <path class="fil2" d="M67812 326838c4905,4517 4855,12538 -102,17917 -4957,5379 -12947,6076 -17845,1558l-34135 -31465c-4900,-4515 -4854,-12536 103,-17915 4957,-5379 12951,-6074 17851,-1556l34128 31461z"/>
   <path class="fil2" d="M67883 277920c4299,3961 3770,11538 -1187,16917 -4957,5379 -12468,6525 -16767,2558l-29957 -27610c-4299,-3964 -3763,-11539 1194,-16917 4957,-5379 12461,-6523 16760,-2559l29957 27611z"/>
   <path class="fil2" d="M70478 230553c3996,3682 3210,11026 -1748,16405 -4957,5379 -12217,6752 -16206,3071l-27804 -25631c-3994,-3684 -3215,-11026 1742,-16405 4958,-5378 12211,-6752 16205,-3075l27811 25635z"/>
   <path class="fil2" d="M47396 166723c0,0 -22407,-22410 -33618,-12224 -11204,10185 9169,34634 33618,46863l0 -34639z"/>
   <path class="fil5" d="M62185 329539c4593,4598 5958,10682 3044,13596 -2916,2912 -9003,1554 -13598,-3043 -4593,-4598 -8491,-7858 -3044,-13596 5450,-5739 9004,-1551 13598,3043z"/>
   <path class="fil5" d="M59352 277530c4594,4598 5959,10685 3043,13596 -2916,2916 -9003,1554 -13596,-3041 -4595,-4595 -8492,-7855 -3043,-13598 5449,-5739 9003,-1549 13596,3043z"/>
   <path class="fil5" d="M63422 230667c4600,4598 5960,10685 3049,13598 -2914,2916 -9001,1554 -13596,-3043 -4600,-4595 -8491,-7855 -3041,-13596 5447,-5741 8996,-1551 13588,3041z"/>
   <g>
    <g>
     <path class="fil1" d="M270493 47517c768,-9691 -2952,-18371 -10301,-24579 -6067,-5123 -14286,-6789 -21861,-8144 -19735,-3533 -39922,-3634 -59718,-6734 -5475,-857 -12304,3754 -13596,9128 -1399,5812 -6780,27616 -7721,34482 -865,6315 998,13158 5438,17803 6853,7169 48613,12587 52998,13942 8823,2722 17396,5791 26784,4821 10625,-1096 18122,-8915 22492,-18061 1476,-3094 2460,-6336 3216,-9673 540,-2388 989,-4800 1410,-7213 -781,4466 194,-1009 467,-2503 199,-1080 306,-2173 392,-3269zm-34645 12844l0 0c9,-5 18,-9 27,-14 -1968,1638 -1207,606 -27,14z"/>
     <path class="fil12" d="M209613 81012c693,-25 11819,18730 13101,19047 0,0 -4255,-25877 2222,-25975 6474,-96 -15323,6928 -15323,6928z"/>
    </g>
   </g>
   <g>
    <g>
     <path class="fil20" d="M254266 39562c768,-9691 -2950,-18373 -10301,-24581 -6067,-5121 -14286,-6787 -21861,-8142 -19733,-3533 -39922,-3634 -59716,-6734 -5477,-857 -12304,3752 -13598,9128 -1397,5812 -6780,27615 -7721,34482 -865,6312 998,13158 5438,17803 6853,7169 48613,12587 52998,13940 8823,2724 17396,5793 26786,4822 10623,-1098 18122,-8914 22490,-18060 1478,-3094 2460,-6336 3216,-9673 542,-2388 989,-4800 1410,-7213 -779,4465 194,-1009 467,-2503 199,-1080 306,-2176 392,-3269zm-34645 12844l0 0c9,-5 20,-10 29,-14 -1968,1636 -1207,604 -29,14z"/>
     <path class="fil20" d="M193386 73057c695,-25 11819,18730 13102,19047 0,0 -4256,-25877 2221,-25975 6476,-96 -15323,6928 -15323,6928z"/>
    </g>
   </g>
   <circle class="fil21" cx="172377" cy="33242" r="6820"/>
   <circle class="fil21" cx="194692" cy="36826" r="6820"/>
   <circle class="fil21" cx="216658" cy="40294" r="6820"/>
  </g>
 </g>
</svg>
