<?xml version="1.0" encoding="UTF-8"?>
<!DOCTYPE svg PUBLIC "-//W3C//DTD SVG 1.1//EN" "http://www.w3.org/Graphics/SVG/1.1/DTD/svg11.dtd">
<!-- Creator: CorelDRAW X8 -->
<svg xmlns="http://www.w3.org/2000/svg" xml:space="preserve" width="21.5776mm" height="19.2609mm" version="1.1" style="shape-rendering:geometricPrecision; text-rendering:geometricPrecision; image-rendering:optimizeQuality; fill-rule:evenodd; clip-rule:evenodd"
viewBox="0 0 1086925 970226"
 xmlns:xlink="http://www.w3.org/1999/xlink">
 <defs>
  <style type="text/css">
   <![CDATA[
    .fil9 {fill:#4D94DB}
    .fil1 {fill:#B3B3B3}
    .fil10 {fill:#BADAF4}
    .fil7 {fill:#DF9C00}
    .fil11 {fill:#F5CA56}
    .fil12 {fill:#FFDB71}
    .fil8 {fill:#FFFDF9}
    .fil5 {fill:#116BC4;fill-rule:nonzero}
    .fil6 {fill:#295D94;fill-rule:nonzero}
    .fil4 {fill:#4D94DB;fill-rule:nonzero}
    .fil13 {fill:#565E74;fill-rule:nonzero}
    .fil14 {fill:#AA5257;fill-rule:nonzero}
    .fil2 {fill:#B3B3B3;fill-rule:nonzero}
    .fil15 {fill:#D65E6B;fill-rule:nonzero}
    .fil0 {fill:#DFDFDF;fill-rule:nonzero}
    .fil3 {fill:white;fill-rule:nonzero}
   ]]>
  </style>
 </defs>
 <g id="Слой_x0020_1">
  <metadata id="CorelCorpID_0Corel-Layer"/>
  <g id="_938979608">
   <path class="fil0" d="M478995 948112l-12548 0 0 -68169 -11742 2967c-26450,6211 -53904,9515 -81911,9515 -22396,0 -44726,-2186 -66724,-6352 -22390,-4226 -43895,-10483 -64265,-18517 -70840,-24250 -131675,-70124 -174557,-129730 -42313,-58831 -67248,-130844 -67248,-208468 0,-98701 40021,-188097 104705,-252771 64679,-64689 154070,-104710 252776,-104710 22416,0 44756,2186 66759,6352 22612,4272 44177,10533 64452,18542 31629,10901 61394,26159 88460,45069 16366,11440 31709,24159 45864,38016l164195 -113731 0 -44062 190777 -122063 -6644 102866 115581 34299 -193331 123711 -37493 -7758 -166840 115576c9833,18648 18059,38233 24471,58563 6433,20401 11103,41578 13808,63339l28249 20391 138313 0 0 13172 21233 0 0 102010 54604 39417 0 304640 -490944 0 0 -22114zm78557 -133976l0 42872 12547 0 0 22114 308730 0 0 -167349 -54599 -39427 0 -57077 -21232 0 0 -13173 -76103 0 -2876 -2080 -96 75 -17026 -12286 -70875 51169c1144,-34596 2831,-69454 3340,-104040l-186 0c0,-28032 -4312,-55012 -12286,-80279 -8312,-26325 -20522,-50806 -35921,-72713l-5189 -7385 -5017 -6241c-16053,-19993 -34802,-37578 -55571,-52096 -20512,-14321 -43260,-25871 -67636,-34037l-2312 -720c-15590,-6165 -31573,-10860 -47723,-13918 -15812,-2987 -32546,-4559 -50040,-4559 -73555,0 -140168,29816 -188359,78018 -48197,48192 -78018,114799 -78018,188354 0,58175 18467,111853 49814,155435 32329,44933 78310,79418 131846,97351l2146 720c15474,6100 31508,10790 47884,13893 15797,2992 32521,4564 50000,4564 21242,0 41764,-2433 61274,-7017 20058,-4715 39386,-11808 57646,-20920l65838 -32888 0 73640z"/>
   <g>
    <polygon class="fil1" points="928280,695523 728366,839846 528451,695523 728366,551194 "/>
    <polygon class="fil1" points="583060,931509 873671,931509 873671,576552 583060,576552 "/>
    <g>
     <polygon class="fil1" points="628406,641825 711430,641825 711430,625086 628406,625086 "/>
     <polygon class="fil1" points="627595,674331 829132,674331 829132,657592 627595,657592 "/>
     <polygon class="fil1" points="627595,705517 829132,705517 829132,688778 627595,688778 "/>
     <polygon class="fil1" points="627595,736702 829132,736702 829132,719964 627595,719964 "/>
     <polygon class="fil1" points="627595,767888 829132,767888 829132,751149 627595,751149 "/>
     <polygon class="fil1" points="627595,799074 829132,799074 829132,782335 627595,782335 "/>
     <polygon class="fil1" points="627595,830260 829132,830260 829132,813521 627595,813521 "/>
    </g>
    <polygon class="fil1" points="528451,931509 928280,931509 928280,695523 728361,839846 528451,695523 "/>
    <polygon class="fil1" points="528451,931509 928280,931509 764841,813521 691901,813521 691901,813511 "/>
   </g>
   <g>
    <path class="fil2" d="M688632 541775c0,172275 -139654,311933 -311929,311933 -172275,0 -311934,-139658 -311934,-311933 0,-172275 139659,-311929 311934,-311929 172275,0 311929,139654 311929,311929z"/>
    <path class="fil2" d="M638949 541775c0,144837 -117414,262251 -262246,262251 -144837,0 -262251,-117414 -262251,-262251 0,-144832 117414,-262246 262251,-262246 144832,0 262246,117414 262246,262246z"/>
    <path class="fil2" d="M587428 541775c0,116386 -94344,210729 -210725,210729 -116386,0 -210730,-94343 -210730,-210729 0,-116382 94344,-210725 210730,-210725 116381,0 210725,94343 210725,210725z"/>
    <path class="fil2" d="M546414 541775c0,93734 -75982,169716 -169711,169716 -93734,0 -169716,-75982 -169716,-169716 0,-93729 75982,-169711 169716,-169711 93729,0 169711,75982 169711,169711z"/>
    <path class="fil2" d="M499300 541775c0,67711 -54891,122602 -122597,122602 -67711,0 -122602,-54891 -122602,-122602 0,-67711 54891,-122598 122602,-122598 67706,0 122597,54887 122597,122598z"/>
    <path class="fil2" d="M457274 541775c0,44499 -36077,80571 -80571,80571 -44499,0 -80571,-36072 -80571,-80571 0,-44495 36072,-80572 80571,-80572 44494,0 80571,36077 80571,80572z"/>
   </g>
   <g>
    <path class="fil3" d="M673318 536209c0,172275 -139653,311933 -311928,311933 -172275,0 -311934,-139658 -311934,-311933 0,-172275 139659,-311934 311934,-311934 172275,0 311928,139659 311928,311934z"/>
    <path class="fil4" d="M623636 536209c0,144837 -117414,262251 -262246,262251 -144837,0 -262251,-117414 -262251,-262251 0,-144837 117414,-262246 262251,-262246 144832,0 262246,117409 262246,262246z"/>
    <path class="fil3" d="M572114 536209c0,116381 -94343,210729 -210724,210729 -116387,0 -210730,-94348 -210730,-210729 0,-116382 94343,-210730 210730,-210730 116381,0 210724,94348 210724,210730z"/>
    <path class="fil5" d="M531101 536209c0,93728 -75983,169711 -169711,169711 -93729,0 -169716,-75983 -169716,-169711 0,-93729 75987,-169711 169716,-169711 93728,0 169711,75982 169711,169711z"/>
    <path class="fil3" d="M483987 536209c0,67711 -54886,122602 -122597,122602 -67711,0 -122603,-54891 -122603,-122602 0,-67712 54892,-122603 122603,-122603 67711,0 122597,54891 122597,122603z"/>
    <path class="fil6" d="M441961 536209c0,44499 -36077,80571 -80571,80571 -44500,0 -80572,-36072 -80572,-80571 0,-44500 36072,-80572 80572,-80572 44494,0 80571,36072 80571,80572z"/>
   </g>
   <g>
    <polygon class="fil7" points="905688,679358 710801,820049 515913,679358 710801,538662 "/>
    <polygon class="fil8" points="569152,909411 852454,909411 852454,563380 569152,563380 "/>
    <g>
     <polygon class="fil9" points="613355,627011 694294,627011 694294,610690 613355,610690 "/>
     <polygon class="fil9" points="612569,658700 809033,658700 809033,642379 612569,642379 "/>
     <polygon class="fil9" points="612569,689100 809033,689100 809033,672779 612569,672779 "/>
     <polygon class="fil9" points="612569,719500 809033,719500 809033,703184 612569,703184 "/>
     <polygon class="fil9" points="612569,749900 809033,749900 809033,733584 612569,733584 "/>
     <polygon class="fil9" points="612569,780305 809033,780305 809033,763984 612569,763984 "/>
     <polygon class="fil10" points="612569,810705 809033,810705 809033,794389 612569,794389 "/>
    </g>
    <polygon class="fil11" points="515913,909411 905688,909411 905688,679358 710801,820049 515913,679358 "/>
    <polygon class="fil12" points="515913,909411 905688,909411 746359,794389 675253,794389 675253,794379 "/>
   </g>
   <g>
    <g>
     <polygon class="fil13" points="406443,518895 395104,502524 893710,157153 905048,173524 "/>
     <polygon class="fil14" points="836672,208775 836672,153622 930749,93421 927550,142953 "/>
     <polygon class="fil15" points="927550,142953 982749,159329 888677,219535 836672,208775 "/>
    </g>
    <g>
     <polygon class="fil14" points="477247,514246 344107,550197 429554,490339 "/>
     <polygon class="fil14" points="423379,437347 344107,550197 429554,490339 "/>
    </g>
   </g>
  </g>
 </g>
</svg>
