<?xml version="1.0" encoding="UTF-8"?>
<!DOCTYPE svg PUBLIC "-//W3C//DTD SVG 1.1//EN" "http://www.w3.org/Graphics/SVG/1.1/DTD/svg11.dtd">
<!-- Creator: CorelDRAW X8 -->
<svg xmlns="http://www.w3.org/2000/svg" xml:space="preserve" width="21.4886mm" height="21.0615mm" version="1.1" style="shape-rendering:geometricPrecision; text-rendering:geometricPrecision; image-rendering:optimizeQuality; fill-rule:evenodd; clip-rule:evenodd"
viewBox="0 0 1397925 1370141"
 xmlns:xlink="http://www.w3.org/1999/xlink">
 <defs>
  <style type="text/css">
   <![CDATA[
    .str0 {stroke:#E6E6E6;stroke-width:55075;stroke-linecap:round;stroke-linejoin:round}
    .fil1 {fill:#212F4D}
    .fil6 {fill:#333333}
    .fil5 {fill:#999999}
    .fil3 {fill:#B7B7B7}
    .fil0 {fill:#CCCCCC}
    .fil2 {fill:#F4F4F4}
    .fil7 {fill:white}
    .fil4 {fill:white}
    .fil10 {fill:#4D94DB;fill-rule:nonzero}
    .fil8 {fill:#98C4E0;fill-rule:nonzero}
    .fil9 {fill:#E3BE4D;fill-rule:nonzero}
    .fil11 {fill:#FFDB71;fill-rule:nonzero}
   ]]>
  </style>
 </defs>
 <g id="Слой_x0020_1">
  <metadata id="CorelCorpID_0Corel-Layer"/>
  <path class="fil0 str0" d="M201499 694858l691443 0 28858 -22685 17838 22685 39325 0c15893,0 28897,12991 28897,28890l0 97016 122582 31135 -27115 106734 -95467 -24245 0 280533c0,15886 -13004,28891 -28897,28891l28897 0 145064 61717 0 16205c0,11475 -9400,20869 -20882,20869l-1083622 0c-11489,0 -20883,-9387 -20883,-20869l0 -16205 145072 -61717 28890 0c-15893,0 -28890,-13005 -28890,-28891l0 -491173c0,-15899 12997,-28890 28890,-28890zm1126129 -72549l-48661 -214 -306 69517 48661 214 306 -69517zm-4931 67182l0 0 -19022 -22392 -20375 22216 -2316 -13 20479 -24812 -6427 -7565 6498 -7514 -20264 -24987 2323 6 20173 22398 19217 -22222 2316 13 -23316 32332 23030 32553 -2316 -13zm-12992 -521059l-59505 42487 60689 85000 59505 -42481 -60689 -85006zm53000 86216l0 0 -42851 -10584 -5322 44979 -2830 2016 3169 -48224 -14494 -3578 1320 -14872 -46637 -12659 2830 -2024 44263 9570 3903 -43964 2836 -2023 -13 59909 56662 19425 -2836 2029zm-354845 595774l0 13109 10877 15456 -10877 5790 0 7683 15327 -7156 12946 18391 20147 -9986 43261 58549 1288 -5081 -37621 -56896 59570 -29509 0 0 1288 -5074 -84063 32748 -32143 -38024zm-99969 -466257l0 134552 72126 0 15053 157769 173116 -16510 -60331 58321 117911 121964 85371 -82528 -98584 -101986 47425 -4521 -17695 -185431 -142183 13557 0 -95187 -192209 0zm95415 134552l17714 0 98089 56831 115185 -100086 846 8828 0 0 -78046 80954 92365 69159 845 8841 -102278 -68581 -26399 27388 -31096 -21903 -87472 86665 -839 -8828 77610 -85371 -76524 -53897zm90393 -121736l0 0 -61671 52863 35845 32586 -9583 910 -33438 -27355 -20856 17883 -20863 -17883 -68841 56324 0 -6408 61665 -56057 -61665 -52863 0 -6408 89704 64072 89703 -64072 0 6408zm205376 364544l0 0 -71364 -6700 2251 73511 -4060 3936 -6486 -78234 -24141 -2277 -1457 -24194 -77961 -9134 4065 -3929 73401 4743 -3669 -61314 5484 -520 12328 82566 95682 17611 -4073 3935zm-359424 -733994l-58823 56864 81234 84037 58828 -56870 -81239 -84031zm72925 86652l0 0 -49168 -4625 1549 50651 -2798 2713 -4469 -53898 -16634 -1561 -1002 -16686 -53715 -6284 2803 -2707 50567 3259 -2947 -49298 2797 -2706 9902 66297 65919 12133 -2804 2712zm-185743 275863l-50638 41017 58601 72334 50638 -41011 -58601 -72340zm51823 73830l0 0 -38688 -7097 -2297 40301 -2413 1958 208 -43086 -13082 -2394 364 -13303 -42181 -8730 2407 -1959 39904 6116 1093 -39319 2407 -1952 3240 53286 51458 14227 -2420 1952zm48992 -244214l61418 161732 231066 -87732 -61431 -161745 -231053 87745zm229206 -69419l0 0 -50007 91700 99728 39228 2927 7709 -108465 -36281 -16907 31018 -33243 -11970 -57046 99123 -2921 -7702 48537 -95545 -98258 -35383 -2934 -7709 137089 36079 78572 -117970 2928 7703zm-438258 428109l0 78605 112290 0 0 -78605 -112290 0zm108556 7488l0 0 -36033 30875 36033 32761 0 3741 -40223 -32905 -12178 10448 -12198 -10448 -40210 32905 0 -3741 36027 -32761 -36027 -30875 0 -3747 52408 37432 52401 -37432 0 3747zm-183082 -313731l68125 135248 193217 -97334 -68131 -135248 -193211 97334zm193263 -81214l0 0 -35227 84369 90374 25118 3252 6447 -97718 -21761 -11918 28539 -30022 -7410 -40679 91473 -3233 -6447 33588 -87576 -88747 -21910 -3240 -6434 122608 18983 57716 -109831 3246 6440zm380854 116532l-59538 86483 123564 85059 59538 -86503 -123564 -85039zm113767 90451l0 0 -63025 6695 14839 63317 -2836 4124 -19334 -66674 -21325 2264 -5491 -20726 -69172 5751 2830 -4118 64443 -8750 -16244 -61262 2836 -4124 29307 80875 86015 -1496 -2843 4124zm-415703 296980l4989 0 2563 -12933 0 0 -2751 -3506 -4801 16439z"/>
  <g id="_904401984">
   <path class="fil1" d="M202423 705234l777464 0c15886,0 28890,12998 28890,28891l0 491166c0,15893 -13004,28890 -28890,28890l-777464 0c-15893,0 -28891,-12997 -28891,-28890l0 -491166c0,-15893 12998,-28891 28891,-28891z"/>
   <polygon class="fil2" points="216865,762547 965438,762547 965438,1164420 216865,1191098 "/>
   <path class="fil3" d="M591155 745418c5803,0 10506,-4703 10506,-10506 0,-5797 -4703,-10500 -10506,-10500 -5810,0 -10507,4703 -10507,10500 0,5803 4697,10506 10507,10506z"/>
   <path class="fil3" d="M591148 1239870c9427,0 17070,-7644 17070,-17071 0,-9433 -7643,-17070 -17070,-17070 -9433,0 -17070,7637 -17070,17070 0,9427 7637,17071 17070,17071z"/>
   <polygon class="fil4" points="173532,1254181 1008777,1254181 1153848,1315898 28461,1315898 "/>
   <path class="fil5" d="M28461 1315898l1125387 0 0 16206c0,11482 -9400,20882 -20882,20882l-1083622 0c-11489,0 -20883,-9394 -20883,-20882l0 -16206z"/>
   <polygon class="fil6" points="477492,1327316 704811,1327316 704811,1341810 477492,1341810 "/>
   <polygon class="fil7" points="216865,1191098 965438,1191098 965438,762547 "/>
  </g>
  <path class="fil8" d="M978306 501432l17682 185431 264907 -25267 -17688 -185425 -264901 25261zm257758 -6759l0 0 -78046 80953 92364 69160 840 8827 -102272 -68573 -26399 27381 -31103 -21897 -87465 86672 -839 -8835 77609 -85371 -91928 -64742 -839 -8827 132041 76503 115191 -100079 846 8828z"/>
  <path class="fil8" d="M817752 765090l57781 73479 104972 -82547 -57782 -73479 -104971 82547zm106975 -72795l0 0 -10975 55348 57749 4137 2752 3494 -61782 -1191 -3708 18723 -19074 -807 -13408 60318 -2752 -3499 9602 -57099 -56376 -2381 -2751 -3499 76503 -3533 21468 -73511 2752 3500z"/>
  <path class="fil8" d="M1219111 317797l-59538 86489 123564 85052 59531 -86489 -123557 -85052zm113773 90451l0 0 -63037 6694 14838 63331 -2836 4118 -19328 -66668 -21324 2264 -5497 -20727 -69173 5745 2837 -4118 64449 -8750 -16251 -61268 2830 -4118 29314 80875 86015 -1496 -2837 4118z"/>
  <path class="fil8" d="M644994 282479l68131 135248 193211 -97328 -68131 -135248 -193211 97328zm193256 -81201l0 0 -35220 84362 90373 25124 3247 6441 -97718 -21761 -11912 28539 -30022 -7409 -40679 91466 -3246 -6434 33601 -87582 -88754 -21911 -3240 -6440 122608 18989 57723 -109824 3239 6440z"/>
  <path class="fil9" d="M719520 588728l0 78605 112290 0 0 -78605 -112290 0zm108549 7488l0 0 -36027 30881 36027 32755 0 3741 -40216 -32905 -12185 10448 -12191 -10448 -40217 32905 0 -3741 36028 -32755 -36028 -30881 0 -3747 52408 37432 52401 -37432 0 3747z"/>
  <path class="fil9" d="M524416 963851l0 93431 133478 0 0 -93431 -133478 0zm129028 8899l0 0 -42825 36704 42825 38928 0 4450 -47802 -39111 -14487 12419 -14488 -12419 -47802 39111 0 -4450 42819 -38928 -42819 -36704 0 -4456 62290 44497 62289 -44497 0 4456z"/>
  <path class="fil10" d="M928572 230038l61418 161738 231059 -87745 -61424 -161738 -231053 87745zm229199 -69419l0 0 -50001 91694 99722 39241 2927 7702 -108458 -36281 -16914 31012 -33236 -11964 -57046 99124 -2921 -7703 48537 -95539 -98258 -35389 -2928 -7703 137076 36067 78579 -117963 2921 7702z"/>
  <path class="fil8" d="M827757 400422l-50632 41017 58595 72340 50638 -41017 -58601 -72340zm51822 73830l0 0 -38694 -7091 -2296 40295 -2414 1958 215 -43079 -13089 -2400 371 -13304 -42181 -8737 2407 -1951 39897 6115 1100 -39319 2407 -1952 3233 53286 51458 14228 -2414 1951z"/>
  <path class="fil11" d="M940574 37907l-58822 56864 81234 84037 58822 -56864 -81234 -84037zm72926 86652l0 0 -49174 -4625 1554 50658 -2803 2706 -4470 -53897 -16634 -1568 -995 -16674 -53716 -6290 2798 -2707 50573 3266 -2954 -49305 2804 -2706 9901 66297 65920 12133 -2804 2712z"/>
  <path class="fil11" d="M1194156 646139l-85377 82534 117904 121964 85377 -82528 -117904 -121970zm105843 125763l0 0 -71364 -6708 2251 73518 -4066 3936 -6486 -78234 -24142 -2271 -1451 -24200 -77961 -9133 4066 -3930 73394 4743 -4280 -71553 4059 -3930 14371 96216 95675 17616 -4066 3930z"/>
  <path class="fil8" d="M408704 968294l-24506 106156 151654 35012 24506 -106149 -151654 -35019zm144264 43957l0 0 -58282 30472 38440 55465 -1164 5061 -44055 -56981 -19711 10305 -13206 -17903 -64567 31896 1165 -5055 58867 -33002 -39026 -52941 1165 -5048 59102 66888 82443 -34212 -1171 5055z"/>
  <path class="fil11" d="M781926 808553l-36163 84219 120324 51654 36157 -84220 -120318 -51653zm112870 57951l0 0 -52811 16517 23536 51666 -1724 4007 -27954 -53754 -17863 5588 -8249 -16797 -58230 16758 1723 -4014 53664 -18521 -24396 -49662 1724 -4008 38935 64209 73362 -15997 -1717 4008z"/>
  <path class="fil10" d="M908808 394541l0 134552 192216 0 0 -134552 -192216 0zm185808 12816l0 0 -61671 52863 61671 56057 0 6408 -68840 -56324 -20856 17884 -20863 -17884 -68841 56324 0 -6408 61665 -56057 -61665 -52863 0 -6408 89704 64072 89696 -64072 0 6408z"/>
  <path class="fil11" d="M978891 823548l-27108 106735 152468 38727 27115 -106729 -152475 -38733zm144805 47607l0 0 -59571 29502 37628 56896 -1295 5081 -43254 -58549 -20148 9986 -12945 -18391 -65959 30810 1295 -5081 60214 -32045 -38272 -54360 1295 -5081 58243 68899 84063 -32748 -1294 5081z"/>
  <path class="fil8" d="M551647 905504l63474 97744 139639 -90673 -63474 -97751 -139639 90680zm141031 -78345l0 0 -19867 67493 71247 11639 3025 4651 -76582 -8444 -6720 22828 -23588 -3149 -23439 73394 -3025 -4658 18351 -69816 -69731 -9309 -3025 -4658 95389 4235 34940 -88864 3025 4658z"/>
  <path class="fil8" d="M1310623 178808l-59499 42487 60689 85000 59505 -42480 -60695 -85007zm53006 86217l0 0 -42851 -10585 -5322 44979 -2830 2023 3168 -48231 -14494 -3578 1321 -14872 -46644 -12659 2836 -2023 44263 9569 3904 -43964 2836 -2016 -13 59895 56656 19438 -2830 2024z"/>
  <path class="fil10" d="M1328552 632685l-48668 -214 -305 69517 48660 214 313 -69517zm-4932 67182l0 0 -19021 -22392 -20375 22216 -2316 -13 20479 -24805 -6434 -7572 6505 -7514 -20264 -24994 2316 13 20180 22392 19217 -22216 2316 6 -23316 32345 23029 32540 -2316 -6z"/>
 </g>
</svg>
