<svg
              width="117"
              height="28"
              viewBox="0 0 117 28"
              fill="none"
              xmlns="http://www.w3.org/2000/svg"
            >
              <path
                d="M0 27.0153V0.983824C2.39071 0.756618 5.75819 0.643799 10.1009 0.643799C13.827 0.643799 16.3795 1.23453 17.7534 2.41757C19.1289 3.59904 19.8174 5.83819 19.8174 9.13189C19.8174 12.4272 19.1673 14.6726 17.8703 15.8666C16.5716 17.0606 14.2386 17.6592 10.8711 17.6592C9.17692 17.6592 7.50519 17.5573 5.86067 17.3567V27.0153H0ZM5.86067 13.2451H9.98556C11.502 13.2185 12.5364 12.9301 13.0904 12.377C13.6413 11.8239 13.9183 10.7411 13.9183 9.13189C13.9183 7.52422 13.6413 6.44146 13.0904 5.88833C12.5364 5.33521 11.502 5.05786 9.98556 5.05786L5.86067 5.09703V13.2451Z"
                fill="#0085FF"
              />
              <path
                d="M33.9261 27.0148H28.067V8.68007C28.067 7.57224 28.1439 6.63051 28.2976 5.85018L22.0911 7.43435L21.3977 3.58596L28.067 0.983276H33.9261V27.0148Z"
                fill="#0085FF"
              />
              <path
                d="M50.044 17.1675L44.6845 15.3201C42.7053 14.6166 41.2914 13.6592 40.4427 12.4526C39.594 11.2461 39.1697 9.66035 39.1697 7.69855C39.1697 4.83105 39.8838 2.91312 41.3106 1.94632C42.7373 0.976391 45.2497 0.493774 48.8478 0.493774C52.2409 0.493774 55.1584 0.832233 57.6004 1.51072L57.2129 5.43589C54.9775 5.36068 52.2025 5.32307 48.8862 5.32307C47.3458 5.32307 46.3162 5.45469 45.8022 5.71794C45.2882 5.98275 45.0304 6.644 45.0304 7.69855C45.0304 8.55409 45.2241 9.1699 45.61 9.54753C45.9959 9.92673 46.7277 10.2903 47.8086 10.6428L52.8574 12.3382C54.9134 13.0449 56.3674 14.007 57.2129 15.2261C58.0615 16.4467 58.4859 18.0356 58.4859 19.9974C58.4859 22.9151 57.7669 24.8972 56.3274 25.9408C54.8878 26.9828 52.3194 27.5062 48.6156 27.5062C45.61 27.5062 42.5628 27.1803 39.4803 26.5253L39.8262 22.3745C45.3026 22.5014 48.2313 22.5641 48.6156 22.5641C50.1849 22.5641 51.2321 22.3995 51.7589 22.0736C52.2857 21.7461 52.5499 21.0676 52.5499 20.035C52.5499 19.1544 52.369 18.5339 52.0087 18.1672C51.65 17.8037 50.9951 17.4715 50.044 17.1675Z"
                fill="#0085FF"
              />
              <path
                d="M84.0101 0.983276H89.6786C91.0909 0.983276 91.8227 1.69937 91.8756 3.13311L92.9164 27.0148H87.3648L86.4777 5.47255H85.8227L81.8131 21.5807C81.5553 22.8138 80.7579 23.4312 79.4208 23.4312H75.5666C74.2295 23.4312 73.4337 22.8138 73.1775 21.5807L69.1294 5.47255H68.4729L67.7011 27.0148H62.1511L63.1134 3.13311C63.1903 1.69937 63.9237 0.983276 65.312 0.983276H70.9789C72.2375 0.983276 73.0093 1.59908 73.2911 2.83069L76.5321 15.8096C76.7355 16.6401 76.9661 17.8607 77.2255 19.47H77.7267C77.7523 19.3431 77.8484 18.8275 78.0149 17.9234C78.1814 17.0177 78.316 16.3126 78.42 15.8096L81.6194 2.83069C81.9268 1.59908 82.7243 0.983276 84.0101 0.983276Z"
                fill="#0085FF"
              />
              <path
                d="M107.605 17.1675L102.246 15.3201C100.267 14.6166 98.8526 13.6592 98.0039 12.4526C97.1552 11.2461 96.7309 9.66035 96.7309 7.69855C96.7309 4.83105 97.4451 2.91312 98.8718 1.94632C100.299 0.976391 102.809 0.493774 106.409 0.493774C109.801 0.493774 112.718 0.832233 115.16 1.51072L114.774 5.43589C112.539 5.36068 109.764 5.32307 106.447 5.32307C104.905 5.32307 103.877 5.45469 103.363 5.71794C102.848 5.98275 102.592 6.644 102.592 7.69855C102.592 8.55409 102.785 9.1699 103.171 9.54753C103.557 9.92673 104.289 10.2903 105.368 10.6428L110.419 12.3382C112.475 13.0449 113.927 14.007 114.774 15.2261C115.623 16.4467 116.047 18.0356 116.047 19.9974C116.047 22.9151 115.328 24.8972 113.887 25.9408C112.449 26.9828 109.879 27.5062 106.177 27.5062C103.171 27.5062 100.124 27.1803 97.0415 26.5253L97.3874 22.3745C102.862 22.5014 105.793 22.5641 106.177 22.5641C107.744 22.5641 108.792 22.3995 109.32 22.0736C109.847 21.7461 110.111 21.0676 110.111 20.035C110.111 19.1544 109.93 18.5339 109.57 18.1672C109.211 17.8037 108.556 17.4715 107.605 17.1675Z"
                fill="#0085FF"
              />
            </svg>