<svg width="192" height="224" viewBox="0 0 192 224" fill="none" xmlns="http://www.w3.org/2000/svg">
<g filter="url(#filter0_d)">
<rect x="30.2078" y="30.7247" width="116.674" height="163.276" rx="2.4723" fill="white"/>
</g>
<path d="M30.2078 33.197C30.2078 31.8316 31.3147 30.7247 32.6801 30.7247H144.41C145.775 30.7247 146.882 31.8316 146.882 33.197V47.0523H30.2078V33.197Z" fill="#0085FF"/>
<path d="M146.882 191.528C146.882 192.894 145.775 194.001 144.41 194.001L32.68 194.001C31.3146 194.001 30.2077 192.894 30.2077 191.528L30.2077 173.58L146.882 173.58L146.882 191.528Z" fill="#F5F8FD"/>
<rect x="71.0916" y="36.8821" width="34.907" height="4.01254" rx="0.988921" fill="black"/>
<rect x="71.0916" y="52.9868" width="34.907" height="4.01254" rx="0.988921" fill="#F7FAFE"/>
<rect x="81.6119" y="59.4948" width="13.8661" height="4.01254" rx="0.988921" fill="#7D8499"/>
<rect x="38.1547" y="69.4413" width="101.105" height="32.6169" rx="0.988921" fill="#F5F8FD"/>
<rect x="43.4742" y="75.1417" width="84.8688" height="2.17701" rx="0.494461" fill="#7D8499"/>
<rect x="43.4742" y="80.5842" width="78.316" height="2.17701" rx="0.494461" fill="#7D8499"/>
<rect x="43.4742" y="86.0267" width="83.8061" height="2.17701" rx="0.494461" fill="#7D8499"/>
<rect x="43.4742" y="91.4688" width="39.8682" height="2.17701" rx="0.494461" fill="#7D8499"/>
<rect x="38.1547" y="109.058" width="83.0531" height="32.6169" rx="0.988921" fill="#F5F8FD"/>
<rect x="42.5244" y="114.759" width="32.75" height="2.17701" rx="0.494461" fill="#7D8499"/>
<rect x="42.5244" y="120.201" width="67.0269" height="2.17701" rx="0.494461" fill="#7D8499"/>
<rect x="42.5244" y="125.644" width="56.6712" height="2.17701" rx="0.494461" fill="#7D8499"/>
<rect x="42.5244" y="131.086" width="46.3156" height="2.17701" rx="0.494461" fill="#7D8499"/>
<path fill-rule="evenodd" clip-rule="evenodd" d="M35.7297 39.072C35.6281 38.9703 35.6281 38.8056 35.7298 38.704L37.3863 37.0484C37.488 36.9468 37.6527 36.9468 37.7543 37.0485C37.8559 37.1501 37.8559 37.3149 37.7542 37.4165L36.2817 38.8881L37.7534 40.3606C37.855 40.4623 37.8549 40.627 37.7533 40.7286C37.6516 40.8302 37.4868 40.8302 37.3852 40.7285L35.7297 39.072Z" fill="black"/>
<path opacity="0.8" fill-rule="evenodd" clip-rule="evenodd" d="M116.551 179.97C116.551 179.291 117.102 178.741 117.781 178.741H138.03C138.709 178.741 139.259 179.291 139.259 179.97V187.611C139.259 188.29 138.709 188.84 138.03 188.84H117.781C117.102 188.84 116.551 188.29 116.551 187.611V179.97Z" fill="#0085FF"/>
<rect x="38.1547" y="178.741" width="71.3967" height="10.0993" rx="0.49" fill="white"/>
<g filter="url(#filter1_d)">
<path d="M121.208 33.2633C121.208 19.0464 124.255 15.9993 138.472 15.9993H155.944C170.161 15.9993 173.208 19.0464 173.208 33.2633V50.7353C173.208 64.9522 170.161 67.9993 155.944 67.9993H138.472C124.255 67.9993 121.208 64.9522 121.208 50.7353V33.2633Z" fill="white"/>
</g>
<rect x="132.208" y="31.6147" width="30" height="21.0962" rx="2.66679" fill="#0085FF"/>
<path d="M135.808 34.3623L145.246 43.362C146.232 44.3028 147.783 44.3062 148.773 43.3697L158.608 34.0737" stroke="#322E30" stroke-width="2" stroke-linecap="round" stroke-linejoin="round"/>
<path d="M143.889 42.1545L137.135 49.1387" stroke="#322E30" stroke-width="2" stroke-linecap="round" stroke-linejoin="round"/>
<path d="M150.238 42.1545L156.991 49.1387" stroke="#322E30" stroke-width="2" stroke-linecap="round" stroke-linejoin="round"/>
<defs>
<filter id="filter0_d" x="0.207764" y="0.724731" width="176.674" height="223.276" filterUnits="userSpaceOnUse" color-interpolation-filters="sRGB">
<feFlood flood-opacity="0" result="BackgroundImageFix"/>
<feColorMatrix in="SourceAlpha" type="matrix" values="0 0 0 0 0 0 0 0 0 0 0 0 0 0 0 0 0 0 127 0"/>
<feMorphology radius="10" operator="dilate" in="SourceAlpha" result="effect1_dropShadow"/>
<feOffset/>
<feGaussianBlur stdDeviation="10"/>
<feColorMatrix type="matrix" values="0 0 0 0 0 0 0 0 0 0.122667 0 0 0 0 0.766667 0 0 0 0.05 0"/>
<feBlend mode="normal" in2="BackgroundImageFix" result="effect1_dropShadow"/>
<feBlend mode="normal" in="SourceGraphic" in2="effect1_dropShadow" result="shape"/>
</filter>
<filter id="filter1_d" x="103.208" y="4.99933" width="88" height="88" filterUnits="userSpaceOnUse" color-interpolation-filters="sRGB">
<feFlood flood-opacity="0" result="BackgroundImageFix"/>
<feColorMatrix in="SourceAlpha" type="matrix" values="0 0 0 0 0 0 0 0 0 0 0 0 0 0 0 0 0 0 127 0"/>
<feOffset dy="7"/>
<feGaussianBlur stdDeviation="9"/>
<feColorMatrix type="matrix" values="0 0 0 0 0 0 0 0 0 0.121569 0 0 0 0 0.764706 0 0 0 0.05 0"/>
<feBlend mode="normal" in2="BackgroundImageFix" result="effect1_dropShadow"/>
<feBlend mode="normal" in="SourceGraphic" in2="effect1_dropShadow" result="shape"/>
</filter>
</defs>
</svg>
