<svg width="982" height="195" viewBox="0 0 982 195" fill="none" xmlns="http://www.w3.org/2000/svg">
<circle cx="75.5" cy="99.749" r="75" fill="white"/>
<circle cx="75.5" cy="98.7622" r="46.875" fill="#0085FF"/>
<g filter="url(#filter0_f)">
<circle cx="53.9933" cy="107.751" r="16.3437" fill="#0263BC"/>
</g>
<g filter="url(#filter1_f)">
<circle cx="98.4247" cy="104.93" r="16.3437" fill="#0263BC"/>
</g>
<path fill-rule="evenodd" clip-rule="evenodd" d="M85.5233 109.887C79.2104 114.023 70.9437 113.072 65.7293 107.845C65.0216 107.135 65.1602 105.985 65.9457 105.362C66.7311 104.74 67.8641 104.885 68.5957 105.57C72.6219 109.337 78.794 109.957 83.5348 106.852L83.7325 106.722C84.5707 106.173 85.6953 106.407 86.2444 107.246C86.7935 108.084 86.5592 109.208 85.721 109.758L85.5233 109.887Z" fill="black"/>
<path d="M81.5621 60.3724C75.1227 68.8907 64.8769 71.997 58.6775 67.3105C52.478 62.624 52.6725 51.9195 59.1119 43.4012C65.5512 34.883 75.797 31.7767 81.9965 36.4631C88.1959 41.1496 84.9776 49.8413 81.5621 60.3724Z" fill="#322E30"/>
<path d="M96.7369 68.6256C88.5531 71.2933 80.3449 68.6276 78.4034 62.6716C76.4618 56.7155 81.5222 49.7246 89.706 47.0569C97.8898 44.3892 106.098 47.0549 108.04 53.0109C109.981 58.9669 103.848 63.2334 96.7369 68.6256Z" fill="#322E30"/>
<circle cx="56.0725" cy="92.264" r="14.2645" fill="#F8F0F1"/>
<circle cx="56.0725" cy="93.88" r="9.10654" fill="#322E30"/>
<circle cx="62.5321" cy="92.2636" r="2.64688" fill="#F8F0F1"/>
<circle cx="95.7644" cy="92.264" r="14.2645" fill="#F8F0F1"/>
<circle cx="95.8083" cy="93.88" r="9.10654" fill="#322E30"/>
<circle cx="102.268" cy="92.2636" r="2.64688" fill="#F8F0F1"/>
<rect x="36.1191" y="65.0513" width="32.8212" height="10.0964" rx="5.04822" transform="rotate(-2.67319 36.1191 65.0513)" fill="#322E30"/>
<rect x="83.1956" y="68.8267" width="30.0907" height="9.25651" rx="4.62825" transform="rotate(8.76842 83.1956 68.8267)" fill="#322E30"/>
<g filter="url(#filter2_f)">
<ellipse cx="74.473" cy="55.3194" rx="6.49958" ry="8.6687" transform="rotate(34.6672 74.473 55.3194)" fill="black" fill-opacity="0.8"/>
</g>
<g filter="url(#filter3_f)">
<ellipse cx="87.2603" cy="60.143" rx="6.49958" ry="8.6687" transform="rotate(46.4277 87.2603 60.143)" fill="black" fill-opacity="0.8"/>
</g>
<circle cx="352.5" cy="99.749" r="75" fill="white"/>
<circle cx="351.435" cy="98.6836" r="46.875" fill="#846FF4"/>
<path d="M374.276 75.8893C372.806 74.5371 366.851 70.2075 353.577 70.1482C353.577 70.1482 337.931 69.1992 330.304 76.1978C326.058 80.4443 324.563 86.6481 324.409 94.3584C324.255 102.057 324.053 116.493 337.967 120.407H337.979L337.967 126.374C337.967 126.374 337.884 128.794 339.473 129.28C341.395 129.873 342.534 128.034 344.372 126.053C345.381 124.962 346.769 123.373 347.824 122.151C357.338 122.946 364.656 121.119 365.487 120.846C367.408 120.217 378.286 118.83 380.053 104.394C381.88 89.5424 379.164 80.1359 374.276 75.8893ZM375.89 103.35C374.395 115.401 365.582 116.161 363.957 116.683C363.269 116.908 356.839 118.509 348.75 117.976C348.75 117.976 342.724 125.247 340.849 127.133C340.553 127.429 340.209 127.548 339.984 127.489C339.663 127.406 339.568 127.026 339.58 126.469C339.58 125.662 339.628 116.54 339.628 116.54C339.616 116.54 339.616 116.54 339.628 116.54C327.849 113.278 328.537 100.989 328.667 94.56C328.798 88.1309 330.008 82.8523 333.602 79.3056C340.043 73.4695 353.34 74.3354 353.34 74.3354C364.561 74.3829 369.935 77.7635 371.18 78.8904C375.32 82.449 377.432 90.9303 375.89 103.35Z" fill="white"/>
<path d="M359.046 94.7854C358.654 94.7854 358.322 94.477 358.298 94.0737C358.168 91.5233 356.97 90.2778 354.526 90.1474C354.111 90.1236 353.791 89.7678 353.815 89.3526C353.838 88.9374 354.194 88.6172 354.609 88.6409C357.836 88.8188 359.639 90.6693 359.805 93.9906C359.829 94.4058 359.508 94.7616 359.093 94.7735C359.069 94.7854 359.058 94.7854 359.046 94.7854Z" fill="white"/>
<path d="M362.889 96.0672H362.877C362.462 96.0554 362.13 95.7114 362.142 95.2962C362.201 92.734 361.466 90.6582 359.9 88.9501C358.346 87.242 356.199 86.3167 353.364 86.1151C352.949 86.0795 352.64 85.7236 352.676 85.3085C352.711 84.8933 353.067 84.5849 353.482 84.6205C356.685 84.8577 359.212 85.9727 361.015 87.9418C362.83 89.9228 363.707 92.4019 363.648 95.3318C363.636 95.747 363.292 96.0672 362.889 96.0672Z" fill="white"/>
<path d="M366.827 97.6083C366.412 97.6083 366.08 97.2762 366.08 96.861C366.044 92.2705 364.727 88.7712 362.047 86.1497C359.401 83.5638 356.045 82.2471 352.095 82.2115C351.679 82.2115 351.347 81.8675 351.347 81.4524C351.347 81.0372 351.691 80.7051 352.095 80.7051C356.448 80.7407 360.149 82.1997 363.079 85.0703C366.02 87.9409 367.527 91.9027 367.574 96.8373C367.586 97.2643 367.254 97.6083 366.827 97.6083C366.839 97.6083 366.839 97.6083 366.827 97.6083Z" fill="white"/>
<path d="M354.704 104.074C354.704 104.074 355.76 104.169 356.329 103.469L357.432 102.081C357.966 101.393 359.259 100.954 360.517 101.654C361.216 102.046 362.486 102.829 363.269 103.41C364.111 104.027 365.819 105.45 365.831 105.462C366.649 106.15 366.839 107.158 366.281 108.238C366.281 108.238 366.281 108.249 366.281 108.261C365.712 109.27 364.941 110.219 363.98 111.096C363.968 111.096 363.968 111.108 363.957 111.108C363.162 111.772 362.379 112.152 361.62 112.235C361.525 112.259 361.418 112.259 361.276 112.259C360.944 112.259 360.611 112.211 360.279 112.105L360.256 112.069C359.069 111.737 357.1 110.907 353.826 109.092C351.691 107.917 349.924 106.719 348.417 105.521C347.623 104.893 346.816 104.193 345.986 103.362C345.962 103.339 345.926 103.303 345.903 103.279C345.879 103.256 345.843 103.22 345.82 103.196C345.796 103.173 345.76 103.137 345.737 103.113C345.713 103.089 345.677 103.054 345.654 103.03C344.835 102.2 344.123 101.393 343.495 100.598C342.297 99.1039 341.099 97.3246 339.924 95.1894C338.109 91.9037 337.279 89.9346 336.947 88.7603L336.911 88.7365C336.805 88.4044 336.757 88.0723 336.757 87.7401C336.757 87.5978 336.757 87.491 336.781 87.3961C336.876 86.6251 337.255 85.8541 337.908 85.0593C337.908 85.0475 337.92 85.0475 337.92 85.0356C338.797 84.0629 339.746 83.3038 340.755 82.7344C340.755 82.7344 340.766 82.7344 340.778 82.7344C341.846 82.1769 342.854 82.3667 343.554 83.1852C343.554 83.1852 344.989 84.9051 345.606 85.7473C346.187 86.5421 346.97 87.7995 347.362 88.4993C348.062 89.7567 347.623 91.0496 346.935 91.5834L345.547 92.6866C344.847 93.2559 344.942 94.3117 344.942 94.3117C344.942 94.3117 346.994 102.117 354.704 104.074Z" fill="white"/>
<circle cx="629.5" cy="99.749" r="75" fill="white"/>
<circle cx="628.64" cy="99.749" r="46.875" fill="#1CC54F"/>
<path d="M649.502 79.6706C644.291 74.3062 637.087 71.394 629.73 71.394C614.096 71.394 601.528 84.1154 601.682 99.5957C601.682 104.5 603.061 109.252 605.36 113.543L601.375 128.104L616.242 124.272C620.38 126.571 624.979 127.644 629.577 127.644C645.057 127.644 657.625 114.923 657.625 99.4424C657.625 91.9322 654.713 84.8818 649.502 79.6706ZM629.73 122.893C625.592 122.893 621.453 121.82 617.928 119.674L617.009 119.214L608.119 121.513L610.418 112.777L609.805 111.857C603.061 100.975 606.28 86.5677 617.315 79.8239C628.35 73.08 642.605 76.2987 649.348 87.3341C656.092 98.3695 652.874 112.624 641.838 119.367C638.313 121.667 634.021 122.893 629.73 122.893ZM643.218 105.88L641.532 105.113C641.532 105.113 639.079 104.041 637.547 103.274C637.393 103.274 637.24 103.121 637.087 103.121C636.627 103.121 636.321 103.274 636.014 103.427C636.014 103.427 635.861 103.581 633.715 106.033C633.562 106.34 633.255 106.493 632.949 106.493H632.795C632.642 106.493 632.335 106.34 632.182 106.186L631.416 105.88C629.73 105.113 628.197 104.194 626.971 102.968C626.665 102.661 626.205 102.355 625.898 102.048C624.825 100.975 623.752 99.7489 622.986 98.3695L622.833 98.063C622.679 97.9097 622.679 97.7564 622.526 97.4499C622.526 97.1434 622.526 96.8368 622.679 96.6836C622.679 96.6836 623.293 95.9172 623.752 95.4574C624.059 95.1509 624.212 94.691 624.519 94.3845C624.825 93.9247 624.979 93.3116 624.825 92.8518C624.672 92.0855 622.833 87.9472 622.373 87.0276C622.066 86.5677 621.76 86.4145 621.3 86.2612H620.84C620.534 86.2612 620.074 86.2612 619.614 86.2612C619.308 86.2612 619.001 86.4145 618.694 86.4145L618.541 86.5677C618.235 86.721 617.928 87.0276 617.622 87.1808C617.315 87.4874 617.162 87.7939 616.855 88.1004C615.782 89.4799 615.169 91.1658 615.169 92.8518C615.169 94.078 615.476 95.3041 615.936 96.377L616.089 96.8368C617.468 99.7489 619.308 102.355 621.76 104.654L622.373 105.267C622.833 105.726 623.293 106.033 623.599 106.493C626.818 109.252 630.496 111.244 634.635 112.317C635.094 112.47 635.707 112.47 636.167 112.624C636.627 112.624 637.24 112.624 637.7 112.624C638.466 112.624 639.386 112.317 639.999 112.011C640.459 111.704 640.765 111.704 641.072 111.397L641.378 111.091C641.685 110.784 641.991 110.631 642.298 110.325C642.605 110.018 642.911 109.711 643.064 109.405C643.371 108.792 643.524 108.026 643.677 107.259C643.677 106.953 643.677 106.493 643.677 106.186C643.677 106.186 643.524 106.033 643.218 105.88Z" fill="white"/>
<circle cx="906.5" cy="99.749" r="75" fill="white"/>
<circle cx="906.5" cy="99.749" r="46.875" fill="#0085FF"/>
<rect x="878.375" y="80.0234" width="56.25" height="39.4506" rx="4.65655" fill="white"/>
<path d="M883.395 84.0653L906.091 105.651L929.605 83.4819" stroke="#322E30" stroke-width="3" stroke-linecap="round" stroke-linejoin="round"/>
<path d="M899.773 99.8169L886.086 113.935" stroke="#322E30" stroke-width="3" stroke-linecap="round" stroke-linejoin="round"/>
<path d="M912.642 99.8169L926.33 113.935" stroke="#322E30" stroke-width="3" stroke-linecap="round" stroke-linejoin="round"/>
<path d="M431 96.3809C430.448 96.3809 430 96.8286 430 97.3809C430 97.9331 430.448 98.3809 431 98.3809V96.3809ZM551.707 98.088C552.098 97.6974 552.098 97.0643 551.707 96.6738L545.343 90.3098C544.953 89.9193 544.319 89.9193 543.929 90.3098C543.538 90.7003 543.538 91.3335 543.929 91.724L549.586 97.3809L543.929 103.038C543.538 103.428 543.538 104.061 543.929 104.452C544.319 104.842 544.953 104.842 545.343 104.452L551.707 98.088ZM431 98.3809H551V96.3809H431V98.3809Z" fill="black"/>
<path d="M707.648 96.3809C707.095 96.3809 706.648 96.8286 706.648 97.3809C706.648 97.9331 707.095 98.3809 707.648 98.3809V96.3809ZM828.355 98.088C828.745 97.6974 828.745 97.0643 828.355 96.6738L821.991 90.3098C821.6 89.9193 820.967 89.9193 820.577 90.3098C820.186 90.7003 820.186 91.3335 820.577 91.724L826.233 97.3809L820.577 103.038C820.186 103.428 820.186 104.061 820.577 104.452C820.967 104.842 821.6 104.842 821.991 104.452L828.355 98.088ZM707.648 98.3809H827.648V96.3809H707.648V98.3809Z" fill="black"/>
<path d="M259.949 70.8282L260.428 70.9729L260.431 70.9615L259.949 70.8282ZM445.57 78.0965L445.096 78.2548L445.21 78.5965H445.57V78.0965ZM551.109 78.4501C551.304 78.2548 551.304 77.9382 551.109 77.743L547.927 74.561C547.732 74.3657 547.415 74.3657 547.22 74.561C547.025 74.7563 547.025 75.0728 547.22 75.2681L550.048 78.0965L547.22 80.925C547.025 81.1202 547.025 81.4368 547.22 81.6321C547.415 81.8273 547.732 81.8273 547.927 81.6321L551.109 78.4501ZM438.709 58.306L438.251 58.5057L438.709 58.306ZM161.33 97.8811H169.187V96.8811H161.33V97.8811ZM184.9 97.8811H200.613V96.8811H184.9V97.8811ZM216.327 97.8811H224.184V96.8811H216.327V97.8811ZM224.184 97.8811C226.224 97.8811 228.236 97.7177 230.204 97.4016L230.045 96.4142C228.129 96.722 226.171 96.8811 224.184 96.8811V97.8811ZM241.634 93.6212C245.217 91.7593 248.482 89.3351 251.301 86.4446L250.585 85.7464C247.84 88.5607 244.661 90.9211 241.173 92.7339L241.634 93.6212ZM258.227 76.5967C259.099 74.8046 259.837 72.9264 260.428 70.9729L259.47 70.6835C258.895 72.5859 258.176 74.4146 257.327 76.1592L258.227 76.5967ZM260.431 70.9615C261.117 68.4814 261.902 66.0422 262.78 63.6484L261.842 63.3038C260.953 65.7231 260.16 68.1883 259.467 70.6949L260.431 70.9615ZM269.229 49.7191C271.761 45.2461 274.648 40.9999 277.851 37.0185L277.071 36.3917C273.835 40.415 270.918 44.706 268.359 49.2264L269.229 49.7191ZM288.406 25.8732C292.211 22.4561 296.295 19.3432 300.618 16.5728L300.079 15.7309C295.709 18.5305 291.583 21.6762 287.738 25.1292L288.406 25.8732ZM314.173 9.37029C318.839 7.35969 323.7 5.71415 328.718 4.46962L328.478 3.49902C323.405 4.75682 318.493 6.41991 313.777 8.45191L314.173 9.37029ZM343.869 2.00207C346.401 1.79856 348.962 1.69482 351.546 1.69482V0.694824C348.935 0.694824 346.348 0.799631 343.789 1.00528L343.869 2.00207ZM351.546 1.69482C353.851 1.69482 356.136 1.77729 358.399 1.93941L358.471 0.941963C356.184 0.77814 353.875 0.694824 351.546 0.694824V1.69482ZM371.96 3.90461C376.466 4.89637 380.851 6.20955 385.09 7.81891L385.445 6.88401C381.16 5.2575 376.729 3.93031 372.175 2.92799L371.96 3.90461ZM397.51 13.6024C401.516 15.8356 405.343 18.3518 408.963 21.1239L409.571 20.3299C405.912 17.5286 402.045 14.9859 397.997 12.7289L397.51 13.6024ZM419.213 30.2168C422.403 33.4863 425.358 36.986 428.05 40.6887L428.859 40.1006C426.138 36.3589 423.152 32.8223 419.929 29.5185L419.213 30.2168ZM435.285 52.3248C436.346 54.3432 437.335 56.4046 438.251 58.5057L439.167 58.1063C438.242 55.9828 437.242 53.8995 436.171 51.8597L435.285 52.3248ZM438.251 58.5057C438.944 60.0973 439.58 61.7124 440.179 63.3441L441.118 62.9995C440.513 61.3534 439.87 59.7195 439.167 58.1063L438.251 58.5057ZM443.482 73.2633C444.01 74.9284 444.542 76.5957 445.096 78.2548L446.044 77.9382C445.493 76.2868 444.964 74.6258 444.435 72.9606L443.482 73.2633ZM445.57 78.5965H452.144V77.5965H445.57V78.5965ZM465.292 78.5965H478.441V77.5965H465.292V78.5965ZM491.589 78.5965H504.737V77.5965H491.589V78.5965ZM517.885 78.5965H531.033V77.5965H517.885V78.5965ZM544.181 78.5965H550.755V77.5965H544.181V78.5965ZM259.949 70.8282L260.906 71.1175L260.91 71.1062L260.913 71.0948L259.949 70.8282ZM445.57 78.0965L444.622 78.4132L444.85 79.0965H445.57V78.0965ZM551.463 78.8036C551.853 78.4131 551.853 77.7799 551.463 77.3894L545.099 71.0255C544.708 70.6349 544.075 70.6349 543.684 71.0255C543.294 71.416 543.294 72.0491 543.684 72.4397L549.341 78.0965L543.684 83.7534C543.294 84.1439 543.294 84.7771 543.684 85.1676C544.075 85.5581 544.708 85.5581 545.099 85.1676L551.463 78.8036ZM438.709 58.306L437.792 58.7054L438.709 58.306ZM161.33 98.3811H169.187V96.3811H161.33V98.3811ZM184.9 98.3811H200.613V96.3811H184.9V98.3811ZM216.327 98.3811H224.184V96.3811H216.327V98.3811ZM224.184 98.3811C226.251 98.3811 228.289 98.2155 230.283 97.8952L229.966 95.9205C228.076 96.2241 226.144 96.3811 224.184 96.3811V98.3811ZM241.865 94.0649C245.495 92.1785 248.803 89.7223 251.659 86.7937L250.227 85.3973C247.52 88.1736 244.383 90.502 240.943 92.2902L241.865 94.0649ZM258.676 76.8155C259.56 74.9996 260.308 73.0966 260.906 71.1175L258.992 70.5388C258.424 72.4156 257.715 74.2196 256.878 75.9405L258.676 76.8155ZM260.913 71.0948C261.595 68.6279 262.376 66.2017 263.25 63.8207L261.372 63.1315C260.479 65.5636 259.682 68.0418 258.985 70.5616L260.913 71.0948ZM269.664 49.9655C272.183 45.5161 275.054 41.2923 278.24 37.3319L276.682 36.0784C273.429 40.1226 270.496 44.436 267.924 48.9801L269.664 49.9655ZM288.741 26.2452C292.525 22.8461 296.587 19.7496 300.888 16.9938L299.809 15.3099C295.417 18.1242 291.269 21.2862 287.404 24.7572L288.741 26.2452ZM314.371 9.82948C319.012 7.82958 323.847 6.19282 328.839 4.95492L328.357 3.01372C323.258 4.27815 318.32 5.95001 313.579 7.99273L314.371 9.82948ZM343.909 2.50046C346.428 2.29802 348.975 2.19482 351.546 2.19482V0.194824C348.922 0.194824 346.321 0.300168 343.749 0.50689L343.909 2.50046ZM351.546 2.19482C353.839 2.19482 356.112 2.27686 358.364 2.43813L358.507 0.443241C356.208 0.278567 353.887 0.194824 351.546 0.194824V2.19482ZM371.853 4.39292C376.334 5.37939 380.696 6.68558 384.912 8.28636L385.622 6.41656C381.315 4.78147 376.86 3.44728 372.283 2.43968L371.853 4.39292ZM397.267 14.0391C401.251 16.2605 405.058 18.7634 408.659 21.5209L409.875 19.9329C406.197 17.1171 402.31 14.561 398.241 12.2922L397.267 14.0391ZM418.855 30.566C422.028 33.8183 424.968 37.2996 427.646 40.9828L429.263 39.8065C426.528 36.0453 423.527 32.4903 420.287 29.1693L418.855 30.566ZM434.843 52.5573C435.898 54.565 436.882 56.6155 437.792 58.7054L439.626 57.9067C438.696 55.772 437.691 53.6777 436.613 51.6272L434.843 52.5573ZM437.792 58.7054C438.481 60.2862 439.113 61.8919 439.71 63.5164L441.587 62.8273C440.98 61.1739 440.333 59.5306 439.626 57.9067L437.792 58.7054ZM443.005 73.4146C443.534 75.0797 444.066 76.7501 444.622 78.4132L446.519 77.7799C445.969 76.1323 445.44 74.4745 444.911 72.8093L443.005 73.4146ZM445.57 79.0965H452.144V77.0965H445.57V79.0965ZM465.292 79.0965H478.441V77.0965H465.292V79.0965ZM491.589 79.0965H504.737V77.0965H491.589V79.0965ZM517.885 79.0965H531.033V77.0965H517.885V79.0965ZM544.181 79.0965H550.755V77.0965H544.181V79.0965Z" fill="#A3B5D6"/>
<path d="M259.949 123.847L260.427 123.7L260.429 123.706L260.431 123.713L259.949 123.847ZM720.522 116.578L720.048 116.42L720.162 116.078L720.522 116.078L720.522 116.578ZM827.305 116.225C827.5 116.42 827.5 116.737 827.305 116.932L824.123 120.114C823.928 120.309 823.611 120.309 823.416 120.114C823.221 119.919 823.221 119.602 823.416 119.407L826.244 116.578L823.416 113.75C823.221 113.555 823.221 113.238 823.416 113.043C823.611 112.848 823.928 112.848 824.123 113.043L827.305 116.225ZM630.998 193.375L630.974 192.876L630.998 193.375ZM712.066 139.838L712.516 140.056L712.066 139.838ZM161.33 96.7937L169.163 96.7937L169.163 97.7937L161.33 97.7937L161.33 96.7937ZM184.829 96.7937L200.495 96.7937L200.495 97.7937L184.829 97.7937L184.829 96.7937ZM216.161 96.7937L223.993 96.7937L223.993 97.7937L216.161 97.7937L216.161 96.7937ZM223.993 96.7937C226.04 96.7937 228.057 96.9569 230.031 97.2727L229.873 98.2602C227.951 97.9527 225.987 97.7937 223.993 97.7937L223.993 96.7937ZM241.498 101.049C245.094 102.909 248.374 105.332 251.21 108.221L250.496 108.922C247.735 106.108 244.54 103.749 241.039 101.937L241.498 101.049ZM258.193 118.071C259.075 119.864 259.825 121.744 260.427 123.7L259.471 123.994C258.885 122.089 258.155 120.258 257.296 118.512L258.193 118.071ZM260.431 123.713C261.117 126.193 261.902 128.633 262.78 131.026L261.842 131.371C260.953 128.952 260.16 126.487 259.467 123.98L260.431 123.713ZM269.229 144.956C271.761 149.429 274.648 153.675 277.851 157.656L277.071 158.283C273.835 154.26 270.918 149.969 268.359 145.448L269.229 144.956ZM288.406 168.802C292.211 172.219 296.295 175.332 300.618 178.102L300.079 178.944C295.709 176.144 291.583 172.999 287.738 169.546L288.406 168.802ZM314.173 185.305C318.839 187.315 323.7 188.961 328.718 190.205L328.478 191.176C323.405 189.918 318.493 188.255 313.777 186.223L314.173 185.305ZM343.869 192.673C346.401 192.876 348.962 192.98 351.546 192.98L351.546 193.98C348.935 193.98 346.348 193.875 343.789 193.67L343.869 192.673ZM351.546 192.98C351.693 192.98 354.428 192.98 359.249 192.979L359.249 193.979C354.428 193.98 351.693 193.98 351.546 193.98L351.546 192.98ZM374.708 192.977C379.34 192.976 384.556 192.975 390.253 192.974L390.254 193.974C384.556 193.975 379.34 193.976 374.709 193.977L374.708 192.977ZM405.882 192.972C410.82 192.971 415.989 192.97 421.342 192.969L421.342 193.969C415.989 193.97 410.821 193.971 405.883 193.972L405.882 192.972ZM436.89 192.966C441.976 192.965 447.176 192.964 452.457 192.963L452.457 193.963C447.177 193.964 441.976 193.965 436.89 193.966L436.89 192.966ZM467.971 192.959C473.115 192.958 478.302 192.957 483.503 192.956L483.503 193.956C478.302 193.957 473.115 193.958 467.972 193.959L467.971 192.959ZM499.041 192.952C504.242 192.95 509.429 192.949 514.573 192.948L514.573 193.948C509.429 193.949 504.243 193.95 499.041 193.952L499.041 192.952ZM530.087 192.943C535.367 192.941 540.568 192.94 545.654 192.938L545.654 193.938C540.568 193.94 535.368 193.941 530.087 193.943L530.087 192.943ZM561.202 192.932C566.555 192.93 571.724 192.928 576.662 192.926L576.662 193.926C571.724 193.928 566.556 193.93 561.202 193.932L561.202 192.932ZM592.29 192.918C597.988 192.915 603.204 192.912 607.835 192.909L607.836 193.909C603.204 193.912 597.988 193.915 592.291 193.918L592.29 192.918ZM623.295 192.895C625.706 192.892 627.595 192.888 628.9 192.885C629.552 192.884 630.057 192.882 630.409 192.88C630.585 192.88 630.722 192.879 630.819 192.878C630.867 192.878 630.905 192.877 630.933 192.877C630.964 192.876 630.975 192.876 630.974 192.876L631.021 193.875C630.861 193.882 628.105 193.889 623.296 193.895L623.295 192.895ZM630.974 192.876C633.815 192.744 636.623 192.486 639.392 192.108L639.528 193.099C636.729 193.481 633.891 193.741 631.021 193.875L630.974 192.876ZM655.847 188.336C661.248 186.573 666.436 184.338 671.36 181.677L671.836 182.557C666.859 185.246 661.616 187.505 656.157 189.286L655.847 188.336ZM685.439 172.359C689.847 168.839 693.933 164.934 697.645 160.694L698.398 161.352C694.646 165.637 690.517 169.584 686.063 173.14L685.439 172.359ZM707.593 147.052C709.04 144.643 710.383 142.163 711.616 139.62L712.516 140.056C711.27 142.626 709.913 145.132 708.451 147.567L707.593 147.052ZM711.616 139.62C712.512 137.77 713.324 135.887 714.077 133.98L715.007 134.348C714.246 136.273 713.425 138.18 712.516 140.056L711.616 139.62ZM718.131 122.314C718.763 120.351 719.393 118.382 720.048 116.42L720.997 116.737C720.344 118.692 719.716 120.655 719.083 122.62L718.131 122.314ZM720.522 116.078L727.174 116.078L727.174 117.078L720.522 117.078L720.522 116.078ZM740.478 116.078L753.781 116.078L753.781 117.078L740.478 117.078L740.478 116.078ZM767.085 116.078L780.389 116.078L780.389 117.078L767.085 117.078L767.085 116.078ZM793.692 116.078L806.996 116.078L806.996 117.078L793.692 117.078L793.692 116.078ZM820.3 116.078L826.951 116.078L826.951 117.078L820.3 117.078L820.3 116.078ZM259.949 123.847L260.905 123.552L260.909 123.566L260.913 123.58L259.949 123.847ZM720.522 116.578L719.574 116.262L719.802 115.578L720.522 115.578L720.522 116.578ZM827.659 115.871C828.049 116.262 828.049 116.895 827.659 117.285L821.295 123.649C820.904 124.04 820.271 124.04 819.88 123.649C819.49 123.259 819.49 122.626 819.88 122.235L825.537 116.578L819.88 110.921C819.49 110.531 819.49 109.898 819.88 109.507C820.271 109.117 820.904 109.117 821.295 109.507L827.659 115.871ZM630.998 193.375L630.951 192.376L630.998 193.375ZM712.066 139.838L712.965 140.275L712.066 139.838ZM161.33 96.2937L169.163 96.2937L169.163 98.2937L161.33 98.2937L161.33 96.2937ZM184.829 96.2937L200.495 96.2937L200.495 98.2937L184.829 98.2937L184.829 96.2937ZM216.161 96.2937L223.993 96.2937L223.993 98.2937L216.161 98.2937L216.161 96.2937ZM223.993 96.2937C226.066 96.2937 228.11 96.4591 230.11 96.779L229.794 98.7539C227.898 98.4506 225.96 98.2937 223.993 98.2937L223.993 96.2937ZM241.728 100.605C245.371 102.49 248.694 104.944 251.567 107.871L250.14 109.272C247.415 106.496 244.264 104.169 240.809 102.381L241.728 100.605ZM258.642 117.85C259.536 119.667 260.295 121.571 260.905 123.552L258.993 124.141C258.415 122.261 257.695 120.455 256.847 118.733L258.642 117.85ZM260.913 123.58C261.595 126.047 262.376 128.473 263.25 130.854L261.372 131.543C260.479 129.111 259.682 126.633 258.985 124.113L260.913 123.58ZM269.664 144.709C272.183 149.159 275.054 153.383 278.24 157.343L276.682 158.596C273.429 154.552 270.496 150.239 267.924 145.695L269.664 144.709ZM288.741 168.43C292.525 171.829 296.587 174.925 300.888 177.681L299.809 179.365C295.417 176.551 291.269 173.389 287.404 169.918L288.741 168.43ZM314.371 184.845C319.012 186.845 323.847 188.482 328.839 189.72L328.357 191.661C323.258 190.397 318.32 188.725 313.579 186.682L314.371 184.845ZM343.909 192.174C346.428 192.377 348.975 192.48 351.546 192.48L351.546 194.48C348.922 194.48 346.321 194.375 343.749 194.168L343.909 192.174ZM351.546 192.48C351.693 192.48 354.428 192.48 359.249 192.479L359.249 194.479C354.428 194.48 351.693 194.48 351.546 194.48L351.546 192.48ZM374.708 192.477C379.34 192.476 384.556 192.475 390.253 192.474L390.254 194.474C384.556 194.475 379.34 194.476 374.709 194.477L374.708 192.477ZM405.882 192.472C410.82 192.471 415.989 192.47 421.342 192.469L421.342 194.469C415.989 194.47 410.821 194.471 405.883 194.472L405.882 192.472ZM436.89 192.466C441.976 192.465 447.176 192.464 452.457 192.463L452.457 194.463C447.177 194.464 441.976 194.465 436.89 194.466L436.89 192.466ZM467.971 192.459C473.115 192.458 478.302 192.457 483.503 192.456L483.503 194.456C478.302 194.457 473.115 194.458 467.972 194.459L467.971 192.459ZM499.041 192.452C504.242 192.45 509.429 192.449 514.573 192.448L514.573 194.448C509.43 194.449 504.243 194.45 499.041 194.452L499.041 192.452ZM530.087 192.443C535.367 192.441 540.568 192.44 545.654 192.438L545.655 194.438C540.568 194.44 535.368 194.441 530.087 194.443L530.087 192.443ZM561.202 192.432C566.555 192.43 571.724 192.428 576.662 192.426L576.662 194.426C571.724 194.428 566.556 194.43 561.203 194.432L561.202 192.432ZM592.29 192.418C597.987 192.415 603.203 192.412 607.835 192.409L607.836 194.409C603.205 194.412 597.989 194.415 592.291 194.418L592.29 192.418ZM623.294 192.395C625.705 192.392 627.594 192.388 628.898 192.385C629.55 192.384 630.056 192.382 630.407 192.38C630.582 192.38 630.718 192.379 630.815 192.378C630.923 192.377 630.957 192.376 630.951 192.376L631.044 194.374C630.869 194.382 628.092 194.389 623.297 194.395L623.294 192.395ZM630.951 192.376C633.777 192.245 636.57 191.988 639.325 191.613L639.595 193.594C636.782 193.978 633.929 194.24 631.044 194.374L630.951 192.376ZM655.692 187.86C661.064 186.107 666.224 183.884 671.123 181.238L672.073 182.997C667.07 185.7 661.8 187.971 656.312 189.762L655.692 187.86ZM685.127 171.968C689.512 168.467 693.576 164.582 697.269 160.364L698.774 161.682C695.003 165.989 690.852 169.956 686.375 173.531L685.127 171.968ZM707.165 146.795C708.604 144.398 709.94 141.932 711.166 139.402L712.965 140.275C711.714 142.858 710.349 145.377 708.879 147.825L707.165 146.795ZM711.166 139.402C712.056 137.565 712.862 135.694 713.612 133.797L715.472 134.532C714.707 136.467 713.881 138.385 712.965 140.275L711.166 139.402ZM717.655 122.161C718.287 120.199 718.918 118.227 719.574 116.262L721.471 116.895C720.819 118.847 720.192 120.807 719.558 122.774L717.655 122.161ZM720.522 115.578L727.174 115.578L727.174 117.578L720.522 117.578L720.522 115.578ZM740.478 115.578L753.781 115.578L753.781 117.578L740.478 117.578L740.478 115.578ZM767.085 115.578L780.389 115.578L780.389 117.578L767.085 117.578L767.085 115.578ZM793.692 115.578L806.996 115.578L806.996 117.578L793.692 117.578L793.692 115.578ZM820.3 115.578L826.951 115.578L826.951 117.578L820.3 117.578L820.3 115.578Z" fill="#A3B5D6"/>
<circle cx="767.648" cy="97.2941" r="9.05049" fill="black"/>
<path d="M767.036 102.524C769.204 102.524 770.899 101.371 771.178 99.6606C771.392 98.3679 770.686 97.3637 769.358 97.1648V97.1002C770.527 96.8616 771.387 96.1357 771.571 94.9873C771.824 93.4361 770.705 92.064 768.627 92.064C766.698 92.064 765.003 93.2472 764.695 94.9475H766.46C766.609 94.0924 767.583 93.5604 768.538 93.5604C769.487 93.5604 769.945 94.0874 769.811 94.8878C769.652 95.8374 768.781 96.4738 767.718 96.4738H766.862L766.629 97.8956H767.568C768.836 97.8956 769.468 98.4723 769.333 99.3573C769.184 100.317 768.225 100.978 767.111 100.978C766.102 100.978 765.46 100.436 765.56 99.6158H763.72C763.462 101.341 764.844 102.524 767.036 102.524Z" fill="white"/>
<path d="M154.821 96.3809C154.268 96.3809 153.821 96.8286 153.821 97.3809C153.821 97.9331 154.268 98.3809 154.821 98.3809V96.3809ZM275.528 98.088C275.918 97.6974 275.918 97.0643 275.528 96.6738L269.164 90.3098C268.773 89.9193 268.14 89.9193 267.749 90.3098C267.359 90.7003 267.359 91.3335 267.749 91.724L273.406 97.3809L267.749 103.038C267.359 103.428 267.359 104.061 267.749 104.452C268.14 104.842 268.773 104.842 269.164 104.452L275.528 98.088ZM154.821 98.3809H274.821V96.3809H154.821V98.3809Z" fill="black"/>
<circle cx="214.821" cy="97.2941" r="9.05049" fill="black"/>
<path d="M217.239 92.2031H215.484L212.68 93.8288L212.402 95.5192L215.037 93.9979H215.096L213.704 102.385H215.549L217.239 92.2031Z" fill="white"/>
<circle cx="491" cy="97.2941" r="9.05049" fill="black"/>
<path d="M486.951 102.455H493.931L494.185 100.914H489.755L489.77 100.844L491.814 99.0592C494.11 97.1601 494.806 96.2354 495.005 95.0869C495.294 93.3817 494.13 92.1338 492.077 92.1338C490.054 92.1338 488.398 93.3866 488.075 95.3206H489.83C490.004 94.2865 490.794 93.6302 491.804 93.6302C492.778 93.6302 493.38 94.2219 493.22 95.1814C493.076 96.0265 492.46 96.6331 491.282 97.6572L487.175 101.122L486.951 102.455Z" fill="white"/>
<defs>
<filter id="filter0_f" x="22.6496" y="76.4072" width="62.6874" height="62.6874" filterUnits="userSpaceOnUse" color-interpolation-filters="sRGB">
<feFlood flood-opacity="0" result="BackgroundImageFix"/>
<feBlend mode="normal" in="SourceGraphic" in2="BackgroundImageFix" result="shape"/>
<feGaussianBlur stdDeviation="7.5" result="effect1_foregroundBlur"/>
</filter>
<filter id="filter1_f" x="67.081" y="73.5864" width="62.6874" height="62.6874" filterUnits="userSpaceOnUse" color-interpolation-filters="sRGB">
<feFlood flood-opacity="0" result="BackgroundImageFix"/>
<feBlend mode="normal" in="SourceGraphic" in2="BackgroundImageFix" result="shape"/>
<feGaussianBlur stdDeviation="7.5" result="effect1_foregroundBlur"/>
</filter>
<filter id="filter2_f" x="57.2004" y="37.2866" width="34.5451" height="36.0659" filterUnits="userSpaceOnUse" color-interpolation-filters="sRGB">
<feFlood flood-opacity="0" result="BackgroundImageFix"/>
<feBlend mode="normal" in="SourceGraphic" in2="BackgroundImageFix" result="shape"/>
<feGaussianBlur stdDeviation="5" result="effect1_foregroundBlur"/>
</filter>
<filter id="filter3_f" x="69.5451" y="42.5352" width="35.4304" height="35.2159" filterUnits="userSpaceOnUse" color-interpolation-filters="sRGB">
<feFlood flood-opacity="0" result="BackgroundImageFix"/>
<feBlend mode="normal" in="SourceGraphic" in2="BackgroundImageFix" result="shape"/>
<feGaussianBlur stdDeviation="5" result="effect1_foregroundBlur"/>
</filter>
</defs>
</svg>
