<?xml version="1.0" encoding="UTF-8"?>
<!DOCTYPE svg PUBLIC "-//W3C//DTD SVG 1.1//EN" "http://www.w3.org/Graphics/SVG/1.1/DTD/svg11.dtd">
<!-- Creator: CorelDRAW X8 -->
<svg xmlns="http://www.w3.org/2000/svg" xml:space="preserve" width="28.1032mm" height="28.4808mm" version="1.1" style="shape-rendering:geometricPrecision; text-rendering:geometricPrecision; image-rendering:optimizeQuality; fill-rule:evenodd; clip-rule:evenodd"
viewBox="0 0 1594054 1615472"
 xmlns:xlink="http://www.w3.org/1999/xlink">
 <defs>
  <style type="text/css">
   <![CDATA[
    .str0 {stroke:#3B3B3B;stroke-width:4322.17}
    .str1 {stroke:#B3B3B3;stroke-width:4322.17}
    .str2 {stroke:#CCCCCC;stroke-width:4322.17}
    .fil36 {fill:none;fill-rule:nonzero}
    .fil4 {fill:#116BC4}
    .fil25 {fill:#1A1A1A}
    .fil8 {fill:#343B3F}
    .fil23 {fill:#3B3B3B}
    .fil11 {fill:#3B4249}
    .fil18 {fill:#424242}
    .fil5 {fill:#496E64}
    .fil35 {fill:#4D4D4D}
    .fil19 {fill:#4D4D50}
    .fil14 {fill:#4D94DB}
    .fil27 {fill:#59595B}
    .fil31 {fill:#595B5D}
    .fil15 {fill:#6D6E70}
    .fil17 {fill:#808082}
    .fil24 {fill:#854D3B}
    .fil16 {fill:#A5A7A8}
    .fil30 {fill:#B6907C}
    .fil28 {fill:#C19780}
    .fil0 {fill:#CCCCCC}
    .fil29 {fill:#CDDFED}
    .fil22 {fill:#CFB3A7}
    .fil33 {fill:#CFCFCF}
    .fil7 {fill:#DF9C00}
    .fil3 {fill:#E2C1B1}
    .fil6 {fill:#E2C3B3}
    .fil12 {fill:#E3BE4D}
    .fil21 {fill:#E4E6E6}
    .fil32 {fill:#E6E6E6}
    .fil10 {fill:#E8C6B5}
    .fil9 {fill:#EFCFBF}
    .fil13 {fill:#F5CA56}
    .fil26 {fill:#1A1A1A;fill-rule:nonzero}
    .fil34 {fill:#333333;fill-rule:nonzero}
    .fil20 {fill:#666666;fill-rule:nonzero}
    .fil37 {fill:#B3B3B3;fill-rule:nonzero}
    .fil1 {fill:#CCCCCC;fill-rule:nonzero}
    .fil2 {fill:#E6E6E6;fill-rule:nonzero}
   ]]>
  </style>
 </defs>
 <g id="Слой_x0020_1">
  <metadata id="CorelCorpID_0Corel-Layer"/>
  <path class="fil0" d="M0 1590163c0,13976 356840,25309 797027,25309 440187,0 797027,-11333 797027,-25309 0,-13982 -356840,-25309 -797027,-25309 -440187,0 -797027,11327 -797027,25309z"/>
  <path class="fil1" d="M361463 553709c-1821,-3114 -3188,-5485 -4056,-7073 -5133,-9371 -8230,-18151 -9279,-26404 -885,-6222 -584,-13097 907,-20681 1089,-5541 3812,-14214 8055,-26018 4294,-11826 6460,-20544 6568,-26256 85,-5757 -1276,-11129 -4101,-16291 -5110,-9325 -13222,-15536 -24328,-18627 -11117,-3097 -21928,-1764 -32427,3988 -10182,5581 -16886,13431 -20182,23533 -3318,10176 -2269,22610 3075,37402l-26087 10403c-7725,-19370 -8848,-36880 -3221,-52495 5626,-15622 17368,-28356 35292,-38174 18973,-10397 36914,-13517 53913,-9348 16949,4192 29478,13625 37539,28338 4668,8514 6965,17436 6897,26767 -34,9382 -3063,22343 -9019,38962 -4016,11152 -6313,18996 -6920,23574 -618,4566 -323,9296 874,14169 1174,4832 4265,12087 9319,21730l-22819 12501zm21849 50187l-14878 -27158 27158 -14878 14878 27158 -27158 14878z"/>
  <path class="fil1" d="M122314 1009772c-743,-1259 -1299,-2224 -1656,-2870 -2099,-3801 -3369,-7363 -3806,-10715 -369,-2530 -255,-5326 346,-8412 431,-2251 1526,-5780 3239,-10584 1730,-4810 2597,-8361 2631,-10681 29,-2342 -533,-4520 -1684,-6619 -2093,-3778 -5394,-6296 -9915,-7538 -4521,-1242 -8911,-687 -13171,1662 -4135,2286 -6852,5485 -8173,9591 -1339,4141 -897,9195 1293,15202l-10590 4259c-3165,-7861 -3641,-14980 -1373,-21332 2264,-6359 7022,-11549 14294,-15565 7697,-4248 14986,-5536 21906,-3868 6892,1684 11997,5502 15292,11475 1906,3454 2853,7073 2836,10867 0,3812 -1214,9087 -3613,15848 -1622,4538 -2541,7731 -2785,9592 -244,1860 -119,3778 374,5757 482,1963 1747,4907 3812,8820l-9257 5111zm8945 20374l-6080 -11021 11020 -6086 6081 11021 -11021 6086z"/>
  <path class="fil2" d="M1418569 1597088c0,5797 -234401,10494 -523545,10494 -289143,0 -523538,-4697 -523538,-10494 0,-5791 234395,-10493 523538,-10493 289144,0 523545,4702 523545,10493z"/>
  <path class="fil3" d="M908462 1281354c-4424,10618 -21129,46676 -64464,92150 -30760,32280 -142212,106426 -152229,125133 -7124,13295 -17056,18015 -18605,18015 -5326,0 -53516,7078 -56171,8406 -1668,834 -16602,11446 -29121,18888 -6937,5513 -15099,11520 -17487,11271 -2655,-273 -2586,-2802 -2144,-4714 -295,-62 -590,-130 -879,-199 -1163,1288 -2763,2751 -4056,2814 -2320,108 -5088,-777 -3760,-2655 527,-743 1327,-1866 2104,-2949 -108,-153 -204,-312 -284,-482 -794,431 -1724,567 -2705,5 -2870,-1662 12405,-16551 12405,-16551 12490,-15190 32983,-38281 32983,-38281l66353 -8503c0,0 140754,-133420 146063,-139608 5309,-6194 51197,-94804 51197,-94804l40800 32064z"/>
  <path class="fil4" d="M899761 1184865c-5831,5360 -75338,128486 -71651,130471 3681,1991 47550,34986 49977,30964 2428,-4027 65899,-118536 65899,-118536l-44225 -42899z"/>
  <path class="fil5" d="M910311 1158206c-1231,-1231 -15576,-12495 -15576,-12495 0,0 -21106,35241 -18644,37702 2456,2456 24175,29915 24997,26228 817,-3687 9223,-51435 9223,-51435z"/>
  <path class="fil6" d="M869403 1106091c2865,2047 25389,30482 30619,60510 5235,30034 19268,22048 20987,18962l41066 -73579 -47085 -50204 -45587 44311z"/>
  <path class="fil4" d="M975251 1098694c-3539,-1770 -35388,-19631 -37152,-16806 -1764,2819 -57113,98411 -55786,101066 1327,2654 16319,48292 17204,44753 885,-3539 75734,-129013 75734,-129013z"/>
  <path class="fil7" d="M1048819 1447588c-23885,-7958 -137113,-76075 -162762,-60148 -25655,15922 -35162,64447 -26313,75065 8843,10613 164532,53188 183766,39927 19234,-13256 5309,-54844 5309,-54844z"/>
  <path class="fil8" d="M999086 1462307c-11503,-5752 -69002,-28310 -69002,-28310l-9285 -9728 1769 19904 -453 13647 76971 4487z"/>
  <path class="fil4" d="M923391 1266380c2649,4418 25649,38922 48650,96415 23000,57498 16806,122076 21231,122076 4418,0 153028,9727 153028,9727 0,0 -23879,-141531 -57498,-199029 -33613,-57499 -55723,-89342 -61032,-85803 -5309,3539 -104379,56614 -104379,56614z"/>
  <path class="fil9" d="M626874 1512579c-6444,3778 -50074,18582 -49654,20698 709,3579 2830,6001 7465,6506 4639,504 29965,-7340 28610,-9320 -1356,-1979 13579,-17884 13579,-17884z"/>
  <path class="fil9" d="M923499 1302585c-4419,10613 -21123,46676 -64459,92150 -30760,32280 -142212,106426 -152234,125133 -7124,13295 -17056,18014 -18605,18014 -5326,0 -53517,7079 -56171,8407 -936,465 -6064,4021 -12598,8372l-23 11c-5048,3358 -10930,7187 -16369,10425 -8214,5117 -16813,10256 -18724,10585 -3063,521 -4946,5 -4612,-2383 -397,165 -714,273 -936,307 -3522,607 -5485,-165 -4310,-3574 -2734,91 -3891,-1191 -2213,-4855 250,-545 868,-1344 1765,-2343 11,-709 260,-1611 782,-2745 1322,-2882 13114,-13228 21736,-20766 11032,-12898 22558,-25887 22558,-25887l66353 -8503c0,0 140760,-133420 146063,-139608 5309,-6194 51197,-94805 51197,-94805l40800 32065z"/>
  <path class="fil10" d="M902336 1341025c-10000,15099 -24010,33471 -43296,53710 -30760,32280 -142212,106426 -152234,125133 -7124,13295 -17056,18014 -18605,18014 -5326,0 -53517,7079 -56171,8407 -936,465 -6064,4021 -12598,8372l-23 11c-5048,3358 -10930,7187 -16369,10425 -8214,5117 -16813,10256 -18724,10585 -1827,312 -3233,255 -4005,-352 664,-96 1322,-255 1912,-482 2433,-942 47493,-31350 47493,-31350 0,0 47215,-6523 57277,-11055 10062,-4532 15593,-19019 15593,-19019 0,0 147277,-122626 154356,-131032 7073,-8400 33953,-58979 33953,-58979l11441 17612z"/>
  <path class="fil11" d="M989982 1537361c-23886,47770 -77459,57010 -121186,28746 -39931,-25808 -68553,-47765 -23442,-66784 45116,-19018 144628,38038 144628,38038z"/>
  <path class="fil12" d="M1118881 1469550c-17691,-4424 -267577,-46438 -304957,-36931 -37374,9506 -52416,43119 -48877,67005 3540,23885 121191,43346 163647,55729 42462,12382 126495,42461 189302,32728 58639,-9081 45139,-119762 885,-118531z"/>
  <path class="fil13" d="M1075699 1461694c-77595,-13074 -232932,-36409 -261775,-29075 -25048,6370 -40062,23573 -46177,41412 60851,-45587 254316,-3987 308735,10392 0,0 -238,-11333 -783,-22729z"/>
  <path class="fil13" d="M1128694 1510923c-28,85 -10771,29977 -39557,30924 -12332,403 -64635,-9166 -120454,-19376 -68667,-12558 -142689,-26103 -152195,-23199 -17198,5247 -24475,20029 -24492,20068l-4731 -2382c23,-45 8287,-16824 27686,-22745 10743,-3273 85417,10385 154685,23057 55530,10159 107566,19677 119336,19291 25173,-828 34719,-27385 34748,-27459l4974 1821z"/>
  <path class="fil14" d="M996040 1097809c-4867,443 -42020,7073 -42020,7073 0,0 -62365,140204 -66783,150823 -4425,10612 -40346,70312 -34152,71196 6194,885 76608,47334 76608,42031 0,-5309 15921,-73420 15921,-73420 0,0 22116,14152 62808,68111 40692,53959 8054,90800 18650,90193 4906,-278 20516,33959 46313,53210 29915,22326 70942,29688 83772,21894 23902,-14520 49410,-21996 49410,-21996 0,0 -44957,-129024 -48497,-134333 -3539,-5304 -77998,-172615 -106302,-207113 -28309,-34504 -55728,-67669 -55728,-67669z"/>
  <path class="fil4" d="M996040 1097809c-3534,318 -24079,3903 -35071,5843 -1764,7044 -28843,46069 -26325,44827 6376,-3137 47425,-40942 64657,-20432 32547,38736 127379,239206 144827,272297 18094,34322 41032,69739 54997,85304 -12932,-36869 -38423,-109110 -41055,-113057 -3539,-5304 -77998,-172615 -106302,-207113 -28309,-34504 -55728,-67669 -55728,-67669z"/>
  <path class="fil4" d="M896959 1352188c17152,10283 32734,19240 32734,16744 0,-5309 15921,-73420 15921,-73420 0,0 19904,16143 60596,70102 40692,53959 12422,88593 18928,88593 6500,0 9489,14010 18712,20930 4856,-12830 11577,-28621 8724,-62405 -2853,-33783 -44226,-71208 -59529,-108105 -15298,-36892 -23177,-94464 -23177,-94464 0,0 -59268,127822 -62365,135343 -1043,2536 -5099,4867 -10544,6682z"/>
  <path class="fil15" d="M936528 1580310c-30375,6795 -180704,30885 -206200,-19506 -6546,-12939 2995,-49705 26030,-58299 23034,-8593 59251,5043 81531,9218 22280,4174 26824,5195 62042,2824 74288,-4997 59824,60567 36597,65763z"/>
  <path class="fil16" d="M935342 1575024c4844,-1084 8758,-6166 10885,-10341 3091,-6080 4362,-13437 3227,-20175 -1299,-7698 -5519,-13784 -12098,-17947 -10465,-6625 -25071,-7414 -37062,-6608 -13999,941 -28945,2082 -42933,505 -6852,-777 -13692,-2139 -20470,-3409 -21691,-4067 -57499,-17351 -78639,-9467 -1066,397 -2104,873 -3108,1418 -6484,3505 -11413,9745 -14799,16177 -3137,5950 -5366,12802 -6239,19472 -505,3897 -772,10097 1060,13710 13982,27646 73387,28712 99603,28173 20346,-419 40806,-2217 60982,-4866 13096,-1725 26693,-3755 39591,-6642z"/>
  <g id="_789634368">
   <g>
    <path class="fil17" d="M744276 1569091l0 -50227c-1135,1543 -2167,3153 -3097,4787l0 42751c964,942 2002,1832 3097,2689z"/>
    <path class="fil17" d="M758428 1576947l0 -69428 -176 63c-998,374 -1974,811 -2921,1316l0 66733c1010,459 2042,896 3097,1316z"/>
    <path class="fil17" d="M772580 1581365l0 -76222c-1049,28 -2082,74 -3097,153l0 75286c1021,273 2059,534 3097,783z"/>
    <path class="fil17" d="M786732 1584059l0 -78014c-1038,-142 -2070,-261 -3097,-375l0 77907c1032,170 2065,329 3097,482z"/>
    <path class="fil17" d="M800884 1585648l0 -77085c-1032,-221 -2059,-437 -3091,-646l0 77458c1032,97 2064,188 3091,273z"/>
    <path class="fil17" d="M815042 1586442l0 -74544c-1027,-261 -2059,-516 -3097,-771l0 75201c1043,40 2076,80 3097,114z"/>
    <path class="fil17" d="M829194 1586606l0 -71208c-1016,-238 -2048,-488 -3097,-743l0 71963c1060,0 2093,0 3097,-12z"/>
    <path class="fil17" d="M843346 1586272l0 -68009c-1033,-193 -2065,-386 -3097,-579l0 68701c1032,-34 2064,-68 3097,-113z"/>
    <path class="fil17" d="M857498 1585517l0 -65048 -131 -11c-993,-114 -1979,-239 -2966,-369l0 65627c1032,-63 2064,-125 3097,-199z"/>
    <path class="fil17" d="M871650 1584383l0 -63148c-1033,-6 -2065,-17 -3092,-46l0 63472c1033,-91 2065,-182 3092,-278z"/>
    <path class="fil17" d="M885807 1582897l0 -62031c-1032,51 -2064,102 -3097,148l0 62234c1033,-113 2065,-232 3097,-351z"/>
    <path class="fil17" d="M899959 1581099l0 -61123 -3097 209 0 61333c1033,-136 2065,-278 3097,-419z"/>
    <path class="fil17" d="M914111 1579023l0 -59110c-1032,-74 -2064,-125 -3097,-159l0 59751c1033,-153 2065,-318 3097,-482z"/>
    <path class="fil17" d="M928263 1576510l0 -54073c-1015,-317 -2047,-601 -3091,-862l0 55536c1032,-199 2065,-397 3091,-601z"/>
    <path class="fil17" d="M942421 1570344l0 -39733c-953,-959 -1985,-1861 -3097,-2694l0 45258c1117,-795 2155,-1770 3097,-2831z"/>
   </g>
  </g>
  <path class="fil18" d="M419943 1586056l-5264 1866c-465,170 -925,289 -1390,363l-89013 -248695c568,-891 1305,-1526 2230,-1951 2297,-823 2008,-721 4322,-1543l89115 249960z"/>
  <g id="_789638424">
   <polygon class="fil18" points="443658,1577593 430289,1577593 430289,1576220 443658,1576220 "/>
   <polygon class="fil18" points="460232,1577593 446863,1577593 446863,1576220 460232,1576220 "/>
   <polygon class="fil18" points="476806,1577593 463437,1577593 463437,1576220 476806,1576220 "/>
   <polygon class="fil18" points="493380,1577593 480011,1577593 480011,1576220 493380,1576220 "/>
   <polygon class="fil18" points="509948,1577593 496585,1577593 496585,1576220 509948,1576220 "/>
   <polygon class="fil18" points="526522,1577593 513159,1577593 513159,1576220 526522,1576220 "/>
   <polygon class="fil18" points="543096,1577593 529727,1577593 529727,1576220 543096,1576220 "/>
   <polygon class="fil18" points="559670,1577593 546301,1577593 546301,1576220 559670,1576220 "/>
   <polygon class="fil18" points="576244,1577593 562875,1577593 562875,1576220 576244,1576220 "/>
  </g>
  <path class="fil19" d="M655280 1577241l-241191 0c-3664,0 -6636,2967 -6636,6631 0,3664 2972,6637 6636,6637l241191 0c1617,0 3182,-590 4390,-1662 4583,-4039 1725,-11606 -4390,-11606z"/>
  <polygon class="fil20" points="580674,1586618 488712,1586618 488712,1579663 580674,1579663 "/>
  <path class="fil21" d="M749409 1153810c1021,1129 2660,4918 4714,5122 2047,204 21718,-13420 22331,-15780 618,-2354 -2660,-8808 -2660,-8808l-24385 19466z"/>
  <path class="fil9" d="M712421 980867c-9019,25411 -22127,71310 -20493,74997 1639,3687 16806,15167 21310,21724 4509,6557 6149,12700 6149,12700 0,0 -13523,49177 -11884,53278 1640,4096 29915,5327 29915,5327 8622,5848 7448,14985 10477,18275 890,970 5734,1571 7050,1537 0,0 3647,5026 5281,6036 3035,1871 10970,-2604 13165,867 6580,10397 24396,12377 36977,9756 32864,-6846 74673,-50998 105303,-90555 12853,-16597 23738,-32388 31163,-44271 4101,-6557 -4918,-111469 -17209,-121305 -12298,-9835 -175406,-13936 -180318,-11475 -4918,2456 -36886,63109 -36886,63109z"/>
  <path class="fil22" d="M855132 1025784c-1435,613 -112904,52048 -112904,52048 0,0 7476,31758 6761,39138 -720,7374 -8712,11163 -13323,5734 -4606,-5428 -18645,-48048 -18645,-48048l138106 -58197 5 9325z"/>
  <path class="fil23" d="M690946 1046471c-3681,2286 -5411,3023 -3499,7634 1906,4618 5575,7981 10607,5831 5036,-2149 37521,-11520 44112,-11236 6585,278 17816,2864 17181,-1594 -641,-4453 -4300,-7317 -10817,-9858 -12575,-4907 -49609,4265 -57584,9223z"/>
  <path class="fil24 str0" d="M688995 1056975c2076,2978 5156,4629 9059,2961 5036,-2149 37521,-11520 44112,-11236 4594,193 11452,1509 14957,777 -4571,-2144 -11758,-4464 -18474,-4260 -11645,357 -35836,11827 -43363,12365 -2258,159 -4385,-96 -6291,-607z"/>
  <path class="fil23" d="M912205 906488c-95121,-73863 -224877,37907 -271667,13675 44725,75389 135581,68304 191339,44311 0,0 11066,31963 19670,63517 8605,31560 3795,57515 6665,52598 20800,-35667 8730,-48509 17107,-66937 6143,-13528 13114,-38526 38520,-24595 20652,11328 12660,40817 7379,62292 4340,16653 1827,33749 1827,33749 21736,-8531 28877,-33732 34129,-58242 13352,-62314 -5536,-115331 -44969,-120368z"/>
  <path class="fil25" d="M927100 1020419c-680,10368 -3545,21435 -5882,30930 4340,16653 1827,33749 1827,33749 21736,-8531 28877,-33732 34129,-58242 1639,-7657 2791,-15167 3483,-22473 -4164,19036 -8435,36858 -10431,39910 -4555,6959 0,1230 408,-14345 409,-15570 1639,-42621 1639,-42621 0,0 0,4510 -1230,13114 -1231,8611 -14754,50409 -16393,54510 -1639,4095 823,-9836 3687,-42213 2870,-32376 -3279,-46307 -3279,-46307 0,0 415,15162 -4305,38542 -1032,5100 -2291,10358 -3653,15446z"/>
  <path class="fil26" d="M851048 979301c-10879,-30760 -10879,-30947 -10879,-30947 0,0 -53051,-2524 -55507,-3347 -2462,-816 13522,8560 15978,8560 2462,0 -18032,3664 -43029,1208 -24997,-2462 -40164,-8208 -42620,-9847 -2456,-1639 22541,15564 29506,17618 6966,2047 -25411,-2054 -59421,-14759 -32150,-12008 -42173,-24107 -43177,-25400 10653,17209 24096,30822 39104,41321 -19359,-4276 -30663,-11162 -30663,-11162 0,0 2495,5405 18287,17039 15785,11633 32291,13392 32291,13392 0,0 -33953,-1759 -35615,-2428 -1662,-669 38638,18123 72297,16875 13965,-516 25916,-2751 35133,-5190 23687,414 46268,-3835 64504,-11685 0,0 5706,15888 14310,47442 7329,26863 4930,50045 5826,53199l283 743 0 0c6,0 4266,-71889 -6608,-102632z"/>
  <path class="fil27" d="M700918 1069352c8786,21015 23023,61809 41049,57720 3148,-715 5032,-2655 6081,-7107 1639,-6966 -10250,-44464 -10250,-44464l144260 -64135 -2229 -8094c-52082,18984 -124243,41934 -178911,66080z"/>
  <path class="fil9" d="M872001 1000492c0,0 7380,-18031 22133,-19671 14753,-1639 33602,4510 35241,8605 1639,4101 3244,50369 -2456,56148 -5701,5775 -26228,24998 -34424,20897 -8197,-4096 -19121,-22354 -19121,-22354l-1373 -43625z"/>
  <path class="fil28" d="M883969 1004559c-1230,-8213 11872,-13369 24510,-11446 18701,2847 11458,39864 2047,50000 -5326,5740 -15161,13931 -19671,9013 -4509,-4918 0,-17618 0,-17618 0,0 7374,-7379 4918,-11475 -2462,-4101 -9019,1640 -10244,-2053 -1231,-3687 -1560,-16421 -1560,-16421z"/>
  <path class="fil29" d="M708814 1072517c-2144,823 -4152,1594 -5695,2195 3545,8730 7810,19439 12711,28917 4572,8843 9694,16608 15309,20686 1532,68 2853,40 3863,23 5122,-102 7986,-2360 7374,-8610 -613,-6245 -12706,-39342 -14958,-43948 -2252,-4612 -4917,-4510 -4917,-4510 0,0 -7403,2831 -13687,5247z"/>
  <path class="fil23 str1" d="M905189 901411c-63188,-42456 -139932,-9064 -197453,10556 44935,-3392 87016,-15003 86347,-14798 -4095,1230 -40573,18031 -65978,22949 -25412,4918 -51225,6965 -51225,6965 0,0 12699,7380 48355,3279 5649,-647 11270,-1509 16710,-2484 20340,-3642 38162,-8872 45598,-10596 3125,-726 4413,-828 3284,62 -4532,3596 -43460,21214 -40181,20806 31446,-3931 49569,-12252 65972,-20074 22638,-10794 41991,-20641 88571,-16665z"/>
  <path class="fil6" d="M923748 1071122c-102,-5820 -726,-12836 -2530,-19773 34,-142 68,-284 103,-431 -5911,5377 -14436,12337 -21237,15008 0,0 6540,21934 -1049,34969 -16291,27958 -71537,88979 -114294,83091 4623,3125 18707,3216 25791,1741 23177,-4827 50635,-28570 75650,-55808 10459,-11384 20459,-23448 29489,-35110 2541,-3279 4997,-6523 7374,-9711 0,0 856,-5820 703,-13976z"/>
  <path class="fil6" d="M707503 1143566c1640,4096 29915,5327 29915,5327 1736,-2360 2774,-18543 2774,-18543 0,0 -5536,9019 -7992,11271 -2462,2252 -24697,1945 -24697,1945z"/>
  <path class="fil7" d="M1160254 1544508c-4129,-647 -22779,-14158 -28083,-10619 -5309,3540 -12388,26761 -30300,35604 -17913,8849 -21010,8849 -20568,12610 443,3754 5531,6772 11503,7878 5973,1106 40692,5389 53075,-12082 12382,-17470 14373,-33391 14373,-33391z"/>
  <path class="fil30" d="M900736 993334c18701,2847 11458,39864 2048,50000 -2984,3216 -7391,7209 -11480,9229 4685,3959 14066,-3897 19222,-9450 9411,-10136 16654,-47153 -2047,-50000 -3477,-528 -6983,-522 -10216,-63 823,63 1651,159 2473,284z"/>
  <path class="fil6" d="M900084 1065926c6801,-2671 15326,-9631 21237,-15008 2387,-2167 4350,-4079 5598,-5344 3766,-3817 4345,-25275 3834,-40601 -266,-7890 -816,-14152 -1378,-15547 -1639,-4095 -20488,-10244 -35241,-8605 -2927,324 -5564,1294 -7907,2644 9149,-1538 36466,-1923 39904,8763 2138,6659 1752,46313 -4816,52121 -7970,7051 -28758,22156 -28758,22156 0,0 11,5 45,17 1940,913 4550,556 7482,-596z"/>
  <path class="fil13" d="M1111644 1569783c15921,-9513 21673,-26540 21673,-26540 0,0 9569,5383 20873,9546 1220,454 2456,885 3704,1299 1895,-5843 2360,-9580 2360,-9580 -823,-131 -2218,-772 -3971,-1679 -7056,-3670 -19863,-11770 -24112,-8940 -5309,3540 -12388,26761 -30300,35604 -17913,8849 -21010,8849 -20568,12610 443,3754 5531,6772 11503,7878 880,165 2383,397 4345,618 -380,-215 -765,-436 -1157,-663 -4895,-2774 -10442,-5780 -10442,-5780 0,0 10170,-4867 26092,-14373z"/>
  <path class="fil31" d="M1166221 1547922l167181 0c4129,0 7521,4061 7521,9047l0 25202c0,4968 -3392,9041 -7521,9041l-167181 0 0 -4617 166977 0c2132,0 3879,-2008 3879,-4424l0 -25202c0,-2433 -1747,-4430 -3879,-4430l-166977 0 0 -4617z"/>
  <path class="fil32" d="M1167883 1552539c1668,5440 2456,11294 2456,17022 0,5735 -788,11589 -2456,17034l165473 0c2042,0 3721,-2008 3721,-4424l0 -25202c0,-2433 -1679,-4430 -3721,-4430l-165473 0z"/>
  <polygon class="fil33" points="1178132,1561609 1329409,1561609 1329409,1560338 1178132,1560338 "/>
  <polygon class="fil33" points="1178132,1567656 1329409,1567656 1329409,1566385 1178132,1566385 "/>
  <polygon class="fil33" points="1178132,1575466 1329409,1575466 1329409,1574184 1178132,1574184 "/>
  <polygon class="fil33" points="1178132,1581910 1329409,1581910 1329409,1580628 1178132,1580628 "/>
  <path class="fil31" d="M1192319 1504627l167180 0c4130,0 7522,4067 7522,9047l0 25207c0,4969 -3392,9041 -7522,9041l-167180 0 0 -4617 166976 0c2133,0 3880,-2014 3880,-4424l0 -25207c0,-2428 -1747,-4425 -3880,-4425l-166976 0 0 -4622z"/>
  <path class="fil32" d="M1193980 1509249c1668,5434 2456,11288 2456,17023 0,5728 -788,11582 -2456,17033l165474 0c2042,0 3721,-2014 3721,-4424l0 -25207c0,-2428 -1679,-4425 -3721,-4425l-165474 0z"/>
  <polygon class="fil33" points="1204224,1518314 1355506,1518314 1355506,1517043 1204224,1517043 "/>
  <polygon class="fil33" points="1204224,1524366 1355506,1524366 1355506,1523090 1204224,1523090 "/>
  <polygon class="fil33" points="1204224,1532171 1355506,1532171 1355506,1530889 1204224,1530889 "/>
  <polygon class="fil33" points="1204224,1538614 1355506,1538614 1355506,1537332 1204224,1537332 "/>
  <path class="fil31" d="M1339550 1461337l-167180 0c-4130,0 -7527,4061 -7527,9047l0 25201c0,4969 3397,9042 7527,9042l167180 0 0 -4617 -166976 0c-2133,0 -3880,-2008 -3880,-4425l0 -25201c0,-2433 1747,-4430 3880,-4430l166976 0 0 -4617z"/>
  <path class="fil32" d="M1337888 1465954c-1667,5440 -2456,11293 -2456,17022 0,5729 789,11588 2456,17034l-165473 0c-2042,0 -3721,-2008 -3721,-4425l0 -25201c0,-2433 1679,-4430 3721,-4430l165473 0z"/>
  <polygon class="fil33" points="1327639,1475018 1176363,1475018 1176363,1473753 1327639,1473753 "/>
  <polygon class="fil33" points="1327639,1481070 1176363,1481070 1176363,1479800 1327639,1479800 "/>
  <polygon class="fil33" points="1327639,1488881 1176363,1488881 1176363,1487593 1327639,1487593 "/>
  <polygon class="fil33" points="1327639,1495324 1176363,1495324 1176363,1494042 1327639,1494042 "/>
  <polygon class="fil34" points="611361,1585483 590759,1585483 590759,1581082 611361,1581082 "/>
  <polygon class="fil34" points="637169,1585483 616573,1585483 616573,1581082 637169,1581082 "/>
  <g id="_789633720">
   <polygon class="fil18" points="422943,1588954 421066,1588954 421066,1579340 422943,1579340 "/>
   <polygon class="fil18" points="427084,1588954 425207,1588954 425207,1579340 427084,1579340 "/>
   <polygon class="fil18" points="431230,1588954 429353,1588954 429353,1579340 431230,1579340 "/>
   <polygon class="fil18" points="435371,1588954 433494,1588954 433494,1579340 435371,1579340 "/>
   <polygon class="fil18" points="439512,1588954 437640,1588954 437640,1579340 439512,1579340 "/>
   <polygon class="fil18" points="443658,1588954 441781,1588954 441781,1579340 443658,1579340 "/>
   <polygon class="fil18" points="447799,1588954 445927,1588954 445927,1579340 447799,1579340 "/>
   <polygon class="fil18" points="451945,1588954 450068,1588954 450068,1579340 451945,1579340 "/>
   <polygon class="fil18" points="456086,1588954 454214,1588954 454214,1579340 456086,1579340 "/>
   <polygon class="fil18" points="460232,1588954 458355,1588954 458355,1579340 460232,1579340 "/>
  </g>
  <path class="fil35" d="M413289 1588285c-3635,545 -7288,-1514 -8570,-5076 -65026,-179246 -87538,-232263 -80443,-243619l89013 248695z"/>
  <path class="fil36 str2" d="M458757 839976c-1826,-3114 -3187,-5490 -4055,-7073 -5134,-9370 -8236,-18151 -9280,-26404 -890,-6222 -590,-13097 908,-20686 1083,-5536 3806,-14209 8048,-26018 4294,-11821 6467,-20539 6574,-26256 80,-5752 -1282,-11124 -4106,-16285 -5111,-9325 -13216,-15536 -24328,-18633 -11117,-3091 -21923,-1759 -32422,3993 -10187,5581 -16886,13432 -20182,23534 -3318,10176 -2268,22609 3069,37402l-26086 10403c-7720,-19371 -8843,-36881 -3216,-52496 5627,-15621 17362,-28355 35292,-38179 18968,-10392 36914,-13511 53914,-9342 16942,4191 29478,13624 37538,28338 4668,8514 6965,17430 6897,26767 -40,9381 -3063,22336 -9019,38961 -4021,11152 -6313,18997 -6925,23574 -618,4566 -324,9297 873,14169 1180,4827 4271,12087 9320,21730l-22814 12501zm21844 50187l-14878 -27158 27164 -14883 14872 27158 -27158 14883z"/>
  <path class="fil36 str2" d="M416840 1248768c23,-2587 51,-4549 102,-5843 272,-7651 1588,-14191 3965,-19659 1741,-4158 4447,-8276 8151,-12400 2694,-3011 7555,-7351 14498,-13063 6977,-5706 11514,-10277 13670,-13754 2167,-3517 3295,-7318 3448,-11538 273,-7612 -2439,-14413 -8145,-20391 -5706,-5978 -12847,-9121 -21423,-9433 -8316,-300 -15321,2076 -21055,7085 -5775,5048 -9688,13091 -11827,24152l-19875 -3160c2348,-14759 8083,-25950 17272,-33499 9194,-7556 21089,-11089 35728,-10562 15491,562 27681,5224 36620,14022 8894,8797 13148,19200 12717,31213 -250,6955 -2105,13290 -5570,19008 -3466,5763 -10080,12632 -19847,20680 -6563,5389 -10851,9377 -12904,11974 -2059,2587 -3608,5604 -4657,9042 -1049,3409 -1804,9007 -2235,16801l-18633 -675zm-4952 38911l800 -22179 22178 800 -805 22178 -22173 -799z"/>
  <path class="fil1" d="M582949 589114c17,-2586 51,-4549 96,-5842 278,-7652 1588,-14192 3971,-19660 1735,-4157 4441,-8275 8145,-12399 2700,-3012 7555,-7357 14498,-13068 6977,-5701 11514,-10278 13675,-13755 2162,-3511 3290,-7317 3443,-11532 278,-7612 -2439,-14413 -8139,-20391 -5712,-5984 -12853,-9127 -21429,-9433 -8316,-301 -15321,2076 -21055,7085 -5775,5048 -9688,13085 -11827,24152l-19875 -3160c2348,-14759 8083,-25950 17272,-33500 9194,-7555 21089,-11089 35729,-10561 15490,556 27685,5218 36619,14021 8894,8792 13148,19201 12717,31214 -250,6949 -2105,13284 -5570,19008 -3466,5757 -10080,12631 -19841,20680 -6563,5389 -10851,9376 -12910,11968 -2054,2587 -3608,5610 -4657,9048 -1049,3403 -1804,9007 -2235,16795l-18627 -670zm-4958 38906l800 -22173 22178 800 -800 22172 -22178 -799z"/>
  <path class="fil36 str1" d="M849029 467300c2053,-6575 3653,-11543 4776,-14805 6625,-19274 15026,-34918 25320,-46993 7647,-9246 17726,-17647 30346,-25281 9206,-5582 24941,-12876 47040,-22054 22189,-9126 37277,-17266 45473,-24452 8225,-7272 14050,-16086 17703,-26705 6591,-19177 4946,-38599 -4958,-58235 -9909,-19660 -25672,-33188 -47266,-40619 -20952,-7192 -40635,-6568 -59109,1759 -18616,8389 -34810,25831 -48814,52359l-48174 -23431c17402,-35769 40664,-59842 69915,-71957 29257,-12127 62297,-11917 99172,760 39024,13409 66460,34713 82416,64044 15848,29285 18627,59081 8224,89342 -6012,17516 -15643,32212 -28893,44107 -13285,11990 -35446,24361 -66546,37305 -20885,8650 -34895,15491 -42138,20505 -7238,4997 -13528,11486 -18866,19433 -5303,7856 -11565,21537 -18684,41049l-46937 -16131zm-42728 95263l19194 -55865 55871 19200 -19206 55860 -55859 -19195z"/>
  <path class="fil36 str1" d="M897373 739472c176,-2581 323,-4538 448,-5826 743,-7623 2445,-14072 5156,-19381 1985,-4045 4935,-7992 8882,-11884 2876,-2841 7987,-6880 15264,-12166 7312,-5270 12116,-9558 14481,-12899 2371,-3375 3732,-7107 4141,-11304 731,-7584 -1566,-14532 -6898,-20845 -5331,-6319 -12274,-9887 -20811,-10715 -8287,-806 -15422,1146 -21446,5797 -6069,4691 -10465,12479 -13267,23392l-19648 -4362c3238,-14589 9637,-25411 19268,-32394 9631,-6982 21724,-9790 36302,-8372 15428,1492 27317,6886 35706,16211 8343,9319 11962,19960 10799,31929 -669,6925 -2904,13136 -6710,18633 -3806,5541 -10828,11996 -21060,19438 -6875,4986 -11401,8707 -13608,11169 -2206,2461 -3942,5377 -5196,8746 -1253,3335 -2348,8883 -3250,16631l-18553 -1798zm-7306 38536l2144 -22087 22087 2144 -2144 22087 -22087 -2144z"/>
  <path class="fil36 str2" d="M608354 806607c12,-1293 29,-2274 51,-2921 137,-3829 795,-7096 1986,-9830 867,-2076 2223,-4135 4072,-6200 1350,-1503 3778,-3675 7249,-6534 3489,-2847 5757,-5139 6835,-6874 1084,-1759 1651,-3659 1725,-5769 136,-3806 -1220,-7204 -4073,-10193 -2853,-2995 -6427,-4566 -10709,-4719 -4163,-148 -7663,1038 -10528,3545 -2887,2524 -4849,6540 -5916,12076l-9937 -1583c1174,-7379 4038,-12972 8638,-16749 4595,-3778 10545,-5542 17862,-5281 7748,278 13840,2609 18310,7011 4447,4396 6574,9603 6358,15609 -125,3472 -1055,6642 -2785,9501 -1730,2882 -5037,6313 -9920,10341 -3285,2694 -5429,4690 -6455,5984 -1027,1293 -1804,2807 -2326,4526 -527,1702 -907,4504 -1117,8395l-9320 -335zm-2473 19456l397 -11089 11089 402 -402 11084 -11084 -397z"/>
  <path class="fil36 str2" d="M700788 659557c436,-1220 771,-2139 1009,-2740 1390,-3568 3086,-6443 5105,-8627 1509,-1679 3460,-3182 5888,-4515 1770,-981 4776,-2229 8996,-3784 4231,-1548 7130,-2960 8718,-4248 1600,-1299 2762,-2910 3528,-4878 1384,-3545 1220,-7204 -488,-10964 -1713,-3767 -4566,-6427 -8565,-7981 -3879,-1509 -7578,-1543 -11106,-119 -3556,1435 -6733,4583 -9557,9455l-8866 -4764c3534,-6580 8083,-10919 13664,-12972 5587,-2054 11787,-1764 18611,896 7220,2808 12212,7016 14980,12643 2751,5615 3051,11231 868,16829 -1260,3245 -3182,5928 -5758,8060 -2580,2150 -6835,4306 -12773,6495 -3982,1469 -6665,2643 -8060,3534 -1401,879 -2627,2047 -3693,3499 -1055,1435 -2331,3960 -3817,7567l-8684 -3386zm-8741 17555l4027 -10340 10340 4027 -4033 10340 -10334 -4027z"/>
  <path class="fil1" d="M562586 1017157c11,-1293 28,-2274 51,-2921 136,-3823 794,-7096 1985,-9830 868,-2076 2224,-4135 4073,-6200 1350,-1503 3777,-3675 7249,-6528 3488,-2853 5757,-5139 6835,-6881 1083,-1758 1650,-3658 1724,-5768 136,-3806 -1220,-7204 -4073,-10193 -2853,-2989 -6426,-4560 -10709,-4719 -4163,-148 -7663,1038 -10527,3545 -2887,2524 -4844,6546 -5916,12076l-9938 -1583c1174,-7379 4039,-12972 8639,-16749 4594,-3778 10544,-5542 17862,-5281 7748,283 13840,2609 18309,7011 4447,4395 6574,9603 6359,15609 -125,3477 -1055,6642 -2785,9501 -1730,2882 -5037,6319 -9921,10340 -3284,2695 -5428,4691 -6455,5990 -1026,1293 -1804,2802 -2325,4521 -528,1702 -902,4504 -1118,8400l-9319 -340zm-2473 19456l397 -11090 11089 403 -403 11084 -11083 -397z"/>
  <path class="fil1" d="M352359 1019018c-130,-2587 -210,-4550 -238,-5843 -159,-7657 783,-14260 2847,-19852 1504,-4249 3965,-8514 7431,-12842 2524,-3159 7124,-7771 13732,-13868 6642,-6092 10913,-10914 12870,-14510 1963,-3630 2876,-7493 2791,-11707 -159,-7618 -3256,-14254 -9291,-19898 -6041,-5649 -13352,-8378 -21929,-8202 -8321,170 -15178,2944 -20618,8270 -5479,5366 -8928,13619 -10437,24782l-20022 -2025c1509,-14867 6597,-26364 15343,-34424 8746,-8066 20425,-12269 35071,-12576 15496,-323 27935,3642 37357,11918 9381,8275 14220,18423 14469,30442 148,6954 -1350,13386 -4481,19297 -3131,5944 -9347,13182 -18638,21769 -6245,5752 -10301,9983 -12207,12689 -1906,2700 -3284,5802 -4135,9291 -856,3460 -1293,9098 -1276,16897l-18639 392zm-2739 39126l-460 -22189 22190 -460 453 22184 -22183 465z"/>
  <path class="fil36 str2" d="M607798 311900c239,-3602 437,-6336 607,-8134 993,-10641 3336,-19648 7091,-27073 2751,-5655 6846,-11180 12336,-16625 3999,-3982 11112,-9649 21237,-17051 10176,-7396 16858,-13403 20142,-18077 3295,-4725 5173,-9932 5723,-15797 987,-10584 -2258,-20272 -9728,-29058 -7476,-8786 -17181,-13732 -29098,-14844 -11565,-1078 -21514,1673 -29898,8196 -8446,6574 -14543,17465 -18394,32711l-27442 -5984c4447,-20374 13318,-35513 26727,-45297 13409,-9796 30261,-13772 50612,-11872 21543,2008 38157,9472 49910,22439 11690,12961 16789,27799 15229,44503 -896,9666 -3987,18344 -9268,26041 -5281,7748 -15048,16790 -29291,27226 -9569,6989 -15865,12207 -18934,15656 -3068,3443 -5473,7527 -7209,12234 -1730,4657 -3227,12400 -4447,23222l-25905 -2416zm-9994 53811l2876 -30833 30839 2881 -2881 30828 -30834 -2876z"/>
  <path class="fil37" d="M783107 61061c12,-1294 29,-2275 51,-2922 137,-3828 795,-7095 1986,-9829 868,-2082 2223,-4141 4072,-6200 1350,-1509 3778,-3676 7249,-6534 3489,-2853 5758,-5139 6835,-6875 1084,-1758 1651,-3658 1725,-5769 136,-3806 -1220,-7209 -4073,-10198 -2853,-2989 -6427,-4560 -10709,-4714 -4163,-153 -7663,1038 -10528,3540 -2887,2524 -4849,6545 -5916,12076l-9937 -1577c1174,-7379 4038,-12978 8639,-16750 4594,-3778 10544,-5547 17861,-5281 7748,278 13840,2610 18310,7011 4447,4396 6574,9597 6358,15604 -125,3477 -1055,6648 -2785,9507 -1730,2881 -5037,6313 -9920,10340 -3285,2694 -5429,4685 -6455,5984 -1027,1293 -1804,2802 -2326,4521 -527,1707 -907,4504 -1117,8400l-9320 -334zm-2473 19455l397 -11089 11089 397 -402 11089 -11084 -397z"/>
  <path class="fil36 str2" d="M755705 391157c-442,-1220 -765,-2144 -970,-2757 -1202,-3636 -1730,-6931 -1565,-9904 91,-2251 646,-4656 1662,-7232 743,-1883 2263,-4764 4520,-8650 2281,-3885 3608,-6817 4016,-8825 403,-2025 273,-4005 -391,-6007 -1197,-3613 -3653,-6330 -7368,-8140 -3715,-1809 -7612,-2042 -11685,-692 -3948,1305 -6818,3642 -8633,6988 -1832,3370 -2263,7817 -1338,13375l-9870 1980c-1469,-7323 -732,-13568 2263,-18707 2995,-5145 7958,-8871 14912,-11168 7357,-2439 13880,-2377 19603,192 5701,2576 9507,6711 11396,12422 1094,3302 1327,6592 697,9876 -624,3307 -2529,7674 -5700,13148 -2139,3670 -3455,6284 -3965,7856 -516,1571 -720,3255 -613,5054 102,1775 721,4532 1878,8258l-8849 2933zm4453 19098l-3488 -10533 10533 -3489 3488 10533 -10533 3489z"/>
 </g>
</svg>
