<?xml version="1.0" encoding="UTF-8"?>
<!DOCTYPE svg PUBLIC "-//W3C//DTD SVG 1.1//EN" "http://www.w3.org/Graphics/SVG/1.1/DTD/svg11.dtd">
<!-- Creator: CorelDRAW X8 -->
<svg xmlns="http://www.w3.org/2000/svg" xml:space="preserve" width="16.9334mm" height="11.8032mm" version="1.1" style="shape-rendering:geometricPrecision; text-rendering:geometricPrecision; image-rendering:optimizeQuality; fill-rule:evenodd; clip-rule:evenodd"
viewBox="0 0 1701600 1186078"
 xmlns:xlink="http://www.w3.org/1999/xlink">
 <defs>
  <style type="text/css">
   <![CDATA[
    .str0 {stroke:#CCCCCC;stroke-width:7657.17}
    .fil18 {fill:none}
    .fil11 {fill:#116BC4}
    .fil6 {fill:#356FA0}
    .fil7 {fill:#4D94DB}
    .fil4 {fill:#666666}
    .fil9 {fill:#6EC9CA}
    .fil3 {fill:#BABCBF}
    .fil8 {fill:#CCCCCC}
    .fil13 {fill:#DF9C00}
    .fil12 {fill:#E3BE4D}
    .fil10 {fill:#E6E6E6}
    .fil14 {fill:#FFDB71}
    .fil5 {fill:white}
    .fil2 {fill:white}
    .fil15 {fill:#3F464D;fill-rule:nonzero}
    .fil16 {fill:#4D94DB;fill-rule:nonzero}
    .fil1 {fill:#999999;fill-rule:nonzero}
    .fil0 {fill:#CCCCCC;fill-rule:nonzero}
    .fil17 {fill:white;fill-rule:nonzero}
   ]]>
  </style>
 </defs>
 <g id="Слой_x0020_1">
  <metadata id="CorelCorpID_0Corel-Layer"/>
  <g id="_768967992">
   <path class="fil0 str0" d="M1127724 969476c0,32709 -42174,52425 -110325,57831 -44044,3487 -104276,5657 -170247,5657 -65960,0 -126212,-2170 -170256,-5657 -68141,-5406 -110316,-25122 -110316,-57831 0,-18459 10320,-32377 29242,-41813l-129609 0c-17022,0 -32588,-6974 -43943,-18279l-332 -341c-11204,-11345 -18118,-26841 -18118,-43773l0 -508568c0,-17083 6994,-32649 18279,-43954l171 -171c11305,-11274 26830,-18278 43943,-18278l546493 0 0 -140000c0,-20841 8521,-39803 22278,-53570l814 -814c13707,-13375 32397,-21625 52927,-21625l285677 0c9998,0 19766,2080 28890,5848 4733,1950 9235,4362 13415,7165 12772,4432 23987,12159 32618,22138 11597,13435 18631,30789 18631,49631l0 178546c0,20972 -8542,40005 -22278,53751 -13757,13757 -32769,22278 -53751,22278l-116978 0 0 447623c0,17023 -6964,32588 -18279,43944l-341 331c-11335,11205 -26831,18118 -43763,18118l-114214 0c18992,9446 29372,23364 29372,41813zm-280572 -26066c16490,0 32548,-131 48013,-392l-11837 -45180c-1648,-4672 -2562,-9707 -2562,-14952 0,-24730 20057,-44778 44777,-44778l259851 0 0 -449934c20,-11455 4382,-22911 13124,-31653l14551 -14541c8149,-8561 19665,-13887 32407,-13887l132915 0 0 -155093c-3075,-1357 -6019,-3075 -8772,-5155l-267358 0 0 163815c412,2412 623,4884 623,7416 0,24730 -20058,44777 -44778,44777l-564731 0 0 454255 273076 0 0 141c3698,0 7446,462 11194,1437 23856,6180 38185,30538 32005,54394l-12812 48908c16159,281 33000,422 50314,422zm254918 -611439c80,925 40,232 -20,-522l20 522z"/>
   <path class="fil1" d="M1102231 987554c0,10340 -105563,18711 -235795,18711 -130222,0 -235795,-8371 -235795,-18711 0,-7527 56062,-14018 136855,-16993l15364 -58634 2874 -10963 -300237 0c-9727,0 -17616,-7879 -17616,-17616l0 -52836 0 -455733c0,-9737 7889,-17625 17616,-17625l746353 0c9727,0 17615,7888 17615,17625l0 455733 0 52836c0,9737 -7888,17616 -17615,17616l-287013 0 18208 69517c82058,2924 139186,9476 139186,17073z"/>
   <path class="fil2" d="M715001 974983c0,-5537 4130,-10210 9627,-10873l21223 -2603 21273 -81194 157746 0 21273 81194 21223 2603c5497,663 9637,5336 9637,10873l-262002 0z"/>
   <polygon class="fil3" points="763577,893849 767124,880313 924870,880313 928417,893849 "/>
   <path class="fil4" d="M448598 812434l0 -455743c0,-9727 7878,-17615 17615,-17615l746353 0c9727,0 17606,7888 17606,17615l0 455743 -781574 0z"/>
   <path class="fil2" d="M1212566 882886l-746353 0c-9737,0 -17615,-7888 -17615,-17616l0 -52836 781574 0 0 52836c0,9728 -7879,17616 -17606,17616z"/>
   <polygon class="fil5" points="472815,369906 1205954,369906 1205954,781604 472815,781604 "/>
   <polygon class="fil6" points="472815,745017 1205954,745017 1205954,781604 472815,781604 "/>
   <polygon class="fil7" points="543971,446618 744876,446618 744876,569635 543971,569635 "/>
   <path class="fil8" d="M690823 503836l-14550 -14551 0 -16822c0,-3034 -2472,-5486 -5517,-5486 -3035,0 -5497,2452 -5497,5486l0 5809 -10842 -10823c-5346,-5366 -14661,-5356 -20007,0l-36387 36387c-2140,2140 -2140,5627 0,7778 2160,2150 5637,2150 7788,0l36386 -36377c1186,-1186 3276,-1186 4442,-10l36397 36387c1075,1085 2482,1607 3889,1607 1416,0 2813,-532 3898,-1607 2141,-2151 2141,-5628 0,-7778zm-44485 -18158c-1056,-1066 -2774,-1066 -3829,0l-31995 31995c-513,492 -804,1186 -804,1909l0 23333c0,5467 4451,9919 9918,9919l15857 0 0 -24539 17877 0 0 24539 15857 0c5466,0 9898,-4452 9898,-9919l0 -23333c0,-723 -272,-1417 -784,-1909l-31995 -31995z"/>
   <polygon class="fil7" points="760874,446618 961779,446618 961779,569635 760874,569635 "/>
   <polygon class="fil9" points="977786,446618 1178692,446618 1178692,569635 977786,569635 "/>
   <polygon class="fil7" points="543971,582186 744876,582186 744876,705193 543971,705193 "/>
   <polygon class="fil7" points="760874,582186 961779,582186 961779,705193 760874,705193 "/>
   <polygon class="fil7" points="977786,582186 1178692,582186 1178692,705193 977786,705193 "/>
   <path class="fil2" d="M907726 639394l-14550 -14541 0 -16821c0,-3035 -2472,-5497 -5517,-5497 -3035,0 -5497,2462 -5497,5497l0 5808 -10832 -10833c-5356,-5366 -14661,-5346 -20007,0l-36387 36387c-2150,2150 -2150,5637 0,7788 2150,2150 5627,2150 7788,0l36376 -36387c1186,-1186 3276,-1186 4452,0l36387 36387c1085,1085 2482,1607 3899,1607 1406,0 2813,-542 3888,-1607 2151,-2151 2151,-5638 0,-7788zm-44486 -18148c-1055,-1065 -2773,-1065 -3818,0l-32005 31985c-513,502 -794,1186 -794,1909l0 23334c0,5476 4441,9928 9918,9928l15847 0 0 -24539 17877 0 0 24539 15867 0c5456,0 9888,-4452 9888,-9928l0 -23334c0,-723 -262,-1407 -774,-1909l-32006 -31985z"/>
   <path class="fil2" d="M1124629 639394l-14540 -14541 0 -16821c0,-3035 -2472,-5497 -5517,-5497 -3045,0 -5497,2462 -5497,5497l0 5808 -10842 -10833c-5346,-5366 -14662,-5346 -20008,0l-36386 36387c-2141,2150 -2141,5637 0,7788 2150,2150 5637,2150 7788,0l36376 -36387c1186,-1186 3276,-1186 4452,0l36397 36387c1075,1085 2482,1607 3888,1607 1407,0 2814,-542 3889,-1607 2151,-2151 2151,-5638 0,-7788zm-44476 -18148c-1055,-1065 -2783,-1065 -3828,0l-31995 31985c-513,502 -804,1186 -804,1909l0 23334c0,5476 4451,9928 9918,9928l15847 0 0 -24539 17886 0 0 24539 15857 0c5467,0 9899,-4452 9899,-9928l0 -23334c0,-723 -272,-1407 -784,-1909l-31996 -31985z"/>
   <path class="fil10" d="M907726 503836l-14550 -14551 0 -16822c0,-3034 -2472,-5486 -5517,-5486 -3035,0 -5497,2452 -5497,5486l0 5809 -10832 -10823c-5356,-5366 -14661,-5356 -20007,0l-36387 36387c-2150,2140 -2150,5627 0,7778 2150,2150 5627,2150 7788,0l36376 -36377c1186,-1186 3276,-1186 4452,-10l36387 36387c1085,1085 2482,1607 3899,1607 1406,0 2813,-532 3888,-1607 2151,-2151 2151,-5628 0,-7778zm-44486 -18158c-1055,-1066 -2773,-1066 -3818,0l-32005 31995c-513,492 -794,1186 -794,1909l0 23333c0,5467 4441,9919 9918,9919l15847 0 0 -24539 17877 0 0 24539 15867 0c5456,0 9888,-4452 9888,-9919l0 -23333c0,-723 -262,-1417 -774,-1909l-32006 -31995z"/>
   <path class="fil2" d="M690823 639394l-14550 -14541 0 -16821c0,-3035 -2472,-5497 -5517,-5497 -3035,0 -5497,2462 -5497,5497l0 5808 -10842 -10833c-5346,-5366 -14661,-5346 -20007,0l-36387 36387c-2140,2150 -2140,5637 0,7788 2160,2150 5637,2150 7788,0l36386 -36387c1186,-1186 3276,-1186 4442,0l36397 36387c1075,1085 2482,1607 3889,1607 1416,0 2813,-542 3898,-1607 2141,-2151 2141,-5638 0,-7788zm-44485 -18148c-1056,-1065 -2774,-1065 -3829,0l-31995 31985c-513,502 -804,1186 -804,1909l0 23334c0,5476 4451,9928 9918,9928l15857 0 0 -24539 17877 0 0 24539 15857 0c5466,0 9898,-4452 9898,-9928l0 -23334c0,-723 -272,-1407 -784,-1909l-31995 -31985z"/>
   <path class="fil11" d="M1124629 507755l-14540 -14541 0 -16821c0,-3045 -2472,-5497 -5517,-5497 -3045,0 -5497,2452 -5497,5497l0 5798 -10842 -10823c-5346,-5366 -14662,-5356 -20008,0l-36386 36387c-2141,2140 -2141,5627 0,7778 2150,2150 5637,2150 7788,0l36376 -36377c1186,-1186 3276,-1186 4452,-10l36397 36387c1075,1085 2482,1607 3888,1607 1407,0 2814,-532 3889,-1607 2151,-2151 2151,-5628 0,-7778zm-44476 -18158c-1055,-1066 -2783,-1066 -3828,0l-31995 31995c-513,502 -804,1186 -804,1909l0 23334c0,5466 4451,9918 9918,9918l15847 0 0 -24539 17886 0 0 24539 15857 0c5467,0 9899,-4452 9899,-9918l0 -23334c0,-723 -272,-1407 -784,-1909l-31996 -31995z"/>
   <polygon class="fil12" points="977545,569635 1180018,569635 1180018,446407 1078787,521773 977545,446407 "/>
   <polygon class="fil13" points="977545,569635 1180018,569635 1097256,508026 1060317,508026 1060317,508016 "/>
   <polygon class="fil14" points="1180018,446407 1078787,521773 977545,446407 "/>
   <polygon class="fil15" points="560169,427998 560169,402022 549538,402022 549538,427998 542353,427998 542353,395540 567254,395540 567254,427998 "/>
   <path id="1" class="fil15" d="M598546 405981c0,1467 -292,2813 -885,4059 -593,1247 -1386,2322 -2401,3216 -1015,904 -2201,1618 -3568,2130 -1366,513 -2833,764 -4381,764l-6341 0 0 11848 -7185 0 0 -32458 13385 0c1709,0 3266,241 4663,724 1397,482 2593,1175 3587,2070 995,904 1769,1999 2312,3296 542,1286 814,2743 814,4351zm-7276 -131c0,-1306 -382,-2281 -1165,-2924 -774,-633 -1880,-955 -3306,-955l-5829 0 0 7748 6009 0c1186,0 2191,-352 3035,-1055 834,-694 1256,-1638 1256,-2814z"/>
   <path id="2" class="fil15" d="M613378 395309c1959,0 3718,311 5285,955 1578,633 2914,1517 4020,2632 1095,1116 1949,2452 2542,4010 583,1557 884,3236 884,5034l0 7647c0,1930 -301,3678 -914,5256 -603,1568 -1457,2904 -2563,4009 -1105,1106 -2441,1950 -4009,2543 -1568,583 -3316,884 -5245,884 -2121,0 -3960,-342 -5527,-1025 -1568,-683 -2874,-1608 -3919,-2773 -1045,-1166 -1819,-2523 -2332,-4060 -512,-1538 -773,-3145 -773,-4834l0 -7647c0,-1678 261,-3276 773,-4803 513,-1517 1287,-2864 2332,-4030 1045,-1165 2351,-2090 3919,-2773 1567,-683 3406,-1025 5527,-1025zm-71 6713c-914,0 -1688,150 -2341,442 -663,291 -1206,693 -1638,1185 -442,503 -774,1066 -995,1709 -211,633 -322,1276 -322,1929l0 8823c0,713 111,1397 322,2050 221,653 553,1226 995,1718 432,503 975,905 1638,1216 653,312 1427,472 2341,472 1749,0 3095,-522 4050,-1567 954,-1045 1427,-2342 1427,-3889l0 -8823c0,-1427 -473,-2663 -1427,-3708 -955,-1035 -2301,-1557 -4050,-1557z"/>
   <path id="3" class="fil15" d="M658567 395540l0 26067 3306 0 0 13897 -5969 0 0 -7506 -20932 0 0 7506 -6019 0 0 -13475 3547 -744c553,-502 1025,-1035 1397,-1608 372,-583 683,-1306 935,-2200 241,-885 442,-1990 582,-3327 141,-1336 272,-3034 392,-5084l704 -13526 22057 0zm-7095 6482l-8853 0 -422 7506c-60,995 -130,2050 -191,3175 -60,1116 -170,2211 -321,3286 -161,1076 -372,2101 -633,3075 -261,985 -623,1829 -1095,2543l11515 0 0 -19585z"/>
   <path id="4" class="fil15" d="M686462 427998l-2432 -6623 -10862 0 -2422 6623 -7557 0 12591 -32458 5638 0 12591 32458 -7547 0zm-5878 -16420l-1910 -6431 -190 0 -1870 6340 -1205 3829 6381 0 -1206 -3738z"/>
   <polygon id="5" class="fil15" points="720548,427998 720548,412563 720407,412512 717473,419094 715282,423657 709775,423657 707494,418853 704651,412512 704510,412653 704510,427998 697325,427998 697325,395540 703817,395540 708208,404956 712408,414703 712599,414703 716659,404956 720960,395540 727733,395540 727733,427998 "/>
   <path id="6" class="fil15" d="M765406 411256c1306,432 2321,1216 3054,2332 734,1115 1317,2452 1749,4009l3125 10401 -7326 0 -2472 -8250c-341,-1066 -723,-1930 -1165,-2593 -432,-673 -905,-1186 -1417,-1537 -513,-362 -1055,-603 -1638,-724 -573,-121 -1166,-191 -1789,-191l-3457 0 0 13295 -7174 0 0 -32508 7174 0 0 13013 3216 0c503,0 1035,-50 1618,-141 573,-90 1125,-301 1648,-633 533,-321 1025,-794 1497,-1417 462,-623 854,-1477 1166,-2562l2613 -8119 6943 0 -2934 9465c-432,1528 -1025,2814 -1769,3849 -753,1045 -1617,1769 -2612,2171l-50 140z"/>
   <path id="7" class="fil15" d="M802154 418341c0,1467 -271,2783 -814,3969 -543,1176 -1276,2191 -2191,3025 -914,844 -1989,1497 -3215,1959 -1236,473 -2533,704 -3899,704l-14782 0 0 -32458 13666 0c1709,0 3226,221 4573,673 1336,453 2462,1086 3376,1890 914,813 1608,1778 2070,2914 472,1135 703,2371 703,3708 0,1185 -311,2361 -934,3547 -623,1176 -1658,2110 -3125,2793l0 191c753,282 1407,684 1959,1216 563,523 1035,1116 1427,1769 382,653 683,1336 884,2050 201,713 302,1397 302,2050zm-8109 -13285c0,-904 -312,-1648 -935,-2221 -623,-572 -1678,-864 -3175,-864l-5497 0 0 6482 5497 0c1497,0 2552,-342 3175,-1025 623,-684 935,-1477 935,-2372zm743 12963c0,-472 -80,-914 -231,-1356 -161,-432 -412,-824 -754,-1166 -341,-342 -783,-613 -1326,-814 -543,-201 -1186,-301 -1929,-301l-6110 0 0 7184 6110 0c1517,0 2602,-361 3255,-1075 654,-713 985,-1537 985,-2472z"/>
   <path id="8" class="fil15" d="M826874 427998l-2432 -6623 -10863 0 -2421 6623 -7557 0 12591 -32458 5637 0 12592 32458 -7547 0zm-5879 -16420l-1909 -6431 -191 0 -1869 6340 -1206 3829 6381 0 -1206 -3738z"/>
   <path id="9" class="fil15" d="M862497 405981c0,1467 -292,2813 -884,4059 -593,1247 -1387,2322 -2402,3216 -1015,904 -2201,1618 -3567,2130 -1367,513 -2834,764 -4382,764l-6340 0 0 11848 -7185 0 0 -32458 13385 0c1708,0 3265,241 4662,724 1397,482 2593,1175 3588,2070 994,904 1768,1999 2311,3296 543,1286 814,2743 814,4351zm-7275 -131c0,-1306 -382,-2281 -1166,-2924 -774,-633 -1879,-955 -3306,-955l-5828 0 0 7748 6009 0c1185,0 2190,-352 3034,-1055 834,-694 1257,-1638 1257,-2814z"/>
   <polygon id="10" class="fil15" points="879288,401971 879288,427998 872103,427998 872103,401971 863240,401971 863240,395540 888141,395540 888141,401971 "/>
   <polygon id="11" class="fil15" points="892111,427998 892111,395540 899285,395540 899285,415869 899426,415869 906098,405468 912902,395540 918830,395540 918830,427998 911645,427998 911645,408362 911505,408362 906752,416060 898492,427998 "/>
   <path id="12" class="fil15" d="M949931 405981c0,1467 -291,2813 -884,4059 -593,1247 -1387,2322 -2402,3216 -1015,904 -2200,1618 -3567,2130 -1367,513 -2834,764 -4381,764l-6341 0 0 11848 -7185 0 0 -32458 13385 0c1708,0 3266,241 4663,724 1396,482 2592,1175 3587,2070 995,904 1769,1999 2311,3296 543,1286 814,2743 814,4351zm-7275 -131c0,-1306 -382,-2281 -1166,-2924 -773,-633 -1879,-955 -3306,-955l-5828 0 0 7748 6009 0c1186,0 2191,-352 3035,-1055 834,-694 1256,-1638 1256,-2814z"/>
   <path id="13" class="fil15" d="M955438 422913l2562 0c714,0 1246,-151 1608,-462 352,-312 663,-734 905,-1266l281 -603 -9928 -25042 7828 0 2844 8763 2572 7838 231 0 2332 -7647 2753 -8954 7597 0 -8672 23595c-653,1738 -1277,3225 -1869,4451 -583,1236 -1236,2231 -1950,3015 -723,774 -1527,1336 -2432,1678 -904,342 -1989,512 -3266,512l-3396 0 0 -5878z"/>
   <path class="fil1" d="M1423179 341618c0,17264 -13998,31252 -31252,31252l-146451 0 -67066 67076c-3175,3175 -7948,4130 -12098,2401 -4140,-1718 -6844,-5758 -6844,-10249l0 -59228 -53218 0c-17254,0 -31242,-13988 -31242,-31252l0 -178546c0,-17254 13988,-31242 31242,-31242l285677 0c17254,0 31252,13988 31252,31242l0 178546z"/>
   <path class="fil16" d="M1405653 332856c0,17254 -13987,31251 -31251,31251l-146441 0 -67076 67066c-3165,3186 -7948,4130 -12088,2412 -4140,-1719 -6854,-5758 -6854,-10250l0 -59228 -53218 0c-17244,0 -31242,-13997 -31242,-31251l0 -178547c0,-17254 13998,-31242 31242,-31242l285677 0c17264,0 31251,13988 31251,31242l0 178547z"/>
   <path class="fil17" d="M1177988 221234c1307,432 2322,1216 3055,2331 734,1116 1317,2452 1749,4010l3125 10400 -7326 0 -2472 -8250c-341,-1065 -723,-1929 -1165,-2592 -433,-674 -905,-1186 -1417,-1538 -513,-362 -1055,-603 -1638,-723 -573,-121 -1166,-191 -1789,-191l-3457 0 0 13294 -7175 0 0 -32508 7175 0 0 13014 3216 0c502,0 1035,-51 1618,-141 573,-91 1125,-302 1648,-633 532,-322 1025,-794 1497,-1417 462,-623 854,-1477 1166,-2563l2612 -8119 6944 0 -2934 9466c-432,1527 -1025,2814 -1769,3849 -753,1045 -1618,1768 -2612,2170l-51 141z"/>
   <path id="1" class="fil17" d="M1191705 232891l2562 0c714,0 1246,-151 1608,-463 352,-311 663,-733 905,-1266l281 -603 -9928 -25041 7828 0 2844 8762 2572 7838 231 0 2331 -7647 2754 -8953 7597 0 -8672 23594c-654,1739 -1277,3226 -1869,4452 -583,1236 -1236,2231 -1950,3014 -723,774 -1527,1337 -2432,1679 -904,341 -1989,512 -3266,512l-3396 0 0 -5878z"/>
   <polygon id="2" class="fil17" points="1235166,237975 1235166,211999 1224534,211999 1224534,237975 1217349,237975 1217349,205518 1242250,205518 1242250,237975 "/>
   <path id="3" class="fil17" d="M1273773 205518l0 32457 -7084 0 0 -25976 -7597 0 0 7738c0,2492 -131,4853 -382,7094 -251,2241 -784,4211 -1598,5919 -814,1708 -1979,3085 -3517,4130 -1527,1045 -3587,1608 -6170,1698l-974 -5828c1396,-282 2492,-754 3286,-1417 793,-673 1386,-1538 1768,-2593 392,-1055 643,-2291 754,-3708 100,-1417 161,-3034 161,-4873l0 -14641 21353 0z"/>
   <path id="4" class="fil17" d="M1303206 205287c2080,0 3889,311 5416,954 1518,633 2774,1518 3769,2633 995,1115 1738,2452 2221,4009 482,1558 723,3236 723,5035l0 7647c0,1929 -281,3678 -844,5255 -553,1568 -1357,2905 -2402,4010 -1035,1105 -2321,1949 -3848,2542 -1518,583 -3246,885 -5176,885 -2110,0 -3929,-342 -5456,-1025 -1517,-684 -2773,-1608 -3748,-2774 -985,-1166 -1708,-2522 -2171,-4060 -472,-1537 -703,-3145 -703,-4833l0 -834 -3356 0 0 13244 -7185 0 0 -32457 7185 0 0 13013 3356 0 0 -613c0,-1678 241,-3276 723,-4803 483,-1518 1226,-2864 2221,-4030 995,-1166 2261,-2090 3799,-2773 1537,-684 3366,-1025 5476,-1025zm-110 6712c-915,0 -1679,151 -2302,442 -623,292 -1135,694 -1517,1186 -402,502 -673,1065 -854,1708 -171,633 -251,1276 -251,1930l0 8822c0,714 80,1397 251,2050 181,654 452,1226 824,1719 382,502 864,904 1477,1216 613,311 1367,472 2271,472 1749,0 3025,-523 3819,-1568 804,-1045 1195,-2341 1195,-3889l0 -8822c0,-1427 -381,-2663 -1175,-3708 -774,-1035 -2020,-1558 -3738,-1558z"/>
   <path id="5" class="fil17" d="M1141441 276030c1306,432 2321,1216 3055,2331 733,1116 1316,2452 1748,4010l3125 10400 -7325 0 -2472 -8250c-342,-1065 -724,-1929 -1166,-2592 -432,-674 -904,-1186 -1417,-1538 -512,-362 -1055,-603 -1638,-723 -572,-121 -1165,-191 -1788,-191l-3457 0 0 13294 -7175 0 0 -32508 7175 0 0 13014 3215 0c503,0 1036,-51 1618,-141 573,-91 1126,-302 1648,-633 533,-322 1025,-794 1498,-1417 462,-623 854,-1477 1165,-2563l2613 -8119 6944 0 -2935 9466c-432,1527 -1025,2814 -1768,3849 -754,1045 -1618,1768 -2613,2170l-50 141z"/>
   <path id="6" class="fil17" d="M1178189 283114c0,1467 -271,2784 -814,3970 -542,1175 -1276,2190 -2190,3024 -915,844 -1990,1498 -3216,1960 -1236,472 -2532,703 -3899,703l-14782 0 0 -32457 13667 0c1708,0 3225,221 4572,673 1336,452 2462,1085 3376,1889 915,814 1608,1779 2070,2914 473,1136 704,2372 704,3708 0,1186 -312,2362 -935,3547 -623,1176 -1658,2111 -3125,2794l0 191c754,281 1407,683 1960,1216 562,522 1035,1115 1427,1768 381,654 683,1337 884,2050 201,714 301,1397 301,2050zm-8109 -13284c0,-905 -312,-1648 -935,-2221 -623,-573 -1678,-864 -3175,-864l-5497 0 0 6481 5497 0c1497,0 2552,-341 3175,-1025 623,-683 935,-1477 935,-2371zm744 12963c0,-473 -81,-915 -232,-1357 -160,-432 -412,-824 -753,-1165 -342,-342 -784,-613 -1327,-814 -542,-201 -1185,-302 -1929,-302l-6110 0 0 7185 6110 0c1517,0 2603,-362 3256,-1075 653,-714 985,-1538 985,-2472z"/>
   <path id="7" class="fil17" d="M1202909 292771l-2432 -6622 -10862 0 -2422 6622 -7557 0 12591 -32457 5638 0 12591 32457 -7547 0zm-5878 -16420l-1910 -6431 -190 0 -1870 6341 -1205 3829 6381 0 -1206 -3739z"/>
   <path id="8" class="fil17" d="M1238532 270754c0,1467 -291,2814 -884,4060 -593,1246 -1387,2321 -2402,3216 -1015,904 -2200,1617 -3567,2130 -1367,512 -2834,764 -4381,764l-6341 0 0 11847 -7185 0 0 -32457 13385 0c1708,0 3266,241 4663,723 1396,482 2592,1176 3587,2070 995,905 1769,2000 2311,3296 543,1286 814,2744 814,4351zm-7275 -130c0,-1307 -382,-2281 -1166,-2925 -774,-633 -1879,-954 -3306,-954l-5828 0 0 7747 6009 0c1186,0 2191,-351 3035,-1055 834,-693 1256,-1638 1256,-2813z"/>
   <polygon id="9" class="fil17" points="1255324,266745 1255324,292771 1248139,292771 1248139,266745 1239276,266745 1239276,260314 1264177,260314 1264177,266745 "/>
   <polygon id="10" class="fil17" points="1268146,292771 1268146,260314 1275321,260314 1275321,280642 1275461,280642 1282134,270242 1288937,260314 1294866,260314 1294866,292771 1287681,292771 1287681,273136 1287540,273136 1282787,280833 1274527,292771 "/>
   <path id="11" class="fil17" d="M1325967 270754c0,1467 -292,2814 -885,4060 -593,1246 -1386,2321 -2401,3216 -1015,904 -2201,1617 -3568,2130 -1366,512 -2833,764 -4381,764l-6341 0 0 11847 -7185 0 0 -32457 13385 0c1709,0 3266,241 4663,723 1397,482 2593,1176 3587,2070 995,905 1769,2000 2312,3296 542,1286 814,2744 814,4351zm-7276 -130c0,-1307 -382,-2281 -1165,-2925 -774,-633 -1879,-954 -3306,-954l-5829 0 0 7747 6010 0c1185,0 2190,-351 3034,-1055 834,-693 1256,-1638 1256,-2813z"/>
   <path id="12" class="fil17" d="M1331473 287687l2563 0c713,0 1246,-151 1608,-463 351,-311 663,-733 904,-1266l281 -603 -9928 -25041 7828 0 2844 8762 2572 7838 232 0 2331 -7647 2753 -8953 7597 0 -8672 23594c-653,1739 -1276,3226 -1869,4452 -583,1236 -1236,2231 -1949,3014 -724,774 -1528,1337 -2432,1679 -905,341 -1990,512 -3266,512l-3397 0 0 -5878z"/>
  </g>
  <rect class="fil18" x="3" width="1701594" height="1186078"/>
 </g>
</svg>
