<?xml version="1.0" encoding="UTF-8"?>
<!DOCTYPE svg PUBLIC "-//W3C//DTD SVG 1.1//EN" "http://www.w3.org/Graphics/SVG/1.1/DTD/svg11.dtd">
<!-- Creator: CorelDRAW X8 -->
<svg xmlns="http://www.w3.org/2000/svg" xml:space="preserve" width="16.9333mm" height="11.8032mm" version="1.1" style="shape-rendering:geometricPrecision; text-rendering:geometricPrecision; image-rendering:optimizeQuality; fill-rule:evenodd; clip-rule:evenodd"
viewBox="0 0 565357 394077"
 xmlns:xlink="http://www.w3.org/1999/xlink">
 <defs>
  <style type="text/css">
   <![CDATA[
    .fil22 {fill:none}
    .fil10 {fill:none;fill-rule:nonzero}
    .fil19 {fill:#999999}
    .fil21 {fill:white}
    .fil7 {fill:#003E62;fill-rule:nonzero}
    .fil14 {fill:#98C483;fill-rule:nonzero}
    .fil1 {fill:#999999;fill-rule:nonzero}
    .fil12 {fill:#B3B3B3;fill-rule:nonzero}
    .fil20 {fill:#B4DEA0;fill-rule:nonzero}
    .fil0 {fill:#CCCCCC;fill-rule:nonzero}
    .fil11 {fill:#DBDADA;fill-rule:nonzero}
    .fil9 {fill:#E6E6E6;fill-rule:nonzero}
    .fil16 {fill:#E6E6E6;fill-rule:nonzero}
    .fil13 {fill:#EBEBEB;fill-rule:nonzero}
    .fil4 {fill:#EFBCA0;fill-rule:nonzero}
    .fil15 {fill:#F1F566;fill-rule:nonzero}
    .fil6 {fill:#F5CA56;fill-rule:nonzero}
    .fil3 {fill:#F9BD9C;fill-rule:nonzero}
    .fil2 {fill:#FFC8A5;fill-rule:nonzero}
    .fil18 {fill:#FFD0D4;fill-rule:nonzero}
    .fil5 {fill:#FFDFD4;fill-rule:nonzero}
    .fil8 {fill:white;fill-rule:nonzero}
    .fil17 {fill:#FFF0F2;fill-rule:nonzero;fill-opacity:0.600000}
   ]]>
  </style>
    <clipPath id="id0" style="clip-rule:nonzero">
     <path d="M312558 260337c0,1323 127,2705 -1161,2705l-81452 0c-1289,0 -3189,-1382 -3189,-2705l0 -136320c0,-1319 1900,-2120 3189,-2120l81452 0c1288,0 1161,801 1161,2120l0 136320z"/>
    </clipPath>
 </defs>
 <g id="Слой_x0020_1">
  <metadata id="CorelCorpID_0Corel-Layer"/>
  <g id="_768978480">
   <path class="fil0" d="M191045 133913c6451,-5866 14016,-5896 20908,-3706l0 -19268c0,-5629 2774,-9532 6697,-12096 2968,-1976 6824,-2831 9579,-2831l94018 0c4471,0 8060,1516 10975,4898l87 107c2374,2777 3472,5999 3472,9922l0 38643c4497,-20 8323,1589 10714,2921l1572 915c665,444 1276,941 1827,1486 2117,1913 3429,4437 3873,7101l43 -7c0,14 1316,7479 2554,15933 1786,12186 3940,29277 4374,43467 354,11595 -661,21722 -4197,27377 -2514,4027 -6584,11138 -10767,18594 -4367,7789 -7733,13879 -10123,18233 -324,2634 -1252,5021 -2852,7171 -290,407 -604,788 -924,1149l0 24923c1248,1933 1969,4237 1969,6711l0 35451c0,6848 -5552,12403 -12403,12403l-79185 0c-6851,0 -12403,-5555 -12403,-12403l0 -35451c0,-3692 1616,-7011 4180,-9285l0 -17749 -6804 0c-2948,0 -6945,-1068 -9899,-3158 -2929,-2063 -5202,-4948 -6037,-8731l-19885 -18336c-4444,-4097 -6648,-9689 -6614,-15412 33,-5328 2023,-10777 5959,-15054 958,-1038 1997,-1970 3082,-2791 -4020,-4067 -5799,-9489 -5409,-15048 341,-4918 2441,-9993 6190,-14066l788 -811c825,-815 1696,-1563 2601,-2234l-87 -83c-4500,-4154 -6357,-9923 -5722,-15899 457,-4311 2303,-8791 5448,-12551 -1178,-1125 -2293,-2263 -3332,-3405 -3866,-4257 -6901,-8798 -8674,-13225 -2507,-6257 -2691,-12483 141,-18146 1071,-2143 2487,-4040 4266,-5659zm36309 61426l4811 4431c2801,2273 4594,5749 4594,9638l0 9950c-23,2998 -1105,6003 -3295,8383 -1703,1853 -3840,3065 -6113,3630l4814 4437c2801,2273 4594,5746 4594,9639l0 9378c-23,2998 -1105,6003 -3295,8384 -1703,1853 -3840,3065 -6113,3629l4814 4437c868,705 1643,1526 2294,2437l12978 0c6851,0 12403,5556 12403,12404l0 39440c0,3696 -1616,7011 -4180,9285l0 13762 54378 0 0 -16336c-1249,-1933 -1973,-4237 -1973,-6711l0 -36108 46 0c-3,-2000 481,-4033 1506,-5913l1810 -3332c357,-645 764,-1256 1222,-1826 227,-685 524,-1356 878,-2010 3609,-6601 8460,-15439 11639,-21111 4316,-7696 8573,-15128 11348,-19562 651,-1048 731,-6440 514,-13615 -67,-2170 -184,-4454 -341,-6808 -530,4294 -3258,7903 -7014,9683l0 313c0,6848 -5553,12404 -12404,12404 -6867,0 -12420,-5556 -12420,-12404l0 -102111c10,-795 90,-1573 237,-2334l-68327 0 0 62504c-23,2998 -1105,6003 -3295,8384 -1703,1849 -3840,3061 -6110,3629z"/>
   <path class="fil1" d="M336397 180548c-33,-474 -50,-971 -53,-1489 3,515 20,1012 53,1489zm-110495 -23588c0,0 -16226,-16229 -24343,-8851 -8113,7372 6641,25078 24343,33935l0 -25084zm637 57487l-17057 -15722c-2891,-2668 -2331,-7987 1262,-11880 3589,-3893 8844,-4891 11736,-2227l4059 3746 0 -72390c0,-1799 2391,-2521 3873,-2521l94019 0c1486,0 2130,722 2130,2521l0 102800 518 -27572c2457,-28272 13104,-24803 16590,-22857l23 14 237 137 221 137 43 23 83 53 60 40 34 24 110 73c190,137 304,224 304,224 0,0 1152,6450 2504,15689 2995,20399 6998,54384 1923,62511 -5289,8467 -16644,29063 -22650,40044l0 1105c0,1783 -638,2718 -2100,2735l-1810 3329 0 36111 1974 0 0 35448 -79185 0 0 -35448 4180 0 0 -39440 -19208 0c-1482,0 -3873,-935 -3873,-2735l0 -2470 -23568 -21722c-3545,-3275 -3515,-9081 74,-12978 3592,-3893 9382,-4397 12931,-1125l10563 9739 0 -9382 -20493 -18890c-3115,-2871 -2727,-8357 865,-12250 3589,-3896 9021,-4724 12136,-1850l7492 6905 0 -9949zm92897 -86256l0 166 0 67 0 618 0 244 0 3969 0 97047 17 0 0 -101257c0,-467 10,-721 -17,-854zm19044 42688c167,-200 344,-387 528,-564 -184,177 -361,364 -528,564z"/>
   <g>
    <path class="fil2" d="M340410 179497c-975,534 -2340,861 -4310,901 -7032,150 -6631,-3816 -6631,-8520 0,-4704 2972,-8521 6631,-8521 517,0 1022,84 1506,227 -2100,-1445 -14701,-8734 -17405,22353l-735 39100 -46478 0 19919 93691 22870 -29511c0,0 19181,-35410 26556,-47213 5078,-8123 1072,-42111 -1923,-62507z"/>
    <polygon class="fil2" points="315777,329058 242746,329058 242746,285528 315777,285528 "/>
    <path class="fil3" d="M340410 179497c-975,534 -2340,861 -4310,901 -1790,40 -3098,-190 -4053,-631 137,5729 -274,11465 273,17181 1353,14217 3446,25037 858,37491 -2657,12797 -11852,30917 -19771,41243 -6815,8888 -14928,17589 -24684,23375l4184 19671 22870 -29511c0,0 19181,-35410 26556,-47213 5078,-8123 1072,-42111 -1923,-62507z"/>
    <path class="fil4" d="M336100 163357c517,0 1022,84 1506,227 -284,-197 -765,-500 -1389,-801 -127,197 -251,394 -378,591 87,-3 174,-17 261,-17z"/>
    <path class="fil5" d="M329469 171878c0,4704 -401,8670 6631,8520 1970,-40 3335,-367 4310,-901 -1352,-9239 -2504,-15692 -2504,-15692 0,0 -110,-87 -300,-221 -484,-143 -989,-227 -1506,-227 -3659,0 -6631,3817 -6631,8521z"/>
   </g>
   <polygon class="fil3" points="278210,285528 278210,329058 315777,329058 315777,285528 "/>
   <polygon class="fil6" points="317750,360780 238562,360780 238562,325329 317750,325329 "/>
   <g>
    <path class="fil7" d="M319683 110709c0,-1796 -644,-2521 -2130,-2521l-94015 0c-1486,0 -3873,725 -3873,2521l0 172445c0,1800 2387,2735 3873,2735l94015 0c1486,0 2130,-935 2130,-2735l0 -172445zm-7108 148894l0 0c0,1446 104,3439 -1175,3439l-80941 0c-1279,0 -3686,-1993 -3686,-3439l0 -135823c0,-1442 2407,-868 3686,-868l80941 0c1279,0 1175,-574 1175,868l0 135823z"/>
   </g>
   <g>
    <path class="fil1" d="M274380 115043c0,781 -344,2283 -768,2283l-13432 0c-424,0 -767,-1502 -767,-2283 0,-782 343,-2287 767,-2287l13432 0c424,0 768,1505 768,2287z"/>
    <path class="fil1" d="M279752 115043c0,781 -344,2283 -768,2283l-2304 0c-424,0 -767,-1502 -767,-2283 0,-782 343,-2287 767,-2287l2304 0c424,0 768,1505 768,2287z"/>
   </g>
   <path class="fil8" d="M312558 260337c0,1323 127,2705 -1161,2705l-81452 0c-1289,0 -3189,-1382 -3189,-2705l0 -136320c0,-1319 1900,-2120 3189,-2120l81452 0c1288,0 1161,801 1161,2120l0 136320z"/>
   <g style="clip-path:url(#id0)">
    <g>
     <path id="1" class="fil9" d="M312562 260337c0,1323 63,2705 -581,2705l-40709 0c-645,0 -1596,-1382 -1596,-2705l0 -136320c0,-1319 951,-2120 1596,-2120l40709 0c644,0 581,801 581,2120l0 136320z"/>
    </g>
   </g>
   <path class="fil10" d="M312558 260337c0,1323 127,2705 -1161,2705l-81452 0c-1289,0 -3189,-1382 -3189,-2705l0 -136320c0,-1319 1900,-2120 3189,-2120l81452 0c1288,0 1161,801 1161,2120l0 136320z"/>
   <polygon class="fil11" points="312558,264057 223708,264057 223708,256949 312558,256949 "/>
   <path class="fil12" d="M275943 275155c0,3492 -2828,6320 -6321,6320 -3492,0 -6320,-2828 -6320,-6320 0,-3489 2828,-6317 6320,-6317 3493,0 6321,2828 6321,6317z"/>
   <g>
    <g>
     <polygon class="fil13" points="230142,201469 231494,200728 232846,199990 232846,201469 232846,202945 231494,202207 "/>
     <path class="fil14" d="M232846 198775c0,-338 211,-722 795,-722l28686 0c588,0 985,384 985,722l0 5478c0,334 -397,401 -985,401l-28686 0c-584,0 -795,-67 -795,-401l0 -5478z"/>
    </g>
    <g>
     <polygon class="fil13" points="230142,212129 231494,211392 232846,210654 232846,212129 232846,213605 231494,212867 "/>
     <path class="fil14" d="M232846 209215c0,-337 378,-501 1209,-501l40786 0c835,0 2177,164 2177,501l0 5479c0,337 -1342,621 -2177,621l-40786 0c-831,0 -1209,-284 -1209,-621l0 -5479z"/>
    </g>
    <g>
     <path class="fil14" d="M260264 147856c0,524 -424,948 -948,948l-25518 0c-524,0 -952,-424 -952,-948l0 -8765c0,-524 428,-948 952,-948l25518 0c524,0 948,424 948,948l0 8765z"/>
     <polygon class="fil14" points="230142,143432 231494,142694 232846,141956 232846,143432 232846,144911 231494,144170 "/>
    </g>
    <g>
     <g>
      <path class="fil15" d="M304943 193549c0,525 -424,952 -948,952l-25518 0c-524,0 -948,-427 -948,-952l0 -8764c0,-524 424,-948 948,-948l25518 0c524,0 948,424 948,948l0 8764z"/>
      <polygon class="fil15" points="307176,189296 306061,190034 304943,190772 304943,189296 304943,187817 306061,188558 "/>
     </g>
     <g>
      <path class="fil0" d="M304943 193549c0,525 -424,952 -948,952l-25518 0c-524,0 -948,-427 -948,-952l0 -8764c0,-524 424,-948 948,-948l25518 0c524,0 948,424 948,948l0 8764z"/>
      <polygon class="fil0" points="307176,189296 306061,190034 304943,190772 304943,189296 304943,187817 306061,188558 "/>
     </g>
    </g>
    <g>
     <path class="fil14" d="M279558 158636c0,334 -657,832 -1552,832l-43727 0c-895,0 -1433,-498 -1433,-832l0 -5478c0,-338 538,-798 1433,-798l43727 0c895,0 1552,460 1552,798l0 5478z"/>
     <polygon class="fil14" points="230142,155772 231494,155034 232846,154296 232846,155772 232846,157251 231494,156513 "/>
    </g>
    <g>
     <path class="fil0" d="M257219 163651c0,-337 725,-631 1619,-631l43728 0c894,0 1869,294 1869,631l0 5479c0,334 -975,491 -1869,491l-43728 0c-894,0 -1619,-157 -1619,-491l0 -5479z"/>
     <polygon class="fil0" points="306702,166512 305571,167250 304435,167988 304435,166512 304435,165037 305571,165775 "/>
    </g>
    <g>
     <polygon class="fil14" points="231664,243100 233017,242362 234372,241624 234372,243100 234372,244575 233017,243837 "/>
     <path class="fil14" d="M233865 240542c0,-337 190,-855 788,-855l29304 0c597,0 1893,518 1893,855l0 5479c0,334 -1296,775 -1893,775l-29304 0c-598,0 -788,-441 -788,-775l0 -5479z"/>
    </g>
    <g>
     <path class="fil0" d="M257219 174091c0,-334 725,-407 1619,-407l43728 0c894,0 1869,73 1869,407l0 5479c0,337 -975,715 -1869,715l-43728 0c-894,0 -1619,-378 -1619,-715l0 -5479z"/>
     <polygon class="fil0" points="306963,176889 305697,177677 304435,178468 304435,176889 304435,175310 305697,176098 "/>
    </g>
    <g>
     <path class="fil16" d="M294790 219658c0,-337 167,-788 340,-788l8631 0c177,0 674,451 674,788l0 5479c0,334 -497,334 -674,334l-8631 0c-173,0 -340,0 -340,-334l0 -5479z"/>
     <polygon class="fil16" points="306963,222076 305697,222864 304435,223655 304435,222076 304435,220496 305697,221284 "/>
    </g>
    <g>
     <path class="fil16" d="M271943 230099c0,-338 557,-568 1155,-568l29304 0c598,0 2033,230 2033,568l0 5478c0,338 -1435,555 -2033,555l-29304 0c-598,0 -1155,-217 -1155,-555l0 -5478z"/>
     <polygon class="fil16" points="306963,232736 305697,233527 304435,234319 304435,232736 304435,231157 305697,231948 "/>
    </g>
   </g>
   <polygon class="fil11" points="312558,127990 226756,127990 226756,121897 312558,121897 "/>
   <path class="fil17" d="M220610 236168c-1993,-213 -4023,-2050 -4501,-3989 -23,-91 -157,-40 -133,50 437,1893 2577,4140 4627,4103 94,0 100,-154 7,-164z"/>
   <path class="fil18" d="M232055 266347c-781,-481 -1659,-961 -2584,-1355 661,197 1325,424 2003,664 104,37 177,-114 74,-154 -3152,-1195 -6224,-2160 -9543,-1015 -103,34 -43,184 57,154 725,-197 1423,-314 2110,-364 -464,114 -918,284 -1355,538 -107,60 -10,243 100,190 3138,-1549 6200,214 9065,1499 103,43 163,-100 73,-157z"/>
   <path class="fil17" d="M231234 266584c-1423,-995 -3690,-2380 -5506,-1763 -93,30 -60,191 37,167 1826,-404 3853,825 5305,1786 1466,975 3339,2441 3793,4234 10,37 70,23 67,-17 -207,-1889 -2274,-3412 -3696,-4407z"/>
   <path class="fil17" d="M238699 279088c-1115,-2281 -3542,-3676 -5619,-4975 -103,-63 -217,114 -113,180 2060,1336 4300,2708 5582,4875 50,83 194,10 150,-80z"/>
   <path class="fil17" d="M240836 285451c-798,-153 -1469,-824 -2140,-1265 -591,-391 -1212,-728 -1847,-1042 -1412,-701 -2928,-1128 -4470,-1432 -150,-30 -190,197 -44,230 1653,371 3239,902 4751,1666 865,438 1700,962 2488,1523 397,287 734,487 1229,517 126,10 163,-173 33,-197z"/>
   <polygon class="fil12" points="312558,127990 269619,127990 269619,121897 312558,121897 "/>
   <path class="fil19" d="M269622 268841l0 12634c2257,0 4241,-1182 5356,-2968 597,-952 951,-2074 965,-3279 0,-23 0,-50 0,-73 0,-3489 -2832,-6317 -6321,-6314z"/>
   <path class="fil2" d="M233811 267643c3553,3268 3516,9081 -73,12974 -3589,3893 -9375,4400 -12924,1128l-24717 -22786c-3549,-3269 -3516,-9078 73,-12975 3590,-3893 9379,-4397 12928,-1125l24713 22784z"/>
   <path class="fil2" d="M233861 232219c3115,2868 2731,8356 -858,12249 -3589,3893 -9028,4725 -12143,1853l-21691 -19995c-3115,-2872 -2725,-8354 864,-12250 3589,-3893 9022,-4724 12137,-1853l21691 19996z"/>
   <path class="fil2" d="M235741 197917c2895,2667 2327,7986 -1265,11879 -3590,3896 -8848,4891 -11736,2227l-20133 -18564c-2894,-2667 -2330,-7983 1259,-11879 3593,-3893 8844,-4891 11736,-2227l20139 18564z"/>
   <path class="fil2" d="M219027 151695c0,0 -16226,-16229 -24346,-8854 -8113,7378 6641,25080 24346,33938l0 -25084z"/>
   <path class="fil5" d="M229735 269599c3328,3329 4317,7736 2207,9843 -2114,2110 -6521,1128 -9846,-2204 -3329,-3329 -6150,-5689 -2204,-9843 3943,-4156 6517,-1125 9843,2204z"/>
   <path class="fil5" d="M227685 231935c3325,3329 4317,7739 2203,9846 -2110,2113 -6517,1125 -9846,-2204 -3325,-3325 -6150,-5686 -2203,-9846 3946,-4153 6520,-1122 9846,2204z"/>
   <path class="fil5" d="M230633 198000c3332,3329 4317,7739 2207,9846 -2110,2113 -6518,1125 -9846,-2204 -3329,-3325 -6147,-5686 -2204,-9846 3947,-4156 6517,-1121 9843,2204z"/>
   <g>
    <g>
     <path class="fil1" d="M380582 65372c557,-7018 -2137,-13305 -7459,-17802 -4394,-3709 -10347,-4914 -15829,-5896 -14293,-2557 -28910,-2631 -43246,-4875 -3964,-621 -8908,2718 -9846,6608 -1012,4210 -4908,19999 -5593,24970 -624,4574 725,9529 3940,12894 4961,5192 35204,9115 38379,10097 6390,1970 12597,4193 19398,3489 7692,-795 13121,-6454 16283,-13078 1071,-2240 1783,-4588 2330,-7005 394,-1729 718,-3475 1022,-5222 -565,3232 140,-731 337,-1813 144,-784 224,-1575 284,-2367zm-25087 9299l0 0c6,-4 13,-7 20,-10 -1426,1188 -875,440 -20,10z"/>
     <path class="fil12" d="M336497 89628c501,-20 8557,13562 9485,13792 0,0 -3078,-18740 1610,-18810 4691,-70 -11095,5018 -11095,5018z"/>
    </g>
   </g>
   <g>
    <g>
     <path class="fil20" d="M368833 59610c554,-7018 -2137,-13305 -7459,-17799 -4394,-3709 -10347,-4915 -15832,-5896 -14290,-2561 -28910,-2631 -43243,-4878 -3967,-621 -8912,2718 -9846,6611 -1012,4210 -4912,19998 -5593,24970 -627,4571 725,9529 3940,12891 4961,5191 35200,9114 38379,10096 6387,1973 12597,4193 19394,3492 7693,-794 13125,-6457 16287,-13081 1071,-2240 1783,-4587 2330,-7004 391,-1727 715,-3476 1022,-5222 -568,3235 140,-731 337,-1813 144,-781 220,-1573 284,-2367zm-25087 9301l0 0c6,-3 13,-6 20,-10 -1426,1186 -875,438 -20,10z"/>
     <path class="fil20" d="M324745 83866c504,-17 8560,13561 9489,13792 0,0 -3082,-18737 1609,-18807 4687,-70 -11098,5015 -11098,5015z"/>
    </g>
   </g>
   <circle class="fil21" cx="309532" cy="55034" r="4938"/>
   <circle class="fil21" cx="325691" cy="57629" r="4938"/>
   <circle class="fil21" cx="341598" cy="60141" r="4938"/>
  </g>
  <rect class="fil22" width="565358" height="394077"/>
 </g>
</svg>
