<?xml version="1.0" encoding="UTF-8"?>
<!DOCTYPE svg PUBLIC "-//W3C//DTD SVG 1.1//EN" "http://www.w3.org/Graphics/SVG/1.1/DTD/svg11.dtd">
<!-- Creator: CorelDRAW X8 -->
<svg xmlns="http://www.w3.org/2000/svg" xml:space="preserve" width="16.9334mm" height="11.8032mm" version="1.1" style="shape-rendering:geometricPrecision; text-rendering:geometricPrecision; image-rendering:optimizeQuality; fill-rule:evenodd; clip-rule:evenodd"
viewBox="0 0 563537 392806"
 xmlns:xlink="http://www.w3.org/1999/xlink">
 <defs>
  <style type="text/css">
   <![CDATA[
    .fil12 {fill:none}
    .fil6 {fill:none;fill-rule:nonzero}
    .fil8 {fill:#999999}
    .fil5 {fill:#4D4D4D;fill-rule:nonzero}
    .fil4 {fill:#666666;fill-rule:nonzero}
    .fil9 {fill:#98C483;fill-rule:nonzero}
    .fil3 {fill:#999999;fill-rule:nonzero}
    .fil1 {fill:#B3B3B3;fill-rule:nonzero}
    .fil0 {fill:#CCCCCC;fill-rule:nonzero}
    .fil10 {fill:#D65E6B;fill-rule:nonzero}
    .fil7 {fill:#DBDADA;fill-rule:nonzero}
    .fil11 {fill:white;fill-rule:nonzero}
    .fil2 {fill:white;fill-rule:nonzero}
   ]]>
  </style>
    <clipPath id="id0" style="clip-rule:nonzero">
     <path d="M354897 284923c0,2004 190,4097 -1764,4097l-123540 0c-1954,0 -4839,-2093 -4839,-4097l0 -206762c0,-2004 2885,-3219 4839,-3219l123540 0c1954,0 1764,1215 1764,3219l0 206762z"/>
    </clipPath>
     <clipPath id="id1" style="clip-rule:nonzero">
      <path d="M328586 142031c0,20743 -16816,37562 -37562,37562 -20744,0 -37563,-16819 -37563,-37562 0,-20743 16819,-37563 37563,-37563 20746,0 37562,16820 37562,37563z"/>
     </clipPath>
 </defs>
 <g id="Слой_x0020_1">
  <metadata id="CorelCorpID_0Corel-Layer"/>
  <g id="_768974640">
   <path class="fil0" d="M377740 44076c3318,3883 4869,8406 4869,13894l0 261568c0,5051 -1344,9471 -4206,13258l-67 0c-3897,5132 -9129,7784 -15864,7784l-142604 0c-4143,0 -9764,-1501 -13917,-4433 -5152,-3624 -8856,-9095 -8856,-16609l0 -261568c0,-7026 3138,-12127 7758,-15668 476,-393 981,-766 1511,-1112 4206,-2745 9634,-3947 13504,-3947l142604 0c6240,0 11231,2133 15268,6833zm-38840 26979l-107993 0 0 235713 117890 0 0 -4972c-6283,-2446 -10736,-8553 -10736,-15698l-3 -1175 -67 0c0,-69028 -489,-138223 3,-207228 0,-144 7,-153 17,-107l-30 -1135c30,-1857 336,-3677 919,-5398z"/>
   <path class="fil1" d="M371261 65561c0,-2722 -982,-3821 -3232,-3821l-142603 0c-2246,0 -5867,1099 -5867,3821l0 261568c0,2719 3621,4136 5867,4136l142603 0c2250,0 3232,-1421 3232,-4136l0 -261568zm-10816 18483l0 127 0 50c23,439 10,948 10,1531l0 200260 0 6502 3 1175c43,-762 27,-1567 27,-2286l0 0 0 -206014c0,-772 20,-1162 -40,-1345z"/>
   <g>
    <path class="fil2" d="M365703 57973c0,-2726 -978,-3824 -3231,-3824l-142600 0c-2250,0 -5874,1098 -5874,3824l0 261555c0,2728 3624,4146 5874,4146l142600 0c2253,0 3231,-1418 3231,-4146l0 -261555zm-10783 225836l0 0c0,2189 160,5211 -1783,5211l-122766 0c-1940,0 -5590,-3022 -5590,-5211l0 -206008c0,-2190 3650,-1321 5590,-1321l122766 0c1943,0 1783,-869 1783,1321l0 206008z"/>
   </g>
   <g>
    <path class="fil3" d="M296987 64546c0,1185 -522,3464 -1165,3464l-20370 0c-646,0 -1165,-2279 -1165,-3464 0,-1185 519,-3465 1165,-3465l20370 0c643,0 1165,2280 1165,3465z"/>
    <path class="fil3" d="M305134 64546c0,1185 -522,3464 -1161,3464l-3495 0c-642,0 -1164,-2279 -1164,-3464 0,-1185 522,-3465 1164,-3465l3495 0c639,0 1161,2280 1161,3465z"/>
   </g>
   <path class="fil4" d="M354897 284923c0,2004 190,4097 -1764,4097l-123540 0c-1954,0 -4839,-2093 -4839,-4097l0 -206762c0,-2004 2885,-3219 4839,-3219l123540 0c1954,0 1764,1215 1764,3219l0 206762z"/>
   <g style="clip-path:url(#id0)">
    <g>
     <path id="1" class="fil5" d="M354900 284923c0,2004 94,4097 -881,4097l-61747 0c-976,0 -2420,-2093 -2420,-4097l0 -206762c0,-2004 1444,-3219 2420,-3219l61747 0c975,0 881,1215 881,3219l0 206762z"/>
    </g>
   </g>
   <path class="fil6" d="M354897 284923c0,2004 190,4097 -1764,4097l-123540 0c-1954,0 -4839,-2093 -4839,-4097l0 -206762c0,-2004 2885,-3219 4839,-3219l123540 0c1954,0 1764,1215 1764,3219l0 206762z"/>
   <polygon class="fil7" points="354907,289197 224784,289197 224784,278417 354907,278417 "/>
   <path class="fil1" d="M299360 307397c0,5292 -4293,9585 -9588,9585 -5295,0 -9588,-4293 -9588,-9585 0,-5295 4293,-9584 9588,-9584 5295,0 9588,4289 9588,9584z"/>
   <polygon class="fil7" points="354897,84181 224754,84181 224754,74942 354897,74942 "/>
   <polygon class="fil1" points="354897,84181 289766,84181 289766,74942 354897,74942 "/>
   <path class="fil8" d="M289772 297816l0 19166c3425,0 6433,-1794 8124,-4503 908,-1444 1441,-3145 1464,-4972 0,-40 0,-73 0,-113 0,-5288 -4293,-9581 -9588,-9578z"/>
   <g>
    <g>
     <polygon class="fil9" points="276004,244242 273136,245916 273136,242568 "/>
     <polygon class="fil9" points="280374,244242 277505,245916 277505,242568 "/>
     <polygon class="fil9" points="284381,244242 281512,245916 281512,242568 "/>
    </g>
    <path class="fil9" d="M270763 243354c0,6566 -5321,11884 -11884,11884 -6563,0 -11884,-5318 -11884,-11884 0,-6563 5321,-11884 11884,-11884 6563,0 11884,5321 11884,11884z"/>
    <g>
     <path class="fil2" d="M260696 246066l-433 399c-499,277 -998,-216 -1900,-1257l-1894 -2699c-382,-699 -702,-1415 -226,-1808l393 -232 -2713 -3941 -372 323c-609,586 -2034,3228 1610,8556 3781,5541 6956,5258 7738,4822l496 -266 -2699 -3897z"/>
     <path class="fil2" d="M264054 248971l-2223 -3171c-167,-246 -499,-300 -746,-130l-432 436 2695 3880 569 -266c260,-183 300,-512 137,-749z"/>
     <path class="fil2" d="M257295 239510l-2223 -3171c-167,-247 -500,-300 -743,-130l-406 319 2713 3941 526 -213c256,-180 296,-513 133,-746z"/>
    </g>
    <g>
     <polygon class="fil10" points="303400,244242 306272,242568 306272,245916 "/>
     <polygon class="fil10" points="299031,244242 301903,242568 301903,245916 "/>
     <polygon class="fil10" points="295027,244242 297896,242568 297896,245916 "/>
    </g>
    <path class="fil10" d="M332666 243354c0,6566 -5321,11884 -11884,11884 -6563,0 -11884,-5318 -11884,-11884 0,-6563 5321,-11884 11884,-11884 6563,0 11884,5321 11884,11884z"/>
    <g>
     <path class="fil2" d="M317511 244865l-63 -589c76,-563 768,-673 2143,-772l3294 89c789,110 1555,280 1588,896l-50 456 4779 173 -33 -493c-107,-835 -1378,-3554 -7831,-3810 -6699,-273 -8367,2446 -8483,3334l-83 556 4739 160z"/>
     <path class="fil2" d="M313174 245823l3871 110c299,10 539,-223 549,-519l-90 -609 -4722 -153 -127 619c-6,316 237,542 519,552z"/>
     <path class="fil2" d="M324802 246046l3867 107c300,13 543,-223 550,-519l-17 -516 -4779 -173 -143 545c-7,317 236,546 522,556z"/>
    </g>
   </g>
   <g>
    <path class="fil11" d="M288814 210693c509,0 902,390 902,892 0,503 -393,895 -902,895 -493,0 -895,-392 -895,-895 0,-502 402,-892 895,-892z"/>
    <path class="fil11" d="M290910 210693c510,0 902,390 902,892 0,503 -392,895 -902,895 -492,0 -895,-392 -895,-895 0,-502 403,-892 895,-892z"/>
    <path class="fil11" d="M293007 210693c513,0 902,390 902,892 0,503 -389,895 -902,895 -493,0 -895,-392 -895,-895 0,-502 402,-892 895,-892z"/>
   </g>
   <g>
    <path class="fil11" d="M328586 142031c0,20743 -16816,37562 -37562,37562 -20744,0 -37563,-16819 -37563,-37562 0,-20743 16819,-37563 37563,-37563 20746,0 37562,16820 37562,37563z"/>
    <g style="clip-path:url(#id1)">
     <g>
      <path id="1" class="fil8" d="M291829 148211c7757,0 14071,-6986 14071,-15565 0,-8583 -6314,-15565 -14071,-15565 -7758,0 -14071,6982 -14071,15565 0,8583 6313,15565 14071,15565z"/>
      <path class="fil8" d="M308036 146167c-819,-176 -1664,180 -2103,892 -5035,8154 -13149,8390 -14057,8390 -909,0 -9023,-236 -14054,-8386 -443,-716 -1288,-1072 -2110,-892 -10926,2406 -13808,18899 -12956,32291 66,1042 928,1854 1973,1854l54293 0c1045,0 1907,-812 1973,-1854 852,-13408 -2030,-29912 -12959,-32295z"/>
     </g>
    </g>
    <path class="fil6" d="M328586 142031c0,20743 -16816,37562 -37562,37562 -20744,0 -37563,-16819 -37563,-37562 0,-20743 16819,-37563 37563,-37563 20746,0 37562,16820 37562,37563z"/>
   </g>
   <path class="fil2" d="M253271 191158c-576,-379 -1158,-642 -1747,-792 -589,-153 -1132,-226 -1627,-226 -839,0 -1431,166 -1787,499 -353,333 -530,742 -530,1228 0,286 64,526 187,715 126,190 326,353 595,490 277,136 623,256 1042,352 413,100 919,200 1501,307 499,89 988,209 1471,362 483,150 912,373 1291,666 380,296 679,676 909,1138 229,466 343,1048 343,1757 0,666 -137,1258 -413,1774 -273,516 -646,952 -1118,1305 -470,352 -1015,622 -1638,805 -622,183 -1278,273 -1973,273 -902,0 -1827,-133 -2776,-399 -948,-270 -1827,-763 -2639,-1485l1435 -1843c589,549 1228,938 1923,1168 692,229 1418,342 2177,342 758,0 1371,-156 1833,-469 466,-316 696,-778 696,-1394 0,-549 -206,-965 -616,-1245 -412,-283 -1038,-489 -1873,-619 -589,-76 -1169,-186 -1738,-323 -569,-136 -1075,-346 -1521,-629 -445,-279 -802,-655 -1068,-1128 -269,-469 -402,-1085 -402,-1843 0,-679 129,-1272 396,-1774 262,-506 615,-922 1048,-1258 436,-333 928,-579 1487,-746 556,-163 1129,-243 1718,-243 875,0 1697,97 2462,293 766,197 1475,523 2130,982l-1178 1960z"/>
   <path id="1" class="fil2" d="M266826 192316c0,549 -107,1072 -323,1571 -216,496 -519,935 -912,1315 -392,379 -865,682 -1414,911 -549,230 -1158,343 -1824,343l-3118 0 0 5238 -2376 0 0 -13654 5318 0c639,0 1241,93 1804,276 562,183 1058,449 1481,802 425,353 758,799 1001,1335 243,535 363,1158 363,1863zm-2433 -56c0,-709 -209,-1228 -629,-1561 -416,-333 -965,-499 -1647,-499l-2882 0 0 4100 2962 0c692,0 1231,-203 1617,-609 386,-406 579,-882 579,-1431z"/>
   <path id="2" class="fil2" d="M276008 201694l-1082 -3021 -5058 0 -1102 3021 -2489 0 5158 -13654 1924 0 5158 13654 -2509 0zm-2689 -7807l-902 -2805 -60 0 -882 2745 -922 2826 3668 0 -902 -2766z"/>
   <polygon id="3" class="fil2" points="279539,197554 279539,195534 285775,195534 285775,197554 "/>
   <path id="4" class="fil2" d="M295174 200380c-473,459 -996,812 -1571,1058 -576,250 -1195,373 -1864,373 -589,0 -1151,-93 -1687,-283 -536,-190 -1009,-486 -1421,-882 -413,-399 -739,-915 -982,-1541 -243,-629 -363,-1381 -363,-2256 0,-875 127,-1627 383,-2256 256,-629 592,-1145 1012,-1551 416,-406 902,-699 1451,-882 549,-183 1111,-276 1687,-276 1295,0 2399,459 3315,1374l-1431 1551c-576,-602 -1192,-902 -1844,-902 -746,0 -1315,233 -1707,706 -393,469 -589,1214 -589,2236 0,1008 193,1747 579,2216 386,473 951,706 1697,706 326,0 652,-83 978,-253 330,-170 629,-393 906,-669l1451 1531z"/>
   <path id="5" class="fil2" d="M300312 191884c549,0 1068,50 1551,149 482,97 908,270 1274,520 366,249 659,579 872,991 217,410 326,932 326,1558l0 6592 -2216 0 0 -862c0,0 -13,-6 -40,-19 -263,339 -626,589 -1088,745 -466,156 -945,233 -1445,233 -1031,0 -1850,-250 -2452,-752 -599,-506 -902,-1228 -902,-2170 0,-393 73,-765 216,-1118 143,-353 353,-662 629,-932 273,-266 619,-479 1029,-636 412,-159 888,-236 1424,-236l2629 0 0 -705c0,-184 -30,-363 -90,-533 -60,-170 -160,-316 -303,-439 -146,-127 -339,-227 -589,-306 -249,-77 -562,-117 -942,-117 -535,0 -988,70 -1354,206 -366,137 -686,337 -962,599l-1175 -1490c470,-473 1019,-803 1648,-992 625,-190 1281,-286 1960,-286zm-2020 6829c0,143 30,286 90,432 56,143 156,270 293,383 136,110 312,203 529,273 216,73 489,110 815,110 250,0 489,-24 726,-70 236,-47 449,-120 639,-227 189,-103 349,-242 479,-412 130,-170 209,-386 236,-646 13,-80 20,-176 20,-296 0,-117 0,-326 0,-626l-2256 0c-563,0 -965,103 -1208,313 -243,210 -363,466 -363,766z"/>
   <path id="6" class="fil2" d="M309594 193907l0 2489c0,1781 -273,3119 -816,4014 -542,895 -1487,1388 -2832,1481 -66,-276 -133,-549 -196,-826 -67,-272 -133,-549 -197,-822 403,-119 739,-252 999,-402 263,-150 472,-366 629,-649 156,-280 266,-646 323,-1098 60,-450 89,-1022 89,-1718l0 -4393 7042 0 0 9711 -2216 0 0 -7787 -2825 0z"/>
   <path id="7" class="fil2" d="M321032 191867c732,0 1391,140 1973,419 583,283 1049,686 1401,1208 250,380 433,839 549,1381 120,546 170,1149 157,1818 0,745 -53,1381 -167,1913 -109,529 -276,988 -499,1381 -379,616 -888,1075 -1531,1385 -639,306 -1347,459 -2116,459 -736,0 -1388,-123 -1964,-373 -575,-246 -1038,-632 -1394,-1158 -536,-795 -789,-1947 -762,-3451 0,-523 33,-1022 106,-1491 74,-473 200,-889 383,-1255 339,-722 845,-1274 1521,-1657 672,-386 1454,-579 2343,-579zm-87 2000c-379,0 -722,97 -1025,293 -303,196 -532,466 -692,805 -116,263 -200,549 -246,862 -47,316 -73,662 -87,1042 0,379 20,725 57,1038 40,316 120,589 236,826 147,339 363,605 652,795 290,190 623,283 1005,283 423,0 796,-113 1125,-343 330,-230 566,-579 709,-1048 67,-183 113,-413 140,-689 27,-273 40,-619 40,-1038 0,-759 -87,-1328 -256,-1708 -147,-379 -366,-662 -663,-845 -296,-183 -625,-273 -995,-273z"/>
   <polygon id="8" class="fil2" points="333119,201694 333119,197674 329272,197674 329272,201694 327055,201694 327055,191983 329272,191983 329272,195927 333119,195927 333119,191983 335295,191983 335295,201694 "/>
  </g>
  <rect class="fil12" width="563535" height="392806"/>
 </g>
</svg>
