<?xml version="1.0" encoding="UTF-8"?>
<!DOCTYPE svg PUBLIC "-//W3C//DTD SVG 1.1//EN" "http://www.w3.org/Graphics/SVG/1.1/DTD/svg11.dtd">
<!-- Creator: CorelDRAW X8 -->
<svg xmlns="http://www.w3.org/2000/svg" xml:space="preserve" width="16.9333mm" height="11.8032mm" version="1.1" style="shape-rendering:geometricPrecision; text-rendering:geometricPrecision; image-rendering:optimizeQuality; fill-rule:evenodd; clip-rule:evenodd"
viewBox="0 0 1685140 1174611"
 xmlns:xlink="http://www.w3.org/1999/xlink">
 <defs>
  <style type="text/css">
   <![CDATA[
    .fil16 {fill:none}
    .fil9 {fill:#4D94DB}
    .fil1 {fill:#B3B3B3}
    .fil10 {fill:#BADAF4}
    .fil7 {fill:#DF9C00}
    .fil11 {fill:#F5CA56}
    .fil12 {fill:#FFDB71}
    .fil8 {fill:#FFFDF9}
    .fil5 {fill:#116BC4;fill-rule:nonzero}
    .fil6 {fill:#295D94;fill-rule:nonzero}
    .fil4 {fill:#4D94DB;fill-rule:nonzero}
    .fil13 {fill:#565E74;fill-rule:nonzero}
    .fil14 {fill:#AA5257;fill-rule:nonzero}
    .fil2 {fill:#B3B3B3;fill-rule:nonzero}
    .fil0 {fill:#CCCCCC;fill-rule:nonzero}
    .fil15 {fill:#D65E6B;fill-rule:nonzero}
    .fil3 {fill:white;fill-rule:nonzero}
   ]]>
  </style>
 </defs>
 <g id="Слой_x0020_1">
  <metadata id="CorelCorpID_0Corel-Layer"/>
  <g id="_735904608">
   <path class="fil0" d="M778357 1011414l-12499 0 0 -67900 -11693 2956c-26352,6190 -53689,9474 -81594,9474 -22301,0 -44543,-2170 -66447,-6319 -22311,-4210 -43727,-10440 -64019,-18451 -70557,-24142 -131142,-69840 -173865,-129212 -42145,-58595 -66974,-130326 -66974,-207631 0,-98312 39856,-187349 104293,-251766 64417,-64437 153454,-104293 251766,-104293 22322,0 44574,2169 66497,6319 22521,4260 43996,10499 64188,18470 31507,10858 61153,26054 88112,44892 16301,11395 31586,24063 45678,37866l163545 -113279 0 -43887 190016 -121579 -6617 102462 115120 34154 -192554 123221 -37349 -7732 -166182 115120c9803,18580 17993,38085 24382,58327 6409,20321 11056,41418 13753,63093l28133 20311 137761 0 0 13117 21147 0 0 101606 54385 39259 0 303425 -488983 0 0 -22023zm78240 -133441l0 42702 12499 0 0 22023 307505 0 0 -166680 -54385 -39279 0 -56843 -21147 0 0 -13127 -75802 0 -2866 -2070 -90 80 -16957 -12240 -70597 50962c1134,-34453 2816,-69174 3324,-103627l-179 0c0,-27914 -4300,-54783 -12241,-79951 -8280,-26223 -20441,-50604 -35776,-72428l-5175 -7354 -4986 -6220c-15992,-19913 -34671,-37428 -55351,-51888 -20430,-14260 -43090,-25765 -67372,-33895l-2299 -727c-15535,-6140 -31447,-10807 -47539,-13852 -15743,-2986 -32412,-4548 -49838,-4548 -73264,0 -139611,29706 -187608,77712 -48007,47997 -77712,114344 -77712,187608 0,57939 18400,111399 49619,154818 32193,44742 78000,79096 131321,96959l2130 716c15415,6071 31387,10748 47698,13833 15734,2985 32393,4548 49798,4548 21157,0 41598,-2428 61034,-6986 19982,-4697 39229,-11763 57420,-20839l65572 -32761 0 73354z"/>
   <g>
    <polygon class="fil1" points="1225852,759827 1026730,903578 827608,759827 1026730,616076 "/>
    <polygon class="fil1" points="882003,994875 1171456,994875 1171456,641333 882003,641333 "/>
    <g>
     <polygon class="fil1" points="927174,706347 1009872,706347 1009872,689668 927174,689668 "/>
     <polygon class="fil1" points="926368,738720 1127102,738720 1127102,722051 926368,722051 "/>
     <polygon class="fil1" points="926368,769779 1127102,769779 1127102,753110 926368,753110 "/>
     <polygon class="fil1" points="926368,800848 1127102,800848 1127102,784169 926368,784169 "/>
     <polygon class="fil1" points="926368,831907 1127102,831907 1127102,815228 926368,815228 "/>
     <polygon class="fil1" points="926368,862966 1127102,862966 1127102,846297 926368,846297 "/>
     <polygon class="fil1" points="926368,894035 1127102,894035 1127102,877356 926368,877356 "/>
    </g>
    <polygon class="fil1" points="827608,994875 1225852,994875 1225852,759827 1026730,903578 827608,759827 "/>
    <polygon class="fil1" points="827608,994875 1225852,994875 1063063,877356 990416,877356 990416,877346 "/>
   </g>
   <g>
    <path class="fil2" d="M987162 606691c0,171596 -139104,310690 -310690,310690 -171596,0 -310700,-139094 -310700,-310690 0,-171586 139104,-310690 310700,-310690 171586,0 310690,139104 310690,310690z"/>
    <path class="fil2" d="M937673 606691c0,144259 -116942,261211 -261201,261211 -144269,0 -261210,-116952 -261210,-261211 0,-144259 116941,-261200 261210,-261200 144259,0 261201,116941 261201,261200z"/>
    <path class="fil2" d="M886352 606691c0,115927 -93963,209890 -209880,209890 -115926,0 -209890,-93963 -209890,-209890 0,-115916 93964,-209890 209890,-209890 115917,0 209880,93974 209880,209890z"/>
    <path class="fil2" d="M845501 606691c0,93357 -75673,169039 -169029,169039 -93356,0 -169038,-75682 -169038,-169039 0,-93356 75682,-169028 169038,-169028 93356,0 169029,75672 169029,169028z"/>
    <path class="fil2" d="M798579 606691c0,67443 -54675,122117 -122107,122117 -67442,0 -122116,-54674 -122116,-122117 0,-67442 54674,-122106 122116,-122106 67432,0 122107,54664 122107,122106z"/>
    <path class="fil2" d="M756722 606691c0,44325 -35935,80250 -80250,80250 -44324,0 -80260,-35925 -80260,-80250 0,-44314 35936,-80250 80260,-80250 44315,0 80250,35936 80250,80250z"/>
   </g>
   <g>
    <path class="fil3" d="M971906 601148c0,171596 -139104,310690 -310690,310690 -171586,0 -310690,-139094 -310690,-310690 0,-171586 139104,-310690 310690,-310690 171586,0 310690,139104 310690,310690z"/>
    <path class="fil4" d="M922417 601148c0,144259 -116942,261211 -261201,261211 -144259,0 -261210,-116952 -261210,-261211 0,-144259 116951,-261200 261210,-261200 144259,0 261201,116941 261201,261200z"/>
    <path class="fil3" d="M871106 601148c0,115917 -93973,209890 -209890,209890 -115916,0 -209890,-93973 -209890,-209890 0,-115916 93974,-209890 209890,-209890 115917,0 209890,93974 209890,209890z"/>
    <path class="fil5" d="M830255 601148c0,93357 -75682,169039 -169039,169039 -93356,0 -169038,-75682 -169038,-169039 0,-93356 75682,-169038 169038,-169038 93357,0 169039,75682 169039,169038z"/>
    <path class="fil3" d="M783333 601148c0,67442 -54674,122117 -122117,122117 -67442,0 -122116,-54675 -122116,-122117 0,-67442 54674,-122116 122116,-122116 67443,0 122117,54674 122117,122116z"/>
    <path class="fil6" d="M741466 601148c0,44325 -35925,80250 -80250,80250 -44324,0 -80250,-35925 -80250,-80250 0,-44324 35926,-80250 80250,-80250 44325,0 80250,35926 80250,80250z"/>
   </g>
   <g>
    <polygon class="fil7" points="1203351,743725 1009245,883864 815128,743725 1009245,603586 "/>
    <polygon class="fil8" points="868151,972862 1150329,972862 1150329,628207 868151,628207 "/>
    <g>
     <polygon class="fil9" points="912177,691589 992795,691589 992795,675338 912177,675338 "/>
     <polygon class="fil9" points="911400,723155 1107079,723155 1107079,706894 911400,706894 "/>
     <polygon class="fil9" points="911400,753428 1107079,753428 1107079,737177 911400,737177 "/>
     <polygon class="fil9" points="911400,783711 1107079,783711 1107079,767460 911400,767460 "/>
     <polygon class="fil9" points="911400,813994 1107079,813994 1107079,797743 911400,797743 "/>
     <polygon class="fil9" points="911400,844277 1107079,844277 1107079,828016 911400,828016 "/>
     <polygon class="fil10" points="911400,874549 1107079,874549 1107079,858298 911400,858298 "/>
    </g>
    <polygon class="fil11" points="815128,972862 1203351,972862 1203351,743725 1009235,883864 815128,743725 "/>
    <polygon class="fil12" points="815128,972862 1203351,972862 1044653,858298 973837,858298 973837,858289 "/>
   </g>
   <g>
    <g>
     <polygon class="fil13" points="706088,583902 694793,567601 1191419,223603 1202715,239914 "/>
     <polygon class="fil14" points="1134615,275013 1134615,220090 1228310,160122 1225126,209462 "/>
     <polygon class="fil15" points="1225126,209462 1280108,225773 1186404,285731 1134615,275013 "/>
    </g>
    <g>
     <polygon class="fil14" points="776615,579275 644000,615081 729116,555460 "/>
     <polygon class="fil14" points="722956,502677 644000,615081 729116,555460 "/>
    </g>
   </g>
  </g>
  <rect class="fil16" x="-3" width="1685144" height="1174611"/>
 </g>
</svg>
