<?xml version="1.0" encoding="UTF-8"?>
<!DOCTYPE svg PUBLIC "-//W3C//DTD SVG 1.1//EN" "http://www.w3.org/Graphics/SVG/1.1/DTD/svg11.dtd">
<!-- Creator: CorelDRAW X8 -->
<svg xmlns="http://www.w3.org/2000/svg" xml:space="preserve" width="16.9334mm" height="11.8032mm" version="1.1" style="shape-rendering:geometricPrecision; text-rendering:geometricPrecision; image-rendering:optimizeQuality; fill-rule:evenodd; clip-rule:evenodd"
viewBox="0 0 338998 236294"
 xmlns:xlink="http://www.w3.org/1999/xlink">
 <defs>
  <style type="text/css">
   <![CDATA[
    .str0 {stroke:#B281D6;stroke-width:1525.48}
    .fil22 {fill:none}
    .fil7 {fill:none;fill-rule:nonzero}
    .fil17 {fill:#999999}
    .fil19 {fill:#B281D6}
    .fil18 {fill:#B3B3B3}
    .fil20 {fill:#C19ADE}
    .fil21 {fill:white}
    .fil4 {fill:#003E62;fill-rule:nonzero}
    .fil1 {fill:#4D4D4D;fill-rule:nonzero}
    .fil2 {fill:#999999;fill-rule:nonzero}
    .fil11 {fill:#B281D6;fill-rule:nonzero}
    .fil8 {fill:#B3B3B3;fill-rule:nonzero}
    .fil0 {fill:#D0D0D0;fill-rule:nonzero}
    .fil13 {fill:#DBDADA;fill-rule:nonzero}
    .fil6 {fill:#E6E6E6;fill-rule:nonzero}
    .fil10 {fill:#EBEBEB;fill-rule:nonzero}
    .fil12 {fill:#F1F566;fill-rule:nonzero}
    .fil3 {fill:#F9BD9C;fill-rule:nonzero}
    .fil9 {fill:#FFC8A5;fill-rule:nonzero}
    .fil16 {fill:#FFD0D4;fill-rule:nonzero}
    .fil14 {fill:#FFF0F2;fill-rule:nonzero}
    .fil5 {fill:white;fill-rule:nonzero}
    .fil15 {fill:#FFF0F2;fill-rule:nonzero;fill-opacity:0.600000}
   ]]>
  </style>
    <clipPath id="id0" style="clip-rule:nonzero">
     <path d="M192305 152048c0,833 78,1702 -733,1702l-51299 0c-811,0 -2008,-869 -2008,-1702l0 -85856c0,-832 1197,-1337 2008,-1337l51299 0c811,0 733,505 733,1337l0 85856z"/>
    </clipPath>
     <clipPath id="id1" style="clip-rule:nonzero">
      <rect x="118577" y="176246" width="31004" height="30237"/>
     </clipPath>
 </defs>
 <g id="Слой_x0020_1">
  <metadata id="CorelCorpID_0Corel-Layer"/>
  <g id="_735913944">
   <path class="fil0" d="M172017 185769c-1631,2302 -3367,4288 -5151,6002 -586,846 -1483,2168 -2490,3733l-88 883 -2499 17912c-748,5353 -5299,9515 -10868,9601 -80,2 -19631,112 -33150,-3429 -1037,168 -2112,186 -3204,46 -6097,-797 -10398,-6387 -9603,-12483 4,-26 1193,-8276 2755,-14432l0 -14119c0,-1924 486,-3738 1345,-5317 -556,-1768 -1017,-3608 -1355,-5514 -897,-5023 3421,-2136 -1592,-2903l1304 -27775c284,-6030 2902,-9977 5349,-12242 570,-798 1221,-1571 1938,-2314 895,-2010 2052,-4504 3393,-7163 1423,-2823 3061,-5842 4837,-8726l0 -46484c0,-4864 2398,-8246 5773,-10438 2469,-1611 5612,-2320 7838,-2320l59214 0c3843,0 6936,1323 9489,4296l-22 20 22 26c2062,2419 3025,5151 3025,8416l0 108610c0,3013 -833,5676 -2591,8008l-28 -22 -14 22c-2462,3241 -5715,4887 -9881,4887l-21650 0c-674,1133 -1375,2206 -2096,3219z"/>
   <path class="fil1" d="M143956 170416l94 -80c1047,-903 2100,-2048 3121,-3488 1087,-1527 2138,-3423 3105,-5747 1782,-4288 5930,-6877 10300,-6879l15171 -16c-478,-1079 -789,-2250 -901,-3477 -60,-473 -92,-955 -92,-1444l0 -84652 -36161 0 0 40145c0,2570 -869,4939 -2330,6827 -1796,2706 -3496,5807 -4951,8690 -1610,3189 -2911,6108 -3726,8006 -731,1720 -1846,3161 -3203,4266l-256 246c-841,1350 -1552,4553 -1948,8947 -453,4957 -262,10893 833,17053 318,1787 790,3357 1351,4716 575,1398 1301,2719 2082,3932 3263,5085 1876,11821 -3073,15215l0 6354c0,1221 -198,2398 -560,3499 -733,2675 -1370,5928 -1810,8433 2328,652 7859,-613 12900,-2074l665 -4765c-396,-865 -689,-1796 -857,-2779 -488,-2869 164,-5669 1630,-7934 1653,-2908 3451,-5717 4850,-7821 695,-1984 1954,-3792 3748,-5161l18 -12z"/>
   <path class="fil2" d="M162062 185004c3601,-2921 7125,-7317 9871,-13911l28496 0c935,0 1341,-589 1341,-1722l0 -108608c0,-1131 -406,-1587 -1341,-1587l-59214 0c-932,0 -2438,456 -2438,1587l0 49731c-4466,6554 -8328,15052 -10088,19158 -929,801 -1677,1560 -2176,2256 -3776,5286 -5784,19686 -3141,34540 911,5123 2873,9377 5047,12750l-4863 0 0 15548c-1615,5667 -2883,14444 -2883,14444 1188,3717 34740,3297 34740,3297l2499 -17910c-419,273 -1051,471 -1848,607 3149,-5640 7067,-11095 7067,-11095 -349,332 -707,639 -1069,915zm-53576 -30526c-1400,-554 -2963,-1445 -3504,-2939 -10,-32 -56,-14 -46,16 497,1478 2082,2573 3520,3015 52,14 78,-74 30,-92zm88798 -86009l0 118 0 40 0 342 0 176 0 2501 0 81221 0 2136 2 418c14,-296 8,-604 8,-881l0 0 0 -85545c0,-280 6,-440 -10,-526z"/>
   <path class="fil3" d="M139436 187589c0,0 25539,4046 31578,-34516 0,0 -3495,-20332 -9108,-27126 -5614,-6797 -42816,-2110 -39040,29056 3775,31166 4624,27028 16570,32586z"/>
   <path class="fil3" d="M158152 181134c0,0 -7876,10965 -10266,17874 -2390,6908 -24178,4518 -27367,1593 -3187,-2923 2136,-18736 5319,-22786 3184,-4048 21379,13775 32314,3319z"/>
   <path class="fil3" d="M122697 129132c0,0 11798,-29853 21345,-30374l-13010 33633 -8335 -3259z"/>
   <g>
    <path class="fil4" d="M196792 57808c0,-1131 -407,-1587 -1342,-1587l-59211 0c-935,0 -2441,456 -2441,1587l0 108610c0,1131 1506,1722 2441,1722l59211 0c935,0 1342,-591 1342,-1722l0 -108610zm-4477 93778l0 0c0,908 66,2164 -741,2164l-50977 0c-805,0 -2322,-1256 -2322,-2164l0 -85544c0,-909 1517,-548 2322,-548l50977 0c807,0 741,-361 741,548l0 85544z"/>
   </g>
   <g>
    <path class="fil2" d="M168258 60539c0,492 -216,1437 -483,1437l-8458 0c-268,0 -484,-945 -484,-1437 0,-493 216,-1439 484,-1439l8458 0c267,0 483,946 483,1439z"/>
    <path class="fil2" d="M171641 60539c0,492 -216,1437 -482,1437l-1450 0c-268,0 -484,-945 -484,-1437 0,-493 216,-1439 484,-1439l1450 0c266,0 482,946 482,1439z"/>
   </g>
   <path class="fil5" d="M192305 152048c0,833 78,1702 -733,1702l-51299 0c-811,0 -2008,-869 -2008,-1702l0 -85856c0,-832 1197,-1337 2008,-1337l51299 0c811,0 733,505 733,1337l0 85856z"/>
   <g style="clip-path:url(#id0)">
    <g>
     <path id="1" class="fil6" d="M192307 152048c0,833 40,1702 -366,1702l-25641 0c-405,0 -1003,-869 -1003,-1702l0 -85856c0,-832 598,-1337 1003,-1337l25641 0c406,0 366,505 366,1337l0 85856z"/>
    </g>
   </g>
   <path class="fil7" d="M192305 152048c0,833 78,1702 -733,1702l-51299 0c-811,0 -2008,-869 -2008,-1702l0 -85856c0,-832 1197,-1337 2008,-1337l51299 0c811,0 733,505 733,1337l0 85856z"/>
   <polygon class="fil4" points="192305,154390 136347,154390 136347,149912 192305,149912 "/>
   <path class="fil8" d="M169243 161379c0,2198 -1782,3982 -3980,3982 -2198,0 -3982,-1784 -3982,-3982 0,-2198 1784,-3980 3982,-3980 2198,0 3980,1782 3980,3980z"/>
   <g>
    <g style="clip-path:url(#id1)">
     <image x="118577" y="176248" width="31002" height="30235" xlink:href="viber_Images\viber_ImgID1.png"/>
    </g>
    <g>
     <path class="fil9" d="M142481 193098c945,-2218 1811,-4506 2937,-6643 392,-746 746,-1499 1147,-2256 -9215,-1507 -18520,-9189 -20727,-6384 -3185,4050 -8508,19863 -5319,22786 2046,1878 11756,3534 19081,2653 220,-3506 1487,-6891 2881,-10156z"/>
    </g>
   </g>
   <g>
    <path class="fil5" d="M119538 188966c0,0 28880,5579 33397,2656l-2501 17910c0,0 -33550,422 -34739,-3297 0,0 1797,-12448 3843,-17269z"/>
   </g>
   <g>
    <g>
     <polygon class="fil10 str0" points="140397,114970 141249,114505 142102,114039 142102,114970 142102,115901 141249,115434 "/>
     <path class="fil11" d="M142102 113272c0,-210 130,-452 501,-452l18065 0c371,0 619,242 619,452l0 3452c0,212 -248,252 -619,252l-18065 0c-371,0 -501,-40 -501,-252l0 -3452z"/>
    </g>
    <g>
     <polygon class="fil10" points="140397,121684 141249,121220 142102,120756 142102,121684 142102,122615 141249,122151 "/>
     <path class="fil11" d="M142102 119851c0,-213 237,-317 761,-317l25687 0c525,0 1371,104 1371,317l0 3449c0,212 -846,392 -1371,392l-25687 0c-524,0 -761,-180 -761,-392l0 -3449z"/>
    </g>
    <g>
     <path class="fil11" d="M159369 81205c0,330 -268,597 -598,597l-16072 0c-328,0 -597,-267 -597,-597l0 -5519c0,-331 269,-599 597,-599l16072 0c330,0 598,268 598,599l0 5519z"/>
     <polygon class="fil11" points="140397,78418 141249,77954 142102,77487 142102,78418 142102,79349 141249,78885 "/>
    </g>
    <g>
     <g>
      <path class="fil12" d="M187508 109983c0,330 -268,599 -598,599l-16072 0c-328,0 -596,-269 -596,-599l0 -5519c0,-331 268,-597 596,-597l16072 0c330,0 598,266 598,597l0 5519z"/>
      <polygon class="fil12" points="188916,107304 188211,107769 187508,108233 187508,107304 187508,106374 188211,106838 "/>
     </g>
     <g>
      <path class="fil8" d="M187508 109983c0,330 -268,599 -598,599l-16072 0c-328,0 -596,-269 -596,-599l0 -5519c0,-331 268,-597 596,-597l16072 0c330,0 598,266 598,597l0 5519z"/>
      <polygon class="fil8" points="188916,107304 188211,107769 187508,108233 187508,107304 187508,106374 188211,106838 "/>
     </g>
    </g>
    <g>
     <path class="fil11" d="M171521 87994c0,212 -414,524 -979,524l-27539 0c-564,0 -901,-312 -901,-524l0 -3452c0,-210 337,-500 901,-500l27539 0c565,0 979,290 979,500l0 3452z"/>
     <polygon class="fil11" points="140397,86192 141249,85725 142102,85261 142102,86192 142102,87121 141249,86656 "/>
    </g>
    <g>
     <path class="fil8" d="M157451 91153c0,-212 457,-397 1019,-397l27539 0c565,0 1179,185 1179,397l0 3449c0,212 -614,310 -1179,310l-27539 0c-562,0 -1019,-98 -1019,-310l0 -3449z"/>
     <polygon class="fil8" points="188616,92954 187903,93421 187188,93885 187188,92954 187188,92026 187903,92490 "/>
    </g>
    <g>
     <polygon class="fil10" points="141356,141191 142208,140725 143061,140261 143061,141191 143061,142120 142208,141656 "/>
     <path class="fil11" d="M142741 139580c0,-212 120,-539 498,-539l18454 0c379,0 1194,327 1194,539l0 3449c0,212 -815,489 -1194,489l-18454 0c-378,0 -498,-277 -498,-489l0 -3449z"/>
    </g>
    <g>
     <path class="fil8" d="M157451 97729c0,-212 457,-258 1019,-258l27539 0c565,0 1179,46 1179,258l0 3449c0,213 -614,451 -1179,451l-27539 0c-562,0 -1019,-238 -1019,-451l0 -3449z"/>
     <polygon class="fil8" points="188780,99491 187985,99987 187188,100486 187188,99491 187188,98494 187985,98992 "/>
    </g>
    <g>
     <path class="fil8" d="M181112 126427c0,-212 106,-496 216,-496l5436 0c112,0 424,284 424,496l0 3449c0,213 -312,211 -424,211l-5436 0c-110,0 -216,2 -216,-211l0 -3449z"/>
     <polygon class="fil8" points="188780,127949 187985,128447 187188,128943 187188,127949 187188,126954 187985,127452 "/>
    </g>
    <g>
     <path class="fil8" d="M166724 133003c0,-212 351,-358 727,-358l18456 0c378,0 1281,146 1281,358l0 3450c0,212 -903,350 -1281,350l-18456 0c-376,0 -727,-138 -727,-350l0 -3450z"/>
     <polygon class="fil8" points="188780,134665 187985,135162 187188,135660 187188,134665 187188,133668 187985,134167 "/>
    </g>
   </g>
   <g>
    <path class="fil9" d="M132497 185897c0,0 -11459,-7549 -14104,-22404 -2642,-14854 -634,-29252 3141,-34539 3776,-5284 21944,-14128 24210,-18280 2264,-4154 8718,-2543 9457,1988 739,4530 -10188,17755 -15095,20019 -4908,2266 -7425,4110 -7425,8088 0,3978 1418,5762 5279,10338 3864,4577 8507,16376 8883,20136 378,3757 2642,22908 -14346,14654z"/>
   </g>
   <polygon class="fil13" points="192305,68693 138265,68693 138265,64855 192305,64855 "/>
   <path class="fil14" d="M141584 114449c0,0 1011,3061 2240,3308 1231,246 6030,-3171 6276,-3920 246,-749 -2841,-4078 -2653,-4382 187,-303 -4588,4126 -5863,4994z"/>
   <path class="fil15" d="M134393 136825c-1255,-134 -2533,-1291 -2835,-2514 -14,-56 -96,-24 -84,32 276,1193 1624,2606 2915,2584 60,0 64,-96 4,-102z"/>
   <path class="fil15" d="M103507 151523c-1400,-554 -2963,-1445 -3504,-2938 -10,-30 -56,-14 -46,18 497,1475 2082,2570 3520,3013 52,16 80,-73 30,-93z"/>
   <path class="fil15" d="M125708 132059c-1207,-951 -2058,-2317 -2446,-3798 -10,-38 -68,-16 -58,22 360,1493 1197,2927 2438,3852 52,38 116,-36 66,-76z"/>
   <path class="fil15" d="M124103 132497c-711,-765 -1434,-1532 -1482,-2635 -2,-32 -52,-26 -50,6 32,1089 729,1958 1492,2677 30,28 66,-20 40,-48z"/>
   <path class="fil15" d="M123042 133664c-246,-250 -531,-450 -731,-743 -30,-46 -100,4 -68,48 206,295 496,501 757,745 30,28 70,-20 42,-50z"/>
   <path class="fil16" d="M141602 155834c-493,-307 -1045,-609 -1628,-857 417,126 835,268 1263,420 65,22 111,-72 47,-96 -1986,-755 -3920,-1361 -6012,-640 -64,22 -26,116 38,98 454,-127 895,-199 1327,-231 -292,72 -579,181 -853,339 -68,38 -6,154 64,120 1976,-975 3904,134 5708,943 66,30 104,-62 46,-96z"/>
   <path class="fil15" d="M141085 155982c-895,-627 -2324,-1500 -3469,-1111 -58,20 -36,120 24,106 1151,-256 2426,518 3343,1125 923,613 2102,1535 2389,2665 6,24 44,14 42,-8 -131,-1192 -1434,-2151 -2329,-2777z"/>
   <path class="fil15" d="M145788 163857c-705,-1437 -2230,-2316 -3540,-3133 -66,-42 -136,70 -72,113 1298,840 2709,1705 3516,3071 32,52 122,4 96,-51z"/>
   <path class="fil15" d="M147133 167863c-502,-96 -927,-518 -1347,-796 -372,-247 -765,-457 -1163,-655 -891,-442 -1846,-713 -2817,-903 -94,-18 -118,124 -26,144 1041,234 2038,569 2991,1049 546,277 1071,607 1567,961 251,178 463,306 773,326 80,4 104,-110 22,-126z"/>
   <path class="fil15" d="M131670 187533c-560,-337 -1121,-667 -1704,-963 -14,-8 -22,14 -10,20 585,292 1148,620 1708,955 6,4 12,-8 6,-12z"/>
   <path class="fil15" d="M138176 188343c-2118,-256 -4434,-600 -6043,-2130 -56,-54 -135,38 -78,92 1615,1538 3969,1928 6105,2132 61,6 79,-86 16,-94z"/>
   <path class="fil15" d="M138285 189300c-1498,-128 -2925,-296 -4249,-1067 -64,-38 -112,66 -50,104 1332,779 2765,973 4281,1063 62,2 82,-94 18,-100z"/>
   <polygon class="fil8" points="192305,68693 165259,68693 165259,64855 192305,64855 "/>
   <path class="fil17" d="M165263 157401l0 7960c1421,0 2670,-747 3373,-1870 376,-600 599,-1307 607,-2064 0,-18 0,-32 0,-48 0,-2196 -1782,-3980 -3980,-3978z"/>
   <g>
    <path class="fil18" d="M219566 30291c11323,699 20031,8739 19449,17958 -351,5535 -3970,10238 -9257,12961l2452 7070 -6761 -5403c-2486,681 -5187,975 -7991,801 -11323,-697 -20030,-8737 -19447,-17958 580,-9218 10232,-16125 21555,-15429z"/>
    <path class="fil19" d="M199156 17387c-11321,-699 -20973,6210 -21555,15429 -350,5535 2650,10644 7553,13996l-3323 6714 7389 -4528c2382,979 5025,1603 7828,1775 11323,699 20974,-6210 21557,-15429 582,-9219 -8126,-17260 -19449,-17957z"/>
    <path class="fil20" d="M199156 17387c-11321,-699 -20973,6210 -21555,15429 -8,132 -14,264 -20,396l40992 2527c12,-130 24,-262 32,-395 582,-9219 -8126,-17260 -19449,-17957z"/>
    <g>
     <path class="fil21" d="M188950 36478c1529,94 2853,-1007 2945,-2453 90,-1443 -1083,-2699 -2615,-2793 -1529,-94 -2853,1007 -2943,2451 -92,1445 1083,2700 2613,2795z"/>
     <path class="fil21" d="M197917 37030c1529,94 2852,-1007 2942,-2450 93,-1446 -1081,-2701 -2612,-2795 -1530,-94 -2853,1007 -2943,2450 -92,1446 1083,2701 2613,2795z"/>
     <path class="fil21" d="M206883 37583c1532,94 2853,-1007 2945,-2451 90,-1445 -1083,-2700 -2612,-2795 -1532,-94 -2855,1007 -2945,2453 -92,1443 1083,2698 2612,2793z"/>
    </g>
   </g>
  </g>
  <rect class="fil22" x="1" width="338997" height="236294"/>
 </g>
</svg>
