<?xml version="1.0" encoding="UTF-8"?>
<!DOCTYPE svg PUBLIC "-//W3C//DTD SVG 1.1//EN" "http://www.w3.org/Graphics/SVG/1.1/DTD/svg11.dtd">
<!-- Creator: CorelDRAW X8 -->
<svg xmlns="http://www.w3.org/2000/svg" xml:space="preserve" width="45.3114mm" height="75.2308mm" version="1.1" style="shape-rendering:geometricPrecision; text-rendering:geometricPrecision; image-rendering:optimizeQuality; fill-rule:evenodd; clip-rule:evenodd"
viewBox="0 0 4453687 7394484"
 xmlns:xlink="http://www.w3.org/1999/xlink">
 <defs>
  <style type="text/css">
   <![CDATA[
    .str1 {stroke:black;stroke-width:19658.1}
    .str0 {stroke:#6EC9CA;stroke-width:7489.75}
    .fil61 {fill:none}
    .fil48 {fill:#116BC4}
    .fil41 {fill:#1F3B4F}
    .fil10 {fill:#212626}
    .fil4 {fill:#232828}
    .fil42 {fill:#23485D}
    .fil5 {fill:#262424}
    .fil54 {fill:#295D94}
    .fil8 {fill:#2F2F2F}
    .fil53 {fill:#326698}
    .fil7 {fill:#343436}
    .fil39 {fill:#38383A}
    .fil16 {fill:#38424B}
    .fil30 {fill:#3B3B3B}
    .fil15 {fill:#3F464D}
    .fil26 {fill:#424242}
    .fil6 {fill:#424244}
    .fil21 {fill:#424B54}
    .fil22 {fill:#424F59}
    .fil9 {fill:#484649}
    .fil20 {fill:#495259}
    .fil50 {fill:#4D94DB}
    .fil40 {fill:#4F4D69}
    .fil57 {fill:#50A1B6}
    .fil17 {fill:#525254}
    .fil45 {fill:#545456}
    .fil58 {fill:#59574D}
    .fil24 {fill:#59595B}
    .fil46 {fill:#666666}
    .fil18 {fill:#676767}
    .fil29 {fill:#6D6E70}
    .fil47 {fill:#6EC9CA}
    .fil52 {fill:#708E8C}
    .fil14 {fill:#726249}
    .fil55 {fill:#745669}
    .fil13 {fill:#796952}
    .fil56 {fill:#796B64}
    .fil36 {fill:#7C6B54}
    .fil44 {fill:#7E8082}
    .fil27 {fill:#808082}
    .fil28 {fill:#8A8A8C}
    .fil37 {fill:#909395}
    .fil60 {fill:#92E5E8}
    .fil51 {fill:#98C4E0}
    .fil19 {fill:#A0896B}
    .fil59 {fill:#A3E1E1}
    .fil25 {fill:#A5A7A8}
    .fil49 {fill:#A8908C}
    .fil38 {fill:#AAAAAC}
    .fil31 {fill:#BABCBD}
    .fil32 {fill:#CAE2EB}
    .fil0 {fill:#CCCCCC}
    .fil43 {fill:#CFB3A3}
    .fil35 {fill:#CFCFD1}
    .fil34 {fill:#D6AC95}
    .fil2 {fill:#D99C86}
    .fil3 {fill:#DFBDAC}
    .fil33 {fill:#E4E6E6}
    .fil12 {fill:#E9C4AF}
    .fil1 {fill:#E9CDBF}
    .fil11 {fill:#EFCFBF}
    .fil23 {fill:#F5CA56}
    .fil66 {fill:white;fill-rule:nonzero;fill-opacity:0.031373}
    .fil64 {fill:white;fill-rule:nonzero;fill-opacity:0.101961}
    .fil63 {fill:white;fill-rule:nonzero;fill-opacity:0.168627}
    .fil65 {fill:white;fill-rule:nonzero;fill-opacity:0.231373}
    .fil67 {fill:white;fill-rule:nonzero;fill-opacity:0.400000}
    .fil62 {fill:white;fill-rule:nonzero;fill-opacity:0.529412}
   ]]>
  </style>
   <clipPath id="id0">
    <path d="M1599425 4404001l-284394 -68410 97730 -406294 284394 68410 -97730 406294zm-928690 -517353l135750 0 85031 17781 -2084 70327 69197 12807 -1524 227799 12758 -10311 12562 -213075 204543 37911 12748 -10281 -271980 -75792 -3362 -57166 189190 0 109250 135376 -268186 216416 -283893 -351792zm1410314 0l3804 0 -374 1131 -3430 -1131zm249570 0l4167 -13613 77974 108778 -111619 59132 -2427 9446 122283 -56832 23904 34067 37341 -18390 79930 108543 2378 -9426 -69452 -105456 110400 -54463 2418 -9387 -155790 60360 -94979 -112759 -20415 -22557 105643 22557 177366 45391 -50590 197544 -282232 -72214 43700 -170721zm406461 0l183794 0 -26794 29045 60311 75713 -207108 235072 22557 826 205251 -209860 178162 223837 22567 806 -214067 -323927 24278 -31512 225272 0 -13751 378832 -473633 -17260 13161 -361572zm-472660 966286l-139622 -3558 5062 -199471 139632 3548 -5072 199481zm-8414 -193171l0 0 -56477 62641 -56518 -65491 -6644 -177 56615 72922 -19098 21171 17988 22116 -60282 69943 6674 187 59790 -62532 53234 65402 6664 177 -64144 -94811 68862 -91371 -6664 -177zm-636884 755865l-110675 -85188 121674 -158130 110715 85188 -121714 158130zm107078 -160980l0 0 -82525 17289 -7057 -86221 -5278 -4039 2752 92255 -27905 5868 1484 28455 -89906 20966 5278 4069 85149 -15245 4443 84196 5288 4069 4069 -114381 109486 -33222 -5278 -4059zm-739971 -625974l72224 157147 -224486 103166 -72205 -157157 224467 -103156zm-210136 114725l0 0 100384 28622 -41921 98566 3480 7509 50158 -102763 33939 9682 14793 -32053 110616 28799 -3450 -7479 -102094 -32368 43602 -94821 -3401 -7470 -70357 122962 -139169 -26666 3420 7480zm520597 814613l-42894 167546 -239358 -61264 42894 -167547 239358 61265zm-235505 -43238l0 0 59967 85454 -94644 50148 -2044 8000 103687 -48191 20267 28897 31689 -15589 67771 92049 2025 -7981 -58915 -89464 93622 -46167 2044 -7962 -132103 51200 -91302 -108385 -2064 7991zm762863 -479108l-303590 -44545 63614 -433688 303610 44506 -63634 433727zm32564 -423466l0 0 -139661 121655 -106066 -157718 -14468 -2123 104277 173936 -47229 41183 33448 52979 -149893 136663 14459 2143 146924 -120622 98851 156675 14488 2123 -114921 -223601 174269 -181199 -14478 -2094zm-334031 -49528l-192374 212760 -303994 -274801 192394 -212760 303974 274801zm-312171 -245383l0 0 21939 171733 -177671 531 -9160 10114 189396 9348 7421 58070 58561 1582 28328 187470 9151 -10134 -17339 -176785 173080 4521 9151 -10124 -233450 -26892 -50256 -229548 -9151 10114zm265778 963553l-223592 102586 -146561 -319376 223592 -102615 146561 319405zm-162976 -298980l0 0 -40830 142796 -140172 -59741 -10645 4866 146080 71447 -13790 48330 45606 20994 -41085 157383 10645 -4934 46108 -145205 134865 62150 10644 -4866 -174849 -100197 38058 -197928 -10635 4905zm916000 -528657l-223552 102626 -146571 -319396 223582 -102596 146541 319366zm-162975 -298951l0 0 -40781 142748 -140202 -59672 -10645 4865 146099 71467 -13800 48300 45597 20995 -41095 157334 10655 -4875 46128 -145235 134874 62159 10655 -4865 -174889 -100178 38039 -197928 -10635 4885zm-399424 -149500l0 0 -143072 103481 -87194 -158877 -13505 -3244 84029 174161 -48408 34972 27207 53215 -154061 116877 13525 3253 149854 -101878 80382 157236 13524 3263 -89798 -222186 181042 -157009 -13525 -3264z"/>
   </clipPath>
     <mask id="id1">
  <linearGradient id="id2" gradientUnits="userSpaceOnUse" x1="-5.26455e+06" y1="-2.44897e+06" x2="-5.26473e+06" y2="2.79583e+06">
   <stop offset="0" style="stop-opacity:1; stop-color:white"/>
   <stop offset="1" style="stop-opacity:0; stop-color:white"/>
  </linearGradient>
      <rect style="fill:url(#id2)" x="-20944981" y="-5182050" width="32466159" height="8845028"/>
     </mask>
    <clipPath id="id3">
    </clipPath>
    <clipPath id="id4">
    </clipPath>
    <clipPath id="id5">
    </clipPath>
    <clipPath id="id6">
     <path d="M1599425 4404001l-284394 -68410 97730 -406294 284394 68410 -97730 406294zm-928690 -517353l135750 0 85031 17781 -2084 70327 69197 12807 -1524 227799 12758 -10311 12562 -213075 204543 37911 12748 -10281 -271980 -75792 -3362 -57166 189190 0 109250 135376 -268186 216416 -283893 -351792zm1410314 0l3804 0 -374 1131 -3430 -1131zm249570 0l4167 -13613 77974 108778 -111619 59132 -2427 9446 122283 -56832 23904 34067 37341 -18390 79930 108543 2378 -9426 -69452 -105456 110400 -54463 2418 -9387 -155790 60360 -94979 -112759 -20415 -22557 105643 22557 177366 45391 -50590 197544 -282232 -72214 43700 -170721zm406461 0l183794 0 -26794 29045 60311 75713 -207108 235072 22557 826 205251 -209860 178162 223837 22567 806 -214067 -323927 24278 -31512 225272 0 -13751 378832 -473633 -17260 13161 -361572zm-472660 966286l-139622 -3558 5062 -199471 139632 3548 -5072 199481zm-8414 -193171l0 0 -56477 62641 -56518 -65491 -6644 -177 56615 72922 -19098 21171 17988 22116 -60282 69943 6674 187 59790 -62532 53234 65402 6664 177 -64144 -94811 68862 -91371 -6664 -177zm-636884 755865l-110675 -85188 121674 -158130 110715 85188 -121714 158130zm107078 -160980l0 0 -82525 17289 -7057 -86221 -5278 -4039 2752 92255 -27905 5868 1484 28455 -89906 20966 5278 4069 85149 -15245 4443 84196 5288 4069 4069 -114381 109486 -33222 -5278 -4059zm-739971 -625974l72224 157147 -224486 103166 -72205 -157157 224467 -103156zm-210136 114725l0 0 100384 28622 -41921 98566 3480 7509 50158 -102763 33939 9682 14793 -32053 110616 28799 -3450 -7479 -102094 -32368 43602 -94821 -3401 -7470 -70357 122962 -139169 -26666 3420 7480zm520597 814613l-42894 167546 -239358 -61264 42894 -167547 239358 61265zm-235505 -43238l0 0 59967 85454 -94644 50148 -2044 8000 103687 -48191 20267 28897 31689 -15589 67771 92049 2025 -7981 -58915 -89464 93622 -46167 2044 -7962 -132103 51200 -91302 -108385 -2064 7991zm762863 -479108l-303590 -44545 63614 -433688 303610 44506 -63634 433727zm32564 -423466l0 0 -139661 121655 -106066 -157718 -14468 -2123 104277 173936 -47229 41183 33448 52979 -149893 136663 14459 2143 146924 -120622 98851 156675 14488 2123 -114921 -223601 174269 -181199 -14478 -2094zm-334031 -49528l-192374 212760 -303994 -274801 192394 -212760 303974 274801zm-312171 -245383l0 0 21939 171733 -177671 531 -9160 10114 189396 9348 7421 58070 58561 1582 28328 187470 9151 -10134 -17339 -176785 173080 4521 9151 -10124 -233450 -26892 -50256 -229548 -9151 10114zm265778 963553l-223592 102586 -146561 -319376 223592 -102615 146561 319405zm-162976 -298980l0 0 -40830 142796 -140172 -59741 -10645 4866 146080 71447 -13790 48330 45606 20994 -41085 157383 10645 -4934 46108 -145205 134865 62150 10644 -4866 -174849 -100197 38058 -197928 -10635 4905zm916000 -528657l-223552 102626 -146571 -319396 223582 -102596 146541 319366zm-162975 -298951l0 0 -40781 142748 -140202 -59672 -10645 4865 146099 71467 -13800 48300 45597 20995 -41095 157334 10655 -4875 46128 -145235 134874 62159 10655 -4865 -174889 -100178 38039 -197928 -10635 4885zm-399424 -149500l0 0 -143072 103481 -87194 -158877 -13505 -3244 84029 174161 -48408 34972 27207 53215 -154061 116877 13525 3253 149854 -101878 80382 157236 13524 3263 -89798 -222186 181042 -157009 -13525 -3264z"/>
    </clipPath>
    <clipPath id="id7">
    </clipPath>
    <clipPath id="id8">
    </clipPath>
    <clipPath id="id9">
    </clipPath>
    <clipPath id="id10">
     <path d="M1599425 4404001l-284394 -68410 97730 -406294 284394 68410 -97730 406294zm-928690 -517353l135750 0 85031 17781 -2084 70327 69197 12807 -1524 227799 12758 -10311 12562 -213075 204543 37911 12748 -10281 -271980 -75792 -3362 -57166 189190 0 109250 135376 -268186 216416 -283893 -351792zm1410314 0l3804 0 -374 1131 -3430 -1131zm249570 0l4167 -13613 77974 108778 -111619 59132 -2427 9446 122283 -56832 23904 34067 37341 -18390 79930 108543 2378 -9426 -69452 -105456 110400 -54463 2418 -9387 -155790 60360 -94979 -112759 -20415 -22557 105643 22557 177366 45391 -50590 197544 -282232 -72214 43700 -170721zm406461 0l183794 0 -26794 29045 60311 75713 -207108 235072 22557 826 205251 -209860 178162 223837 22567 806 -214067 -323927 24278 -31512 225272 0 -13751 378832 -473633 -17260 13161 -361572zm-472660 966286l-139622 -3558 5062 -199471 139632 3548 -5072 199481zm-8414 -193171l0 0 -56477 62641 -56518 -65491 -6644 -177 56615 72922 -19098 21171 17988 22116 -60282 69943 6674 187 59790 -62532 53234 65402 6664 177 -64144 -94811 68862 -91371 -6664 -177zm-636884 755865l-110675 -85188 121674 -158130 110715 85188 -121714 158130zm107078 -160980l0 0 -82525 17289 -7057 -86221 -5278 -4039 2752 92255 -27905 5868 1484 28455 -89906 20966 5278 4069 85149 -15245 4443 84196 5288 4069 4069 -114381 109486 -33222 -5278 -4059zm-739971 -625974l72224 157147 -224486 103166 -72205 -157157 224467 -103156zm-210136 114725l0 0 100384 28622 -41921 98566 3480 7509 50158 -102763 33939 9682 14793 -32053 110616 28799 -3450 -7479 -102094 -32368 43602 -94821 -3401 -7470 -70357 122962 -139169 -26666 3420 7480zm520597 814613l-42894 167546 -239358 -61264 42894 -167547 239358 61265zm-235505 -43238l0 0 59967 85454 -94644 50148 -2044 8000 103687 -48191 20267 28897 31689 -15589 67771 92049 2025 -7981 -58915 -89464 93622 -46167 2044 -7962 -132103 51200 -91302 -108385 -2064 7991zm762863 -479108l-303590 -44545 63614 -433688 303610 44506 -63634 433727zm32564 -423466l0 0 -139661 121655 -106066 -157718 -14468 -2123 104277 173936 -47229 41183 33448 52979 -149893 136663 14459 2143 146924 -120622 98851 156675 14488 2123 -114921 -223601 174269 -181199 -14478 -2094zm-334031 -49528l-192374 212760 -303994 -274801 192394 -212760 303974 274801zm-312171 -245383l0 0 21939 171733 -177671 531 -9160 10114 189396 9348 7421 58070 58561 1582 28328 187470 9151 -10134 -17339 -176785 173080 4521 9151 -10124 -233450 -26892 -50256 -229548 -9151 10114zm265778 963553l-223592 102586 -146561 -319376 223592 -102615 146561 319405zm-162976 -298980l0 0 -40830 142796 -140172 -59741 -10645 4866 146080 71447 -13790 48330 45606 20994 -41085 157383 10645 -4934 46108 -145205 134865 62150 10644 -4866 -174849 -100197 38058 -197928 -10635 4905zm916000 -528657l-223552 102626 -146571 -319396 223582 -102596 146541 319366zm-162975 -298951l0 0 -40781 142748 -140202 -59672 -10645 4865 146099 71467 -13800 48300 45597 20995 -41095 157334 10655 -4875 46128 -145235 134874 62159 10655 -4865 -174889 -100178 38039 -197928 -10635 4885zm-399424 -149500l0 0 -143072 103481 -87194 -158877 -13505 -3244 84029 174161 -48408 34972 27207 53215 -154061 116877 13525 3253 149854 -101878 80382 157236 13524 3263 -89798 -222186 181042 -157009 -13525 -3264z"/>
    </clipPath>
    <clipPath id="id11">
    </clipPath>
    <clipPath id="id12">
    </clipPath>
    <clipPath id="id13">
    </clipPath>
    <clipPath id="id14">
     <path d="M1599425 4404001l-284394 -68410 97730 -406294 284394 68410 -97730 406294zm-928690 -517353l135750 0 85031 17781 -2084 70327 69197 12807 -1524 227799 12758 -10311 12562 -213075 204543 37911 12748 -10281 -271980 -75792 -3362 -57166 189190 0 109250 135376 -268186 216416 -283893 -351792zm1410314 0l3804 0 -374 1131 -3430 -1131zm249570 0l4167 -13613 77974 108778 -111619 59132 -2427 9446 122283 -56832 23904 34067 37341 -18390 79930 108543 2378 -9426 -69452 -105456 110400 -54463 2418 -9387 -155790 60360 -94979 -112759 -20415 -22557 105643 22557 177366 45391 -50590 197544 -282232 -72214 43700 -170721zm406461 0l183794 0 -26794 29045 60311 75713 -207108 235072 22557 826 205251 -209860 178162 223837 22567 806 -214067 -323927 24278 -31512 225272 0 -13751 378832 -473633 -17260 13161 -361572zm-472660 966286l-139622 -3558 5062 -199471 139632 3548 -5072 199481zm-8414 -193171l0 0 -56477 62641 -56518 -65491 -6644 -177 56615 72922 -19098 21171 17988 22116 -60282 69943 6674 187 59790 -62532 53234 65402 6664 177 -64144 -94811 68862 -91371 -6664 -177zm-636884 755865l-110675 -85188 121674 -158130 110715 85188 -121714 158130zm107078 -160980l0 0 -82525 17289 -7057 -86221 -5278 -4039 2752 92255 -27905 5868 1484 28455 -89906 20966 5278 4069 85149 -15245 4443 84196 5288 4069 4069 -114381 109486 -33222 -5278 -4059zm-739971 -625974l72224 157147 -224486 103166 -72205 -157157 224467 -103156zm-210136 114725l0 0 100384 28622 -41921 98566 3480 7509 50158 -102763 33939 9682 14793 -32053 110616 28799 -3450 -7479 -102094 -32368 43602 -94821 -3401 -7470 -70357 122962 -139169 -26666 3420 7480zm520597 814613l-42894 167546 -239358 -61264 42894 -167547 239358 61265zm-235505 -43238l0 0 59967 85454 -94644 50148 -2044 8000 103687 -48191 20267 28897 31689 -15589 67771 92049 2025 -7981 -58915 -89464 93622 -46167 2044 -7962 -132103 51200 -91302 -108385 -2064 7991zm762863 -479108l-303590 -44545 63614 -433688 303610 44506 -63634 433727zm32564 -423466l0 0 -139661 121655 -106066 -157718 -14468 -2123 104277 173936 -47229 41183 33448 52979 -149893 136663 14459 2143 146924 -120622 98851 156675 14488 2123 -114921 -223601 174269 -181199 -14478 -2094zm-334031 -49528l-192374 212760 -303994 -274801 192394 -212760 303974 274801zm-312171 -245383l0 0 21939 171733 -177671 531 -9160 10114 189396 9348 7421 58070 58561 1582 28328 187470 9151 -10134 -17339 -176785 173080 4521 9151 -10124 -233450 -26892 -50256 -229548 -9151 10114zm265778 963553l-223592 102586 -146561 -319376 223592 -102615 146561 319405zm-162976 -298980l0 0 -40830 142796 -140172 -59741 -10645 4866 146080 71447 -13790 48330 45606 20994 -41085 157383 10645 -4934 46108 -145205 134865 62150 10644 -4866 -174849 -100197 38058 -197928 -10635 4905zm916000 -528657l-223552 102626 -146571 -319396 223582 -102596 146541 319366zm-162975 -298951l0 0 -40781 142748 -140202 -59672 -10645 4865 146099 71467 -13800 48300 45597 20995 -41095 157334 10655 -4875 46128 -145235 134874 62159 10655 -4865 -174889 -100178 38039 -197928 -10635 4885zm-399424 -149500l0 0 -143072 103481 -87194 -158877 -13505 -3244 84029 174161 -48408 34972 27207 53215 -154061 116877 13525 3253 149854 -101878 80382 157236 13524 3263 -89798 -222186 181042 -157009 -13525 -3264z"/>
    </clipPath>
 </defs>
 <g id="Слой_x0020_1">
  <metadata id="CorelCorpID_0Corel-Layer"/>
  <path class="fil0" d="M0 7360633c0,18695 501164,33851 1119393,33851 618219,0 1119383,-15156 1119383,-33851 0,-18695 -501164,-33851 -1119383,-33851 -618229,0 -1119393,15156 -1119393,33851z"/>
  <g id="_660840456">
   <path class="fil1" d="M2045596 6356505c-20868,118 -401331,8935 -410747,4080 -9417,-4856 -55495,-25448 -48241,-24072 7263,1386 -59712,-4806 -59712,-4806 0,0 -85847,55278 -97485,55023 -22980,-501 37400,6998 68362,22371 -3382,2280 31403,-5495 77934,-551 17368,1848 43140,-638 46197,-481 3057,167 378763,46855 378763,46855l44929 -98419z"/>
   <path class="fil2" d="M2165648 6205492c13004,35247 14783,81581 -9456,102782 -33202,29026 -181366,144409 -226285,162642 0,0 -29044,3283 -82289,-97544 0,0 116927,-97573 217783,-164224 35591,-23521 87390,-38510 100247,-3656z"/>
   <path class="fil3" d="M1475510 6322320c-4364,-2536 -38294,-23138 -39405,-23167 -1111,-39 -42176,-13092 -43995,-12552 -3106,934 -51426,41223 -49597,43356 580,678 18085,5298 23344,3087 14321,-6006 26430,-25114 32809,-26706 8719,-2182 27610,3991 33242,2723 5632,-1268 43602,13259 43602,13259z"/>
   <g>
    <path class="fil4" d="M1318127 6401188l10 0c540,344 1268,187 1602,-344l3302 -5111c344,-530 187,-1258 -354,-1602 -530,-354 -1258,-196 -1602,344l-3292 5111c-344,541 -187,1258 334,1602z"/>
    <path class="fil5" d="M1418285 6245575c-1533,-983 -1425,-3863 226,-6429 1651,-2555 4236,-3833 5770,-2850 1523,993 1425,3873 -226,6428 -1662,2566 -4237,3843 -5770,2851z"/>
    <path class="fil6" d="M1318825 6395291c697,-2762 3145,-12326 3489,-13122 413,-924 944,-2447 2526,-5239 1582,-2791 2713,-2811 12945,-19353 10222,-16533 67988,-104188 71536,-109673 3538,-5475 3538,-6752 5819,-7961 2270,-1219 2565,-954 3587,-364 433,236 1504,865 2703,1592 1160,806 2163,1524 2566,1809 973,698 1317,845 1150,3420 -177,2576 -1327,3106 -4866,8581 -3538,5485 -59633,94221 -70494,110351 -10851,16129 -10409,17171 -12296,19756 -1897,2585 -3067,3696 -3735,4453 -580,649 -8296,6821 -10527,8591l-4403 -2841z"/>
    <path class="fil7" d="M1339761 6364919l2535 1632c747,472 1760,265 2251,-492l23266 -36043c481,-757 265,-1769 -492,-2251l-2526 -1631c-757,-492 -1759,-276 -2261,481l-23255 36043c-482,757 -275,1770 482,2261z"/>
    <path class="fil8" d="M1344547 6366059c-491,757 -1504,964 -2251,492l-1268 -816 25035 -38786 1258 816c757,482 973,1494 492,2251l-23266 36043z"/>
    <path class="fil9" d="M1342296 6366551c747,472 1760,265 2251,-492l23266 -36043c481,-757 265,-1769 -492,-2251l-1258 -816 55367 -85778c1160,806 2163,1524 2566,1809 973,698 1317,845 1150,3420 -177,2576 -1327,3106 -4866,8581 -3538,5485 -59633,94221 -70494,110351 -10851,16129 -10409,17171 -12296,19756 -1897,2585 -3067,3696 -3735,4453 -580,649 -8296,6821 -10527,8591l-1229 -797 -973 -629 1661 -2575 18341 -28396 1268 816z"/>
    <path class="fil10" d="M1321026 6396706l973 629 -2260 3509c-334,531 -1062,688 -1612,344l2899 -4482z"/>
   </g>
   <path class="fil11" d="M2163711 5938751c-8276,62837 -19746,66297 -2929,150384 0,0 -109456,52841 -108709,49067 8119,-40584 -11117,-42914 -19698,-118676l131336 -80775z"/>
   <path class="fil11" d="M1861763 5772089c-3500,11323 -30146,64921 -25232,77748 4905,12837 21025,54355 21025,54355 0,0 -28033,56694 -33645,63486 -5603,6801 39699,12620 39955,12758 187,98 -3833,14674 -2172,25211 3450,21939 50285,66651 66651,72077 17957,5956 144448,-21418 154965,-38029 10517,-16611 41360,-62660 41360,-62660l-698 -15855c-3715,-83969 -28976,-159417 -40653,-249864l-221556 60773z"/>
   <path class="fil12" d="M1857290 5937355c1406,747 4109,21201 20956,28868 11628,5298 36299,5819 46265,-15786 8650,-18763 5446,-53411 5446,-53411l133449 -22675 3410 -15717 -191352 28573 -18174 50148z"/>
   <path class="fil3" d="M1823911 5967678c-5603,6801 39699,12620 39955,12758 20,9 10,88 -20,226 13417,-5082 10468,-1701 15196,-17113 0,0 -13987,8365 -14901,9082 -904,728 -37970,-3813 -40230,-4953z"/>
   <path class="fil12" d="M1896371 6054026c12384,11854 24965,21378 31974,23698 17957,5956 144448,-21418 154965,-38029 10517,-16611 41360,-62660 41360,-62660l-344 -7922c0,0 -52546,65491 -55082,66945 -2545,1455 -109004,27974 -127896,30520 -11912,1602 -32160,-6134 -44977,-12552z"/>
   <path class="fil13" d="M2034656 5949209c35522,-18479 34028,-41282 54640,-76608 0,0 17554,-23128 50079,-4394 32514,18725 34785,56970 20886,75665 -13898,18685 -28160,43306 -28160,43306 0,0 -4718,6183 -7106,22617 -2399,16424 14586,37390 14586,37390 0,0 -993,-34913 -1091,-33547 -88,1357 20533,40024 20533,40024l-3312 -34814c0,0 25201,36475 19894,25781 -5308,-10684 -571,-64164 20975,-91538 48133,-61176 79419,-158425 6182,-214991 0,0 19590,-19275 15638,-18321 -3961,953 -23078,6556 -23078,6556 0,0 4089,-12375 -2389,-25526 -6477,-13152 -20719,-27905 -21054,-28249 16012,35090 10458,38146 10458,38146 0,0 -5592,-35600 -86200,-68715 -107855,-44309 -202204,60331 -309203,53294 29595,101101 201781,120081 260863,99991 6743,-2300 27630,25044 26490,29625 -10124,40711 -16798,96364 -39631,124308z"/>
   <path class="fil14" d="M2162728 5892800c8817,18085 6665,38795 -2467,51072 -13898,18685 -28160,43306 -28160,43306 0,0 -4718,6183 -7106,22617 -2399,16424 14586,37390 14586,37390 0,0 -993,-34913 -1091,-33547 -88,1357 20533,40024 20533,40024l-3312 -34814c0,0 25201,36475 19894,25781 -5308,-10684 -571,-64164 20975,-91538 15402,-19569 29064,-42835 38137,-67270 -17732,34962 -39730,60174 -60606,90536 -2006,2909 -21585,33418 -21693,35050 -79,1268 -2792,-20729 19510,-45224 -7312,4679 -35708,33537 -37065,40329 -364,1819 551,-7087 9269,-23255 8718,-16169 27069,-39779 32514,-66307 5456,-26529 -3990,-27620 -8354,-31974 0,0 -1711,2585 -5564,7824z"/>
   <path class="fil14" d="M2034656 5949209c35522,-18479 34028,-41282 54640,-76608 0,0 1641,-2162 4845,-4620 6153,-33212 688,-51229 -6831,-60714 -8364,-10537 -27983,-18891 -27983,-18891l20346 -19255c-66317,16758 -138895,8168 -205949,-315 38255,1337 72372,-12483 92020,-25241 -100797,7332 -142521,-17486 -144782,-19137 -88,-69 67830,2467 113005,-15628 1818,-728 -29792,2545 -64675,-728 -34884,-3263 -82358,-12787 -82358,-12787 29595,101101 201781,120081 260863,99991 6743,-2300 27630,25044 26490,29625 -10124,40711 -16798,96364 -39631,124308z"/>
   <path class="fil15" d="M1617481 6803040c1219,314 -158897,46157 -158897,46157 -73747,80658 -103038,226423 -147161,332842 -25821,62296 -37036,83311 -39935,82554 -28072,-7264 -132329,-149873 -128623,-154061l308839 -348076 165777 40584z"/>
   <path class="fil16" d="M1289052 7239942c-8335,18606 -13790,29536 -15018,29015 -21909,-9377 -142571,-93631 -166652,-129586 13908,-4561 41174,-17427 41174,-17427 393,472 135071,115914 140496,117998z"/>
   <path class="fil17" d="M1139936 7012596c-17437,2909 -37803,21800 -77041,5081 -39227,-16709 -111903,-105367 -132977,-106095 -21074,-727 -20346,5819 -27610,28347 -7264,22519 147515,273956 151879,271047 4354,-2900 107766,-70868 107766,-70868l-22017 -127512z"/>
   <path class="fil18" d="M1114193 7021216c-12994,3990 -29133,5907 -51298,-3539 -24474,-10419 -61962,-48850 -91823,-76460 -1415,5966 -2182,13299 885,19442 5091,10173 19255,62857 57048,81758 37783,18891 93268,5141 93268,5141l-8080 -26342 0 0z"/>
   <path class="fil19" d="M928463 6911543c-103028,-2959 106793,290351 131189,315749 9072,-6448 16002,-12798 16002,-12798 0,0 -53048,-81394 -91558,-146797 -38520,-65402 -54502,-140604 -54139,-147514 118,-2222 -373,-5328 -1494,-8640z"/>
   <path class="fil20" d="M2019961 6675252c-4354,23256 -14527,65403 -55229,88658 -40693,23246 -508674,49411 -508674,49411 0,0 -166848,223346 -266908,307561 -24003,20219 -26352,20907 -27197,19226 -4355,-8718 -101839,-144507 -93121,-148871 29920,-14960 228791,-197948 275322,-240930 42550,-39297 52841,-56979 121055,-67054 70229,-10370 335427,-46088 352745,-47248 21801,-1445 202007,39247 202007,39247z"/>
   <path class="fil21" d="M1931107 6672667c-659,521 -1298,1052 -2094,1710 -11185,9289 -52251,43415 -108051,52714 -21231,3538 -57775,3332 -100482,3086 -79056,-442 -179066,-1012 -244607,21791 -101200,35198 -352214,306352 -352942,307139l5662 5268c727,-776 250464,-270555 349826,-305114 64302,-22361 163566,-21801 242031,-21358 43091,245 79969,452 101780,-3185 57834,-9642 100188,-44820 111717,-54404 904,-757 1622,-1346 1966,-1622l-4806 -6025z"/>
   <path class="fil22" d="M1183252 7125826c-18508,15373 -20533,15815 -21299,14282 -4355,-8718 -101839,-144507 -93121,-148871 2782,-1396 7097,-4305 12660,-8453 13721,22528 51612,83970 70612,107009 12670,15353 23688,27806 31148,36033z"/>
   <path class="fil23" d="M2064369 6127400c27738,-28495 75890,-37587 84933,-39307 13181,-2516 16719,-6546 23256,-4364 1405,472 2594,3146 10261,10861 1130,1131 -10655,934 -7165,5829 6300,8807 28779,28996 32947,58856 5907,42374 -7028,55879 -17142,143918 -14537,126441 -56684,292129 -119178,379323 -62493,87203 -36328,90113 -42147,79940 -5818,-10173 -61038,-49411 -104640,-62493 -43602,-13083 -186477,-54257 -186477,-54257 0,0 84737,-46029 131248,-98350 75742,-85218 159525,-384424 194104,-419956z"/>
   <path class="fil24" d="M1151652 7182933l-23324 -20729c1179,1376 -61658,20395 -82073,19894 -72617,-1789 -176422,-1072 -188777,14183 -12355,15265 -10901,43612 2182,55957 13082,12355 322649,85021 324831,79940 2182,-5092 46521,-89858 46521,-89858l-79360 -59387z"/>
   <path class="fil18" d="M1158267 7188369l-18272 -15786 -10 -10 -11657 -10369c1179,1376 -61658,20395 -82073,19894 -43386,-1072 -97898,-1248 -137391,2044 5711,13132 42344,19963 69266,26136 42510,9740 157215,-9849 180137,-21909z"/>
   <g>
    <polygon class="fil0" points="1204631,6387634 1185307,6386710 1183469,6398790 1205319,6399832 "/>
    <polygon class="fil0" points="1176755,6386307 1157431,6385393 1155593,6397463 1177443,6398505 "/>
    <polygon class="fil0" points="1148900,6384980 1129576,6384056 1127738,6396136 1149578,6397178 "/>
    <polygon class="fil0" points="1121034,6383653 1101710,6382739 1099872,6394819 1121713,6395851 "/>
    <polygon class="fil0" points="1093169,6382326 1073835,6381412 1071997,6393492 1093857,6394524 "/>
    <polygon class="fil0" points="1065304,6381009 1045970,6380085 1044132,6392165 1065992,6393197 "/>
    <polygon class="fil0" points="1037438,6379673 1018114,6378758 1016276,6390838 1038126,6391880 "/>
    <path class="fil25" d="M1221006 6401906c78,-1632 -502,-3224 -1602,-4433 -1101,-1209 -2635,-1926 -4266,-2005l-226226 -10763c-1632,-79 -3224,492 -4433,1592 -1209,1101 -1936,2635 -2015,4266l-177 3951c-167,3401 2458,6291 5849,6448l226235 10763c3391,157 6271,-2457 6438,-5858l197 -3961z"/>
    <path class="fil25" d="M999636 6394613l-6016 -855 -118 6890 1160 11038 4590 0c0,0 266,-17083 384,-17073z"/>
   </g>
   <path class="fil26" d="M1490873 6402201l-337186 0c-3795,0 -6900,3106 -6900,6900 0,3804 3105,6910 6900,6910l337186 0c3794,0 6900,-3106 6900,-6910 0,-3794 -3106,-6900 -6900,-6900z"/>
   <path class="fil11" d="M1926507 6254431l-107236 71762c0,0 -306155,1680 -312613,-3961 -2831,-1809 -91174,-35454 -92550,-35454 -5072,0 -54355,33193 -56891,35729 -2536,2536 -27423,37812 -31807,44968 -4384,7155 -4158,10615 462,12463 4610,1848 11765,-2310 18921,-6694 7156,-4383 9230,-6457 9230,-6457 0,0 -3922,6919 1621,11539 5534,4610 9230,2998 9230,2998 0,0 -236,6458 5307,8305 5534,1848 10616,0 10616,0 0,0 0,5072 11077,6458 11068,1386 32996,-9229 32996,-9229 0,0 13279,15805 45578,13505 18026,-1288 42628,-14881 42628,-14881l333933 25250c0,0 146827,-88579 140379,-97445 -6448,-8866 -60881,-58856 -60881,-58856z"/>
   <path class="fil12" d="M1322284 6374906c-226,2437 983,3990 3588,5032 4610,1848 11765,-2310 18921,-6694 7156,-4383 9230,-6457 9230,-6457 0,0 -3922,6919 1621,11539 5534,4610 9230,2998 9230,2998 0,0 -236,6458 5307,8305 5534,1848 10616,0 10616,0 0,0 0,5072 11077,6458 11068,1386 32996,-9229 32996,-9229 0,0 13279,15805 45578,13505 18026,-1288 40446,-12336 40446,-12336l336115 22705c0,0 39621,-23904 76804,-48123l-7696 -20208c0,0 -60321,51593 -93022,54502 -32701,2909 -313744,-18174 -313744,-18174 -12945,15687 -53057,25968 -79940,8001 -4609,-3077 177,-13623 177,-13623 0,0 -4924,7843 -7450,11451 -2526,3597 -37036,13131 -36338,3813 128,-1690 34775,-41891 40614,-49430 924,-1189 -600,-1828 -1268,-1081l-44054 48919c0,0 -4374,1042 -7824,501 -3450,-550 -6428,-3509 -4541,-8177 1877,-4659 46147,-47622 42334,-46148 -3814,1484 -45342,45489 -48428,44948 -3087,-550 -8945,-6094 -6900,-8512 10713,-12699 37557,-37881 33605,-39650 -1445,-639 -45538,57657 -67054,45165z"/>
   <g>
    <polygon class="fil27" points="1827361,7093617 1779886,7093617 1779886,6839791 1827361,6839791 "/>
    <polygon class="fil28" points="1803624,6839791 1779886,6839791 1779886,7093617 1803624,7093617 "/>
   </g>
   <path class="fil26" d="M1841190 7058802l-75123 0 0 169650 -174102 29742c-11805,2025 -21762,9800 -21762,21762l0 10c0,11962 9967,23766 21762,21752l189897 -32446 43523 0 189898 32446c11795,2014 21761,-9790 21761,-21752l0 -10c0,-11962 -9957,-19737 -21761,-21762l-174093 -29742 0 -169650z"/>
   <path class="fil26" d="M2017573 7332178c-16071,0 -29173,-13112 -29173,-29183 0,-16070 13102,-29182 29173,-29182 16080,0 29182,13112 29182,29182 0,16071 -13102,29183 -29182,29183z"/>
   <path class="fil26" d="M1591965 7332178c-16071,0 -29183,-13112 -29183,-29183 0,-16070 13112,-29182 29183,-29182 16070,0 29182,13112 29182,29182 0,16071 -13112,29183 -29182,29183z"/>
   <path class="fil26" d="M1804489 7332178c-16071,0 -29173,-13112 -29173,-29183 0,-16070 13102,-29182 29173,-29182 16080,0 29182,13112 29182,29182 0,16071 -13102,29183 -29182,29183z"/>
   <path class="fil29" d="M1968801 6847566l-371401 0c-15589,0 -28337,12748 -28337,28337 0,15589 12748,28337 28337,28337l371401 0c15589,0 28347,-12748 28347,-28337 0,-15589 -12758,-28337 -28347,-28337z"/>
   <path class="fil2" d="M2167682 6063422c-19982,4325 -124750,50197 -134560,62651 -9819,12463 -17554,51907 -17554,51907 14114,-6998 107196,-62473 169472,-71536 3529,-511 -6408,-39247 -17358,-43022z"/>
   <path class="fil23" d="M2156929 6145181c13004,35247 14783,81581 -9455,102772 -33213,29026 -181366,144409 -226285,162642 0,0 -29055,3283 -82289,-97544 0,0 116927,-97563 217783,-164214 35591,-23531 87390,-38520 100246,-3656z"/>
   <path class="fil2" d="M2165264 6179445c3332,26872 -933,53765 -17790,68508 -33213,29026 -181366,144409 -226285,162642 0,0 -29055,3283 -82289,-97544 0,0 39739,64695 62985,71231 23255,6537 210863,-123787 237627,-154788 26155,-30273 25782,-49194 25752,-50049z"/>
   <path class="fil26" d="M2221103 6063403c176697,-127120 -72636,612468 -116346,749358 -32240,100954 -573310,73669 -623360,64420 -24366,-4502 -40564,-35336 -10645,-69708 26283,-30195 395856,-21693 453808,-38569 57943,-16887 62307,-3804 124800,-156410 62493,-152606 120416,-306824 140998,-414148 20582,-107333 30745,-134943 30745,-134943z"/>
   <path class="fil30" d="M2254453 6048836c106351,-2801 -109338,637513 -149696,763925 -32240,100954 -573310,73669 -623360,64420 -12463,-2300 -22793,-11500 -25899,-24544 27777,-37635 235140,5947 348126,-5071 112995,-11019 231454,-32584 243082,-48576 99441,-136732 181641,-577153 207747,-750154z"/>
   <polygon class="fil31" points="1716607,7332178 1643941,7332178 1643941,6428179 1716607,6428179 "/>
   <polygon class="fil31" points="812608,7332178 739942,7332178 739942,6423078 812608,6423078 "/>
   <polygon class="fil31" points="1856848,6447788 599691,6447788 599691,6410732 1856848,6410732 "/>
   <polygon class="fil25" points="599691,6429260 599691,6447788 1856848,6447788 1856848,6429260 "/>
   <path class="fil26" d="M1730151 6810608c-12207,-60665 -10035,-221517 59604,-286173 80441,-74671 271095,-55927 369465,-59623l-4345 64203c-145932,-2378 -412801,-57942 -370742,278016l-53982 3577z"/>
   <path class="fil26" d="M1850194 5873220c-1946,-560 -4187,-649 -7844,-1101 -3656,-452 -9406,423 -9210,2399 197,1956 11078,55278 11078,55278 0,0 13603,-6497 10772,-5701 -2860,797 -4796,-50875 -4796,-50875z"/>
   <path class="fil26" d="M1840817 5873299c2329,13741 5602,95646 47828,94496 45518,-1228 36839,-51848 35444,-79310l227395 -29330 -2664 -16336c-77158,7608 -154336,15225 -231523,22833 -11923,-9082 -75035,49 -76480,7647zm9701 9878l0 0c-688,-7735 57353,-10871 59083,-7637 8089,15225 16847,80952 -20465,82731 -29742,1415 -35089,-55986 -38618,-75094z"/>
   <path class="fil32" d="M1910318 5874341c5780,10861 11874,46727 2261,68312 -4246,9534 -11549,16267 -23325,16837 -9799,462 -17053,-5298 -22488,-13987 -11058,-17781 -14538,-47808 -16995,-61874 -914,-11372 59309,-11637 60547,-9288z"/>
   <path class="fil33" d="M1917533 5909519c442,11598 -747,23717 -4954,33134 -1799,4039 -4158,7578 -7156,10350 -13711,-12670 -33890,-31345 -52123,-48300 -1534,-8276 -2605,-15796 -3529,-21074 -649,-8060 24327,-9328 29910,-9829l37852 35719z"/>
   <path class="fil11" d="M2098083 5845856c5042,-2713 12571,-5386 23904,-6261 60960,-4718 68106,70347 49833,92069 -15038,17889 -35935,36672 -51189,37734 -15245,1051 -31965,-14508 -37194,-27935 -3990,-10241 -39,-46186 2654,-67565 1376,-10920 1081,-22164 11992,-28042z"/>
   <path class="fil12" d="M2153587 5845994c31227,18134 32653,68518 18233,85670 -15038,17889 -35935,36672 -51189,37734 -6802,471 -13909,-2379 -20150,-6861 10478,-1357 26283,-4905 36574,-11362 15618,-9820 30883,-21084 35611,-35621 4727,-14527 4236,-26008 -1819,-43238 -5799,-16513 -16395,-25605 -17260,-26322z"/>
   <path class="fil34" d="M2153519 5873574c6379,17132 3066,46413 -9643,57294 -12709,10880 -26302,15883 -33546,7804 -7234,-8080 -10734,-16670 -4355,-19924 6380,-3253 11589,-2575 13260,-9750 1671,-7185 747,-12335 -4099,-14085 -4836,-1740 -5052,1887 -4993,-9397 167,-28583 37026,-28986 43376,-11942z"/>
   <path class="fil25" d="M801580 5987110c-4669,12433 -38933,138550 -64223,242129 -15540,63613 -27728,118951 -27728,134884 0,46550 30372,46580 30460,46580l59 29 247083 0 0 -11627 -247083 0 0 19c-1219,-39 -18891,-1130 -18891,-35001 0,-15019 12031,-69383 27364,-132162 25192,-103175 59220,-228516 63820,-240763l-10861 -4088z"/>
   <path class="fil31" d="M827224 5676236l13741 -993 48467 670244 -13387 973c-34952,-75841 -62592,-195598 -72509,-331603 -1976,-27344 -3165,-54158 -3598,-80176 -1739,-103382 8434,-194428 27286,-258445z"/>
   <polygon class="fil35" points="861360,5673749 827224,5676236 876045,6346460 910181,6343973 "/>
   <path class="fil36" d="M2158256 5699256c-5809,-6537 -30155,-38874 -78848,-50502 -80442,-19216 -216564,43729 -215090,43602 3991,-364 75212,-15265 122087,-22529 46865,-7263 100640,11264 100640,11264 0,0 -24701,5092 -79213,25802 -54492,20710 -112995,23245 -108277,23973 4728,727 104021,-3696 143888,-11628 39876,-7922 56684,-20710 56684,-20710 0,0 -5455,20346 -27256,36702 -21801,16346 -50138,26155 -47592,25074 2546,-1091 63220,-8365 85385,-20356 22164,-11992 29064,-14527 29064,-14527 0,0 -12148,24297 -28337,40692 -16188,16385 -29074,21801 -24710,20710 4364,-1091 53047,-18528 67585,-34884 14537,-16345 17800,-29792 16345,-27973 -1444,1818 -24336,17437 -21800,15618 2545,-1808 18537,-27610 15628,-25791 -2910,1818 -46511,7991 -46511,7991 0,0 11627,-9082 19628,-11992 7991,-2909 15619,-4718 15619,-4718 0,0 -7264,-5818 -27247,-11627 -19992,-5819 -23982,-5819 -23982,-5819 2182,-4807 56310,7234 56310,11628z"/>
   <path class="fil36" d="M2200089 5762515c0,0 20346,9446 30155,43238 9820,33793 1455,59948 -8354,82113 -9810,22164 -22165,36701 -19619,33064 2546,-3626 19619,-36328 18891,-66129 -727,-29792 -8354,-47229 -8354,-47229 0,0 4000,11264 363,42874 -3636,31611 -20346,54866 -18891,52320 1454,-2545 10900,-31610 5809,-63220 -5082,-31610 -19619,-52684 -18164,-50512 1454,2182 7991,32348 5081,50875 -2899,18528 -8354,30883 -7991,28338 364,-2546 -2545,-27610 -14173,-54866 -11628,-27246 -19619,-34156 -18892,-32338 728,1819 8355,27984 5819,41420 -2546,13446 -2909,17446 -2546,13446 364,-3991 -5455,-34156 -12355,-47229 -6900,-13082 -9809,-14900 -9446,-14537 364,364 4542,1632 8719,5632 4177,4001 5081,5908 4905,5357 -177,-540 -1455,-14626 -1455,-14626 0,0 1002,453 7175,4541 6183,4089 10999,10537 10448,9446 -540,-1091 -12620,-19166 -12620,-19166 0,0 10173,-728 19884,4088 9721,4817 12994,8542 12817,8090 -187,-462 -11814,-15992 -11264,-15992 541,0 18803,4089 26155,8905 7362,4816 12807,10173 12719,9721 -88,-462 -19796,-22892 -18715,-22803 1091,88 13899,5179 13899,5179z"/>
   <path class="fil19" d="M1086554 7292242c66572,15216 81080,16415 106940,22165 560,11421 -3764,11873 -9917,18764 -6143,6900 -299521,-65030 -319052,-74534 -19520,-9505 -17790,-33075 -14036,-47858 18194,38962 169503,66248 236065,81463z"/>
   <polygon class="fil35" points="769734,7282836 749338,7282836 749338,6468950 769734,6468950 "/>
   <polygon class="fil35" points="1674460,7282836 1654065,7282836 1654065,6468950 1674460,6468950 "/>
   <polygon class="fil26" points="1722377,7332178 1638810,7332178 1638810,7313345 1722377,7313345 "/>
   <polygon class="fil26" points="818053,7332178 734487,7332178 734487,7313345 818053,7313345 "/>
   <g>
    <polygon class="fil24" points="946657,6409671 869155,6409671 869155,6399763 946657,6399763 "/>
    <g>
     <path class="fil29" d="M906456 6160239l315 156125 -33350 59 -315 -156125 33350 -59zm-10684 149421l0 0 0 1484 10340 -19 0 -1484 -10340 19zm-295 -143160l0 0 10 1484 10350 -20 -10 -1474 -10350 10zm5003 3568l0 0 0 1484 5367 -10 -10 -1484 -5357 10zm10 3578l0 0 0 1484 5357 -10 0 -1484 -5357 10zm0 3587l0 0 10 1475 5356 -10 -9 -1475 -5357 10zm10 3578l0 0 0 1484 5366 -20 -10 -1474 -5356 10zm-4984 3578l0 0 10 1494 10350 -20 -10 -1494 -10350 20zm4993 3578l0 0 10 1484 5357 -10 0 -1484 -5367 10zm10 3577l0 0 10 1484 5357 -9 -10 -1485 -5357 10zm10 3588l0 0 0 1474 5357 -10 0 -1474 -5357 10zm10 3568l0 0 0 1484 5357 -10 0 -1484 -5357 10zm-4983 3587l0 0 0 1485 10350 -20 0 -1484 -10350 19zm4993 3568l0 0 10 1494 5356 -9 -9 -1494 -5357 9zm10 3578l0 0 0 1484 5356 0 0 -1494 -5356 10zm9 3588l0 0 0 1484 5357 -10 0 -1484 -5357 10zm0 3578l0 0 0 1484 5367 -10 0 -1484 -5367 10zm-4973 3587l0 0 0 1484 10340 -19 0 -1484 -10340 19zm4993 3568l0 0 0 1484 5357 -9 0 -1485 -5357 10zm0 3578l0 0 10 1484 5357 -10 -10 -1474 -5357 0zm10 3588l0 0 10 1474 5357 -10 -10 -1484 -5357 20zm10 3577l0 0 0 1484 5357 -19 0 -1475 -5357 10zm-4984 3578l0 0 10 1484 10340 -19 0 -1475 -10350 10zm4994 3578l0 0 0 1474 5366 0 0 -1494 -5366 20zm9 3578l0 0 10 1484 5357 -10 -10 -1484 -5357 10zm10 3577l0 0 0 1485 5367 -10 -10 -1484 -5357 9zm10 3578l0 0 0 1484 5357 -9 0 -1485 -5357 10zm-4983 3588l0 0 0 1484 10350 -20 -10 -1484 -10340 20zm4993 3568l0 0 0 1484 5367 -10 -10 -1484 -5357 10zm10 3578l0 0 0 1484 5357 -10 0 -1484 -5357 10zm10 3577l0 0 -10 1485 5366 0 -9 -1485 -5347 0zm0 3588l0 0 0 1484 5366 -20 -10 -1474 -5356 10zm-4984 3588l0 0 10 1484 10340 -30 0 -1474 -10350 20zm5003 3567l0 0 0 1485 5357 -10 0 -1484 -5357 9zm10 3578l0 0 0 1484 5357 -9 0 -1485 -5357 10zm0 3578l0 0 0 1484 5357 -10 0 -1484 -5357 10zm0 3578l0 0 10 1484 5357 -10 0 -1484 -5367 10zm-4973 3587l0 0 0 1485 10350 -20 0 -1484 -10350 19zm4993 3568l0 0 0 1485 5366 -10 0 -1484 -5366 9zm10 3588l0 0 0 1484 5356 -19 0 -1475 -5356 10zm0 3568l0 0 9 1494 5357 -20 0 -1474 -5366 0zm19 3588l0 0 0 1484 5357 -20 0 -1474 -5357 10z"/>
     <polygon class="fil37" points="882571,6316403 873411,6316423 873106,6160298 882571,6160278 "/>
    </g>
    <g>
     <path class="fil31" d="M914653 6228374l7952 688 1789 -17683c59,-530 -88,-1051 -423,-1464l-1346 -708 -4001 -334c-1091,-89 -2074,727 -2172,1828l-1799 17673z"/>
     <path class="fil24" d="M907321 6237505l20651 1769 1602 -15687c79,-698 -128,-1376 -570,-1897 -423,-531 -1052,-865 -1750,-924l-15500 -1346c-688,-59 -1357,157 -1897,609 -531,442 -885,1081 -944,1769l-1592 15707z"/>
     <path class="fil26" d="M920394 6220167l-8640 -747c-688,-59 -1357,157 -1897,609 -531,442 -885,1081 -944,1769l-1553 15235 11599 -2624 1444 -14242 -9 0z"/>
     <polygon class="fil24" points="913376,6383093 929043,6228767 908383,6226968 892725,6381206 "/>
     <polygon class="fil26" points="903291,6382159 919647,6227951 908383,6226968 892725,6381206 "/>
     <polygon class="fil38" points="908284,6227892 908540,6225533 931353,6227499 931786,6227538 933004,6228187 933388,6229494 929200,6270658 926979,6270472 924886,6269823 925849,6260318 928267,6257890 930950,6231657 930547,6230340 929348,6229711 "/>
    </g>
    <g>
     <polygon class="fil26" points="862776,6241073 872998,6240120 888862,6385894 878620,6386838 "/>
     <polygon class="fil39" points="867887,6240591 872998,6240120 888862,6385894 883741,6386366 "/>
     <path class="fil26" d="M860859 6204696c-59,-1150 5907,-1858 6153,-580l8197 46727 -11971 1111 3469 31925 -206 19c-403,-265 -393,-88 -1514,-6300 -1140,-6222 -4678,-25959 -4698,-28691 -108,-15176 963,-26971 570,-44211z"/>
     <polygon class="fil40" points="862943,6249339 875780,6248140 876055,6250764 863238,6251954 "/>
    </g>
    <g>
     <polygon class="fil41" points="958078,6247226 924709,6360005 912766,6356997 946156,6244199 952771,6243520 "/>
     <polygon class="fil42" points="958078,6247226 924709,6360005 918742,6358501 953105,6242370 "/>
     <path class="fil11" d="M946156 6244199l13927 -25399 -1995 28308c-816,835 -1926,2418 -2909,2192 -1897,-423 137,-4394 -2477,-5072 -2536,-649 -3175,3745 -4954,3293 -1642,-413 -1592,-3322 -1592,-3322z"/>
     <path class="fil43" d="M960083 6218800l-1995 28308c-816,835 -1926,2418 -2909,2192 -1897,-423 137,-4394 -2477,-5072l-128 -29 7509 -25399z"/>
     <polygon class="fil26" points="955847,6226516 960083,6218800 959474,6227440 "/>
    </g>
    <g>
     <polygon class="fil41" points="948436,6233210 931058,6349026 918792,6347463 936189,6231627 942666,6230163 "/>
     <polygon class="fil42" points="948436,6233210 931058,6349026 924935,6348249 942833,6228973 "/>
     <path class="fil11" d="M936189 6231627l10281 -26853 1966 28308c-698,934 -1583,2634 -2585,2526 -1936,-197 -472,-4384 -3155,-4738 -2605,-344 -2634,4089 -4463,3863 -1671,-216 -2044,-3106 -2044,-3106z"/>
     <path class="fil43" d="M946470 6204774l1966 28308c-698,934 -1583,2634 -2585,2526 -1936,-197 -472,-4384 -3155,-4738l-138 -9 3912 -26087z"/>
     <polygon class="fil26" points="943345,6212932 946470,6204774 947070,6213414 "/>
    </g>
    <path class="fil29" d="M861704 6279347l0 116514c0,5042 3440,9210 7618,9210l77335 0c4187,0 7617,-4168 7617,-9210l0 -116514 -92570 0z"/>
    <polygon class="fil26" points="954274,6291771 861714,6291771 861714,6279347 954274,6279347 "/>
    <path class="fil44" d="M861704 6395861l10 -104090 46275 0 0 113300 -38667 0c-4178,0 -7618,-4168 -7618,-9210z"/>
    <polygon class="fil45" points="907989,6291771 861714,6291771 861714,6279347 907989,6279347 "/>
   </g>
   <path class="fil46" d="M637474 6303792c-3735,0 -6763,3519 -6763,7873l0 39955c0,4355 3028,7893 6763,7893l244350 0c3735,0 6763,-3538 6763,-7893l0 -39955c0,-4354 -3028,-7873 -6763,-7873l-244350 0z"/>
   <path class="fil47" d="M636717 6268467c-3312,0 -6006,2309 -6006,5150l0 26008c0,2840 2694,5160 6006,5160l216849 0c3312,0 6005,-2320 6005,-5160l0 -26008c0,-2841 -2693,-5150 -6005,-5150l-216849 0z"/>
   <path class="fil48" d="M610120 6217680c-4119,0 -7471,3253 -7471,7254l0 36692c0,4020 3352,7263 7471,7263l270053 0c4118,0 7460,-3243 7460,-7263l0 -36692c0,-4001 -3342,-7254 -7460,-7254l-270053 0z"/>
   <g>
    <polygon class="fil49" points="870855,6303792 870855,6359513 876753,6359513 876753,6303792 "/>
    <polygon class="fil49" points="862943,6303792 862943,6359513 868840,6359513 868840,6303792 "/>
    <polygon class="fil49" points="855030,6303792 855030,6359513 860918,6359513 860918,6303792 "/>
    <polygon class="fil49" points="649377,6316531 649377,6346018 655294,6346018 655294,6316531 "/>
    <polygon class="fil49" points="641474,6316531 641474,6346018 647372,6346018 647372,6316531 "/>
   </g>
   <g>
    <path class="fil50" d="M624617 6359513c-4108,0 -7460,3244 -7460,7244l0 36712c0,4010 3352,7263 7460,7263l270064 0c4118,0 7460,-3253 7460,-7263l0 -36712c0,-4000 -3342,-7244 -7460,-7244l-270064 0z"/>
    <polygon class="fil51" points="663354,6359533 663354,6410732 675227,6410732 675227,6359533 "/>
    <polygon class="fil51" points="645544,6359513 645544,6410732 657417,6410732 657417,6359513 "/>
   </g>
   <g>
    <polygon class="fil33" points="699358,6253300 699358,6260397 790935,6260397 790935,6253300 "/>
    <polygon class="fil33" points="699358,6239726 699358,6246843 790935,6246843 790935,6239726 "/>
    <polygon class="fil33" points="699358,6226182 699358,6233279 790935,6233279 790935,6226182 "/>
   </g>
   <polygon class="fil50" points="842105,6297649 817759,6297649 817759,6278394 842105,6278394 "/>
   <polygon class="fil50" points="713836,6297826 647706,6297826 647706,6278207 713836,6278207 "/>
   <g>
    <path class="fil52" d="M468375 6837353c-10124,0 -18410,8286 -18410,18410l0 48447c0,10124 8286,18410 18410,18410 10124,0 18409,-8286 18409,-18410l0 -48447c0,-10124 -8285,-18410 -18409,-18410z"/>
    <path class="fil53" d="M468375 6922620c-10124,0 -18410,8276 -18410,18410l0 48448c0,10124 8286,18409 18410,18409 10124,0 18409,-8285 18409,-18409l0 -48448c0,-10134 -8285,-18410 -18409,-18410z"/>
    <path class="fil54" d="M826860 6752086l-358485 0c-10124,0 -18410,8286 -18410,18410l0 48447c0,10124 8286,18410 18410,18410l0 331171 358485 0 0 -416438z"/>
   </g>
   <path class="fil55" d="M513765 6876414l0 0c-8541,-1818 -17014,3686 -18832,12237l-8699 40889c-1809,8541 3686,17014 12237,18832l0 0c8542,1819 17024,-3685 18843,-12227l8688 -40889c1819,-8551 -3685,-17024 -12237,-18842z"/>
   <path class="fil56" d="M498471 6948372l0 0c-8551,-1818 -17024,3686 -18842,12238l-8689 40889c-1818,8541 3686,17014 12227,18832l10 0c8542,1818 17014,-3686 18833,-12227l8698 -40889c1809,-8551 -3695,-17024 -12237,-18843z"/>
   <path class="fil20" d="M831608 6868777l-302539 -64322c-8551,-1818 -17024,3686 -18842,12237l-8689 40889c-1819,8542 3686,17015 12227,18833l-59416 279489 302538 64312 74721 -351438z"/>
   <polygon class="fil50" points="857861,6832517 722210,6832517 722210,6833028 377279,7094305 377279,7332178 857861,7332178 "/>
   <polygon class="fil50" points="857861,7332178 377279,7332178 377279,7246704 857861,7246704 "/>
   <polygon class="fil57 str0" points="857861,7230437 377279,7230437 377279,7213757 857861,7213757 "/>
   <polygon class="fil35" points="439359,7305266 371853,7305266 371853,6409268 439359,6409268 "/>
   <polygon class="fil31" points="405606,6409268 371853,6409268 371853,7305266 405606,7305266 "/>
   <g>
    <polygon class="fil35" points="328517,6526401 261404,6533645 334601,7212126 401724,7204882 "/>
    <polygon class="fil31" points="294960,6530018 261404,6533645 334601,7212126 368157,7208509 "/>
   </g>
   <g>
    <polygon class="fil35" points="404790,6535552 337953,6526027 241648,7201618 308485,7211143 "/>
    <polygon class="fil31" points="371372,6530794 337953,6526027 241648,7201618 275066,7206385 "/>
   </g>
   <path class="fil54" d="M450446 6784551l-238305 0 0 547627 238305 0 0 -547627zm-49686 133745l0 0 12985 0 0 264903 -12985 0 0 -264903zm-50639 0l0 0 12984 0 0 264903 -12984 0 0 -264903zm-50649 0l0 0 12984 0 0 264903 -12984 0 0 -264903zm-50639 0l0 0 12984 0 0 264903 -12984 0 0 -264903z"/>
   <polygon class="fil58" points="450446,7333534 212141,7333534 212141,7305266 450446,7305266 "/>
  </g>
  <path class="fil59" d="M1599425 4404001l-284394 -68410 97730 -406294 284394 68410 -97730 406294zm-928690 -517353l135750 0 85031 17781 -2084 70327 69197 12807 -1524 227799 12758 -10311 12562 -213075 204543 37911 12748 -10281 -271980 -75792 -3362 -57166 189190 0 109250 135376 -268186 216416 -283893 -351792zm1410314 0l3804 0 -374 1131 -3430 -1131zm249570 0l4167 -13613 77974 108778 -111619 59132 -2427 9446 122283 -56832 23904 34067 37341 -18390 79930 108543 2378 -9426 -69452 -105456 110400 -54463 2418 -9387 -155790 60360 -94979 -112759 -20415 -22557 105643 22557 177366 45391 -50590 197544 -282232 -72214 43700 -170721zm406461 0l183794 0 -26794 29045 60311 75713 -207108 235072 22557 826 205251 -209860 178162 223837 22567 806 -214067 -323927 24278 -31512 225272 0 -13751 378832 -473633 -17260 13161 -361572zm-472660 966286l-139622 -3558 5062 -199471 139632 3548 -5072 199481zm-8414 -193171l0 0 -56477 62641 -56518 -65491 -6644 -177 56615 72922 -19098 21171 17988 22116 -60282 69943 6674 187 59790 -62532 53234 65402 6664 177 -64144 -94811 68862 -91371 -6664 -177zm-636884 755865l-110675 -85188 121674 -158130 110715 85188 -121714 158130zm107078 -160980l0 0 -82525 17289 -7057 -86221 -5278 -4039 2752 92255 -27905 5868 1484 28455 -89906 20966 5278 4069 85149 -15245 4443 84196 5288 4069 4069 -114381 109486 -33222 -5278 -4059zm-739971 -625974l72224 157147 -224486 103166 -72205 -157157 224467 -103156zm-210136 114725l0 0 100384 28622 -41921 98566 3480 7509 50158 -102763 33939 9682 14793 -32053 110616 28799 -3450 -7479 -102094 -32368 43602 -94821 -3401 -7470 -70357 122962 -139169 -26666 3420 7480zm520597 814613l-42894 167546 -239358 -61264 42894 -167547 239358 61265zm-235505 -43238l0 0 59967 85454 -94644 50148 -2044 8000 103687 -48191 20267 28897 31689 -15589 67771 92049 2025 -7981 -58915 -89464 93622 -46167 2044 -7962 -132103 51200 -91302 -108385 -2064 7991zm762863 -479108l-303590 -44545 63614 -433688 303610 44506 -63634 433727zm32564 -423466l0 0 -139661 121655 -106066 -157718 -14468 -2123 104277 173936 -47229 41183 33448 52979 -149893 136663 14459 2143 146924 -120622 98851 156675 14488 2123 -114921 -223601 174269 -181199 -14478 -2094zm-334031 -49528l-192374 212760 -303994 -274801 192394 -212760 303974 274801zm-312171 -245383l0 0 21939 171733 -177671 531 -9160 10114 189396 9348 7421 58070 58561 1582 28328 187470 9151 -10134 -17339 -176785 173080 4521 9151 -10124 -233450 -26892 -50256 -229548 -9151 10114zm265778 963553l-223592 102586 -146561 -319376 223592 -102615 146561 319405zm-162976 -298980l0 0 -40830 142796 -140172 -59741 -10645 4866 146080 71447 -13790 48330 45606 20994 -41085 157383 10645 -4934 46108 -145205 134865 62150 10644 -4866 -174849 -100197 38058 -197928 -10635 4905zm916000 -528657l-223552 102626 -146571 -319396 223582 -102596 146541 319366zm-162975 -298951l0 0 -40781 142748 -140202 -59672 -10645 4865 146099 71467 -13800 48300 45597 20995 -41095 157334 10655 -4875 46128 -145235 134874 62159 10655 -4865 -174889 -100178 38039 -197928 -10635 4885zm-399424 -149500l0 0 -143072 103481 -87194 -158877 -13505 -3244 84029 174161 -48408 34972 27207 53215 -154061 116877 13525 3253 149854 -101878 80382 157236 13524 3263 -89798 -222186 181042 -157009 -13525 -3264z"/>
  <g style="clip-path:url(#id0)">
   <g id="_658203856">
    <polygon id="1" class="fil60" style="mask:url(#id1)" points="11511349,-5172221 -20935152,-5172221 -20935152,3653149 11511349,3653149 "/>
   </g>
   <g style="clip-path:url(#id3)">
   </g>
   <g style="clip-path:url(#id4)">
    <image x="16372372" y="-9210630" width="14282723" height="17521419" xlink:href="человек_Images\человек_ImgID1.png"/>
   </g>
   <g style="clip-path:url(#id5)">
   </g>
   <g style="clip-path:url(#id6)">
   </g>
   <g style="clip-path:url(#id7)">
   </g>
   <g style="clip-path:url(#id8)">
    <image x="-17085461" y="8586160" width="29062973" height="22358076" xlink:href="человек_Images\человек_ImgID2.png"/>
   </g>
   <g style="clip-path:url(#id9)">
   </g>
   <g style="clip-path:url(#id10)">
   </g>
   <g style="clip-path:url(#id11)">
   </g>
   <g style="clip-path:url(#id12)">
    <image x="-11725387" y="10018805" width="29425989" height="23097428" xlink:href="человек_Images\человек_ImgID3.png"/>
   </g>
   <g style="clip-path:url(#id13)">
   </g>
   <g style="clip-path:url(#id14)">
    <rect class="fil61 str1" x="-4225678" y="3396664" width="3820151" height="3074487"/>
   </g>
  </g>
  <path class="fil61" d="M1599425 4404001l-284394 -68410 97730 -406294 284394 68410 -97730 406294zm-928690 -517353l135750 0 85031 17781 -2084 70327 69197 12807 -1524 227799 12758 -10311 12562 -213075 204543 37911 12748 -10281 -271980 -75792 -3362 -57166 189190 0 109250 135376 -268186 216416 -283893 -351792zm1410314 0l3804 0 -374 1131 -3430 -1131zm249570 0l4167 -13613 77974 108778 -111619 59132 -2427 9446 122283 -56832 23904 34067 37341 -18390 79930 108543 2378 -9426 -69452 -105456 110400 -54463 2418 -9387 -155790 60360 -94979 -112759 -20415 -22557 105643 22557 177366 45391 -50590 197544 -282232 -72214 43700 -170721zm406461 0l183794 0 -26794 29045 60311 75713 -207108 235072 22557 826 205251 -209860 178162 223837 22567 806 -214067 -323927 24278 -31512 225272 0 -13751 378832 -473633 -17260 13161 -361572zm-472660 966286l-139622 -3558 5062 -199471 139632 3548 -5072 199481zm-8414 -193171l0 0 -56477 62641 -56518 -65491 -6644 -177 56615 72922 -19098 21171 17988 22116 -60282 69943 6674 187 59790 -62532 53234 65402 6664 177 -64144 -94811 68862 -91371 -6664 -177zm-636884 755865l-110675 -85188 121674 -158130 110715 85188 -121714 158130zm107078 -160980l0 0 -82525 17289 -7057 -86221 -5278 -4039 2752 92255 -27905 5868 1484 28455 -89906 20966 5278 4069 85149 -15245 4443 84196 5288 4069 4069 -114381 109486 -33222 -5278 -4059zm-739971 -625974l72224 157147 -224486 103166 -72205 -157157 224467 -103156zm-210136 114725l0 0 100384 28622 -41921 98566 3480 7509 50158 -102763 33939 9682 14793 -32053 110616 28799 -3450 -7479 -102094 -32368 43602 -94821 -3401 -7470 -70357 122962 -139169 -26666 3420 7480zm520597 814613l-42894 167546 -239358 -61264 42894 -167547 239358 61265zm-235505 -43238l0 0 59967 85454 -94644 50148 -2044 8000 103687 -48191 20267 28897 31689 -15589 67771 92049 2025 -7981 -58915 -89464 93622 -46167 2044 -7962 -132103 51200 -91302 -108385 -2064 7991zm762863 -479108l-303590 -44545 63614 -433688 303610 44506 -63634 433727zm32564 -423466l0 0 -139661 121655 -106066 -157718 -14468 -2123 104277 173936 -47229 41183 33448 52979 -149893 136663 14459 2143 146924 -120622 98851 156675 14488 2123 -114921 -223601 174269 -181199 -14478 -2094zm-334031 -49528l-192374 212760 -303994 -274801 192394 -212760 303974 274801zm-312171 -245383l0 0 21939 171733 -177671 531 -9160 10114 189396 9348 7421 58070 58561 1582 28328 187470 9151 -10134 -17339 -176785 173080 4521 9151 -10124 -233450 -26892 -50256 -229548 -9151 10114zm265778 963553l-223592 102586 -146561 -319376 223592 -102615 146561 319405zm-162976 -298980l0 0 -40830 142796 -140172 -59741 -10645 4866 146080 71447 -13790 48330 45606 20994 -41085 157383 10645 -4934 46108 -145205 134865 62150 10644 -4866 -174849 -100197 38058 -197928 -10635 4905zm916000 -528657l-223552 102626 -146571 -319396 223582 -102596 146541 319366zm-162975 -298951l0 0 -40781 142748 -140202 -59672 -10645 4865 146099 71467 -13800 48300 45597 20995 -41095 157334 10655 -4875 46128 -145235 134874 62159 10655 -4865 -174889 -100178 38039 -197928 -10635 4885zm-399424 -149500l0 0 -143072 103481 -87194 -158877 -13505 -3244 84029 174161 -48408 34972 27207 53215 -154061 116877 13525 3253 149854 -101878 80382 157236 13524 3263 -89798 -222186 181042 -157009 -13525 -3264z"/>
  <path class="fil62" d="M1661515 3656520l-89739 150503 -215011 -128201 89749 -150502 215001 128200zm-216387 -109594l0 0 33724 100257 -106371 21574 -4275 7166 114567 -17083 11412 33920 35257 -6094 39434 108916 4276 -7165 -31591 -103835 104237 -17997 4276 -7175 -143072 11844 -57598 -131503 -4276 7175z"/>
  <path class="fil63" d="M2988960 754872l-212564 356481 -509273 -303669 212573 -356481 509264 303669zm-512537 -259605l0 0 79891 237480 -251968 51111 -10124 16965 271380 -40466 27010 80333 83518 -14419 93406 257983 10124 -16975 -74819 -245962 246896 -42629 10124 -16975 -338887 28043 -136427 -311464 -10124 16975z"/>
  <path class="fil64" d="M4062372 2759166l-598206 -21781 31108 -854578 598207 21781 -31109 854578zm-26892 -828168l0 0 -244999 265631 -239269 -283254 -28485 -1042 239269 315179 -82879 89838 76126 95646 -261551 296936 28485 1042 259231 -265100 225037 282733 28484 1023 -270338 -409155 299374 -388444 -28485 -1033z"/>
  <path class="fil65" d="M2839302 2996341l-282399 129597 -185140 -403415 282399 -129596 185140 403414zm-205860 -377632l0 0 -51543 180343 -177061 -75428 -13456 6173 184521 90231 -17437 60999 57618 26568 -51907 198724 13456 -6173 58267 -183420 170337 78505 13447 -6173 -220869 -126549 48074 -249973 -13447 6173z"/>
  <path class="fil64" d="M2896920 1548137l-240428 733965 -1048526 -343476 240429 -733956 1048525 343467zm-1036465 -262122l0 0 241943 398549 -436578 195608 -11441 34962 476159 -184226 81827 134806 145746 -60252 274879 430237 11451 -34952 -236222 -416015 430857 -178152 11451 -34952 -603809 189220 -374812 -509785 -11451 34952z"/>
  <path class="fil63" d="M3783256 1653947l-682314 46000 -65727 -974739 682314 -46000 65727 974739zm-128515 -937860l0 0 -246975 330797 -305369 -293555 -32505 2192 309164 329834 -83538 111884 97800 99677 -262073 368354 32485 -2192 263213 -331888 289151 294645 32485 -2191 -355586 -432981 294243 -476768 -32495 2192z"/>
  <path class="fil66" d="M4453687 1294065l-107314 305075 -435821 -153294 107304 -305075 435831 153294zm-431525 -119138l0 0 97671 169040 -184531 77935 -5121 14527 201014 -72803 33036 57175 61559 -23904 111157 182604 5111 -14527 -95106 -176294 181976 -70681 5111 -14518 -254475 73728 -152291 -216809 -5111 14527z"/>
  <path class="fil64" d="M1692781 1185729l-155741 442780 -632550 -222501 155742 -442779 632549 222500zm-626298 -172913l0 0 141755 245334 -267842 113113 -7421 21093 291746 -105672 47956 82977 89337 -34687 161344 265031 7421 -21093 -138050 -255871 264127 -102576 7411 -21073 -369347 107009 -221026 -314668 -7411 21083z"/>
  <polygon class="fil65" points="1946705,3134567 1703741,3403324 1342287,3076556 1345570,3055070 1583374,3066806 1592761,3140180 1666715,3142136 1702502,3378948 1714071,3366150 1692142,3142814 1910760,3148584 1922339,3135786 1627457,3101778 1563991,2811840 1552422,2824628 1552422,2824628 1580160,3041575 1355733,3042204 1345874,3053114 1350602,3022143 1562762,2787474 "/>
  <path class="fil65" d="M2327513 3732027l-383462 -56252 80363 -547803 383461 56242 -80362 547813zm41174 -534907l0 0 -176452 153667 -133989 -199205 -18243 -2684 131729 219749 -59672 51966 42235 66936 -189308 172638 18263 2683 185563 -152321 124868 197859 18263 2673 -145107 -282428 220102 -228850 -18252 -2683z"/>
  <path class="fil65" d="M2959993 3382958l-176353 -4492 6409 -251949 176363 4492 -6419 251949zm-10595 -243977l0 0 -71349 79075 -71428 -82712 -8384 -216 71526 92118 -24131 26745 22735 27934 -76116 88353 8394 217 75546 -78957 67231 82593 8394 207 -80992 -119709 86978 -115432 -8404 -216z"/>
  <path class="fil64" d="M3327797 2251446l-63869 249540 -356491 -91253 63880 -249540 356480 91253zm-350681 -64440l0 0 89277 127306 -140978 74701 -3047 11884 154414 -71782 30195 43061 47170 -23256 100944 137136 3038 -11884 -87754 -133243 139464 -68764 3038 -11883 -196778 76244 -135936 -161413 -3047 11893z"/>
  <path class="fil64" d="M2234677 2484876l-149972 251506 -359301 -214244 149972 -251506 359301 214244zm-361601 -183155l0 0 56360 167547 -177769 36053 -7146 11971 191461 -28543 19058 56674 58926 -10173 65903 182015 7136 -11972 -52782 -173532 174191 -30077 7146 -11982 -239092 19786 -96256 -219748 -7136 11981z"/>
  <path class="fil67" d="M2758792 3606117l-62355 177287 -253275 -89081 62355 -177297 253275 89091zm-250768 -69236l0 0 56762 98232 -107245 45292 -2968 8443 116809 -42304 19206 33222 35768 -13888 64596 106114 2978 -8443 -55268 -102448 105751 -41076 2968 -8433 -147888 42845 -88501 -125999 -2968 8443z"/>
  <path class="fil65" d="M685823 3898561l-914 -1120 113437 -4876 29605 5996 -142128 0zm417067 -19088l15608 19088 -187106 0 -756 -11687 172254 -7401zm-202931 8728l-29 1307 -6832 -1012 6861 -295z"/>
  <path class="fil64" d="M3395008 214244l-149972 251506 -359301 -214244 149972 -251506 359301 214244zm-361601 -183155l0 0 56360 167547 -177769 36053 -7146 11971 191461 -28543 19058 56674 58926 -10173 65903 182015 7136 -11972 -52782 -173532 174191 -30077 7146 -11982 -239092 19786 -96256 -219748 -7136 11981z"/>
  <path class="fil65" d="M679355 1643125l91214 198488 -283549 130304 -91213 -198478 283548 -130314zm-265414 144870l0 0 126815 36171 -52969 124505 4344 9456 63368 -129754 42885 12228 18655 -40516 139730 36417 -4344 -9456 -128967 -40889 55131 -119786 -4345 -9446 -88894 155319 -175753 -33704 4344 9455z"/>
  <path class="fil64" d="M1374152 2272568l59958 286626 -409469 85660 -59948 -286625 409459 -85661zm-390105 110096l0 0 154925 85119 -106389 146906 2850 13652 121556 -150650 52399 28789 36466 -47386 171753 89307 -2861 -13642 -156350 -91951 107815 -140084 -2861 -13653 -162533 176461 -219631 -96521 2861 13653z"/>
  <path class="fil65" d="M1946273 905837l-176353 -4492 6408 -251949 176363 4492 -6418 251949zm-10596 -243977l0 0 -71349 79075 -71428 -82712 -8384 -216 71526 92118 -24130 26745 22734 27934 -76116 88353 8394 217 75546 -78957 67231 82593 8394 207 -80991 -119708 86977 -115433 -8404 -216z"/>
 </g>
</svg>
