<svg class="comments__quote comments__quote--up" width="36" height="27" viewBox="0 0 36 27" fill="none" xmlns="http://www.w3.org/2000/svg">
<path d="M23.7511 4.20169C25.9099 1.45303 29.1394 -0.000174163 33.0904 -0.000173817C34.6596 -0.00017368 35.9316 1.27159 35.9316 2.84061C35.9316 4.40964 34.6596 5.6818 33.0904 5.68179C30.8548 5.68179 29.3076 6.32651 28.2207 7.71067C27.1674 9.05288 26.631 10.9814 26.4076 13.0388L33.4952 13.0388C34.6719 13.0388 35.6261 13.993 35.6261 15.1698L35.6261 24.3319C35.6261 25.5091 34.6719 26.4629 33.4952 26.4629L24.3328 26.4629C23.0223 26.4629 21.8292 25.3146 21.5725 24.2624C21.5404 24.1303 20.7803 20.9834 20.6157 17.063C20.3806 11.4786 21.4358 7.15106 23.7511 4.20169Z" fill="black"/>
<path d="M4.09967 4.20169C6.25781 1.45303 9.48739 -0.000175881 13.439 -0.000175535C15.0082 -0.000175398 16.2799 1.27158 16.2799 2.84061C16.2799 4.40963 15.0082 5.68179 13.439 5.68179C11.2031 5.68179 9.65539 6.32651 8.5691 7.71067C7.51532 9.05288 6.97939 10.9814 6.75619 13.0388L13.8436 13.0388C15.0204 13.0388 15.974 13.993 15.974 15.1698L15.974 24.3319C15.974 25.5091 15.0204 26.4629 13.8436 26.4629L4.68095 26.4629C3.37086 26.4629 2.17778 25.3146 1.92086 24.2624C1.88854 24.1303 1.12902 20.9834 0.963624 17.063C0.728986 11.4786 1.78377 7.15106 4.09967 4.20169Z" fill="black"/>
</svg>
