<?xml version="1.0" encoding="UTF-8"?>
<!DOCTYPE svg PUBLIC "-//W3C//DTD SVG 1.1//EN" "http://www.w3.org/Graphics/SVG/1.1/DTD/svg11.dtd">
<!-- Creator: CorelDRAW X8 -->
<svg xmlns="http://www.w3.org/2000/svg" xml:space="preserve" width="4.5472mm" height="5.4491mm" version="1.1" style="shape-rendering:geometricPrecision; text-rendering:geometricPrecision; image-rendering:optimizeQuality; fill-rule:evenodd; clip-rule:evenodd"
viewBox="0 0 27466 32914"
 xmlns:xlink="http://www.w3.org/1999/xlink">
 <defs>
  <style type="text/css">
   <![CDATA[
    .fil1 {fill:gray}
    .fil0 {fill:url(#id0)}
   ]]>
  </style>
  <linearGradient id="id0" gradientUnits="userSpaceOnUse" x1="14968.4" y1="29293.5" x2="14970.8" y2="7031.48">
   <stop offset="0" style="stop-opacity:1; stop-color:#BAD6F2"/>
   <stop offset="1" style="stop-opacity:1; stop-color:white"/>
  </linearGradient>
 </defs>
 <g id="Слой_x0020_1">
  <metadata id="CorelCorpID_0Corel-Layer"/>
  <path class="fil0" d="M13733 32914l24 0c7540,0 13709,-6169 13709,-13709l0 -15799 -27466 0 0 15775c0,7554 6179,13733 13733,13733z"/>
  <path class="fil1" d="M16582 5180l0 -1696 296 0c242,0 439,-197 439,-439l0 -986c0,-1135 -924,-2059 -2059,-2059l-3003 0c-1135,0 -2060,924 -2060,2059l0 986c0,242 197,439 439,439l296 0 0 1696c-2014,423 -3865,1290 -5448,2493l-1009 -1008c-352,-353 -928,-353 -1281,0l-1245 1245c-171,171 -265,398 -265,641 0,242 94,469 265,640l992 992c-1811,2324 -2892,5244 -2892,8413 0,7560 6150,13710 13710,13710 7559,0 13709,-6150 13709,-13710 0,-6591 -4675,-12110 -10884,-13416zm2607 18227c-171,-171 -449,-171 -621,0 -172,172 -172,450 0,622l1203 1204c86,85 199,128 310,128 113,0 225,-43 312,-128 171,-172 171,-450 0,-622l-1204 -1204zm-10867 -9622c82,81 194,128 311,128l1 0c243,0 439,-197 439,-440 0,-125 -52,-237 -136,-317l-1195 -1197c-172,-171 -450,-171 -622,0 -171,172 -171,450 0,622l1202 1204zm14380 4371l-1701 0c-242,0 -439,197 -439,440 0,242 197,439 439,439l1701 0c243,0 439,-197 439,-439 0,-243 -196,-440 -439,-440zm-16190 1l-1702 0c-243,0 -439,196 -439,439 0,243 197,439 439,439l1702 0c242,0 439,-196 439,-439 0,-243 -197,-439 -439,-439zm12367 -4244c118,0 229,-47 311,-128l1203 -1204c171,-172 171,-451 0,-622 -172,-171 -450,-171 -622,0l-1190 1191c-87,81 -141,195 -141,323 0,243 197,440 439,440zm-10556 9494l-1203 1204c-171,172 -171,450 0,622 86,85 199,128 311,128 112,0 224,-43 311,-128l1203 -1204c172,-172 172,-450 0,-622 -172,-171 -450,-171 -622,0zm5434 -11616c242,0 439,-197 439,-440l0 -1702c0,-242 -197,-438 -439,-438 -243,0 -440,196 -440,438l0 1702c0,243 197,440 440,440zm0 13610c-243,0 -440,197 -440,439l0 1702c0,242 197,439 440,439 242,0 439,-197 439,-439l0 -1702c0,-242 -197,-439 -439,-439zm430 -12507c-42,-205 -222,-352 -430,-352 -209,0 -389,147 -431,352 0,0 -1158,5498 -1158,5702 0,876 712,1588 1589,1588 876,0 1588,-712 1588,-1588 0,-204 -1158,-5702 -1158,-5702zm-430 2279l384 1882c-123,-31 -252,-47 -384,-47 -133,0 -262,16 -386,47l386 -1882zm0 4133c-392,0 -711,-319 -711,-710 0,-392 319,-710 711,-710 391,0 709,318 709,710 0,391 -318,710 -709,710zm0 -11401c-5896,0 -10692,4796 -10692,10691 0,5895 4796,10691 10692,10691 5894,0 10690,-4796 10690,-10691 0,-5895 -4796,-10691 -10690,-10691zm0 20504c-5411,0 -9813,-4403 -9813,-9813 0,-5411 4402,-9813 9813,-9813 5410,0 9812,4402 9812,9813 0,5410 -4402,9813 -9812,9813zm-2683 -26350c0,-651 530,-1180 1181,-1180l3003 0c651,0 1181,529 1181,1180l0 546 -5365 0 0 -546zm735 1457l3894 0 0 1508c-636,-90 -1285,-138 -1946,-138 -662,0 -1312,48 -1948,138l0 -1508zm-9240 5054c-2,-2 -9,-9 -9,-19 0,-12 7,-18 9,-20l1245 -1245c10,-10 28,-10 38,0l942 943c-457,396 -888,823 -1291,1275l-934 -934zm11188 22857c-7075,0 -12832,-5756 -12832,-12831 0,-7075 5757,-12831 12832,-12831 7074,0 12830,5756 12830,12831 0,7075 -5756,12831 -12830,12831z"/>
 </g>
</svg>
