<?xml version="1.0" encoding="UTF-8"?>
<!DOCTYPE svg PUBLIC "-//W3C//DTD SVG 1.1//EN" "http://www.w3.org/Graphics/SVG/1.1/DTD/svg11.dtd">
<!-- Creator: CorelDRAW X8 -->
<svg xmlns="http://www.w3.org/2000/svg" xml:space="preserve" width="5.0536mm" height="4.714mm" version="1.1" style="shape-rendering:geometricPrecision; text-rendering:geometricPrecision; image-rendering:optimizeQuality; fill-rule:evenodd; clip-rule:evenodd"
viewBox="0 0 63877 59585"
 xmlns:xlink="http://www.w3.org/1999/xlink">
 <defs>
  <style type="text/css">
   <![CDATA[
    .fil1 {fill:gray}
    .fil0 {fill:url(#id0)}
   ]]>
  </style>
  <linearGradient id="id0" gradientUnits="userSpaceOnUse" x1="35136.5" y1="58600" x2="35140.3" y2="12014.3">
   <stop offset="0" style="stop-opacity:1; stop-color:#BAD6F2"/>
   <stop offset="1" style="stop-opacity:1; stop-color:#FEFEFE"/>
  </linearGradient>
 </defs>
 <g id="Слой_x0020_1">
  <metadata id="CorelCorpID_0Corel-Layer"/>
  <path class="fil0" d="M58215 4427l-58215 0 0 942c2869,-683 6071,-610 8058,1098 7270,6249 2077,4091 451,9261 -1471,4682 -2280,5765 -441,10974 805,2281 7963,2012 2478,4483 -2235,1006 -775,3931 -7316,5300 -1273,267 -2268,499 -3230,698l0 17574c617,-32 1167,-117 1565,-264 1773,805 4359,-2414 5190,823 1079,4209 11498,4157 14562,2967 1660,-646 6921,1936 9729,155 6038,-3826 -3392,-4021 2122,-6504 913,-411 2133,-2278 500,-3498 -2907,-2170 2443,-1869 754,-5959 -807,-1955 200,-153 -1051,-2068 -567,-869 1845,-6095 -3627,-5880 -1613,63 410,-5585 5013,-3579 5470,2384 9138,2431 15073,5668 3899,2126 3384,988 7438,4413 1125,949 -2045,-10348 968,-12038 3049,-1710 4876,-5083 4769,-8607 -282,-9198 -4892,-3567 -4892,-14105 0,-651 36,-1269 102,-1854z"/>
  <path class="fil1" d="M2488 53572l3142 0c211,0 416,72 580,205 3152,2557 7124,3964 11181,3964l1770 0c-348,-555 -559,-1201 -588,-1895l-1226 -353c-2213,-638 -3495,-2959 -2857,-5172l1387 -4820c-1112,722 -2437,1142 -3858,1142 -509,0 -921,-414 -921,-922 0,-509 412,-923 921,-923 2910,0 5277,-2367 5277,-5277l6 -5096c0,-508 412,-922 921,-922 509,0 923,414 923,922l0 5173c0,1264 1027,2293 2291,2293 1266,0 2293,-1029 2293,-2293l0 -7030c0,-755 -613,-1366 -1366,-1366l-7086 0c-2709,0 -5265,1317 -6833,3524l-17 24c-1276,1795 -3353,2865 -5555,2865 -511,0 -924,-413 -924,-921 0,-511 413,-923 924,-923 1605,0 3121,-781 4051,-2089l18 -24c1201,-1690 2875,-2952 4774,-3658 -3428,-1705 -5790,-5245 -5790,-9326 0,-5739 4670,-10410 10410,-10410l10391 0c10348,0 20721,-3490 29995,-10093 280,-200 651,-227 958,-67 306,158 499,474 499,817l0 10473c3481,1764 5698,5343 5698,9281 0,3939 -2217,7516 -5698,9280l0 10471c0,345 -193,661 -499,819 -134,69 -278,103 -424,103 -188,0 -375,-57 -534,-171 -7864,-5598 -16517,-8958 -25275,-9850l-927 2511 306 0c2155,0 3911,1755 3911,3911 0,992 -373,1899 -985,2589 1171,676 1960,1940 1960,3386 0,1456 -802,2730 -1987,3401 604,688 970,1591 970,2574 0,1893 -1352,3476 -3143,3835 404,616 641,1350 641,2140 0,2158 -1753,3911 -3911,3911l-10891 0c-4369,0 -8647,-1478 -12083,-4169l-2820 0c-511,0 -923,-413 -923,-923 0,-509 412,-921 923,-921zm13848 -38308c-2984,0 -5411,2427 -5411,5410 0,509 -412,923 -922,923 -509,0 -922,-414 -922,-923 0,-4001 3253,-7254 7255,-7254 508,0 921,412 921,923 0,508 -413,921 -921,921zm45697 5410c0,-2914 -1476,-5587 -3854,-7153l0 14307c2378,-1566 3854,-4241 3854,-7154zm-44174 33047l1073 308c259,-554 646,-1040 1120,-1418 -799,-716 -1304,-1755 -1304,-2912 0,-1197 542,-2270 1391,-2988 -849,-718 -1391,-1790 -1391,-2987 0,-307 36,-608 103,-900 -76,-62 -153,-129 -226,-197l-2364 8205c-356,1237 361,2531 1598,2889zm-10089 -33047c0,4723 3842,8566 8566,8566l5795 0 0 -17131 -5795 0c-4724,0 -8566,3843 -8566,8565zm16204 -8565l0 17131 2753 0c9031,0 18068,2557 26419,7432l0 -31996c-8351,4875 -17388,7432 -26419,7432l-2753 1zm32361 -9429c-446,299 -895,589 -1345,873l0 34242c450,284 899,574 1345,873l0 -35988zm-26797 28493c-936,-59 -1873,-89 -2811,-89l-1518 0c234,445 365,949 365,1484l0 1270 2981 0 983 -2665zm1288 4510l-5252 0c0,0 -2,4060 -5,4130l5257 0c1139,0 2066,-926 2066,-2064 0,-1139 -927,-2066 -2066,-2066zm975 5976l-6779 0c-715,1240 -2053,2075 -3585,2075 -288,0 -568,-29 -840,-86 -1,26 -5,51 -5,76 0,1139 926,2065 2065,2065l9144 0c1140,0 2066,-926 2066,-2065 0,-1139 -926,-2065 -2066,-2065zm1050 8040c0,-1139 -928,-2064 -2066,-2064l-8128 0c-1139,0 -2065,925 -2065,2064 0,1139 926,2067 2065,2067l8128 0c1138,0 2066,-928 2066,-2067zm-4569 8042c1140,0 2066,-927 2066,-2067 0,-1138 -926,-2064 -2066,-2064l-5803 0c-1140,0 -2067,925 -2067,2064 0,1140 927,2067 2067,2067l5803 0z"/>
 </g>
</svg>
