<?xml version="1.0" encoding="UTF-8"?>
<!DOCTYPE svg PUBLIC "-//W3C//DTD SVG 1.1//EN" "http://www.w3.org/Graphics/SVG/1.1/DTD/svg11.dtd">
<!-- Creator: CorelDRAW X8 -->
<svg xmlns="http://www.w3.org/2000/svg" xml:space="preserve" width="4.6344mm" height="4.9437mm" version="1.1" style="shape-rendering:geometricPrecision; text-rendering:geometricPrecision; image-rendering:optimizeQuality; fill-rule:evenodd; clip-rule:evenodd"
viewBox="0 0 84902 90568"
 xmlns:xlink="http://www.w3.org/1999/xlink">
 <defs>
  <style type="text/css">
   <![CDATA[
    .fil1 {fill:gray}
    .fil0 {fill:url(#id0)}
   ]]>
  </style>
  <linearGradient id="id0" gradientUnits="userSpaceOnUse" x1="46763.5" y1="78676.9" x2="46770.9" y2="11156.9">
   <stop offset="0" style="stop-opacity:1; stop-color:#BAD6F2"/>
   <stop offset="1" style="stop-opacity:1; stop-color:#FEFEFE"/>
  </linearGradient>
 </defs>
 <g id="Слой_x0020_1">
  <metadata id="CorelCorpID_0Corel-Layer"/>
  <path class="fil0" d="M1365 89658l83304 0 0 -10118c-1194,-3507 -4026,-4153 -6322,-7431 -6020,-8597 -14119,-2927 -20696,-11349 -4477,-5734 500,-5529 2682,-6919 6936,-4427 7695,-9455 6905,-17256 -475,-4668 1258,-4120 -2517,-6934 -1094,-815 -53,-8629 -196,-10657 -1319,-18629 558,-10900 -7882,-15147 -5627,-2830 -28819,-4239 -31488,2155 -921,2209 -2002,2412 -2984,3572 -7172,8453 877,19047 -2111,19203 -3801,200 -3286,3759 -3618,6480 -1738,14324 9561,3426 11729,21161 912,7477 -7601,9946 -13552,10657 -5576,663 -10213,4023 -13254,8552l0 14031z"/>
  <path class="fil1" d="M82196 73240c-1909,-2792 -4569,-4734 -7696,-5610 -28,-7 -59,-15 -92,-22l-11287 -2361 -3039 -4608c-15,-24 -31,-46 -49,-70 -460,-611 -1160,-1016 -1924,-1112 -760,-91 -1537,136 -2132,621 -8,6 -19,15 -28,22l-13498 11621 -13498 -11621c-11,-7 -22,-16 -29,-22 -596,-487 -1373,-712 -2133,-621 -764,96 -1462,501 -1922,1112 -20,24 -36,46 -51,70l-3037 4608 -11287 2361c-33,7 -64,15 -94,22 -3125,876 -5787,2818 -7696,5610 -1744,2557 -2704,5642 -2704,8687l0 3508c0,2831 2537,5133 5659,5133l32544 0c0,0 1,0 5,0 2,0 4,0 6,0l8473 0c3,0 5,0 7,0 2,0 4,0 5,0l32542 0c3122,0 5659,-2302 5659,-5133l0 -3508c2,-3045 -960,-6130 -2704,-8687zm-63801 -28193l0 17223c0,784 634,1416 1414,1416 783,0 1417,-632 1417,-1416l0 -16979 1295 0c1051,3310 2689,6424 4827,9073 4117,5095 9484,7904 15116,7904 4362,0 8594,-1697 12241,-4906 20,-17 33,-33 50,-48 227,13 454,24 683,24 1652,0 3334,-392 4968,-1184 5341,-2583 8931,-8656 8931,-15106l0 -8493c0,-2340 -1905,-4245 -4244,-4245l-579 0c3134,-11958 1713,-21773 458,-24628 -2,-5 -6,-11 -8,-16 -14,-28 -27,-51 -40,-79 -9,-16 -16,-31 -24,-46 -16,-24 -31,-46 -46,-69 -9,-19 -21,-35 -32,-52 -15,-18 -28,-34 -41,-51 -16,-20 -31,-40 -49,-60 -11,-11 -24,-22 -35,-33 -20,-22 -39,-44 -62,-65 -10,-9 -21,-18 -30,-27 -23,-20 -49,-40 -75,-60 -11,-10 -22,-15 -35,-24 -25,-19 -51,-37 -75,-53 -16,-8 -31,-15 -45,-24 -24,-13 -50,-30 -74,-39 -18,-11 -38,-18 -57,-25 -22,-11 -42,-20 -66,-31 -22,-8 -43,-13 -65,-21 -22,-7 -43,-14 -63,-20 -22,-5 -44,-11 -66,-16 -24,-4 -46,-9 -69,-13 -22,-6 -41,-7 -61,-9 -27,-2 -53,-6 -80,-8 -17,-1 -33,-1 -50,-3 -29,0 -60,0 -93,0 -13,0 -28,2 -42,3 -33,2 -65,6 -99,8 -6,0 -10,0 -13,2 -3549,507 -7845,-358 -12394,-1270 -7626,-1532 -15507,-3109 -21668,1286 -94,-20 -189,-29 -286,-29 -6319,0 -10734,5236 -10734,12734 0,3473 876,8744 1653,12738l-239 0c-2339,0 -4244,1903 -4244,4245l0 8493c0,1843 1183,3415 2830,3999zm40777 8559c-2985,1447 -6048,1147 -8642,-837 262,-552 410,-1167 410,-1818 0,-2341 -1903,-4246 -4244,-4246 -2340,0 -4245,1905 -4245,4246 0,2340 1905,4243 4245,4243 656,0 1275,-148 1830,-414 38,41 81,75 123,112 833,658 1714,1184 2629,1577 -2734,1946 -5744,2968 -8814,2968 -4758,0 -9345,-2433 -12912,-6851 -3523,-4361 -5542,-10131 -5542,-15832l0 -1613c0,-5039 2858,-11847 3831,-14014 9775,-1149 17565,-2 22422,1183 4261,1042 7056,2290 8064,2779l2552 6073 0 5602c0,4679 -1361,9454 -3832,13442 -411,663 -207,1537 458,1947 232,145 489,213 743,213 473,0 936,-237 1206,-669 1231,-1988 2211,-4153 2922,-6405l2717 -1c273,0 538,-28 798,-77 -1091,3680 -3556,6862 -6719,8392zm-11062 -2655c0,779 -634,1415 -1414,1415 -779,0 -1415,-636 -1415,-1415 0,-782 636,-1414 1415,-1414 780,0 1414,632 1414,1414zm18397 -18396l0 8493c0,778 -636,1414 -1414,1414l-1979 0c392,-1883 595,-3798 595,-5699l0 -5623 1384 0c778,0 1414,636 1414,1415zm-37378 -26889c135,0 267,-20 394,-56 414,117 875,49 1245,-231 5194,-3948 12599,-2461 19758,-1023 3756,753 7349,1477 10666,1477 511,0 1017,-20 1514,-59 870,3142 1694,11060 -678,20816l-1294 -3078c-122,-291 -340,-535 -619,-689 -522,-288 -13020,-7033 -33410,-4410 -5,0 -7,2 -9,2 -28,4 -55,8 -83,13 -18,4 -38,9 -60,15 -17,2 -35,9 -50,13 -163,45 -311,117 -443,210 -2,0 -2,2 -4,2 -9,7 -18,17 -31,26 -93,71 -177,154 -251,249 -5,4 -7,5 -11,9 -12,20 -25,40 -40,60 -13,17 -26,37 -38,57 -10,13 -17,28 -26,44 -17,28 -31,52 -44,79 0,4 -2,5 -4,9 -110,227 -1711,3569 -2958,7658 -706,-3739 -1427,-8305 -1427,-11287 0,-6844 3968,-9906 7903,-9906zm-10734 26889c0,-779 634,-1415 1414,-1415l812 0c267,1264 474,2184 559,2550l0 3064c0,1908 207,3827 599,5708l-1970 0c-780,0 -1414,-636 -1414,-1414l0 -8493zm39373 29715l2772 4204 -9770 13432 -3074 -3074c0,0 -2,0 -2,0l-3166 -3167 13240 -11395zm-16731 21223l2828 0c86,0 171,-3 253,-9l852 4254 -5038 0 852 -4254c82,6 167,9 253,9zm4244 -4245c0,779 -633,1415 -1416,1415l-2828 0c-783,0 -1416,-636 -1416,-1415l0 -829 2830 -2831 2830 2831 0 829 0 0zm-18147 -16978l13240 11395 -3168 3167c0,0 0,0 0,0l-3074 3074 -9770 -13432 2772 -4204zm-24304 23165l0 -3508c0,-4578 2846,-10008 8290,-11558l10915 -2285 10782 14825c241,335 621,546 1033,579 36,3 73,5 112,5 371,0 732,-148 998,-416l2169 -2167c233,542 573,1026 997,1424l-1081 5404 -31386 0c-1559,0 -2829,-1033 -2829,-2303zm79242 0c0,1270 -1270,2303 -2831,2303l-31384 0 -1082 -5403c425,-399 765,-883 996,-1425l2171 2169c266,266 627,414 998,414 39,0 74,-2 112,-3 412,-35 790,-246 1033,-581l10782 -14825 10915 2285c5444,1550 8290,6980 8290,11558l0 3508z"/>
 </g>
</svg>
