<?xml version="1.0" encoding="UTF-8"?>
<!DOCTYPE svg PUBLIC "-//W3C//DTD SVG 1.1//EN" "http://www.w3.org/Graphics/SVG/1.1/DTD/svg11.dtd">
<!-- Creator: CorelDRAW X8 -->
<svg xmlns="http://www.w3.org/2000/svg" xml:space="preserve" width="8.3174mm" height="4.9446mm" version="1.1" style="shape-rendering:geometricPrecision; text-rendering:geometricPrecision; image-rendering:optimizeQuality; fill-rule:evenodd; clip-rule:evenodd"
viewBox="0 0 98318 58449"
 xmlns:xlink="http://www.w3.org/1999/xlink">
 <defs>
  <style type="text/css">
   <![CDATA[
    .fil1 {fill:#116BC4}
    .fil3 {fill:#2D2F31}
    .fil4 {fill:#3F3F41}
    .fil2 {fill:#4D94DB}
    .fil9 {fill:#C8A12D}
    .fil6 {fill:#DB9A2A}
    .fil7 {fill:#EFC12D}
    .fil8 {fill:#EFD134}
    .fil10 {fill:#F5CA56}
    .fil5 {fill:white}
    .fil0 {fill:#4D4D4D}
   ]]>
  </style>
 </defs>
 <g id="Слой_x0020_1">
  <metadata id="CorelCorpID_0Corel-Layer"/>
  <path class="fil0" d="M34174 53732c0,2506 12532,4538 27990,4538 15459,0 27992,-2032 27992,-4538 0,-2507 -12533,-4538 -27992,-4538 -15458,0 -27990,2031 -27990,4538z"/>
  <path class="fil0" d="M0 53911c0,2506 7324,4538 16359,4538 9034,0 16359,-2032 16359,-4538 0,-2506 -7325,-4538 -16359,-4538 -9035,0 -16359,2032 -16359,4538z"/>
  <path class="fil1" d="M55051 48112c-37,802 -53,1514 -139,2010 -534,3100 -7755,3337 -7986,-184 -68,-1046 105,-2872 -104,-4852l8229 3026z"/>
  <path class="fil1" d="M84877 43039c-38,804 -702,6216 -788,6713 -534,3100 -7756,3336 -7987,-184 -68,-1047 105,-2874 -104,-4852l8879 -1677z"/>
  <path class="fil2" d="M82700 54342c-206,1970 -7730,2092 -8164,-1061l-402 -4311c-3488,1037 -7301,1610 -11295,1610 -4486,0 -8741,-722 -12565,-2013 -494,1867 -340,4008 -529,5105 -534,3100 -7756,3337 -7987,-184 -108,-1631 375,-5159 -921,-8206 0,0 -8430,-4187 -8096,-16810 0,-1894 326,-3733 938,-5488 -593,-480 -1185,-989 -1391,-1130 -1662,615 -4770,-1458 -4643,-1656 187,-488 1689,235 3147,0l-104 -196c-817,-1602 -437,-3374 261,-4342 533,-741 1272,-1103 2027,-995 619,89 1472,532 2031,2129 499,1424 219,2775 -760,3807 135,39 274,70 417,92 3781,-7372 12773,-12869 23681,-14069 9876,-1190 17700,1519 17700,1519 0,0 5264,-4815 9657,-3713 1514,1115 -1124,7878 -1292,8580 131,119 261,239 390,358 2379,1863 4324,4030 5714,6412 1318,244 4212,170 6754,159 250,1431 731,15526 -802,15539 -1892,15 -2773,289 -5119,108 -1489,3223 -3964,6111 -7159,8472 -1553,5099 -1282,8314 -1488,10284zm-50481 -36248l0 0c43,1612 899,1466 994,1 44,-666 -191,-1282 -459,-1311 -127,-13 -265,109 -383,422 -111,296 -159,594 -152,888z"/>
  <path class="fil2" d="M74429 7676c1038,268 1616,467 1616,467 0,0 5264,-4815 9657,-3713 47,35 91,76 131,122 -4,1 -3985,551 -5779,1673 -1795,1122 -2087,1703 -1940,2389 147,685 3673,3198 3673,3198 0,0 -4821,-2575 -4946,-2617 0,0 -2245,-883 -2566,-1039 -81,-39 -19,-217 154,-480z"/>
  <path class="fil1" d="M40837 45282c-1957,-1045 -8384,-5967 -8096,-16810 0,-1894 326,-3733 938,-5488 -593,-480 -1185,-989 -1391,-1130 -153,33 -789,-73 -1554,4 561,132 1110,161 1554,-4 476,-104 947,-567 947,-567l1335 1204c-714,10282 2291,14360 5384,18778l883 4013z"/>
  <path class="fil1" d="M74134 48970c-3488,1037 -7301,1610 -11295,1610 -4486,0 -8741,-722 -12565,-2013l-96 -4432c0,0 8639,3240 14482,3158 5841,-83 9347,-1621 9347,-1621l127 3298z"/>
  <path class="fil1" d="M97196 33786c-165,1036 -402,1688 -730,1692 -1892,15 -2773,289 -5119,108 -1489,3223 -3964,6111 -7159,8472 17,-1448 169,-2603 127,-2809 -42,-208 4821,-5547 4821,-5547 0,0 -2129,-4735 -2212,-5109 -84,-373 333,831 2002,2201 1670,1372 2880,1538 2880,1538l5390 -546z"/>
  <path class="fil3" d="M47014 13907c196,-8 391,-58 576,-150 8117,-4052 18416,-2331 18509,-2316 499,90 771,-1033 -381,-1241 -4153,-748 -15488,-191 -19885,3176 288,359 731,551 1181,531z"/>
  <g id="_996686592">
   <path class="fil4" d="M79087 19527c0,1075 876,1945 1956,1945 1078,0 1954,-870 1954,-1945 0,-1075 -876,-1946 -1954,-1946 -1080,0 -1956,871 -1956,1946z"/>
  </g>
  <g id="_996686520">
   <path class="fil5" d="M80768 18659c0,441 358,798 801,798 443,0 802,-357 802,-798 0,-441 -359,-798 -802,-798 -443,0 -801,357 -801,798z"/>
  </g>
  <g id="_996686760">
   <path class="fil6" d="M48782 5347c775,-3644 4372,-5970 8031,-5199 3660,772 6000,4351 5222,7995 -773,3645 -4370,5971 -8031,5199 -3659,-773 -5999,-4352 -5222,-7995z"/>
  </g>
  <g id="_996686928">
   <path class="fil7" d="M49780 5558c775,-3644 4370,-5971 8033,-5200 3660,773 5997,4350 5220,7995 -775,3644 -4370,5970 -8031,5198 -3660,-770 -5998,-4350 -5222,-7993z"/>
  </g>
  <g id="_996687024">
   <path class="fil8" d="M51743 5971c545,-2564 3077,-4203 5652,-3659 2578,545 4222,3064 3675,5628 -544,2564 -3075,4202 -5653,3659 -2573,-544 -4220,-3063 -3674,-5628z"/>
  </g>
  <path class="fil2" d="M66130 12574l-2797 -1423c-4338,-223 -8631,118 -12787,1397l2844 2333 12740 -2307z"/>
  <path class="fil1" d="M97268 19939c-770,179 -1574,3801 -1796,8092 -221,4289 223,7624 993,7447 770,-178 1574,-3801 1796,-8090 221,-4291 -223,-7626 -993,-7449z"/>
  <path class="fil2" d="M68975 11710c1255,-2496 4907,-9509 8014,-8392 1502,540 250,9555 -168,9971 -417,415 -5091,1910 -5091,1910l-2755 -3489z"/>
  <path class="fil1" d="M76989 3318c1502,540 250,9555 -168,9971 -417,415 -5091,1910 -5091,1910l-2745 -3478c140,178 2011,2517 2917,2906 291,-917 952,-2830 1998,-4912 1460,-2907 3089,-6397 3089,-6397z"/>
  <g id="_996688152">
   <g>
    <path class="fil7" d="M23504 48470c3686,5 6670,1358 6670,3027 0,1670 -2984,3024 -6670,3030 -3685,-6 -6669,-1360 -6669,-3030 0,-1669 2984,-3022 6669,-3027z"/>
   </g>
   <path class="fil8" d="M23476 49022c1424,0 3064,219 4370,813 471,213 1464,764 1464,1382 0,618 -993,1169 -1464,1383 -1306,593 -2946,813 -4370,813 -1423,0 -3063,-220 -4369,-813 -470,-214 -1463,-765 -1463,-1383 0,-618 993,-1169 1463,-1382 1306,-594 2946,-813 4369,-813z"/>
   <g>
    <path class="fil6" d="M18050 52922c349,212 757,405 1215,571 375,134 782,252 1216,351 385,87 792,157 1215,211 392,49 798,82 1215,99 195,8 394,11 593,12 211,-1 418,-4 622,-14 417,-16 824,-51 1215,-102 424,-53 830,-126 1217,-213 434,-99 840,-219 1215,-355 459,-168 868,-362 1215,-578 601,-373 1017,-809 1186,-1280 0,407 0,1240 0,1619 -194,443 -608,856 -1186,1216 -349,218 -759,414 -1215,586 -376,140 -783,262 -1215,365 -387,91 -793,167 -1217,222 -391,53 -799,90 -1215,108 -204,9 -412,14 -622,14 -199,0 -397,-5 -593,-13 -416,-18 -823,-53 -1215,-104 -423,-56 -829,-131 -1215,-221 -433,-101 -841,-222 -1216,-362 -457,-168 -865,-363 -1215,-577 -593,-364 -1019,-784 -1215,-1234 0,-379 0,-1212 0,-1619 173,478 599,922 1215,1298z"/>
   </g>
   <path class="fil9" d="M21602 52788c147,-125 289,-251 432,-374 314,146 604,245 866,294 266,48 554,43 855,-13 305,-59 580,-185 822,-373 -201,-140 -398,-275 -590,-408 -271,174 -520,277 -747,304 -321,39 -607,1 -854,-110 216,-186 429,-373 641,-555 208,-180 414,-357 617,-533 291,76 615,134 983,173 279,32 537,17 776,-45 239,-61 435,-160 586,-301 264,-243 296,-504 111,-774 -117,-174 -377,-345 -768,-510 54,-47 110,-95 163,-142 -121,-41 -240,-81 -357,-121 -54,46 -110,93 -164,140 -357,-101 -673,-143 -959,-128 -359,16 -668,106 -937,267 158,85 320,171 486,260 176,-104 351,-168 528,-189 181,-24 375,-11 590,39 -170,144 -342,289 -516,437 -173,149 -352,299 -532,452 -333,-83 -554,-132 -667,-151 -217,-32 -413,-40 -587,-26 -171,12 -337,49 -489,106 -154,56 -291,133 -410,229 -266,214 -386,450 -354,720 31,278 221,532 578,761 -140,122 -282,245 -428,368 108,67 217,134 325,203zm3437 -2973l0 0c218,105 358,226 409,359 55,136 19,262 -109,376 -129,114 -297,185 -506,211 -207,26 -473,-1 -795,-82 171,-148 341,-294 509,-438 165,-143 330,-285 492,-426zm-2984 2109l0 0c-192,-135 -295,-287 -314,-456 -14,-166 60,-317 226,-453 141,-116 296,-185 479,-208 179,-25 444,9 796,104 -192,164 -388,330 -583,498 -200,170 -400,341 -604,515z"/>
  </g>
  <g id="_996688992">
   <g>
    <path class="fil7" d="M22818 46219c3685,5 6669,1358 6669,3029 0,1669 -2984,3023 -6669,3028 -3686,-5 -6670,-1359 -6670,-3028 0,-1671 2984,-3024 6670,-3029z"/>
   </g>
   <path class="fil8" d="M22789 46771c1425,0 3064,220 4370,814 471,212 1464,763 1464,1381 0,619 -993,1171 -1464,1383 -1306,594 -2945,814 -4370,814 -1423,0 -3063,-220 -4369,-814 -470,-212 -1464,-764 -1464,-1383 0,-618 994,-1169 1464,-1381 1306,-594 2946,-814 4369,-814z"/>
   <g>
    <path class="fil6" d="M17362 50671c350,214 758,405 1217,571 374,136 781,254 1215,351 385,87 792,158 1215,212 393,48 798,81 1215,99 195,7 394,12 594,12 210,0 417,-5 621,-13 418,-18 824,-52 1216,-102 423,-54 829,-127 1216,-215 434,-98 840,-218 1215,-355 459,-168 868,-362 1215,-578 601,-372 1017,-807 1186,-1280 0,408 0,1240 0,1621 -194,442 -608,855 -1186,1215 -348,217 -759,414 -1215,585 -376,141 -782,264 -1215,365 -387,91 -793,167 -1216,222 -392,54 -800,90 -1216,109 -204,10 -412,13 -621,13 -200,0 -398,-3 -594,-13 -416,-16 -822,-53 -1215,-104 -423,-55 -829,-130 -1215,-220 -434,-101 -841,-223 -1215,-361 -458,-169 -866,-363 -1217,-578 -592,-365 -1017,-784 -1214,-1233 0,-381 0,-1213 0,-1621 173,480 600,922 1214,1298z"/>
   </g>
   <path class="fil9" d="M20916 50537c146,-125 288,-249 431,-373 315,146 604,244 867,293 266,50 553,45 854,-13 305,-59 581,-184 822,-372 -201,-140 -397,-276 -590,-408 -271,174 -520,276 -747,305 -320,39 -608,0 -854,-111 217,-187 429,-373 641,-555 208,-181 414,-358 617,-534 291,77 615,136 984,175 279,31 536,15 775,-46 239,-62 435,-161 586,-302 264,-243 296,-503 111,-774 -117,-174 -377,-344 -768,-509 54,-46 110,-95 163,-142 -120,-42 -240,-82 -357,-122 -54,47 -110,93 -164,141 -357,-102 -673,-143 -959,-129 -359,16 -668,107 -937,267 158,85 320,173 486,260 175,-104 351,-167 528,-189 181,-24 375,-10 589,39 -169,144 -342,291 -514,438 -174,148 -353,300 -532,452 -334,-84 -555,-132 -668,-151 -217,-31 -413,-40 -587,-26 -171,12 -336,48 -489,105 -154,57 -291,133 -410,230 -266,213 -385,450 -354,719 31,279 222,532 579,761 -141,122 -283,245 -428,368 107,67 216,135 325,203zm3436 -2973l0 0c219,106 358,226 409,360 56,136 18,262 -109,376 -129,113 -296,184 -506,210 -207,26 -473,-1 -795,-80 171,-149 341,-296 509,-440 166,-143 330,-285 492,-426zm-2985 2110l0 0c-191,-136 -294,-288 -313,-457 -14,-164 60,-316 226,-453 142,-116 296,-184 480,-208 178,-25 443,10 795,104 -191,165 -388,330 -584,498 -198,170 -399,341 -604,516z"/>
  </g>
  <g id="_996689328">
   <g>
    <path class="fil7" d="M23551 43901c3685,5 6669,1358 6669,3027 0,1671 -2984,3024 -6669,3030 -3686,-6 -6671,-1359 -6671,-3030 0,-1669 2985,-3022 6671,-3027z"/>
   </g>
   <path class="fil8" d="M23522 44453c1423,0 3064,219 4369,813 471,213 1465,764 1465,1382 0,619 -994,1169 -1465,1383 -1305,594 -2946,814 -4369,814 -1424,0 -3064,-220 -4370,-814 -469,-214 -1463,-764 -1463,-1383 0,-618 994,-1169 1463,-1382 1306,-594 2946,-813 4370,-813z"/>
   <g>
    <path class="fil6" d="M18095 48353c349,213 758,405 1217,571 374,135 781,253 1214,350 386,88 793,158 1216,212 391,49 798,82 1215,100 195,7 394,10 594,12 209,-2 417,-5 621,-15 418,-16 823,-50 1215,-101 424,-53 830,-127 1216,-214 433,-98 841,-219 1215,-355 460,-168 869,-362 1215,-578 600,-372 1017,-808 1187,-1280 0,408 0,1240 0,1619 -194,444 -608,856 -1187,1217 -349,217 -758,413 -1215,585 -375,141 -783,262 -1215,365 -387,91 -792,167 -1216,222 -392,54 -799,90 -1215,108 -205,9 -412,14 -621,14 -200,0 -398,-5 -594,-13 -417,-18 -824,-53 -1215,-104 -423,-55 -829,-130 -1216,-221 -433,-100 -840,-222 -1214,-362 -458,-168 -867,-363 -1217,-577 -593,-364 -1018,-783 -1215,-1234 0,-379 0,-1211 0,-1619 174,479 601,922 1215,1298z"/>
   </g>
   <path class="fil9" d="M21649 48219c145,-125 288,-250 430,-373 315,145 604,244 867,293 265,50 554,44 855,-13 305,-59 581,-185 822,-372 -201,-140 -399,-276 -590,-408 -271,173 -520,276 -747,304 -322,39 -608,1 -854,-110 217,-187 429,-373 641,-556 208,-180 414,-357 617,-533 290,77 615,136 983,174 278,32 537,16 776,-45 239,-62 434,-161 585,-302 264,-243 297,-503 112,-774 -118,-174 -378,-345 -768,-509 54,-48 109,-96 163,-142 -120,-42 -240,-82 -358,-122 -54,46 -109,93 -164,141 -356,-102 -672,-143 -959,-129 -358,16 -668,106 -936,267 158,85 320,171 486,260 175,-104 351,-168 527,-189 181,-24 375,-11 590,39 -169,144 -342,291 -515,437 -174,149 -352,299 -531,452 -334,-83 -555,-131 -670,-150 -216,-32 -411,-41 -585,-26 -172,11 -337,48 -490,105 -153,57 -290,133 -409,229 -266,214 -387,451 -355,720 32,278 222,532 579,761 -140,122 -282,245 -428,368 108,67 217,135 326,203zm3436 -2973l0 0c219,106 357,226 409,360 54,136 18,261 -110,376 -128,113 -296,184 -505,210 -208,26 -473,-1 -795,-82 171,-147 341,-294 508,-438 165,-143 331,-285 493,-426zm-2985 2109l0 0c-193,-135 -294,-287 -314,-456 -15,-166 61,-317 227,-453 141,-116 296,-184 478,-208 180,-25 444,10 797,104 -193,164 -388,330 -584,498 -198,170 -401,341 -604,515z"/>
  </g>
  <g id="_996690936">
   <g>
    <path class="fil7" d="M23396 41140c3685,3 6669,1358 6669,3027 0,1670 -2984,3024 -6669,3029 -3686,-5 -6670,-1359 -6670,-3029 0,-1669 2984,-3024 6670,-3027z"/>
   </g>
   <path class="fil8" d="M23367 41691c1425,0 3064,220 4370,813 471,214 1464,765 1464,1383 0,618 -993,1169 -1464,1383 -1306,593 -2945,812 -4370,812 -1424,0 -3062,-219 -4369,-812 -470,-214 -1464,-765 -1464,-1383 0,-618 994,-1169 1464,-1383 1307,-593 2945,-813 4369,-813z"/>
   <g>
    <path class="fil6" d="M17940 45592c350,212 758,404 1217,570 374,135 781,253 1214,350 386,89 793,159 1216,212 391,50 798,83 1215,99 195,7 394,12 594,13 210,-1 417,-6 621,-14 418,-16 823,-52 1216,-102 423,-53 829,-126 1216,-214 434,-99 840,-218 1215,-355 459,-167 868,-362 1215,-577 601,-373 1017,-809 1186,-1282 0,409 0,1240 0,1621 -194,442 -608,856 -1186,1216 -348,217 -759,414 -1215,586 -376,139 -782,262 -1215,365 -387,91 -793,165 -1216,222 -393,52 -799,89 -1216,108 -204,9 -412,14 -621,14 -200,0 -398,-5 -594,-13 -416,-18 -824,-53 -1215,-105 -423,-55 -829,-130 -1216,-220 -433,-101 -840,-223 -1214,-362 -458,-169 -866,-363 -1217,-578 -593,-363 -1017,-784 -1214,-1233 0,-381 0,-1212 0,-1621 173,480 600,924 1214,1300z"/>
   </g>
   <path class="fil9" d="M21494 45458c146,-127 288,-251 431,-374 315,146 604,244 867,292 266,50 553,45 854,-13 305,-59 581,-183 822,-372 -201,-139 -399,-274 -590,-408 -271,175 -520,277 -747,305 -320,39 -608,1 -854,-110 217,-187 430,-373 641,-555 208,-180 414,-358 617,-533 291,76 615,134 984,173 279,31 536,17 775,-45 239,-61 435,-162 585,-302 265,-243 297,-503 113,-774 -119,-174 -378,-344 -769,-509 55,-47 110,-96 163,-143 -120,-40 -240,-80 -358,-120 -53,46 -109,93 -163,139 -357,-102 -673,-142 -959,-129 -359,18 -668,108 -937,267 158,86 320,173 486,260 175,-102 351,-166 528,-187 180,-24 374,-11 589,39 -169,143 -342,289 -514,437 -174,149 -353,299 -532,451 -334,-82 -555,-131 -668,-150 -217,-32 -413,-40 -586,-26 -172,12 -337,49 -490,104 -154,58 -291,134 -410,231 -266,214 -385,450 -353,720 30,278 221,532 578,761 -141,122 -283,244 -428,368 107,66 216,134 325,203zm3436 -2973l0 0c219,105 358,226 409,359 56,136 18,262 -109,376 -129,114 -296,183 -506,211 -207,26 -473,-1 -795,-82 171,-149 341,-294 509,-440 166,-141 330,-283 492,-424zm-2985 2109l0 0c-191,-136 -294,-287 -313,-456 -14,-166 60,-317 226,-454 142,-115 296,-184 480,-208 178,-24 443,10 795,105 -191,164 -387,330 -584,497 -198,170 -400,341 -604,516z"/>
  </g>
  <g id="_996683352">
   <g>
    <path class="fil7" d="M23520 38483c3685,3 6669,1358 6669,3027 0,1670 -2984,3024 -6669,3028 -3686,-4 -6669,-1358 -6669,-3028 0,-1669 2983,-3024 6669,-3027z"/>
   </g>
   <path class="fil8" d="M23491 39033c1425,0 3064,220 4371,814 470,214 1463,764 1463,1383 0,618 -993,1169 -1463,1383 -1307,593 -2946,812 -4371,812 -1423,0 -3062,-219 -4369,-812 -470,-214 -1464,-765 -1464,-1383 0,-619 994,-1169 1464,-1383 1307,-594 2946,-814 4369,-814z"/>
   <g>
    <path class="fil6" d="M18064 42934c350,213 758,404 1217,571 375,135 781,253 1214,350 386,89 793,158 1216,212 393,49 798,82 1215,99 195,8 394,12 594,13 210,-1 417,-5 622,-14 417,-17 823,-52 1215,-102 423,-53 830,-126 1216,-214 434,-99 841,-219 1215,-356 459,-166 868,-360 1215,-577 601,-372 1017,-808 1186,-1281 0,409 0,1240 0,1621 -194,442 -608,856 -1186,1216 -348,216 -758,414 -1215,585 -376,140 -782,263 -1215,365 -386,92 -793,166 -1216,223 -392,52 -799,88 -1215,107 -205,10 -413,14 -622,14 -200,0 -397,-4 -594,-13 -416,-17 -822,-53 -1215,-105 -423,-54 -828,-130 -1216,-220 -433,-100 -839,-222 -1214,-361 -458,-168 -865,-363 -1217,-577 -593,-364 -1017,-785 -1213,-1234 0,-381 0,-1212 0,-1621 172,480 599,923 1213,1299z"/>
   </g>
   <path class="fil9" d="M21618 42801c146,-126 288,-251 431,-374 315,145 604,245 867,292 266,50 553,45 854,-13 305,-59 581,-183 822,-372 -201,-140 -398,-275 -590,-408 -271,175 -520,278 -747,305 -320,39 -608,1 -853,-110 216,-187 429,-374 640,-556 208,-179 414,-358 617,-533 291,77 615,135 984,174 279,31 536,17 775,-45 239,-61 435,-162 585,-303 265,-242 297,-502 113,-773 -117,-175 -377,-345 -769,-509 55,-47 110,-96 163,-142 -120,-41 -240,-81 -357,-122 -54,46 -110,94 -164,140 -357,-102 -672,-142 -959,-129 -359,18 -667,108 -937,267 158,85 320,173 486,260 175,-103 351,-166 528,-188 181,-23 375,-10 589,39 -169,143 -342,290 -514,438 -174,149 -353,299 -532,451 -334,-83 -555,-131 -668,-150 -216,-32 -413,-40 -586,-26 -172,12 -337,48 -490,104 -153,58 -291,135 -410,231 -266,214 -385,450 -353,719 30,278 221,532 578,762 -141,121 -283,244 -428,367 107,68 216,135 325,204zm3436 -2973l0 0c219,105 358,225 409,359 56,136 18,261 -109,376 -128,113 -296,183 -506,210 -206,26 -472,-1 -795,-81 171,-148 342,-295 509,-440 166,-142 330,-284 492,-424zm-2985 2109l0 0c-191,-136 -294,-288 -313,-457 -14,-165 60,-317 226,-454 142,-114 297,-183 480,-208 178,-23 443,11 795,106 -191,164 -387,329 -584,497 -198,169 -400,342 -604,516z"/>
  </g>
  <g id="_961553544">
   <g>
    <path class="fil7" d="M24261 36396c3686,4 6669,1358 6669,3027 0,1671 -2983,3024 -6669,3029 -3687,-5 -6671,-1358 -6671,-3029 0,-1669 2984,-3023 6671,-3027z"/>
   </g>
   <path class="fil8" d="M24233 36947c1423,0 3062,220 4369,813 470,214 1464,765 1464,1383 0,619 -994,1169 -1464,1383 -1307,594 -2946,812 -4369,812 -1425,0 -3064,-218 -4371,-812 -470,-214 -1463,-764 -1463,-1383 0,-618 993,-1169 1463,-1383 1307,-593 2946,-813 4371,-813z"/>
   <g>
    <path class="fil6" d="M18806 40848c348,213 757,404 1215,571 375,135 781,253 1215,350 387,88 792,158 1215,211 393,50 799,83 1217,100 195,8 393,11 593,13 209,-2 417,-5 622,-15 417,-16 822,-52 1215,-101 423,-53 830,-127 1215,-214 434,-100 841,-219 1215,-356 460,-167 868,-361 1215,-577 601,-372 1017,-808 1187,-1281 0,409 0,1241 0,1620 -194,442 -607,856 -1187,1217 -348,216 -757,413 -1215,585 -374,139 -782,262 -1215,365 -386,91 -792,166 -1215,222 -393,52 -799,89 -1215,108 -206,9 -414,14 -622,14 -200,0 -397,-5 -593,-13 -418,-18 -824,-53 -1217,-105 -422,-54 -828,-130 -1215,-220 -433,-100 -840,-222 -1215,-362 -458,-168 -865,-363 -1215,-577 -594,-364 -1018,-783 -1216,-1234 0,-379 0,-1211 0,-1620 174,480 601,923 1216,1299z"/>
   </g>
   <path class="fil9" d="M22358 40714c146,-125 289,-250 431,-373 315,145 604,244 867,292 266,49 554,45 854,-13 307,-59 581,-184 823,-373 -201,-139 -398,-274 -590,-406 -272,173 -520,276 -747,304 -321,39 -607,1 -854,-110 216,-187 430,-374 641,-556 208,-180 414,-358 617,-533 290,77 614,135 984,174 278,30 537,16 775,-45 239,-62 434,-162 585,-303 264,-242 297,-502 113,-773 -118,-174 -378,-345 -769,-509 55,-48 109,-96 162,-142 -119,-42 -238,-82 -357,-122 -54,46 -108,93 -164,141 -357,-102 -671,-143 -959,-130 -358,17 -667,107 -937,267 160,85 322,172 487,260 175,-103 351,-167 527,-188 181,-24 375,-11 590,39 -169,143 -342,289 -514,437 -175,149 -352,299 -532,452 -333,-83 -554,-131 -669,-150 -216,-32 -413,-41 -586,-26 -172,11 -336,48 -490,104 -152,58 -291,134 -409,230 -267,214 -386,451 -354,720 30,278 222,532 579,761 -141,122 -283,245 -428,368 107,66 216,135 324,203zm3437 -2973l0 0c219,106 357,226 409,360 55,136 18,261 -110,376 -127,113 -296,183 -506,210 -206,26 -471,-1 -794,-82 171,-147 342,-294 508,-439 166,-142 331,-284 493,-425zm-2984 2109l0 0c-193,-136 -295,-287 -315,-456 -14,-166 62,-317 227,-454 142,-115 297,-183 479,-208 178,-24 443,11 795,105 -191,164 -386,330 -582,498 -199,169 -401,341 -604,515z"/>
  </g>
  <g id="_961553904">
   <g>
    <path class="fil7" d="M23441 34891c3685,5 6669,1359 6669,3028 0,1670 -2984,3025 -6669,3029 -3686,-4 -6670,-1359 -6670,-3029 0,-1669 2984,-3023 6670,-3028z"/>
   </g>
   <path class="fil8" d="M23412 35443c1425,0 3064,220 4370,814 470,212 1464,763 1464,1382 0,618 -994,1170 -1464,1383 -1306,593 -2945,813 -4370,813 -1424,0 -3063,-220 -4369,-813 -470,-213 -1464,-765 -1464,-1383 0,-619 994,-1170 1464,-1382 1306,-594 2945,-814 4369,-814z"/>
   <g>
    <path class="fil6" d="M17985 39343c349,214 758,406 1217,571 374,135 781,253 1214,351 386,88 793,158 1216,212 391,48 798,81 1215,99 195,7 394,12 594,12 210,0 417,-5 621,-13 418,-18 823,-52 1216,-102 423,-54 829,-128 1216,-215 434,-98 840,-218 1215,-355 459,-167 868,-361 1215,-578 601,-372 1016,-808 1186,-1280 0,408 0,1240 0,1621 -194,442 -608,854 -1186,1215 -350,217 -759,414 -1215,585 -376,141 -782,262 -1215,365 -387,91 -793,167 -1216,223 -393,53 -800,89 -1216,107 -204,10 -412,14 -621,14 -200,0 -398,-4 -594,-13 -417,-16 -824,-53 -1215,-104 -423,-55 -829,-130 -1216,-221 -433,-100 -840,-222 -1214,-361 -458,-168 -866,-363 -1217,-577 -593,-364 -1017,-784 -1214,-1233 0,-381 0,-1213 0,-1621 173,479 600,922 1214,1298z"/>
   </g>
   <path class="fil9" d="M21539 39209c145,-125 288,-250 431,-373 315,145 604,245 867,293 264,50 553,44 854,-13 305,-59 581,-184 822,-372 -201,-140 -399,-276 -590,-408 -271,174 -520,277 -747,305 -321,38 -608,0 -854,-111 217,-187 429,-373 641,-555 208,-180 414,-358 617,-534 291,77 615,136 984,175 279,31 536,15 775,-46 239,-62 434,-161 585,-301 265,-244 297,-504 112,-775 -118,-174 -377,-344 -768,-509 54,-47 110,-96 163,-142 -120,-41 -240,-82 -358,-122 -53,47 -109,94 -164,141 -356,-102 -672,-143 -959,-129 -358,17 -667,108 -936,267 158,85 320,172 486,260 175,-104 351,-168 527,-189 181,-24 375,-9 590,39 -169,144 -342,291 -514,439 -174,147 -353,298 -532,451 -334,-84 -555,-132 -669,-151 -217,-32 -412,-40 -586,-26 -171,12 -336,48 -490,105 -153,57 -290,134 -409,231 -266,212 -385,449 -354,718 31,278 221,532 578,762 -140,121 -282,244 -427,367 107,68 216,135 325,203zm3436 -2972l0 0c219,105 358,225 409,359 55,136 18,262 -109,376 -129,113 -297,184 -506,210 -207,26 -473,-1 -795,-80 171,-149 341,-296 508,-440 167,-143 331,-285 493,-425zm-2985 2108l0 0c-193,-134 -294,-287 -313,-456 -14,-164 60,-317 226,-453 142,-115 296,-184 480,-208 178,-24 443,10 795,104 -191,165 -388,330 -584,498 -198,170 -401,342 -604,515z"/>
  </g>
  <g id="_961555272">
   <path class="fil7" d="M24080 33284c3686,3 6671,1358 6671,3027 0,1670 -2985,3024 -6671,3029 -3686,-5 -6669,-1359 -6669,-3029 0,-1669 2983,-3024 6669,-3027z"/>
  </g>
  <path class="fil8" d="M24052 33835c1424,0 3064,219 4370,813 470,214 1463,765 1463,1383 0,618 -993,1169 -1463,1383 -1306,592 -2946,812 -4370,812 -1424,0 -3063,-220 -4369,-812 -471,-214 -1464,-765 -1464,-1383 0,-618 993,-1169 1464,-1383 1306,-594 2945,-813 4369,-813z"/>
  <g id="_961556016">
   <path class="fil6" d="M18626 37735c349,213 758,405 1215,571 375,135 782,253 1215,350 387,88 792,159 1216,212 392,50 797,83 1215,99 196,7 393,12 593,13 210,-1 417,-6 623,-14 416,-18 823,-52 1214,-102 424,-53 831,-126 1216,-214 434,-99 841,-218 1216,-355 458,-167 867,-362 1215,-577 600,-373 1016,-809 1187,-1282 0,409 0,1240 0,1621 -194,442 -608,856 -1187,1216 -349,217 -759,413 -1215,584 -376,141 -783,264 -1216,366 -386,92 -792,166 -1216,223 -391,52 -798,89 -1214,108 -206,9 -414,14 -623,14 -200,0 -397,-5 -593,-13 -416,-18 -823,-54 -1215,-106 -422,-55 -829,-130 -1216,-219 -432,-101 -840,-223 -1215,-362 -457,-169 -865,-363 -1215,-578 -593,-363 -1019,-784 -1215,-1233 0,-381 0,-1212 0,-1621 172,480 599,924 1215,1299z"/>
  </g>
  <g id="_961555656">
   <g>
    <path class="fil7" d="M9500 48781c3686,3 6670,1358 6670,3027 0,1670 -2984,3024 -6670,3029 -3685,-5 -6669,-1359 -6669,-3029 0,-1669 2984,-3024 6669,-3027z"/>
   </g>
   <path class="fil8" d="M9472 49332c1424,0 3064,219 4370,813 471,214 1464,765 1464,1383 0,618 -993,1169 -1464,1383 -1306,593 -2946,812 -4370,812 -1423,0 -3063,-219 -4369,-812 -470,-214 -1465,-765 -1465,-1383 0,-618 995,-1169 1465,-1383 1306,-594 2946,-813 4369,-813z"/>
   <g>
    <path class="fil6" d="M4045 53232c349,213 758,405 1216,571 375,135 782,253 1214,350 387,89 794,159 1217,212 391,50 798,83 1215,99 195,8 394,12 593,13 211,-1 418,-5 622,-14 417,-17 824,-52 1215,-102 423,-53 830,-126 1217,-214 433,-99 840,-218 1215,-355 458,-167 867,-362 1215,-577 601,-373 1017,-809 1186,-1282 0,409 0,1240 0,1621 -194,442 -608,856 -1186,1216 -350,217 -759,414 -1215,585 -376,140 -783,263 -1215,366 -387,91 -794,165 -1217,222 -391,52 -799,89 -1215,108 -204,9 -412,14 -622,14 -199,0 -397,-5 -593,-13 -417,-18 -824,-53 -1215,-105 -423,-55 -829,-131 -1217,-220 -432,-101 -839,-223 -1214,-362 -457,-169 -865,-363 -1216,-577 -593,-364 -1018,-785 -1214,-1234 0,-381 0,-1212 0,-1621 173,480 599,924 1214,1299z"/>
   </g>
   <path class="fil9" d="M7598 53099c147,-127 289,-251 432,-374 314,146 604,245 866,292 266,50 554,45 855,-13 305,-59 580,-183 821,-372 -200,-140 -398,-274 -589,-408 -271,175 -520,277 -747,305 -321,39 -608,1 -854,-110 216,-187 429,-373 641,-555 208,-180 414,-359 617,-533 291,76 615,134 983,173 279,31 537,17 776,-45 239,-61 434,-162 585,-302 265,-243 297,-503 112,-773 -118,-175 -377,-346 -768,-510 54,-47 110,-96 163,-142 -121,-41 -240,-81 -358,-121 -53,46 -109,93 -163,139 -357,-102 -673,-142 -959,-129 -359,18 -668,108 -937,267 158,85 320,173 485,260 175,-102 352,-166 529,-188 181,-23 373,-10 589,39 -170,144 -342,290 -515,438 -173,149 -352,299 -532,451 -333,-82 -554,-131 -667,-150 -217,-32 -413,-40 -587,-26 -171,12 -337,49 -490,104 -153,58 -290,135 -409,231 -266,214 -386,450 -354,720 31,277 221,532 578,761 -140,122 -282,245 -428,368 108,66 217,134 325,203zm3437 -2973l0 0c218,105 358,226 409,359 55,136 17,262 -109,376 -129,114 -297,183 -506,211 -207,26 -473,-2 -796,-82 172,-148 342,-294 510,-440 165,-142 330,-283 492,-424zm-2985 2109l0 0c-193,-136 -294,-287 -313,-456 -14,-166 60,-317 225,-454 142,-115 297,-184 480,-208 179,-24 444,10 796,105 -192,164 -388,330 -584,497 -199,169 -401,341 -604,516z"/>
  </g>
  <g id="_961556352">
   <g>
    <path class="fil7" d="M8814 46530c3685,5 6669,1358 6669,3027 0,1671 -2984,3024 -6669,3030 -3686,-6 -6670,-1359 -6670,-3030 0,-1669 2984,-3022 6670,-3027z"/>
   </g>
   <path class="fil8" d="M8785 47082c1425,0 3064,220 4370,813 471,213 1464,764 1464,1382 0,618 -993,1169 -1464,1383 -1306,594 -2945,814 -4370,814 -1424,0 -3064,-220 -4369,-814 -470,-214 -1464,-765 -1464,-1383 0,-618 994,-1169 1464,-1382 1305,-593 2945,-813 4369,-813z"/>
   <g>
    <path class="fil6" d="M3358 50982c349,213 758,405 1217,571 374,134 781,253 1214,351 386,87 793,157 1216,211 391,49 798,82 1215,100 195,7 394,10 594,12 210,-2 417,-5 621,-15 418,-16 823,-50 1216,-100 423,-55 829,-128 1216,-215 434,-98 840,-219 1215,-355 459,-168 868,-362 1215,-578 601,-372 1017,-808 1186,-1280 0,408 0,1240 0,1619 -194,444 -608,856 -1186,1217 -350,217 -759,413 -1215,585 -376,140 -782,262 -1215,365 -387,91 -793,167 -1216,222 -393,53 -800,90 -1216,108 -204,9 -412,14 -621,14 -200,0 -398,-5 -594,-13 -417,-18 -824,-53 -1215,-104 -423,-56 -829,-130 -1216,-221 -433,-101 -840,-222 -1214,-362 -458,-168 -866,-363 -1217,-577 -593,-364 -1017,-783 -1214,-1234 0,-379 0,-1211 0,-1619 173,479 600,922 1214,1298z"/>
   </g>
   <path class="fil9" d="M6912 50848c146,-125 288,-250 431,-373 314,145 604,244 867,293 264,48 553,44 854,-13 305,-59 581,-185 822,-373 -201,-139 -399,-275 -590,-407 -271,173 -520,276 -747,303 -321,39 -608,2 -854,-109 217,-187 429,-373 641,-556 208,-180 414,-357 617,-533 291,77 615,136 984,174 279,32 536,16 775,-45 239,-62 434,-161 585,-302 265,-243 297,-503 112,-774 -118,-174 -377,-345 -768,-509 54,-48 110,-96 163,-142 -120,-42 -240,-82 -358,-122 -53,46 -109,93 -163,141 -357,-102 -673,-143 -960,-129 -358,16 -667,106 -936,267 158,85 320,171 486,260 175,-104 351,-168 527,-189 181,-24 375,-11 590,39 -169,144 -342,289 -514,437 -174,149 -353,299 -532,452 -334,-83 -555,-131 -669,-150 -217,-32 -412,-41 -586,-26 -171,11 -336,48 -490,105 -153,57 -290,133 -409,229 -266,214 -386,451 -354,720 31,278 221,532 578,761 -140,122 -282,245 -427,368 107,67 216,135 325,203zm3436 -2973l0 0c219,105 358,226 409,360 55,136 18,261 -109,376 -129,113 -297,184 -506,210 -207,26 -473,-1 -795,-82 171,-147 341,-294 509,-438 166,-143 330,-285 492,-426zm-2985 2109l0 0c-193,-135 -294,-287 -313,-456 -15,-166 60,-317 226,-453 142,-116 296,-184 480,-208 178,-25 443,10 795,104 -191,164 -388,330 -584,498 -198,170 -401,341 -604,515z"/>
  </g>
  <g id="_961557192">
   <g>
    <path class="fil7" d="M9546 44212c3686,4 6670,1358 6670,3027 0,1671 -2984,3024 -6670,3029 -3685,-5 -6670,-1358 -6670,-3029 0,-1669 2985,-3023 6670,-3027z"/>
   </g>
   <path class="fil8" d="M9518 44763c1423,0 3063,220 4369,813 471,214 1465,765 1465,1383 0,618 -994,1169 -1465,1383 -1306,594 -2946,812 -4369,812 -1424,0 -3064,-218 -4370,-812 -471,-214 -1463,-765 -1463,-1383 0,-618 992,-1169 1463,-1383 1306,-593 2946,-813 4370,-813z"/>
   <g>
    <path class="fil6" d="M4091 48664c349,213 758,404 1215,571 376,134 783,253 1216,350 386,88 792,158 1215,211 392,50 799,83 1216,99 195,9 394,12 593,13 210,-1 418,-4 622,-14 417,-16 823,-52 1215,-101 424,-54 830,-127 1216,-214 433,-100 840,-219 1215,-356 460,-167 867,-361 1215,-577 600,-372 1017,-809 1187,-1281 0,409 0,1240 0,1620 -194,442 -608,856 -1187,1217 -349,216 -758,413 -1215,585 -375,139 -783,262 -1215,365 -387,91 -792,166 -1216,222 -392,52 -799,89 -1215,108 -205,9 -412,14 -622,14 -199,0 -397,-5 -593,-13 -417,-18 -824,-53 -1216,-105 -422,-55 -828,-130 -1215,-220 -433,-101 -840,-222 -1216,-362 -456,-168 -865,-363 -1215,-577 -593,-364 -1018,-785 -1215,-1234 0,-380 0,-1211 0,-1620 174,480 600,923 1215,1299z"/>
   </g>
   <path class="fil9" d="M7644 48530c146,-126 289,-250 431,-373 314,145 604,244 867,292 265,49 554,45 855,-13 305,-60 579,-184 822,-373 -201,-139 -399,-274 -590,-408 -272,175 -520,277 -747,305 -322,39 -608,2 -855,-110 216,-186 430,-373 642,-555 208,-180 414,-358 617,-533 290,77 613,135 983,174 278,30 537,16 776,-45 239,-62 434,-162 585,-303 264,-242 297,-502 112,-773 -118,-175 -378,-345 -768,-510 54,-47 109,-95 163,-141 -121,-42 -240,-82 -358,-122 -54,46 -109,93 -164,139 -357,-101 -672,-142 -959,-129 -358,18 -668,108 -936,268 158,85 320,172 486,260 175,-103 351,-167 527,-188 181,-24 374,-11 590,39 -169,143 -342,289 -515,437 -175,149 -352,299 -532,452 -333,-83 -554,-132 -669,-150 -216,-32 -412,-41 -586,-26 -171,11 -336,48 -489,104 -153,57 -290,134 -409,230 -267,214 -387,450 -355,720 32,278 222,532 579,761 -140,122 -282,245 -428,368 108,67 217,135 325,203zm3437 -2973l0 0c218,105 357,226 409,360 54,136 18,261 -110,375 -128,114 -297,184 -505,211 -208,26 -473,-1 -795,-82 171,-147 341,-294 508,-439 165,-142 331,-284 493,-425zm-2985 2109l0 0c-193,-136 -294,-287 -314,-456 -15,-166 61,-317 227,-454 141,-115 296,-183 478,-208 179,-24 444,10 796,105 -192,164 -387,330 -583,498 -199,169 -401,340 -604,515z"/>
  </g>
  <g id="_961558248">
   <g>
    <path class="fil7" d="M9392 41450c3685,4 6669,1359 6669,3028 0,1669 -2984,3024 -6669,3028 -3686,-4 -6670,-1359 -6670,-3028 0,-1669 2984,-3024 6670,-3028z"/>
   </g>
   <path class="fil8" d="M9363 42002c1425,0 3064,219 4369,813 471,214 1465,765 1465,1382 0,619 -994,1170 -1465,1383 -1305,593 -2944,813 -4369,813 -1424,0 -3064,-220 -4370,-813 -469,-213 -1463,-764 -1463,-1383 0,-617 994,-1168 1463,-1382 1306,-594 2946,-813 4370,-813z"/>
   <g>
    <path class="fil6" d="M3936 45902c349,213 758,405 1217,571 374,135 781,253 1214,350 386,88 793,159 1216,212 391,49 798,81 1215,99 195,7 394,12 594,13 209,-1 417,-6 621,-14 418,-18 823,-52 1216,-102 423,-54 829,-126 1215,-214 434,-99 841,-218 1216,-355 459,-167 868,-362 1214,-579 601,-372 1017,-807 1187,-1280 0,408 0,1240 0,1621 -194,442 -608,856 -1187,1216 -349,217 -758,413 -1214,584 -376,141 -782,264 -1216,365 -386,93 -792,167 -1215,223 -393,53 -800,90 -1216,108 -205,10 -412,15 -621,15 -200,0 -398,-5 -594,-15 -417,-16 -824,-52 -1215,-104 -423,-55 -829,-130 -1216,-219 -433,-101 -840,-224 -1214,-362 -458,-169 -867,-363 -1217,-578 -593,-363 -1017,-784 -1214,-1233 0,-381 0,-1213 0,-1621 173,480 600,924 1214,1299z"/>
   </g>
   <path class="fil9" d="M7490 45768c145,-126 288,-250 431,-373 315,146 604,244 867,292 264,50 553,45 854,-13 305,-59 581,-183 822,-372 -201,-140 -399,-276 -590,-408 -271,175 -520,277 -747,305 -321,39 -608,0 -854,-110 217,-188 429,-373 641,-555 208,-180 414,-359 617,-535 291,78 615,136 984,175 279,31 536,16 775,-45 239,-61 434,-162 585,-302 265,-244 297,-504 112,-775 -118,-173 -377,-344 -768,-509 54,-46 109,-95 163,-142 -120,-40 -240,-81 -358,-122 -53,48 -109,95 -164,141 -356,-102 -672,-142 -959,-129 -358,18 -667,108 -936,267 158,85 320,173 486,260 175,-104 351,-166 527,-188 181,-24 375,-10 590,38 -169,144 -342,291 -514,439 -174,148 -353,299 -532,451 -334,-84 -555,-132 -669,-151 -217,-31 -412,-40 -586,-25 -171,11 -336,48 -490,104 -153,58 -290,134 -409,231 -266,213 -385,450 -354,720 31,277 221,530 578,761 -140,122 -282,243 -427,366 107,68 216,136 325,204zm3436 -2972l0 0c219,105 358,225 409,359 55,135 18,262 -109,376 -129,112 -297,183 -506,211 -207,26 -473,-3 -795,-82 171,-149 341,-294 508,-440 167,-143 331,-283 493,-424zm-2985 2109l0 0c-192,-136 -294,-288 -313,-458 -15,-164 60,-315 226,-452 142,-115 296,-184 478,-209 180,-24 445,10 797,105 -191,164 -388,330 -584,497 -198,170 -400,342 -604,517z"/>
  </g>
  <g id="_961558896">
   <g>
    <path class="fil7" d="M9516 38792c3685,5 6669,1360 6669,3029 0,1669 -2984,3023 -6669,3028 -3686,-5 -6670,-1359 -6670,-3028 0,-1669 2984,-3024 6670,-3029z"/>
   </g>
   <path class="fil8" d="M9487 39344c1425,0 3064,220 4370,814 470,213 1464,764 1464,1381 0,620 -994,1171 -1464,1383 -1306,594 -2945,814 -4370,814 -1424,0 -3064,-220 -4369,-814 -470,-212 -1464,-763 -1464,-1383 0,-617 994,-1168 1464,-1381 1305,-594 2945,-814 4369,-814z"/>
   <g>
    <path class="fil6" d="M4060 43245c349,213 758,404 1217,571 375,135 781,253 1214,350 386,87 793,158 1216,212 391,49 798,82 1215,99 195,7 394,12 594,13 210,-1 417,-6 621,-14 418,-18 823,-52 1216,-102 423,-54 829,-126 1215,-214 435,-99 841,-219 1216,-356 459,-166 868,-361 1215,-578 600,-372 1016,-807 1186,-1280 0,409 0,1240 0,1621 -194,442 -608,855 -1186,1216 -350,216 -759,413 -1215,584 -376,141 -784,264 -1216,365 -386,92 -792,167 -1215,224 -393,52 -799,88 -1216,107 -204,10 -412,14 -621,14 -200,0 -397,-4 -594,-14 -417,-16 -824,-52 -1215,-104 -423,-55 -828,-130 -1216,-220 -433,-100 -839,-223 -1214,-361 -458,-169 -865,-363 -1217,-578 -593,-363 -1017,-784 -1214,-1233 0,-381 0,-1212 0,-1621 173,480 600,923 1214,1299z"/>
   </g>
   <path class="fil9" d="M7614 43110c145,-125 288,-249 431,-372 315,145 604,243 867,292 264,50 553,45 854,-13 305,-59 581,-183 822,-372 -201,-140 -398,-276 -590,-408 -271,175 -520,276 -747,305 -320,39 -608,1 -854,-110 217,-188 430,-374 641,-556 208,-179 414,-358 617,-534 291,78 615,136 984,175 279,31 536,15 775,-45 239,-61 434,-162 585,-303 265,-243 297,-503 113,-774 -119,-174 -378,-344 -769,-509 55,-46 110,-95 163,-142 -120,-40 -240,-81 -358,-122 -53,47 -109,95 -163,141 -357,-102 -673,-142 -960,-129 -358,18 -666,107 -936,267 158,85 320,173 486,260 175,-104 351,-167 527,-188 181,-25 375,-11 590,38 -169,144 -342,291 -514,438 -174,148 -353,300 -532,452 -334,-84 -555,-132 -669,-150 -217,-32 -412,-41 -585,-26 -172,11 -337,47 -491,104 -152,58 -290,134 -409,230 -266,213 -385,451 -353,720 30,278 221,531 578,762 -141,121 -283,243 -428,366 107,67 216,136 325,203zm3436 -2971l0 0c219,105 358,224 409,359 56,135 18,261 -109,376 -129,112 -296,183 -506,210 -206,26 -472,-2 -795,-81 171,-149 341,-295 508,-440 167,-143 331,-284 493,-424zm-2985 2108l0 0c-192,-136 -294,-287 -313,-456 -15,-165 60,-317 226,-454 142,-114 297,-183 480,-208 178,-25 443,11 795,105 -191,164 -387,330 -584,497 -198,170 -400,341 -604,516z"/>
  </g>
  <g id="_961559952">
   <path class="fil7" d="M10257 36706c3686,5 6669,1359 6669,3028 0,1669 -2983,3024 -6669,3029 -3687,-5 -6671,-1360 -6671,-3029 0,-1669 2984,-3023 6671,-3028z"/>
  </g>
  <path class="fil8" d="M10229 37258c1423,0 3062,220 4368,813 471,214 1464,765 1464,1382 0,619 -993,1170 -1464,1383 -1306,593 -2945,813 -4368,813 -1425,0 -3064,-220 -4371,-813 -470,-213 -1463,-764 -1463,-1383 0,-617 993,-1168 1463,-1382 1307,-593 2946,-813 4371,-813z"/>
  <g id="_961559760">
   <path class="fil6" d="M4802 41159c348,213 757,404 1215,571 374,134 781,253 1215,350 386,87 792,158 1215,211 393,50 798,83 1216,99 196,8 394,12 594,13 209,-1 417,-5 622,-14 416,-17 822,-52 1215,-101 423,-55 830,-127 1215,-214 434,-100 840,-219 1215,-356 459,-167 868,-362 1215,-578 601,-373 1017,-808 1187,-1280 0,407 0,1240 0,1620 -194,442 -607,856 -1187,1217 -348,216 -759,412 -1215,584 -375,140 -782,263 -1215,365 -387,92 -792,166 -1215,223 -393,52 -799,89 -1215,108 -206,9 -414,14 -622,14 -200,0 -398,-5 -594,-13 -417,-18 -823,-53 -1216,-105 -422,-56 -829,-130 -1215,-220 -433,-101 -841,-223 -1215,-362 -458,-169 -866,-363 -1215,-578 -594,-363 -1018,-784 -1216,-1233 0,-380 0,-1213 0,-1620 173,480 601,923 1216,1299z"/>
  </g>
  <path class="fil2" d="M45016 15192c-21,-105 -65,-201 -128,-277 -1721,-2106 -7459,2333 -7687,6222 557,162 1200,356 1831,553 326,-1280 1175,-3803 3026,-5083 1228,-850 2240,-1239 2958,-1415z"/>
  <path class="fil1" d="M69416 44380c2531,-1120 3760,-2330 2024,-3076 -1736,-747 -4354,1316 -7959,1638 -3605,323 -6517,-72 -8059,-888 -1543,-817 -2855,-372 -3029,89 -1023,2711 11413,4719 17023,2237z"/>
  <path class="fil10" d="M96733 22736c310,-24 464,-121 496,553 31,673 -465,7310 -714,7045 -248,-264 -217,-6252 0,-6924 218,-674 218,-674 218,-674z"/>
  <path class="fil10" d="M97746 22365c-130,-24 -195,-119 -208,553 -13,674 195,7310 299,7046 104,-264 91,-6252 0,-6925 -91,-674 -91,-674 -91,-674z"/>
 </g>
</svg>
