<?xml version="1.0" encoding="UTF-8"?>
<!DOCTYPE svg PUBLIC "-//W3C//DTD SVG 1.1//EN" "http://www.w3.org/Graphics/SVG/1.1/DTD/svg11.dtd">
<!-- Creator: CorelDRAW X8 -->
<svg xmlns="http://www.w3.org/2000/svg" xml:space="preserve" width="8.4076mm" height="4.7084mm" version="1.1" style="shape-rendering:geometricPrecision; text-rendering:geometricPrecision; image-rendering:optimizeQuality; fill-rule:evenodd; clip-rule:evenodd"
viewBox="0 0 101140 56640"
 xmlns:xlink="http://www.w3.org/1999/xlink">
 <defs>
  <style type="text/css">
   <![CDATA[
    .fil11 {fill:gray}
    .fil8 {fill:#342B28;fill-rule:nonzero}
    .fil4 {fill:#4D4D4D;fill-rule:nonzero}
    .fil7 {fill:#524641;fill-rule:nonzero}
    .fil10 {fill:#CCCCCC;fill-rule:nonzero}
    .fil3 {fill:#D6A889;fill-rule:nonzero}
    .fil6 {fill:#E4B691;fill-rule:nonzero}
    .fil9 {fill:#E6E6E6;fill-rule:nonzero}
    .fil2 {fill:#E8C1A3;fill-rule:nonzero}
    .fil5 {fill:#F0C8A5;fill-rule:nonzero}
    .fil1 {fill:#FFDB71;fill-rule:nonzero}
    .fil0 {fill:#FFFBF9;fill-rule:nonzero}
   ]]>
  </style>
 </defs>
 <g id="Слой_x0020_1">
  <metadata id="CorelCorpID_0Corel-Layer"/>
  <g id="_961561176">
   <polygon class="fil0" points="76483,48336 45280,48336 45280,0 76483,0 "/>
  </g>
  <g id="_961561344">
   <polygon class="fil1" points="42256,56640 0,56640 0,12769 42256,12769 "/>
   <g>
    <path class="fil2" d="M21104 46233c38,2 77,6 116,6l0 -1568 0 -3419 0 -1024c-6,0 -11,1 -15,1l0 0c-750,0 -1891,-358 -2962,-821l0 2507 -1251 328c818,3554 3519,3947 4112,3990z"/>
    <path class="fil3" d="M21236 40229c-5,0 -10,-1 -16,-1l0 1024 0 3419 0 1568c40,0 78,-4 117,-6 593,-43 3294,-435 4112,-3990 -435,-119 -856,-230 -1251,-328l0 -2506c-1070,462 -2211,820 -2961,820l-1 0 0 0 0 0z"/>
    <path class="fil3" d="M25450 42244c0,0 0,0 -1,-1 0,0 0,5 0,7 0,-2 1,-4 1,-6z"/>
    <path class="fil4" d="M21220 46239c0,0 44,-1 117,-6 -39,2 -77,6 -117,6z"/>
    <path class="fil4" d="M21220 46239c-39,0 -78,-4 -116,-6 73,5 116,6 116,6z"/>
    <path class="fil4" d="M33857 46493c-28,-55 -60,-110 -95,-163 -10,-18 -24,-36 -36,-54 -24,-37 -48,-73 -74,-109 -16,-20 -32,-41 -48,-61 -26,-34 -52,-66 -80,-99 -18,-21 -36,-43 -54,-65 -29,-31 -58,-63 -88,-95 -19,-20 -38,-42 -59,-62 -32,-33 -67,-66 -102,-100 -19,-18 -37,-36 -57,-54 -49,-46 -99,-90 -152,-136 -17,-13 -33,-28 -50,-41 -49,-41 -98,-82 -150,-122 -25,-19 -52,-39 -77,-59 -38,-28 -78,-58 -119,-89 -29,-20 -59,-42 -89,-62 -39,-28 -78,-55 -118,-82 -31,-22 -64,-43 -96,-65 -40,-26 -81,-53 -123,-79 -32,-21 -65,-42 -99,-63 -44,-27 -90,-55 -136,-82 -31,-19 -62,-38 -95,-57 -63,-38 -129,-75 -196,-112 -32,-18 -66,-36 -98,-56 -62,-33 -123,-66 -186,-99 -33,-17 -68,-35 -103,-53 -51,-27 -101,-53 -153,-80 -37,-18 -76,-37 -114,-56 -51,-24 -101,-50 -153,-74 -37,-19 -76,-37 -114,-55 -54,-25 -110,-52 -165,-77 -35,-16 -70,-32 -106,-49 -64,-28 -127,-57 -192,-86 -28,-12 -57,-25 -86,-37 -190,-83 -382,-164 -578,-243 -23,-8 -45,-17 -68,-26 -77,-32 -155,-62 -232,-93 -26,-10 -52,-19 -77,-29 -77,-30 -156,-60 -234,-90 -22,-7 -44,-16 -67,-24 -87,-33 -175,-65 -264,-98 -12,-4 -23,-8 -35,-13 -1066,-385 -2170,-720 -3189,-1001l0 1c0,2 -1,4 -1,6 -5,138 -223,6060 -4229,10066 -4053,-4053 -4228,-10073 -4228,-10073 -1121,308 -2342,682 -3506,1118 -10,3 -22,8 -33,12 -92,35 -181,68 -271,103 -16,6 -30,12 -46,18 -91,35 -183,71 -273,109 -9,3 -20,7 -29,10 -202,82 -400,165 -596,251 -15,6 -30,13 -46,20 -78,34 -155,69 -232,104 -27,12 -54,24 -81,36 -65,30 -130,60 -193,91 -30,14 -61,29 -91,43 -61,29 -120,58 -179,87 -31,16 -61,30 -91,46 -63,31 -123,62 -184,95 -26,12 -50,25 -75,37 -84,46 -168,90 -249,136 0,0 0,0 -1,0 -82,46 -163,91 -242,138 -23,14 -46,28 -69,41 -54,34 -109,66 -162,99 -28,17 -54,35 -82,52 -48,30 -95,61 -140,91 -28,18 -56,36 -83,55 -45,30 -90,62 -133,93 -26,18 -52,36 -77,54 -46,34 -91,67 -136,101 -20,16 -41,31 -60,47 -127,99 -248,200 -358,303 -16,15 -32,29 -46,45 -39,36 -77,73 -113,109 -18,19 -35,37 -53,57 -33,33 -64,67 -94,102 -17,19 -34,38 -50,59 -29,34 -57,68 -83,103 -15,20 -31,39 -45,58 -28,37 -53,75 -78,112 -11,17 -23,34 -34,50 -35,55 -66,110 -96,165 -1257,4468 -2309,10147 -2309,10147l14947 0 14947 0c0,0 -710,-6088 -2310,-10147z"/>
    <g>
     <path class="fil5" d="M21205 40229c4,0 9,-1 15,-1l0 -5523 0 -10501c-2003,-99 -1979,-931 -3908,-737 -2274,230 -2648,5931 -2648,8858 -316,-169 -316,-169 -316,-169 244,-3971 -727,-4676 -888,-4765 -1659,-724 -1818,1013 -1610,2527 186,1348 1052,2418 2095,2730 362,2314 972,4629 1779,5327 465,414 1457,975 2519,1433 1071,463 2212,821 2962,821l0 0zm-1118 -12441l0 0 0 785 -3360 -785 3360 0z"/>
    </g>
    <g>
     <path class="fil6" d="M28093 32156c0,0 0,0 -317,169 0,-2927 -374,-8628 -2647,-8858 -1930,-194 -1906,638 -3909,737l0 10501 0 5523c6,0 11,1 16,1l0 0 0 0c749,0 1891,-358 2962,-821 1062,-458 2053,-1019 2519,-1433 807,-698 1417,-3013 1779,-5327 1043,-312 1909,-1382 2094,-2730 208,-1514 49,-3251 -1609,-2527 -162,89 -1131,794 -888,4765zm-5511 -4368l0 0 3359 0 -3359 785 0 -785z"/>
    </g>
    <path class="fil7" d="M14348 32156c0,0 0,0 316,169 0,-2927 374,-8628 2648,-8858 1929,-194 1905,638 3908,737l0 -5551 0 -936c-2141,0 -5111,888 -7127,5404 -747,1674 -656,4260 -656,4260 0,0 9,2 23,10 161,89 1132,794 888,4765z"/>
    <path class="fil8" d="M21220 24204c2003,-99 1979,-931 3909,-737 2273,230 2647,5931 2647,8858 317,-169 317,-169 317,-169 -243,-3971 726,-4676 888,-4765 14,-8 22,-10 22,-10 0,0 92,-2586 -655,-4260 -2016,-4516 -4677,-5404 -7128,-5404l0 936 0 5551z"/>
    <path class="fil9" d="M21220 46239c0,0 -43,-1 -116,-6 -593,-43 -3294,-436 -4112,-3990 0,0 175,6020 4228,10073l0 -6077z"/>
    <path class="fil10" d="M21337 46233c-73,5 -117,6 -117,6l0 6077c4006,-4006 4224,-9928 4229,-10066 0,-2 0,-7 0,-7 -818,3555 -3519,3947 -4112,3990z"/>
    <polygon class="fil7" points="20087,27788 16727,27788 20087,28573 "/>
    <polygon class="fil8" points="22582,27788 22582,28573 25941,27788 "/>
   </g>
   <path class="fil11" d="M46622 14021l54518 0 0 6366 -54518 0 0 -6366zm0 31512l27259 0 0 6366 -27259 0 0 -6366zm0 -10504l54518 0 0 6366 -54518 0 0 -6366zm0 -10504l54518 0 0 6366 -54518 0 0 -6366z"/>
  </g>
 </g>
</svg>
