<?xml version="1.0" encoding="UTF-8"?>
<!DOCTYPE svg PUBLIC "-//W3C//DTD SVG 1.1//EN" "http://www.w3.org/Graphics/SVG/1.1/DTD/svg11.dtd">
<!-- Creator: CorelDRAW X8 -->
<svg xmlns="http://www.w3.org/2000/svg" xml:space="preserve" width="7.2199mm" height="6.094mm" version="1.1" style="shape-rendering:geometricPrecision; text-rendering:geometricPrecision; image-rendering:optimizeQuality; fill-rule:evenodd; clip-rule:evenodd"
viewBox="0 0 75898 64062"
 xmlns:xlink="http://www.w3.org/1999/xlink">
 <defs>
  <style type="text/css">
   <![CDATA[
    .str0 {stroke:#116BC4;stroke-width:801.043;stroke-opacity:0.101961}
    .fil1 {fill:#116BC4;fill-rule:nonzero}
    .fil3 {fill:#4D94DB;fill-rule:nonzero}
    .fil4 {fill:#DF9C00;fill-rule:nonzero}
    .fil0 {fill:#EFC311;fill-rule:nonzero}
    .fil5 {fill:black;fill-rule:nonzero;fill-opacity:0.101961}
    .fil2 {fill:#DF9C00;fill-rule:nonzero;fill-opacity:0.101961}
   ]]>
  </style>
 </defs>
 <g id="Слой_x0020_1">
  <metadata id="CorelCorpID_0Corel-Layer"/>
  <g id="_961565328">
   <g>
    <g>
     <path class="fil0" d="M74783 52626c-7,-6 -13,-13 -20,-21 -11,-12 -23,-17 -36,-28l-29851 -28610c-642,-641 -1679,-640 -2319,0 -641,640 -642,1679 -2,2320l28611 29850c12,13 18,25 28,37 8,7 15,13 21,19l70 71c27,28 64,38 94,61 992,820 2456,779 3386,-150 929,-929 970,-2393 149,-3386 -22,-29 -32,-66 -61,-94l-70 -69z"/>
     <path class="fil1" d="M71166 56137c12,13 18,25 28,37 8,7 15,13 21,19l70 71c27,28 64,38 94,61 992,820 2456,779 3386,-150 929,-929 970,-2393 149,-3386 -22,-29 -32,-66 -61,-94l-70 -69c-7,-6 -13,-13 -20,-21 -11,-12 -23,-17 -36,-28l-1312 -1241 -3490 3490 1241 1311z"/>
     <path class="fil1" d="M42555 26287l1214 1282 2389 -2389 -1282 -1213c-642,-641 -1679,-640 -2319,0 -641,640 -642,1679 -2,2320z"/>
     <path class="fil2 str0" d="M74914 52789c-22,-29 -32,-66 -61,-94l-70 -69c-7,-6 -13,-13 -20,-21 -11,-12 -23,-17 -36,-28l-29851 -28610c-642,-641 -1679,-640 -2319,0l32208 32208c929,-929 970,-2393 149,-3386z"/>
    </g>
    <g>
     <polygon class="fil0" points="35682,33053 22228,19600 40396,1434 53849,14888 "/>
     <path class="fil3" d="M54871 16138c-523,522 -1370,522 -1893,0l-13851 -13852c-523,-523 -523,-1370 -1,-1894 522,-522 1371,-521 1892,2l13851 13851c524,523 525,1370 2,1893z"/>
     <path class="fil3" d="M36478 34531c-523,523 -1371,523 -1893,-1l-13850 -13851c-525,-523 -525,-1371 -4,-1893 525,-523 1371,-523 1895,2l13852 13850c522,523 522,1371 0,1893z"/>
    </g>
    <path class="fil2" d="M52978 16138c523,522 1370,522 1893,0 523,-523 522,-1370 -2,-1893l-6924 -6925 -20286 20284 6926 6926c522,524 1370,524 1893,1 522,-522 522,-1370 0,-1893l-191 -189 16501 -16502 190 191z"/>
   </g>
   <g>
    <g>
     <polygon class="fil3" points="41917,53315 0,53315 0,64062 41917,64062 "/>
     <polygon class="fil4" points="41917,53315 0,53315 0,56175 41917,56175 "/>
     <path class="fil1" d="M37799 51535c0,-23 7,-44 7,-67 0,-3006 -2436,-5442 -5442,-5442l-22812 0c-3005,0 -5442,2436 -5442,5442 0,23 8,44 8,67l33681 0z"/>
     <path class="fil3" d="M41915 53315c0,-8 2,-14 2,-23 0,-970 -787,-1757 -1759,-1757l-38399 0c-972,0 -1759,787 -1759,1757 0,9 3,15 3,23l41912 0z"/>
    </g>
    <path class="fil5" d="M40158 51535l-2359 0c0,-23 7,-44 7,-67 0,-3006 -2436,-5442 -5442,-5442l-11405 0 0 18036 20958 0 0 -7887 0 -2860 -2 0c0,-8 2,-14 2,-23 0,-970 -787,-1757 -1759,-1757z"/>
   </g>
  </g>
 </g>
</svg>
