<svg width="28" height="31" viewBox="0 0 28 31" fill="none" xmlns="http://www.w3.org/2000/svg">
<path fill-rule="evenodd" clip-rule="evenodd" d="M20.2597 23.7737C21.6321 23.4538 25.4407 22.5661 26.1449 16.8884C26.9518 10.3901 25.847 5.95241 23.6809 4.09042C23.0292 3.50071 20.2176 1.73188 14.3461 1.70708C14.3461 1.70708 7.3885 1.25398 4.01831 4.30759C2.13768 6.16343 1.50461 8.92536 1.43635 12.2893C1.43408 12.4021 1.43143 12.5182 1.42878 12.6375C1.35124 16.079 1.21463 22.1406 7.17123 23.7902C7.17123 23.7902 7.14643 28.5631 7.14643 28.9852C7.14018 29.2769 7.18988 29.4755 7.35745 29.5189C7.38396 29.5259 7.41359 29.5282 7.4454 29.5258C7.55512 29.5173 7.69032 29.4529 7.81055 29.3327C8.79115 28.3459 11.9442 24.5412 11.9442 24.5412C16.1771 24.8205 19.541 23.9826 19.9011 23.8647C19.9858 23.8375 20.1078 23.8091 20.2597 23.7737ZM15.0599 17.267C15.0599 17.267 15.6123 17.3166 15.9102 16.9504L16.4874 16.2243C16.7667 15.8643 17.4432 15.6347 18.1011 16.0009C18.4673 16.2056 19.1314 16.6153 19.541 16.9194C19.9817 17.2422 20.8755 17.987 20.8817 17.9931C21.31 18.3532 21.4093 18.8807 21.1175 19.4455V19.458C20.8196 19.9855 20.4162 20.482 19.9135 20.9413C19.9091 20.9413 19.9078 20.9443 19.9053 20.9462C19.9053 20.9462 19.903 20.9475 19.9011 20.9475C19.4852 21.2951 19.0755 21.4937 18.6783 21.5371C18.6287 21.5495 18.5728 21.5495 18.4983 21.5495C18.399 21.5495 18.2998 21.5414 18.2005 21.5241C18.126 21.5111 18.0515 21.4928 17.977 21.4689L17.9646 21.4502C17.3439 21.2765 16.3136 20.842 14.6005 19.8924C13.4834 19.2779 12.5586 18.6511 11.7703 18.0242C11.3546 17.6952 10.9324 17.329 10.498 16.8946L10.4111 16.8077L10.3676 16.7643L10.3243 16.7208C9.89596 16.2863 9.52352 15.8643 9.19464 15.4485C8.56773 14.6664 7.94091 13.7354 7.3264 12.6182C6.37676 10.899 5.94231 9.86866 5.76859 9.25424L5.74994 9.24184C5.69408 9.06803 5.66928 8.89421 5.66928 8.72049C5.66928 8.67382 5.66928 8.63453 5.67231 8.5995C5.67411 8.57848 5.67704 8.55908 5.68168 8.54052C5.73129 8.13703 5.92991 7.73364 6.27129 7.31775C6.27129 7.3116 6.27745 7.3116 6.27745 7.30535C6.73679 6.7964 7.23334 6.39916 7.76085 6.10123H7.77325C8.3319 5.80955 8.85941 5.90886 9.22559 6.33715C9.22559 6.33715 9.97662 7.23709 10.2994 7.67778C10.6035 8.09358 11.0132 8.75154 11.2179 9.11773C11.5841 9.7756 11.3546 10.4521 10.9945 10.7314L10.2684 11.3086C9.90211 11.6065 9.95181 12.1589 9.95181 12.1589C9.95181 12.1589 11.2025 14.1034 12.2486 15.1323C13.2314 16.099 15.0599 17.267 15.0599 17.267Z" fill="#0085FF" fill-opacity="0.3"/>
<path d="M15.9102 16.9504C15.6123 17.3166 15.0599 17.267 15.0599 17.267C15.0599 17.267 13.2314 16.099 12.2486 15.1323C11.2025 14.1034 9.95181 12.1589 9.95181 12.1589C9.95181 12.1589 9.90211 11.6065 10.2684 11.3086L10.9945 10.7314C11.3546 10.4521 11.5841 9.7756 11.2179 9.11773C11.0132 8.75154 10.6035 8.09358 10.2994 7.67778C9.97662 7.23709 9.22559 6.33715 9.22559 6.33715C8.85941 5.90886 8.3319 5.80955 7.77325 6.10123H7.76085C7.23334 6.39916 6.73679 6.7964 6.27745 7.30535C6.27745 7.3116 6.27129 7.3116 6.27129 7.31775C5.92991 7.73364 5.73129 8.13703 5.68168 8.54052C5.67704 8.55908 5.67411 8.57848 5.67231 8.5995C5.66928 8.63453 5.66928 8.67382 5.66928 8.72049C5.66928 8.89421 5.69408 9.06803 5.74994 9.24184L5.76859 9.25424C5.94231 9.86866 6.37676 10.899 7.3264 12.6182C7.94091 13.7354 8.56773 14.6664 9.19464 15.4485C9.52352 15.8643 9.89596 16.2863 10.3243 16.7208L10.3676 16.7643L10.4111 16.8077L10.498 16.8946C10.9324 17.329 11.3546 17.6952 11.7703 18.0242C12.5586 18.6511 13.4834 19.2779 14.6005 19.8924C16.3136 20.842 17.3439 21.2765 17.9646 21.4502L17.977 21.4689C18.0515 21.4928 18.126 21.5111 18.2005 21.5241C18.2998 21.5414 18.399 21.5495 18.4983 21.5495C18.5728 21.5495 18.6287 21.5495 18.6783 21.5371C19.0755 21.4937 19.4852 21.2951 19.9011 20.9475C19.903 20.9475 19.9053 20.9462 19.9053 20.9462C19.9078 20.9443 19.9091 20.9413 19.9135 20.9413C20.4162 20.482 20.8196 19.9855 21.1175 19.458V19.4455C21.4093 18.8807 21.31 18.3532 20.8817 17.9931C20.8755 17.987 19.9817 17.2422 19.541 16.9194C19.1314 16.6153 18.4673 16.2056 18.1011 16.0009C17.4432 15.6347 16.7667 15.8643 16.4874 16.2243L15.9102 16.9504Z" fill="#0085FF" fill-opacity="0.3"/>
<path fill-rule="evenodd" clip-rule="evenodd" d="M20.2597 23.7737C21.6321 23.4538 25.4407 22.5661 26.1449 16.8884C26.9518 10.3901 25.847 5.95241 23.6809 4.09042C23.0292 3.50071 20.2176 1.73188 14.3461 1.70708C14.3461 1.70708 7.3885 1.25398 4.01831 4.30759C2.13768 6.16343 1.50461 8.92536 1.43635 12.2893C1.43408 12.4021 1.43143 12.5182 1.42878 12.6375C1.35124 16.079 1.21463 22.1406 7.17123 23.7902C7.17123 23.7902 7.14643 28.5631 7.14643 28.9852C7.14018 29.2769 7.18988 29.4755 7.35745 29.5189C7.38396 29.5259 7.41359 29.5282 7.4454 29.5258C7.55512 29.5173 7.69032 29.4529 7.81055 29.3327C8.79115 28.3459 11.9442 24.5412 11.9442 24.5412C16.1771 24.8205 19.541 23.9826 19.9011 23.8647C19.9858 23.8375 20.1078 23.8091 20.2597 23.7737ZM15.0599 17.267C15.0599 17.267 15.6123 17.3166 15.9102 16.9504L16.4874 16.2243C16.7667 15.8643 17.4432 15.6347 18.1011 16.0009C18.4673 16.2056 19.1314 16.6153 19.541 16.9194C19.9817 17.2422 20.8755 17.987 20.8817 17.9931C21.31 18.3532 21.4093 18.8807 21.1175 19.4455V19.458C20.8196 19.9855 20.4162 20.482 19.9135 20.9413C19.9091 20.9413 19.9078 20.9443 19.9053 20.9462C19.9053 20.9462 19.903 20.9475 19.9011 20.9475C19.4852 21.2951 19.0755 21.4937 18.6783 21.5371C18.6287 21.5495 18.5728 21.5495 18.4983 21.5495C18.399 21.5495 18.2998 21.5414 18.2005 21.5241C18.126 21.5111 18.0515 21.4928 17.977 21.4689L17.9646 21.4502C17.3439 21.2765 16.3136 20.842 14.6005 19.8924C13.4834 19.2779 12.5586 18.6511 11.7703 18.0242C11.3546 17.6952 10.9324 17.329 10.498 16.8946L10.4111 16.8077L10.3676 16.7643L10.3243 16.7208C9.89596 16.2863 9.52352 15.8643 9.19464 15.4485C8.56773 14.6664 7.94091 13.7354 7.3264 12.6182C6.37676 10.899 5.94231 9.86866 5.76859 9.25424L5.74994 9.24184C5.69408 9.06803 5.66928 8.89421 5.66928 8.72049C5.66928 8.67382 5.66928 8.63453 5.67231 8.5995C5.67411 8.57848 5.67704 8.55908 5.68168 8.54052C5.73129 8.13703 5.92991 7.73364 6.27129 7.31775C6.27129 7.3116 6.27745 7.3116 6.27745 7.30535C6.73679 6.7964 7.23334 6.39916 7.76085 6.10123H7.77325C8.3319 5.80955 8.85941 5.90886 9.22559 6.33715C9.22559 6.33715 9.97662 7.23709 10.2994 7.67778C10.6035 8.09358 11.0132 8.75154 11.2179 9.11773C11.5841 9.7756 11.3546 10.4521 10.9945 10.7314L10.2684 11.3086C9.90211 11.6065 9.95181 12.1589 9.95181 12.1589C9.95181 12.1589 11.2025 14.1034 12.2486 15.1323C13.2314 16.099 15.0599 17.267 15.0599 17.267Z" stroke="#0085FF" stroke-width="1.6" stroke-linejoin="round"/>
<path d="M15.9102 16.9504C15.6123 17.3166 15.0599 17.267 15.0599 17.267C15.0599 17.267 13.2314 16.099 12.2486 15.1323C11.2025 14.1034 9.95181 12.1589 9.95181 12.1589C9.95181 12.1589 9.90211 11.6065 10.2684 11.3086L10.9945 10.7314C11.3546 10.4521 11.5841 9.7756 11.2179 9.11773C11.0132 8.75154 10.6035 8.09358 10.2994 7.67778C9.97662 7.23709 9.22559 6.33715 9.22559 6.33715C8.85941 5.90886 8.3319 5.80955 7.77325 6.10123H7.76085C7.23334 6.39916 6.73679 6.7964 6.27745 7.30535C6.27745 7.3116 6.27129 7.3116 6.27129 7.31775C5.92991 7.73364 5.73129 8.13703 5.68168 8.54052C5.67704 8.55908 5.67411 8.57848 5.67231 8.5995C5.66928 8.63453 5.66928 8.67382 5.66928 8.72049C5.66928 8.89421 5.69408 9.06803 5.74994 9.24184L5.76859 9.25424C5.94231 9.86866 6.37676 10.899 7.3264 12.6182C7.94091 13.7354 8.56773 14.6664 9.19464 15.4485C9.52352 15.8643 9.89596 16.2863 10.3243 16.7208L10.3676 16.7643L10.4111 16.8077L10.498 16.8946C10.9324 17.329 11.3546 17.6952 11.7703 18.0242C12.5586 18.6511 13.4834 19.2779 14.6005 19.8924C16.3136 20.842 17.3439 21.2765 17.9646 21.4502L17.977 21.4689C18.0515 21.4928 18.126 21.5111 18.2005 21.5241C18.2998 21.5414 18.399 21.5495 18.4983 21.5495C18.5728 21.5495 18.6287 21.5495 18.6783 21.5371C19.0755 21.4937 19.4852 21.2951 19.9011 20.9475C19.903 20.9475 19.9053 20.9462 19.9053 20.9462C19.9078 20.9443 19.9091 20.9413 19.9135 20.9413C20.4162 20.482 20.8196 19.9855 21.1175 19.458V19.4455C21.4093 18.8807 21.31 18.3532 20.8817 17.9931C20.8755 17.987 19.9817 17.2422 19.541 16.9194C19.1314 16.6153 18.4673 16.2056 18.1011 16.0009C17.4432 15.6347 16.7667 15.8643 16.4874 16.2243L15.9102 16.9504Z" stroke="#0085FF" stroke-width="1.6" stroke-linejoin="round"/>
<path d="M20.8121 13.4944C20.8126 13.8216 21.0757 14.0845 21.4031 14.0845C21.7394 14.0845 22.0023 13.8117 21.9941 13.4775C21.9686 10.855 21.1663 8.72744 19.5816 7.18108C18.0088 5.64015 16.0215 4.85905 13.6961 4.84005L13.6961 4.84004L13.6945 5.82828L13.6927 6.02827C13.693 6.02827 13.6932 6.02828 13.6935 6.02828C15.7128 6.04665 17.4182 6.71817 18.762 8.0319C20.1182 9.35811 20.7937 11.1332 20.8121 13.4944ZM20.8121 13.4944C20.8121 13.4941 20.8121 13.4938 20.8121 13.4935H21.0121M20.8121 13.4944C20.8121 13.4946 20.8121 13.4948 20.8121 13.495L21.0121 13.4935M21.0121 13.4935C21.0121 13.7107 21.1859 13.8845 21.4031 13.8845C21.6266 13.8845 21.8003 13.7045 21.7941 13.481M21.0121 13.4935L21.7941 13.481M21.7941 13.481C21.7693 10.8991 20.9811 8.82608 19.4418 7.32408C17.9088 5.82207 15.9723 5.05866 13.6945 5.04004L21.7941 13.481ZM19.2433 13.555L19.2434 13.5549C18.9185 13.5457 18.6552 13.2764 18.6643 12.9465M19.2433 13.555L18.8643 12.9516M19.2433 13.555H19.2491H19.2553C19.5717 13.555 19.843 13.3042 19.8524 12.9759L19.8525 12.9743C19.8844 11.3954 19.41 10.0467 18.4221 8.96838M19.2433 13.555L19.6525 12.9702C19.6835 11.4372 19.2242 10.14 18.2746 9.10349M18.6643 12.9465C18.6643 12.9463 18.6643 12.9461 18.6643 12.9459L18.8643 12.9516M18.6643 12.9465C18.6643 12.9467 18.6643 12.9468 18.6643 12.947L18.8643 12.9516M18.6643 12.9465C18.6942 11.6519 18.3243 10.6177 17.5438 9.76619L17.5433 9.76563C16.7727 8.91857 15.7023 8.44995 14.2572 8.34716L14.2543 8.34696L14.2543 8.34693C13.9303 8.31916 13.6838 8.03909 13.7121 7.70853C13.7398 7.38496 14.0192 7.13866 14.3492 7.16625M18.8643 12.9516C18.8953 11.611 18.5105 10.5248 17.6912 9.63105C16.8781 8.73729 15.7547 8.25318 14.2714 8.14767C14.0541 8.12905 13.8927 7.94285 13.9114 7.72562C13.93 7.50838 14.1162 7.34701 14.3334 7.36563M14.3492 7.16625C14.3489 7.16623 14.3485 7.1662 14.3482 7.16618L14.3334 7.36563M14.3492 7.16625C14.3497 7.16629 14.3501 7.16633 14.3505 7.16636L14.3334 7.36563M14.3492 7.16625C16.0645 7.29351 17.4378 7.8934 18.4221 8.96838M14.3334 7.36563C16.0092 7.48976 17.3312 8.07319 18.2746 9.10349M18.2746 9.10349L18.4221 8.96838M18.2746 9.10349L18.4221 8.96842C18.4221 8.96841 18.4221 8.96839 18.4221 8.96838M14.6057 9.26574C14.2772 9.24708 13.9976 9.50002 13.979 9.82641C13.9602 10.155 14.2132 10.4347 14.5396 10.4533L14.5404 10.4534C15.1489 10.4859 15.5694 10.6552 15.8475 10.9446C16.127 11.2354 16.2922 11.6779 16.325 12.3183L16.325 12.3183L16.3251 12.3198C16.3437 12.6361 16.6046 12.8805 16.9158 12.8805L16.9164 12.8805C16.9213 12.8805 16.9412 12.8806 16.9651 12.8758C16.9703 12.8747 16.9754 12.8735 16.9803 12.8722C17.2954 12.8451 17.5303 12.5697 17.5127 12.254C17.4675 11.3519 17.1984 10.624 16.6976 10.1088C16.1962 9.59297 15.4858 9.31431 14.6057 9.26574ZM14.6057 9.26574C14.6058 9.26574 14.6058 9.26575 14.6059 9.26575L14.5945 9.46542M14.6057 9.26574C14.6056 9.26573 14.6056 9.26573 14.6055 9.26573L14.5945 9.46542M14.5945 9.46542C14.3772 9.45301 14.191 9.62059 14.1786 9.83782C14.1662 10.0551 14.3338 10.2413 14.551 10.2537L14.5945 9.46542Z" fill="#0085FF" stroke="#0085FF" stroke-width="0.4"/>
</svg>
