<svg width="26" height="26" viewBox="0 0 26 26" fill="none" xmlns="http://www.w3.org/2000/svg">
<path d="M6.49563 1.72559L9.14335 3.22631L11.7669 4.76893L11.7911 7.81228L11.7669 10.8556L9.14335 12.3983L6.49563 13.899L3.84792 12.3983L1.2244 10.8556L1.20021 7.81228L1.2244 4.76893L3.84792 3.22631L6.49563 1.72559Z" fill="#0085FF" fill-opacity="0.3" stroke="#0085FF" stroke-width="1.6" stroke-linejoin="round"/>
<path d="M19.3223 1.72559L21.97 3.22631L24.5935 4.76893L24.6177 7.81228L24.5935 10.8556L21.97 12.3983L19.3223 13.899L16.6746 12.3983L14.0511 10.8556L14.0269 7.81228L14.0511 4.76893L16.6746 3.22631L19.3223 1.72559Z" fill="#0085FF" fill-opacity="0.3" stroke="#0085FF" stroke-width="1.6" stroke-linejoin="round"/>
<path d="M12.9088 12.8967L15.5566 14.3975L18.1801 15.9401L18.2043 18.9834L18.1801 22.0268L15.5566 23.5694L12.9088 25.0701L10.2611 23.5694L7.63761 22.0268L7.61341 18.9834L7.63761 15.9401L10.2611 14.3975L12.9088 12.8967Z" fill="#0085FF" fill-opacity="0.3" stroke="#0085FF" stroke-width="1.6" stroke-linejoin="round"/>
<path d="M13.051 18.3644C12.9883 18.4746 12.8295 18.4746 12.7668 18.3644L7.04463 8.30352C6.98265 8.19456 7.06135 8.05926 7.18671 8.05926L18.6311 8.05926C18.7565 8.05926 18.8352 8.19456 18.7732 8.30352L13.051 18.3644Z" stroke="#0085FF" stroke-width="1.6" stroke-linejoin="round"/>
</svg>
