<svg width="0" height="0" class="hidden">
  <symbol fill="none" xmlns="http://www.w3.org/2000/svg" viewBox="0 0 15 17" id="money">
    <path d="M8.522 10.445l-2.584-.307-.16 1.34 3.9.465-.295 2.486-3.9-.464-.34 2.852-3.485-.415.339-2.852-1.658-.197.296-2.486 1.658.197.173-1.462L.81 9.404l.33-2.778 1.658.197.789-6.63 6.07.722c1.478.175 2.612.755 3.402 1.74.789.983 1.099 2.19.928 3.62-.17 1.43-.762 2.53-1.776 3.299-.997.755-2.226 1.045-3.688.871zm2.027-4.579c.06-.504-.06-.938-.364-1.304-.302-.366-.722-.58-1.258-.644L6.71 3.654 6.3 7.091l2.218.264c.537.064.995-.047 1.375-.331.38-.284.598-.67.656-1.158z" fill="#fff"></path>
  </symbol>
  <symbol fill="none" xmlns="http://www.w3.org/2000/svg" viewBox="0 0 26 26" id="cascade">
    <path d="M6.496 1.726l2.647 1.5 2.624 1.543.024 3.043-.024 3.044-2.624 1.542L6.496 13.9l-2.648-1.5-2.624-1.543L1.2 7.812l.024-3.043 2.624-1.543 2.648-1.5zm12.826 0l2.648 1.5 2.623 1.543.025 3.043-.024 3.044-2.624 1.542-2.648 1.501-2.647-1.5-2.624-1.543-.024-3.044.024-3.043 2.624-1.543 2.647-1.5zm-6.413 11.171l2.648 1.5 2.623 1.543.024 3.043-.024 3.044-2.623 1.542-2.648 1.501-2.648-1.5-2.623-1.543-.025-3.044.025-3.043 2.623-1.542 2.648-1.501z" fill="#0085FF" fill-opacity=".3" stroke="#0085FF" stroke-width="1.6" stroke-linejoin="round"></path>
    <path d="M13.051 18.364a.163.163 0 01-.284 0L7.045 8.304a.163.163 0 01.142-.245H18.63c.125 0 .204.136.142.245l-5.722 10.06z" stroke="#0085FF" stroke-width="1.6" stroke-linejoin="round"></path>
  </symbol>
  <symbol fill="none" xmlns="http://www.w3.org/2000/svg" viewBox="0 0 28 27" id="voice">
    <rect x="4.832" y="5.372" width="4.329" height="16.053" rx="2.164" fill="#0085FF" fill-opacity=".3" stroke="#0085FF" stroke-width="1.6"></rect>
    <path d="M1.409 13.831c1.34-1.97 2.464-3.305 3.373-4.008C6.7 8.34 7.659 9.676 7.659 13.83c0 4.03.436 6.215 1.307 6.559.798.314 1.96-.914 3.487-3.684m13.956-2.875c-1.238 1.751-2.292 2.982-3.163 3.692m-7.362-7.47c1.26-2.107 2.24-3.037 2.944-2.789" stroke="#0085FF" stroke-width="1.6" stroke-linecap="round"></path>
    <rect x="11.847" y="9.398" width="4.375" height="8" rx="2.188" fill="#0085FF" fill-opacity=".3" stroke="#0085FF" stroke-width="1.6"></rect>
    <rect x="18.908" y=".898" width="4.375" height="25" rx="2.188" fill="#0085FF" fill-opacity=".3" stroke="#0085FF" stroke-width="1.6"></rect>
  </symbol>
  <symbol fill="none" xmlns="http://www.w3.org/2000/svg" viewBox="0 0 28 27" id="target">
    <circle cx="13.909" cy="13.398" r="12.5" fill="#0085FF" fill-opacity=".3" stroke="#0085FF" stroke-width="1.6"></circle>
    <circle cx="13.909" cy="13.398" r="9.288" stroke="#0085FF" stroke-width="1.6"></circle>
    <circle cx="13.909" cy="13.398" r="5.627" stroke="#0085FF" stroke-width="1.6"></circle>
    <circle cx="13.909" cy="13.398" r="1.546" stroke="#0085FF" stroke-width="1.6"></circle>
  </symbol>
  <symbol fill="none" xmlns="http://www.w3.org/2000/svg" viewBox="0 0 28 28" id="integr">
    <rect x="4.982" y="5.029" width="18.177" height="18.177" rx="4.017" fill="#0085FF" fill-opacity=".3" stroke="#0085FF" stroke-width="1.6" stroke-linecap="round"></rect>
    <rect x="10.586" y="10.632" width="6.97" height="6.97" rx="2.09" stroke="#0085FF" stroke-width="1.6" stroke-linecap="round" stroke-linejoin="round"></rect>
    <path d="M15.775 5.581V1.626m-3.409 3.955V1.626M1.57 15.822h3.957m-3.957-3.41h3.957m17.087 3.41h3.956m-3.956-3.41h3.956M12.366 22.654v3.954m3.409-3.954v3.954" stroke="#0085FF" stroke-width="1.6" stroke-linecap="round"></path>
  </symbol>
  <symbol fill="none" xmlns="http://www.w3.org/2000/svg" viewBox="0 0 28 31" id="viber">
    <path fill-rule="evenodd" clip-rule="evenodd" d="M20.26 23.774c1.372-.32 5.18-1.208 5.885-6.886.807-6.498-.298-10.936-2.464-12.798-.652-.59-3.463-2.358-9.335-2.383 0 0-6.958-.453-10.328 2.6-1.88 1.856-2.513 4.618-2.582 7.982l-.007.348C1.35 16.08 1.215 22.142 7.17 23.79c0 0-.025 4.773-.025 5.195-.006.292.044.49.211.534.027.007.057.01.088.007a.617.617 0 00.366-.193c.98-.987 4.133-4.792 4.133-4.792 4.233.28 7.597-.558 7.957-.676.085-.027.207-.056.359-.091zm-5.2-6.507s.552.05.85-.317l.577-.726c.28-.36.956-.59 1.614-.223.366.205 1.03.614 1.44.918.44.323 1.334 1.068 1.34 1.074.429.36.528.888.236 1.453v.012a6.056 6.056 0 01-1.204 1.483c-.004 0-.005.003-.008.005l-.004.002c-.416.347-.825.546-1.223.59-.05.011-.105.011-.18.011a1.73 1.73 0 01-.521-.08l-.012-.019c-.621-.174-1.651-.608-3.364-1.558a19.986 19.986 0 01-2.83-1.868 14.524 14.524 0 01-1.273-1.13l-.087-.086-.043-.044-.044-.043a15.91 15.91 0 01-1.13-1.273 19.63 19.63 0 01-1.868-2.83c-.95-1.719-1.384-2.75-1.557-3.364l-.02-.012a1.691 1.691 0 01-.08-.522c0-.046 0-.085.003-.12a.373.373 0 01.01-.06c.05-.403.248-.806.59-1.222 0-.006.005-.006.005-.013.46-.509.956-.906 1.484-1.204h.012c.559-.291 1.086-.192 1.453.236 0 0 .75.9 1.073 1.34.305.417.714 1.075.919 1.44.366.659.137 1.335-.223 1.614l-.727.578c-.366.298-.316.85-.316.85s1.25 1.944 2.297 2.973c.982.967 2.81 2.135 2.81 2.135z" fill="#0085FF" fill-opacity=".3"></path>
    <path d="M15.91 16.95c-.298.367-.85.317-.85.317s-1.829-1.168-2.811-2.135c-1.046-1.029-2.297-2.973-2.297-2.973s-.05-.553.316-.85l.726-.578c.36-.279.59-.955.224-1.613a17.003 17.003 0 00-.919-1.44c-.322-.44-1.073-1.34-1.073-1.34-.367-.43-.894-.528-1.453-.237h-.012a5.917 5.917 0 00-1.484 1.204c0 .007-.006.007-.006.013-.341.416-.54.819-.59 1.223a.373.373 0 00-.009.059c-.003.035-.003.074-.003.12 0 .174.025.348.08.522l.02.012c.173.615.608 1.645 1.557 3.364a19.63 19.63 0 001.869 2.83c.329.416.701.838 1.13 1.273l.043.043.043.044.087.087c.434.434.857.8 1.272 1.13a19.986 19.986 0 002.83 1.867c1.714.95 2.744 1.384 3.365 1.558l.012.019a1.671 1.671 0 00.521.08c.075 0 .13 0 .18-.012.398-.043.807-.242 1.223-.59a.01.01 0 00.004 0c.003-.003.004-.006.008-.006a6.03 6.03 0 001.204-1.483v-.012c.292-.565.193-1.093-.235-1.453-.007-.006-.9-.75-1.341-1.074a16.068 16.068 0 00-1.44-.918c-.658-.366-1.334-.137-1.614.223l-.577.726z" fill="#0085FF" fill-opacity=".3"></path>
    <path clip-rule="evenodd" d="M20.26 23.774c1.372-.32 5.18-1.208 5.885-6.886.807-6.498-.298-10.936-2.464-12.798-.652-.59-3.463-2.358-9.335-2.383 0 0-6.958-.453-10.328 2.6-1.88 1.856-2.513 4.618-2.582 7.982l-.007.348C1.35 16.08 1.215 22.142 7.17 23.79c0 0-.025 4.773-.025 5.195-.006.292.044.49.211.534.027.007.057.01.088.007a.617.617 0 00.366-.193c.98-.987 4.133-4.792 4.133-4.792 4.233.28 7.597-.558 7.957-.676.085-.027.207-.056.359-.091zm-5.2-6.507s.552.05.85-.317l.577-.726c.28-.36.956-.59 1.614-.223.366.205 1.03.614 1.44.918.44.323 1.334 1.068 1.34 1.074.429.36.528.888.236 1.453v.012a6.056 6.056 0 01-1.204 1.483c-.004 0-.005.003-.008.005l-.004.002c-.416.347-.825.546-1.223.59-.05.011-.105.011-.18.011a1.73 1.73 0 01-.521-.08l-.012-.019c-.621-.174-1.651-.608-3.364-1.558a19.986 19.986 0 01-2.83-1.868 14.524 14.524 0 01-1.273-1.13l-.087-.086-.043-.044-.044-.043a15.91 15.91 0 01-1.13-1.273 19.63 19.63 0 01-1.868-2.83c-.95-1.719-1.384-2.75-1.557-3.364l-.02-.012a1.691 1.691 0 01-.08-.522c0-.046 0-.085.003-.12a.373.373 0 01.01-.06c.05-.403.248-.806.59-1.222 0-.006.005-.006.005-.013.46-.509.956-.906 1.484-1.204h.012c.559-.291 1.086-.192 1.453.236 0 0 .75.9 1.073 1.34.305.417.714 1.075.919 1.44.366.659.137 1.335-.223 1.614l-.727.578c-.366.298-.316.85-.316.85s1.25 1.944 2.297 2.973c.982.967 2.81 2.135 2.81 2.135z" stroke="#0085FF" stroke-width="1.6" stroke-linejoin="round"></path>
    <path d="M15.91 16.95c-.298.367-.85.317-.85.317s-1.829-1.168-2.811-2.135c-1.046-1.029-2.297-2.973-2.297-2.973s-.05-.553.316-.85l.726-.578c.36-.279.59-.955.224-1.613a17.003 17.003 0 00-.919-1.44c-.322-.44-1.073-1.34-1.073-1.34-.367-.43-.894-.528-1.453-.237h-.012a5.917 5.917 0 00-1.484 1.204c0 .007-.006.007-.006.013-.341.416-.54.819-.59 1.223a.373.373 0 00-.009.059c-.003.035-.003.074-.003.12 0 .174.025.348.08.522l.02.012c.173.615.608 1.645 1.557 3.364a19.63 19.63 0 001.869 2.83c.329.416.701.838 1.13 1.273l.043.043.043.044.087.087c.434.434.857.8 1.272 1.13a19.986 19.986 0 002.83 1.867c1.714.95 2.744 1.384 3.365 1.558l.012.019a1.671 1.671 0 00.521.08c.075 0 .13 0 .18-.012.398-.043.807-.242 1.223-.59a.01.01 0 00.004 0c.003-.003.004-.006.008-.006a6.03 6.03 0 001.204-1.483v-.012c.292-.565.193-1.093-.235-1.453-.007-.006-.9-.75-1.341-1.074a16.068 16.068 0 00-1.44-.918c-.658-.366-1.334-.137-1.614.223l-.577.726z" stroke="#0085FF" stroke-width="1.6" stroke-linejoin="round"></path>
    <path d="M20.812 13.494c0 .328.264.59.591.59.336 0 .6-.272.591-.607-.025-2.622-.828-4.75-2.412-6.296-1.573-1.54-3.56-2.322-5.886-2.341h0l-.002.988-.001.2s0 0 0 0c2.02.019 3.725.69 5.069 2.004 1.356 1.326 2.032 3.101 2.05 5.462zm0 0s0 0 0 0h.2m-.2 0v.001l.2-.002m0 0a.39.39 0 00.391.391c.224 0 .397-.18.391-.403m-.782.012l.782-.012m0 0c-.025-2.582-.813-4.655-2.352-6.157-1.533-1.502-3.47-2.265-5.748-2.284l8.1 8.441zm-2.55.074h0a.595.595 0 01-.58-.608m.58.608l-.38-.603m.38.603h.011c.317 0 .588-.25.597-.58h0c.032-1.58-.442-2.928-1.43-4.007m.821 4.587l.41-.585c.03-1.533-.429-2.83-1.378-3.867m.39 3.844v-.001l.2.006m-.2-.005s0 0 0 0l.2.005m-.2-.005c.03-1.295-.34-2.33-1.121-3.18v-.001c-.771-.847-1.842-1.316-3.287-1.419h-.003 0a.59.59 0 01-.542-.638.59.59 0 01.637-.543m4.515 5.786c.031-1.341-.354-2.427-1.173-3.321-.813-.894-1.936-1.378-3.42-1.483a.39.39 0 01-.36-.422.39.39 0 01.422-.36m.016-.2s0 0 0 0l-.016.2m.016-.2h.002l-.018.2m.016-.2c1.715.128 3.089.727 4.073 1.802m-4.089-1.602c1.676.124 2.998.707 3.942 1.737m0 0l.147-.135m-.147.135l.147-.135s0 0 0 0m-3.816.298a.595.595 0 00-.066 1.187h0c.609.033 1.03.202 1.308.492.279.29.444.733.477 1.373h0v.002c.019.316.28.56.59.56h.001c.005 0 .025 0 .05-.004a.586.586 0 00.548-.622c-.046-.902-.316-1.63-.816-2.145-.502-.516-1.212-.795-2.092-.843zm0 0s0 0 0 0l-.011.2m.01-.2s0 0 0 0l-.01.2m0 0a.395.395 0 00-.044.788l.043-.789z" fill="#0085FF" stroke="#0085FF" stroke-width=".4"></path>
  </symbol>
  <symbol fill="none" xmlns="http://www.w3.org/2000/svg" viewBox="0 0 28 17" id="short">
    <rect x="1.409" y="2.148" width="25" height="12.5" rx="1.927" fill="#0085FF" fill-opacity=".3" stroke="#0085FF" stroke-width="1.6" stroke-linecap="round"></rect>
    <path d="M16.993 8.398H5.187m0 0L9.24 4.632M5.187 8.398l4.052 3.811M20.62 1.523v13.75" stroke="#0085FF" stroke-width="1.6" stroke-linecap="round"></path>
  </symbol>
  <symbol fill="none" xmlns="http://www.w3.org/2000/svg" viewBox="0 0 28 20" id="mail">
    <rect x="1.409" y="1.533" width="25" height="17.58" rx="2.194" fill="#0085FF" fill-opacity=".3" stroke="#0085FF" stroke-width="1.6"></rect>
    <path d="M3.64 3.797l8.639 8.238a2.107 2.107 0 002.902.007l8.997-8.505m-13.258 7.28L4.836 17.11m11.802-6.294l6.084 6.292" stroke="#0085FF" stroke-width="1.6" stroke-linecap="round" stroke-linejoin="round"></path>
  </symbol>
  <symbol fill="none" xmlns="http://www.w3.org/2000/svg" viewBox="0 0 19 21" id="protect">
    <path fill-rule="evenodd" clip-rule="evenodd" d="M.505 3.602L9.49.447l8.984 3.155v4.097c0 5.72-3.596 10.824-8.984 12.748A13.537 13.537 0 01.505 7.699V3.602zm8.78 9.585L13.45 8.73l-1.096-1.024L8.7 11.614 6.586 9.638l-1.024 1.095 2.662 2.489.548.512.512-.548z" fill="#fff"></path>
  </symbol>
  <symbol fill="none" xmlns="http://www.w3.org/2000/svg" viewBox="0 0 21 17" id="cabinet">
    <path fill-rule="evenodd" clip-rule="evenodd" d="M.5 1.374a1 1 0 011-1h18a1 1 0 011 1v14.25a1 1 0 01-1 1h-18a1 1 0 01-1-1V1.374zM3.028 3.06a.937.937 0 111.875 0 .937.937 0 01-1.875 0zm4.062-.94a.937.937 0 100 1.875.937.937 0 000-1.875zm2.188.938a.937.937 0 111.875 0 .937.937 0 01-1.875 0zm8.705 3.37a1 1 0 00-1-1H4.017a1 1 0 00-1 1v6.61a1 1 0 001 1h12.966a1 1 0 001-1v-6.61z" fill="#fff"></path>
  </symbol>
  <symbol fill="none" xmlns="http://www.w3.org/2000/svg" viewBox="0 0 21 21" id="api">
    <path fill-rule="evenodd" clip-rule="evenodd" d="M8.743.488a.75.75 0 01.75.751v1.238h2V1.24a.75.75 0 111.502 0v1.238h2.502a3 3 0 013 3v2.51h1.256a.75.75 0 010 1.5h-1.256v2.004h1.256a.75.75 0 010 1.5h-1.256v2.507a3 3 0 01-3 3h-2.502v1.24a.75.75 0 11-1.501 0v-1.24h-2v1.24a.75.75 0 11-1.501 0v-1.24H5.492a3 3 0 01-3-3v-2.506H1.253a.75.75 0 010-1.502h1.239V9.488H1.253a.75.75 0 010-1.5h1.239v-2.51a3 3 0 013-3h2.5V1.24a.75.75 0 01.751-.75zM12.74 7.74a.5.5 0 01.5.5v4.497a.5.5 0 01-.5.5H8.247a.5.5 0 01-.5-.5V8.24a.5.5 0 01.5-.5h4.493zm-6.221 0c0-.68.55-1.23 1.228-1.23h5.493c.678 0 1.228.55 1.228 1.23v5.497c0 .68-.55 1.23-1.228 1.23H7.747a1.23 1.23 0 01-1.228-1.23V7.74z" fill="#fff"></path>
  </symbol>
  <symbol fill="none" xmlns="http://www.w3.org/2000/svg" viewBox="0 0 26 22" id="tg">
    <path d="M17.658 8.235a.06.06 0 010 0zm-.732-.954l-.002.005a.034.034 0 01.002-.005zm-4.68 2.185c-1.39.844-2.925 1.776-4.43 2.64-.591.323-1.26.368-2.034.244-.63-.102-1.25-.3-1.903-.507l-.505-.159a37.49 37.49 0 00-.623-.247c-.177-.07-.35-.137-.494-.195a7.613 7.613 0 01-.806-.369C3.398 9.822 5.505 8.902 7.594 7.99c.532-.233 1.063-.465 1.59-.698 4.579-1.931 9.168-3.826 13.801-5.59.417-.137.911-.24 1.275-.201.174.018.251.062.279.085h0c.01.008.046.037.067.148-.064 1.275-.249 2.527-.44 3.82-.083.56-.167 1.125-.242 1.704-.529 3.506-1.126 7-1.725 10.502l-.325 1.903c-.146.82-1.19 1.199-1.788.721l-.025-.02-.026-.017c-.655-.443-1.31-.883-1.965-1.324A390.982 390.982 0 0112.164 15c-.117-.142-.141-.31-.039-.582.125-.334.413-.694.717-.941l.016-.013.016-.014c2.695-2.43 4.274-3.942 4.99-4.768a4.19 4.19 0 00.436-.579c.05-.085.114-.209.15-.355a.896.896 0 00-.136-.743.889.889 0 00-.68-.361 1.267 1.267 0 00-.377.043 3.555 3.555 0 00-.59.224c-.796.37-2.148 1.179-3.697 2.117l-.724.439zm-11.093 1.2a.03.03 0 010 0zm.003.391l.006-.007a.04.04 0 01-.006.007z" fill="#0085FF" fill-opacity=".3" stroke="#0085FF" stroke-width="1.6"></path>
  </symbol>
  <symbol fill="none" xmlns="http://www.w3.org/2000/svg" viewBox="0 0 28 27" id="wp">
    <path fill-rule="evenodd" clip-rule="evenodd" d="M13.991 25.855c-2.221 0-4.443-.576-6.336-1.727l-.493-.247-4.773 1.234 1.234-4.689-.329-.493C-.326 14.091 1.402 6.36 7.326 2.74 13.251-.88 20.903.848 24.523 6.77c3.621 5.924 1.893 13.574-4.031 17.193-1.893 1.234-4.197 1.892-6.5 1.892zm7.241-9.13c.814.406-.035 1.926-.494 2.385-1.077 1.077-2.637 1.561-4.114 1.07-2.695-.7-4.97-2.172-6.912-4.114-1.686-1.58-3.538-3.878-3.538-6.334 0-.905.33-1.81.905-2.55.634-.633 2.188-1.738 2.963-.576.247.494 1.234 2.715 1.316 3.126.153.46-.26 1.084-.576 1.399-.247.246-.576.658-.576.658-.266.266.037.65.165.905.958 1.724 2.745 3.221 4.525 4.03.343.137.964.623 1.235.083 1.89-2.161 2.54-1.247 5.101-.083z" fill="#0085FF" fill-opacity=".3"></path>
    <path d="M10.206 11.789s.33-.412.576-.658c.315-.315.73-.94.576-1.399-.082-.411-1.07-2.632-1.316-3.126-.775-1.162-2.33-.057-2.963.576-.576.74-.905 1.645-.905 2.55 0 2.456 1.852 4.753 3.538 6.334 1.943 1.942 4.217 3.415 6.912 4.113 1.477.492 3.037.008 4.114-1.07.46-.458 1.308-1.978.494-2.385-2.561-1.164-3.21-2.078-5.101.083-.27.54-.892.055-1.235-.083-1.78-.809-3.567-2.306-4.525-4.03-.128-.256-.431-.639-.165-.905z" fill="#0085FF" fill-opacity=".3"></path>
    <path clip-rule="evenodd" d="M13.991 25.855c-2.221 0-4.443-.576-6.336-1.727l-.493-.247-4.773 1.234 1.234-4.689-.329-.493C-.326 14.091 1.402 6.36 7.326 2.74 13.251-.88 20.903.848 24.523 6.77c3.621 5.924 1.893 13.574-4.031 17.193-1.893 1.234-4.197 1.892-6.5 1.892zm7.241-9.13c.814.406-.035 1.926-.494 2.385-1.077 1.077-2.637 1.561-4.114 1.07-2.695-.7-4.97-2.172-6.912-4.114-1.686-1.58-3.538-3.878-3.538-6.334 0-.905.33-1.81.905-2.55.634-.633 2.188-1.738 2.963-.576.247.494 1.234 2.715 1.316 3.126.153.46-.26 1.084-.576 1.399-.247.246-.576.658-.576.658-.266.266.037.65.165.905.958 1.724 2.745 3.221 4.525 4.03.343.137.964.623 1.235.083 1.89-2.161 2.54-1.247 5.101-.083z" stroke="#0085FF" stroke-width="1.6"></path>
    <path d="M10.206 11.789s.33-.412.576-.658c.315-.315.73-.94.576-1.399-.082-.411-1.07-2.632-1.316-3.126-.775-1.162-2.33-.057-2.963.576-.576.74-.905 1.645-.905 2.55 0 2.456 1.852 4.753 3.538 6.334 1.943 1.942 4.217 3.415 6.912 4.113 1.477.492 3.037.008 4.114-1.07.46-.458 1.308-1.978.494-2.385-2.561-1.164-3.21-2.078-5.101.083-.27.54-.892.055-1.235-.083-1.78-.809-3.567-2.306-4.525-4.03-.128-.256-.431-.639-.165-.905z" stroke="#0085FF" stroke-width="1.6"></path>
  </symbol>
</svg>
<svg class="icon">
  <use xlink:href="#money"></use>
</svg><svg class="icon">
  <use xlink:href="#cascade"></use>
</svg><svg class="icon">
  <use xlink:href="#voice"></use>
</svg><svg class="icon">
  <use xlink:href="#target"></use>
</svg><svg class="icon">
  <use xlink:href="#integr"></use>
</svg><svg class="icon">
  <use xlink:href="#viber"></use>
</svg><svg class="icon">
  <use xlink:href="#short"></use>
</svg><svg class="icon">
  <use xlink:href="#mail"></use>
</svg><svg class="icon">
  <use xlink:href="#protect"></use>
</svg><svg class="icon">
  <use xlink:href="#cabinet"></use>
</svg><svg class="icon">
  <use xlink:href="#api"></use>
</svg><svg class="icon">
  <use xlink:href="#tg"></use>
</svg><svg class="icon">
  <use xlink:href="#wp"></use>
</svg>