<svg width="21" height="17" viewBox="0 0 21 17" fill="none" xmlns="http://www.w3.org/2000/svg">
<path fill-rule="evenodd" clip-rule="evenodd" d="M0.5 1.37445C0.5 0.822166 0.947715 0.374451 1.5 0.374451L19.5 0.374451C20.0523 0.374451 20.5 0.822166 20.5 1.37445V15.6245C20.5 16.1767 20.0523 16.6245 19.5 16.6245H1.5C0.947715 16.6245 0.5 16.1767 0.5 15.6245L0.5 1.37445ZM3.02785 3.05861C3.02785 2.54084 3.44758 2.12111 3.96535 2.12111C4.48311 2.12111 4.90285 2.54084 4.90285 3.05861C4.90285 3.57637 4.48311 3.99611 3.96535 3.99611C3.44758 3.99611 3.02785 3.57637 3.02785 3.05861ZM7.09035 2.12111C6.57258 2.12111 6.15285 2.54084 6.15285 3.05861C6.15285 3.57637 6.57258 3.99611 7.09035 3.99611C7.60811 3.99611 8.02785 3.57637 8.02785 3.05861C8.02785 2.54084 7.60811 2.12111 7.09035 2.12111ZM9.27785 3.05861C9.27785 2.54084 9.69758 2.12111 10.2153 2.12111C10.7331 2.12111 11.1528 2.54084 11.1528 3.05861C11.1528 3.57637 10.7331 3.99611 10.2153 3.99611C9.69758 3.99611 9.27785 3.57637 9.27785 3.05861ZM17.9826 6.4294C17.9826 5.87712 17.5349 5.4294 16.9826 5.4294L4.01738 5.4294C3.46509 5.4294 3.01738 5.87712 3.01738 6.4294L3.01738 13.0389C3.01738 13.5912 3.46509 14.0389 4.01738 14.0389H16.9826C17.5349 14.0389 17.9826 13.5912 17.9826 13.0389V6.4294Z" fill="white"/>
</svg>
