<svg width="21" height="21" viewBox="0 0 21 21" fill="none" xmlns="http://www.w3.org/2000/svg">
<path fill-rule="evenodd" clip-rule="evenodd" d="M8.74334 0.488342C9.15788 0.488342 9.49394 0.824565 9.49394 1.23932V2.47711H11.4938V1.23932C11.4938 0.824565 11.8299 0.488342 12.2444 0.488342C12.659 0.488342 12.995 0.824565 12.995 1.23932V2.47711H15.497C17.1539 2.47711 18.497 3.82026 18.497 5.47711V7.98606H19.753C20.1673 7.98606 20.5032 8.32211 20.5032 8.73665C20.5032 9.1512 20.1673 9.48725 19.753 9.48725H18.497V11.4905L19.753 11.4905C20.1673 11.4905 20.5032 11.8266 20.5032 12.2411C20.5032 12.6557 20.1673 12.9917 19.753 12.9917H18.497V15.4979C18.497 17.1547 17.1539 18.4979 15.497 18.4979H12.995V19.7374C12.995 20.1521 12.659 20.4884 12.2444 20.4884C11.8299 20.4884 11.4938 20.1521 11.4938 19.7374V18.4979H9.49393V19.7374C9.49393 20.1521 9.15788 20.4884 8.74334 20.4884C8.32879 20.4884 7.99274 20.1521 7.99274 19.7374V18.4979H5.49194C3.83509 18.4979 2.49194 17.1547 2.49194 15.4979V12.9917H1.25341C0.839067 12.9917 0.503174 12.6557 0.503174 12.2411C0.503174 11.8266 0.839067 11.4905 1.25341 11.4905L2.49194 11.4905V9.48725H1.25341C0.839067 9.48725 0.503174 9.1512 0.503174 8.73665C0.503174 8.32211 0.839067 7.98606 1.25341 7.98606H2.49194V5.47711C2.49194 3.82026 3.83509 2.47711 5.49194 2.47711H7.99274V1.23932C7.99274 0.824565 8.32879 0.488342 8.74334 0.488342ZM12.7396 7.73969C13.0158 7.73969 13.2396 7.96355 13.2396 8.23969L13.2396 12.7373C13.2396 13.0135 13.0158 13.2373 12.7396 13.2373H8.24737C7.97123 13.2373 7.74738 13.0135 7.74738 12.7373L7.74738 8.23969C7.74738 7.96355 7.97123 7.73969 8.24738 7.73969H12.7396ZM6.51868 7.73969C6.51868 7.06043 7.06878 6.50978 7.74738 6.50978H13.2396C13.9182 6.50978 14.4683 7.06043 14.4683 7.73969V13.2373C14.4683 13.9166 13.9182 14.4672 13.2396 14.4672H7.74738C7.06878 14.4672 6.51868 13.9166 6.51868 13.2373V7.73969Z" fill="white"/>
</svg>
