<svg width="28" height="27" viewBox="0 0 28 27" fill="none" xmlns="http://www.w3.org/2000/svg">
<path fill-rule="evenodd" clip-rule="evenodd" d="M13.9912 25.8552C11.7696 25.8552 9.5479 25.2794 7.65537 24.1278L7.16167 23.881L2.38921 25.1149L3.62347 20.426L3.29433 19.9325C-0.326156 14.092 1.4018 6.35954 7.32623 2.74008C13.2507 -0.879371 20.9031 0.848094 24.5235 6.77084C28.144 12.6936 26.4161 20.3438 20.4916 23.9632C18.5991 25.1971 16.2952 25.8552 13.9912 25.8552ZM21.2322 16.7243C22.0457 17.131 21.1974 18.6511 20.7385 19.1099C19.6613 20.1868 18.1011 20.6714 16.6243 20.1793C13.9293 19.4808 11.6546 18.0079 9.71246 16.0663C8.02571 14.4854 6.17426 12.1879 6.17426 9.73221C6.17426 8.82734 6.5034 7.92248 7.07938 7.18214C7.71264 6.54906 9.26676 5.44439 10.0416 6.60632C10.2885 7.09988 11.2759 9.32091 11.3581 9.73221C11.5112 10.1912 11.0973 10.8156 10.7822 11.1306C10.5353 11.3774 10.2062 11.7887 10.2062 11.7887C9.93976 12.055 10.2429 12.4381 10.3707 12.6936C11.3293 14.4185 13.116 15.9153 14.8963 16.7243C15.2394 16.8615 15.8603 17.347 16.1306 16.8066C18.0218 14.6459 18.6707 15.5604 21.2322 16.7243Z" fill="#0085FF" fill-opacity="0.3"/>
<path d="M10.2062 11.7887C10.2062 11.7887 10.5353 11.3774 10.7822 11.1306C11.0973 10.8156 11.5112 10.1912 11.3581 9.73221C11.2759 9.32091 10.2885 7.09988 10.0416 6.60632C9.26676 5.44439 7.71264 6.54906 7.07938 7.18214C6.5034 7.92248 6.17426 8.82734 6.17426 9.73221C6.17426 12.1879 8.02571 14.4854 9.71246 16.0663C11.6546 18.0079 13.9293 19.4808 16.6243 20.1793C18.1011 20.6714 19.6613 20.1868 20.7385 19.1099C21.1974 18.6511 22.0457 17.131 21.2322 16.7243C18.6707 15.5604 18.0218 14.6459 16.1306 16.8066C15.8603 17.347 15.2394 16.8615 14.8963 16.7243C13.116 15.9153 11.3293 14.4185 10.3707 12.6936C10.2429 12.4381 9.93976 12.055 10.2062 11.7887Z" fill="#0085FF" fill-opacity="0.3"/>
<path fill-rule="evenodd" clip-rule="evenodd" d="M13.9912 25.8552C11.7696 25.8552 9.5479 25.2794 7.65537 24.1278L7.16167 23.881L2.38921 25.1149L3.62347 20.426L3.29433 19.9325C-0.326156 14.092 1.4018 6.35954 7.32623 2.74008C13.2507 -0.879371 20.9031 0.848094 24.5235 6.77084C28.144 12.6936 26.4161 20.3438 20.4916 23.9632C18.5991 25.1971 16.2952 25.8552 13.9912 25.8552ZM21.2322 16.7243C22.0457 17.131 21.1974 18.6511 20.7385 19.1099C19.6613 20.1868 18.1011 20.6714 16.6243 20.1793C13.9293 19.4808 11.6546 18.0079 9.71246 16.0663C8.02571 14.4854 6.17426 12.1879 6.17426 9.73221C6.17426 8.82734 6.5034 7.92248 7.07938 7.18214C7.71264 6.54906 9.26676 5.44439 10.0416 6.60632C10.2885 7.09988 11.2759 9.32091 11.3581 9.73221C11.5112 10.1912 11.0973 10.8156 10.7822 11.1306C10.5353 11.3774 10.2062 11.7887 10.2062 11.7887C9.93976 12.055 10.2429 12.4381 10.3707 12.6936C11.3293 14.4185 13.116 15.9153 14.8963 16.7243C15.2394 16.8615 15.8603 17.347 16.1306 16.8066C18.0218 14.6459 18.6707 15.5604 21.2322 16.7243Z" stroke="#0085FF" stroke-width="1.6"/>
<path d="M10.2062 11.7887C10.2062 11.7887 10.5353 11.3774 10.7822 11.1306C11.0973 10.8156 11.5112 10.1912 11.3581 9.73221C11.2759 9.32091 10.2885 7.09988 10.0416 6.60632C9.26676 5.44439 7.71264 6.54906 7.07938 7.18214C6.5034 7.92248 6.17426 8.82734 6.17426 9.73221C6.17426 12.1879 8.02571 14.4854 9.71246 16.0663C11.6546 18.0079 13.9293 19.4808 16.6243 20.1793C18.1011 20.6714 19.6613 20.1868 20.7385 19.1099C21.1974 18.6511 22.0457 17.131 21.2322 16.7243C18.6707 15.5604 18.0218 14.6459 16.1306 16.8066C15.8603 17.347 15.2394 16.8615 14.8963 16.7243C13.116 15.9153 11.3293 14.4185 10.3707 12.6936C10.2429 12.4381 9.93976 12.055 10.2062 11.7887Z" stroke="#0085FF" stroke-width="1.6"/>
</svg>
