<svg width="26" height="22" viewBox="0 0 26 22" fill="none" xmlns="http://www.w3.org/2000/svg">
<path d="M17.6584 8.23458C17.6583 8.23464 17.6565 8.23509 17.6531 8.23574C17.6567 8.23483 17.6584 8.23451 17.6584 8.23458ZM16.9259 7.28123C16.926 7.28122 16.9253 7.28266 16.9236 7.28562C16.925 7.28273 16.9258 7.28124 16.9259 7.28123ZM12.2462 9.46591C10.8558 10.3099 9.32073 11.2416 7.81551 12.1064C7.2249 12.4293 6.55526 12.4742 5.78215 12.3496C5.15256 12.2482 4.53194 12.0508 3.87877 11.843C3.71283 11.7902 3.54479 11.7367 3.37396 11.684C3.18851 11.6078 2.96651 11.5212 2.75146 11.4372C2.57357 11.3677 2.40045 11.3001 2.25672 11.2419C1.93206 11.1103 1.65861 10.9888 1.45052 10.873C3.39759 9.82195 5.50484 8.90176 7.59379 7.98957C8.12603 7.75715 8.65707 7.52526 9.18398 7.29185C13.7626 5.36065 18.3523 3.46594 22.9852 1.70269C23.4019 1.56533 23.8963 1.46282 24.2598 1.5007C24.4344 1.5189 24.5113 1.56292 24.5387 1.58555L24.5395 1.58623C24.5492 1.59414 24.5848 1.6232 24.6061 1.73354C24.5425 3.00933 24.3572 4.2611 24.1656 5.55493C24.083 6.11318 23.9992 6.67927 23.9235 7.25849C23.3953 10.7635 22.7976 14.258 22.1986 17.7604C22.0902 18.3942 21.9818 19.0283 21.8737 19.6627C21.7275 20.4828 20.684 20.8618 20.086 20.3844L20.0611 20.3645L20.0347 20.3467C19.3797 19.9042 18.7245 19.4636 18.07 19.0234C16.088 17.6904 14.1119 16.3613 12.1638 14.9987C12.0475 14.8568 12.0229 14.689 12.125 14.4168C12.2502 14.0829 12.5378 13.7233 12.8424 13.4759L12.8583 13.4629L12.8736 13.4491C15.5695 11.0187 17.1483 9.5069 17.8639 8.68055C18.042 8.47484 18.1958 8.2788 18.2997 8.10208C18.3496 8.01714 18.4142 7.8934 18.4501 7.74701C18.4824 7.61498 18.5292 7.30121 18.3136 7.00357C18.0939 6.70032 17.7746 6.65037 17.6334 6.643C17.4812 6.63506 17.3454 6.663 17.2568 6.68559C17.0714 6.73287 16.8658 6.81803 16.6675 6.91017C15.8714 7.28014 14.5188 8.08863 12.9696 9.02712C12.7337 9.17007 12.4922 9.31662 12.2462 9.46591ZM1.15268 10.6655C1.15272 10.6655 1.15337 10.6663 1.1545 10.6678C1.15321 10.6663 1.15264 10.6655 1.15268 10.6655ZM1.15582 11.0573C1.15554 11.0573 1.15733 11.0549 1.16201 11.0499C1.15844 11.0548 1.1561 11.0573 1.15582 11.0573Z" fill="#0085FF" fill-opacity="0.3" stroke="#0085FF" stroke-width="1.6"/>
</svg>
