<svg width="15" height="17" viewBox="0 0 15 17" fill="none" xmlns="http://www.w3.org/2000/svg">
<path d="M8.52156 10.4454L5.93773 10.1381L5.77826 11.4787L9.67838 11.9427L9.38263 14.429L5.48251 13.9651L5.14326 16.817L1.65753 16.4024L1.99677 13.5504L0.339223 13.3533L0.634975 10.8669L2.29253 11.0641L2.4665 9.60157L0.808946 9.4044L1.13949 6.62556L2.79704 6.82273L3.58571 0.192529L9.65527 0.91451C11.1341 1.09041 12.2682 1.67029 13.0576 2.65413C13.847 3.63797 14.1566 4.84492 13.9865 6.27496C13.8164 7.705 13.2241 8.80466 12.2097 9.57394C11.2135 10.3289 9.9841 10.6194 8.52156 10.4454ZM10.5495 5.86613C10.6094 5.36236 10.4881 4.92768 10.1855 4.56207C9.8829 4.19647 9.46346 3.98177 8.9272 3.91799L6.709 3.65413L6.30017 7.09111L8.51836 7.35496C9.05463 7.41875 9.51272 7.30844 9.89264 7.02402C10.2726 6.73961 10.4915 6.35364 10.5495 5.86613Z" fill="white"/>
</svg>
