<svg width="421" height="272" viewBox="0 0 421 272" fill="none" xmlns="http://www.w3.org/2000/svg">
<path d="M265.23 258.736C263.763 259.219 262.596 259.979 261.884 260.766C261.147 261.579 261.039 262.232 261.169 262.626C261.299 263.021 261.773 263.482 262.848 263.699C263.889 263.909 265.279 263.828 266.746 263.346C268.213 262.863 269.379 262.103 270.092 261.316C270.829 260.503 270.936 259.851 270.807 259.456C270.677 259.061 270.203 258.6 269.127 258.383C268.087 258.174 266.697 258.254 265.23 258.736Z" stroke="#FF6600" stroke-width="2.11852"/>
<path d="M406.051 151.245C404.584 151.728 403.417 152.488 402.705 153.275C401.968 154.088 401.86 154.74 401.99 155.135C402.12 155.53 402.594 155.991 403.669 156.208C404.71 156.417 406.1 156.337 407.567 155.855C409.033 155.372 410.2 154.612 410.913 153.825C411.649 153.012 411.757 152.36 411.627 151.965C411.498 151.57 411.023 151.109 409.948 150.892C408.908 150.682 407.517 150.763 406.051 151.245Z" stroke="#FF6600" stroke-width="2.11852"/>
<path d="M232.804 9.98717C231.762 11.1266 231.118 12.3614 230.882 13.3963C230.638 14.4661 230.864 15.0877 231.171 15.368C231.477 15.6484 232.117 15.8178 233.16 15.4797C234.17 15.1527 235.342 14.4011 236.384 13.2617C237.426 12.1222 238.07 10.8875 238.306 9.85253C238.55 8.78277 238.324 8.16117 238.017 7.88081C237.711 7.60046 237.071 7.43106 236.028 7.7691C235.018 8.09615 233.846 8.84769 232.804 9.98717Z" stroke="#FF6600" stroke-width="2.11852"/>
<path d="M58.7535 33.9324C60.2066 34.4544 61.5942 34.5724 62.6399 34.3907C63.7209 34.2029 64.2073 33.7549 64.3478 33.3639C64.4882 32.9729 64.398 32.3178 63.6836 31.4851C62.9924 30.6795 61.8469 29.8877 60.3938 29.3657C58.9406 28.8438 57.5531 28.7257 56.5073 28.9074C55.4263 29.0952 54.9399 29.5432 54.7994 29.9342C54.659 30.3252 54.7492 30.9804 55.4636 31.813C56.1548 32.6186 57.3003 33.4104 58.7535 33.9324Z" stroke="#FF6600" stroke-width="2.11852"/>
<path d="M41.532 87.764L40.5324 87.7352L41.532 87.764ZM72.6196 98.6459L71.6229 98.5643L72.6196 98.6459ZM41.2824 104.852L42.2774 104.951L41.2824 104.852ZM70.4454 117.114L69.4457 117.09L70.4454 117.114ZM50.2875 129.228C50.2875 129.78 49.8398 130.228 49.2875 130.228C48.7352 130.228 48.2875 129.78 48.2875 129.228L50.2875 129.228ZM64.8431 76.9353C64.6666 77.0619 64.4744 77.1183 64.401 77.1396C64.2941 77.1706 64.1765 77.1965 64.0613 77.2189C63.829 77.264 63.5314 77.3091 63.1941 77.356C62.4347 77.4618 61.6778 77.5523 60.5382 77.7124C58.4072 78.0117 55.6701 78.4595 52.9619 79.2058C50.2406 79.9557 47.6232 80.9875 45.6871 82.4168C43.7713 83.8311 42.5956 85.5729 42.5316 87.7928L40.5324 87.7352C40.6193 84.7201 42.2557 82.4641 44.4992 80.8077C46.7226 79.1663 49.6118 78.0544 52.4305 77.2777C55.2622 76.4974 58.0984 76.0354 60.26 75.7318C61.2668 75.5904 62.3359 75.4562 62.9183 75.3751C63.2518 75.3287 63.504 75.2898 63.6798 75.2556C63.7686 75.2384 63.8197 75.2258 63.8435 75.2189C63.9008 75.2022 63.8013 75.2212 63.677 75.3104L64.8431 76.9353ZM42.5316 87.7928C42.4994 88.911 42.8622 89.6517 43.4806 90.203C44.1444 90.7946 45.1809 91.2351 46.5939 91.5296C49.4324 92.1211 53.2853 92.0337 57.299 91.9575C61.2225 91.8831 65.3141 91.8186 68.3609 92.5582C69.8935 92.9303 71.2882 93.5328 72.2684 94.5499C73.2863 95.6062 73.7573 97.005 73.6162 98.7275L71.6229 98.5643C71.7237 97.3333 71.3945 96.5254 70.8282 95.9377C70.2242 95.3109 69.2508 94.8323 67.8891 94.5018C65.1475 93.8363 61.3465 93.8811 57.337 93.9572C53.4177 94.0316 49.2973 94.1359 46.1859 93.4875C44.6239 93.1619 43.1914 92.6244 42.1498 91.6959C41.063 90.7271 40.4843 89.4055 40.5324 87.7352L42.5316 87.7928ZM73.6162 98.7275C73.474 100.464 72.8029 101.783 71.6491 102.671C70.5345 103.528 69.0857 103.894 67.5475 104.004C64.4962 104.222 60.5739 103.457 56.8427 102.738C53.0145 102 49.3745 101.306 46.6173 101.5C45.2511 101.595 44.2298 101.904 43.5339 102.426C42.8771 102.919 42.4043 103.682 42.2774 104.951L40.2873 104.752C40.461 103.015 41.1622 101.705 42.3334 100.826C43.4657 99.9764 44.9265 99.6132 46.4775 99.5046C49.5547 99.2889 53.4889 100.055 57.2214 100.774C61.0509 101.513 64.6758 102.204 67.4048 102.009C68.7567 101.912 69.7563 101.603 70.4293 101.086C71.063 100.598 71.5185 99.8391 71.6229 98.5643L73.6162 98.7275ZM42.2774 104.951C42.1501 106.225 42.4481 107.079 42.9703 107.703C43.5187 108.358 44.4093 108.871 45.664 109.252C48.2027 110.022 51.7552 110.116 55.5392 110.189C59.228 110.26 63.1369 110.311 66.0956 111.1C67.5862 111.497 68.9471 112.108 69.9316 113.096C70.9489 114.117 71.486 115.463 71.4451 117.139L69.4457 117.09C69.4744 115.913 69.115 115.11 68.5148 114.508C67.8819 113.872 66.9042 113.385 65.5805 113.032C62.9104 112.321 59.2868 112.262 55.5006 112.189C51.8095 112.118 47.9443 112.033 45.0835 111.166C43.6385 110.728 42.3339 110.058 41.4368 108.986C40.5135 107.884 40.1157 106.469 40.2873 104.752L42.2774 104.951ZM71.4451 117.139C71.4106 118.553 70.9941 119.689 70.2001 120.543C69.4232 121.379 68.3787 121.843 67.2757 122.112C65.1317 122.635 62.3084 122.507 59.7832 122.523C57.1324 122.54 54.7471 122.707 53.0262 123.615C52.1972 124.052 51.5327 124.657 51.0652 125.516C50.5922 126.385 50.2875 127.576 50.2875 129.228L48.2875 129.228C48.2875 127.335 48.6365 125.795 49.3084 124.56C49.9859 123.316 50.9575 122.444 52.0934 121.845C54.3023 120.681 57.1617 120.54 59.7705 120.523C62.5049 120.506 64.9562 120.619 66.8017 120.169C67.6934 119.951 68.3224 119.625 68.7352 119.181C69.131 118.755 69.4205 118.122 69.4457 117.09L71.4451 117.139Z" fill="black"/>
<path d="M188.851 37.2317L189.515 36.4846L188.851 37.2317ZM175.447 67.318L176.071 66.5367L175.447 67.318ZM201.457 48.7703L200.847 49.5626L201.457 48.7703ZM190.378 78.4031L191.045 77.6589L190.378 78.4031ZM213.21 69.6503C213.742 69.7966 214.293 69.4834 214.439 68.9508C214.585 68.4183 214.272 67.868 213.74 67.7217L213.21 69.6503ZM164.982 46.7678C165.195 46.7263 165.368 46.6251 165.434 46.5863C165.53 46.5298 165.629 46.462 165.724 46.3935C165.917 46.2554 166.153 46.0697 166.419 45.8565C167.017 45.3764 167.602 44.8877 168.5 44.1682C170.179 42.8228 172.383 41.1381 174.783 39.6792C177.196 38.2133 179.742 37.0162 182.11 36.5877C184.453 36.1637 186.527 36.5028 188.186 37.9789L189.515 36.4846C187.262 34.4797 184.498 34.1231 181.753 34.6197C179.034 35.1118 176.243 36.4516 173.745 37.97C171.235 39.4954 168.953 41.2425 167.25 42.6073C166.456 43.2429 165.625 43.9289 165.167 44.2971C164.904 44.5079 164.703 44.6647 164.557 44.7693C164.484 44.8221 164.44 44.8506 164.418 44.8631C164.367 44.8934 164.449 44.834 164.599 44.8048L164.982 46.7678ZM188.186 37.9789C189.022 38.7224 189.312 39.4944 189.289 40.3226C189.264 41.2114 188.874 42.2678 188.119 43.498C186.603 45.9694 183.896 48.7131 181.088 51.5817C178.343 54.3857 175.489 57.319 173.938 60.0434C173.157 61.4139 172.639 62.8421 172.707 64.253C172.778 65.7182 173.472 67.0204 174.823 68.0992L176.071 66.5367C175.106 65.7657 174.744 64.972 174.705 64.1569C174.663 63.2874 174.982 62.2508 175.676 61.0332C177.072 58.5816 179.712 55.8464 182.517 52.9808C185.259 50.1798 188.162 47.2529 189.824 44.544C190.658 43.1841 191.25 41.7729 191.288 40.3781C191.329 38.9227 190.764 37.5952 189.515 36.4846L188.186 37.9789ZM174.823 68.0992C176.184 69.1871 177.604 69.6028 179.041 69.3722C180.43 69.1494 181.69 68.3459 182.825 67.3021C185.077 65.2314 187.21 61.8526 189.246 58.6439C191.335 55.3518 193.327 52.2273 195.358 50.3535C196.365 49.4249 197.29 48.8931 198.147 48.7449C198.956 48.605 199.836 48.7842 200.847 49.5626L202.067 47.9779C200.683 46.9128 199.249 46.5247 197.806 46.7741C196.412 47.0152 195.145 47.8292 194.002 48.8833C191.735 50.9747 189.593 54.3627 187.557 57.5725C185.468 60.8657 183.485 63.978 181.471 65.8299C180.473 66.7474 179.563 67.2629 178.724 67.3974C177.935 67.5241 177.07 67.3352 176.071 66.5367L174.823 68.0992ZM200.847 49.5626C201.861 50.3435 202.278 51.1462 202.374 51.954C202.474 52.8023 202.237 53.8029 201.653 54.9769C200.472 57.3525 198.105 60.0023 195.562 62.806C193.084 65.5392 190.44 68.4186 188.984 71.1125C188.251 72.4698 187.762 73.8789 187.806 75.2731C187.851 76.7137 188.462 78.0276 189.71 79.1474L191.045 77.6589C190.169 76.8727 189.831 76.0602 189.805 75.2104C189.777 74.314 190.093 73.2685 190.744 72.0633C192.058 69.6321 194.5 66.9548 197.044 64.1495C199.524 61.4146 202.114 58.5441 203.444 55.8673C204.117 54.5151 204.524 53.1064 204.36 51.7187C204.191 50.2905 203.434 49.0304 202.067 47.9779L200.847 49.5626ZM189.71 79.1474C190.719 80.0534 191.738 80.5868 192.794 80.7032C193.861 80.8207 194.822 80.4969 195.676 79.9676C196.515 79.4476 197.295 78.7021 198.04 77.8952C198.782 77.09 199.551 76.1518 200.324 75.2455C201.906 73.3911 203.585 71.5737 205.647 70.4228C207.66 69.2988 210.077 68.7899 213.21 69.6503L213.74 67.7217C210.081 66.7169 207.125 67.3069 204.672 68.6765C202.267 70.019 200.387 72.0896 198.802 73.9478C197.992 74.8979 197.277 75.7721 196.569 76.5393C195.863 77.3049 195.228 77.8917 194.622 78.2677C194.03 78.6345 193.515 78.7705 193.013 78.7152C192.501 78.6588 191.857 78.387 191.045 77.6589L189.71 79.1474Z" fill="black"/>
<path opacity="0.5" d="M354.562 43.2151C292.878 28.88 181.761 13.5023 230.76 66.672C292.01 133.134 385.839 213.931 301.132 200.899C216.425 187.868 187.755 61.4592 134.325 86.2197C80.8946 110.98 281.584 219.144 213.819 234.782C146.053 250.42 116.08 156.591 41.7992 172.229" stroke="#F5F8FD" stroke-width="15.7886"/>
<path d="M211.236 59.4357L228.797 52.9111V83.2805L211.236 75.6262V59.4357Z" fill="#09F4CC"/>
<path d="M207.523 66.1084C207.523 64.0578 209.185 62.3955 211.236 62.3955V72.726C209.185 72.726 207.523 71.0636 207.523 69.0131V66.1084Z" fill="#7D8499"/>
<g filter="url(#filter0_f)">
<ellipse cx="226.391" cy="67.0576" rx="9.41028" ry="11.6967" fill="#00C9A7"/>
</g>
<path d="M219.107 79.6548L220.016 56.5361" stroke="black" stroke-width="2.10514" stroke-linecap="round"/>
<path d="M319.628 144.538L318.958 145.281L319.628 144.538ZM346.219 131.485L345.511 132.191L346.219 131.485ZM332.482 155.546L333.202 154.852L332.482 155.546ZM362.431 139.688L361.765 140.433L362.431 139.688ZM356.377 162.758C356.797 163.116 356.848 163.747 356.49 164.168C356.132 164.588 355.501 164.639 355.08 164.281L356.377 162.758ZM325.393 124.008C325.374 124.22 325.295 124.394 325.266 124.457C325.223 124.55 325.172 124.645 325.121 124.732C325.019 124.908 324.882 125.123 324.726 125.359C324.569 125.598 324.382 125.877 324.177 126.184C323.97 126.493 323.743 126.834 323.5 127.204C322.528 128.686 321.327 130.617 320.341 132.695C319.348 134.784 318.608 136.951 318.496 138.915C318.386 140.847 318.881 142.518 320.298 143.796L318.958 145.281C316.98 143.497 316.364 141.171 316.5 138.801C316.633 136.464 317.495 134.025 318.534 131.837C319.578 129.636 320.838 127.616 321.828 126.107C322.076 125.729 322.307 125.381 322.515 125.072C322.723 124.76 322.904 124.491 323.055 124.261C323.208 124.028 323.318 123.854 323.39 123.731C323.426 123.668 323.442 123.635 323.447 123.624C323.466 123.584 323.414 123.678 323.4 123.834L325.393 124.008ZM320.298 143.796C320.997 144.426 321.7 144.625 322.454 144.554C323.258 144.479 324.189 144.089 325.257 143.386C327.404 141.971 329.731 139.547 332.178 137.017C334.566 134.549 337.077 131.971 339.478 130.501C340.688 129.76 341.963 129.239 343.255 129.212C344.593 129.183 345.838 129.687 346.927 130.779L345.511 132.191C344.775 131.453 344.045 131.195 343.298 131.211C342.504 131.228 341.583 131.557 340.523 132.206C338.383 133.516 336.059 135.882 333.616 138.408C331.232 140.872 328.732 143.491 326.357 145.056C325.163 145.843 323.909 146.427 322.64 146.545C321.322 146.669 320.067 146.281 318.958 145.281L320.298 143.796ZM346.927 130.779C348.021 131.875 348.536 133.097 348.466 134.404C348.398 135.661 347.797 136.845 346.986 137.926C345.379 140.068 342.618 142.218 340.018 144.254C337.34 146.35 334.82 148.333 333.39 150.233C332.683 151.173 332.323 151.991 332.276 152.703C332.233 153.366 332.451 154.071 333.202 154.852L331.761 156.239C330.685 155.121 330.194 153.884 330.281 152.572C330.364 151.309 330.973 150.119 331.792 149.03C333.416 146.873 336.184 144.715 338.785 142.679C341.464 140.581 343.974 138.608 345.386 136.725C346.085 135.794 346.431 134.991 346.469 134.297C346.503 133.653 346.279 132.961 345.511 132.191L346.927 130.779ZM333.202 154.852C333.906 155.583 334.648 155.827 335.475 155.763C336.363 155.696 337.419 155.267 338.643 154.479C341.098 152.901 343.834 150.153 346.685 147.257C349.482 144.416 352.39 141.434 355.077 139.6C356.423 138.682 357.803 137.987 359.162 137.784C360.574 137.572 361.93 137.898 363.098 138.942L361.765 140.433C361.076 139.817 360.33 139.631 359.458 139.761C358.533 139.9 357.446 140.405 356.204 141.252C353.715 142.95 350.963 145.763 348.11 148.661C345.31 151.504 342.407 154.437 339.725 156.162C338.381 157.026 336.994 157.654 335.627 157.758C334.2 157.866 332.875 157.397 331.761 156.239L333.202 154.852ZM363.098 138.942C364.079 139.82 364.567 140.856 364.585 142.002C364.601 143.096 364.187 144.173 363.614 145.18C362.485 147.164 360.46 149.326 358.692 151.382C356.852 153.521 355.262 155.57 354.649 157.513C354.351 158.455 354.3 159.327 354.534 160.153C354.768 160.979 355.315 161.854 356.377 162.758L355.08 164.281C353.786 163.179 352.974 161.984 352.61 160.698C352.245 159.413 352.355 158.134 352.742 156.91C353.496 154.522 355.365 152.183 357.175 150.078C359.057 147.89 360.872 145.954 361.876 144.191C362.369 143.323 362.594 142.613 362.585 142.033C362.577 141.504 362.376 140.979 361.765 140.433L363.098 138.942Z" fill="black"/>
<path d="M166.551 54.6276L154.109 68.6341L139.85 41.8208L158.949 40.3329L166.551 54.6276Z" fill="#09F4CC"/>
<path d="M166.696 46.9919C167.659 48.8023 166.972 51.0506 165.161 52.0134L160.31 42.8926C162.121 41.9297 164.369 42.6169 165.332 44.4273L166.696 46.9919Z" fill="#7D8499"/>
<g filter="url(#filter1_f)">
<ellipse cx="149.592" cy="55.0133" rx="9.41028" ry="11.6967" transform="rotate(151.995 149.592 55.0133)" fill="#00C9A7"/>
</g>
<path d="M153 39.521L158.05 65.6903" stroke="black" stroke-width="2.10514" stroke-linecap="round"/>
<path d="M58.1943 131.799L64.7189 149.36L34.3496 149.36L42.0038 131.799L58.1943 131.799Z" fill="#0085FF"/>
<g filter="url(#filter2_f)">
<ellipse cx="50.5723" cy="146.954" rx="9.41028" ry="11.6967" transform="rotate(90 50.5723 146.954)" fill="#006CD0"/>
</g>
<path d="M38.2384 140.37L61.3406 139.112" stroke="black" stroke-width="2.10514" stroke-linecap="round"/>
<path d="M50.9865 128.086C53.0371 128.086 54.6994 129.748 54.6994 131.799L44.369 131.799C44.369 129.748 46.0313 128.086 48.0819 128.086L50.9865 128.086Z" fill="#7D8499"/>
<path d="M232.47 188.856L233.131 188.106L232.47 188.856ZM219.218 219.01L219.838 218.225L219.218 219.01ZM245.134 200.332L244.528 201.127L245.134 200.332ZM234.204 230.02L234.868 229.272L234.204 230.02ZM256.992 221.152C257.525 221.296 258.074 220.98 258.218 220.447C258.361 219.913 258.045 219.365 257.512 219.221L256.992 221.152ZM208.649 198.512C208.862 198.47 209.035 198.368 209.1 198.329C209.196 198.272 209.295 198.203 209.39 198.134C209.582 197.995 209.818 197.808 210.082 197.594C210.677 197.111 211.26 196.619 212.155 195.895C213.827 194.541 216.022 192.846 218.415 191.375C220.82 189.897 223.36 188.687 225.726 188.246C228.067 187.811 230.143 188.139 231.809 189.607L233.131 188.106C230.867 186.112 228.102 185.77 225.36 186.28C222.643 186.786 219.859 188.14 217.368 189.671C214.866 191.209 212.593 192.967 210.896 194.341C210.106 194.98 209.279 195.67 208.822 196.041C208.56 196.253 208.36 196.411 208.215 196.516C208.142 196.569 208.098 196.598 208.077 196.611C208.025 196.641 208.107 196.581 208.257 196.551L208.649 198.512ZM231.809 189.607C232.649 190.346 232.943 191.117 232.924 191.945C232.904 192.834 232.519 193.892 231.77 195.126C230.266 197.605 227.574 200.363 224.78 203.245C222.049 206.063 219.21 209.011 217.672 211.743C216.899 213.117 216.388 214.548 216.463 215.959C216.54 217.423 217.242 218.722 218.597 219.794L219.838 218.225C218.869 217.459 218.503 216.667 218.46 215.852C218.414 214.983 218.728 213.945 219.415 212.724C220.799 210.265 223.425 207.517 226.216 204.637C228.944 201.822 231.831 198.881 233.48 196.164C234.308 194.8 234.892 193.386 234.924 191.991C234.957 190.535 234.385 189.21 233.131 188.106L231.809 189.607ZM218.597 219.794C219.964 220.875 221.386 221.284 222.822 221.046C224.21 220.816 225.466 220.006 226.595 218.957C228.837 216.875 230.953 213.485 232.973 210.266C235.045 206.964 237.021 203.829 239.044 201.945C240.046 201.012 240.968 200.475 241.824 200.323C242.633 200.179 243.513 200.354 244.528 201.127L245.74 199.536C244.351 198.478 242.915 198.097 241.474 198.354C240.08 198.602 238.818 199.422 237.68 200.482C235.423 202.585 233.299 205.984 231.279 209.203C229.206 212.507 227.239 215.629 225.234 217.491C224.241 218.414 223.333 218.934 222.496 219.073C221.707 219.203 220.841 219.019 219.838 218.225L218.597 219.794ZM244.528 201.127C245.546 201.903 245.967 202.703 246.067 203.511C246.172 204.358 245.94 205.36 245.362 206.537C244.193 208.919 241.838 211.58 239.31 214.397C236.846 217.142 234.216 220.035 232.774 222.736C232.048 224.097 231.566 225.509 231.616 226.903C231.669 228.343 232.286 229.654 233.54 230.767L234.868 229.272C233.988 228.49 233.646 227.68 233.615 226.83C233.582 225.934 233.893 224.887 234.538 223.678C235.84 221.24 238.269 218.551 240.798 215.733C243.265 212.985 245.84 210.102 247.157 207.418C247.823 206.063 248.223 204.652 248.052 203.265C247.875 201.838 247.112 200.582 245.74 199.536L244.528 201.127ZM233.54 230.767C234.554 231.668 235.575 232.197 236.632 232.308C237.7 232.42 238.659 232.091 239.51 231.558C240.346 231.033 241.123 230.284 241.863 229.473C242.602 228.664 243.366 227.722 244.135 226.812C245.707 224.95 247.377 223.124 249.433 221.963C251.44 220.829 253.855 220.308 256.992 221.152L257.512 219.221C253.848 218.235 250.895 218.839 248.449 220.221C246.051 221.576 244.181 223.656 242.606 225.522C241.801 226.476 241.09 227.354 240.386 228.125C239.684 228.894 239.052 229.484 238.447 229.863C237.858 230.233 237.343 230.371 236.841 230.319C236.328 230.265 235.683 229.996 234.868 229.272L233.54 230.767Z" fill="black"/>
<path d="M52.0264 68.8805L67.1809 57.8664L75.3619 87.113L56.3879 84.4725L52.0264 68.8805Z" fill="#0085FF"/>
<g filter="url(#filter3_f)">
<ellipse cx="68.6743" cy="72.138" rx="9.41028" ry="11.6967" transform="rotate(-15.6277 68.6743 72.138)" fill="#006CD0"/>
</g>
<path d="M65.6561 85.7901L58.2212 63.8807" stroke="black" stroke-width="2.10514" stroke-linecap="round"/>
<path d="M50.3924 76.8222C49.84 74.8475 50.9931 72.7988 52.9678 72.2464L55.7507 82.1949C53.7759 82.7473 51.7273 81.5943 51.1749 79.6195L50.3924 76.8222Z" fill="#7D8499"/>
<rect x="236.187" y="28.8921" width="169.066" height="94.1926" fill="#1B385E"/>
<rect x="28.0756" y="157.253" width="169.066" height="94.1926" fill="#1B385E"/>
<path d="M330.656 113.759L336.902 123.244" stroke="black" stroke-width="1.05257" stroke-linecap="round"/>
<path d="M122.544 242.121L128.79 251.605" stroke="black" stroke-width="1.05257" stroke-linecap="round"/>
<path d="M303.665 113.759L309.911 123.244" stroke="black" stroke-width="1.05257" stroke-linecap="round"/>
<path d="M95.5533 242.121L101.799 251.605" stroke="black" stroke-width="1.05257" stroke-linecap="round"/>
<path d="M317.161 113.759L323.406 123.244" stroke="black" stroke-width="1.05257" stroke-linecap="round"/>
<path d="M109.049 242.121L115.294 251.605" stroke="black" stroke-width="1.05257" stroke-linecap="round"/>
<path d="M309.934 131.186L303.41 113.625L333.779 113.625L326.125 131.186L309.934 131.186Z" fill="#09F4CC"/>
<path d="M360.478 172.447L350.059 188.016L332.282 163.394L351.001 159.32L360.478 172.447Z" fill="#09F4CC"/>
<g filter="url(#filter4_f)">
<ellipse cx="317.556" cy="116.031" rx="9.41028" ry="11.6967" transform="rotate(-90 317.556 116.031)" fill="#00C9A7"/>
</g>
<g filter="url(#filter5_f)">
<ellipse cx="343.729" cy="175.138" rx="9.41028" ry="11.6967" transform="rotate(144.172 343.729 175.138)" fill="#00C9A7"/>
</g>
<path d="M190.022 199.822L196.268 209.306" stroke="black" stroke-width="1.05257" stroke-linecap="round"/>
<path d="M235.801 123.245V113.495V29.1616C292.186 29.2428 404.955 29.3566 404.955 29.1616V123.245H235.801Z" stroke="#0085FF" stroke-width="1.05257"/>
<path d="M190.022 185.722L196.268 195.206" stroke="black" stroke-width="1.05257" stroke-linecap="round"/>
<path d="M27.6891 251.605V241.856V157.522C84.0738 157.604 196.843 157.717 196.843 157.522V251.605H27.6891Z" stroke="#0085FF" stroke-width="1.05257"/>
<rect x="228.797" y="19.4858" width="169.066" height="94.1926" rx="3.15772" fill="white"/>
<path d="M210.959 198.949C210.959 201 209.296 202.662 207.246 202.662L207.246 192.332C209.296 192.332 210.959 193.994 210.959 196.045L210.959 198.949Z" fill="#7D8499"/>
<path d="M207.246 205.118L189.684 211.643L189.684 181.274L207.246 188.928L207.246 205.118Z" fill="#0085FF"/>
<g filter="url(#filter6_f)">
<ellipse cx="192.091" cy="197.497" rx="9.41028" ry="11.6967" transform="rotate(-180 192.091 197.497)" fill="#006CD0"/>
</g>
<path d="M199.374 184.9L198.465 208.019" stroke="black" stroke-width="2.10514" stroke-linecap="round"/>
<rect x="20.6852" y="147.848" width="169.066" height="94.1926" rx="3.15772" fill="white"/>
<path d="M398.134 113.759L404.379 123.244" stroke="black" stroke-width="1.05257" stroke-linecap="round"/>
<path d="M190.022 242.121L196.268 251.606" stroke="black" stroke-width="1.05257" stroke-linecap="round"/>
<path d="M398.134 99.6602L404.379 109.145" stroke="black" stroke-width="1.05257" stroke-linecap="round"/>
<path d="M190.022 228.021L196.268 237.506" stroke="black" stroke-width="1.05257" stroke-linecap="round"/>
<path d="M398.134 85.5605L404.379 95.0452" stroke="black" stroke-width="1.05257" stroke-linecap="round"/>
<path d="M190.022 213.922L196.268 223.407" stroke="black" stroke-width="1.05257" stroke-linecap="round"/>
<path d="M398.134 71.4604L404.379 80.9451" stroke="black" stroke-width="1.05257" stroke-linecap="round"/>
<path d="M398.134 57.3599L404.379 66.8446" stroke="black" stroke-width="1.05257" stroke-linecap="round"/>
<path d="M398.134 43.2598L404.379 52.7445" stroke="black" stroke-width="1.05257" stroke-linecap="round"/>
<path d="M190.022 171.622L196.268 181.106" stroke="black" stroke-width="1.05257" stroke-linecap="round"/>
<path d="M398.134 29.1611L404.379 38.6458" stroke="black" stroke-width="1.05257" stroke-linecap="round"/>
<path d="M190.022 157.522L196.268 167.007" stroke="black" stroke-width="1.05257" stroke-linecap="round"/>
<path d="M384.638 113.759L390.884 123.244" stroke="black" stroke-width="1.05257" stroke-linecap="round"/>
<path d="M176.527 242.121L182.772 251.605" stroke="black" stroke-width="1.05257" stroke-linecap="round"/>
<path d="M371.143 113.759L377.388 123.244" stroke="black" stroke-width="1.05257" stroke-linecap="round"/>
<path d="M163.031 242.121L169.277 251.605" stroke="black" stroke-width="1.05257" stroke-linecap="round"/>
<path d="M357.647 113.759L363.893 123.244" stroke="black" stroke-width="1.05257" stroke-linecap="round"/>
<path d="M149.536 242.121L155.781 251.605" stroke="black" stroke-width="1.05257" stroke-linecap="round"/>
<path d="M329.89 122.615L306.788 123.873" stroke="black" stroke-width="2.10514" stroke-linecap="round"/>
<path d="M343.198 160.343L355.041 180.218" stroke="black" stroke-width="2.10514" stroke-linecap="round"/>
<path d="M344.152 113.759L350.397 123.244" stroke="black" stroke-width="1.05257" stroke-linecap="round"/>
<path d="M136.04 242.121L142.285 251.605" stroke="black" stroke-width="1.05257" stroke-linecap="round"/>
<path d="M290.17 113.759L296.415 123.244" stroke="black" stroke-width="1.05257" stroke-linecap="round"/>
<path d="M82.0578 242.121L88.3033 251.605" stroke="black" stroke-width="1.05257" stroke-linecap="round"/>
<path d="M276.674 113.759L282.919 123.244" stroke="black" stroke-width="1.05257" stroke-linecap="round"/>
<path d="M68.5623 242.121L74.8078 251.605" stroke="black" stroke-width="1.05257" stroke-linecap="round"/>
<path d="M263.178 113.759L269.424 123.244" stroke="black" stroke-width="1.05257" stroke-linecap="round"/>
<path d="M55.0667 242.121L61.3122 251.605" stroke="black" stroke-width="1.05257" stroke-linecap="round"/>
<path d="M249.683 113.759L255.928 123.244" stroke="black" stroke-width="1.05257" stroke-linecap="round"/>
<path d="M41.5712 242.121L47.8167 251.605" stroke="black" stroke-width="1.05257" stroke-linecap="round"/>
<path d="M236.187 113.759L242.433 123.244" stroke="black" stroke-width="1.05257" stroke-linecap="round"/>
<path d="M28.0756 242.121L34.3211 251.605" stroke="black" stroke-width="1.05257" stroke-linecap="round"/>
<path d="M316.607 134.898C314.556 134.898 312.894 133.236 312.894 131.185L323.225 131.185C323.225 133.236 321.562 134.898 319.512 134.898L316.607 134.898Z" fill="#7D8499"/>
<path d="M252.737 213.16L263.692 196.184L282.525 220.009L262.777 225.862L252.737 213.16Z" fill="#0085FF"/>
<g filter="url(#filter7_f)">
<ellipse cx="269.353" cy="209.742" rx="9.41028" ry="11.6967" transform="rotate(-38.3259 269.353 209.742)" fill="#006CD0"/>
</g>
<path d="M272.481 223.296L256.798 206.286" stroke="black" stroke-width="2.10514" stroke-linecap="round"/>
<path d="M253.797 220.379C252.532 218.765 252.814 216.431 254.428 215.166L260.802 223.296C259.188 224.561 256.854 224.278 255.589 222.665L253.797 220.379Z" fill="#7D8499"/>
<path d="M359.582 164.863C360.783 166.526 360.408 168.847 358.746 170.047L352.699 161.671C354.361 160.471 356.682 160.846 357.882 162.508L359.582 164.863Z" fill="#7D8499"/>
<path d="M228.797 22.6436C228.797 20.8996 230.211 19.4858 231.955 19.4858H242.433V113.76H231.955C230.211 113.76 228.797 112.346 228.797 110.602V22.6436Z" fill="#09F4CC"/>
<path d="M20.6852 151.006C20.6852 149.262 22.099 147.848 23.8429 147.848H34.3211V242.122H23.843C22.099 242.122 20.6852 240.709 20.6852 238.965V151.006Z" fill="#0085FF"/>
<path d="M253.477 37.0405C254.303 34.7669 258.375 30.9016 268.048 33.63C280.14 37.0405 281.69 40.451 289.441 37.0405C297.192 33.63 301.533 30.2195 307.733 33.63C313.934 37.0405 322.305 41.3813 328.506 39.2109C334.707 37.0405 337.807 28.0492 351.759 33.63C362.92 38.0947 363.437 39.2109 362.3 39.2109" stroke="black" stroke-width="2"/>
<path d="M154.603 165.402C153.776 163.129 149.704 159.263 140.031 161.992C127.94 165.402 126.39 168.813 118.639 165.402C110.888 161.992 106.547 158.581 100.346 161.992C94.1456 165.402 85.7746 169.743 79.5738 167.573C73.373 165.402 70.2727 156.411 56.3209 161.992C45.1596 166.457 44.6428 167.573 45.7796 167.573" stroke="black" stroke-width="2"/>
<path d="M253.477 53.2461H323.839" stroke="black" stroke-width="1.05257"/>
<path d="M45.365 181.607H115.727" stroke="black" stroke-width="1.05257"/>
<path d="M253.477 71.4604H306.34" stroke="black" stroke-width="1.05257"/>
<path d="M45.365 199.822H98.2285" stroke="black" stroke-width="1.05257"/>
<path d="M253.477 99.6602H291.77" stroke="black" stroke-width="1.05257"/>
<path d="M45.365 228.021H83.6587" stroke="black" stroke-width="1.05257"/>
<path d="M303.41 99.6602H332.382" stroke="black" stroke-width="1.05257"/>
<path d="M95.2979 228.021H124.271" stroke="black" stroke-width="1.05257"/>
<circle cx="367.205" cy="87.7463" r="15.0192" fill="#1B385F"/>
<circle cx="159.093" cy="216.108" r="15.0192" fill="#1B385F"/>
<path d="M378.187 86.7831C378.187 89.9103 377.823 93.4704 375.836 95.5149C373.862 97.5467 370.274 98.0725 367.269 98.0725C364.264 98.0725 361.092 97.5467 359.117 95.5149C357.131 93.4704 356.352 89.9103 356.352 86.7831C356.352 80.5481 361.24 75.4937 367.269 75.4937C373.299 75.4937 378.187 80.5481 378.187 86.7831Z" fill="#F39F9D"/>
<ellipse cx="147.43" cy="215.095" rx="3.35643" ry="3.9524" fill="#FF6600"/>
<ellipse cx="148.24" cy="221.895" rx="3.35643" ry="3.9524" transform="rotate(15.7745 148.24 221.895)" fill="#FF6600"/>
<ellipse cx="170.075" cy="215.095" rx="3.35643" ry="3.9524" fill="#FF6600"/>
<ellipse cx="170.075" cy="222.261" rx="3.35643" ry="3.9524" transform="rotate(-27.7613 170.075 222.261)" fill="#FF6600"/>
<path d="M170.075 215.145C170.075 218.272 169.711 221.832 167.725 223.877C165.75 225.909 162.163 226.434 159.157 226.434C156.152 226.434 152.98 225.909 151.006 223.877C149.019 221.832 148.24 218.272 148.24 215.145C148.24 208.91 153.128 203.855 159.157 203.855C165.187 203.855 170.075 208.91 170.075 215.145Z" fill="#FFEEEE"/>
<path d="M369.765 68.8575C369.44 65.9258 365.243 66.883 362.858 67.5105C355.177 69.5317 350.862 81.7442 364.04 82.4547C368.476 82.6938 370.178 81.1299 372.854 80.6912C375.955 80.183 380.61 81.8579 381.301 80.6912C382.52 79.2648 381.588 77.1989 380.416 75.5183C379.269 73.8736 376.887 72.7603 375.991 72.9148C377.677 69.0218 372.744 68.9139 369.765 68.8575Z" fill="black"/>
<path d="M151.231 210.985C148.315 212.7 142.504 214.546 142.586 208.206C142.668 201.866 147.08 202.683 149.276 203.884C149.31 201.036 150.284 195.444 153.907 195.856C157.53 196.268 158.984 199.389 159.259 200.899C160.94 198.395 164.94 194.724 167.492 200.076C169.034 203.308 169.302 204.801 169.098 205.393C171.666 204.679 175.652 204.253 175.726 207.074C175.829 210.985 173.667 213.249 170.065 212.117C166.463 210.985 162.655 213.661 160.597 213.249C158.538 212.837 156.463 208.721 151.231 210.985Z" fill="#FF6600"/>
<path fill-rule="evenodd" clip-rule="evenodd" d="M319.199 160.193C336.375 160.193 350.299 174.121 350.299 191.301C350.299 208.482 336.375 222.41 319.199 222.41H313.63C312.503 234.306 301.586 240.904 288.759 240.714C287.135 240.69 286.459 238.756 287.618 237.619C290.753 234.543 292.52 230.334 292.52 225.941V222.41C275.344 222.41 261.42 208.482 261.42 191.301C261.42 174.121 275.344 160.193 292.52 160.193H319.199Z" fill="#FDB21F"/>
<path fill-rule="evenodd" clip-rule="evenodd" d="M95.5 36.126C78.3239 36.126 64.4 50.0536 64.4 67.2341C64.4 84.4146 78.3239 98.3422 95.5 98.3422H101.069C102.196 110.239 113.113 116.836 125.941 116.647C127.564 116.623 128.24 114.689 127.081 113.552C123.946 110.475 122.179 106.267 122.179 101.874V98.3422C139.355 98.3422 153.279 84.4146 153.279 67.2341C153.279 50.0536 139.355 36.126 122.179 36.126H95.5Z" fill="black"/>
<path fill-rule="evenodd" clip-rule="evenodd" d="M90.9329 53.8539C90.9329 51.2689 93.0285 49.1733 95.6135 49.1733L108.309 49.1733L117.671 58.5344L100.294 58.5344L100.294 75.9109L90.933 66.5497L90.9329 53.8539Z" fill="#02BBFE"/>
<path fill-rule="evenodd" clip-rule="evenodd" d="M127.273 80.8321C127.273 83.4171 125.178 85.5127 122.593 85.5127L109.897 85.5127L100.536 76.1516L117.912 76.1516L117.912 58.7751L127.273 68.1364L127.273 80.8321Z" fill="white"/>
<path d="M320.72 171.478C322.405 171.48 324.02 172.15 325.212 173.342C326.403 174.533 327.073 176.149 327.075 177.834V205.009C327.073 206.694 326.403 208.309 325.212 209.5C324.02 210.692 322.405 211.362 320.72 211.364H293.545C291.86 211.362 290.245 210.692 289.053 209.5C287.862 208.309 287.191 206.694 287.19 205.009V177.834C287.191 176.149 287.862 174.533 289.053 173.342C290.245 172.15 291.86 171.48 293.545 171.478H320.72ZM320.72 170.046H293.545C291.48 170.046 289.499 170.867 288.038 172.327C286.578 173.788 285.758 175.768 285.758 177.834V205.009C285.758 207.074 286.578 209.054 288.038 210.515C289.499 211.975 291.48 212.796 293.545 212.796H320.72C322.785 212.796 324.766 211.975 326.226 210.515C327.687 209.054 328.507 207.074 328.507 205.009V177.834C328.507 175.768 327.687 173.788 326.226 172.327C324.766 170.867 322.785 170.046 320.72 170.046Z" fill="black"/>
<path d="M320.223 181.79C320.437 181.459 320.29 181.193 319.896 181.193H310.708C310.492 181.205 310.28 181.265 310.09 181.368C309.899 181.471 309.733 181.615 309.605 181.79L299.328 197.691C299.223 197.875 299.167 198.082 299.166 198.293C299.165 198.505 299.218 198.713 299.321 198.898L303.822 206.025C304.032 206.358 304.379 206.359 304.593 206.025L320.223 181.79Z" fill="black"/>
<path d="M305.957 181.189C306.351 181.189 306.499 181.46 306.285 181.786L300.753 190.366C300.541 190.697 300.193 190.696 299.983 190.366L294.574 181.794C294.364 181.461 294.515 181.189 294.909 181.189H305.957Z" fill="black"/>
<path d="M406.918 15.6359L418.632 1.19775" stroke="#FF6600" stroke-width="2"/>
<path d="M408.941 21.5878L420.158 19.6958" stroke="#FF6600" stroke-width="2"/>
<path d="M399.832 11.3666L399.832 2.21045" stroke="#FF6600" stroke-width="2"/>
<path d="M368.112 175.867L386.507 178.564" stroke="#FF6600" stroke-width="2"/>
<path d="M364.027 180.644L371.383 189.322" stroke="#FF6600" stroke-width="2"/>
<path d="M368.163 167.594L376.036 162.918" stroke="#FF6600" stroke-width="2"/>
<path d="M15.0764 256.059L1.67238 268.943" stroke="#FF6600" stroke-width="2"/>
<path d="M13.8029 249.903L2.43812 250.398" stroke="#FF6600" stroke-width="2"/>
<path d="M21.5824 261.169L20.4535 270.255" stroke="#FF6600" stroke-width="2"/>
<path d="M33.712 127.006L19.2739 115.292" stroke="#FF6600" stroke-width="2"/>
<path d="M39.6638 124.984L37.7718 113.767" stroke="#FF6600" stroke-width="2"/>
<path d="M29.4431 134.093L20.2869 134.092" stroke="#FF6600" stroke-width="2"/>
<defs>
<filter id="filter0_f" x="211.717" y="50.098" width="29.3463" height="33.9192" filterUnits="userSpaceOnUse" color-interpolation-filters="sRGB">
<feFlood flood-opacity="0" result="BackgroundImageFix"/>
<feBlend mode="normal" in="SourceGraphic" in2="BackgroundImageFix" result="shape"/>
<feGaussianBlur stdDeviation="2.63143" result="effect1_foregroundBlur"/>
</filter>
<filter id="filter1_f" x="134.368" y="38.515" width="30.4471" height="32.9969" filterUnits="userSpaceOnUse" color-interpolation-filters="sRGB">
<feFlood flood-opacity="0" result="BackgroundImageFix"/>
<feBlend mode="normal" in="SourceGraphic" in2="BackgroundImageFix" result="shape"/>
<feGaussianBlur stdDeviation="2.63143" result="effect1_foregroundBlur"/>
</filter>
<filter id="filter2_f" x="33.6128" y="132.281" width="33.9192" height="29.3463" filterUnits="userSpaceOnUse" color-interpolation-filters="sRGB">
<feFlood flood-opacity="0" result="BackgroundImageFix"/>
<feBlend mode="normal" in="SourceGraphic" in2="BackgroundImageFix" result="shape"/>
<feGaussianBlur stdDeviation="2.63143" result="effect1_foregroundBlur"/>
</filter>
<filter id="filter3_f" x="53.8143" y="55.3265" width="29.7201" height="33.6228" filterUnits="userSpaceOnUse" color-interpolation-filters="sRGB">
<feFlood flood-opacity="0" result="BackgroundImageFix"/>
<feBlend mode="normal" in="SourceGraphic" in2="BackgroundImageFix" result="shape"/>
<feGaussianBlur stdDeviation="2.63143" result="effect1_foregroundBlur"/>
</filter>
<filter id="filter4_f" x="300.597" y="101.358" width="33.9192" height="29.3463" filterUnits="userSpaceOnUse" color-interpolation-filters="sRGB">
<feFlood flood-opacity="0" result="BackgroundImageFix"/>
<feBlend mode="normal" in="SourceGraphic" in2="BackgroundImageFix" result="shape"/>
<feGaussianBlur stdDeviation="2.63143" result="effect1_foregroundBlur"/>
</filter>
<filter id="filter5_f" x="328.215" y="158.906" width="31.0285" height="32.4636" filterUnits="userSpaceOnUse" color-interpolation-filters="sRGB">
<feFlood flood-opacity="0" result="BackgroundImageFix"/>
<feBlend mode="normal" in="SourceGraphic" in2="BackgroundImageFix" result="shape"/>
<feGaussianBlur stdDeviation="2.63143" result="effect1_foregroundBlur"/>
</filter>
<filter id="filter6_f" x="177.418" y="180.537" width="29.3463" height="33.9192" filterUnits="userSpaceOnUse" color-interpolation-filters="sRGB">
<feFlood flood-opacity="0" result="BackgroundImageFix"/>
<feBlend mode="normal" in="SourceGraphic" in2="BackgroundImageFix" result="shape"/>
<feGaussianBlur stdDeviation="2.63143" result="effect1_foregroundBlur"/>
</filter>
<filter id="filter7_f" x="253.74" y="193.603" width="31.2248" height="32.2774" filterUnits="userSpaceOnUse" color-interpolation-filters="sRGB">
<feFlood flood-opacity="0" result="BackgroundImageFix"/>
<feBlend mode="normal" in="SourceGraphic" in2="BackgroundImageFix" result="shape"/>
<feGaussianBlur stdDeviation="2.63143" result="effect1_foregroundBlur"/>
</filter>
</defs>
</svg>
