<svg width="400" height="261" viewBox="0 0 400 261" fill="none" xmlns="http://www.w3.org/2000/svg">
<path fill-rule="evenodd" clip-rule="evenodd" d="M16.3728 61.6427C-6.06018 101.576 26.4304 150.058 71.8935 144.49L72.9967 153.497C20.1516 159.969 -17.6146 103.615 8.46095 57.198L20.6188 35.5558L28.5307 40.0004L16.3728 61.6427Z" fill="black"/>
<path d="M31.8116 48.0359C24.7604 48.5703 18.611 43.2874 18.0766 36.2362C17.6253 30.2817 21.3501 24.8059 27.0541 23.0384L32.3389 21.4008C40.5774 18.8479 49.052 24.6125 49.7038 33.2127C50.2643 40.6079 44.7237 47.0573 37.3285 47.6178L31.8116 48.0359Z" fill="black"/>
<path d="M50.6758 22.3773C50.1686 19.8659 47.7215 18.2411 45.2101 18.7483L36.933 20.4199C34.4216 20.9271 32.7968 23.3742 33.304 25.8856C33.8112 28.3971 36.2583 30.0218 38.7698 29.5146L47.0468 27.843C49.5582 27.3358 51.183 24.8887 50.6758 22.3773Z" fill="black"/>
<path d="M53.581 30.6205C53.0728 28.1093 50.625 26.4855 48.1138 26.9937L36.1324 29.4184C33.6212 29.9265 31.9974 32.3743 32.5056 34.8855C33.0138 37.3968 35.4615 39.0205 37.9728 38.5124L49.9542 36.0877C52.4654 35.5795 54.0892 33.1318 53.581 30.6205Z" fill="black"/>
<path d="M51.6461 40.467C51.2436 37.9367 48.8661 36.2117 46.3357 36.6143L34.1542 38.5521C31.6239 38.9546 29.899 41.3322 30.3015 43.8625C30.704 46.3928 33.0816 48.1177 35.6119 47.7152L47.7934 45.7774C50.3237 45.3749 52.0486 42.9973 51.6461 40.467Z" fill="black"/>
<path d="M22.5476 6.2459C19.4475 6.42074 17.0762 9.0756 17.251 12.1757L18.2863 30.5311C18.4611 33.6312 21.116 36.0026 24.2161 35.8277C27.3161 35.6529 29.6875 32.998 29.5127 29.8979L28.4774 11.5425C28.3026 8.44244 25.6477 6.07105 22.5476 6.2459Z" fill="black"/>
<path d="M58.4767 108.404C52.1718 101.104 38.7657 89.2904 35.5801 100.44C32.3945 111.59 41.1107 112.829 45.867 112.055C27.8373 109.621 -3.17822 107.077 16.9973 116.368C37.1729 125.66 51.9506 120.24 56.8175 116.368C43.4335 121.346 20.4484 131.5 35.5801 132.297C54.4947 133.292 67.1044 131.965 69.0954 127.983C70.6882 124.797 62.6799 113.603 58.4767 108.404Z" stroke="#FF6600" stroke-width="2.11852"/>
<path d="M138.97 67.1247C141.867 65.0562 163.38 8.37574 125.731 16.2368C95.6126 22.5257 117.595 45.3356 132.351 55.9545C135.385 47.2664 136.902 29.4764 118.698 27.8215C95.9436 25.7529 73.6027 29.0627 88.0829 41.4743C99.6671 51.4036 119.939 62.7117 128.627 67.1247C112.768 57.0576 79.0638 38.8265 71.1204 46.4389C63.177 54.0514 113.044 63.4013 138.97 67.1247Z" stroke="#FF6600" stroke-width="2.11852"/>
<path d="M272.009 52.0952C275.095 39.718 282.258 19.3644 286.225 36.9674C290.192 54.5703 290.633 62.8676 290.357 64.8158C288.219 66.2789 284.4 67.0896 286.225 58.6274C288.506 48.0496 295.316 14.9644 299.614 32.4983C303.052 46.5255 304.616 57.9578 304.969 61.9206C303.824 64.7915 301.696 69.0628 302.343 63.181C303.151 55.8287 327.39 43.1297 327.39 69.693C327.39 83.8922 290.021 75.3648 268.811 69.693L272.009 52.0952Z" stroke="#FF6600" stroke-width="2.11852"/>
<path d="M152.585 246.269C158.817 238.292 164.573 222.558 137.742 223.444C110.911 224.329 126.565 233.042 137.746 237.287C136.285 229.163 129.395 214.379 113.529 220.233C97.6619 226.087 117.196 235.532 128.947 239.522C120.404 234.749 104.339 227.79 108.417 238.143C112.495 248.497 139.561 247.874 152.585 246.269Z" stroke="#FF6600" stroke-width="2.11852"/>
<path d="M97.7813 226.698C98.7782 227.788 99.3927 228.968 99.6171 229.954C99.8495 230.975 99.6309 231.553 99.3523 231.808C99.0738 232.062 98.4782 232.229 97.4823 231.906C96.5205 231.595 95.4004 230.877 94.4035 229.787C93.4066 228.697 92.7921 227.517 92.5677 226.532C92.3353 225.511 92.5539 224.932 92.8325 224.678C93.111 224.423 93.7066 224.257 94.7025 224.579C95.6643 224.891 96.7844 225.608 97.7813 226.698Z" stroke="#FF6600" stroke-width="2.11852"/>
<path d="M259.847 226.364C258.85 227.454 258.235 228.634 258.011 229.62C257.779 230.641 257.997 231.219 258.276 231.474C258.554 231.728 259.15 231.895 260.146 231.572C261.108 231.261 262.228 230.543 263.225 229.453C264.222 228.363 264.836 227.183 265.06 226.198C265.293 225.177 265.074 224.598 264.796 224.344C264.517 224.089 263.922 223.923 262.926 224.245C261.964 224.557 260.844 225.274 259.847 226.364Z" stroke="#FF6600" stroke-width="2.11852"/>
<rect x="56.0293" y="59.1221" width="235.762" height="154.031" rx="10.5926" fill="url(#paint0_linear)"/>
<rect x="66.3782" y="59.1221" width="235.762" height="154.031" rx="10.5926" fill="#1B385E"/>
<g clip-path="url(#clip0)">
<rect x="73.6217" y="66.5288" width="218.891" height="113.914" fill="#0085FF"/>
<g filter="url(#filter0_f)">
<ellipse cx="191.561" cy="78.4898" rx="34.0953" ry="19.6563" fill="#214970"/>
</g>
<path d="M64.2522 117.662C72.9832 98.5632 99.0396 66.0959 133.418 89.014C176.39 117.662 125.642 174.549 94.947 163.499C64.2522 152.449 144.877 79.191 192.352 127.893C239.826 176.596 172.611 207.265 162.885 163.499C158.711 144.718 207.494 59.5464 253.741 71.0058C299.988 82.4651 262.336 170.457 237.78 158.997C213.224 147.538 310.22 78.3725 346.235 98.0171" stroke="white" stroke-opacity="0.5" stroke-width="19.0667"/>
<path d="M200.437 101.346H150.363" stroke="black" stroke-width="1.05926"/>
<path d="M241.635 146.166H191.561" stroke="black" stroke-width="1.05926"/>
<path d="M200.437 110L180.346 110" stroke="black" stroke-width="1.05926"/>
<path d="M241.635 154.819L221.543 154.819" stroke="black" stroke-width="1.05926"/>
<g filter="url(#filter1_f)">
<circle cx="259.752" cy="164.375" r="34.0953" fill="#214970"/>
</g>
<path d="M149.725 147.298C150.46 148.56 151.391 149.486 152.254 149.987C153.147 150.507 153.753 150.469 154.071 150.284C154.388 150.099 154.72 149.591 154.709 148.557C154.699 147.559 154.352 146.292 153.618 145.031C152.883 143.769 151.952 142.843 151.089 142.342C150.195 141.822 149.589 141.86 149.272 142.045C148.954 142.23 148.622 142.738 148.633 143.772C148.644 144.77 148.99 146.037 149.725 147.298Z" stroke="#FF6600" stroke-width="2.11852"/>
<path d="M129.469 115.631C128.251 116.436 127.379 117.419 126.928 118.309C126.46 119.23 126.532 119.833 126.735 120.14C126.938 120.446 127.464 120.749 128.495 120.679C129.491 120.612 130.736 120.194 131.954 119.389C133.171 118.584 134.043 117.601 134.495 116.711C134.963 115.789 134.89 115.187 134.688 114.88C134.485 114.574 133.959 114.271 132.927 114.341C131.932 114.408 130.686 114.826 129.469 115.631Z" stroke="#FF6600" stroke-width="2.11852"/>
</g>
<rect width="119.252" height="52.653" rx="26.3265" transform="matrix(-1 0 0 1 266.277 5.68457)" fill="#09F4CC"/>
<path fill-rule="evenodd" clip-rule="evenodd" d="M239.95 5.68457C254.49 5.68457 266.277 17.4714 266.277 32.0111C266.277 46.5508 254.49 58.3376 239.95 58.3376H197.006C193.99 58.9156 190.3 60.4638 189.902 63.8442C189.388 68.2162 189.688 74.3456 189.902 76.8638C187.223 77.346 180.676 75.4172 175.918 63.8442C175.346 62.6964 173.44 60.1799 170.001 58.1263C157.043 56.4802 147.025 45.4156 147.025 32.0111C147.025 17.4714 158.812 5.68457 173.352 5.68457H239.95Z" fill="#09F4CC"/>
<rect width="119.252" height="52.653" rx="26.3265" transform="matrix(-1 0 0 1 266.277 5.68457)" fill="#09F4CC"/>
<path d="M162.462 213.153H201.41L194.367 240.773H155.681L162.462 213.153Z" fill="#0085FF"/>
<rect x="147.025" y="237.105" width="73.8622" height="8.27869" rx="4.13935" fill="#1B385E"/>
<path d="M56.0293 247.246L323.486 247.246" stroke="#846FF4" stroke-width="4.23704"/>
<g filter="url(#filter2_f)">
<circle cx="109.794" cy="101.717" r="22.389" fill="#214970"/>
</g>
<ellipse rx="8.45545" ry="5.65112" transform="matrix(0.565081 0.825036 -0.646884 0.762588 180.774 197.416)" fill="white"/>
<ellipse rx="7.88851" ry="6.02616" transform="matrix(0.757189 -0.653196 0.448074 0.893997 187.505 198.162)" fill="white"/>
<path d="M184.348 195.296V188.087H186.943L184.348 195.296Z" fill="white"/>
<rect x="210.224" y="84.334" width="145.219" height="39.771" fill="#F5F8FD"/>
<rect x="254.781" y="131.508" width="145.219" height="39.771" fill="#F5F8FD"/>
<path d="M219.325 94.6601C224.506 93.5088 235.559 91.8969 238.323 94.6601C241.777 98.1141 255.939 94.6601 260.084 94.6601C264.229 94.6601 274.591 89.4791 281.154 94.6601C287.717 99.8411 304.642 94.6601 309.478 94.6601" stroke="black" stroke-width="2.11852"/>
<path d="M265.29 141.606C270.472 140.455 281.525 138.843 284.288 141.606C287.742 145.06 301.904 141.606 306.049 141.606C310.194 141.606 320.556 136.425 327.119 141.606C333.682 146.787 350.607 141.606 355.443 141.606" stroke="black" stroke-width="2.11852"/>
<path d="M219.325 104.449C223.49 103.298 232.374 101.686 234.596 104.449C237.372 107.903 248.756 104.449 252.087 104.449C255.419 104.449 263.749 99.2681 269.024 104.449C274.299 109.63 287.904 104.449 291.791 104.449" stroke="#7D8499" stroke-width="2.11852"/>
<path d="M265.29 151.394C269.455 150.243 278.34 148.631 280.561 151.394C283.337 154.848 294.721 151.394 298.053 151.394C301.385 151.394 309.714 146.213 314.989 151.394C320.265 156.575 333.869 151.394 337.756 151.394" stroke="#7D8499" stroke-width="2.11852"/>
<path d="M219.325 114.237C223.49 113.085 232.374 111.474 234.596 114.237C237.372 117.691 248.756 114.237 252.087 114.237C255.419 114.237 263.749 109.056 269.024 114.237C274.299 119.418 287.904 114.237 291.791 114.237" stroke="#7D8499" stroke-width="2.11852"/>
<path d="M265.29 161.181C269.455 160.03 278.34 158.418 280.561 161.181C283.337 164.635 294.721 161.181 298.053 161.181C301.385 161.181 309.714 156 314.989 161.181C320.265 166.362 333.869 161.181 337.756 161.181" stroke="#7D8499" stroke-width="2.11852"/>
<circle cx="333.16" cy="104.448" r="11.5931" stroke="#0085FF" stroke-width="2.11852"/>
<circle cx="378.552" cy="151.956" r="11.5931" stroke="#0085FF" stroke-width="2.11852"/>
<path d="M78.1972 185.508L100.906 125.492H26.6977L4.80031 185.508H78.1972Z" fill="#846FF4"/>
<g filter="url(#filter3_f)">
<circle cx="43.4492" cy="164.524" r="14.7871" fill="#214970"/>
</g>
<path d="M50.1031 185.508L27.3947 125.492H101.603L123.5 185.508H50.1031Z" fill="#B6B6DE"/>
<ellipse cx="51.6224" cy="131.242" rx="2.16271" ry="2.63879" transform="rotate(-18.1965 51.6224 131.242)" fill="#846FF4"/>
<ellipse cx="69.3022" cy="131.242" rx="2.16271" ry="2.63879" transform="rotate(-18.1965 69.3022 131.242)" fill="#846FF4"/>
<ellipse cx="87.7734" cy="131.242" rx="2.16271" ry="2.63879" transform="rotate(-18.1965 87.7734 131.242)" fill="#846FF4"/>
<path d="M33.4351 140.879C35.1805 140.879 83.2797 140.879 107.111 140.879" stroke="black" stroke-width="2.11852"/>
<path d="M36.9437 151.154C38.6891 151.154 86.7883 151.154 110.62 151.154" stroke="black" stroke-width="2.11852"/>
<path d="M40.4525 161.429C42.1979 161.429 90.2971 161.429 114.128 161.429" stroke="black" stroke-width="2.11852"/>
<path d="M43.9612 171.705C45.7066 171.705 93.8057 171.705 117.637 171.705" stroke="black" stroke-width="2.11852"/>
<path d="M46.3608 137.552C46.3608 138.953 59.5845 170.32 66.1964 185.829" stroke="black" stroke-width="2.11852"/>
<path d="M63.5077 137.552C63.5077 138.953 76.7315 170.32 83.3433 185.829" stroke="black" stroke-width="2.11852"/>
<path d="M80.6546 137.552C80.6546 138.953 93.8784 170.32 100.49 185.829" stroke="black" stroke-width="2.11852"/>
<path d="M97.8015 137.292C97.8015 138.692 111.025 170.059 117.637 185.568" stroke="black" stroke-width="2.11852"/>
<path d="M45.1889 125.633C45.1889 124.442 45.5421 123.278 46.2037 122.288C46.8654 121.297 47.8058 120.526 48.906 120.07C50.0063 119.614 51.217 119.495 52.385 119.727C53.553 119.96 54.6259 120.533 55.468 121.375C56.3101 122.217 56.8836 123.29 57.1159 124.458C57.3483 125.626 57.229 126.837 56.7733 127.937C56.3175 129.037 55.5458 129.978 54.5556 130.64C53.5654 131.301 52.4012 131.654 51.2103 131.654" stroke="black" stroke-width="2.11852"/>
<path d="M63.6766 125.633C63.6766 124.442 64.0297 123.278 64.6913 122.288C65.353 121.297 66.2934 120.526 67.3936 120.07C68.4939 119.614 69.7046 119.495 70.8726 119.727C72.0406 119.96 73.1135 120.533 73.9556 121.375C74.7977 122.217 75.3712 123.29 75.6035 124.458C75.8359 125.626 75.7166 126.837 75.2609 127.937C74.8051 129.037 74.0334 129.978 73.0432 130.64C72.053 131.301 70.8888 131.654 69.6979 131.654" stroke="black" stroke-width="2.11852"/>
<path d="M81.7521 125.633C81.7521 124.442 82.1053 123.278 82.7669 122.288C83.4285 121.297 84.3689 120.526 85.4692 120.07C86.5694 119.614 87.7801 119.495 88.9482 119.727C90.1162 119.96 91.1891 120.533 92.0312 121.375C92.8733 122.217 93.4468 123.29 93.6791 124.458C93.9114 125.626 93.7922 126.837 93.3365 127.937C92.8807 129.037 92.1089 129.978 91.1187 130.64C90.1285 131.301 88.9644 131.654 87.7735 131.654" stroke="black" stroke-width="2.11852"/>
<path d="M24.5507 214.124C23.1457 214.58 22.029 215.302 21.3472 216.049C20.6413 216.822 20.546 217.433 20.6625 217.792C20.779 218.151 21.215 218.589 22.2403 218.801C23.2305 219.004 24.5588 218.933 25.9638 218.477C27.3689 218.021 28.4856 217.299 29.1674 216.552C29.8732 215.779 29.9686 215.168 29.852 214.809C29.7355 214.45 29.2996 214.012 28.2743 213.801C27.284 213.597 25.9558 213.668 24.5507 214.124Z" stroke="#FF6600" stroke-width="2.11852"/>
<path d="M329.228 209.821C329.819 211.175 330.648 212.215 331.458 212.821C332.296 213.447 332.913 213.482 333.259 213.331C333.605 213.18 333.999 212.703 334.108 211.662C334.214 210.657 334.014 209.342 333.422 207.988C332.83 206.635 332.002 205.594 331.192 204.989C330.354 204.362 329.736 204.327 329.391 204.478C329.045 204.629 328.651 205.106 328.541 206.147C328.436 207.153 328.636 208.468 329.228 209.821Z" stroke="#FF6600" stroke-width="2.11852"/>
<path d="M90.3685 10.4669C89.3717 11.557 88.7572 12.7367 88.5327 13.7225C88.3003 14.7431 88.519 15.3215 88.7975 15.5763C89.0761 15.831 89.6717 15.9972 90.6675 15.6746C91.6294 15.3631 92.7495 14.6458 93.7464 13.5557C94.7432 12.4655 95.3577 11.2859 95.5822 10.3001C95.8146 9.27943 95.5959 8.70103 95.3174 8.44632C95.0388 8.1916 94.4432 8.02542 93.4474 8.34794C92.4855 8.65946 91.3654 9.37673 90.3685 10.4669Z" stroke="#FF6600" stroke-width="2.11852"/>
<path d="M343.288 72.2712C344.032 73.5477 344.975 74.4858 345.849 74.9939C346.754 75.5199 347.371 75.4836 347.697 75.2936C348.023 75.1036 348.36 74.5846 348.349 73.5379C348.338 72.5269 347.987 71.2439 347.244 69.9675C346.5 68.691 345.557 67.7528 344.683 67.2448C343.778 66.7187 343.161 66.7551 342.835 66.945C342.508 67.135 342.172 67.654 342.183 68.7007C342.194 69.7117 342.545 70.9947 343.288 72.2712Z" stroke="#FF6600" stroke-width="2.11852"/>
<path fill-rule="evenodd" clip-rule="evenodd" d="M184.873 43.1173C189.905 43.1173 193.984 39.038 193.984 34.0059C193.984 28.9738 189.905 24.8945 184.873 24.8945C179.84 24.8945 175.761 28.9738 175.761 34.0059C175.761 39.038 179.84 43.1173 184.873 43.1173ZM185.095 40.0056C188.286 40.0056 190.873 37.5182 190.873 34.4498C190.873 31.3815 188.286 28.8941 185.095 28.8941C181.904 28.8941 179.317 31.3815 179.317 34.4498C179.317 37.5182 181.904 40.0056 185.095 40.0056Z" fill="#FAFAFA"/>
<path fill-rule="evenodd" clip-rule="evenodd" d="M206.651 43.1173C211.683 43.1173 215.762 39.038 215.762 34.0059C215.762 28.9738 211.683 24.8945 206.651 24.8945C201.619 24.8945 197.54 28.9738 197.54 34.0059C197.54 39.038 201.619 43.1173 206.651 43.1173ZM206.873 40.0056C210.064 40.0056 212.651 37.5182 212.651 34.4498C212.651 31.3815 210.064 28.8941 206.873 28.8941C203.682 28.8941 201.095 31.3815 201.095 34.4498C201.095 37.5182 203.682 40.0056 206.873 40.0056Z" fill="#FAFAFA"/>
<path fill-rule="evenodd" clip-rule="evenodd" d="M228.429 43.1173C233.461 43.1173 237.541 39.038 237.541 34.0059C237.541 28.9738 233.461 24.8945 228.429 24.8945C223.397 24.8945 219.318 28.9738 219.318 34.0059C219.318 39.038 223.397 43.1173 228.429 43.1173ZM228.652 40.0056C231.843 40.0056 234.43 37.5182 234.43 34.4498C234.43 31.3815 231.843 28.8941 228.652 28.8941C225.461 28.8941 222.874 31.3815 222.874 34.4498C222.874 37.5182 225.461 40.0056 228.652 40.0056Z" fill="#FAFAFA"/>
<path d="M123.043 76.0879C123.845 73.4159 125.448 71.0111 127.586 69.1407C131.594 65.8007 134.132 60.7239 134.132 55.1128C134.132 44.6921 125.448 36.1417 114.76 36.6761C105.275 37.0769 97.526 45.0928 97.2588 54.5783C97.1252 60.4568 99.6636 65.6671 103.805 69.1407C106.076 71.011 107.68 73.4158 108.481 76.0879H123.043Z" fill="#FDB21F"/>
<path d="M113.675 76.7203L113.605 76.4454L108.269 55.637C108.173 55.42 108.174 55.1897 108.262 54.985C108.352 54.7752 108.522 54.6165 108.719 54.5181L108.719 54.5181C109.184 54.2853 109.618 54.5291 109.809 54.7202L109.851 54.7622L109.877 54.8152C109.891 54.8432 109.939 54.8964 110.049 54.9452C110.155 54.9921 110.271 55.0139 110.352 55.0139C110.671 55.0139 110.962 54.9096 111.146 54.7358C111.631 54.1066 112.409 53.8115 113.157 53.8115C113.905 53.8115 114.684 54.1068 115.169 54.7364C115.56 55.1118 116.12 55.1064 116.506 54.7202C117.09 54.1358 117.713 53.8115 118.501 53.8115C119.278 53.8115 119.893 54.1261 120.47 54.694C120.834 54.9339 121.024 55.0139 121.307 55.0139C121.443 55.0139 121.623 54.9475 121.85 54.7202C122.041 54.5291 122.474 54.2852 122.94 54.5181L113.675 76.7203ZM113.675 76.7203H113.959M113.675 76.7203H113.959M113.959 76.7203H115.161H115.638M113.959 76.7203H115.638M115.638 76.7203L115.514 76.2598M115.638 76.7203L115.514 76.2598M115.514 76.2598L110.294 56.8131C111.036 56.7935 111.766 56.4865 112.347 55.9054C112.459 55.7934 112.556 55.7239 112.654 55.6804C112.751 55.6376 112.866 55.6117 113.024 55.6117C113.181 55.6117 113.296 55.6376 113.393 55.6804C113.488 55.7229 113.584 55.7901 113.692 55.8975C114.772 57.1196 116.62 57.1196 117.699 55.8975C117.808 55.7901 117.903 55.7229 117.998 55.6804C118.095 55.6376 118.21 55.6117 118.368 55.6117C118.544 55.6117 118.85 55.7113 119.044 55.9054C119.333 56.1942 119.636 56.4253 119.989 56.5822C120.324 56.7311 120.687 56.8057 121.1 56.8134M115.514 76.2598L121.1 56.8134M121.1 56.8134L116.01 76.262L115.89 76.7203H116.364H117.566H117.848L117.92 76.4476L123.397 55.6061L123.409 55.5604V55.5132C123.409 55.5075 123.409 55.5016 123.409 55.4957C123.409 55.3745 123.41 55.1959 123.362 55.0286C123.305 54.8284 123.178 54.6374 122.94 54.5181L121.1 56.8134Z" fill="black" stroke="black" stroke-width="0.731408"/>
<path d="M111.554 88.3794C112.222 89.9826 113.825 91.185 115.696 91.185C117.566 91.185 119.169 89.9826 119.837 88.3794H111.554Z" fill="#0085FF"/>
<path d="M120.639 88.5149H110.886C109.55 88.5149 108.481 87.4461 108.481 86.1101V75.9565H123.043V86.1101C123.043 87.446 121.975 88.5149 120.639 88.5149Z" fill="#0085FF"/>
<path d="M122.911 81.0319H108.482C107.68 81.0319 107.012 80.3639 107.012 79.5623C107.012 78.7607 107.68 78.0928 108.482 78.0928H122.911C123.712 78.0928 124.38 78.7607 124.38 79.5623C124.38 80.3639 123.712 81.0319 122.911 81.0319Z" fill="black"/>
<path d="M122.91 85.7086H108.481C107.68 85.7086 107.012 85.0407 107.012 84.2391C107.012 83.4375 107.68 82.7695 108.481 82.7695H122.91C123.711 82.7695 124.379 83.4375 124.379 84.2391C124.379 85.0405 123.711 85.7086 122.91 85.7086Z" fill="black"/>
<path d="M115.696 27.0581C115.028 27.0581 114.36 27.5925 114.36 28.3941V32.9365C114.36 33.6045 114.894 34.2726 115.696 34.2726C116.497 34.2726 117.032 33.7381 117.032 32.9365V28.3941C117.032 27.5925 116.364 27.0581 115.696 27.0581Z" fill="#FDB21F"/>
<path d="M97.7933 35.2075C97.2589 34.673 96.4573 34.673 95.923 35.2075C95.3887 35.7419 95.3886 36.5435 95.923 37.0778L99.1294 40.2842C99.6638 40.8186 100.465 40.8186 101 40.2842C101.534 39.7498 101.534 38.9482 101 38.4138L97.7933 35.2075Z" fill="#FDB21F"/>
<path d="M93.6517 53.645H89.1093C88.4413 53.645 87.7733 54.1795 87.7733 54.9811C87.7733 55.649 88.3077 56.3171 89.1093 56.3171H93.6517C94.3196 56.3171 94.9877 55.7826 94.9877 54.9811C94.9877 54.313 94.3196 53.645 93.6517 53.645Z" fill="#FDB21F"/>
<path d="M99.1291 69.6747L95.9227 72.8811C95.3883 73.4155 95.3883 74.2171 95.9227 74.7514C96.4572 75.2857 97.2588 75.2859 97.7931 74.7514L100.999 71.5451C101.534 71.0106 101.534 70.209 100.999 69.6747C100.465 69.1404 99.6636 69.1403 99.1291 69.6747Z" fill="#FDB21F"/>
<path d="M132.262 69.6748C131.727 69.1403 130.926 69.1403 130.391 69.6748C129.857 70.2092 129.857 71.0108 130.391 71.5451L133.598 74.7515C134.132 75.2859 134.934 75.2859 135.468 74.7515C136.002 74.217 136.003 73.4154 135.468 72.8811L132.262 69.6748Z" fill="#FDB21F"/>
<path d="M142.282 53.645H137.739C137.071 53.645 136.403 54.1795 136.403 54.9811C136.403 55.649 136.938 56.3171 137.739 56.3171H142.282C142.95 56.3171 143.618 55.7826 143.618 54.9811C143.618 54.313 143.083 53.645 142.282 53.645Z" fill="#FDB21F"/>
<path d="M133.598 35.2074L130.391 38.4138C129.857 38.9482 129.857 39.7498 130.391 40.2841C130.926 40.8186 131.727 40.8186 132.262 40.2841L135.468 37.0778C136.003 36.5433 136.003 35.7417 135.468 35.2074C134.934 34.6731 134.132 34.673 133.598 35.2074Z" fill="#FDB21F"/>
<g filter="url(#filter4_f)">
<ellipse rx="10.3581" ry="6.23406" transform="matrix(0.0388376 0.999246 -0.884791 -0.465988 109.775 56.3716)" fill="#D7C100"/>
</g>
<defs>
<filter id="filter0_f" x="93.91" y="-4.72212" width="195.302" height="166.424" filterUnits="userSpaceOnUse" color-interpolation-filters="sRGB">
<feFlood flood-opacity="0" result="BackgroundImageFix"/>
<feBlend mode="normal" in="SourceGraphic" in2="BackgroundImageFix" result="shape"/>
<feGaussianBlur stdDeviation="31.7778" result="effect1_foregroundBlur"/>
</filter>
<filter id="filter1_f" x="162.101" y="66.7242" width="195.302" height="195.302" filterUnits="userSpaceOnUse" color-interpolation-filters="sRGB">
<feFlood flood-opacity="0" result="BackgroundImageFix"/>
<feBlend mode="normal" in="SourceGraphic" in2="BackgroundImageFix" result="shape"/>
<feGaussianBlur stdDeviation="31.7778" result="effect1_foregroundBlur"/>
</filter>
<filter id="filter2_f" x="23.8491" y="15.772" width="171.889" height="171.889" filterUnits="userSpaceOnUse" color-interpolation-filters="sRGB">
<feFlood flood-opacity="0" result="BackgroundImageFix"/>
<feBlend mode="normal" in="SourceGraphic" in2="BackgroundImageFix" result="shape"/>
<feGaussianBlur stdDeviation="31.7778" result="effect1_foregroundBlur"/>
</filter>
<filter id="filter3_f" x="3.2398" y="124.315" width="80.4188" height="80.4188" filterUnits="userSpaceOnUse" color-interpolation-filters="sRGB">
<feFlood flood-opacity="0" result="BackgroundImageFix"/>
<feBlend mode="normal" in="SourceGraphic" in2="BackgroundImageFix" result="shape"/>
<feGaussianBlur stdDeviation="12.7111" result="effect1_foregroundBlur"/>
</filter>
<filter id="filter4_f" x="84.4403" y="25.8148" width="50.6692" height="61.1137" filterUnits="userSpaceOnUse" color-interpolation-filters="sRGB">
<feFlood flood-opacity="0" result="BackgroundImageFix"/>
<feBlend mode="normal" in="SourceGraphic" in2="BackgroundImageFix" result="shape"/>
<feGaussianBlur stdDeviation="9.90193" result="effect1_foregroundBlur"/>
</filter>
<linearGradient id="paint0_linear" x1="173.91" y1="59.1221" x2="173.91" y2="213.153" gradientUnits="userSpaceOnUse">
<stop stop-color="#A5A3A4"/>
<stop offset="1"/>
</linearGradient>
<clipPath id="clip0">
<rect width="221.275" height="115.154" fill="white" transform="translate(73.6217 66.5288)"/>
</clipPath>
</defs>
</svg>
