<svg width="191" height="224" viewBox="0 0 191 224" fill="none" xmlns="http://www.w3.org/2000/svg">
<g filter="url(#filter0_d)">
<rect x="30" y="30.7278" width="116.67" height="163.27" rx="2.4723" fill="white"/>
</g>
<path d="M30 33.2001C30 31.8347 31.1069 30.7278 32.4723 30.7278H144.198C145.563 30.7278 146.67 31.8347 146.67 33.2001V47.0548H30V33.2001Z" fill="#0085FF"/>
<rect x="70.8822" y="36.885" width="34.9057" height="4.01239" rx="0.988921" fill="black"/>
<rect x="37.9469" y="123.627" width="101.101" height="28.1617" rx="0.988921" fill="#F5F8FD"/>
<rect x="122.345" y="145.787" width="1.34493" height="16.1591" transform="rotate(-180 122.345 145.787)" fill="#0085FF"/>
<rect x="119.616" y="141.189" width="1.34493" height="6.96201" transform="rotate(-180 119.616 141.189)" fill="#0085FF"/>
<rect x="116.887" y="142.825" width="1.34493" height="10.2354" transform="rotate(-180 116.887 142.825)" fill="#0085FF"/>
<rect x="84.1389" y="142.825" width="1.34493" height="10.2354" transform="rotate(-180 84.1389 142.825)" fill="#0085FF"/>
<rect x="114.158" y="147.72" width="1.34493" height="20.0251" transform="rotate(-180 114.158 147.72)" fill="#0085FF"/>
<rect x="111.429" y="139.843" width="1.34493" height="4.27158" transform="rotate(-180 111.429 139.843)" fill="#0085FF"/>
<rect x="86.8679" y="139.843" width="1.34493" height="4.27158" transform="rotate(-180 86.8679 139.843)" fill="#0085FF"/>
<rect x="108.7" y="144.963" width="1.34493" height="14.5114" transform="rotate(-180 108.7 144.963)" fill="#0085FF"/>
<rect x="105.971" y="138.551" width="1.34493" height="1.68714" transform="rotate(-180 105.971 138.551)" fill="#0085FF"/>
<rect x="103.242" y="139.531" width="1.34493" height="3.6463" transform="rotate(-180 103.242 139.531)" fill="#0085FF"/>
<rect x="100.513" y="144.963" width="1.34493" height="14.5114" transform="rotate(-180 100.513 144.963)" fill="#0085FF"/>
<rect x="97.7839" y="140.774" width="1.34493" height="6.13293" transform="rotate(-180 97.7839 140.774)" fill="#0085FF"/>
<rect x="81.4101" y="140.774" width="1.34493" height="6.13293" transform="rotate(-180 81.4101 140.774)" fill="#0085FF"/>
<rect x="89.5968" y="140.774" width="1.34493" height="6.13293" transform="rotate(-180 89.5968 140.774)" fill="#0085FF"/>
<rect x="95.055" y="139.343" width="1.34493" height="3.26988" transform="rotate(-180 95.055 139.343)" fill="#0085FF"/>
<rect x="78.681" y="139.343" width="1.34493" height="3.26988" transform="rotate(-180 78.681 139.343)" fill="#0085FF"/>
<rect x="92.3259" y="138.551" width="1.34493" height="1.68713" transform="rotate(-180 92.3259 138.551)" fill="#0085FF"/>
<rect x="75.9521" y="138.551" width="1.34493" height="1.68713" transform="rotate(-180 75.9521 138.551)" fill="#0085FF"/>
<circle cx="53.3466" cy="137.708" r="8.77414" fill="#0085FF"/>
<path d="M56.1375 137.389C56.3501 137.548 56.3501 137.867 56.1375 138.026L52.3761 140.847C52.1133 141.045 51.7384 140.857 51.7384 140.529L51.7384 134.886C51.7384 134.558 52.1133 134.37 52.3761 134.567L56.1375 137.389Z" fill="white"/>
<path fill-rule="evenodd" clip-rule="evenodd" d="M35.5215 39.0747C35.4199 38.973 35.4199 38.8083 35.5216 38.7067L37.1781 37.0511C37.2797 36.9495 37.4445 36.9496 37.5461 37.0512C37.6477 37.1529 37.6476 37.3177 37.546 37.4192L36.0735 38.8908L37.5451 40.3633C37.6467 40.4649 37.6467 40.6297 37.545 40.7313C37.4434 40.8329 37.2786 40.8328 37.177 40.7312L35.5215 39.0747Z" fill="black"/>
<rect x="37.9469" y="79.8138" width="101.101" height="40.8051" rx="0.988921" fill="#F5F8FD"/>
<rect x="43.2657" y="85.514" width="84.8656" height="2.17693" rx="0.494461" fill="#7D8499"/>
<rect x="43.2656" y="90.9563" width="78.3131" height="2.17693" rx="0.494461" fill="#7D8499"/>
<rect x="43.2656" y="96.3986" width="83.803" height="2.17693" rx="0.494461" fill="#7D8499"/>
<rect x="43.2656" y="101.841" width="90.1386" height="2.17693" rx="0.494461" fill="#7D8499"/>
<rect x="43.2656" y="107.283" width="87.3261" height="2.17693" rx="0.494461" fill="#7D8499"/>
<rect x="43.2656" y="112.726" width="71.5378" height="2.17693" rx="0.494461" fill="#7D8499"/>
<g filter="url(#filter1_d)">
<path d="M121 33.2664C121 19.0495 124.047 16.0024 138.264 16.0024H155.736C169.953 16.0024 173 19.0495 173 33.2664V50.7384C173 64.9553 169.953 68.0024 155.736 68.0024H138.264C124.047 68.0024 121 64.9553 121 50.7384V33.2664Z" fill="white"/>
</g>
<g clip-path="url(#clip0)">
<rect x="136.107" y="32.3688" width="5.19456" height="19.2633" rx="2.59728" fill="#0084FE"/>
<path d="M133 42.5001C137.667 35.5465 140 35.5465 140 42.5001C140 52.5001 142.333 52.5001 147 42.5001C151.667 32.5001 154 32.5001 154 42.5001C154 49.1889 156.333 49.1889 161 42.5001" stroke="#322E30" stroke-width="2" stroke-linecap="round"/>
<rect x="144.526" y="37.2004" width="5.25" height="9.59999" rx="2.625" fill="#0084FE"/>
<rect x="152.999" y="27.0001" width="5.25" height="30" rx="2.625" fill="#0084FE"/>
</g>
<defs>
<filter id="filter0_d" x="0" y="0.727844" width="176.67" height="223.27" filterUnits="userSpaceOnUse" color-interpolation-filters="sRGB">
<feFlood flood-opacity="0" result="BackgroundImageFix"/>
<feColorMatrix in="SourceAlpha" type="matrix" values="0 0 0 0 0 0 0 0 0 0 0 0 0 0 0 0 0 0 127 0"/>
<feMorphology radius="10" operator="dilate" in="SourceAlpha" result="effect1_dropShadow"/>
<feOffset/>
<feGaussianBlur stdDeviation="10"/>
<feColorMatrix type="matrix" values="0 0 0 0 0 0 0 0 0 0.122667 0 0 0 0 0.766667 0 0 0 0.05 0"/>
<feBlend mode="normal" in2="BackgroundImageFix" result="effect1_dropShadow"/>
<feBlend mode="normal" in="SourceGraphic" in2="effect1_dropShadow" result="shape"/>
</filter>
<filter id="filter1_d" x="103" y="5.00244" width="88" height="88" filterUnits="userSpaceOnUse" color-interpolation-filters="sRGB">
<feFlood flood-opacity="0" result="BackgroundImageFix"/>
<feColorMatrix in="SourceAlpha" type="matrix" values="0 0 0 0 0 0 0 0 0 0 0 0 0 0 0 0 0 0 127 0"/>
<feOffset dy="7"/>
<feGaussianBlur stdDeviation="9"/>
<feColorMatrix type="matrix" values="0 0 0 0 0 0 0 0 0 0.121569 0 0 0 0 0.764706 0 0 0 0.05 0"/>
<feBlend mode="normal" in2="BackgroundImageFix" result="effect1_dropShadow"/>
<feBlend mode="normal" in="SourceGraphic" in2="effect1_dropShadow" result="shape"/>
</filter>
<clipPath id="clip0">
<rect width="30" height="30" fill="white" transform="translate(132 27.0001)"/>
</clipPath>
</defs>
</svg>
