<svg width="216" height="90" viewBox="0 0 216 90" fill="none" xmlns="http://www.w3.org/2000/svg">
<g filter="url(#filter0_d)">
<rect x="22.9978" y="19.4824" width="170.004" height="44.1494" rx="22.0747" fill="white"/>
<path d="M44.2328 30.8965C44.4971 30.083 45.648 30.083 45.9123 30.8965L47.848 36.854C47.9662 37.2178 48.3052 37.4641 48.6877 37.4641L54.9518 37.4641C55.8072 37.4641 56.1628 38.5586 55.4708 39.0614L50.4031 42.7433C50.0936 42.9682 49.9641 43.3667 50.0823 43.7305L52.018 49.688C52.2823 50.5015 51.3513 51.1779 50.6593 50.6752L45.5915 46.9933C45.2821 46.7684 44.863 46.7684 44.5535 46.9933L39.4858 50.6752C38.7938 51.1779 37.8627 50.5015 38.1271 49.688L40.0628 43.7305C40.181 43.3667 40.0515 42.9682 39.742 42.7433L34.6743 39.0614C33.9823 38.5586 34.3379 37.4641 35.1933 37.4641L41.4573 37.4641C41.8399 37.4641 42.1789 37.2178 42.2971 36.854L44.2328 30.8965Z" fill="#09F4CC"/>
<path d="M76.0207 30.8965C76.285 30.083 77.4358 30.083 77.7002 30.8965L79.6359 36.854C79.7541 37.2178 80.0931 37.4641 80.4756 37.4641L86.7397 37.4641C87.595 37.4641 87.9507 38.5586 87.2587 39.0614L82.1909 42.7433C81.8815 42.9682 81.752 43.3667 81.8702 43.7305L83.8059 49.688C84.0702 50.5015 83.1391 51.1779 82.4471 50.6752L77.3794 46.9933C77.0699 46.7684 76.6509 46.7684 76.3414 46.9933L71.2737 50.6752C70.5817 51.1779 69.6506 50.5015 69.9149 49.688L71.8506 43.7305C71.9688 43.3667 71.8393 42.9682 71.5299 42.7433L66.4621 39.0614C65.7702 38.5586 66.1258 37.4641 66.9811 37.4641L73.2452 37.4641C73.6277 37.4641 73.9667 37.2178 74.085 36.854L76.0207 30.8965Z" fill="#09F4CC"/>
<path d="M107.808 30.8965C108.073 30.083 109.224 30.083 109.488 30.8965L111.424 36.854C111.542 37.2178 111.881 37.4641 112.263 37.4641L118.528 37.4641C119.383 37.4641 119.739 38.5586 119.047 39.0614L113.979 42.7433C113.669 42.9682 113.54 43.3667 113.658 43.7305L115.594 49.688C115.858 50.5015 114.927 51.1779 114.235 50.6752L109.167 46.9933C108.858 46.7684 108.439 46.7684 108.129 46.9933L103.062 50.6752C102.37 51.1779 101.438 50.5015 101.703 49.688L103.638 43.7305C103.757 43.3667 103.627 42.9682 103.318 42.7433L98.25 39.0614C97.558 38.5586 97.9136 37.4641 98.769 37.4641L105.033 37.4641C105.416 37.4641 105.755 37.2178 105.873 36.854L107.808 30.8965Z" fill="#09F4CC"/>
<path d="M139.596 30.8965C139.861 30.083 141.012 30.083 141.276 30.8965L143.212 36.854C143.33 37.2178 143.669 37.4641 144.051 37.4641L150.315 37.4641C151.171 37.4641 151.526 38.5586 150.834 39.0614L145.767 42.7433C145.457 42.9682 145.328 43.3667 145.446 43.7305L147.382 49.688C147.646 50.5015 146.715 51.1779 146.023 50.6752L140.955 46.9933C140.646 46.7684 140.227 46.7684 139.917 46.9933L134.849 50.6752C134.157 51.1779 133.226 50.5015 133.491 49.688L135.426 43.7305C135.545 43.3667 135.415 42.9682 135.106 42.7433L130.038 39.0614C129.346 38.5586 129.702 37.4641 130.557 37.4641L136.821 37.4641C137.203 37.4641 137.542 37.2178 137.661 36.854L139.596 30.8965Z" fill="#09F4CC"/>
<path d="M170.736 30.8965C171 30.083 172.151 30.083 172.415 30.8965L174.351 36.854C174.469 37.2178 174.808 37.4641 175.191 37.4641H181.455C182.31 37.4641 182.666 38.5586 181.974 39.0614L176.906 42.7433C176.597 42.9682 176.467 43.3667 176.585 43.7305L178.521 49.688C178.785 50.5015 177.854 51.1779 177.162 50.6752L172.095 46.9933C171.785 46.7684 171.366 46.7684 171.057 46.9933L165.989 50.6752C165.297 51.1779 164.366 50.5015 164.63 49.688L166.566 43.7305C166.684 43.3667 166.555 42.9682 166.245 42.7433L161.177 39.0614C160.485 38.5586 160.841 37.4641 161.696 37.4641H167.96C168.343 37.4641 168.682 37.2178 168.8 36.854L170.736 30.8965Z" fill="#DAE3F1"/>
</g>
<defs>
<filter id="filter0_d" x="0.923603" y="0.940068" width="214.153" height="88.2979" filterUnits="userSpaceOnUse" color-interpolation-filters="sRGB">
<feFlood flood-opacity="0" result="BackgroundImageFix"/>
<feColorMatrix in="SourceAlpha" type="matrix" values="0 0 0 0 0 0 0 0 0 0 0 0 0 0 0 0 0 0 127 0"/>
<feOffset dy="3.53188"/>
<feGaussianBlur stdDeviation="11.0371"/>
<feColorMatrix type="matrix" values="0 0 0 0 0.156625 0 0 0 0 0.130156 0 0 0 0 0.2625 0 0 0 0.1 0"/>
<feBlend mode="normal" in2="BackgroundImageFix" result="effect1_dropShadow"/>
<feBlend mode="normal" in="SourceGraphic" in2="effect1_dropShadow" result="shape"/>
</filter>
</defs>
</svg>
