<svg width="1141" height="425" viewBox="0 0 1141 425" fill="none" xmlns="http://www.w3.org/2000/svg">
<path d="M120.734 -155.675C136.336 -147.871 411.976 -140.068 287.158 26.4092C187.304 159.591 30.5873 95.7745 -35.2891 47.2188C11.9586 -0.305275 120.497 -59.319 176.668 84.8185C232.84 228.956 197.211 306.325 163.211 338.281C252.711 419.825 146.751 525.782 75.926 396.302C-12.6052 234.453 222.461 173.378 390.365 219.184C558.269 264.99 695.645 5.42071 567.427 -0.686813C439.209 -6.79434 481.949 323.012 567.427 338.281C652.905 353.55 457.526 170.324 713.961 176.431C970.397 182.539 887.971 487.915 738.384 527.614C588.797 567.313 237.724 521.507 332.361 381.033C426.998 240.56 329.309 -28.9245 448.368 -92.2997C567.427 -155.675 781.123 -156.429 857.443 -0.686813C933.763 155.055 826.915 362.711 738.384 396.302C649.853 429.894 695.645 97.0335 839.126 118.41C982.608 139.786 1031.45 326.066 1080.3 436.001C1129.14 545.937 1254.31 189.601 1107.77 118.41C961.238 47.2188 756.701 -38.878 1049.77 -155.675" stroke="#0085FF" stroke-opacity="0.5" stroke-width="40"/>
</svg>
